<svg width="640" height="613" viewBox="0 0 640 613" fill="none" xmlns="http://www.w3.org/2000/svg">
<path d="M433.438 191.196V518.6C433.438 523.716 431.406 528.621 427.789 532.238C424.173 535.855 419.267 537.887 414.152 537.887H30.7516C25.6364 537.887 20.7308 535.855 17.1138 532.238C13.4968 528.621 11.4648 523.716 11.4648 518.6V191.196C11.4648 186.081 13.4968 181.176 17.1138 177.559C20.7308 173.942 25.6364 171.91 30.7516 171.91H414.195C419.31 171.91 424.215 173.942 427.832 177.559C431.449 181.176 433.481 186.081 433.481 191.196" fill="#5BBD81"/>
<path d="M414.216 171.952H30.7517C20.1236 171.952 11.5078 180.568 11.5078 191.196V518.493C11.5078 529.121 20.1236 537.737 30.7517 537.737H414.216C424.844 537.737 433.46 529.121 433.46 518.493V191.196C433.46 180.568 424.844 171.952 414.216 171.952Z" stroke="#3E3750" stroke-width="1.5" stroke-miterlimit="10" stroke-linecap="round"/>
<path d="M423.559 191.196V518.6C423.559 523.716 421.527 528.621 417.91 532.238C414.293 535.855 409.388 537.887 404.273 537.887H20.8513C15.7361 537.887 10.8304 535.855 7.21342 532.238C3.59645 528.621 1.56445 523.716 1.56445 518.6V191.196C1.56445 186.081 3.59645 181.176 7.21342 177.559C10.8304 173.942 15.7361 171.91 20.8513 171.91H404.294C409.409 171.91 414.315 173.942 417.932 177.559C421.549 181.176 423.581 186.081 423.581 191.196" fill="#E3F4E9"/>
<path d="M422.938 190.575V517.893C422.938 523.008 420.906 527.914 417.289 531.531C413.672 535.148 408.766 537.18 403.651 537.18H20.2511C15.136 537.18 10.2303 535.148 6.61333 531.531C2.99636 527.914 0.964355 523.008 0.964355 517.893V190.575C0.964355 185.46 2.99636 180.554 6.61333 176.937C10.2303 173.32 15.136 171.288 20.2511 171.288H403.694C408.809 171.288 413.715 173.32 417.332 176.937C420.949 180.554 422.981 185.46 422.981 190.575" fill="white"/>
<path d="M87.0479 213.098V537.394H20.2299C15.2946 537.394 10.5612 535.435 7.06939 531.948C3.57761 528.46 1.6131 523.729 1.60742 518.793V213.098H87.0479Z" fill="#8AD0A5"/>
<path d="M1.60742 277.28H87.0479V300.188H1.60742V277.28Z" fill="#5BBD81"/>
<path d="M404.315 171.952H20.8514C10.2232 171.952 1.60742 180.568 1.60742 191.196V518.493C1.60742 529.121 10.2232 537.737 20.8514 537.737H404.315C414.943 537.737 423.559 529.121 423.559 518.493V191.196C423.559 180.568 414.943 171.952 404.315 171.952Z" stroke="#3E3750" stroke-width="1.5" stroke-miterlimit="10" stroke-linecap="round"/>
<path d="M423.559 213.098H1.60742H423.559ZM423.559 213.098H1.60742H423.559Z" stroke="#3E3750" stroke-width="1.5" stroke-miterlimit="10" stroke-linecap="round"/>
<path d="M24.1512 199.297C24.9989 199.297 25.8275 199.045 26.5323 198.574C27.2371 198.104 27.7865 197.434 28.1109 196.651C28.4353 195.868 28.5201 195.006 28.3548 194.175C28.1894 193.343 27.7812 192.58 27.1818 191.98C26.5824 191.381 25.8187 190.973 24.9873 190.807C24.1559 190.642 23.2942 190.727 22.511 191.051C21.7279 191.376 21.0585 191.925 20.5875 192.63C20.1166 193.334 19.8652 194.163 19.8652 195.011C19.8652 196.148 20.3168 197.238 21.1205 198.041C21.9243 198.845 23.0145 199.297 24.1512 199.297Z" fill="#E3F4E9"/>
<path d="M24.1512 199.34C26.5182 199.34 28.4371 197.421 28.4371 195.054C28.4371 192.687 26.5182 190.768 24.1512 190.768C21.7841 190.768 19.8652 192.687 19.8652 195.054C19.8652 197.421 21.7841 199.34 24.1512 199.34Z" stroke="#3E3750" stroke-width="1.5" stroke-miterlimit="10"/>
<path d="M43.5023 199.297C44.35 199.297 45.1786 199.045 45.8834 198.574C46.5883 198.104 47.1376 197.434 47.462 196.651C47.7864 195.868 47.8713 195.006 47.7059 194.175C47.5405 193.343 47.1323 192.58 46.5329 191.98C45.9335 191.381 45.1698 190.973 44.3384 190.807C43.507 190.642 42.6453 190.727 41.8621 191.051C41.079 191.376 40.4096 191.925 39.9386 192.63C39.4677 193.334 39.2163 194.163 39.2163 195.011C39.2163 196.148 39.6679 197.238 40.4717 198.041C41.2754 198.845 42.3656 199.297 43.5023 199.297Z" fill="#E3F4E9"/>
<path d="M43.5023 199.34C45.8694 199.34 47.7882 197.421 47.7882 195.054C47.7882 192.687 45.8694 190.768 43.5023 190.768C41.1352 190.768 39.2163 192.687 39.2163 195.054C39.2163 197.421 41.1352 199.34 43.5023 199.34Z" stroke="#3E3750" stroke-width="1.5" stroke-miterlimit="10"/>
<path d="M19.8652 368.635H69.9252H19.8652ZM19.8652 288.745H54.3243H19.8652ZM19.8652 315.36H73.3754H19.8652ZM19.8652 341.998H60.6675H19.8652Z" stroke="#3E3750" stroke-width="1.5" stroke-miterlimit="10" stroke-linecap="round"/>
<path d="M64.2893 245.178C64.2893 248.675 63.2524 252.093 61.3098 255C59.3671 257.908 56.6059 260.174 53.3754 261.512C50.1449 262.85 46.5901 263.2 43.1606 262.518C39.7311 261.836 36.5809 260.152 34.1084 257.679C31.6359 255.207 29.9521 252.057 29.2699 248.627C28.5877 245.198 28.9378 241.643 30.276 238.412C31.6141 235.182 33.8801 232.421 36.7875 230.478C39.6949 228.535 43.1131 227.499 46.6097 227.499C48.9315 227.499 51.2304 227.956 53.3754 228.844C55.5204 229.733 57.4694 231.035 59.1111 232.677C60.7528 234.318 62.055 236.267 62.9435 238.412C63.832 240.557 64.2893 242.856 64.2893 245.178Z" fill="#E3F4E9"/>
<path d="M102.97 390.3H402.858V411.13H102.97V390.3ZM115.142 427.245H390.686V443.639H115.142V427.245Z" fill="#8AD0A5"/>
<path d="M344.655 435.431H378.921H344.655ZM106.742 390.3H398.186C399.437 390.3 400.636 390.797 401.52 391.681C402.404 392.565 402.901 393.764 402.901 395.015V514.164C402.901 515.42 402.402 516.625 401.514 517.513C400.626 518.401 399.421 518.9 398.165 518.9H106.72C106.101 518.9 105.488 518.778 104.916 518.541C104.344 518.305 103.824 517.957 103.387 517.52C102.949 517.082 102.601 516.562 102.365 515.99C102.128 515.418 102.006 514.805 102.006 514.186V395.036C102.006 393.78 102.505 392.576 103.393 391.687C104.281 390.799 105.486 390.3 106.742 390.3ZM139.315 435.431H200.218H139.315ZM218.176 435.431H252.443H218.176Z" stroke="#3E3750" stroke-width="1.5" stroke-miterlimit="10" stroke-linecap="round"/>
<path d="M130.186 435.431C130.186 436.279 129.934 437.108 129.464 437.813C128.993 438.517 128.323 439.067 127.54 439.391C126.757 439.716 125.895 439.8 125.064 439.635C124.232 439.47 123.469 439.062 122.869 438.462C122.27 437.863 121.862 437.099 121.696 436.268C121.531 435.436 121.616 434.574 121.94 433.791C122.265 433.008 122.814 432.339 123.519 431.868C124.224 431.397 125.052 431.146 125.9 431.146C127.037 431.146 128.127 431.597 128.931 432.401C129.734 433.205 130.186 434.295 130.186 435.431Z" fill="#3E3750"/>
<path d="M344.655 451.825H378.921H344.655ZM139.315 451.825H200.218H139.315ZM218.176 451.825H252.443H218.176Z" stroke="#3E3750" stroke-width="1.5" stroke-miterlimit="10" stroke-linecap="round"/>
<path d="M130.186 451.825C130.186 452.673 129.934 453.502 129.464 454.206C128.993 454.911 128.323 455.461 127.54 455.785C126.757 456.109 125.895 456.194 125.064 456.029C124.232 455.864 123.469 455.455 122.869 454.856C122.27 454.256 121.862 453.493 121.696 452.661C121.531 451.83 121.616 450.968 121.94 450.185C122.265 449.402 122.814 448.733 123.519 448.262C124.224 447.791 125.052 447.539 125.9 447.539C127.037 447.539 128.127 447.991 128.931 448.795C129.734 449.598 130.186 450.689 130.186 451.825Z" fill="#3E3750"/>
<path d="M115.142 460.011H390.686V476.405H115.142V460.011Z" fill="#8AD0A5"/>
<path d="M344.655 468.198H378.921H344.655ZM139.315 468.198H200.218H139.315ZM218.176 468.198H252.443H218.176Z" stroke="#3E3750" stroke-width="1.5" stroke-miterlimit="10" stroke-linecap="round"/>
<path d="M130.186 468.198C130.186 469.045 129.934 469.874 129.464 470.579C128.993 471.284 128.323 471.833 127.54 472.157C126.757 472.482 125.895 472.567 125.064 472.401C124.232 472.236 123.469 471.828 122.869 471.228C122.27 470.629 121.862 469.865 121.696 469.034C121.531 468.202 121.616 467.341 121.94 466.557C122.265 465.774 122.814 465.105 123.519 464.634C124.224 464.163 125.052 463.912 125.9 463.912C127.037 463.912 128.127 464.363 128.931 465.167C129.734 465.971 130.186 467.061 130.186 468.198Z" fill="#3E3750"/>
<path d="M344.655 484.591H378.921H344.655ZM139.315 484.591H200.218H139.315ZM218.176 484.591H252.443H218.176Z" stroke="#3E3750" stroke-width="1.5" stroke-miterlimit="10" stroke-linecap="round"/>
<path d="M130.186 484.591C130.186 485.439 129.934 486.268 129.464 486.973C128.993 487.677 128.323 488.227 127.54 488.551C126.757 488.875 125.895 488.96 125.064 488.795C124.232 488.63 123.469 488.221 122.869 487.622C122.27 487.023 121.862 486.259 121.696 485.428C121.531 484.596 121.616 483.734 121.94 482.951C122.265 482.168 122.814 481.499 123.519 481.028C124.224 480.557 125.052 480.305 125.9 480.305C127.037 480.305 128.127 480.757 128.931 481.561C129.734 482.365 130.186 483.455 130.186 484.591Z" fill="#3E3750"/>
<path d="M115.142 492.778H390.686V509.171H115.142V492.778Z" fill="#8AD0A5"/>
<path d="M344.655 500.985H378.921H344.655ZM139.315 500.985H200.218H139.315ZM218.176 500.985H252.443H218.176Z" stroke="#3E3750" stroke-width="1.5" stroke-miterlimit="10" stroke-linecap="round"/>
<path d="M130.186 500.985C130.186 501.833 129.934 502.662 129.464 503.366C128.993 504.071 128.323 504.62 127.54 504.945C126.757 505.269 125.895 505.354 125.064 505.189C124.232 505.023 123.469 504.615 122.869 504.016C122.27 503.416 121.862 502.653 121.696 501.821C121.531 500.99 121.616 500.128 121.94 499.345C122.265 498.562 122.814 497.892 123.519 497.422C124.224 496.951 125.052 496.699 125.9 496.699C127.037 496.699 128.127 497.151 128.931 497.955C129.734 498.758 130.186 499.848 130.186 500.985Z" fill="#3E3750"/>
<path d="M1.60742 391.543L56.8962 433.588L192.996 351.341L329.097 411.794L422.338 329.718" stroke="#3E3750" stroke-width="1.5" stroke-miterlimit="10" stroke-linecap="round"/>
<path d="M63.1538 433.589C63.1538 434.86 62.7768 436.103 62.0703 437.16C61.3639 438.218 60.3599 439.042 59.1851 439.528C58.0104 440.015 56.7178 440.142 55.4707 439.894C54.2236 439.646 53.078 439.034 52.1789 438.135C51.2798 437.235 50.6675 436.09 50.4195 434.843C50.1714 433.596 50.2987 432.303 50.7853 431.128C51.2719 429.954 52.0959 428.95 53.1532 428.243C54.2104 427.537 55.4534 427.16 56.7249 427.16C58.4299 427.16 60.0652 427.837 61.2708 429.043C62.4765 430.248 63.1538 431.884 63.1538 433.589Z" fill="#5BBD81"/>
<path d="M56.7248 440.018C60.2754 440.018 63.1537 437.139 63.1537 433.589C63.1537 430.038 60.2754 427.16 56.7248 427.16C53.1742 427.16 50.2959 430.038 50.2959 433.589C50.2959 437.139 53.1742 440.018 56.7248 440.018Z" stroke="#3E3750" stroke-width="1.5" stroke-miterlimit="10" stroke-linecap="round"/>
<path d="M199.297 351.191C199.297 352.463 198.92 353.706 198.213 354.763C197.507 355.82 196.503 356.644 195.328 357.131C194.153 357.617 192.861 357.745 191.614 357.496C190.367 357.248 189.221 356.636 188.322 355.737C187.423 354.838 186.811 353.692 186.563 352.445C186.314 351.198 186.442 349.906 186.928 348.731C187.415 347.556 188.239 346.552 189.296 345.846C190.353 345.139 191.596 344.762 192.868 344.762C194.573 344.762 196.208 345.44 197.414 346.645C198.62 347.851 199.297 349.486 199.297 351.191Z" fill="#5BBD81"/>
<path d="M192.846 357.62C196.397 357.62 199.275 354.742 199.275 351.191C199.275 347.641 196.397 344.762 192.846 344.762C189.296 344.762 186.418 347.641 186.418 351.191C186.418 354.742 189.296 357.62 192.846 357.62Z" stroke="#3E3750" stroke-width="1.5" stroke-miterlimit="10" stroke-linecap="round"/>
<path d="M335.097 411.194C335.097 412.466 334.72 413.709 334.014 414.766C333.307 415.823 332.303 416.647 331.129 417.134C329.954 417.621 328.661 417.748 327.414 417.5C326.167 417.252 325.021 416.639 324.122 415.74C323.223 414.841 322.611 413.696 322.363 412.449C322.115 411.201 322.242 409.909 322.729 408.734C323.215 407.559 324.039 406.555 325.097 405.849C326.154 405.142 327.397 404.765 328.668 404.765C330.373 404.765 332.009 405.443 333.214 406.648C334.42 407.854 335.097 409.489 335.097 411.194Z" fill="#5BBD81"/>
<path d="M328.668 417.623C332.219 417.623 335.097 414.745 335.097 411.194C335.097 407.644 332.219 404.765 328.668 404.765C325.118 404.765 322.239 407.644 322.239 411.194C322.239 414.745 325.118 417.623 328.668 417.623Z" stroke="#3E3750" stroke-width="1.5" stroke-miterlimit="10" stroke-linecap="round"/>
<path d="M102.97 238.149H243.378V253.707H102.97V238.149Z" fill="#8AD0A5"/>
<path d="M301.988 129.8C301.993 140.512 298.82 150.985 292.871 159.894C286.922 168.803 278.465 175.747 268.569 179.848C258.673 183.95 247.782 185.024 237.276 182.935C226.769 180.846 217.118 175.688 209.543 168.113C201.969 160.539 196.811 150.888 194.722 140.381C192.633 129.874 193.707 118.984 197.809 109.088C201.91 99.1921 208.854 90.7347 217.763 84.786C226.672 78.8372 237.144 75.6642 247.857 75.6685C262.212 75.6741 275.977 81.3791 286.127 91.5295C296.278 101.68 301.983 115.445 301.988 129.8Z" fill="#5BBD81"/>
<path d="M247.857 183.953C277.765 183.953 302.01 159.708 302.01 129.8C302.01 99.8921 277.765 75.647 247.857 75.647C217.949 75.647 193.704 99.8921 193.704 129.8C193.704 159.708 217.949 183.953 247.857 183.953Z" stroke="#3E3750" stroke-width="1.5" stroke-miterlimit="10" stroke-linecap="round"/>
<path d="M255.421 69.0468H240.785C239.58 69.1952 238.357 69.086 237.197 68.7263C236.038 68.3665 234.968 67.7646 234.058 66.9602C233.149 66.1559 232.421 65.1675 231.922 64.0606C231.423 62.9536 231.165 61.7533 231.165 60.5392C231.165 59.3251 231.423 58.1248 231.922 57.0178C232.421 55.9108 233.149 54.9225 234.058 54.1181C234.968 53.3138 236.038 52.7118 237.197 52.3521C238.357 51.9924 239.58 51.8832 240.785 52.0316H255.421C256.626 51.8832 257.849 51.9924 259.009 52.3521C260.169 52.7118 261.239 53.3138 262.148 54.1181C263.057 54.9225 263.786 55.9108 264.285 57.0178C264.783 58.1248 265.041 59.3251 265.041 60.5392C265.041 61.7533 264.783 62.9536 264.285 64.0606C263.786 65.1675 263.057 66.1559 262.148 66.9602C261.239 67.7646 260.169 68.3665 259.009 68.7263C257.849 69.086 256.626 69.1952 255.421 69.0468Z" fill="#5BBD81"/>
<path d="M255.421 69.0468H240.785C239.58 69.1952 238.357 69.086 237.197 68.7263C236.038 68.3665 234.968 67.7646 234.058 66.9602C233.149 66.1559 232.421 65.1675 231.922 64.0606C231.423 62.9536 231.165 61.7533 231.165 60.5392C231.165 59.3251 231.423 58.1248 231.922 57.0178C232.421 55.9108 233.149 54.9225 234.058 54.1181C234.968 53.3138 236.038 52.7118 237.197 52.3521C238.357 51.9924 239.58 51.8832 240.785 52.0316H255.421C256.626 51.8832 257.849 51.9924 259.009 52.3521C260.169 52.7118 261.239 53.3138 262.148 54.1181C263.057 54.9225 263.786 55.9108 264.285 57.0178C264.783 58.1248 265.041 59.3251 265.041 60.5392C265.041 61.7533 264.783 62.9536 264.285 64.0606C263.786 65.1675 263.057 66.1559 262.148 66.9602C261.239 67.7646 260.169 68.3665 259.009 68.7263C257.849 69.086 256.626 69.1952 255.421 69.0468Z" stroke="#3E3750" stroke-width="1.5" stroke-miterlimit="10" stroke-linecap="round"/>
<path d="M293.052 129.8C293.056 140.511 289.884 150.983 283.936 159.892C277.988 168.8 269.532 175.744 259.637 179.846C249.743 183.948 238.854 185.024 228.347 182.937C217.841 180.849 208.19 175.694 200.615 168.121C193.039 160.548 187.879 150.899 185.788 140.394C183.697 129.889 184.768 118.999 188.866 109.103C192.964 99.2065 199.905 90.7477 208.811 84.7964C217.717 78.845 228.188 75.6685 238.899 75.6685C253.258 75.6685 267.028 81.3709 277.183 91.5219C287.339 101.673 293.046 115.441 293.052 129.8Z" fill="#E3F4E9"/>
<path d="M238.92 183.953C268.828 183.953 293.073 159.708 293.073 129.8C293.073 99.8921 268.828 75.647 238.92 75.647C209.013 75.647 184.767 99.8921 184.767 129.8C184.767 159.708 209.013 183.953 238.92 183.953Z" stroke="#3E3750" stroke-width="1.5" stroke-miterlimit="10" stroke-linecap="round"/>
<path d="M280.323 129.8C280.323 137.989 277.895 145.993 273.345 152.802C268.796 159.61 262.33 164.917 254.764 168.051C247.199 171.184 238.875 172.004 230.843 170.407C222.812 168.809 215.435 164.866 209.645 159.076C203.854 153.286 199.911 145.908 198.314 137.877C196.716 129.846 197.536 121.521 200.67 113.956C203.803 106.391 209.11 99.9246 215.919 95.3753C222.727 90.8259 230.732 88.3977 238.92 88.3977C249.901 88.3977 260.432 92.7597 268.196 100.524C275.961 108.289 280.323 118.819 280.323 129.8Z" fill="white"/>
<path d="M238.92 171.202C261.786 171.202 280.323 152.666 280.323 129.8C280.323 106.934 261.786 88.3977 238.92 88.3977C216.055 88.3977 197.518 106.934 197.518 129.8C197.518 152.666 216.055 171.202 238.92 171.202Z" stroke="#3E3750" stroke-width="1.5" stroke-miterlimit="10" stroke-linecap="round"/>
<path d="M246.442 69.0468H231.806C230.601 69.1952 229.378 69.086 228.218 68.7263C227.059 68.3665 225.989 67.7646 225.079 66.9602C224.17 66.1559 223.442 65.1675 222.943 64.0606C222.444 62.9536 222.186 61.7533 222.186 60.5392C222.186 59.3251 222.444 58.1248 222.943 57.0178C223.442 55.9108 224.17 54.9225 225.079 54.1181C225.989 53.3138 227.059 52.7118 228.218 52.3521C229.378 51.9924 230.601 51.8832 231.806 52.0316H246.442C247.647 51.8832 248.87 51.9924 250.03 52.3521C251.189 52.7118 252.259 53.3138 253.169 54.1181C254.078 54.9225 254.807 55.9108 255.305 57.0178C255.804 58.1248 256.062 59.3251 256.062 60.5392C256.062 61.7533 255.804 62.9536 255.305 64.0606C254.807 65.1675 254.078 66.1559 253.169 66.9602C252.259 67.7646 251.189 68.3665 250.03 68.7263C248.87 69.086 247.647 69.1952 246.442 69.0468Z" fill="#E3F4E9"/>
<path d="M246.442 69.0468H231.806C230.601 69.1952 229.378 69.086 228.218 68.7263C227.059 68.3665 225.989 67.7646 225.079 66.9602C224.17 66.1559 223.442 65.1675 222.943 64.0606C222.444 62.9536 222.186 61.7533 222.186 60.5392C222.186 59.3251 222.444 58.1248 222.943 57.0178C223.442 55.9108 224.17 54.9225 225.079 54.1181C225.989 53.3138 227.059 52.7118 228.218 52.3521C229.378 51.9924 230.601 51.8832 231.806 52.0316H246.442C247.647 51.8832 248.87 51.9924 250.03 52.3521C251.189 52.7118 252.259 53.3138 253.169 54.1181C254.078 54.9225 254.807 55.9108 255.305 57.0178C255.804 58.1248 256.062 59.3251 256.062 60.5392C256.062 61.7533 255.804 62.9536 255.305 64.0606C254.807 65.1675 254.078 66.1559 253.169 66.9602C252.259 67.7646 251.189 68.3665 250.03 68.7263C248.87 69.086 247.647 69.1952 246.442 69.0468Z" stroke="#3E3750" stroke-width="1.5" stroke-miterlimit="10" stroke-linecap="round"/>
<path d="M285.937 78.6686C285.937 79.6053 285.66 80.5209 285.139 81.2998C284.619 82.0786 283.879 82.6856 283.014 83.0441C282.148 83.4025 281.196 83.4963 280.277 83.3136C279.359 83.1308 278.515 82.6798 277.853 82.0174C277.19 81.3551 276.739 80.5112 276.556 79.5925C276.374 78.6739 276.468 77.7216 276.826 76.8562C277.184 75.9908 277.791 75.2512 278.57 74.7308C279.349 74.2104 280.265 73.9326 281.201 73.9326C282.458 73.9326 283.662 74.4316 284.55 75.3198C285.438 76.2079 285.937 77.4125 285.937 78.6686Z" fill="#E3F4E9"/>
<path d="M281.201 83.4046C283.817 83.4046 285.937 81.2842 285.937 78.6686C285.937 76.053 283.817 73.9326 281.201 73.9326C278.586 73.9326 276.465 76.053 276.465 78.6686C276.465 81.2842 278.586 83.4046 281.201 83.4046Z" stroke="#3E3750" stroke-width="1.5" stroke-miterlimit="10" stroke-linecap="round"/>
<path d="M237.249 134.407C236.627 133.785 236.278 132.941 236.278 132.061C236.278 131.181 236.627 130.337 237.249 129.714L260.822 106.142C261.433 105.491 262.277 105.109 263.169 105.081C264.062 105.053 264.928 105.381 265.579 105.992C266.23 106.603 266.611 107.447 266.639 108.339C266.668 109.231 266.34 110.098 265.729 110.749L242.156 134.322C241.534 134.943 240.69 135.292 239.81 135.292C238.93 135.292 238.086 134.943 237.463 134.322" fill="#3E3750"/>
<path d="M238.985 132.865C243.549 133.765 247.685 116.878 251.071 119.835L264.743 106.163C257.661 99.5723 248.644 95.4392 239.028 94.3767C239.039 94.5694 239.039 94.7626 239.028 94.9553L238.985 132.865Z" fill="#8AD0A5"/>
<path d="M237.249 134.407C236.627 133.785 236.278 132.941 236.278 132.061C236.278 131.181 236.627 130.337 237.249 129.714L260.822 106.142C261.433 105.491 262.277 105.109 263.169 105.081C264.062 105.053 264.928 105.381 265.579 105.992C266.23 106.603 266.611 107.447 266.639 108.339C266.668 109.231 266.34 110.098 265.729 110.749L242.156 134.322C241.534 134.943 240.69 135.292 239.81 135.292C238.93 135.292 238.086 134.943 237.463 134.322" fill="#3E3750"/>
<path d="M187.318 275.972H221.777M187.318 284.137H213.098M187.318 292.302H213.098M187.318 300.467H213.098M106.742 237.335H239.735C240.991 237.335 242.196 237.834 243.084 238.722C243.972 239.61 244.471 240.815 244.471 242.071V332.29C244.471 333.546 243.972 334.751 243.084 335.639C242.196 336.527 240.991 337.026 239.735 337.026H106.742C105.491 337.026 104.292 336.529 103.408 335.645C102.524 334.761 102.027 333.562 102.027 332.311V242.156C102.016 241.529 102.129 240.906 102.361 240.323C102.592 239.739 102.937 239.208 103.376 238.76C103.815 238.311 104.338 237.954 104.916 237.709C105.494 237.465 106.114 237.337 106.742 237.335Z" stroke="#3E3750" stroke-width="1.5" stroke-miterlimit="10" stroke-linecap="round"/>
<path d="M161.302 282.402C161.302 283.673 160.925 284.916 160.218 285.973C159.512 287.031 158.508 287.855 157.333 288.341C156.158 288.828 154.866 288.955 153.619 288.707C152.372 288.459 151.226 287.847 150.327 286.948C149.428 286.048 148.816 284.903 148.568 283.656C148.319 282.409 148.447 281.116 148.933 279.941C149.42 278.767 150.244 277.763 151.301 277.056C152.358 276.35 153.601 275.973 154.873 275.973C156.578 275.973 158.213 276.65 159.419 277.856C160.625 279.061 161.302 280.697 161.302 282.402Z" fill="#5BBD81"/>
<path d="M154.873 288.831C158.424 288.831 161.302 285.952 161.302 282.402C161.302 278.851 158.424 275.973 154.873 275.973C151.322 275.973 148.444 278.851 148.444 282.402C148.444 285.952 151.322 288.831 154.873 288.831Z" stroke="#3E3750" stroke-width="1.5" stroke-miterlimit="10" stroke-linecap="round"/>
<path d="M171.995 293.845C171.995 299.321 170.371 304.674 167.329 309.227C164.287 313.78 159.963 317.329 154.903 319.425C149.844 321.52 144.277 322.069 138.907 321C133.536 319.932 128.602 317.295 124.73 313.423C120.858 309.551 118.221 304.617 117.153 299.246C116.084 293.876 116.633 288.309 118.728 283.25C120.824 278.19 124.373 273.866 128.926 270.824C133.479 267.782 138.832 266.158 144.308 266.158C147.944 266.158 151.544 266.874 154.903 268.265C158.263 269.657 161.315 271.696 163.886 274.267C166.457 276.838 168.496 279.89 169.888 283.25C171.279 286.609 171.995 290.209 171.995 293.845Z" fill="#E3F4E9"/>
<path d="M144.308 266.158C144.308 266.158 162.373 266.608 169.595 282.551C176.817 298.495 164.688 312.553 164.688 312.553L144.222 293.588L144.308 266.158Z" fill="#5BBD81"/>
<path d="M144.308 321.532C159.599 321.532 171.995 309.136 171.995 293.845C171.995 278.554 159.599 266.158 144.308 266.158C129.017 266.158 116.621 278.554 116.621 293.845C116.621 309.136 129.017 321.532 144.308 321.532Z" stroke="#3E3750" stroke-width="1.5" stroke-miterlimit="10" stroke-linecap="round"/>
<path d="M144.308 293.845V266.158" stroke="#3E3750" stroke-width="1.5" stroke-miterlimit="10" stroke-linecap="round"/>
<path d="M144.308 293.845L164.666 312.596L144.308 293.845Z" fill="#5BBD81"/>
<path d="M144.308 293.845L164.666 312.596" stroke="#3E3750" stroke-width="1.5" stroke-miterlimit="10" stroke-linecap="round"/>
<path d="M144.308 293.845L117.885 285.509L144.308 293.845Z" fill="#5BBD81"/>
<path d="M144.308 293.845L117.885 285.509" stroke="#3E3750" stroke-width="1.5" stroke-miterlimit="10" stroke-linecap="round"/>
<path d="M144.308 293.845L123.735 312.275L144.308 293.845Z" fill="#5BBD81"/>
<path d="M144.308 293.845L123.735 312.275" stroke="#3E3750" stroke-width="1.5" stroke-miterlimit="10" stroke-linecap="round"/>
<path d="M144.308 293.845L135.265 267.658L144.308 293.845Z" fill="#5BBD81"/>
<path d="M144.308 293.845L135.265 267.658" stroke="#3E3750" stroke-width="1.5" stroke-miterlimit="10" stroke-linecap="round"/>
<path d="M69.7755 500.235C69.7798 506.144 68.0313 511.922 64.7514 516.837C61.4715 521.753 56.8074 525.585 51.3492 527.849C45.891 530.114 39.8838 530.708 34.0876 529.558C28.2914 528.408 22.9665 525.564 18.7865 521.387C14.6066 517.21 11.7593 511.888 10.6049 506.092C9.45049 500.297 10.0408 494.289 12.3012 488.829C14.5616 483.37 18.3905 478.703 23.3036 475.419C28.2167 472.136 33.9932 470.383 39.9024 470.383C47.8253 470.383 55.4236 473.531 61.0259 479.133C66.6282 484.735 69.7755 492.334 69.7755 500.256" fill="white"/>
<path d="M39.9024 530.108C56.4009 530.108 69.7755 516.734 69.7755 500.235C69.7755 483.737 56.4009 470.362 39.9024 470.362C23.404 470.362 10.0293 483.737 10.0293 500.235C10.0293 516.734 23.404 530.108 39.9024 530.108Z" stroke="#3E3750" stroke-width="1.5" stroke-miterlimit="10" stroke-linecap="round"/>
<path d="M58.1817 522.436C58.1817 517.486 56.2152 512.738 52.7148 509.238C49.2143 505.738 44.4667 503.771 39.5164 503.771C34.566 503.771 29.8184 505.738 26.318 509.238C22.8176 512.738 20.8511 517.486 20.8511 522.436L24.8584 526.037L32.1446 528.78L41.0593 530.087L46.1382 529.444C47.5001 529.155 48.8394 528.768 50.1456 528.287L54.903 526.379L58.5889 524.365L58.1817 522.436Z" fill="#E3F4E9"/>
<path d="M467.602 272.057H321.665C317.379 272.057 300 279.708 300 279.708C300 279.708 306.022 260.828 306.022 256.435V163.537C306.044 159.408 307.7 155.457 310.627 152.545C313.555 149.634 317.515 148 321.644 148H467.581C471.713 147.994 475.679 149.626 478.611 152.538C481.543 155.45 483.202 159.404 483.224 163.537V256.435C483.224 260.578 481.579 264.552 478.649 267.481C475.719 270.411 471.745 272.057 467.602 272.057Z" fill="#5BBD81"/>
<path d="M467.602 272.057H321.665C317.379 272.057 300 279.708 300 279.708C300 279.708 306.022 260.828 306.022 256.435V163.537C306.044 159.408 307.7 155.457 310.627 152.545C313.555 149.634 317.515 148 321.644 148H467.581C471.713 147.994 475.679 149.626 478.611 152.538C481.543 155.45 483.202 159.404 483.224 163.537V256.435C483.224 260.578 481.579 264.552 478.649 267.481C475.719 270.411 471.745 272.057 467.602 272.057Z" stroke="#3E3750" stroke-width="1.5" stroke-miterlimit="10" stroke-linecap="round"/>
<path d="M477.547 195.996C477.547 198.438 476.823 200.824 475.467 202.854C474.111 204.884 472.183 206.466 469.927 207.4C467.672 208.335 465.19 208.579 462.796 208.103C460.401 207.627 458.202 206.451 456.475 204.725C454.749 202.998 453.574 200.799 453.097 198.405C452.621 196.01 452.865 193.528 453.8 191.273C454.734 189.017 456.316 187.089 458.346 185.733C460.376 184.377 462.762 183.653 465.204 183.653C468.477 183.653 471.617 184.953 473.932 187.268C476.247 189.583 477.547 192.723 477.547 195.996Z" fill="#5BBD81"/>
<path d="M469.297 198.461H354.347C353.779 198.461 353.234 198.235 352.832 197.833C352.43 197.431 352.204 196.886 352.204 196.318V195.696C352.204 195.128 352.43 194.583 352.832 194.181C353.234 193.779 353.779 193.553 354.347 193.553H469.318C469.886 193.553 470.432 193.779 470.833 194.181C471.235 194.583 471.461 195.128 471.461 195.696V196.318C471.461 196.886 471.235 197.431 470.833 197.833C470.432 198.235 469.886 198.461 469.318 198.461H469.297ZM469.297 222.248H354.347C353.779 222.248 353.234 222.022 352.832 221.62C352.43 221.218 352.204 220.673 352.204 220.105V219.483C352.204 218.915 352.43 218.37 352.832 217.968C353.234 217.566 353.779 217.34 354.347 217.34H469.318C469.886 217.34 470.432 217.566 470.833 217.968C471.235 218.37 471.461 218.915 471.461 219.483V220.105C471.461 220.673 471.235 221.218 470.833 221.62C470.432 222.022 469.886 222.248 469.318 222.248" fill="#3E3750"/>
<path d="M344.702 294.473H490.639C494.925 294.473 512.304 302.123 512.304 302.123C512.304 302.123 506.283 283.243 506.283 278.85V186.038C506.283 181.895 504.637 177.921 501.707 174.991C498.777 172.061 494.804 170.416 490.66 170.416H344.724C340.58 170.416 336.607 172.061 333.677 174.991C330.747 177.921 329.101 181.895 329.101 186.038V278.85C329.101 282.994 330.747 286.967 333.677 289.897C336.607 292.827 340.58 294.473 344.724 294.473" fill="white"/>
<path d="M344.702 294.473H490.639C494.925 294.473 512.304 302.123 512.304 302.123C512.304 302.123 506.283 283.243 506.283 278.85V186.038C506.283 181.895 504.637 177.921 501.707 174.991C498.777 172.061 494.804 170.416 490.66 170.416H344.724C340.58 170.416 336.607 172.061 333.677 174.991C330.747 177.921 329.101 181.895 329.101 186.038V278.85C329.101 282.99 330.744 286.96 333.67 289.889C336.595 292.819 340.563 294.467 344.702 294.473Z" stroke="#3E3750" stroke-width="1.5" stroke-miterlimit="10" stroke-linecap="round"/>
<path d="M362.919 218.433C362.936 220.871 363.674 223.249 365.041 225.268C366.408 227.286 368.341 228.855 370.598 229.776C372.855 230.697 375.334 230.929 377.723 230.444C380.112 229.958 382.303 228.775 384.021 227.046C385.739 225.316 386.906 223.117 387.375 220.724C387.844 218.332 387.595 215.855 386.658 213.604C385.722 211.354 384.139 209.431 382.112 208.079C380.084 206.726 377.7 206.004 375.263 206.004C371.989 206.004 368.849 207.305 366.535 209.62C364.22 211.934 362.919 215.074 362.919 218.348V218.433ZM416.172 218.433C416.189 220.866 416.925 223.24 418.287 225.256C419.649 227.273 421.576 228.841 423.827 229.766C426.077 230.69 428.551 230.928 430.937 230.451C433.323 229.974 435.514 228.802 437.236 227.083C438.958 225.364 440.134 223.175 440.615 220.79C441.096 218.405 440.862 215.93 439.942 213.678C439.022 211.426 437.456 209.496 435.442 208.13C433.428 206.765 431.056 206.025 428.623 206.004C426.986 205.99 425.362 206.302 423.846 206.921C422.331 207.54 420.954 208.455 419.795 209.612C418.636 210.768 417.719 212.144 417.097 213.659C416.475 215.173 416.161 216.796 416.172 218.433ZM469.747 218.433C469.764 220.875 470.504 223.256 471.875 225.276C473.245 227.297 475.184 228.865 477.446 229.784C479.708 230.703 482.191 230.93 484.582 230.437C486.973 229.944 489.164 228.753 490.879 227.015C492.593 225.277 493.753 223.069 494.213 220.671C494.672 218.274 494.411 215.794 493.461 213.545C492.511 211.296 490.916 209.379 488.876 208.037C486.837 206.695 484.446 205.987 482.004 206.004C480.384 206.015 478.781 206.346 477.287 206.976C475.794 207.607 474.44 208.526 473.301 209.68C472.163 210.834 471.263 212.201 470.653 213.703C470.043 215.205 469.735 216.812 469.747 218.433Z" fill="#5BBD81"/>
<path d="M378.135 196.253H479.112C479.538 196.253 479.947 196.084 480.248 195.783C480.549 195.481 480.719 195.073 480.719 194.646C480.719 194.22 480.549 193.811 480.248 193.51C479.947 193.208 479.538 193.039 479.112 193.039H378.135C377.708 193.039 377.299 193.208 376.998 193.51C376.697 193.811 376.527 194.22 376.527 194.646C376.527 195.073 376.697 195.481 376.998 195.783C377.299 196.084 377.708 196.253 378.135 196.253ZM378.135 220.041H479.112C479.538 220.041 479.947 219.871 480.248 219.57C480.549 219.268 480.719 218.86 480.719 218.433C480.719 218.007 480.549 217.598 480.248 217.297C479.947 216.995 479.538 216.826 479.112 216.826H378.135C377.708 216.826 377.299 216.995 376.998 217.297C376.697 217.598 376.527 218.007 376.527 218.433C376.527 218.86 376.697 219.268 376.998 219.57C377.299 219.871 377.708 220.041 378.135 220.041ZM378.135 243.828H479.112C479.538 243.828 479.947 243.658 480.248 243.357C480.549 243.055 480.719 242.647 480.719 242.22C480.719 241.794 480.549 241.385 480.248 241.084C479.947 240.782 479.538 240.613 479.112 240.613H378.135C377.708 240.613 377.299 240.782 376.998 241.084C376.697 241.385 376.527 241.794 376.527 242.22C376.527 242.647 376.697 243.055 376.998 243.357C377.299 243.658 377.708 243.828 378.135 243.828Z" fill="#3E3750"/>
<path d="M142.465 225.398C142.465 226.67 142.088 227.913 141.382 228.97C140.675 230.027 139.671 230.851 138.496 231.338C137.322 231.824 136.029 231.952 134.782 231.704C133.535 231.456 132.389 230.843 131.49 229.944C130.591 229.045 129.979 227.899 129.731 226.652C129.483 225.405 129.61 224.113 130.097 222.938C130.583 221.763 131.407 220.759 132.464 220.053C133.522 219.346 134.765 218.969 136.036 218.969C137.741 218.969 139.376 219.647 140.582 220.852C141.788 222.058 142.465 223.693 142.465 225.398Z" fill="#5BBD81"/>
<path d="M136.036 231.827C139.587 231.827 142.465 228.949 142.465 225.398C142.465 221.848 139.587 218.969 136.036 218.969C132.486 218.969 129.607 221.848 129.607 225.398C129.607 228.949 132.486 231.827 136.036 231.827Z" stroke="#3E3750" stroke-width="1.5" stroke-miterlimit="10" stroke-linecap="round"/>
<path d="M431.145 448.975H423.474V611.263H431.145C452.666 611.263 473.305 602.714 488.523 587.496C503.74 572.279 512.289 551.64 512.289 530.119C512.289 508.598 503.74 487.959 488.523 472.742C473.305 457.524 452.666 448.975 431.145 448.975Z" fill="#5BBD81"/>
<path d="M431.145 448.975H423.474V611.263H431.145C452.666 611.263 473.305 602.714 488.523 587.496C503.74 572.279 512.289 551.64 512.289 530.119C512.289 508.598 503.74 487.959 488.523 472.742C473.305 457.524 452.666 448.975 431.145 448.975Z" stroke="#3E3750" stroke-width="1.5" stroke-miterlimit="10" stroke-linecap="round"/>
<path d="M423.474 448.975C407.427 448.975 391.741 453.733 378.399 462.649C365.056 471.564 354.657 484.235 348.517 499.06C342.376 513.885 340.769 530.198 343.9 545.936C347.03 561.675 354.757 576.131 366.104 587.478C377.451 598.825 391.907 606.552 407.645 609.682C423.384 612.813 439.697 611.206 454.522 605.065C469.347 598.925 482.018 588.526 490.933 575.183C499.848 561.841 504.607 546.155 504.607 530.108C504.607 508.59 496.059 487.954 480.843 472.738C465.628 457.523 444.992 448.975 423.474 448.975ZM423.474 598.576C409.932 598.576 396.694 594.561 385.435 587.037C374.175 579.514 365.4 568.821 360.217 556.31C355.035 543.799 353.679 530.032 356.321 516.751C358.963 503.469 365.484 491.269 375.059 481.694C384.635 472.119 396.835 465.598 410.116 462.956C423.398 460.314 437.164 461.67 449.675 466.852C462.186 472.034 472.88 480.81 480.403 492.069C487.926 503.329 491.942 516.566 491.942 530.108C491.942 548.267 484.728 565.682 471.888 578.522C459.048 591.363 441.633 598.576 423.474 598.576Z" fill="#E3F4E9"/>
<path d="M423.474 448.975C407.427 448.975 391.741 453.733 378.399 462.649C365.056 471.564 354.657 484.235 348.517 499.06C342.376 513.885 340.769 530.198 343.9 545.936C347.03 561.675 354.757 576.131 366.104 587.478C377.451 598.825 391.907 606.552 407.645 609.682C423.384 612.813 439.697 611.206 454.522 605.065C469.347 598.925 482.018 588.526 490.933 575.183C499.848 561.841 504.607 546.155 504.607 530.108C504.607 508.59 496.059 487.954 480.843 472.738C465.628 457.523 444.992 448.975 423.474 448.975Z" fill="white"/>
<path d="M423.474 611.241C468.282 611.241 504.607 574.917 504.607 530.108C504.607 485.3 468.282 448.975 423.474 448.975C378.665 448.975 342.341 485.3 342.341 530.108C342.341 574.917 378.665 611.241 423.474 611.241Z" stroke="#3E3750" stroke-width="1.5" stroke-miterlimit="10" stroke-linecap="round"/>
<path d="M362.935 530.108C362.964 512.646 369.654 495.852 381.64 483.153C393.627 470.454 410.006 462.806 427.438 461.769C426.131 461.769 424.802 461.64 423.474 461.64C405.315 461.64 387.9 468.854 375.059 481.694C362.219 494.534 355.006 511.949 355.006 530.108C355.006 548.267 362.219 565.682 375.059 578.523C387.9 591.363 405.315 598.576 423.474 598.576C424.802 598.576 426.131 598.576 427.438 598.448C410.006 597.411 393.627 589.763 381.64 577.064C369.654 564.365 362.964 547.571 362.935 530.108Z" fill="#5BBD81"/>
<path d="M437.232 543.738L384.643 571.232L411.001 516.993L462.326 490.785L437.232 543.738Z" fill="#5BBD81"/>
<path d="M429.26 535.466C428.247 536.479 426.956 537.168 425.551 537.448C424.146 537.727 422.69 537.584 421.366 537.036C420.042 536.488 418.911 535.559 418.115 534.368C417.319 533.177 416.895 531.776 416.895 530.344C416.895 528.911 417.319 527.511 418.115 526.32C418.911 525.129 420.042 524.2 421.366 523.652C422.69 523.104 424.146 522.96 425.551 523.24C426.956 523.519 428.247 524.209 429.26 525.222C430.618 526.581 431.381 528.423 431.381 530.344C431.381 532.265 430.618 534.107 429.26 535.466Z" fill="#E3F4E9"/>
<path d="M429.271 535.475C432.099 532.647 432.099 528.06 429.271 525.232C426.442 522.403 421.856 522.403 419.027 525.232C416.199 528.06 416.199 532.647 419.027 535.475C421.856 538.304 426.442 538.304 429.271 535.475Z" stroke="#3E3750" stroke-width="1.5" stroke-miterlimit="10" stroke-linecap="round"/>
<path d="M467.898 562.381L478.398 569.753L467.898 562.381ZM363.406 563.003C356.836 550.902 354.061 537.104 355.443 523.404C356.824 509.704 362.298 496.737 371.151 486.192C380.004 475.646 391.827 468.009 405.081 464.276C418.334 460.544 432.405 460.887 445.461 465.262L363.406 563.003ZM478.098 488.813C488.039 502.345 492.67 519.054 491.113 535.772C489.556 552.491 481.919 568.057 469.65 579.521C457.381 590.984 441.332 597.547 424.547 597.967C407.761 598.386 391.405 592.633 378.578 581.797L478.098 488.813ZM467.169 477.434C468.683 478.691 470.112 480.005 471.455 481.377L467.169 477.434ZM376.778 480.713L382.607 485.599L376.778 480.713ZM371.635 486.863L382.136 494.213L371.635 486.863ZM476.812 559.424L482.641 564.31L476.812 559.424Z" stroke="#3E3750" stroke-width="1.5" stroke-miterlimit="10" stroke-linecap="round"/>
<path d="M368.249 568.682C368.249 568.957 368.167 569.227 368.014 569.456C367.861 569.685 367.644 569.863 367.389 569.969C367.135 570.074 366.855 570.102 366.584 570.048C366.314 569.994 366.066 569.862 365.871 569.667C365.676 569.472 365.544 569.224 365.49 568.953C365.436 568.683 365.464 568.403 365.569 568.149C365.675 567.894 365.853 567.677 366.082 567.524C366.311 567.371 366.581 567.289 366.856 567.289C367.226 567.289 367.58 567.436 367.841 567.697C368.102 567.958 368.249 568.312 368.249 568.682Z" fill="#3E3750"/>
<path d="M58.5675 522.651C58.5675 517.7 56.6009 512.953 53.1005 509.452C49.6001 505.952 44.8525 503.985 39.9021 503.985C34.9518 503.985 30.2042 505.952 26.7038 509.452C23.2033 512.953 21.2368 517.7 21.2368 522.651" stroke="#3E3750" stroke-width="1.5" stroke-miterlimit="10" stroke-linecap="round"/>
<path d="M51.1099 494.642C51.1099 496.859 50.4526 499.026 49.221 500.869C47.9895 502.712 46.2391 504.148 44.1912 504.997C42.1432 505.845 39.8897 506.067 37.7156 505.634C35.5415 505.202 33.5445 504.134 31.977 502.567C30.4096 501 29.3422 499.003 28.9097 496.828C28.4773 494.654 28.6992 492.401 29.5475 490.353C30.3958 488.305 31.8323 486.554 33.6754 485.323C35.5185 484.091 37.6854 483.434 39.9021 483.434C42.8746 483.434 45.7254 484.615 47.8272 486.717C49.9291 488.819 51.1099 491.669 51.1099 494.642Z" fill="#E3F4E9"/>
<path d="M39.902 505.85C46.0919 505.85 51.1098 500.832 51.1098 494.642C51.1098 488.452 46.0919 483.434 39.902 483.434C33.7121 483.434 28.6943 488.452 28.6943 494.642C28.6943 500.832 33.7121 505.85 39.902 505.85Z" stroke="#3E3750" stroke-width="1.5" stroke-miterlimit="10" stroke-linecap="round"/>
<path d="M39.9024 530.108C56.4009 530.108 69.7755 516.734 69.7755 500.235C69.7755 483.737 56.4009 470.362 39.9024 470.362C23.404 470.362 10.0293 483.737 10.0293 500.235C10.0293 516.734 23.404 530.108 39.9024 530.108Z" stroke="#3E3750" stroke-width="1.5" stroke-miterlimit="10" stroke-linecap="round"/>
</svg>
