<svg viewBox="0 0 640 452" fill="none" xmlns="http://www.w3.org/2000/svg">
<path d="M241.497 391.959H300.235V399.914H241.497V391.959Z" fill="#8AD0A5"/>
<path d="M477.632 391.835H82.1101C77.8997 391.835 73.8618 390.163 70.8846 387.186C67.9074 384.208 66.2349 380.17 66.2349 375.96V132.293C66.2349 128.083 67.9074 124.045 70.8846 121.068C73.8618 118.091 77.8997 116.418 82.1101 116.418H477.632C481.842 116.418 485.88 118.091 488.857 121.068C491.835 124.045 493.507 128.083 493.507 132.293V375.995C493.507 380.206 491.835 384.244 488.857 387.221C485.88 390.198 481.842 391.871 477.632 391.871" fill="#5BBD81"/>
<path d="M477.614 116.489H82.1102C73.362 116.489 66.2703 123.581 66.2703 132.329V375.995C66.2703 384.744 73.362 391.835 82.1102 391.835H477.614C486.363 391.835 493.454 384.744 493.454 375.995V132.329C493.454 123.581 486.363 116.489 477.614 116.489Z" stroke="#3E3750" stroke-width="1.5" stroke-miterlimit="10" stroke-linecap="round"/>
<path d="M468.654 391.835H73.1494C68.939 391.835 64.9011 390.163 61.9239 387.186C58.9467 384.208 57.2742 380.17 57.2742 375.96V132.293C57.2742 128.083 58.9467 124.045 61.9239 121.068C64.9011 118.091 68.939 116.418 73.1494 116.418H468.654C472.864 116.418 476.902 118.091 479.879 121.068C482.856 124.045 484.529 128.083 484.529 132.293V375.995C484.529 380.206 482.856 384.244 479.879 387.221C476.902 390.198 472.864 391.871 468.654 391.871" fill="white"/>
<path d="M468.671 116.489H73.1495C64.4013 116.489 57.3096 123.581 57.3096 132.329V375.995C57.3096 384.744 64.4013 391.835 73.1495 391.835H468.671C477.42 391.835 484.511 384.744 484.511 375.995V132.329C484.511 123.581 477.42 116.489 468.671 116.489Z" stroke="#3E3750" stroke-width="1.5" stroke-miterlimit="10" stroke-linecap="round"/>
<path d="M57.4153 348.284V374.955C57.4153 379.165 59.0878 383.203 62.065 386.18C65.0422 389.157 69.0801 390.83 73.2905 390.83H468.759C472.97 390.83 477.008 389.157 479.985 386.18C482.962 383.203 484.635 379.165 484.635 374.955V348.284H57.4153Z" fill="#8AD0A5"/>
<path d="M359.962 437.75H199.798C198.863 437.75 197.965 437.378 197.304 436.717C196.642 436.055 196.271 435.158 196.271 434.222C196.271 433.287 196.642 432.389 197.304 431.728C197.965 431.066 198.863 430.694 199.798 430.694H359.962C360.897 430.694 361.794 431.066 362.456 431.728C363.118 432.389 363.489 433.287 363.489 434.222C363.489 435.158 363.118 436.055 362.456 436.717C361.794 437.378 360.897 437.75 359.962 437.75Z" fill="#5BBD81"/>
<path d="M57.4153 349.325H484.617M359.961 437.75H199.798C198.863 437.75 197.965 437.378 197.304 436.717C196.642 436.055 196.27 435.158 196.27 434.222C196.27 433.286 196.642 432.389 197.304 431.727C197.965 431.066 198.863 430.694 199.798 430.694H359.961C360.897 430.694 361.794 431.066 362.456 431.727C363.118 432.389 363.489 433.286 363.489 434.222C363.489 435.158 363.118 436.055 362.456 436.717C361.794 437.378 360.897 437.75 359.961 437.75Z" stroke="#3E3750" stroke-width="1.5" stroke-miterlimit="10" stroke-linecap="round"/>
<path d="M351.018 437.75H190.855C189.92 437.75 189.022 437.378 188.361 436.717C187.699 436.055 187.327 435.158 187.327 434.222C187.327 433.287 187.699 432.389 188.361 431.728C189.022 431.066 189.92 430.694 190.855 430.694H351.018C351.954 430.694 352.851 431.066 353.513 431.728C354.175 432.389 354.546 433.287 354.546 434.222C354.546 435.158 354.175 436.055 353.513 436.717C352.851 437.378 351.954 437.75 351.018 437.75Z" fill="#E3F4E9"/>
<path d="M351.018 437.75H190.855C189.92 437.75 189.022 437.378 188.361 436.717C187.699 436.055 187.327 435.158 187.327 434.222C187.327 433.287 187.699 432.389 188.361 431.728C189.022 431.066 189.92 430.694 190.855 430.694H351.018C351.954 430.694 352.851 431.066 353.513 431.728C354.175 432.389 354.546 433.287 354.546 434.222C354.546 435.158 354.175 436.055 353.513 436.717C352.851 437.378 351.954 437.75 351.018 437.75ZM299.389 391.835H242.644C242.644 391.835 242.644 412.068 219.06 430.641H322.972C299.389 412.068 299.389 391.835 299.389 391.835Z" stroke="#3E3750" stroke-width="1.5" stroke-miterlimit="10" stroke-linecap="round"/>
<path d="M468.76 116.418H73.2553C69.045 116.418 65.007 118.091 62.0299 121.068C59.0527 124.045 57.3801 128.083 57.3801 132.293V375.995C57.3801 380.206 59.0527 384.244 62.0299 387.221C65.007 390.198 69.045 391.871 73.2553 391.871H242.591C242.591 391.871 242.591 412.103 219.007 430.677H190.926C189.99 430.677 189.093 431.048 188.431 431.71C187.77 432.372 187.398 433.269 187.398 434.204C187.398 435.14 187.77 436.037 188.431 436.699C189.093 437.361 189.99 437.732 190.926 437.732H351.018C351.954 437.732 352.851 437.361 353.513 436.699C354.175 436.037 354.546 435.14 354.546 434.204C354.546 433.269 354.175 432.372 353.513 431.71C352.851 431.048 351.954 430.677 351.018 430.677H322.972C299.389 412.05 299.389 391.871 299.389 391.871H468.724C472.935 391.871 476.973 390.198 479.95 387.221C482.927 384.244 484.6 380.206 484.6 375.995V132.293C484.6 128.089 482.932 124.057 479.962 121.08C476.993 118.104 472.964 116.428 468.76 116.418V116.418Z" stroke="#3E3750" stroke-width="1.5" stroke-miterlimit="10" stroke-linecap="round"/>
<path d="M527.921 242.838H444.082C442.709 242.815 441.399 242.26 440.428 241.289C439.457 240.318 438.902 239.007 438.879 237.634V203.802M392.576 135.469V181.33C392.576 182.734 392.019 184.08 391.026 185.072C390.034 186.064 388.688 186.622 387.284 186.622H331.986C330.582 186.622 329.236 187.179 328.244 188.172C327.252 189.164 326.694 190.51 326.694 191.914V274.377L392.576 135.469Z" stroke="#3E3750" stroke-width="1.5" stroke-miterlimit="10" stroke-linecap="round"/>
<path d="M526.81 208.865L574.876 172.863C575.853 172.195 577.009 171.838 578.192 171.838C579.376 171.838 580.532 172.195 581.509 172.863L629.558 208.9C629.558 208.9 580.027 252.327 578.404 247.812C576.781 243.296 526.757 208.9 526.757 208.9" fill="#5BBD81"/>
<path d="M615.87 258.925H540.498C539.366 258.925 538.28 258.475 537.479 257.674C536.679 256.874 536.229 255.788 536.229 254.656V185.863C536.229 184.731 536.679 183.646 537.479 182.845C538.28 182.044 539.366 181.595 540.498 181.595H615.87C617.002 181.595 618.088 182.044 618.888 182.845C619.689 183.646 620.138 184.731 620.138 185.863V254.656C620.138 255.788 619.689 256.874 618.888 257.674C618.088 258.475 617.002 258.925 615.87 258.925Z" fill="white"/>
<path d="M615.887 181.612H540.498C538.14 181.612 536.229 183.523 536.229 185.881V254.656C536.229 257.013 538.14 258.925 540.498 258.925H615.887C618.245 258.925 620.156 257.013 620.156 254.656V185.881C620.156 183.523 618.245 181.612 615.887 181.612Z" stroke="#3E3750" stroke-width="1.5" stroke-miterlimit="10" stroke-linecap="round"/>
<path d="M621.973 274.359H534.465C530.937 274.359 527.974 270.831 527.974 266.598V211.299L574.965 244.249C575.932 244.909 577.075 245.262 578.246 245.262C579.416 245.262 580.56 244.909 581.526 244.249L628.517 211.299V266.598C628.517 270.884 625.607 274.359 622.026 274.359" fill="white"/>
<path d="M621.973 274.359H534.465C530.937 274.359 527.974 270.831 527.974 266.598V211.299L574.965 244.249C575.932 244.909 577.075 245.262 578.246 245.262C579.416 245.262 580.56 244.909 581.526 244.249L628.517 211.299V266.598C628.464 270.884 625.554 274.359 621.973 274.359Z" stroke="#3E3750" stroke-width="1.5" stroke-miterlimit="10" stroke-linecap="round"/>
<path d="M564.328 248.112L538.275 266.386Z" fill="#E3F4E9"/>
<path d="M564.328 248.112L538.275 266.386" stroke="#3E3750" stroke-width="1.5" stroke-miterlimit="10" stroke-linecap="round"/>
<path d="M618.092 266.386L591.581 247.777Z" fill="#E3F4E9"/>
<path d="M618.092 266.386L591.581 247.777" stroke="#3E3750" stroke-width="1.5" stroke-miterlimit="10" stroke-linecap="round"/>
<path d="M638.677 216.026H589.905L577.522 224.81V172.81H638.677V216.026V216.026Z" fill="#E3F4E9"/>
<path d="M638.677 216.026H589.905L577.522 224.81V172.81H638.677V216.026V216.026Z" stroke="#3E3750" stroke-width="1.5" stroke-miterlimit="10" stroke-linecap="round"/>
<path d="M625.853 198.811H591.898C591.547 198.811 591.211 198.671 590.963 198.423C590.715 198.175 590.575 197.838 590.575 197.488C590.575 197.137 590.715 196.8 590.963 196.552C591.211 196.304 591.547 196.165 591.898 196.165H625.871C626.222 196.165 626.558 196.304 626.807 196.552C627.055 196.8 627.194 197.137 627.194 197.488C627.194 197.838 627.055 198.175 626.807 198.423C626.558 198.671 626.222 198.811 625.871 198.811H625.853ZM612.307 205.866H591.898C591.547 205.866 591.211 205.727 590.963 205.479C590.715 205.231 590.575 204.894 590.575 204.543C590.575 204.192 590.715 203.856 590.963 203.608C591.211 203.36 591.547 203.22 591.898 203.22H612.307C612.657 203.22 612.994 203.36 613.242 203.608C613.49 203.856 613.63 204.192 613.63 204.543C613.63 204.894 613.49 205.231 613.242 205.479C612.994 205.727 612.657 205.866 612.307 205.866V205.866ZM591.475 186.11C591.475 187.157 591.785 188.18 592.367 189.05C592.948 189.92 593.775 190.599 594.741 190.999C595.708 191.4 596.772 191.505 597.799 191.3C598.825 191.096 599.768 190.592 600.508 189.852C601.248 189.112 601.752 188.169 601.957 187.143C602.161 186.116 602.056 185.052 601.655 184.085C601.255 183.118 600.577 182.292 599.706 181.71C598.836 181.129 597.813 180.819 596.767 180.819C595.363 180.819 594.017 181.376 593.025 182.369C592.032 183.361 591.475 184.707 591.475 186.11Z" fill="#3E3750"/>
<path d="M274.888 79.5348H263.775V52.547C263.775 52.2096 263.842 51.8756 263.972 51.5641C264.101 51.2527 264.291 50.9699 264.531 50.7322C264.77 50.4944 265.054 50.3064 265.367 50.1789C265.679 50.0514 266.013 49.987 266.351 49.9893H272.33C273.009 49.9893 273.659 50.2588 274.139 50.7384C274.619 51.2181 274.888 51.8687 274.888 52.547V79.5348Z" fill="#5BBD81"/>
<path d="M274.888 79.5348H263.775V52.547C263.775 52.2096 263.842 51.8756 263.972 51.5641C264.101 51.2527 264.291 50.9699 264.531 50.7322C264.77 50.4944 265.054 50.3064 265.367 50.1789C265.679 50.0514 266.013 49.987 266.351 49.9893H272.33C273.009 49.9893 273.659 50.2588 274.139 50.7384C274.619 51.2181 274.888 51.8687 274.888 52.547V79.5348Z" stroke="#3E3750" stroke-width="1.5" stroke-miterlimit="10" stroke-linecap="round"/>
<path d="M294.944 79.5347H283.831V44.6092C283.831 44.2719 283.898 43.9378 284.027 43.6264C284.157 43.3149 284.347 43.0322 284.586 42.7944C284.826 42.5567 285.11 42.3687 285.422 42.2412C285.735 42.1137 286.069 42.0492 286.406 42.0516H292.386C293.064 42.0516 293.715 42.321 294.195 42.8007C294.674 43.2804 294.944 43.9309 294.944 44.6092V79.5347Z" fill="#5BBD81"/>
<path d="M294.944 79.5347H283.831V44.6092C283.831 44.2719 283.898 43.9378 284.027 43.6264C284.157 43.3149 284.347 43.0322 284.586 42.7944C284.826 42.5567 285.11 42.3687 285.422 42.2412C285.735 42.1137 286.069 42.0492 286.406 42.0516H292.386C293.064 42.0516 293.715 42.321 294.195 42.8007C294.674 43.2804 294.944 43.9309 294.944 44.6092V79.5347Z" stroke="#3E3750" stroke-width="1.5" stroke-miterlimit="10" stroke-linecap="round"/>
<path d="M315.017 79.5347H303.904V26.4586C303.904 26.1212 303.971 25.7872 304.101 25.4757C304.23 25.1643 304.42 24.8815 304.66 24.6438C304.899 24.4061 305.183 24.218 305.495 24.0905C305.808 23.9631 306.142 23.8986 306.48 23.9009H312.459C313.138 23.9009 313.788 24.1704 314.268 24.6501C314.747 25.1297 315.017 25.7803 315.017 26.4586V79.5347Z" fill="#5BBD81"/>
<path d="M315.017 79.5347H303.904V26.4586C303.904 26.1212 303.971 25.7872 304.101 25.4757C304.23 25.1643 304.42 24.8815 304.66 24.6438C304.899 24.4061 305.183 24.218 305.495 24.0905C305.808 23.9631 306.142 23.8986 306.48 23.9009H312.459C313.138 23.9009 313.788 24.1704 314.268 24.6501C314.747 25.1297 315.017 25.7803 315.017 26.4586V79.5347Z" stroke="#3E3750" stroke-width="1.5" stroke-miterlimit="10" stroke-linecap="round"/>
<path d="M335.143 79.5349H324.031V37.8536C324.026 37.1813 324.286 36.5342 324.755 36.0522C325.223 35.5702 325.863 35.2922 326.535 35.2783H332.515C332.858 35.2688 333.2 35.3286 333.52 35.454C333.839 35.5794 334.13 35.7678 334.376 36.0082C334.621 36.2485 334.815 36.5358 334.947 36.8528C335.079 37.1699 335.146 37.5102 335.143 37.8536V79.5349Z" fill="#5BBD81"/>
<path d="M335.143 79.5349H324.031V37.8536C324.026 37.1813 324.286 36.5342 324.755 36.0522C325.223 35.5702 325.863 35.2922 326.535 35.2783H332.515C332.858 35.2688 333.2 35.3286 333.52 35.454C333.839 35.5794 334.13 35.7678 334.376 36.0082C334.621 36.2485 334.815 36.5358 334.947 36.8528C335.079 37.1699 335.146 37.5102 335.143 37.8536V79.5349Z" stroke="#3E3750" stroke-width="1.5" stroke-miterlimit="10" stroke-linecap="round"/>
<path d="M355.146 79.5347H343.963V19.0325C343.963 18.3542 344.232 17.7036 344.712 17.224C345.191 16.7443 345.842 16.4749 346.52 16.4749H352.5C353.178 16.4749 353.829 16.7443 354.309 17.224C354.788 17.7036 355.058 18.3542 355.058 19.0325L355.146 79.5347Z" fill="#5BBD81"/>
<path d="M355.146 79.5347H343.963V19.0325C343.963 18.3542 344.232 17.7036 344.712 17.224C345.191 16.7443 345.842 16.4749 346.52 16.4749H352.5C353.178 16.4749 353.829 16.7443 354.309 17.224C354.788 17.7036 355.058 18.3542 355.058 19.0325L355.146 79.5347Z" stroke="#3E3750" stroke-width="1.5" stroke-miterlimit="10" stroke-linecap="round"/>
<path d="M365.818 79.5348H257.231C256.715 79.5351 256.218 79.3348 255.846 78.9762C255.474 78.6175 255.256 78.1285 255.238 77.6121V10.3013" stroke="#3E3750" stroke-width="1.5" stroke-miterlimit="10" stroke-linecap="round"/>
<path d="M153.848 167.642L10.072 181.189L43.9215 195.353L49.5307 229.979L81.1753 211.087L98.7262 218.302L153.848 167.642V167.642Z" fill="#E3F4E9"/>
<path d="M43.9214 195.353C43.9214 195.353 49.2131 229.044 49.5306 228.726C49.8481 228.409 60.802 202.709 60.802 202.709L139.049 172.14L43.9214 195.353Z" fill="#5BBD81"/>
<path d="M81.3516 210.981L49.5306 229.979L43.9214 195.353L153.848 167.642L60.802 202.709" stroke="#3E3750" stroke-width="1.5" stroke-miterlimit="10"/>
<path d="M60.8022 202.709L49.5308 229.979M12.471 206.977L28.9106 202.832L12.471 206.977ZM14.2702 223.911L33.7261 219.007L14.2702 223.911ZM2.85767 217.649L27.2349 211.493L2.85767 217.649ZM43.9215 195.353L10.0721 181.189L153.848 167.642L98.7263 218.302L60.8022 202.709L43.9215 195.353Z" stroke="#3E3750" stroke-width="1.5" stroke-miterlimit="10" stroke-linecap="round"/>
<path d="M84.6677 143.829C86.6161 143.829 88.1955 142.25 88.1955 140.301C88.1955 138.353 86.6161 136.774 84.6677 136.774C82.7194 136.774 81.1399 138.353 81.1399 140.301C81.1399 142.25 82.7194 143.829 84.6677 143.829Z" stroke="#3E3750" stroke-width="1.5" stroke-miterlimit="10"/>
<path d="M100.614 143.829C102.562 143.829 104.141 142.25 104.141 140.301C104.141 138.353 102.562 136.774 100.614 136.774C98.6652 136.774 97.0857 138.353 97.0857 140.301C97.0857 142.25 98.6652 143.829 100.614 143.829Z" stroke="#3E3750" stroke-width="1.5" stroke-miterlimit="10"/>
<path d="M57.4153 270.619L102.924 305.227L214.95 237.546L326.959 287.306L438.985 188.686L484.494 205.866" stroke="#3E3750" stroke-width="1.5" stroke-miterlimit="10" stroke-linecap="round"/>
<path d="M442.371 192.672C441.586 193.365 440.613 193.808 439.575 193.948C438.537 194.087 437.482 193.915 436.542 193.454C435.602 192.993 434.819 192.263 434.294 191.358C433.769 190.452 433.524 189.411 433.591 188.366C433.658 187.321 434.033 186.319 434.669 185.488C435.305 184.656 436.174 184.032 437.165 183.694C438.156 183.356 439.225 183.32 440.236 183.59C441.248 183.86 442.157 184.424 442.848 185.211C443.773 186.264 444.242 187.641 444.153 189.04C444.063 190.439 443.423 191.745 442.371 192.672" fill="#5BBD81"/>
<path d="M442.369 192.666C444.564 190.736 444.779 187.393 442.85 185.198C440.921 183.002 437.577 182.787 435.382 184.716C433.187 186.645 432.971 189.989 434.9 192.184C436.83 194.379 440.173 194.595 442.369 192.666Z" stroke="#3E3750" stroke-width="1.5" stroke-miterlimit="10" stroke-linecap="round"/>
<path d="M540.11 352.782L550.693 353.153L544.731 358.074L536.935 362.272L529.297 364.547L522.541 364.177C522.541 364.177 532.913 359.467 533.124 359.185C533.336 358.903 540.18 352.8 540.18 352.8" fill="#E3F4E9"/>
<path d="M550.499 353.841C555.052 348.81 558.048 342.566 559.123 335.866C560.198 329.167 559.307 322.299 556.556 316.096C553.806 309.893 549.315 304.621 543.628 300.92C537.941 297.219 531.302 295.247 524.517 295.244H519.401V353.841H550.499Z" fill="#5BBD81"/>
<path d="M524.517 295.244H512.169V365.359H524.517C533.678 365.154 542.396 361.37 548.802 354.818C555.209 348.265 558.797 339.465 558.797 330.301C558.797 321.137 555.209 312.337 548.802 305.785C542.396 299.233 533.678 295.449 524.517 295.244Z" stroke="#3E3750" stroke-width="1.5" stroke-miterlimit="10" stroke-linecap="round"/>
<path d="M547.289 330.31C547.289 337.246 545.232 344.025 541.379 349.792C537.526 355.559 532.049 360.053 525.642 362.707C519.234 365.362 512.183 366.056 505.381 364.703C498.579 363.35 492.331 360.01 487.426 355.106C482.522 350.202 479.183 343.954 477.83 337.151C476.477 330.349 477.171 323.298 479.825 316.891C482.479 310.483 486.974 305.007 492.74 301.153C498.507 297.3 505.287 295.244 512.222 295.244C516.828 295.241 521.389 296.147 525.644 297.908C529.9 299.67 533.767 302.253 537.023 305.509C540.28 308.766 542.863 312.633 544.624 316.888C546.386 321.144 547.291 325.705 547.289 330.31" fill="#E3F4E9"/>
<path d="M512.222 295.244C512.222 295.244 535.153 295.808 544.237 316.005C553.321 336.202 537.993 354.052 537.993 354.052L512.116 330.063L512.222 295.244Z" fill="#5BBD81"/>
<path d="M512.222 365.377C531.589 365.377 547.289 349.677 547.289 330.31C547.289 310.943 531.589 295.244 512.222 295.244C492.856 295.244 477.156 310.943 477.156 330.31C477.156 349.677 492.856 365.377 512.222 365.377Z" stroke="#3E3750" stroke-width="1.5" stroke-miterlimit="10" stroke-linecap="round"/>
<path d="M512.222 330.31V295.244" stroke="#3E3750" stroke-width="1.5" stroke-miterlimit="10" stroke-linecap="round"/>
<path d="M512.222 330.31L538.028 354.052Z" fill="#5BBD81"/>
<path d="M512.222 330.31L538.028 354.052" stroke="#3E3750" stroke-width="1.5" stroke-miterlimit="10" stroke-linecap="round"/>
<path d="M512.222 330.31L478.796 319.744Z" fill="#5BBD81"/>
<path d="M512.222 330.31L478.796 319.744" stroke="#3E3750" stroke-width="1.5" stroke-miterlimit="10" stroke-linecap="round"/>
<path d="M512.222 330.31L486.187 353.629Z" fill="#5BBD81"/>
<path d="M512.222 330.31L486.187 353.629" stroke="#3E3750" stroke-width="1.5" stroke-miterlimit="10" stroke-linecap="round"/>
<path d="M512.222 330.31L500.792 297.166Z" fill="#5BBD81"/>
<path d="M538.028 354.052H549.458M512.222 330.31L500.792 297.166L512.222 330.31Z" stroke="#3E3750" stroke-width="1.5" stroke-miterlimit="10" stroke-linecap="round"/>
<path d="M331.986 287.306C331.986 288.353 331.675 289.376 331.094 290.246C330.513 291.116 329.686 291.794 328.719 292.195C327.752 292.595 326.688 292.7 325.662 292.496C324.635 292.292 323.692 291.788 322.952 291.048C322.212 290.308 321.708 289.365 321.504 288.338C321.3 287.312 321.405 286.248 321.805 285.281C322.206 284.314 322.884 283.487 323.754 282.906C324.624 282.325 325.647 282.014 326.694 282.014C328.098 282.014 329.444 282.572 330.436 283.564C331.428 284.556 331.986 285.902 331.986 287.306" fill="#5BBD81"/>
<path d="M326.694 292.598C329.617 292.598 331.986 290.228 331.986 287.306C331.986 284.383 329.617 282.014 326.694 282.014C323.772 282.014 321.402 284.383 321.402 287.306C321.402 290.228 323.772 292.598 326.694 292.598Z" stroke="#3E3750" stroke-width="1.5" stroke-miterlimit="10" stroke-linecap="round"/>
<path d="M218.954 237.546C218.954 238.592 218.644 239.616 218.063 240.486C217.481 241.356 216.655 242.034 215.688 242.435C214.721 242.835 213.657 242.94 212.63 242.736C211.604 242.532 210.661 242.028 209.921 241.288C209.181 240.548 208.677 239.605 208.473 238.578C208.268 237.552 208.373 236.488 208.774 235.521C209.174 234.554 209.852 233.727 210.723 233.146C211.593 232.565 212.616 232.254 213.663 232.254C215.066 232.254 216.412 232.812 217.404 233.804C218.397 234.796 218.954 236.142 218.954 237.546Z" fill="#5BBD81"/>
<path d="M213.663 242.838C216.585 242.838 218.954 240.468 218.954 237.546C218.954 234.623 216.585 232.254 213.663 232.254C210.74 232.254 208.371 234.623 208.371 237.546C208.371 240.468 210.74 242.838 213.663 242.838Z" stroke="#3E3750" stroke-width="1.5" stroke-miterlimit="10" stroke-linecap="round"/>
<path d="M107.193 305.157C107.193 306.203 106.882 307.226 106.301 308.097C105.72 308.967 104.893 309.645 103.926 310.046C102.959 310.446 101.895 310.551 100.869 310.347C99.8423 310.143 98.8994 309.639 98.1593 308.899C97.4192 308.158 96.9152 307.216 96.7111 306.189C96.5069 305.163 96.6117 304.099 97.0122 303.132C97.4127 302.165 98.091 301.338 98.9612 300.757C99.8314 300.175 100.855 299.865 101.901 299.865C103.305 299.865 104.651 300.423 105.643 301.415C106.635 302.407 107.193 303.753 107.193 305.157Z" fill="#5BBD81"/>
<path d="M101.901 310.519C104.824 310.519 107.193 308.15 107.193 305.227C107.193 302.305 104.824 299.936 101.901 299.936C98.9786 299.936 96.6094 302.305 96.6094 305.227C96.6094 308.15 98.9786 310.519 101.901 310.519Z" stroke="#3E3750" stroke-width="1.5" stroke-miterlimit="10" stroke-linecap="round"/>
<path d="M270.196 169.335L263.934 160.516C263.797 160.323 263.616 160.166 263.406 160.057C263.195 159.948 262.962 159.892 262.726 159.892C262.489 159.892 262.256 159.948 262.046 160.057C261.836 160.166 261.654 160.323 261.517 160.516L257.531 166.037L249.1 154.113C248.963 153.92 248.781 153.763 248.571 153.654C248.361 153.545 248.128 153.489 247.891 153.489C247.655 153.489 247.421 153.545 247.211 153.654C247.001 153.763 246.82 153.92 246.683 154.113L235.976 169.335C235.816 169.558 235.721 169.82 235.702 170.093C235.682 170.366 235.738 170.639 235.864 170.882C235.99 171.125 236.181 171.328 236.416 171.47C236.65 171.611 236.919 171.684 237.193 171.681H268.944C269.22 171.691 269.494 171.622 269.734 171.484C269.974 171.345 270.17 171.143 270.3 170.898C270.431 170.654 270.49 170.378 270.471 170.102C270.453 169.826 270.358 169.56 270.196 169.335V169.335Z" stroke="#3E3750" stroke-width="1.5" stroke-miterlimit="10" stroke-linecap="round"/>
<path d="M259.277 156.194C260.836 156.194 262.1 154.931 262.1 153.372C262.1 151.813 260.836 150.55 259.277 150.55C257.719 150.55 256.455 151.813 256.455 153.372C256.455 154.931 257.719 156.194 259.277 156.194Z" stroke="#3E3750" stroke-width="1.5" stroke-miterlimit="10" stroke-linecap="round"/>
<path d="M84.0152 128.183H7.21446C5.65195 128.183 4.15343 127.563 3.04857 126.458C1.9437 125.353 1.323 123.855 1.323 122.292V45.4913C1.323 43.9288 1.9437 42.4303 3.04857 41.3254C4.15343 40.2206 5.65195 39.5998 7.21446 39.5998H84.0152C84.7933 39.5929 85.5651 39.7401 86.286 40.033C87.0069 40.326 87.6626 40.7588 88.2153 41.3066C88.768 41.8544 89.2067 42.5062 89.5061 43.2245C89.8055 43.9427 89.9596 44.7132 89.9596 45.4913V122.292C89.9596 123.855 89.3388 125.353 88.234 126.458C87.1291 127.563 85.6306 128.183 84.0681 128.183" fill="white"/>
<path d="M84.0152 39.5999H7.21446C3.9607 39.5999 1.323 42.2376 1.323 45.4913V122.274C1.323 125.528 3.9607 128.166 7.21446 128.166H84.0152C87.2689 128.166 89.9066 125.528 89.9066 122.274V45.4913C89.9066 42.2376 87.2689 39.5999 84.0152 39.5999Z" stroke="#3E3750" stroke-width="1.5" stroke-miterlimit="10"/>
<path d="M73.0259 97.8972L62.4424 82.8158C62.2097 82.4846 61.9006 82.2143 61.5414 82.0277C61.1822 81.841 60.7834 81.7436 60.3786 81.7436C59.9738 81.7436 59.575 81.841 59.2158 82.0277C58.8566 82.2143 58.5476 82.4846 58.3148 82.8158L51.612 92.288L37.1832 71.9853C36.9504 71.6542 36.6414 71.3838 36.2822 71.1972C35.923 71.0106 35.5242 70.9132 35.1194 70.9132C34.7146 70.9132 34.3158 71.0106 33.9566 71.1972C33.5974 71.3838 33.2883 71.6542 33.0556 71.9853L14.7462 97.8972C14.4768 98.2751 14.317 98.72 14.2841 99.1829C14.2513 99.6458 14.3469 100.109 14.5602 100.521C14.7736 100.933 15.0965 101.278 15.4934 101.519C15.8903 101.759 16.3459 101.885 16.81 101.884H70.9797C71.4423 101.882 71.8955 101.754 72.2899 101.512C72.6843 101.27 73.0047 100.925 73.2159 100.513C73.4271 100.102 73.5211 99.6399 73.4876 99.1785C73.4541 98.7171 73.2943 98.2739 73.0259 97.8972ZM54.4166 75.5132C55.3655 75.5132 56.2931 75.2318 57.0821 74.7046C57.8711 74.1774 58.4861 73.4281 58.8492 72.5514C59.2123 71.6747 59.3074 70.71 59.1222 69.7793C58.9371 68.8486 58.4802 67.9937 57.8092 67.3227C57.1382 66.6517 56.2833 66.1948 55.3526 66.0097C54.4219 65.8245 53.4572 65.9196 52.5805 66.2827C51.7038 66.6458 50.9545 67.2608 50.4273 68.0498C49.9001 68.8388 49.6187 69.7664 49.6187 70.7153C49.6187 71.9878 50.1242 73.2081 51.024 74.1079C51.9238 75.0077 53.1441 75.5132 54.4166 75.5132Z" fill="#5BBD81"/>
<path d="M213.663 225.534V209.658C213.663 208.255 213.105 206.909 212.113 205.917C211.12 204.924 209.774 204.367 208.371 204.367H113.931" stroke="#3E3750" stroke-width="1.5" stroke-miterlimit="10" stroke-linecap="round"/>
<path d="M444.277 90.8943C444.28 99.711 441.669 108.331 436.773 115.663C431.877 122.996 424.917 128.712 416.772 132.088C408.628 135.464 399.665 136.35 391.017 134.632C382.37 132.914 374.426 128.67 368.19 122.437C361.955 116.204 357.708 108.261 355.986 99.6144C354.265 90.9674 355.147 82.0041 358.52 73.8583C361.893 65.7124 367.606 58.7498 374.937 53.8512C382.267 48.9526 390.886 46.3379 399.702 46.3379C411.521 46.3379 422.856 51.0317 431.215 59.3871C439.574 67.7425 444.272 79.0756 444.277 90.8943" fill="#5BBD81"/>
<path d="M399.72 135.468C424.338 135.468 444.294 115.512 444.294 90.8943C444.294 66.2768 424.338 46.3203 399.72 46.3203C375.102 46.3203 355.146 66.2768 355.146 90.8943C355.146 115.512 375.102 135.468 399.72 135.468Z" stroke="#3E3750" stroke-width="1.5" stroke-miterlimit="10" stroke-linecap="round"/>
<path d="M405.947 40.8875H393.899C392.907 41.0096 391.901 40.9197 390.946 40.6236C389.992 40.3275 389.111 39.8321 388.362 39.17C387.614 38.5079 387.014 37.6944 386.604 36.7832C386.193 35.8721 385.981 34.8841 385.981 33.8847C385.981 32.8854 386.193 31.8974 386.604 30.9863C387.014 30.0751 387.614 29.2616 388.362 28.5995C389.111 27.9374 389.992 27.442 390.946 27.1459C391.901 26.8498 392.907 26.7599 393.899 26.882H405.947C406.938 26.7599 407.945 26.8498 408.9 27.1459C409.854 27.442 410.735 27.9374 411.483 28.5995C412.232 29.2616 412.831 30.0751 413.242 30.9863C413.652 31.8974 413.865 32.8854 413.865 33.8847C413.865 34.8841 413.652 35.8721 413.242 36.7832C412.831 37.6944 412.232 38.5079 411.483 39.17C410.735 39.8321 409.854 40.3275 408.9 40.6236C407.945 40.9197 406.938 41.0096 405.947 40.8875Z" fill="#5BBD81"/>
<path d="M405.947 40.8875H393.899C392.907 41.0096 391.901 40.9197 390.946 40.6236C389.992 40.3275 389.111 39.8321 388.362 39.17C387.614 38.5079 387.014 37.6944 386.604 36.7832C386.193 35.8721 385.981 34.8841 385.981 33.8847C385.981 32.8854 386.193 31.8974 386.604 30.9863C387.014 30.0751 387.614 29.2616 388.362 28.5995C389.111 27.9374 389.992 27.442 390.946 27.1459C391.901 26.8498 392.907 26.7599 393.899 26.882H405.947C406.938 26.7599 407.945 26.8498 408.9 27.1459C409.854 27.442 410.735 27.9374 411.483 28.5995C412.232 29.2616 412.831 30.0751 413.242 30.9863C413.652 31.8974 413.865 32.8854 413.865 33.8847C413.865 34.8841 413.652 35.8721 413.242 36.7832C412.831 37.6944 412.232 38.5079 411.483 39.17C410.735 39.8321 409.854 40.3275 408.9 40.6236C407.945 40.9197 406.938 41.0096 405.947 40.8875Z" stroke="#3E3750" stroke-width="1.5" stroke-miterlimit="10" stroke-linecap="round"/>
<path d="M436.939 90.8943C436.939 99.706 434.326 108.32 429.431 115.647C424.535 122.974 417.578 128.684 409.437 132.057C401.297 135.43 392.339 136.314 383.696 134.596C375.053 132.878 367.114 128.636 360.882 122.407C354.65 116.177 350.405 108.24 348.684 99.5976C346.963 90.9557 347.843 81.9974 351.212 73.8555C354.582 65.7136 360.29 58.7536 367.615 53.8556C374.94 48.9575 383.553 46.3414 392.364 46.3379C404.183 46.3379 415.518 51.0317 423.877 59.3871C432.236 67.7425 436.934 79.0756 436.939 90.8943" fill="#E3F4E9"/>
<path d="M392.364 135.468C416.982 135.468 436.938 115.512 436.938 90.8943C436.938 66.2768 416.982 46.3203 392.364 46.3203C367.747 46.3203 347.79 66.2768 347.79 90.8943C347.79 115.512 367.747 135.468 392.364 135.468Z" stroke="#3E3750" stroke-width="1.5" stroke-miterlimit="10" stroke-linecap="round"/>
<path d="M426.443 90.8944C426.443 97.6346 424.445 104.223 420.7 109.828C416.955 115.432 411.633 119.8 405.406 122.379C399.179 124.958 392.327 125.633 385.716 124.318C379.105 123.003 373.033 119.758 368.267 114.992C363.501 110.226 360.255 104.154 358.94 97.5429C357.626 90.9322 358.3 84.0801 360.88 77.8531C363.459 71.626 367.827 66.3036 373.431 62.559C379.036 58.8144 385.624 56.8157 392.364 56.8157C401.403 56.8157 410.071 60.4061 416.462 66.7971C422.853 73.1881 426.443 81.8562 426.443 90.8944Z" fill="white"/>
<path d="M392.364 124.973C411.186 124.973 426.443 109.716 426.443 90.8944C426.443 72.0733 411.186 56.8157 392.364 56.8157C373.543 56.8157 358.286 72.0733 358.286 90.8944C358.286 109.716 373.543 124.973 392.364 124.973Z" stroke="#3E3750" stroke-width="1.5" stroke-miterlimit="10" stroke-linecap="round"/>
<path d="M398.644 40.8875H386.596C385.605 41.0096 384.598 40.9197 383.644 40.6236C382.689 40.3275 381.808 39.8321 381.06 39.17C380.311 38.5079 379.712 37.6944 379.301 36.7832C378.891 35.8721 378.678 34.8841 378.678 33.8847C378.678 32.8854 378.891 31.8974 379.301 30.9863C379.712 30.0751 380.311 29.2616 381.06 28.5995C381.808 27.9374 382.689 27.442 383.644 27.1459C384.598 26.8498 385.605 26.7599 386.596 26.882H398.644C399.636 26.7599 400.642 26.8498 401.597 27.1459C402.551 27.442 403.432 27.9374 404.181 28.5995C404.929 29.2616 405.529 30.0751 405.939 30.9863C406.35 31.8974 406.562 32.8854 406.562 33.8847C406.562 34.8841 406.35 35.8721 405.939 36.7832C405.529 37.6944 404.929 38.5079 404.181 39.17C403.432 39.8321 402.551 40.3275 401.597 40.6236C400.642 40.9197 399.636 41.0096 398.644 40.8875Z" fill="#E3F4E9"/>
<path d="M398.644 40.8875H386.596C385.605 41.0096 384.598 40.9197 383.644 40.6236C382.689 40.3275 381.808 39.8321 381.06 39.17C380.311 38.5079 379.712 37.6944 379.301 36.7832C378.891 35.8721 378.678 34.8841 378.678 33.8847C378.678 32.8854 378.891 31.8974 379.301 30.9863C379.712 30.0751 380.311 29.2616 381.06 28.5995C381.808 27.9374 382.689 27.442 383.644 27.1459C384.598 26.8498 385.605 26.7599 386.596 26.882H398.644C399.636 26.7599 400.642 26.8498 401.597 27.1459C402.551 27.442 403.432 27.9374 404.181 28.5995C404.929 29.2616 405.529 30.0751 405.939 30.9863C406.35 31.8974 406.562 32.8854 406.562 33.8847C406.562 34.8841 406.35 35.8721 405.939 36.7832C405.529 37.6944 404.929 38.5079 404.181 39.17C403.432 39.8321 402.551 40.3275 401.597 40.6236C400.642 40.9197 399.636 41.0096 398.644 40.8875Z" stroke="#3E3750" stroke-width="1.5" stroke-miterlimit="10" stroke-linecap="round"/>
<path d="M431.065 48.8074C431.065 49.5784 430.836 50.3321 430.408 50.9732C429.979 51.6142 429.37 52.1139 428.658 52.4089C427.946 52.704 427.162 52.7812 426.406 52.6308C425.65 52.4804 424.955 52.1091 424.41 51.5639C423.865 51.0187 423.493 50.3241 423.343 49.5679C423.193 48.8118 423.27 48.0279 423.565 47.3156C423.86 46.6033 424.359 45.9945 425.001 45.5662C425.642 45.1378 426.395 44.9092 427.166 44.9092C428.2 44.9092 429.192 45.3199 429.923 46.051C430.654 46.782 431.065 47.7735 431.065 48.8074Z" fill="#E3F4E9"/>
<path d="M427.166 52.7057C429.319 52.7057 431.065 50.9604 431.065 48.8074C431.065 46.6545 429.319 44.9092 427.166 44.9092C425.013 44.9092 423.268 46.6545 423.268 48.8074C423.268 50.9604 425.013 52.7057 427.166 52.7057Z" stroke="#3E3750" stroke-width="1.5" stroke-miterlimit="10" stroke-linecap="round"/>
<path d="M391.006 94.6868C390.495 94.1742 390.207 93.4795 390.207 92.7553C390.207 92.0311 390.495 91.3364 391.006 90.8238L410.409 71.4208C410.929 70.9444 411.612 70.6869 412.316 70.7021C413.021 70.7172 413.693 71.0039 414.191 71.5022C414.689 72.0005 414.976 72.6721 414.991 73.3766C415.006 74.0812 414.749 74.7644 414.272 75.2838L394.869 94.6868C394.357 95.1984 393.662 95.4858 392.938 95.4858C392.214 95.4858 391.519 95.1984 391.006 94.6868" fill="#3E3750"/>
<path d="M392.417 93.4872C396.175 94.2281 399.579 80.3284 402.366 82.7626L413.62 71.5089C407.79 66.0839 400.368 62.6819 392.453 61.8074C392.463 61.966 392.463 62.125 392.453 62.2836L392.417 93.4872Z" fill="#8AD0A5"/>
<path d="M391.006 94.6868C390.495 94.1742 390.207 93.4795 390.207 92.7553C390.207 92.0311 390.495 91.3364 391.006 90.8238L410.409 71.4208C410.929 70.9444 411.612 70.6869 412.316 70.7021C413.021 70.7172 413.693 71.0039 414.191 71.5022C414.689 72.0005 414.976 72.6721 414.991 73.3766C415.006 74.0812 414.749 74.7644 414.272 75.2838L394.869 94.6868C394.357 95.1984 393.662 95.4858 392.938 95.4858C392.214 95.4858 391.519 95.1984 391.006 94.6868" fill="#3E3750"/>
<path d="M96.4683 69.6922C115.348 69.6922 130.653 54.3872 130.653 35.5076C130.653 16.628 115.348 1.323 96.4683 1.323C77.5887 1.323 62.2837 16.628 62.2837 35.5076C62.2837 54.3872 77.5887 69.6922 96.4683 69.6922Z" stroke="#3E3750" stroke-width="1.5" stroke-miterlimit="10" stroke-linecap="round"/>
<path d="M130.653 35.5076C130.653 42.2687 128.648 48.8779 124.892 54.4996C121.136 60.1212 115.797 64.5027 109.55 67.0901C103.304 69.6774 96.4304 70.3544 89.7992 69.0354C83.1681 67.7163 77.077 64.4606 72.2961 59.6798C67.5153 54.899 64.2596 48.8079 62.9406 42.1767C61.6215 35.5455 62.2985 28.6721 64.8859 22.4257C67.4732 16.1793 71.8547 10.8404 77.4764 7.08414C83.098 3.32789 89.7072 1.323 96.4683 1.323C105.535 1.323 114.23 4.92458 120.64 11.3354C127.051 17.7463 130.653 26.4413 130.653 35.5076Z" fill="white"/>
<path d="M75.1074 61.1371C75.1074 55.4718 77.3579 50.0386 81.3639 46.0326C85.3699 42.0266 90.8031 39.7761 96.4684 39.7761C102.134 39.7761 107.567 42.0266 111.573 46.0326C115.579 50.0386 117.829 55.4718 117.829 61.1371" stroke="#3E3750" stroke-width="1.5" stroke-miterlimit="10" stroke-linecap="round"/>
<path d="M109.363 29.1046C109.363 31.6409 108.611 34.1202 107.201 36.2291C105.792 38.3379 103.79 39.9815 101.446 40.9521C99.1032 41.9227 96.5248 42.1767 94.0372 41.6819C91.5497 41.1871 89.2647 39.9657 87.4713 38.1723C85.6779 36.3789 84.4565 34.094 83.9617 31.6064C83.4669 29.1189 83.7209 26.5405 84.6915 24.1972C85.6621 21.854 87.3057 19.8513 89.4145 18.4422C91.5234 17.0331 94.0027 16.281 96.539 16.281C99.94 16.281 103.202 17.6321 105.607 20.037C108.012 22.4419 109.363 25.7036 109.363 29.1046Z" fill="white"/>
<path d="M96.4682 41.9283C103.55 41.9283 109.292 36.1869 109.292 29.1046C109.292 22.0223 103.55 16.281 96.4682 16.281C89.3859 16.281 83.6445 22.0223 83.6445 29.1046C83.6445 36.1869 89.3859 41.9283 96.4682 41.9283Z" stroke="#3E3750" stroke-width="1.5" stroke-miterlimit="10" stroke-linecap="round"/>
<path d="M146.599 15.2402H124.003" stroke="#3E3750" stroke-width="1.5" stroke-miterlimit="10" stroke-linecap="round"/>
<path d="M167.025 15.2402C167.025 16.2868 166.714 17.3099 166.133 18.1802C165.551 19.0504 164.725 19.7286 163.758 20.1291C162.791 20.5297 161.727 20.6345 160.701 20.4303C159.674 20.2261 158.731 19.7221 157.991 18.982C157.251 18.242 156.747 17.2991 156.543 16.2726C156.339 15.2461 156.443 14.1821 156.844 13.2152C157.244 12.2482 157.923 11.4218 158.793 10.8403C159.663 10.2588 160.686 9.94849 161.733 9.94849C163.136 9.94849 164.482 10.506 165.475 11.4984C166.467 12.4908 167.025 13.8368 167.025 15.2402Z" fill="#5BBD81"/>
<path d="M161.733 20.532C164.655 20.532 167.025 18.1628 167.025 15.2402C167.025 12.3177 164.655 9.94849 161.733 9.94849C158.81 9.94849 156.441 12.3177 156.441 15.2402C156.441 18.1628 158.81 20.532 161.733 20.532Z" stroke="#3E3750" stroke-width="1.5" stroke-miterlimit="10" stroke-linecap="round"/>
<path d="M154.678 32.8794H130.653" stroke="#3E3750" stroke-width="1.5" stroke-miterlimit="10" stroke-linecap="round"/>
<path d="M174.08 32.8794C174.08 33.926 173.77 34.9491 173.188 35.8193C172.607 36.6895 171.781 37.3678 170.814 37.7683C169.847 38.1688 168.783 38.2736 167.756 38.0694C166.73 37.8653 165.787 37.3613 165.047 36.6212C164.307 35.8811 163.803 34.9382 163.599 33.9117C163.394 32.8853 163.499 31.8213 163.9 30.8543C164.3 29.8874 164.978 29.0609 165.849 28.4795C166.719 27.898 167.742 27.5876 168.789 27.5876C170.192 27.5876 171.538 28.1452 172.53 29.1376C173.523 30.13 174.08 31.4759 174.08 32.8794" fill="#5BBD81"/>
<path d="M168.789 38.1711C171.711 38.1711 174.08 35.8019 174.08 32.8794C174.08 29.9568 171.711 27.5876 168.789 27.5876C165.866 27.5876 163.497 29.9568 163.497 32.8794C163.497 35.8019 165.866 38.1711 168.789 38.1711Z" stroke="#3E3750" stroke-width="1.5" stroke-miterlimit="10" stroke-linecap="round"/>
<path d="M146.599 50.5183H127.196" stroke="#3E3750" stroke-width="1.5" stroke-miterlimit="10" stroke-linecap="round"/>
<path d="M167.025 50.5185C167.025 51.5651 166.714 52.5883 166.133 53.4585C165.551 54.3287 164.725 55.0069 163.758 55.4075C162.791 55.808 161.727 55.9128 160.701 55.7086C159.674 55.5044 158.731 55.0004 157.991 54.2604C157.251 53.5203 156.747 52.5774 156.543 51.5509C156.339 50.5244 156.443 49.4604 156.844 48.4935C157.244 47.5265 157.923 46.7001 158.793 46.1186C159.663 45.5372 160.686 45.2268 161.733 45.2268C163.136 45.2268 164.482 45.7843 165.475 46.7767C166.467 47.7691 167.025 49.1151 167.025 50.5185Z" fill="#5BBD81"/>
<path d="M161.733 55.8103C164.655 55.8103 167.025 53.4411 167.025 50.5185C167.025 47.596 164.655 45.2268 161.733 45.2268C158.81 45.2268 156.441 47.596 156.441 50.5185C156.441 53.4411 158.81 55.8103 161.733 55.8103Z" stroke="#3E3750" stroke-width="1.5" stroke-miterlimit="10" stroke-linecap="round"/>
<path d="M178.155 319.427C178.155 337.295 199.587 355.622 203.556 355.605C207.524 355.587 228.779 337.101 228.727 319.25C228.715 315.93 228.049 312.644 226.768 309.581C225.487 306.517 223.614 303.736 221.258 301.397C218.902 299.057 216.108 297.204 213.036 295.944C209.964 294.684 206.673 294.041 203.353 294.053C200.032 294.064 196.746 294.73 193.683 296.011C190.62 297.293 187.839 299.165 185.499 301.521C183.159 303.877 181.306 306.671 180.046 309.744C178.786 312.816 178.144 316.106 178.155 319.427V319.427ZM194.612 319.427C194.612 317.682 195.13 315.977 196.099 314.527C197.068 313.077 198.445 311.946 200.057 311.279C201.669 310.611 203.442 310.436 205.153 310.777C206.863 311.117 208.435 311.957 209.668 313.19C210.902 314.424 211.742 315.995 212.082 317.706C212.422 319.417 212.248 321.19 211.58 322.802C210.913 324.413 209.782 325.791 208.332 326.76C206.882 327.729 205.176 328.246 203.432 328.246C201.093 328.246 198.85 327.317 197.196 325.663C195.542 324.009 194.612 321.766 194.612 319.427" fill="#E3F4E9"/>
<path d="M178.155 319.427C178.155 337.295 199.587 355.622 203.556 355.605C207.524 355.587 228.779 337.101 228.727 319.25C228.715 315.93 228.049 312.644 226.768 309.581C225.487 306.517 223.614 303.736 221.258 301.397C218.902 299.057 216.108 297.204 213.036 295.944C209.964 294.684 206.673 294.041 203.353 294.053C200.032 294.064 196.746 294.73 193.683 296.011C190.62 297.293 187.839 299.165 185.499 301.521C183.159 303.877 181.306 306.671 180.046 309.744C178.786 312.816 178.144 316.106 178.155 319.427V319.427ZM194.612 319.427C194.612 317.682 195.13 315.977 196.099 314.527C197.068 313.077 198.445 311.946 200.057 311.279C201.669 310.611 203.442 310.436 205.153 310.777C206.863 311.117 208.435 311.957 209.668 313.19C210.902 314.424 211.742 315.995 212.082 317.706C212.422 319.417 212.248 321.19 211.58 322.802C210.913 324.413 209.782 325.791 208.332 326.76C206.882 327.729 205.176 328.246 203.432 328.246C201.096 328.228 198.863 327.283 197.223 325.62C195.582 323.956 194.669 321.71 194.683 319.374L194.612 319.427Z" stroke="#3E3750" stroke-width="1.5" stroke-miterlimit="10" stroke-linecap="round"/>
<path d="M102.307 413.584C102.307 431.435 123.668 449.797 127.637 449.797C131.605 449.797 152.86 431.294 152.808 413.443C152.796 410.123 152.13 406.837 150.849 403.774C149.568 400.71 147.695 397.929 145.339 395.589C142.983 393.25 140.189 391.397 137.117 390.137C134.045 388.877 130.754 388.234 127.434 388.246C124.113 388.257 120.827 388.923 117.764 390.204C114.701 391.486 111.92 393.358 109.58 395.714C107.24 398.07 105.387 400.864 104.127 403.937C102.867 407.009 102.225 410.299 102.236 413.62L102.307 413.584ZM118.694 413.62C118.694 411.875 119.211 410.17 120.18 408.72C121.149 407.269 122.526 406.139 124.138 405.471C125.75 404.804 127.523 404.629 129.234 404.97C130.945 405.31 132.516 406.15 133.749 407.383C134.983 408.617 135.823 410.188 136.163 411.899C136.503 413.61 136.329 415.383 135.661 416.995C134.994 418.606 133.863 419.984 132.413 420.953C130.963 421.922 129.257 422.439 127.513 422.439C125.174 422.439 122.931 421.51 121.277 419.856C119.623 418.202 118.694 415.959 118.694 413.62" fill="#5BBD81"/>
<path d="M102.307 413.584C102.307 431.435 123.668 449.797 127.637 449.797C131.605 449.797 152.86 431.294 152.808 413.443C152.796 410.123 152.13 406.837 150.849 403.774C149.568 400.71 147.695 397.929 145.339 395.589C142.983 393.25 140.189 391.397 137.117 390.137C134.045 388.877 130.754 388.234 127.434 388.246C124.113 388.257 120.827 388.923 117.764 390.204C114.701 391.486 111.92 393.358 109.58 395.714C107.24 398.07 105.387 400.864 104.127 403.937C102.867 407.009 102.225 410.299 102.236 413.62L102.307 413.584ZM118.764 413.584C118.764 411.84 119.281 410.135 120.25 408.684C121.22 407.234 122.597 406.104 124.209 405.436C125.82 404.769 127.593 404.594 129.304 404.934C131.015 405.275 132.587 406.115 133.82 407.348C135.053 408.581 135.893 410.153 136.234 411.864C136.574 413.575 136.399 415.348 135.732 416.959C135.064 418.571 133.934 419.948 132.484 420.918C131.033 421.887 129.328 422.404 127.584 422.404C126.415 422.413 125.256 422.19 124.175 421.748C123.093 421.306 122.11 420.653 121.283 419.827C120.456 419.002 119.801 418.02 119.356 416.939C118.912 415.858 118.686 414.7 118.694 413.531L118.764 413.584Z" stroke="#3E3750" stroke-width="1.5" stroke-miterlimit="10" stroke-linecap="round"/>
<path d="M2.82218 361.514C2.82218 379.382 24.2537 397.709 28.2225 397.692C32.1913 397.674 53.4464 379.241 53.3935 361.337C53.3819 358.017 52.7164 354.731 51.435 351.668C50.1536 348.604 48.2813 345.823 45.9252 343.483C43.569 341.144 40.775 339.291 37.7028 338.031C34.6305 336.771 31.3402 336.128 28.0197 336.14C24.6991 336.151 21.4133 336.817 18.35 338.098C15.2866 339.38 12.5056 341.252 10.1658 343.608C7.82601 345.964 5.97321 348.758 4.71318 351.831C3.45316 354.903 2.81059 358.193 2.82218 361.514V361.514ZM19.2795 361.514C19.2795 359.769 19.7967 358.064 20.7658 356.614C21.7349 355.163 23.1124 354.033 24.7239 353.365C26.3355 352.698 28.1088 352.523 29.8196 352.864C31.5305 353.204 33.102 354.044 34.3354 355.277C35.5688 356.511 36.4088 358.082 36.7491 359.793C37.0894 361.504 36.9148 363.277 36.2472 364.889C35.5797 366.5 34.4493 367.878 32.9989 368.847C31.5485 369.816 29.8434 370.333 28.099 370.333C25.7599 370.333 23.5166 369.404 21.8627 367.75C20.2087 366.096 19.2795 363.853 19.2795 361.514" fill="#5BBD81"/>
<path d="M2.82218 361.514C2.82218 379.382 24.2537 397.709 28.2225 397.692C32.1913 397.674 53.4464 379.241 53.3935 361.337C53.3819 358.017 52.7164 354.731 51.435 351.668C50.1536 348.604 48.2813 345.823 45.9252 343.483C43.569 341.144 40.775 339.291 37.7028 338.031C34.6305 336.771 31.3402 336.128 28.0197 336.14C24.6991 336.151 21.4133 336.817 18.35 338.098C15.2866 339.38 12.5056 341.252 10.1658 343.608C7.82601 345.964 5.97321 348.758 4.71318 351.831C3.45316 354.903 2.81059 358.193 2.82218 361.514V361.514ZM19.2795 361.514C19.2795 359.769 19.7967 358.064 20.7658 356.614C21.7349 355.163 23.1124 354.033 24.7239 353.365C26.3355 352.698 28.1088 352.523 29.8196 352.864C31.5305 353.204 33.102 354.044 34.3354 355.277C35.5688 356.511 36.4088 358.082 36.7491 359.793C37.0894 361.504 36.9148 363.277 36.2472 364.889C35.5797 366.5 34.4493 367.878 32.9989 368.847C31.5485 369.816 29.8434 370.333 28.099 370.333C26.9378 370.331 25.7885 370.099 24.7171 369.652C23.6456 369.204 22.6731 368.549 21.8553 367.725C21.0375 366.901 20.3905 365.923 19.9515 364.848C19.5125 363.773 19.2901 362.622 19.2971 361.461L19.2795 361.514Z" stroke="#3E3750" stroke-width="1.5" stroke-miterlimit="10" stroke-linecap="round"/>
<path d="M105.076 401.837L50.6594 373.208Z" fill="#E3F4E9"/>
<path d="M105.076 401.837L50.6594 373.208" stroke="#3E3750" stroke-width="1.5" stroke-miterlimit="10" stroke-linecap="round"/>
<path d="M143.247 393.705L186.498 340.505Z" fill="#E3F4E9"/>
<path d="M143.247 393.705L186.498 340.505" stroke="#3E3750" stroke-width="1.5" stroke-miterlimit="10" stroke-linecap="round"/>
<path d="M446.711 282.896H364.477C364.009 282.896 363.561 282.71 363.23 282.379C362.899 282.049 362.713 281.6 362.713 281.132C362.713 280.664 362.899 280.216 363.23 279.885C363.561 279.554 364.009 279.368 364.477 279.368H446.711C447.178 279.368 447.627 279.554 447.958 279.885C448.289 280.216 448.475 280.664 448.475 281.132C448.475 281.6 448.289 282.049 447.958 282.379C447.627 282.71 447.178 282.896 446.711 282.896ZM430.112 295.243H364.477C364.009 295.243 363.561 295.058 363.23 294.727C362.899 294.396 362.713 293.947 362.713 293.48C362.713 293.012 362.899 292.563 363.23 292.232C363.561 291.901 364.009 291.716 364.477 291.716H430.112C430.58 291.716 431.029 291.901 431.36 292.232C431.69 292.563 431.876 293.012 431.876 293.48C431.876 293.947 431.69 294.396 431.36 294.727C431.029 295.058 430.58 295.243 430.112 295.243ZM446.711 307.591H364.477C364.009 307.591 363.561 307.405 363.23 307.074C362.899 306.743 362.713 306.295 362.713 305.827C362.713 305.359 362.899 304.91 363.23 304.58C363.561 304.249 364.009 304.063 364.477 304.063H446.711C447.178 304.063 447.627 304.249 447.958 304.58C448.289 304.91 448.475 305.359 448.475 305.827C448.475 306.295 448.289 306.743 447.958 307.074C447.627 307.405 447.178 307.591 446.711 307.591ZM430.112 319.938H364.477C364.009 319.938 363.561 319.752 363.23 319.422C362.899 319.091 362.713 318.642 362.713 318.174C362.713 317.706 362.899 317.258 363.23 316.927C363.561 316.596 364.009 316.41 364.477 316.41H430.112C430.58 316.41 431.029 316.596 431.36 316.927C431.69 317.258 431.876 317.706 431.876 318.174C431.876 318.642 431.69 319.091 431.36 319.422C431.029 319.752 430.58 319.938 430.112 319.938ZM274.235 213.786H236.241C235.773 213.786 235.324 213.6 234.993 213.269C234.663 212.939 234.477 212.49 234.477 212.022C234.477 211.554 234.663 211.106 234.993 210.775C235.324 210.444 235.773 210.258 236.241 210.258H274.235C274.703 210.258 275.152 210.444 275.483 210.775C275.813 211.106 275.999 211.554 275.999 212.022C275.999 212.49 275.813 212.939 275.483 213.269C275.152 213.6 274.703 213.786 274.235 213.786ZM274.235 204.102H236.241C235.773 204.102 235.324 203.916 234.993 203.585C234.663 203.255 234.477 202.806 234.477 202.338C234.477 201.87 234.663 201.422 234.993 201.091C235.324 200.76 235.773 200.574 236.241 200.574H274.235C274.703 200.574 275.152 200.76 275.483 201.091C275.813 201.422 275.999 201.87 275.999 202.338C275.999 202.806 275.813 203.255 275.483 203.585C275.152 203.916 274.703 204.102 274.235 204.102ZM285.754 194.418H236.241C235.773 194.418 235.324 194.232 234.993 193.902C234.663 193.571 234.477 193.122 234.477 192.654C234.477 192.187 234.663 191.738 234.993 191.407C235.324 191.076 235.773 190.89 236.241 190.89H285.754C286.222 190.89 286.67 191.076 287.001 191.407C287.332 191.738 287.518 192.187 287.518 192.654C287.518 193.122 287.332 193.571 287.001 193.902C286.67 194.232 286.222 194.418 285.754 194.418ZM285.754 184.734H236.241C235.773 184.734 235.324 184.549 234.993 184.218C234.663 183.887 234.477 183.438 234.477 182.97C234.477 182.503 234.663 182.054 234.993 181.723C235.324 181.392 235.773 181.207 236.241 181.207H285.754C286.222 181.207 286.67 181.392 287.001 181.723C287.332 182.054 287.518 182.503 287.518 182.97C287.518 183.438 287.332 183.887 287.001 184.218C286.67 184.549 286.222 184.734 285.754 184.734Z" fill="#3E3750"/>
<path d="M96.4683 1.323C105.535 1.323 114.23 4.92458 120.64 11.3354C127.051 17.7463 130.653 26.4413 130.653 35.5076L96.4683 1.323ZM130.653 35.5076C130.653 42.2687 128.648 48.8779 124.892 54.4996C121.136 60.1212 115.797 64.5027 109.55 67.0901C103.304 69.6774 96.4304 70.3544 89.7992 69.0354C83.1681 67.7163 77.077 64.4606 72.2961 59.6798C67.5153 54.899 64.2596 48.8079 62.9406 42.1767C61.6215 35.5455 62.2985 28.6721 64.8859 22.4257C67.4732 16.1793 71.8547 10.8404 77.4764 7.08414C83.098 3.32789 89.7072 1.323 96.4683 1.323" fill="white"/>
<path d="M117.847 61.1373C117.847 55.472 115.596 50.0388 111.59 46.0328C107.584 42.0269 102.151 39.7764 96.486 39.7764C90.8207 39.7764 85.3874 42.0269 81.3815 46.0328C77.3755 50.0388 75.125 55.472 75.125 61.1373L84.0857 67.4874L95.1101 69.5512L102.025 69.2513L107.898 67.7873L116.418 63.2364L117.847 61.1373Z" fill="#E3F4E9"/>
<path d="M75.1074 61.1373C75.1074 55.4721 77.3579 50.0388 81.3639 46.0328C85.3699 42.0269 90.8031 39.7764 96.4684 39.7764C102.134 39.7764 107.567 42.0269 111.573 46.0328C115.579 50.0388 117.829 55.4721 117.829 61.1373" stroke="#3E3750" stroke-width="1.5" stroke-miterlimit="10" stroke-linecap="round"/>
<path d="M109.362 29.1046C109.362 31.6409 108.61 34.1202 107.201 36.2291C105.792 38.3379 103.789 39.9815 101.446 40.9521C99.1029 41.9227 96.5245 42.1767 94.037 41.6819C91.5494 41.1871 89.2645 39.9657 87.471 38.1723C85.6776 36.3789 84.4563 34.094 83.9615 31.6064C83.4667 29.1189 83.7206 26.5405 84.6912 24.1972C85.6618 21.854 87.3055 19.8513 89.4143 18.4422C91.5231 17.0331 94.0025 16.281 96.5387 16.281C99.9398 16.281 103.202 17.6321 105.606 20.037C108.011 22.4419 109.362 25.7036 109.362 29.1046Z" fill="#E3F4E9"/>
<path d="M96.4684 41.9283C103.551 41.9283 109.292 36.1869 109.292 29.1046C109.292 22.0223 103.551 16.281 96.4684 16.281C89.3861 16.281 83.6448 22.0223 83.6448 29.1046C83.6448 36.1869 89.3861 41.9283 96.4684 41.9283Z" stroke="#3E3750" stroke-width="1.5" stroke-miterlimit="10" stroke-linecap="round"/>
<path d="M96.4683 69.6922C115.348 69.6922 130.653 54.3872 130.653 35.5076C130.653 16.628 115.348 1.323 96.4683 1.323C77.5887 1.323 62.2837 16.628 62.2837 35.5076C62.2837 54.3872 77.5887 69.6922 96.4683 69.6922Z" stroke="#3E3750" stroke-width="1.5" stroke-miterlimit="10" stroke-linecap="round"/>
</svg>
