<svg viewBox="0 0 640 596" fill="none" xmlns="http://www.w3.org/2000/svg">
<path d="M400.211 436.545C374.783 413.202 341.522 400.25 307.004 400.25C272.487 400.25 239.226 413.202 213.798 436.545" stroke="#3E3750" stroke-width="1.5" stroke-miterlimit="10" stroke-linecap="round"/>
<path d="M307.106 481.557C372.881 481.557 426.202 428.236 426.202 362.46C426.202 296.685 372.881 243.364 307.106 243.364C241.331 243.364 188.009 296.685 188.009 362.46C188.009 428.236 241.331 481.557 307.106 481.557Z" fill="white" stroke="#3E3750" stroke-width="1.5" stroke-miterlimit="10" stroke-linecap="round"/>
<path d="M400.211 436.545C374.783 413.202 341.522 400.25 307.004 400.25C272.487 400.25 239.226 413.202 213.798 436.545L227.625 451.271L240.284 461.951L256.584 470.945L280.192 478.252L302.406 482.187L328.825 480.231L352.163 473.778L366.777 466.201L376.895 458.624L388.429 449.922L400.211 436.545Z" fill="#E3F4E9"/>
<path d="M307.106 481.557C372.881 481.557 426.202 428.236 426.202 362.46C426.202 296.685 372.881 243.364 307.106 243.364C241.331 243.364 188.009 296.685 188.009 362.46C188.009 428.236 241.331 481.557 307.106 481.557Z" stroke="#3E3750" stroke-width="1.5" stroke-miterlimit="10" stroke-linecap="round"/>
<path d="M371.994 362.461C371.994 375.294 368.188 387.84 361.058 398.51C353.928 409.181 343.794 417.498 331.937 422.409C320.08 427.321 307.033 428.606 294.446 426.102C281.859 423.598 270.297 417.418 261.223 408.343C252.148 399.269 245.968 387.707 243.464 375.12C240.96 362.533 242.245 349.486 247.157 337.629C252.068 325.772 260.385 315.638 271.056 308.508C281.726 301.378 294.272 297.573 307.105 297.573C315.627 297.573 324.064 299.251 331.937 302.512C339.81 305.773 346.963 310.552 352.988 316.578C359.014 322.603 363.793 329.756 367.054 337.629C370.315 345.502 371.994 353.939 371.994 362.461V362.461ZM298.786 352.23C298.786 353.574 298.522 354.904 298.008 356.145C297.494 357.387 296.74 358.514 295.79 359.464C294.84 360.414 293.712 361.168 292.471 361.682C291.23 362.196 289.9 362.461 288.556 362.461C287.213 362.461 285.883 362.196 284.641 361.682C283.4 361.168 282.273 360.414 281.323 359.464C280.373 358.514 279.619 357.387 279.105 356.145C278.591 354.904 278.326 353.574 278.326 352.23H298.786ZM335.907 352.23C335.907 354.944 334.829 357.546 332.911 359.464C330.992 361.383 328.39 362.461 325.677 362.461C322.964 362.461 320.362 361.383 318.443 359.464C316.525 357.546 315.447 354.944 315.447 352.23" fill="#E3F4E9"/>
<path d="M590.356 351.511H437.241C432.745 351.511 414.51 359.538 414.51 359.538C414.51 359.538 420.828 339.73 420.828 335.12V237.743C420.828 233.396 422.555 229.227 425.629 226.153C428.703 223.079 432.872 221.353 437.219 221.353H590.333C594.68 221.353 598.849 223.079 601.923 226.153C604.997 229.227 606.724 233.396 606.724 237.743V335.008C606.724 339.355 604.997 343.524 601.923 346.598C598.849 349.672 594.68 351.399 590.333 351.399" fill="#5BBD81"/>
<path d="M590.356 351.511H437.241C432.745 351.511 414.51 359.538 414.51 359.538C414.51 359.538 420.828 339.73 420.828 335.12V237.743C420.828 233.396 422.555 229.227 425.629 226.153C428.703 223.079 432.872 221.353 437.219 221.353H590.333C594.68 221.353 598.849 223.079 601.923 226.153C604.997 229.227 606.724 233.396 606.724 237.743V335.008C606.739 337.168 606.326 339.31 605.511 341.31C604.695 343.31 603.492 345.129 601.971 346.663C600.45 348.196 598.641 349.414 596.647 350.246C594.654 351.078 592.516 351.508 590.356 351.511V351.511Z" stroke="#3E3750" stroke-width="1.5" stroke-miterlimit="10" stroke-linecap="round"/>
<path d="M586.017 287.792C586.017 290.353 585.257 292.857 583.834 294.987C582.411 297.117 580.388 298.777 578.022 299.757C575.655 300.737 573.052 300.993 570.539 300.494C568.027 299.994 565.72 298.761 563.908 296.949C562.097 295.138 560.864 292.831 560.364 290.319C559.864 287.806 560.121 285.202 561.101 282.836C562.081 280.47 563.741 278.447 565.871 277.024C568.001 275.601 570.504 274.841 573.066 274.841C576.501 274.841 579.795 276.206 582.223 278.634C584.652 281.063 586.017 284.357 586.017 287.792" fill="#5BBD81"/>
<path d="M577.382 290.445H456.757C456.161 290.445 455.589 290.208 455.167 289.787C454.746 289.365 454.509 288.793 454.509 288.197V287.545C454.509 286.948 454.746 286.377 455.167 285.955C455.589 285.533 456.161 285.296 456.757 285.296H577.382C577.979 285.296 578.551 285.533 578.972 285.955C579.394 286.377 579.631 286.948 579.631 287.545V288.197C579.631 288.793 579.394 289.365 578.972 289.787C578.551 290.208 577.979 290.445 577.382 290.445ZM577.382 315.402H456.757C456.161 315.402 455.589 315.165 455.167 314.744C454.746 314.322 454.509 313.75 454.509 313.154V312.524C454.509 311.928 454.746 311.356 455.167 310.934C455.589 310.513 456.161 310.276 456.757 310.276H577.382C577.979 310.276 578.551 310.513 578.972 310.934C579.394 311.356 579.631 311.928 579.631 312.524V313.176C579.631 313.773 579.394 314.344 578.972 314.766C578.551 315.188 577.979 315.425 577.382 315.425" fill="#3E3750"/>
<path d="M461.412 375.029H614.526C619.023 375.029 637.257 383.056 637.257 383.056C637.257 383.056 630.939 363.248 630.939 358.638V261.261C630.939 256.914 629.212 252.745 626.138 249.671C623.065 246.597 618.895 244.871 614.548 244.871H461.434C457.087 244.871 452.918 246.597 449.844 249.671C446.77 252.745 445.043 256.914 445.043 261.261V358.638C445.043 362.985 446.77 367.154 449.844 370.228C452.918 373.302 457.087 375.029 461.434 375.029" fill="white"/>
<path d="M461.412 375.029H614.526C619.023 375.029 637.257 383.056 637.257 383.056C637.257 383.056 630.939 363.248 630.939 358.638V261.261C630.939 256.914 629.212 252.745 626.138 249.671C623.065 246.597 618.895 244.871 614.548 244.871H461.434C457.087 244.871 452.918 246.597 449.844 249.671C446.77 252.745 445.043 256.914 445.043 261.261V358.638C445.043 362.982 446.767 367.147 449.836 370.22C452.905 373.294 457.068 375.023 461.412 375.029V375.029Z" stroke="#3E3750" stroke-width="1.5" stroke-miterlimit="10" stroke-linecap="round"/>
<path d="M465.751 311.377C465.751 313.939 466.511 316.443 467.934 318.572C469.357 320.702 471.379 322.362 473.746 323.342C476.112 324.322 478.716 324.579 481.228 324.079C483.74 323.58 486.048 322.346 487.859 320.535C489.67 318.724 490.904 316.416 491.403 313.904C491.903 311.392 491.647 308.788 490.666 306.421C489.686 304.055 488.026 302.032 485.897 300.609C483.767 299.186 481.263 298.427 478.702 298.427C475.267 298.427 471.973 299.791 469.544 302.22C467.115 304.649 465.751 307.943 465.751 311.377V311.377ZM521.736 311.377C521.736 313.939 522.495 316.443 523.918 318.572C525.341 320.702 527.364 322.362 529.73 323.342C532.097 324.322 534.701 324.579 537.213 324.079C539.725 323.58 542.032 322.346 543.844 320.535C545.655 318.724 546.888 316.416 547.388 313.904C547.888 311.392 547.631 308.788 546.651 306.421C545.671 304.055 544.011 302.032 541.881 300.609C539.751 299.186 537.248 298.427 534.686 298.427C531.251 298.427 527.957 299.791 525.529 302.22C523.1 304.649 521.736 307.943 521.736 311.377ZM577.833 311.377C577.833 313.939 578.592 316.443 580.015 318.572C581.438 320.702 583.461 322.362 585.827 323.342C588.194 324.322 590.798 324.579 593.31 324.079C595.822 323.58 598.129 322.346 599.941 320.535C601.752 318.724 602.985 316.416 603.485 313.904C603.985 311.392 603.728 308.788 602.748 306.421C601.768 304.055 600.108 302.032 597.978 300.609C595.848 299.186 593.345 298.427 590.783 298.427C587.348 298.427 584.054 299.791 581.626 302.22C579.197 304.649 577.833 307.943 577.833 311.377" fill="#5BBD81"/>
<path d="M481.715 288.107H587.658C588.105 288.107 588.534 287.929 588.85 287.613C589.167 287.297 589.344 286.868 589.344 286.421C589.344 285.973 589.167 285.545 588.85 285.228C588.534 284.912 588.105 284.734 587.658 284.734H481.715C481.267 284.734 480.838 284.912 480.522 285.228C480.206 285.545 480.028 285.973 480.028 286.421C480.028 286.868 480.206 287.297 480.522 287.613C480.838 287.929 481.267 288.107 481.715 288.107V288.107ZM481.715 313.064H587.658C588.105 313.064 588.534 312.886 588.85 312.57C589.167 312.254 589.344 311.825 589.344 311.378C589.344 310.93 589.167 310.501 588.85 310.185C588.534 309.869 588.105 309.691 587.658 309.691H481.715C481.267 309.691 480.838 309.869 480.522 310.185C480.206 310.501 480.028 310.93 480.028 311.378C480.028 311.825 480.206 312.254 480.522 312.57C480.838 312.886 481.267 313.064 481.715 313.064V313.064ZM481.715 338.043H587.658C588.105 338.043 588.534 337.866 588.85 337.549C589.167 337.233 589.344 336.804 589.344 336.357C589.344 335.91 589.167 335.481 588.85 335.165C588.534 334.848 588.105 334.671 587.658 334.671H481.715C481.267 334.671 480.838 334.848 480.522 335.165C480.206 335.481 480.028 335.91 480.028 336.357C480.028 336.804 480.206 337.233 480.522 337.549C480.838 337.866 481.267 338.043 481.715 338.043" fill="#3E3750"/>
<path d="M139.916 329.185H12.1413C11.5449 329.185 10.9731 329.421 10.5514 329.843C10.1298 330.265 9.89288 330.837 9.89288 331.433V339.662L2.3833 347.172L9.89288 354.681V362.91C9.89288 363.507 10.1298 364.078 10.5514 364.5C10.9731 364.922 11.5449 365.159 12.1413 365.159H139.916C140.513 365.159 141.085 364.922 141.506 364.5C141.928 364.078 142.165 363.507 142.165 362.91V331.433C142.165 330.837 141.928 330.265 141.506 329.843C141.085 329.421 140.513 329.185 139.916 329.185Z" fill="white"/>
<path d="M139.916 329.185H12.1413C11.5449 329.185 10.9731 329.421 10.5514 329.843C10.1298 330.265 9.89288 330.837 9.89288 331.433V339.662L2.3833 347.172L9.89288 354.681V362.91C9.89288 363.507 10.1298 364.078 10.5514 364.5C10.9731 364.922 11.5449 365.159 12.1413 365.159H139.916C140.513 365.159 141.085 364.922 141.506 364.5C141.928 364.078 142.165 363.507 142.165 362.91V331.433C142.165 330.837 141.928 330.265 141.506 329.843C141.085 329.421 140.513 329.185 139.916 329.185Z" stroke="#3E3750" stroke-width="1.5" stroke-miterlimit="10" stroke-linecap="round"/>
<path d="M113.363 344.923H48.1599C47.5636 344.923 46.9917 344.686 46.57 344.265C46.1484 343.843 45.9115 343.271 45.9115 342.675C45.9115 342.079 46.1484 341.507 46.57 341.085C46.9917 340.663 47.5636 340.427 48.1599 340.427H113.363C113.959 340.427 114.531 340.663 114.953 341.085C115.374 341.507 115.611 342.079 115.611 342.675C115.611 343.271 115.374 343.843 114.953 344.265C114.531 344.686 113.959 344.923 113.363 344.923ZM99.8725 353.917H48.1599C47.5636 353.917 46.9917 353.68 46.57 353.258C46.1484 352.837 45.9115 352.265 45.9115 351.668C45.9115 351.072 46.1484 350.5 46.57 350.079C46.9917 349.657 47.5636 349.42 48.1599 349.42H99.8725C100.469 349.42 101.041 349.657 101.462 350.079C101.884 350.5 102.121 351.072 102.121 351.668C102.121 352.265 101.884 352.837 101.462 353.258C101.041 353.68 100.469 353.917 99.8725 353.917ZM23.4277 347.172C23.4277 348.506 23.8233 349.81 24.5645 350.919C25.3057 352.028 26.3591 352.893 27.5916 353.403C28.8241 353.914 30.1803 354.047 31.4888 353.787C32.7972 353.527 33.9991 352.885 34.9424 351.941C35.8857 350.998 36.5281 349.796 36.7884 348.488C37.0486 347.179 36.9151 345.823 36.4045 344.59C35.894 343.358 35.0295 342.304 33.9203 341.563C32.811 340.822 31.5069 340.427 30.1729 340.427C28.3839 340.427 26.6683 341.137 25.4033 342.402C24.1384 343.667 23.4277 345.383 23.4277 347.172" fill="#3E3750"/>
<path d="M139.916 436.544H12.1413C11.5449 436.544 10.9731 436.781 10.5514 437.203C10.1298 437.625 9.89288 438.197 9.89288 438.793V447.022L2.3833 454.531L9.89288 462.041V470.27C9.89288 470.866 10.1298 471.438 10.5514 471.86C10.9731 472.282 11.5449 472.518 12.1413 472.518H139.916C140.513 472.518 141.085 472.282 141.506 471.86C141.928 471.438 142.165 470.866 142.165 470.27V438.793C142.165 438.197 141.928 437.625 141.506 437.203C141.085 436.781 140.513 436.544 139.916 436.544Z" fill="white"/>
<path d="M139.916 436.544H12.1413C11.5449 436.544 10.9731 436.781 10.5514 437.203C10.1298 437.625 9.89288 438.197 9.89288 438.793V447.022L2.3833 454.531L9.89288 462.041V470.27C9.89288 470.866 10.1298 471.438 10.5514 471.86C10.9731 472.282 11.5449 472.518 12.1413 472.518H139.916C140.513 472.518 141.085 472.282 141.506 471.86C141.928 471.438 142.165 470.866 142.165 470.27V438.793C142.165 438.197 141.928 437.625 141.506 437.203C141.085 436.781 140.513 436.544 139.916 436.544Z" stroke="#3E3750" stroke-width="1.5" stroke-miterlimit="10" stroke-linecap="round"/>
<path d="M111.475 450.125H46.2717C45.6754 450.125 45.1035 449.888 44.6818 449.466C44.2602 449.044 44.0233 448.473 44.0233 447.876C44.0233 447.28 44.2602 446.708 44.6818 446.286C45.1035 445.865 45.6754 445.628 46.2717 445.628H111.475C112.071 445.628 112.643 445.865 113.064 446.286C113.486 446.708 113.723 447.28 113.723 447.876C113.723 448.473 113.486 449.044 113.064 449.466C112.643 449.888 112.071 450.125 111.475 450.125ZM97.9843 459.118H46.2717C45.6754 459.118 45.1035 458.881 44.6818 458.46C44.2602 458.038 44.0233 457.466 44.0233 456.87C44.0233 456.273 44.2602 455.702 44.6818 455.28C45.1035 454.858 45.6754 454.621 46.2717 454.621H97.9843C98.5806 454.621 99.1525 454.858 99.5741 455.28C99.9958 455.702 100.233 456.273 100.233 456.87C100.233 457.466 99.9958 458.038 99.5741 458.46C99.1525 458.881 98.5806 459.118 97.9843 459.118ZM21.5396 452.643C21.5396 453.977 21.9351 455.281 22.6763 456.39C23.4175 457.499 24.4709 458.364 25.7034 458.875C26.9359 459.385 28.2922 459.519 29.6006 459.258C30.909 458.998 32.1109 458.356 33.0542 457.412C33.9975 456.469 34.6399 455.267 34.9002 453.959C35.1605 452.65 35.0269 451.294 34.5164 450.062C34.0058 448.829 33.1413 447.776 32.0321 447.034C30.9228 446.293 29.6187 445.898 28.2847 445.898C26.4958 445.898 24.7801 446.608 23.5152 447.873C22.2502 449.138 21.5396 450.854 21.5396 452.643" fill="#3E3750"/>
<path d="M29.2288 418.85H157.004C157.6 418.85 158.172 418.613 158.594 418.191C159.016 417.77 159.252 417.198 159.252 416.601V408.372L166.762 400.863L159.252 393.353V385.124C159.252 384.528 159.016 383.956 158.594 383.534C158.172 383.113 157.6 382.876 157.004 382.876H29.2288C28.6325 382.876 28.0607 383.113 27.639 383.534C27.2174 383.956 26.9805 384.528 26.9805 385.124V416.601C26.9805 417.198 27.2174 417.77 27.639 418.191C28.0607 418.613 28.6325 418.85 29.2288 418.85Z" fill="#8AD0A5"/>
<path d="M29.2288 418.85H157.004C157.6 418.85 158.172 418.613 158.594 418.191C159.016 417.77 159.252 417.198 159.252 416.601V408.372L166.762 400.863L159.252 393.353V385.124C159.252 384.528 159.016 383.956 158.594 383.534C158.172 383.113 157.6 382.876 157.004 382.876H29.2288C28.6325 382.876 28.0607 383.113 27.639 383.534C27.2174 383.956 26.9805 384.528 26.9805 385.124V416.601C26.9805 417.198 27.2174 417.77 27.639 418.191C28.0607 418.613 28.6325 418.85 29.2288 418.85Z" stroke="#3E3750" stroke-width="1.5" stroke-miterlimit="10" stroke-linecap="round"/>
<path d="M55.7821 403.111H120.985C121.581 403.111 122.153 403.348 122.575 403.77C122.996 404.191 123.233 404.763 123.233 405.36C123.233 405.956 122.996 406.528 122.575 406.949C122.153 407.371 121.581 407.608 120.985 407.608H55.7821C55.1858 407.608 54.6139 407.371 54.1922 406.949C53.7706 406.528 53.5337 405.956 53.5337 405.36C53.5337 404.763 53.7706 404.191 54.1922 403.77C54.6139 403.348 55.1858 403.111 55.7821 403.111V403.111ZM69.2723 394.118H120.985C121.581 394.118 122.153 394.355 122.575 394.776C122.996 395.198 123.233 395.77 123.233 396.366C123.233 396.962 122.996 397.534 122.575 397.956C122.153 398.378 121.581 398.614 120.985 398.614H69.2723C68.676 398.614 68.1041 398.378 67.6825 397.956C67.2608 397.534 67.0239 396.962 67.0239 396.366C67.0239 395.77 67.2608 395.198 67.6825 394.776C68.1041 394.355 68.676 394.118 69.2723 394.118V394.118ZM145.717 400.863C145.717 399.529 145.321 398.225 144.58 397.115C143.839 396.006 142.786 395.142 141.553 394.631C140.321 394.121 138.964 393.987 137.656 394.247C136.348 394.508 135.146 395.15 134.202 396.093C133.259 397.037 132.617 398.238 132.356 399.547C132.096 400.855 132.23 402.212 132.74 403.444C133.251 404.677 134.115 405.73 135.225 406.471C136.334 407.212 137.638 407.608 138.972 407.608C140.761 407.608 142.477 406.897 143.741 405.632C145.006 404.367 145.717 402.652 145.717 400.863" fill="#3E3750"/>
<path d="M498.802 456.128L488.234 452.485L484.592 463.053L472.226 437.669L486.436 430.744L498.802 456.128V456.128Z" fill="#E3F4E9"/>
<path d="M498.802 456.128L488.234 452.485L484.592 463.053L472.226 437.669L486.436 430.744L498.802 456.128V456.128Z" stroke="#3E3750" stroke-width="1.5" stroke-miterlimit="10" stroke-linecap="round"/>
<path d="M452.125 456.128L462.693 452.485L466.335 463.053L478.701 437.669L464.492 430.744L452.125 456.128V456.128Z" fill="#E3F4E9"/>
<path d="M452.125 456.128L462.693 452.485L466.335 463.053L478.701 437.669L464.492 430.744L452.125 456.128V456.128Z" stroke="#3E3750" stroke-width="1.5" stroke-miterlimit="10" stroke-linecap="round"/>
<path d="M493.811 419.412C493.811 423.041 492.735 426.588 490.719 429.605C488.703 432.622 485.837 434.973 482.485 436.362C479.132 437.751 475.444 438.114 471.885 437.406C468.326 436.698 465.057 434.951 462.491 432.385C459.925 429.819 458.178 426.55 457.47 422.991C456.762 419.432 457.125 415.743 458.514 412.391C459.902 409.038 462.254 406.173 465.271 404.157C468.288 402.141 471.835 401.065 475.464 401.065C480.33 401.065 484.996 402.998 488.437 406.439C491.878 409.879 493.811 414.546 493.811 419.412Z" fill="#E3F4E9"/>
<path d="M475.464 437.759C485.597 437.759 493.811 429.545 493.811 419.412C493.811 409.279 485.597 401.065 475.464 401.065C465.331 401.065 457.117 409.279 457.117 419.412C457.117 429.545 465.331 437.759 475.464 437.759Z" stroke="#3E3750" stroke-width="1.5" stroke-miterlimit="10" stroke-linecap="round"/>
<path d="M487.111 419.412C487.111 421.715 486.427 423.967 485.148 425.882C483.868 427.798 482.049 429.291 479.921 430.172C477.793 431.054 475.451 431.284 473.192 430.835C470.933 430.385 468.857 429.276 467.229 427.647C465.6 426.019 464.491 423.943 464.041 421.684C463.592 419.425 463.822 417.083 464.704 414.955C465.585 412.827 467.078 411.008 468.993 409.728C470.909 408.448 473.16 407.765 475.464 407.765C478.553 407.765 481.515 408.992 483.699 411.177C485.884 413.361 487.111 416.323 487.111 419.412" fill="#5BBD81"/>
<path d="M29.8359 172.81H223.196V296.493H29.8359V172.81Z" fill="white"/>
<path d="M29.8359 172.81H223.196V296.493H29.8359V172.81Z" stroke="#3E3750" stroke-width="1.5" stroke-miterlimit="10" stroke-linecap="round"/>
<path d="M29.8359 139.579H223.196V172.81H29.8359V139.579Z" fill="#8AD0A5"/>
<path d="M29.8359 139.579H223.196V172.81H29.8359V139.579Z" stroke="#3E3750" stroke-width="1.5" stroke-miterlimit="10" stroke-linecap="round"/>
<path d="M223.196 172.81H234.618V296.493H223.196V172.81Z" fill="#5BBD81"/>
<path d="M223.196 172.81H234.618V296.493H223.196V172.81Z" stroke="#3E3750" stroke-width="1.5" stroke-miterlimit="10" stroke-linecap="round"/>
<path d="M223.196 139.579H234.618V172.81H223.196V139.579Z" fill="#5BBD81"/>
<path d="M70.262 188.953V206.513H52.6797M223.196 139.579H234.618V172.81H223.196V139.579Z" stroke="#3E3750" stroke-width="1.5" stroke-miterlimit="10" stroke-linecap="round"/>
<path d="M154.644 280.35V262.768H182.771V280.35M52.6797 206.513H70.262V234.64H52.6797V206.513ZM52.6797 234.64H70.262V262.768H52.6797V234.64ZM52.6797 262.768H70.262V280.35L52.6797 262.768ZM70.262 280.35V262.768H98.3892V280.35H70.262ZM98.3892 280.35V262.768H126.516V280.35H98.3892ZM126.516 280.35V262.768H154.644V280.35H126.516Z" stroke="#3E3750" stroke-width="1.5" stroke-miterlimit="10" stroke-linecap="round"/>
<path d="M182.771 280.35V262.768H200.353" fill="#E3F4E9"/>
<path d="M182.77 188.953V206.513H154.643V188.953M182.77 280.35V262.768H200.353L182.77 280.35ZM98.3889 188.953V206.513H70.2617V188.953H98.3889ZM126.516 188.953V206.513H98.3889V188.953H126.516ZM154.643 188.953V206.513H126.516V188.953H154.643Z" stroke="#3E3750" stroke-width="1.5" stroke-miterlimit="10" stroke-linecap="round"/>
<path d="M200.353 206.513H182.77V188.953L200.353 206.513ZM70.2617 206.513H98.3889V234.64H70.2617V206.513ZM98.3889 206.513H126.516V234.64H98.3889V206.513ZM126.516 206.513H154.643V234.64H126.516V206.513ZM154.643 206.513H182.77V234.64H154.643V206.513Z" stroke="#3E3750" stroke-width="1.5" stroke-miterlimit="10" stroke-linecap="round"/>
<path d="M200.353 234.64H182.77V206.513H200.353V234.64ZM70.2617 234.64H98.3889V262.768H70.2617V234.64ZM98.3889 234.64H126.516V262.768H98.3889V234.64ZM126.516 234.64H154.643V262.768H126.516V234.64ZM154.643 234.64H182.77V262.768H154.643V234.64Z" stroke="#3E3750" stroke-width="1.5" stroke-miterlimit="10" stroke-linecap="round"/>
<path d="M200.353 262.768H182.771V234.64H200.353" stroke="#3E3750" stroke-width="1.5" stroke-miterlimit="10" stroke-linecap="round"/>
<path d="M461.884 121.727L429.844 118.804L414.106 117.365C406.711 103.181 398.137 89.6429 388.474 76.8944C358.998 37.8851 317.021 15.1765 287.163 6.18302H287.028C285.439 5.70337 283.88 5.26119 282.351 4.85648H282.081C280.53 4.45177 279.023 4.06955 277.584 3.75478C273.669 2.86272 269.694 2.25409 265.691 1.93359H258.833L257.282 2.15843L256.315 2.24837C255.82 2.36079 255.393 2.49569 254.988 2.65307L254.404 2.85543C253.872 3.06663 253.367 3.33822 252.897 3.66484C252.441 4.00475 252.026 4.39716 251.661 4.834C251.526 4.9689 251.413 5.17125 251.301 5.32864C251.018 5.69599 250.755 6.07881 250.514 6.47531C250.379 6.70015 250.244 6.94747 250.132 7.17231C250.019 7.39715 249.66 8.04918 249.457 8.54382L249.098 9.37572C248.873 9.91533 248.67 10.4999 248.468 11.107L248.176 11.9838C247.951 12.7033 247.749 13.4678 247.546 14.2322L247.366 14.9292C246.499 18.755 245.92 22.6407 245.635 26.5533C245.523 28.0148 245.433 29.5212 245.365 31.0501V36.2213C246.091 77.8722 259.834 118.252 284.667 151.698C294.286 164.546 304.957 176.572 316.571 187.649L306.723 233.471L348.521 269.445L360.415 257.372L339.28 230.706L348.498 213.82L342.9 209.099L343.912 209.796L346.362 211.437L349.128 213.258L351.511 214.742L354.366 216.451L356.615 217.755L359.605 219.396L361.674 220.498L364.956 222.117L366.665 222.926C368.314 223.691 369.955 224.44 371.589 225.175C379.228 214.482 388.624 205.161 399.379 197.61C410.032 189.782 421.917 183.786 434.544 179.87C434.274 176.97 433.824 173.957 433.262 170.877C433.262 170.427 433.105 170 433.037 169.55C432.475 166.582 431.8 163.569 431.014 160.556L430.609 158.983C429.777 155.835 428.833 152.642 427.753 149.382L427.394 148.37V148.078L430.406 155.093L449.608 151.406L469.461 178.993L484.795 171.461L461.884 121.727Z" fill="white"/>
<path d="M316.571 187.627L348.498 213.821L343.484 222.814C332.767 217.084 322.645 210.306 313.266 202.579L316.571 187.627Z" fill="#8AD0A5"/>
<path d="M316.571 187.627L306.723 233.471L348.498 269.4L360.392 257.304L339.257 230.638L348.543 213.821" stroke="#3E3750" stroke-width="1.5" stroke-miterlimit="10"/>
<path d="M414.128 117.388L430.294 154.958L440.681 152.89C438.245 141.168 434.621 129.724 429.867 118.737L414.128 117.388Z" fill="#8AD0A5"/>
<path d="M399.357 197.565C410.019 189.748 421.911 183.768 434.544 179.87C431.688 150.641 415.635 112.913 388.52 76.9843C342.338 15.7386 265.443 -5.32872 252.965 3.66478C240.487 12.6583 238.44 90.6544 284.622 151.81C311.738 187.784 343.867 213.865 371.567 225.13C379.205 214.436 388.602 205.116 399.357 197.565V197.565Z" stroke="#3E3750" stroke-width="1.5" stroke-miterlimit="10"/>
<path d="M375.614 166.132C360.568 176.885 346.553 189.01 333.749 202.354C345.267 211.596 357.99 219.229 371.567 225.04C379.205 214.346 388.601 205.026 399.357 197.475C410.025 189.691 421.917 183.741 434.544 179.87C432.857 165.423 429.148 151.285 423.527 137.87C406.721 145.798 390.682 155.259 375.614 166.132V166.132Z" stroke="#3E3750" stroke-width="1.5" stroke-miterlimit="10"/>
<path d="M414.129 117.388L461.884 121.727L484.66 171.326L469.326 178.858L449.473 151.271L430.294 154.958L414.129 117.388ZM285.544 46.901C297.82 38.0649 309.489 29.0714 320.484 20.1004C288.692 3.34999 260.07 -1.5065 252.875 3.66476C245.68 8.83602 241.993 36.9857 248.963 71.5882C261.104 63.9887 273.335 55.7596 285.544 46.901Z" stroke="#3E3750" stroke-width="1.5" stroke-miterlimit="10"/>
<path d="M349.374 84.9212C351.571 87.8211 353.162 91.133 354.052 94.66C354.943 98.187 355.116 101.857 354.56 105.452C354.004 109.047 352.731 112.494 350.817 115.587C348.903 118.68 346.386 121.357 343.416 123.458C337.37 127.801 329.872 129.621 322.508 128.534C315.144 127.448 308.491 123.539 303.957 117.635C301.761 114.735 300.17 111.423 299.279 107.896C298.389 104.369 298.216 100.699 298.772 97.1042C299.328 93.5091 300.601 90.0625 302.515 86.9693C304.429 83.876 306.946 81.1992 309.916 79.0979C315.962 74.7554 323.46 72.9351 330.824 74.0219C338.188 75.1087 344.841 79.0174 349.374 84.9212" fill="#5BBD81"/>
<path d="M400.098 209.009L434.004 253.909M408.372 170.584L443.312 216.856L408.372 170.584ZM371.566 202.871L390.43 227.85L371.566 202.871Z" stroke="#3E3750" stroke-width="1.5" stroke-miterlimit="10" stroke-linecap="round"/>
<path d="M335.008 74.9832L333.749 83.1898C333.698 83.5302 333.717 83.8773 333.803 84.2104C333.89 84.5435 334.043 84.8557 334.253 85.1285C334.462 85.4012 334.725 85.6289 335.025 85.798C335.324 85.9671 335.655 86.0742 335.997 86.1127H336.402C337.032 86.1133 337.64 85.886 338.116 85.4727C338.591 85.0594 338.901 84.4881 338.987 83.8643L340.067 76.9168C338.471 76.0781 336.8 75.393 335.075 74.8708L335.008 74.9832ZM330.511 73.9715C328.76 73.7415 326.991 73.6738 325.227 73.7691L322.844 89.148C322.794 89.4884 322.812 89.8355 322.899 90.1686C322.985 90.5016 323.138 90.8139 323.348 91.0866C323.558 91.3594 323.82 91.5871 324.12 91.7562C324.42 91.9253 324.751 92.0324 325.092 92.0709H325.497C326.127 92.0715 326.736 91.8441 327.211 91.4309C327.686 91.0176 327.996 90.4463 328.083 89.8225L330.511 73.9715Z" fill="#3E3750"/>
<path d="M239.137 511.663C239.137 520.283 236.581 528.709 231.791 535.876C227.001 543.042 220.193 548.627 212.228 551.924C204.264 555.22 195.5 556.081 187.046 554.396C178.593 552.711 170.829 548.556 164.737 542.458C158.645 536.36 154.498 528.591 152.822 520.136C151.146 511.681 152.015 502.918 155.32 494.957C158.625 486.996 164.217 480.193 171.388 475.411C178.56 470.628 186.989 468.08 195.609 468.089C207.165 468.089 218.248 472.68 226.42 480.852C234.591 489.023 239.182 500.106 239.182 511.663" fill="white"/>
<path d="M222.792 544.354C222.792 537.133 219.923 530.208 214.817 525.101C209.711 519.995 202.785 517.126 195.564 517.126C188.342 517.126 181.417 519.995 176.311 525.101C171.205 530.208 168.336 537.133 168.336 544.354L179.758 552.448L193.81 555.079L202.624 554.697L210.111 552.831L220.97 547.03L222.792 544.354Z" fill="#E3F4E9"/>
<path d="M168.336 544.354C168.336 537.133 171.205 530.207 176.311 525.101C181.417 519.995 188.342 517.126 195.564 517.126C202.785 517.126 209.711 519.995 214.817 525.101C219.923 530.207 222.792 537.133 222.792 544.354" stroke="#3E3750" stroke-width="1.5" stroke-miterlimit="10" stroke-linecap="round"/>
<path d="M211.909 503.501C211.909 506.736 210.949 509.898 209.151 512.587C207.353 515.276 204.798 517.371 201.808 518.607C198.819 519.843 195.53 520.164 192.358 519.529C189.186 518.895 186.274 517.334 183.989 515.043C181.705 512.753 180.152 509.836 179.526 506.662C178.901 503.489 179.231 500.201 180.475 497.215C181.719 494.229 183.821 491.679 186.515 489.888C189.209 488.098 192.374 487.146 195.608 487.155C199.944 487.155 204.101 488.877 207.167 491.943C210.232 495.008 211.954 499.166 211.954 503.501" fill="#E3F4E9"/>
<path d="M195.563 519.847C204.591 519.847 211.909 512.529 211.909 503.501C211.909 494.474 204.591 487.156 195.563 487.156C186.536 487.156 179.218 494.474 179.218 503.501C179.218 512.529 186.536 519.847 195.563 519.847Z" stroke="#3E3750" stroke-width="1.5" stroke-miterlimit="10" stroke-linecap="round"/>
<path d="M350.747 549.795C350.747 558.413 348.191 566.838 343.403 574.003C338.615 581.169 331.81 586.754 323.848 590.052C315.886 593.35 307.125 594.213 298.672 592.531C290.22 590.85 282.456 586.7 276.362 580.606C270.268 574.512 266.118 566.748 264.437 558.296C262.756 549.844 263.618 541.082 266.916 533.12C270.214 525.158 275.799 518.353 282.965 513.565C290.131 508.777 298.555 506.222 307.173 506.222C318.73 506.222 329.813 510.812 337.984 518.984C346.156 527.156 350.747 538.239 350.747 549.795Z" fill="white"/>
<path d="M334.334 582.464C334.334 575.243 331.465 568.317 326.359 563.211C321.253 558.105 314.327 555.236 307.106 555.236C299.884 555.236 292.959 558.105 287.853 563.211C282.747 568.317 279.878 575.243 279.878 582.464L285.611 587.68L293.166 591.075L301.53 593.009H312.524L318.393 591.862L325.7 589.187L331.276 586.017L334.334 582.464Z" fill="#E3F4E9"/>
<path d="M279.878 582.464C279.878 575.243 282.747 568.317 287.853 563.211C292.959 558.105 299.884 555.236 307.106 555.236C314.327 555.236 321.253 558.105 326.359 563.211C331.465 568.317 334.334 575.243 334.334 582.464" stroke="#3E3750" stroke-width="1.5" stroke-miterlimit="10" stroke-linecap="round"/>
<path d="M323.451 541.634C323.451 544.866 322.493 548.027 320.696 550.715C318.9 553.403 316.348 555.498 313.361 556.735C310.374 557.972 307.087 558.296 303.917 557.665C300.746 557.034 297.833 555.478 295.547 553.192C293.261 550.906 291.705 547.993 291.074 544.822C290.443 541.652 290.767 538.365 292.004 535.378C293.241 532.392 295.336 529.839 298.024 528.043C300.712 526.246 303.873 525.288 307.105 525.288C311.441 525.288 315.598 527.01 318.664 530.075C321.729 533.141 323.451 537.298 323.451 541.634Z" fill="#E3F4E9"/>
<path d="M307.105 557.979C316.133 557.979 323.451 550.661 323.451 541.633C323.451 532.606 316.133 525.288 307.105 525.288C298.078 525.288 290.76 532.606 290.76 541.633C290.76 550.661 298.078 557.979 307.105 557.979Z" stroke="#3E3750" stroke-width="1.5" stroke-miterlimit="10" stroke-linecap="round"/>
<path d="M462.244 511.663C462.244 520.281 459.688 528.705 454.9 535.871C450.112 543.037 443.307 548.622 435.345 551.92C427.383 555.218 418.622 556.08 410.169 554.399C401.717 552.718 393.953 548.568 387.859 542.474C381.765 536.38 377.615 528.616 375.934 520.164C374.253 511.711 375.116 502.95 378.414 494.988C381.712 487.026 387.296 480.221 394.462 475.433C401.628 470.645 410.052 468.089 418.67 468.089C430.227 468.089 441.31 472.68 449.481 480.852C457.653 489.023 462.244 500.106 462.244 511.663Z" fill="white"/>
<path d="M445.898 544.354C445.898 540.779 445.194 537.238 443.825 533.935C442.457 530.631 440.452 527.63 437.923 525.101C435.395 522.573 432.393 520.567 429.09 519.199C425.786 517.831 422.246 517.126 418.67 517.126C415.095 517.126 411.554 517.831 408.251 519.199C404.947 520.567 401.946 522.573 399.417 525.101C396.889 527.63 394.883 530.631 393.515 533.935C392.147 537.238 391.442 540.779 391.442 544.354L398.615 550.402L410.036 554.337L418.67 555.259L433.262 553.595L438.321 550.785L445.898 544.354Z" fill="#E3F4E9"/>
<path d="M391.442 544.354C391.442 540.779 392.147 537.238 393.515 533.935C394.883 530.631 396.889 527.63 399.417 525.101C401.946 522.573 404.947 520.567 408.251 519.199C411.554 517.831 415.095 517.126 418.67 517.126C422.246 517.126 425.786 517.831 429.09 519.199C432.393 520.567 435.395 522.573 437.923 525.101C440.452 527.63 442.457 530.631 443.825 533.935C445.194 537.238 445.898 540.779 445.898 544.354" stroke="#3E3750" stroke-width="1.5" stroke-miterlimit="10" stroke-linecap="round"/>
<path d="M434.993 503.501C434.993 506.734 434.034 509.894 432.238 512.582C430.442 515.27 427.889 517.365 424.903 518.603C421.916 519.84 418.629 520.163 415.459 519.533C412.288 518.902 409.375 517.345 407.089 515.059C404.803 512.773 403.247 509.861 402.616 506.69C401.985 503.519 402.309 500.233 403.546 497.246C404.783 494.259 406.878 491.706 409.566 489.91C412.254 488.114 415.415 487.156 418.647 487.156C422.983 487.156 427.14 488.878 430.206 491.943C433.271 495.008 434.993 499.166 434.993 503.501" fill="#E3F4E9"/>
<path d="M418.67 519.847C427.697 519.847 435.016 512.529 435.016 503.501C435.016 494.474 427.697 487.156 418.67 487.156C409.642 487.156 402.324 494.474 402.324 503.501C402.324 512.529 409.642 519.847 418.67 519.847Z" stroke="#3E3750" stroke-width="1.5" stroke-miterlimit="10" stroke-linecap="round"/>
<path d="M211.887 470.517L229.312 453.07M307.106 506.222V481.557V506.222ZM402.347 470.517L384.9 453.07L402.347 470.517Z" stroke="#3E3750" stroke-width="1.5" stroke-miterlimit="10" stroke-linecap="round"/>
<path d="M307.106 593.369C331.171 593.369 350.679 573.86 350.679 549.795C350.679 525.73 331.171 506.222 307.106 506.222C283.041 506.222 263.532 525.73 263.532 549.795C263.532 573.86 283.041 593.369 307.106 593.369Z" stroke="#3E3750" stroke-width="1.5" stroke-miterlimit="10" stroke-linecap="round"/>
<path d="M418.67 555.236C442.735 555.236 462.244 535.728 462.244 511.663C462.244 487.598 442.735 468.089 418.67 468.089C394.605 468.089 375.097 487.598 375.097 511.663C375.097 535.728 394.605 555.236 418.67 555.236Z" stroke="#3E3750" stroke-width="1.5" stroke-miterlimit="10" stroke-linecap="round"/>
<path d="M195.564 555.236C219.629 555.236 239.137 535.728 239.137 511.663C239.137 487.598 219.629 468.089 195.564 468.089C171.499 468.089 151.99 487.598 151.99 511.663C151.99 535.728 171.499 555.236 195.564 555.236Z" stroke="#3E3750" stroke-width="1.5" stroke-miterlimit="10" stroke-linecap="round"/>
<path d="M335.907 352.231C335.907 354.944 334.829 357.546 332.911 359.464C330.992 361.383 328.39 362.461 325.677 362.461C322.964 362.461 320.362 361.383 318.443 359.464C316.525 357.546 315.447 354.944 315.447 352.231M260.811 407.945C250.299 397.26 243.81 383.264 242.447 368.337C241.085 353.409 244.933 338.47 253.337 326.058C261.741 313.645 274.183 304.526 288.55 300.248C302.916 295.971 318.321 296.799 332.146 302.592C345.971 308.386 357.363 318.787 364.388 332.029C371.413 345.271 373.637 360.536 370.681 375.232C367.726 389.927 359.774 403.146 348.176 412.643C336.578 422.139 322.05 427.328 307.061 427.326C298.45 427.337 289.923 425.628 281.982 422.3C274.04 418.972 266.842 414.091 260.811 407.945V407.945ZM298.787 352.231C298.787 353.574 298.522 354.904 298.008 356.145C297.494 357.387 296.74 358.514 295.79 359.464C294.84 360.414 293.712 361.168 292.471 361.682C291.23 362.196 289.9 362.461 288.556 362.461C287.213 362.461 285.883 362.196 284.642 361.682C283.4 361.168 282.273 360.414 281.323 359.464C280.373 358.514 279.619 357.387 279.105 356.145C278.591 354.904 278.326 353.574 278.326 352.231H298.787Z" stroke="#3E3750" stroke-width="1.5" stroke-miterlimit="10" stroke-linecap="round"/>
<path d="M326.869 382.719C326.869 388.461 324.588 393.968 320.527 398.029C316.467 402.089 310.96 404.37 305.217 404.37C299.475 404.37 293.968 402.089 289.907 398.029C285.847 393.968 283.565 388.461 283.565 382.719H326.869Z" fill="#5BBD81"/>
<path d="M400.211 436.545C386.8 424.222 371.081 414.678 353.962 408.462M260.542 408.327C243.276 414.538 227.423 424.131 213.911 436.545L260.542 408.327Z" stroke="#3E3750" stroke-width="1.5" stroke-miterlimit="10" stroke-linecap="round"/>
</svg>
