<svg width="596" height="355" viewBox="0 0 596 355" fill="none" xmlns="http://www.w3.org/2000/svg">
  <path fill-rule="evenodd" clip-rule="evenodd" d="M505.898 48.0767C505.898 22.9373 526.816 2.14305 552.105 2.14305C562.59 2.14305 572.415 5.64351 580.471 11.9097L587.256 0.183594H498.68L444.842 111.885C441.689 137.679 423.265 154.601 390.108 161.936L392.696 166.584L361.002 226.09C366.553 227.439 372.49 228.521 378.829 229.328H379.141C401.603 232.712 418.129 239.701 429.079 250.177L442.872 219.832L461.039 259.143C491.882 251.686 512.926 239.887 525.182 222.951L493.048 163L534.783 90.8702C517.66 83.9389 505.898 66.9595 505.898 48.0767ZM571.832 26.8407L543.417 75.9495C531.529 72.2765 523.07 61.2548 523.07 48.3871C523.07 32.5586 536.182 19.5233 552.105 19.5233C559.371 19.5233 566.366 22.2128 571.832 26.8407ZM540.309 251.172C536.596 254.886 532.515 258.365 528.065 261.606C513.888 272.12 495.819 280.215 473.507 286.124L505.336 355H595.96L540.309 251.172ZM322.943 41.3361V9.90211C327.503 7.21603 331.651 3.93968 335.278 0.183594H389.083C388.501 3.12495 388.195 6.16687 388.195 9.28137C388.195 27.4306 398.996 43.2639 414.319 50.7121L424.723 72.9213V103.942C424.723 126.175 411.264 137.938 379.814 143.453L322.943 41.3361ZM252.983 0.183594C256.652 3.97901 260.862 7.2572 265.496 9.90211V138.702C252.696 132.495 237.397 128.15 219.289 125.978C217.292 125.684 215.378 125.363 213.543 125.018C213.593 124.194 213.644 123.372 213.696 122.552C214.72 106.168 215.915 89.1009 217.28 71.3516L207.894 123.818C176.148 116.257 171.833 100.274 171.833 86.5616V74.852L175.82 50.3824C194.136 44.3809 207.737 27.057 207.737 6.48813C207.737 4.35188 207.586 2.247 207.294 0.183594H252.983ZM179.431 28.2215L184 0.183594H189.302C189.721 2.11979 189.941 4.12529 189.941 6.17776C189.941 14.9744 185.795 22.9083 179.431 28.2215ZM164.051 122.612L151.783 197.897C152.633 198.031 153.488 198.163 154.349 198.292C168.164 199.985 181.147 202.277 193.342 205.159L204.352 143.617C186.356 139.513 172.912 132.482 164.051 122.612ZM212.601 145.239C212.307 154.085 212.16 163.077 212.16 172.216C212.16 185.186 212.331 195.426 212.672 202.936L212.875 210.485C232.668 216.652 250.131 224.604 265.496 234.294V161.98C253.32 153.6 237.397 148.944 216.479 145.841C215.167 145.653 213.874 145.453 212.601 145.239ZM213.696 240.962C234.221 248.31 251.454 257.866 265.808 269.676V355H216.768L213.696 240.962ZM188.289 233.403C176.623 230.559 164.078 228.272 150.603 226.535H150.291C149.251 226.381 148.219 226.224 147.194 226.064L146.624 229.56L145.991 225.874C127.855 222.977 111.951 219.031 98.1316 213.926L113.856 294.584H177.344L188.289 233.403ZM91.3966 179.379C104.373 186.601 120.782 192.063 140.852 195.975L107.2 0.183594H20.6721L20.322 6.40421C25.8384 4.06287 31.8863 2.76378 38.2072 2.76378C63.4962 2.76378 84.4143 23.5581 84.4143 48.6974C84.4143 60.9278 79.7397 71.9411 72.0517 80.1518L91.3966 179.379ZM71.229 81.0082C74.0699 112.851 75.6336 142.022 75.9199 168.523C60.2617 154.568 52.8811 136.005 52.8811 112.011V92.4585C59.9161 90.0879 66.177 86.1328 71.229 81.0082ZM16.8384 68.3053L19.2374 25.6778C24.2537 21.6239 30.6521 19.213 37.5828 19.213C53.5055 19.213 66.6183 32.2482 66.6183 48.0767C66.6183 63.9052 53.1933 76.9404 37.5828 76.9404C29.4919 76.9404 22.1265 73.6548 16.8384 68.3053ZM15.6757 88.9657C18.1597 90.3598 20.7876 91.5333 23.5333 92.4585V112.011C23.5333 148.013 36.9584 176.256 63.8084 195.809C67.4356 198.527 71.3221 201.077 75.4751 203.463L75.4561 204.472L72.8961 355H0.704102L15.6757 88.9657ZM407.13 298.465C371.695 306.442 344.039 319.404 322.943 337.955V355H381.432L407.13 298.465ZM322.318 298.721V301.643C347.295 285.194 378.829 273.71 416.294 266.882C409.113 257.882 395.688 252.606 375.706 249.502C366.843 248.353 358.667 246.731 351.113 244.658L322.318 298.721Z" fill="#15A04B"/>
</svg>
