<svg width="150" height="150" viewBox="0 0 500 500" fill="none" xmlns="http://www.w3.org/2000/svg">
<path d="M220.833 484.667L15.3333 279.167C-0.666748 263.167 -0.666748 236.833 15.3333 220.833L220.833 15.3333C236.833 -0.666748 263.167 -0.666748 279.167 15.3333L484.667 220.833C500.667 236.833 500.667 263.167 484.667 279.167L279.167 484.667C275.167 488.667 270.5 491.667 265.667 493.667C265.5 493.667 234.833 493.833 234.833 493.833C229.667 491.833 224.833 488.667 220.833 484.667Z" fill="#15A04B"/>
<path d="M387.666 164.833C374.166 164.833 363 176 363 189.5C363 200.333 370.166 210 380.333 213.167V259C380.333 285 364 299.333 327.333 305.167C322.333 295.5 311.833 289.333 295.333 286.833H295.166C282.167 285.167 272.333 281.333 265.167 275.5V263.333C272.167 257.167 282 253.333 295.5 251.667H295.666C318.833 248.167 330.666 237.167 330.666 219.333V192.5C341.333 189.833 349.5 180.167 349.5 168.5C349.5 154.833 338.333 143.667 324.833 143.667C311.333 143.667 300.166 154.833 300.166 168.667C300.166 180.5 308.666 190.5 319.666 192.833V219.5C319.666 231.833 312 238.167 294 241C282.333 242.333 272.833 245.333 265.333 250V169C274.333 163.667 280.333 154 280.333 143C280.333 126.333 266.833 112.667 250 112.667C233.333 112.667 219.667 126.167 219.667 143C219.667 154.167 225.667 163.833 234.667 169V238.167C227.833 234.833 219.666 232.5 210 231.333C187.5 228 184.666 218.333 184.666 210.167V191.333C195.5 188.833 203.833 179 203.833 167.167C203.833 153.667 192.666 142.5 179.166 142.5C165.666 142.5 154.5 153.5 154.5 167C154.5 178.833 162.833 188.5 173.666 191.167V210C173.666 227.833 185.333 238.667 208.5 242C219.666 243.667 228.167 246.167 234.667 250.667V289.5C219.167 279.667 199.666 273.167 175.333 270.167C137.833 264.5 121.166 250.333 121.166 223.833V213.333C131 210 138 200.833 138 189.833C138 176.333 126.833 165.167 113.333 165.167C99.8332 165.167 88.6665 176.333 88.6665 189.833C88.6665 200.667 95.6665 210 105.5 213.333V223.833C105.5 243.167 112.666 258.333 127 268.833C137.833 277 153 282.333 173.166 285.333H173.333C200.333 288.833 220.333 296.5 234.833 308.5V493.833C244.666 497.666 255.833 497.5 265.666 493.667V410.833C272.666 404.833 282.333 401.167 295.666 399.5H295.833C319 396 330.833 385 330.833 367.167V363.166C338 360.833 343.333 354 343.333 346.167C343.333 338.333 338 331.333 330.833 329.167V320.5C349.833 317.333 364.333 312 374.833 304.167C389.166 293.667 396.333 278.5 396.333 259.167V213.167C405.333 209.667 412.166 200.5 412.166 189.667C412.166 183.167 409.666 177 405.166 172.167C400.5 167.5 394.333 164.833 387.666 164.833ZM309 168.667C309 160 316 153 324.5 153C333.166 153 340 160 340 168.667C340 177.333 333 184.167 324.5 184.167C316.166 184.167 309 177 309 168.667ZM178.833 182.5C170.333 182.5 163.333 175.5 163.333 167C163.333 158.333 170.333 151.5 178.833 151.5C187.333 151.5 194.333 158.5 194.333 167C194.333 175.5 187.166 182.5 178.833 182.5ZM113 205C104.5 205 97.4998 198.167 97.4998 189.5C97.4998 180.833 104.5 174 113 174C121.5 174 128.5 181 128.5 189.5C128.5 198 121.333 205 113 205ZM249.666 163.833C238 163.833 228.5 154.333 228.5 142.667C228.5 130.833 238 121.333 249.666 121.333C261.333 121.333 270.833 130.833 270.833 142.5C270.833 154.167 261.333 163.833 249.666 163.833ZM265 288.833C272.666 293.167 282 296.167 293.5 297.667C304.166 299.333 311.333 302.167 315.166 307C295.166 310.667 278.333 316.833 265 325.667V288.833ZM319.333 329.167C312.166 331.5 306.833 338.333 306.833 346.167C306.833 354.333 312.166 361 319.333 363.166V367.167C319.166 379.5 311.666 385.833 293.666 388.667C282.166 390 272.833 393 265.333 397.5V345.167C278.333 333.667 296 326.167 319.333 322.167V329.167ZM387.666 205.167C379 205.167 372.166 198.167 372.166 189.667C372.166 181.167 379.166 174.167 387.666 174.167C391.833 174.167 395.833 175.833 398.833 178.667C401.833 181.667 403.166 185.5 403.166 189.5C403.166 198.167 396.166 205.167 387.666 205.167Z" fill="white"/>
</svg>
