<svg width="500" height="500" viewBox="0 0 500 500" fill="none" xmlns="http://www.w3.org/2000/svg">
<path d="M364.89 37.68V129.5C364.856 130.163 364.665 130.809 364.333 131.384C364.001 131.96 363.537 132.448 362.98 132.81L310.23 163.24C310.043 163.362 309.824 163.425 309.6 163.42C309.521 163.43 309.44 163.43 309.36 163.42H309.2L309.03 163.33C308.809 163.165 308.637 162.944 308.53 162.69C308.39 162.376 308.322 162.034 308.33 161.69V70.29C308.365 69.6294 308.556 68.9863 308.886 68.4129C309.216 67.8396 309.677 67.3521 310.23 66.99L363 36.58C363.187 36.4518 363.401 36.3704 363.626 36.3425C363.85 36.3147 364.078 36.3412 364.29 36.42L364.45 36.51C364.501 36.5418 364.545 36.5825 364.58 36.63L364.63 36.7C364.659 36.7291 364.683 36.763 364.7 36.8C364.747 36.8786 364.784 36.9625 364.81 37.05C364.821 37.1029 364.821 37.1572 364.81 37.21C364.81 37.21 364.81 37.21 364.81 37.21C364.816 37.2699 364.816 37.3302 364.81 37.39C364.846 37.4841 364.872 37.5812 364.89 37.68V37.68Z" fill="#455A64"/>
<path d="M364.27 36.42C364.058 36.3412 363.83 36.3146 363.606 36.3425C363.381 36.3703 363.167 36.4518 362.98 36.58L310.23 67C309.676 67.3621 309.216 67.8496 308.886 68.4229C308.556 68.9963 308.365 69.6394 308.33 70.3V76.53L303.43 73.71V67.51C303.465 66.8507 303.656 66.209 303.986 65.6373C304.316 65.0656 304.777 64.5799 305.33 64.22L358.09 33.81C358.287 33.6657 358.521 33.579 358.765 33.5596C359.008 33.5402 359.253 33.5888 359.47 33.7C359.82 33.91 363.86 36.21 364.27 36.42Z" fill="#5BBD81"/>
<path d="M364.89 37.67C364.89 36.47 364.03 35.98 362.98 36.59L310.23 67C309.676 67.3621 309.216 67.8496 308.886 68.4229C308.556 68.9963 308.365 69.6394 308.33 70.3V76.54L364.89 43.94V37.67Z" fill="#5BBD81"/>
<g opacity="0.5">
<path opacity="0.5" d="M363 36.58L310.24 67C309.675 67.3452 309.21 67.831 308.89 68.41L304 65.61C304.316 65.0372 304.774 64.5551 305.33 64.21L358.08 33.81C358.277 33.6657 358.511 33.579 358.754 33.5596C358.998 33.5402 359.242 33.5888 359.46 33.7C359.8 33.91 363.85 36.2 364.25 36.42C364.044 36.3463 363.823 36.3224 363.606 36.3502C363.389 36.378 363.181 36.4568 363 36.58Z" fill="white"/>
</g>
<path opacity="0.15" d="M303.43 73.71V67.51C303.457 66.8374 303.657 66.1831 304.01 65.61L308.9 68.4C308.546 68.9682 308.349 69.6206 308.33 70.29V76.53L303.43 73.71Z" fill="black"/>
<path d="M354.07 44.37C353.729 44.6427 353.455 44.9901 353.269 45.3854C353.084 45.7807 352.992 46.2134 353 46.65C353 47.56 353.49 48.03 354.08 47.65C354.425 47.3799 354.702 47.0333 354.889 46.6375C355.077 46.2418 355.169 45.8078 355.16 45.37C355.15 44.49 354.67 44 354.07 44.37Z" fill="#455A64"/>
<path d="M358 42.12C357.657 42.3916 357.382 42.7386 357.194 43.134C357.007 43.5294 356.913 43.9626 356.92 44.4C356.92 45.32 357.4 45.78 358 45.4C358.323 45.1246 358.581 44.7806 358.754 44.3931C358.927 44.0056 359.011 43.5843 359 43.16C359 42.24 358.54 41.78 358 42.12Z" fill="#455A64"/>
<path d="M361.83 39.88C361.486 40.1506 361.209 40.4974 361.022 40.893C360.835 41.2886 360.741 41.7223 360.75 42.16C360.75 43.08 361.23 43.54 361.83 43.16C362.17 42.8864 362.443 42.5388 362.629 42.1437C362.814 41.7486 362.907 41.3164 362.9 40.88C362.9 40 362.42 39.54 361.83 39.88Z" fill="#455A64"/>
<path d="M309 163.25L308.76 163.11L304.2 160.49C303.953 160.329 303.752 160.104 303.62 159.84C303.474 159.527 303.399 159.185 303.4 158.84V73.7L308.3 76.52V161.65C308.292 161.994 308.36 162.336 308.5 162.65C308.618 162.886 308.789 163.092 309 163.25V163.25Z" fill="#37474F"/>
<path d="M313.1 81.62C313.1 81.4932 313.135 81.3688 313.2 81.26L314.58 78.39L314.65 78.3C314.665 78.286 314.685 78.2781 314.705 78.2781C314.726 78.2781 314.745 78.286 314.76 78.3C314.769 78.3222 314.774 78.346 314.774 78.37C314.774 78.3941 314.769 78.4179 314.76 78.44V79.44C314.772 79.5397 314.772 79.6404 314.76 79.74C314.735 79.8296 314.701 79.9167 314.66 80L314 81.47L314.73 82.14C314.778 82.179 314.812 82.2312 314.83 82.29C314.844 82.3761 314.844 82.464 314.83 82.55V83.55C314.844 83.616 314.844 83.6841 314.83 83.75C314.807 83.8034 314.769 83.8487 314.72 83.88V83.88C314.697 83.8877 314.673 83.8877 314.65 83.88L313.27 82.62C313.234 82.5901 313.206 82.5516 313.188 82.5079C313.171 82.4642 313.164 82.4168 313.17 82.37L313.1 81.62Z" fill="#5BBD81"/>
<path d="M318.17 74.42C318.196 74.3242 318.23 74.2306 318.27 74.14C318.319 74.0487 318.391 73.9726 318.48 73.92L319 73.62C319.016 73.6079 319.035 73.6013 319.055 73.6013C319.075 73.6013 319.094 73.6079 319.11 73.62C319.12 73.6422 319.124 73.666 319.124 73.69C319.124 73.7141 319.12 73.7379 319.11 73.76C319.114 73.7966 319.114 73.8335 319.11 73.87L316.76 84C316.739 84.0972 316.705 84.1912 316.66 84.28C316.618 84.3783 316.544 84.4594 316.45 84.51L315.95 84.8C315.936 84.8114 315.918 84.8176 315.9 84.8176C315.882 84.8176 315.864 84.8114 315.85 84.8C315.831 84.7825 315.817 84.7606 315.808 84.7362C315.799 84.7118 315.797 84.6857 315.8 84.66C315.796 84.6235 315.796 84.5865 315.8 84.55L318.17 74.42Z" fill="#5BBD81"/>
<path d="M321.85 77.28C321.846 77.4062 321.811 77.5294 321.75 77.64L320.36 80.51C320.348 80.5418 320.328 80.5695 320.3 80.59V80.59C320.285 80.6022 320.265 80.6088 320.245 80.6088C320.226 80.6088 320.206 80.6022 320.19 80.59C320.181 80.5679 320.176 80.544 320.176 80.52C320.176 80.496 320.181 80.4722 320.19 80.45V79.45C320.177 79.3504 320.177 79.2496 320.19 79.15C320.214 79.0599 320.247 78.9726 320.29 78.89L321.02 77.37L320.29 76.7C320.245 76.6593 320.211 76.6077 320.19 76.55C320.176 76.4639 320.176 76.3761 320.19 76.29V75.29C320.176 75.2275 320.176 75.1625 320.19 75.1C320.214 75.047 320.252 75.0018 320.3 74.97V74.97C320.31 74.9656 320.32 74.9633 320.33 74.9633C320.341 74.9633 320.351 74.9656 320.36 74.97L321.75 76.24C321.785 76.2715 321.812 76.3103 321.829 76.3536C321.846 76.3969 321.854 76.4435 321.85 76.49V77.28Z" fill="#5BBD81"/>
<path d="M325.7 76.62C325.718 76.6045 325.741 76.596 325.765 76.596C325.789 76.596 325.812 76.6045 325.83 76.62C325.852 76.6444 325.868 76.6729 325.879 76.7038C325.889 76.7348 325.893 76.7675 325.89 76.8V77.86C325.889 77.9436 325.869 78.0259 325.83 78.1C325.803 78.1649 325.758 78.2205 325.7 78.26L325.04 78.64C325.022 78.6555 324.999 78.664 324.975 78.664C324.951 78.664 324.928 78.6555 324.91 78.64C324.891 78.6167 324.876 78.5895 324.867 78.5603C324.859 78.531 324.856 78.5003 324.86 78.47V77.39C324.858 77.3105 324.875 77.2316 324.91 77.16C324.927 77.1004 324.958 77.0457 325 77L325.7 76.62Z" fill="#5BBD81"/>
<path d="M327.89 75.35C327.909 75.3345 327.932 75.326 327.955 75.326C327.979 75.326 328.002 75.3345 328.02 75.35C328.042 75.3743 328.059 75.4029 328.069 75.4338C328.079 75.4648 328.083 75.4975 328.08 75.53V76.6C328.08 76.6804 328.059 76.7594 328.02 76.83C327.993 76.8974 327.948 76.9562 327.89 77L327.23 77.38C327.212 77.3955 327.189 77.404 327.165 77.404C327.142 77.404 327.119 77.3955 327.1 77.38C327.079 77.3556 327.062 77.3271 327.052 77.2962C327.042 77.2652 327.038 77.2325 327.04 77.2V76.13C327.041 76.0464 327.062 75.9641 327.1 75.89C327.127 75.8251 327.172 75.7695 327.23 75.73L327.89 75.35Z" fill="#5BBD81"/>
<path d="M330.07 74.09C330.09 74.0738 330.115 74.0649 330.14 74.0649C330.166 74.0649 330.19 74.0738 330.21 74.09C330.246 74.1391 330.264 74.1993 330.26 74.26V75.32C330.258 75.4024 330.241 75.4837 330.21 75.56C330.18 75.6284 330.131 75.6872 330.07 75.73L329.42 76.1C329.4 76.1163 329.376 76.1252 329.35 76.1252C329.324 76.1252 329.3 76.1163 329.28 76.1C329.26 76.0451 329.26 75.985 329.28 75.93V74.87C329.266 74.7906 329.266 74.7094 329.28 74.63C329.311 74.5645 329.359 74.509 329.42 74.47L330.07 74.09Z" fill="#5BBD81"/>
<path d="M313.68 89.35L345.68 70.85C346.06 70.64 346.37 70.79 346.37 71.2C346.352 71.4307 346.28 71.6541 346.161 71.8521C346.041 72.0501 345.876 72.2172 345.68 72.34L313.68 90.84C313.3 91.05 313 90.9 313 90.49C313.016 90.26 313.086 90.0369 313.204 89.8389C313.322 89.6409 313.485 89.4734 313.68 89.35V89.35Z" fill="#5BBD81"/>
<path d="M324 101.22L356 82.72C356.38 82.51 356.69 82.66 356.69 83.07C356.672 83.3007 356.601 83.5241 356.481 83.7221C356.361 83.92 356.196 84.0872 356 84.21L324 102.71C323.62 102.92 323.32 102.77 323.32 102.36C323.336 102.13 323.406 101.907 323.524 101.709C323.642 101.511 323.805 101.343 324 101.22V101.22Z" fill="#F28F8F"/>
<path d="M324 113.09L339.34 104.24C339.72 104.03 340.02 104.18 340.02 104.59C340.004 104.82 339.934 105.043 339.816 105.241C339.698 105.439 339.535 105.607 339.34 105.73L324 114.58C323.62 114.79 323.32 114.64 323.32 114.23C323.336 114 323.406 113.777 323.524 113.579C323.642 113.381 323.805 113.213 324 113.09V113.09Z" fill="#F28F8F"/>
<path d="M348.38 69.32L361.14 61.92C361.52 61.71 361.83 61.86 361.83 62.27C361.813 62.5008 361.741 62.7241 361.621 62.9221C361.501 63.1201 361.337 63.2872 361.14 63.41L348.38 70.8C348 71.02 347.69 70.87 347.69 70.46C347.708 70.2293 347.78 70.006 347.9 69.808C348.02 69.61 348.184 69.4429 348.38 69.32Z" fill="#5BBD81"/>
<path d="M313.68 154.63L345.68 136.13C346.06 135.91 346.37 136.07 346.37 136.48C346.352 136.711 346.28 136.934 346.161 137.132C346.041 137.33 345.876 137.497 345.68 137.62L313.68 156.11C313.3 156.33 313 156.18 313 155.77C313.016 155.54 313.086 155.317 313.204 155.119C313.322 154.921 313.485 154.753 313.68 154.63V154.63Z" fill="#5BBD81"/>
<path d="M348.38 134.6L361.14 127.2C361.52 126.98 361.83 127.14 361.83 127.55C361.813 127.781 361.741 128.004 361.621 128.202C361.501 128.4 361.337 128.567 361.14 128.69L348.38 136.08C348 136.3 347.69 136.15 347.69 135.74C347.708 135.509 347.78 135.286 347.9 135.088C348.02 134.89 348.184 134.723 348.38 134.6V134.6Z" fill="#5BBD81"/>
<path d="M348.38 116.83L361.14 109.43C361.52 109.21 361.83 109.37 361.83 109.78C361.814 110.01 361.743 110.232 361.623 110.429C361.503 110.626 361.337 110.791 361.14 110.91L348.38 118.31C348 118.53 347.69 118.37 347.69 117.96C347.708 117.731 347.78 117.509 347.9 117.312C348.02 117.116 348.185 116.951 348.38 116.83V116.83Z" fill="#5BBD81"/>
<path d="M348.38 122.76L361.14 115.36C361.52 115.15 361.83 115.3 361.83 115.71C361.813 115.941 361.741 116.164 361.621 116.362C361.501 116.56 361.337 116.727 361.14 116.85L348.38 124.24C348 124.46 347.69 124.31 347.69 123.9C347.708 123.669 347.78 123.446 347.9 123.248C348.02 123.05 348.184 122.883 348.38 122.76Z" fill="#5BBD81"/>
<path d="M337.49 123.09L344.66 118.95C345.04 118.73 345.35 118.89 345.35 119.3C345.332 119.531 345.26 119.754 345.141 119.952C345.021 120.15 344.856 120.317 344.66 120.44L337.49 124.58C337.11 124.8 336.81 124.64 336.81 124.23C336.826 124 336.896 123.777 337.014 123.579C337.132 123.381 337.295 123.213 337.49 123.09V123.09Z" fill="#5BBD81"/>
<path d="M313.68 95.3L332.37 84.5C332.75 84.28 333.06 84.44 333.06 84.85C333.042 85.0807 332.97 85.3041 332.851 85.5021C332.731 85.7 332.566 85.8672 332.37 85.99L313.68 96.78C313.3 97 313 96.85 313 96.44C313.016 96.21 313.086 95.9869 313.204 95.7889C313.322 95.5908 313.485 95.4234 313.68 95.3V95.3Z" fill="#5BBD81"/>
<path opacity="0.6" d="M313.68 95.3L332.37 84.5C332.75 84.28 333.06 84.44 333.06 84.85C333.042 85.0807 332.97 85.3041 332.851 85.5021C332.731 85.7 332.566 85.8672 332.37 85.99L313.68 96.78C313.3 97 313 96.85 313 96.44C313.016 96.21 313.086 95.9869 313.204 95.7889C313.322 95.5908 313.485 95.4234 313.68 95.3V95.3Z" fill="white"/>
<path d="M313.68 101.22L320 97.56C320.38 97.34 320.69 97.5 320.69 97.91C320.667 98.1324 320.592 98.3463 320.472 98.5353C320.353 98.7243 320.191 98.8833 320 99L313.66 102.67C313.28 102.89 312.98 102.73 312.98 102.32C313.005 102.095 313.08 101.879 313.202 101.688C313.323 101.497 313.487 101.337 313.68 101.22V101.22Z" fill="#5BBD81"/>
<path opacity="0.6" d="M313.68 101.22L320 97.56C320.38 97.34 320.69 97.5 320.69 97.91C320.667 98.1324 320.592 98.3463 320.472 98.5353C320.353 98.7243 320.191 98.8833 320 99L313.66 102.67C313.28 102.89 312.98 102.73 312.98 102.32C313.005 102.095 313.08 101.879 313.202 101.688C313.323 101.497 313.487 101.337 313.68 101.22V101.22Z" fill="white"/>
<path d="M313.68 107.16L320.02 103.49C320.4 103.28 320.71 103.43 320.71 103.84C320.693 104.076 320.62 104.305 320.497 104.506C320.373 104.708 320.203 104.878 320 105L313.66 108.66C313.28 108.88 312.98 108.73 312.98 108.32C312.996 108.085 313.067 107.856 313.189 107.655C313.311 107.453 313.479 107.283 313.68 107.16V107.16Z" fill="#5BBD81"/>
<path opacity="0.6" d="M313.68 107.16L320.02 103.49C320.4 103.28 320.71 103.43 320.71 103.84C320.693 104.076 320.62 104.305 320.497 104.506C320.373 104.708 320.203 104.878 320 105L313.66 108.66C313.28 108.88 312.98 108.73 312.98 108.32C312.996 108.085 313.067 107.856 313.189 107.655C313.311 107.453 313.479 107.283 313.68 107.16V107.16Z" fill="white"/>
<path d="M313.68 113.09L320.02 109.43C320.4 109.21 320.71 109.37 320.71 109.78C320.692 110.009 320.62 110.231 320.5 110.428C320.381 110.624 320.216 110.789 320.02 110.91L313.68 114.58C313.3 114.8 313 114.64 313 114.23C313.016 114 313.086 113.777 313.204 113.579C313.322 113.381 313.485 113.213 313.68 113.09V113.09Z" fill="#5BBD81"/>
<path opacity="0.6" d="M313.68 113.09L320.02 109.43C320.4 109.21 320.71 109.36 320.71 109.77C320.692 110.001 320.62 110.224 320.501 110.422C320.381 110.62 320.216 110.787 320.02 110.91L313.68 114.58C313.3 114.79 313 114.64 313 114.23C313.016 114 313.086 113.777 313.204 113.579C313.322 113.381 313.485 113.213 313.68 113.09V113.09Z" fill="white"/>
<path d="M324 107.16L342.69 96.36C343.07 96.14 343.38 96.3 343.38 96.71C343.364 96.9399 343.293 97.1624 343.173 97.359C343.053 97.5557 342.887 97.7206 342.69 97.84L324 108.64C323.62 108.86 323.32 108.7 323.32 108.29C323.336 108.061 323.406 107.84 323.524 107.643C323.643 107.447 323.806 107.281 324 107.16V107.16Z" fill="#5BBD81"/>
<path d="M345.31 94.83L353.43 90.15C353.81 89.93 354.12 90.09 354.12 90.5C354.104 90.7298 354.033 90.9524 353.913 91.149C353.793 91.3457 353.627 91.5106 353.43 91.63L345.31 96.31C344.93 96.53 344.62 96.37 344.62 95.96C344.636 95.7302 344.707 95.5076 344.828 95.311C344.948 95.1144 345.113 94.9494 345.31 94.83V94.83Z" fill="#5BBD81"/>
<path opacity="0.6" d="M324 107.16L342.69 96.36C343.07 96.14 343.38 96.3 343.38 96.71C343.364 96.9399 343.293 97.1624 343.173 97.359C343.053 97.5557 342.887 97.7206 342.69 97.84L324 108.64C323.62 108.86 323.32 108.7 323.32 108.29C323.336 108.061 323.406 107.84 323.524 107.643C323.643 107.447 323.806 107.281 324 107.16V107.16Z" fill="white"/>
<path opacity="0.6" d="M345.31 94.83L353.43 90.15C353.81 89.93 354.12 90.09 354.12 90.5C354.104 90.7298 354.033 90.9524 353.913 91.149C353.793 91.3457 353.627 91.5106 353.43 91.63L345.31 96.31C344.93 96.53 344.62 96.37 344.62 95.96C344.636 95.7302 344.707 95.5076 344.828 95.311C344.948 95.1144 345.113 94.9494 345.31 94.83V94.83Z" fill="white"/>
<path d="M313.68 119L320.02 115.33C320.4 115.12 320.71 115.27 320.71 115.68C320.692 115.911 320.62 116.134 320.501 116.332C320.381 116.53 320.216 116.697 320.02 116.82L313.68 120.48C313.3 120.7 313 120.55 313 120.14C313.016 119.91 313.086 119.687 313.204 119.489C313.322 119.291 313.485 119.123 313.68 119V119Z" fill="#5BBD81"/>
<path opacity="0.6" d="M313.68 119L320.02 115.33C320.4 115.12 320.71 115.27 320.71 115.68C320.692 115.911 320.62 116.134 320.501 116.332C320.381 116.53 320.216 116.697 320.02 116.82L313.68 120.48C313.3 120.7 313 120.55 313 120.14C313.016 119.91 313.086 119.687 313.204 119.489C313.322 119.291 313.485 119.123 313.68 119V119Z" fill="white"/>
<path d="M313.68 137.15L320.02 133.48C320.4 133.26 320.71 133.42 320.71 133.83C320.695 134.068 320.622 134.298 320.499 134.502C320.375 134.706 320.204 134.877 320 135L313.66 138.66C313.28 138.88 312.98 138.72 312.98 138.31C312.994 138.074 313.065 137.845 313.187 137.643C313.309 137.441 313.478 137.272 313.68 137.15V137.15Z" fill="#5BBD81"/>
<path opacity="0.6" d="M313.68 137.15L320.02 133.48C320.4 133.26 320.71 133.42 320.71 133.83C320.695 134.068 320.622 134.298 320.499 134.502C320.375 134.706 320.204 134.877 320 135L313.66 138.66C313.28 138.88 312.98 138.72 312.98 138.31C312.994 138.074 313.065 137.845 313.187 137.643C313.309 137.441 313.478 137.272 313.68 137.15V137.15Z" fill="white"/>
<path d="M313.68 143.08L320.02 139.42C320.4 139.2 320.71 139.35 320.71 139.76C320.692 139.991 320.62 140.214 320.501 140.412C320.381 140.61 320.216 140.777 320.02 140.9L313.68 144.57C313.3 144.78 313 144.63 313 144.22C313.016 143.99 313.086 143.767 313.204 143.569C313.322 143.371 313.485 143.203 313.68 143.08V143.08Z" fill="#5BBD81"/>
<path opacity="0.6" d="M313.68 143.08L320.02 139.42C320.4 139.2 320.71 139.35 320.71 139.76C320.692 139.991 320.62 140.214 320.501 140.412C320.381 140.61 320.216 140.777 320.02 140.9L313.68 144.56C313.3 144.78 313 144.63 313 144.22C313.016 143.99 313.086 143.767 313.204 143.569C313.322 143.371 313.485 143.203 313.68 143.08V143.08Z" fill="white"/>
<path d="M313.68 149L320.02 145.33C320.4 145.11 320.71 145.27 320.71 145.68C320.692 145.911 320.62 146.134 320.501 146.332C320.381 146.53 320.216 146.697 320.02 146.82L313.68 150.48C313.3 150.7 313 150.54 313 150.13C313.016 149.901 313.086 149.68 313.204 149.483C313.322 149.287 313.485 149.121 313.68 149V149Z" fill="#5BBD81"/>
<path opacity="0.6" d="M313.68 149L320.02 145.33C320.4 145.11 320.71 145.27 320.71 145.68C320.692 145.911 320.62 146.134 320.501 146.332C320.381 146.53 320.216 146.697 320.02 146.82L313.68 150.48C313.3 150.7 313 150.54 313 150.13C313.016 149.901 313.086 149.68 313.204 149.483C313.322 149.287 313.485 149.121 313.68 149V149Z" fill="white"/>
<path d="M335 83L343.12 78.32C343.5 78.1 343.81 78.26 343.81 78.67C343.792 78.9007 343.72 79.1241 343.601 79.3221C343.481 79.52 343.316 79.6872 343.12 79.81L335 84.45C334.62 84.67 334.31 84.52 334.31 84.11C334.332 83.8845 334.406 83.6672 334.526 83.4747C334.646 83.2823 334.808 83.1199 335 83V83Z" fill="#5BBD81"/>
<path opacity="0.6" d="M335 83L343.12 78.32C343.5 78.1 343.81 78.26 343.81 78.67C343.792 78.9007 343.72 79.1241 343.601 79.3221C343.481 79.52 343.316 79.6872 343.12 79.81L335 84.45C334.62 84.67 334.31 84.52 334.31 84.11C334.332 83.8845 334.406 83.6672 334.526 83.4747C334.646 83.2823 334.808 83.1199 335 83V83Z" fill="white"/>
<path d="M331.67 114.57L350.36 103.77C350.74 103.55 351.05 103.71 351.05 104.12C351.032 104.349 350.961 104.571 350.841 104.768C350.721 104.964 350.556 105.129 350.36 105.25L331.67 116.05C331.29 116.27 330.99 116.11 330.99 115.7C331.006 115.471 331.076 115.25 331.194 115.053C331.313 114.857 331.476 114.691 331.67 114.57V114.57Z" fill="#FFA8A7"/>
<path d="M342.45 114.3L361.14 103.5C361.52 103.28 361.83 103.44 361.83 103.85C361.812 104.081 361.74 104.304 361.621 104.502C361.501 104.7 361.336 104.867 361.14 104.99L342.45 115.78C342.08 116 341.77 115.85 341.77 115.44C341.788 115.21 341.858 114.988 341.976 114.79C342.094 114.592 342.256 114.425 342.45 114.3V114.3Z" fill="#FFA8A7"/>
<path d="M353 102.24L361.12 97.56C361.5 97.34 361.81 97.5 361.81 97.91C361.792 98.1394 361.72 98.3613 361.601 98.5577C361.481 98.7541 361.316 98.9193 361.12 99.04L353 103.72C352.62 103.94 352.31 103.78 352.31 103.37C352.326 103.14 352.397 102.918 352.517 102.721C352.638 102.524 352.803 102.359 353 102.24V102.24Z" fill="#FFA8A7"/>
<path d="M353 125.74L361.12 121.07C361.5 120.85 361.81 121 361.81 121.41C361.792 121.641 361.72 121.864 361.601 122.062C361.481 122.26 361.316 122.427 361.12 122.55L353 127.23C352.62 127.44 352.31 127.29 352.31 126.88C352.328 126.649 352.4 126.426 352.52 126.228C352.639 126.03 352.804 125.863 353 125.74V125.74Z" fill="#F28F8F"/>
<path d="M324 95.29L342.69 84.49C343.07 84.27 343.38 84.43 343.38 84.84C343.362 85.0707 343.291 85.2941 343.171 85.492C343.051 85.69 342.886 85.8572 342.69 85.98L324 96.77C323.62 96.99 323.32 96.84 323.32 96.43C323.336 96.2 323.406 95.9769 323.524 95.7789C323.642 95.5808 323.805 95.4134 324 95.29V95.29Z" fill="#5BBD81"/>
<path opacity="0.6" d="M324 95.29L342.69 84.49C343.07 84.27 343.38 84.43 343.38 84.84C343.362 85.0707 343.291 85.2941 343.171 85.492C343.051 85.69 342.886 85.8572 342.69 85.98L324 96.77C323.62 96.99 323.32 96.84 323.32 96.43C323.336 96.2 323.406 95.9769 323.524 95.7789C323.642 95.5808 323.805 95.4134 324 95.29V95.29Z" fill="white"/>
<path d="M345.31 83L353.43 78.32C353.81 78.1 354.12 78.26 354.12 78.67C354.102 78.9007 354.031 79.1241 353.911 79.3221C353.791 79.52 353.626 79.6872 353.43 79.81L345.31 84.48C344.93 84.7 344.62 84.55 344.62 84.14C344.638 83.9093 344.71 83.6859 344.83 83.488C344.949 83.29 345.114 83.1229 345.31 83V83Z" fill="#5BBD81"/>
<path opacity="0.6" d="M345.31 83L353.43 78.32C353.81 78.1 354.12 78.26 354.12 78.67C354.102 78.9007 354.031 79.1241 353.911 79.3221C353.791 79.52 353.626 79.6872 353.43 79.81L345.31 84.48C344.93 84.7 344.62 84.55 344.62 84.14C344.638 83.9093 344.71 83.6859 344.83 83.488C344.949 83.29 345.114 83.1229 345.31 83V83Z" fill="white"/>
<path d="M303.46 129.1L292.74 139.83C292.547 139.996 292.395 140.206 292.298 140.442C292.201 140.678 292.161 140.934 292.181 141.188C292.202 141.443 292.282 141.689 292.416 141.906C292.549 142.124 292.733 142.307 292.95 142.44C293.3 142.66 296.95 144.7 297.74 145.24C297.934 145.371 298.156 145.457 298.388 145.492C298.619 145.527 298.856 145.509 299.08 145.44L308.29 143.08V131.93L303.46 129.1Z" fill="#37474F"/>
<path d="M308.29 131.93L297.57 142.66C297.292 142.902 297.104 143.232 297.039 143.595C296.973 143.958 297.033 144.332 297.209 144.656C297.385 144.98 297.667 145.235 298.007 145.377C298.347 145.52 298.726 145.542 299.08 145.44L308.29 143.08V131.93Z" fill="#455A64"/>
</svg>
