<svg viewBox="0 0 46 49" fill="none" xmlns="http://www.w3.org/2000/svg">
<path d="M39.0798 0.610029L1.45978 22.28C1.18919 22.4589 0.964181 22.6985 0.802704 22.9798C0.641226 23.261 0.547763 23.5762 0.529785 23.9V44.9C0.545537 45.2228 0.639271 45.537 0.802979 45.8156C0.966686 46.0943 1.19549 46.3291 1.46979 46.5L5.17978 48.61C5.46938 48.7575 5.78977 48.8344 6.11478 48.8344C6.43978 48.8344 6.76017 48.7575 7.04977 48.61L44.6698 26.95C44.9398 26.7706 45.1644 26.5309 45.3258 26.2497C45.4872 25.9685 45.581 25.6537 45.5998 25.33V4.33003C45.584 4.00723 45.4903 3.69306 45.3266 3.41441C45.1629 3.13576 44.9341 2.90093 44.6598 2.73003L40.9998 0.600027C40.7015 0.450499 40.3722 0.373474 40.0386 0.375212C39.7049 0.376949 39.3764 0.457402 39.0798 0.610029V0.610029Z" fill="#5BBD81"/>
<path opacity="0.15" d="M6.82977 48.7C6.56355 48.8003 6.2794 48.8441 5.99533 48.8286C5.71126 48.8131 5.43351 48.7387 5.17978 48.61L1.46979 46.5C1.19549 46.3291 0.966686 46.0943 0.802979 45.8156C0.639271 45.537 0.545537 45.2228 0.529785 44.9V23.9C0.53878 23.5473 0.638677 23.2028 0.819794 22.9L6.3898 26.11C6.22654 26.3903 6.13385 26.706 6.11978 27.03V48.03C6.11978 48.57 6.42977 48.82 6.82977 48.7Z" fill="black"/>
<g opacity="0.5">
<path opacity="0.5" d="M45.5898 4.15003C45.5098 3.68003 45.1298 3.52003 44.6598 3.78003L7.0498 25.45C6.77452 25.6242 6.54757 25.865 6.38983 26.15L0.819824 22.95C0.97392 22.6768 1.19392 22.4465 1.45981 22.28L39.0798 0.610031C39.3701 0.464822 39.6902 0.389221 40.0148 0.389221C40.3394 0.389221 40.6595 0.464822 40.9498 0.610031L44.6598 2.72003C44.9063 2.88006 45.1164 3.09003 45.2766 3.33635C45.4367 3.58267 45.5435 3.85988 45.5898 4.15003V4.15003Z" fill="white"/>
</g>
<path d="M44.6696 3.78002L7.04962 25.45C6.77903 25.6288 6.55403 25.8685 6.39255 26.1497C6.23107 26.431 6.13761 26.7462 6.11963 27.07V48.07C6.11963 48.66 6.53962 48.9 7.04962 48.6L44.6696 26.94C44.9397 26.7606 45.1643 26.5209 45.3257 26.2397C45.4871 25.9585 45.5809 25.6437 45.5996 25.32V4.32002C45.5996 3.73002 45.1796 3.49002 44.6696 3.78002Z" fill="#5BBD81"/>
</svg>
