<svg viewBox="0 0 46 49" fill="none" xmlns="http://www.w3.org/2000/svg">
<path d="M38.55 0.238554L0.929993 21.9086C0.660166 22.0858 0.435558 22.3237 0.274078 22.6033C0.112599 22.8828 0.0187305 23.1963 0 23.5186V44.5186C0.0141596 44.8431 0.107155 45.1593 0.270935 45.4398C0.434716 45.7203 0.664355 45.9567 0.940002 46.1286L4.64999 48.2386C4.94029 48.3838 5.26041 48.4594 5.58499 48.4594C5.90958 48.4594 6.2297 48.3838 6.51999 48.2386L44.14 26.5686C44.4106 26.3897 44.6356 26.1501 44.7971 25.8688C44.9586 25.5875 45.052 25.2724 45.07 24.9486V3.98855C45.0558 3.66403 44.9629 3.34784 44.7991 3.06732C44.6353 2.7868 44.4057 2.5504 44.13 2.37855L40.47 0.228559C40.1725 0.0766566 39.8429 -0.00171157 39.5088 2.83513e-05C39.1747 0.00176827 38.8459 0.0835601 38.55 0.238554V0.238554Z" fill="#5BBD81"/>
<path opacity="0.15" d="M6.29999 48.3286C6.03377 48.4289 5.74961 48.4727 5.46555 48.4572C5.18148 48.4417 4.90372 48.3672 4.64999 48.2386L0.940002 46.1286C0.665706 45.9577 0.4369 45.7228 0.273193 45.4442C0.109486 45.1655 0.0157516 44.8514 0 44.5286V23.5286C0.00899457 23.1758 0.108892 22.8314 0.290009 22.5286L5.86002 25.7386C5.69675 26.0188 5.60407 26.3345 5.59 26.6586V47.6586C5.59 48.1986 5.89999 48.4486 6.29999 48.3286Z" fill="black"/>
<g opacity="0.5">
<path opacity="0.5" d="M45.06 3.77856C44.98 3.30856 44.6 3.13857 44.13 3.40857L6.52002 25.0786C6.24244 25.25 6.01485 25.4914 5.86005 25.7786L0.290039 22.5686C0.444439 22.2982 0.664554 22.0712 0.930023 21.9086L38.55 0.238571C38.8403 0.0933623 39.1605 0.0177612 39.485 0.0177612C39.8096 0.0177612 40.1298 0.0933623 40.42 0.238571L44.13 2.34857C44.3773 2.50765 44.588 2.71736 44.7484 2.96385C44.9087 3.21034 45.0149 3.48801 45.06 3.77856V3.77856Z" fill="white"/>
</g>
<path d="M44.1399 3.40857L6.51984 25.0786C6.25001 25.2558 6.0254 25.4937 5.86392 25.7733C5.70244 26.0528 5.60857 26.3663 5.58984 26.6886V47.6886C5.58984 48.2886 6.00984 48.5286 6.51984 48.2286L44.1399 26.5586C44.4104 26.3798 44.6355 26.1401 44.7969 25.8588C44.9584 25.5776 45.0519 25.2624 45.0699 24.9386V3.98857C45.0699 3.34857 44.6499 3.10857 44.1399 3.40857Z" fill="#5BBD81"/>
<path d="M22.2619 29.8704C22.2619 29.7004 22.2619 29.4804 22.2619 29.1904L22.2619 27.4304C22.2619 27.1404 22.2619 22.1604 22.2619 21.7604C22.2619 21.3603 24.4819 19.8603 24.4819 20.3503C24.4819 20.8403 24.4819 26.3503 24.4819 26.9603C24.4819 27.5703 24.4819 28.1003 24.4819 28.6403C24.4469 30.0694 24.1059 31.4743 23.4819 32.7604C23.1746 33.3956 22.7845 33.9874 22.3219 34.5203C21.8796 35.0326 21.356 35.4684 20.7719 35.8103C20.3281 36.0887 19.824 36.2568 19.3019 36.3004C18.8881 36.3284 18.4757 36.2271 18.1219 36.0104C17.7566 35.7721 17.4792 35.4209 17.3319 35.0104C17.1187 34.5046 17.0164 33.959 17.0319 33.4103C17.0309 33.2966 17.0548 33.1839 17.1019 33.0804C17.1437 32.9882 17.2093 32.9088 17.2919 32.8503L18.8619 31.9404C19.0019 31.8704 19.0919 31.8504 19.1419 31.9404C19.2107 32.0386 19.2552 32.1516 19.2719 32.2703C19.3066 32.4108 19.3534 32.548 19.4119 32.6803C19.4699 32.8074 19.5594 32.9176 19.6719 33.0003C19.8016 33.0779 19.951 33.1161 20.1019 33.1104C20.3422 33.0894 20.573 33.0067 20.7719 32.8704C21.0332 32.7217 21.2666 32.5288 21.4619 32.3004C21.6422 32.0734 21.7933 31.8248 21.9119 31.5603C22.0376 31.2966 22.1284 31.0176 22.1819 30.7304C22.2227 30.4452 22.2493 30.1582 22.2619 29.8704Z" fill="#FAFAFA"/>
<path d="M29.64 17.4756C30.071 17.212 30.5569 17.0512 31.06 17.0056C31.4454 16.9767 31.831 17.06 32.17 17.2456C32.4798 17.4255 32.7328 17.6888 32.9 18.0056C33.0745 18.3395 33.1703 18.709 33.18 19.0856C33.1773 19.2001 33.15 19.3126 33.1 19.4156C33.0616 19.5042 32.9993 19.5804 32.92 19.6356L31.35 20.5456C31.2703 20.5993 31.1761 20.6272 31.08 20.6256C31.0018 20.6132 30.9289 20.5785 30.87 20.5256L30.76 20.4056C30.6916 20.3466 30.6139 20.2993 30.53 20.2656C30.4116 20.2379 30.2884 20.2379 30.17 20.2656C29.9825 20.2989 29.8028 20.3667 29.64 20.4656C29.4905 20.5564 29.3469 20.6567 29.21 20.7656C29.0737 20.8787 28.9467 21.0024 28.83 21.1356C28.7238 21.2698 28.6364 21.4179 28.57 21.5756C28.5005 21.74 28.4664 21.9172 28.47 22.0956C28.4595 22.2345 28.4985 22.3727 28.58 22.4856C28.6893 22.5751 28.8293 22.6182 28.97 22.6056C29.2097 22.5989 29.4478 22.5654 29.68 22.5056L30.79 22.2156C31.1627 22.1038 31.5511 22.0531 31.94 22.0656C32.2405 22.0733 32.5296 22.1826 32.76 22.3756C33.0038 22.5962 33.1747 22.8856 33.25 23.2056C33.3744 23.6649 33.4317 24.1399 33.42 24.6156C33.4174 25.2394 33.3231 25.8593 33.14 26.4556C32.9569 27.0608 32.6946 27.6391 32.36 28.1756C32.0302 28.7137 31.6374 29.2105 31.19 29.6556C30.7437 30.0944 30.2429 30.4742 29.7 30.7856C29.2489 31.0708 28.7399 31.2519 28.21 31.3156C27.8143 31.3617 27.4139 31.2886 27.06 31.1056C26.7286 30.9272 26.4598 30.6515 26.29 30.3156C26.1003 29.9368 26.0011 29.5192 26 29.0956C26.0027 28.9812 26.03 28.8686 26.08 28.7656C26.1153 28.6751 26.1783 28.5981 26.26 28.5456L27.83 27.6356C27.9115 27.5844 28.0041 27.5535 28.1 27.5456C28.1694 27.5605 28.2345 27.5913 28.29 27.6356L28.43 27.7856C28.5037 27.8676 28.5918 27.9354 28.69 27.9856C28.8186 28.0429 28.9596 28.067 29.1 28.0556C29.3128 28.0236 29.517 27.9488 29.7 27.8356C30.0956 27.6131 30.4562 27.3334 30.77 27.0056C31.0324 26.738 31.1826 26.3803 31.19 26.0056C31.1994 25.9347 31.1906 25.8626 31.1643 25.7961C31.1381 25.7296 31.0953 25.6709 31.04 25.6256C30.8924 25.5606 30.7301 25.5364 30.57 25.5556C30.2992 25.5855 30.0315 25.639 29.77 25.7156L28.62 26.0056C28.3206 26.1293 27.9922 26.1649 27.6733 26.1082C27.3545 26.0515 27.0584 25.9049 26.82 25.6856C26.363 25.0446 26.1567 24.2584 26.24 23.4756C26.2441 22.9172 26.3249 22.362 26.48 21.8256C26.6406 21.2443 26.8688 20.6838 27.16 20.1556C27.4533 19.6133 27.8127 19.1095 28.23 18.6556C28.6381 18.1937 29.1135 17.7959 29.64 17.4756Z" fill="#FAFAFA"/>
</svg>
