<svg width="500" height="500" viewBox="0 0 500 500" fill="none" xmlns="http://www.w3.org/2000/svg">
<path d="M434.08 141.25L396.46 162.92C396.19 163.097 395.965 163.335 395.804 163.615C395.642 163.894 395.549 164.208 395.53 164.53V185.53C395.544 185.855 395.637 186.171 395.801 186.451C395.965 186.732 396.194 186.968 396.47 187.14L400.18 189.25C400.47 189.395 400.79 189.471 401.115 189.471C401.439 189.471 401.759 189.395 402.05 189.25L439.67 167.58C439.94 167.401 440.165 167.162 440.327 166.88C440.488 166.599 440.582 166.284 440.6 165.96V145C440.586 144.676 440.493 144.359 440.329 144.079C440.165 143.798 439.935 143.562 439.66 143.39L436 141.24C435.702 141.088 435.373 141.01 435.039 141.012C434.705 141.013 434.376 141.095 434.08 141.25V141.25Z" fill="#5BBD81"/>
<path opacity="0.15" d="M401.83 189.34C401.564 189.44 401.279 189.484 400.995 189.469C400.711 189.453 400.434 189.379 400.18 189.25L396.47 187.14C396.195 186.969 395.967 186.734 395.803 186.456C395.639 186.177 395.546 185.863 395.53 185.54V164.54C395.539 164.187 395.639 163.843 395.82 163.54L401.39 166.75C401.227 167.03 401.134 167.346 401.12 167.67V188.67C401.12 189.21 401.43 189.46 401.83 189.34Z" fill="black"/>
<g opacity="0.5">
<path opacity="0.5" d="M440.59 144.79C440.51 144.32 440.13 144.15 439.66 144.42L402.05 166.09C401.772 166.261 401.545 166.503 401.39 166.79L395.82 163.58C395.974 163.31 396.194 163.083 396.46 162.92L434.08 141.25C434.37 141.105 434.69 141.029 435.015 141.029C435.339 141.029 435.66 141.105 435.95 141.25L439.66 143.36C439.907 143.519 440.118 143.729 440.278 143.975C440.438 144.222 440.545 144.499 440.59 144.79V144.79Z" fill="white"/>
</g>
<path d="M439.67 144.42L402.05 166.09C401.78 166.267 401.555 166.505 401.394 166.785C401.232 167.064 401.138 167.378 401.12 167.7V188.7C401.12 189.3 401.54 189.54 402.05 189.24L439.67 167.57C439.94 167.391 440.165 167.152 440.327 166.87C440.488 166.589 440.582 166.274 440.6 165.95V145C440.6 144.36 440.18 144.12 439.67 144.42Z" fill="#5BBD81"/>
<path d="M413.05 165C413.477 164.733 413.953 164.553 414.45 164.47C414.817 164.401 415.197 164.476 415.51 164.68C415.835 164.933 416.069 165.283 416.18 165.68C416.357 166.256 416.438 166.858 416.42 167.46C416.424 168.154 416.344 168.846 416.18 169.52C416.032 170.13 415.807 170.718 415.51 171.27C415.221 171.794 414.864 172.278 414.45 172.71C414.035 173.133 413.564 173.496 413.05 173.79L411.5 174.69V178.5C411.5 178.646 411.466 178.79 411.4 178.92C411.354 179.035 411.273 179.133 411.17 179.2L409.58 180.12C409.547 180.147 409.507 180.162 409.465 180.162C409.423 180.162 409.382 180.147 409.35 180.12C409.313 180.08 409.284 180.033 409.267 179.981C409.25 179.929 409.244 179.874 409.25 179.82V167.66C409.249 167.517 409.284 167.377 409.35 167.25C409.393 167.133 409.474 167.035 409.58 166.97L413.05 165ZM411.5 171.75L412.99 170.89C413.368 170.675 413.678 170.359 413.887 169.978C414.095 169.596 414.193 169.164 414.17 168.73C414.17 168.21 414.06 167.9 413.84 167.79C413.696 167.744 413.544 167.734 413.396 167.76C413.248 167.787 413.109 167.848 412.99 167.94L411.5 168.8V171.75Z" fill="#FAFAFA"/>
<path d="M424.45 158.39C424.481 158.361 424.522 158.345 424.565 158.345C424.607 158.345 424.648 158.361 424.68 158.39C424.748 158.474 424.781 158.582 424.77 158.69V170.77C424.769 170.912 424.738 171.051 424.68 171.18C424.63 171.292 424.55 171.389 424.45 171.46L422.85 172.38C422.817 172.407 422.777 172.422 422.735 172.422C422.693 172.422 422.652 172.407 422.62 172.38C422.555 172.294 422.523 172.188 422.53 172.08V167.5L419.83 169.05V173.63C419.83 173.776 419.796 173.92 419.73 174.05C419.684 174.165 419.603 174.263 419.5 174.33L417.91 175.25C417.877 175.277 417.837 175.292 417.795 175.292C417.753 175.292 417.712 175.277 417.68 175.25C417.643 175.208 417.616 175.158 417.598 175.105C417.581 175.052 417.575 174.996 417.58 174.94V162.85C417.583 162.708 417.618 162.568 417.68 162.44C417.726 162.326 417.806 162.228 417.91 162.16L419.5 161.24C419.531 161.211 419.572 161.195 419.615 161.195C419.657 161.195 419.698 161.211 419.73 161.24C419.766 161.278 419.794 161.324 419.811 161.374C419.828 161.424 419.835 161.477 419.83 161.53V166.04L422.53 164.48V160C422.53 159.859 422.561 159.719 422.62 159.59C422.669 159.474 422.748 159.374 422.85 159.3L424.45 158.39Z" fill="#FAFAFA"/>
<path d="M430.27 155C430.699 154.735 431.174 154.552 431.67 154.46C432.038 154.398 432.417 154.476 432.73 154.68C433.057 154.931 433.292 155.282 433.4 155.68C433.576 156.253 433.657 156.851 433.64 157.45C433.645 158.144 433.565 158.836 433.4 159.51C433.253 160.123 433.027 160.714 432.73 161.27C432.154 162.318 431.304 163.19 430.27 163.79L428.72 164.69V168.5C428.721 168.643 428.687 168.784 428.62 168.91C428.574 169.028 428.494 169.129 428.39 169.2L426.8 170.11C426.768 170.139 426.727 170.155 426.685 170.155C426.642 170.155 426.601 170.139 426.57 170.11C426.534 170.069 426.507 170.022 426.49 169.97C426.473 169.919 426.466 169.864 426.47 169.81V157.72C426.474 157.578 426.508 157.438 426.57 157.31C426.619 157.194 426.699 157.094 426.8 157.02L430.27 155ZM428.72 161.75L430.21 160.89C430.558 160.685 430.851 160.396 431.06 160.05C431.29 159.649 431.405 159.192 431.39 158.73C431.39 158.21 431.28 157.89 431.06 157.79C430.917 157.749 430.766 157.74 430.619 157.764C430.472 157.788 430.332 157.845 430.21 157.93L428.72 158.79V161.75Z" fill="#FAFAFA"/>
<path d="M434.55 182.239L396.93 203.909C396.66 204.086 396.436 204.324 396.274 204.603C396.113 204.883 396.019 205.196 396 205.519V226.519C396.014 226.843 396.107 227.159 396.271 227.44C396.435 227.72 396.664 227.957 396.94 228.129L400.65 230.239C400.94 230.384 401.26 230.459 401.585 230.459C401.91 230.459 402.23 230.384 402.52 230.239L440.14 208.569C440.411 208.39 440.636 208.15 440.797 207.869C440.959 207.588 441.052 207.272 441.07 206.949V185.989C441.056 185.664 440.963 185.348 440.799 185.067C440.635 184.787 440.406 184.55 440.13 184.379L436.47 182.229C436.172 182.077 435.843 181.998 435.509 182C435.175 182.002 434.846 182.084 434.55 182.239V182.239Z" fill="#5BBD81"/>
<path opacity="0.15" d="M402.3 230.329C402.034 230.429 401.75 230.473 401.466 230.457C401.181 230.442 400.904 230.367 400.65 230.239L396.94 228.129C396.666 227.958 396.437 227.723 396.273 227.444C396.109 227.166 396.016 226.851 396 226.529V205.529C396.009 205.176 396.109 204.831 396.29 204.529L401.86 207.739C401.697 208.019 401.604 208.335 401.59 208.659V229.659C401.59 230.199 401.9 230.449 402.3 230.329Z" fill="black"/>
<g opacity="0.5">
<path opacity="0.5" d="M441.06 185.779C440.98 185.309 440.6 185.139 440.13 185.409L402.52 207.079C402.242 207.25 402.015 207.491 401.86 207.779L396.29 204.569C396.444 204.298 396.665 204.071 396.93 203.909L434.55 182.239C434.84 182.093 435.16 182.018 435.485 182.018C435.81 182.018 436.13 182.093 436.42 182.239L440.13 184.349C440.377 184.508 440.588 184.717 440.748 184.964C440.909 185.21 441.015 185.488 441.06 185.779V185.779Z" fill="white"/>
</g>
<path d="M440.14 185.409L402.52 207.079C402.25 207.256 402.025 207.494 401.864 207.773C401.702 208.053 401.609 208.366 401.59 208.689V229.689C401.59 230.289 402.01 230.529 402.52 230.229L440.14 208.559C440.41 208.38 440.635 208.14 440.797 207.859C440.958 207.578 441.052 207.262 441.07 206.939V185.989C441.07 185.349 440.65 185.109 440.14 185.409Z" fill="#5BBD81"/>
<path d="M418.262 211.87C418.262 211.7 418.262 211.48 418.262 211.19L418.262 209.43C418.262 209.14 418.262 204.16 418.262 203.76C418.262 203.36 420.482 201.86 420.482 202.35C420.482 202.84 420.482 208.35 420.482 208.96C420.482 209.57 420.482 210.1 420.482 210.64C420.447 212.069 420.106 213.474 419.482 214.76C419.175 215.396 418.785 215.987 418.322 216.52C417.88 217.033 417.356 217.468 416.772 217.81C416.328 218.089 415.824 218.257 415.302 218.3C414.888 218.328 414.476 218.227 414.122 218.01C413.757 217.772 413.479 217.421 413.332 217.01C413.119 216.505 413.016 215.959 413.032 215.41C413.031 215.297 413.055 215.184 413.102 215.08C413.144 214.988 413.209 214.909 413.292 214.85L414.862 213.94C415.002 213.87 415.092 213.85 415.142 213.94C415.211 214.039 415.255 214.152 415.272 214.27C415.307 214.411 415.353 214.548 415.412 214.68C415.47 214.807 415.559 214.918 415.672 215C415.802 215.078 415.951 215.116 416.102 215.11C416.342 215.089 416.573 215.007 416.772 214.87C417.033 214.722 417.267 214.529 417.462 214.3C417.642 214.073 417.793 213.825 417.912 213.56C418.038 213.297 418.128 213.018 418.182 212.73C418.223 212.445 418.249 212.158 418.262 211.87Z" fill="#FAFAFA"/>
<path d="M425.64 199.476C426.071 199.212 426.557 199.051 427.06 199.006C427.445 198.977 427.831 199.06 428.17 199.246C428.48 199.425 428.733 199.689 428.9 200.006C429.075 200.34 429.17 200.709 429.18 201.086C429.177 201.2 429.15 201.313 429.1 201.416C429.062 201.504 428.999 201.58 428.92 201.636L427.35 202.546C427.27 202.599 427.176 202.627 427.08 202.626C427.002 202.613 426.929 202.579 426.87 202.526L426.76 202.406C426.692 202.347 426.614 202.299 426.53 202.266C426.412 202.238 426.288 202.238 426.17 202.266C425.982 202.299 425.803 202.367 425.64 202.466C425.491 202.556 425.347 202.657 425.21 202.766C425.074 202.879 424.947 203.002 424.83 203.136C424.724 203.27 424.636 203.418 424.57 203.576C424.501 203.74 424.466 203.917 424.47 204.096C424.459 204.235 424.498 204.373 424.58 204.486C424.689 204.575 424.829 204.618 424.97 204.606C425.21 204.599 425.448 204.565 425.68 204.506L426.79 204.216C427.163 204.104 427.551 204.053 427.94 204.066C428.241 204.073 428.53 204.183 428.76 204.376C429.004 204.596 429.175 204.886 429.25 205.206C429.374 205.665 429.432 206.14 429.42 206.616C429.417 207.239 429.323 207.859 429.14 208.456C428.957 209.061 428.695 209.639 428.36 210.176C428.03 210.714 427.637 211.211 427.19 211.656C426.744 212.094 426.243 212.474 425.7 212.786C425.249 213.071 424.74 213.252 424.21 213.316C423.814 213.362 423.414 213.289 423.06 213.106C422.729 212.927 422.46 212.651 422.29 212.316C422.1 211.937 422.001 211.519 422 211.096C422.003 210.981 422.03 210.869 422.08 210.766C422.115 210.675 422.178 210.598 422.26 210.546L423.83 209.636C423.911 209.584 424.004 209.554 424.1 209.546C424.169 209.561 424.234 209.591 424.29 209.636L424.43 209.786C424.504 209.868 424.592 209.935 424.69 209.986C424.819 210.043 424.96 210.067 425.1 210.056C425.313 210.024 425.517 209.949 425.7 209.836C426.096 209.613 426.456 209.333 426.77 209.006C427.032 208.738 427.183 208.38 427.19 208.006C427.199 207.935 427.191 207.863 427.164 207.796C427.138 207.73 427.095 207.671 427.04 207.626C426.892 207.561 426.73 207.536 426.57 207.556C426.299 207.585 426.031 207.639 425.77 207.716L424.62 208.006C424.321 208.129 423.992 208.165 423.673 208.108C423.354 208.051 423.058 207.905 422.82 207.686C422.363 207.045 422.157 206.258 422.24 205.476C422.244 204.917 422.325 204.362 422.48 203.826C422.641 203.244 422.869 202.684 423.16 202.156C423.453 201.613 423.813 201.109 424.23 200.656C424.638 200.194 425.113 199.796 425.64 199.476Z" fill="#FAFAFA"/>
<path d="M434.08 97.61L396.46 119.28C396.189 119.459 395.964 119.698 395.803 119.98C395.641 120.261 395.548 120.576 395.53 120.9V141.9C395.546 142.223 395.639 142.537 395.803 142.816C395.967 143.094 396.195 143.329 396.47 143.5L400.18 145.61C400.469 145.758 400.79 145.834 401.115 145.834C401.44 145.834 401.76 145.758 402.05 145.61L439.67 123.95C439.94 123.771 440.164 123.531 440.326 123.25C440.487 122.969 440.581 122.654 440.6 122.33V101.33C440.584 101.007 440.49 100.693 440.327 100.414C440.163 100.136 439.934 99.9009 439.66 99.73L436 97.6C435.702 97.4505 435.372 97.3735 435.039 97.3752C434.705 97.3769 434.376 97.4574 434.08 97.61V97.61Z" fill="#5BBD81"/>
<path opacity="0.15" d="M401.83 145.7C401.564 145.8 401.279 145.844 400.995 145.829C400.711 145.813 400.434 145.739 400.18 145.61L396.47 143.5C396.195 143.329 395.967 143.094 395.803 142.816C395.639 142.537 395.546 142.223 395.53 141.9V120.9C395.539 120.547 395.639 120.203 395.82 119.9L401.39 123.11C401.227 123.39 401.134 123.706 401.12 124.03V145.03C401.12 145.57 401.43 145.82 401.83 145.7Z" fill="black"/>
<g opacity="0.5">
<path opacity="0.5" d="M440.59 101.15C440.51 100.68 440.13 100.52 439.66 100.78L402.05 122.45C401.775 122.624 401.548 122.865 401.39 123.15L395.82 119.95C395.974 119.677 396.194 119.446 396.46 119.28L434.08 97.61C434.37 97.4648 434.69 97.3892 435.015 97.3892C435.339 97.3892 435.66 97.4648 435.95 97.61L439.66 99.72C439.906 99.8801 440.116 100.09 440.277 100.336C440.437 100.583 440.543 100.86 440.59 101.15V101.15Z" fill="white"/>
</g>
<path d="M439.67 100.78L402.05 122.45C401.779 122.629 401.554 122.868 401.393 123.15C401.231 123.431 401.138 123.746 401.12 124.07V145.07C401.12 145.66 401.54 145.9 402.05 145.6L439.67 123.94C439.94 123.761 440.164 123.521 440.326 123.24C440.487 122.959 440.581 122.644 440.6 122.32V101.32C440.6 100.73 440.18 100.49 439.67 100.78Z" fill="#5BBD81"/>
<path d="M410.59 122.81C410.622 122.783 410.663 122.768 410.705 122.768C410.747 122.768 410.787 122.783 410.82 122.81C410.856 122.848 410.884 122.894 410.901 122.944C410.919 122.994 410.925 123.047 410.92 123.1V135.05C410.92 135.193 410.886 135.333 410.82 135.46C410.774 135.575 410.693 135.673 410.59 135.74L409.02 136.65C408.987 136.677 408.947 136.692 408.905 136.692C408.863 136.692 408.822 136.677 408.79 136.65C408.754 136.609 408.727 136.562 408.71 136.51C408.693 136.459 408.686 136.404 408.69 136.35V131.82L406 133.36V137.89C406 138.033 405.966 138.173 405.9 138.3C405.857 138.417 405.776 138.515 405.67 138.58L404.1 139.49C404.067 139.517 404.027 139.532 403.985 139.532C403.943 139.532 403.902 139.517 403.87 139.49C403.835 139.449 403.81 139.401 403.794 139.349C403.779 139.298 403.774 139.244 403.78 139.19V127.19C403.78 127.049 403.811 126.909 403.87 126.78C403.919 126.667 403.999 126.57 404.1 126.5L405.67 125.59C405.702 125.563 405.743 125.549 405.785 125.549C405.827 125.549 405.867 125.563 405.9 125.59C405.937 125.63 405.965 125.677 405.982 125.729C406 125.781 406.006 125.836 406 125.89V130.34L408.66 128.8V124.35C408.664 124.208 408.698 124.068 408.76 123.94C408.809 123.827 408.889 123.73 408.99 123.66L410.59 122.81Z" fill="#FAFAFA"/>
<path d="M419.37 117.74C419.402 117.713 419.443 117.698 419.485 117.698C419.527 117.698 419.568 117.713 419.6 117.74C419.637 117.78 419.665 117.827 419.683 117.879C419.7 117.931 419.706 117.986 419.7 118.04V120.04C419.7 120.18 419.666 120.317 419.6 120.44C419.557 120.557 419.476 120.655 419.37 120.72L417.26 121.94V131.43C417.259 131.573 417.225 131.713 417.16 131.84C417.111 131.953 417.031 132.05 416.93 132.12L415.36 133.02C415.328 133.047 415.287 133.062 415.245 133.062C415.203 133.062 415.162 133.047 415.13 133.02C415.061 132.936 415.029 132.828 415.04 132.72V123.24L412.92 124.46C412.889 124.486 412.85 124.5 412.81 124.5C412.77 124.5 412.731 124.486 412.7 124.46C412.663 124.42 412.634 124.373 412.617 124.321C412.6 124.269 412.594 124.214 412.6 124.16V122.16C412.6 122.02 412.634 121.883 412.7 121.76C412.743 121.647 412.82 121.549 412.92 121.48L419.37 117.74Z" fill="#FAFAFA"/>
<path d="M424.89 124.24C424.827 124.177 424.774 124.107 424.73 124.03L423.6 121.63V127.75C423.6 127.89 423.565 128.027 423.5 128.15C423.457 128.263 423.38 128.361 423.28 128.43L421.7 129.34C421.668 129.367 421.627 129.382 421.585 129.382C421.543 129.382 421.502 129.367 421.47 129.34C421.403 129.255 421.371 129.148 421.38 129.04V117.04C421.382 116.902 421.413 116.766 421.47 116.64C421.516 116.526 421.597 116.428 421.7 116.36L423.1 115.55C423.26 115.457 423.38 115.457 423.46 115.55C423.517 115.611 423.568 115.678 423.61 115.75L425.56 119.75L427.5 113.51C427.5 113.43 427.58 113.3 427.66 113.12C427.732 112.948 427.858 112.803 428.02 112.71L429.41 111.91C429.442 111.883 429.483 111.869 429.525 111.869C429.567 111.869 429.608 111.883 429.64 111.91C429.677 111.95 429.705 111.997 429.723 112.049C429.74 112.101 429.746 112.156 429.74 112.21V124.2C429.74 124.343 429.706 124.484 429.64 124.61C429.597 124.727 429.516 124.825 429.41 124.89L427.84 125.8C427.808 125.827 427.767 125.842 427.725 125.842C427.683 125.842 427.642 125.827 427.61 125.8C427.543 125.719 427.511 125.615 427.52 125.51V119.39L426.39 123.09C426.39 123.21 426.29 123.34 426.23 123.49C426.167 123.623 426.066 123.734 425.94 123.81L425.17 124.25C425.05 124.3 425 124.3 424.89 124.24Z" fill="#FAFAFA"/>
<path d="M437.91 117C437.94 116.974 437.979 116.96 438.02 116.96C438.06 116.96 438.099 116.974 438.13 117C438.166 117.041 438.193 117.088 438.211 117.14C438.228 117.191 438.234 117.246 438.23 117.3V119.3C438.23 119.443 438.196 119.583 438.13 119.71C438.084 119.822 438.008 119.919 437.91 119.99L432.34 123.2C432.309 123.226 432.27 123.24 432.23 123.24C432.189 123.24 432.15 123.226 432.12 123.2C432.083 123.162 432.056 123.116 432.038 123.066C432.021 123.016 432.015 122.963 432.02 122.91V110.91C432.02 110.767 432.055 110.627 432.12 110.5C432.166 110.388 432.242 110.291 432.34 110.22L433.92 109.32C433.951 109.291 433.992 109.275 434.035 109.275C434.077 109.275 434.118 109.291 434.15 109.32C434.218 109.404 434.251 109.512 434.24 109.62V119.1L437.91 117Z" fill="#FAFAFA"/>
<path d="M434.08 54L396.46 75.65C396.189 75.8267 395.964 76.0644 395.803 76.3441C395.641 76.6238 395.548 76.9375 395.53 77.26V98.26C395.544 98.5845 395.637 98.9007 395.801 99.1812C395.965 99.4618 396.194 99.6982 396.47 99.87L400.18 101.98C400.47 102.125 400.79 102.201 401.115 102.201C401.439 102.201 401.759 102.125 402.05 101.98L439.67 80.3C439.94 80.1212 440.165 79.8816 440.327 79.6003C440.488 79.319 440.582 79.0038 440.6 78.68V57.68C440.586 57.3555 440.493 57.0393 440.329 56.7588C440.165 56.4783 439.935 56.2419 439.66 56.07L436 54C435.703 53.8466 435.374 53.7665 435.04 53.7665C434.706 53.7665 434.377 53.8466 434.08 54V54Z" fill="#5BBD81"/>
<path opacity="0.15" d="M401.83 102.07C401.564 102.17 401.279 102.214 400.995 102.199C400.711 102.183 400.434 102.109 400.18 101.98L396.47 99.87C396.195 99.6991 395.967 99.4643 395.803 99.1856C395.639 98.907 395.546 98.5928 395.53 98.27V77.27C395.539 76.9173 395.639 76.5728 395.82 76.27L401.39 79.48C401.227 79.7603 401.134 80.076 401.12 80.4V101.4C401.12 101.94 401.43 102.19 401.83 102.07Z" fill="black"/>
<g opacity="0.5">
<path opacity="0.5" d="M440.59 57.52C440.51 57.05 440.13 56.88 439.66 57.15L402.05 78.82C401.772 78.9914 401.545 79.2328 401.39 79.52L395.82 76.31C395.974 76.0397 396.194 75.8126 396.46 75.65L434.08 54C434.377 53.8466 434.706 53.7665 435.04 53.7665C435.374 53.7665 435.703 53.8466 436 54L439.71 56.11C439.946 56.2719 440.145 56.4807 440.297 56.7233C440.448 56.9659 440.548 57.2371 440.59 57.52V57.52Z" fill="white"/>
</g>
<path d="M439.67 57.15L402.05 78.82C401.78 78.9973 401.555 79.2352 401.394 79.5147C401.232 79.7943 401.138 80.1077 401.12 80.43V101.43C401.12 102.03 401.54 102.27 402.05 101.97L439.67 80.3C439.94 80.1212 440.165 79.8816 440.327 79.6003C440.488 79.319 440.582 79.0039 440.6 78.68V57.68C440.6 57.09 440.18 56.85 439.67 57.15Z" fill="#5BBD81"/>
<path d="M410.41 84.2C410.41 84.37 410.41 84.59 410.41 84.88V86.64C410.41 86.93 410.41 87.15 410.41 87.31C410.429 87.5623 410.466 87.8129 410.52 88.06C410.562 88.2572 410.655 88.4398 410.79 88.59C410.847 88.6532 410.916 88.7044 410.994 88.7404C411.071 88.7765 411.155 88.7968 411.24 88.8C411.486 88.7935 411.725 88.7172 411.93 88.58C412.179 88.4352 412.405 88.2531 412.6 88.04C412.768 87.8554 412.913 87.6505 413.03 87.43C413.14 87.2338 413.227 87.0258 413.29 86.81C413.346 86.6258 413.393 86.4389 413.43 86.25C413.454 86.0823 413.498 85.9179 413.56 85.76C413.621 85.639 413.719 85.5408 413.84 85.48L415.41 84.57C415.437 84.5481 415.47 84.5361 415.505 84.5361C415.54 84.5361 415.573 84.5481 415.6 84.57C415.654 84.6377 415.679 84.7239 415.67 84.81C415.672 85.488 415.571 86.1624 415.37 86.81C415.184 87.4728 414.919 88.1107 414.58 88.71C414.248 89.3045 413.852 89.8611 413.4 90.37C412.971 90.8426 412.476 91.2502 411.93 91.58C411.464 91.8745 410.93 92.0433 410.38 92.07C409.956 92.0783 409.544 91.9326 409.22 91.66C408.871 91.341 408.615 90.9331 408.48 90.48C408.302 89.9096 408.205 89.3173 408.19 88.72C408.19 88.23 408.19 87.72 408.19 87.11C408.19 86.5 408.19 85.97 408.19 85.43C408.225 84.001 408.566 82.5961 409.19 81.31C409.497 80.6748 409.887 80.083 410.35 79.55C410.792 79.0378 411.316 78.602 411.9 78.26C412.344 77.9816 412.848 77.8136 413.37 77.77C413.784 77.742 414.196 77.8433 414.55 78.06C414.915 78.2983 415.193 78.6495 415.34 79.06C415.553 79.5658 415.655 80.1114 415.64 80.66C415.641 80.7738 415.617 80.8864 415.57 80.99C415.528 81.0822 415.463 81.1616 415.38 81.22L413.81 82.13C413.67 82.2 413.58 82.22 413.53 82.13C413.461 82.0318 413.417 81.9187 413.4 81.8C413.365 81.6596 413.318 81.5224 413.26 81.39C413.202 81.263 413.112 81.1528 413 81.07C412.87 80.9925 412.721 80.9543 412.57 80.96C412.33 80.981 412.099 81.0636 411.9 81.2C411.639 81.3487 411.405 81.5416 411.21 81.77C411.03 81.997 410.879 82.2456 410.76 82.51C410.634 82.7738 410.543 83.0528 410.49 83.34C410.449 83.6252 410.423 83.9122 410.41 84.2V84.2Z" fill="#FAFAFA"/>
<path d="M420.63 73.19C421.061 72.9264 421.547 72.7656 422.05 72.72C422.435 72.6911 422.821 72.7745 423.16 72.96C423.47 73.1399 423.723 73.4033 423.89 73.72C424.064 74.054 424.16 74.4234 424.17 74.8C424.167 74.9145 424.14 75.027 424.09 75.13C424.051 75.2187 423.989 75.2948 423.91 75.35L422.34 76.26C422.26 76.3137 422.166 76.3416 422.07 76.34C421.992 76.3277 421.919 76.2929 421.86 76.24L421.75 76.12C421.681 76.061 421.604 76.0137 421.52 75.98C421.401 75.9523 421.278 75.9523 421.16 75.98C420.972 76.0134 420.793 76.0812 420.63 76.18C420.48 76.2709 420.337 76.3711 420.2 76.48C420.063 76.5931 419.936 76.7168 419.82 76.85C419.714 76.9842 419.626 77.1323 419.56 77.29C419.49 77.4544 419.456 77.6316 419.46 77.81C419.449 77.9489 419.488 78.0871 419.57 78.2C419.679 78.2895 419.819 78.3326 419.96 78.32C420.199 78.3133 420.438 78.2798 420.67 78.22L421.78 77.93C422.152 77.8182 422.541 77.7675 422.93 77.78C423.23 77.7877 423.519 77.897 423.75 78.09C423.994 78.3106 424.164 78.6001 424.24 78.92C424.364 79.3794 424.421 79.8543 424.41 80.33C424.407 80.9538 424.313 81.5737 424.13 82.17C423.947 82.7752 423.684 83.3535 423.35 83.89C423.02 84.4281 422.627 84.9249 422.18 85.37C421.733 85.8089 421.233 86.1886 420.69 86.5C420.239 86.7853 419.73 86.9663 419.2 87.03C418.804 87.0761 418.404 87.003 418.05 86.82C417.718 86.6416 417.45 86.3659 417.28 86.03C417.09 85.6512 416.991 85.2336 416.99 84.81C416.992 84.6956 417.02 84.583 417.07 84.48C417.105 84.3895 417.168 84.3125 417.25 84.26L418.82 83.35C418.901 83.2988 418.994 83.2679 419.09 83.26C419.159 83.275 419.224 83.3058 419.28 83.35L419.42 83.5C419.493 83.5821 419.582 83.6498 419.68 83.7C419.808 83.7574 419.949 83.7814 420.09 83.77C420.303 83.7381 420.507 83.6632 420.69 83.55C421.085 83.3275 421.446 83.0479 421.76 82.72C422.022 82.4524 422.172 82.0947 422.18 81.72C422.189 81.6492 422.18 81.5771 422.154 81.5106C422.128 81.4441 422.085 81.3854 422.03 81.34C421.882 81.275 421.72 81.2508 421.56 81.27C421.289 81.2999 421.021 81.3534 420.76 81.43L419.61 81.72C419.31 81.8437 418.982 81.8793 418.663 81.8226C418.344 81.7659 418.048 81.6193 417.81 81.4C417.353 80.759 417.146 79.9728 417.23 79.19C417.234 78.6316 417.315 78.0765 417.47 77.54C417.63 76.9587 417.859 76.3982 418.15 75.87C418.443 75.3277 418.802 74.8239 419.22 74.37C419.628 73.9082 420.103 73.5104 420.63 73.19Z" fill="#FAFAFA"/>
<path d="M429.33 68.17C429.756 67.9052 430.239 67.7442 430.74 67.7C431.125 67.6711 431.511 67.7544 431.85 67.94C432.162 68.1193 432.419 68.3825 432.59 68.7C432.761 69.0346 432.853 69.4041 432.86 69.78C432.862 69.8951 432.834 70.0087 432.78 70.11C432.744 70.1977 432.686 70.2738 432.61 70.33L431.04 71.24C430.959 71.291 430.865 71.3187 430.77 71.32C430.691 71.3077 430.618 71.2729 430.56 71.22C430.515 71.1853 430.474 71.145 430.44 71.1C430.377 71.0387 430.302 70.9911 430.22 70.96C430.101 70.9333 429.978 70.9333 429.86 70.96C429.67 70.9869 429.489 71.0552 429.33 71.16C429.177 71.2508 429.03 71.351 428.89 71.46C428.754 71.5671 428.63 71.6877 428.52 71.82C428.411 71.9544 428.32 72.1023 428.25 72.26C428.186 72.4295 428.152 72.6089 428.15 72.79C428.137 72.9307 428.18 73.0707 428.27 73.18C428.321 73.2255 428.381 73.2597 428.447 73.2804C428.512 73.3011 428.581 73.3077 428.65 73.3C428.893 73.2942 429.135 73.2572 429.37 73.19L430.47 72.91C430.842 72.7987 431.231 72.7481 431.62 72.76C431.923 72.7678 432.215 72.8769 432.45 73.07C432.69 73.2933 432.86 73.5816 432.94 73.9C433.06 74.36 433.114 74.8348 433.1 75.31C433.1 75.9333 433.009 76.5533 432.83 77.15C432.638 77.752 432.376 78.3293 432.05 78.87C431.719 79.4106 431.323 79.9078 430.87 80.35C430.429 80.7909 429.931 81.1709 429.39 81.48C428.938 81.7652 428.429 81.9463 427.9 82.01C427.501 82.0581 427.096 81.985 426.74 81.8C426.417 81.6152 426.159 81.336 426 81C425.806 80.6228 425.706 80.2042 425.71 79.78C425.712 79.6656 425.74 79.553 425.79 79.45C425.825 79.3623 425.884 79.2862 425.96 79.23L427.54 78.32C427.618 78.2706 427.707 78.2398 427.8 78.23C427.87 78.243 427.935 78.274 427.99 78.32L428.14 78.47C428.211 78.5544 428.3 78.6225 428.4 78.67C428.526 78.7225 428.663 78.7464 428.8 78.74C429.016 78.7099 429.224 78.635 429.41 78.52C429.8 78.2943 430.157 78.0149 430.47 77.69C430.738 77.4258 430.893 77.0668 430.9 76.69C430.908 76.6197 430.898 76.5484 430.87 76.4834C430.841 76.4184 430.797 76.362 430.74 76.32C430.592 76.254 430.43 76.2298 430.27 76.25C430.002 76.281 429.738 76.3345 429.48 76.41L428.33 76.7C428.028 76.8209 427.699 76.8551 427.379 76.7985C427.059 76.742 426.761 76.597 426.52 76.38C426.071 75.7353 425.869 74.9512 425.95 74.17C425.954 73.6116 426.034 73.0564 426.19 72.52C426.347 71.939 426.571 71.3785 426.86 70.85C427.16 70.3096 427.522 69.8062 427.94 69.35C428.339 68.8869 428.808 68.4888 429.33 68.17V68.17Z" fill="#FAFAFA"/>
</svg>
