<svg width="500" height="500" viewBox="0 0 500 500" fill="none" xmlns="http://www.w3.org/2000/svg">
<path d="M178.93 400C178.598 400 178.28 399.868 178.046 399.634C177.811 399.399 177.68 399.082 177.68 398.75V318.51C177.68 318.178 177.811 317.861 178.046 317.626C178.28 317.392 178.598 317.26 178.93 317.26C179.261 317.26 179.579 317.392 179.814 317.626C180.048 317.861 180.18 318.178 180.18 318.51V398.76C180.177 399.09 180.044 399.405 179.81 399.637C179.576 399.87 179.259 400 178.93 400V400Z" fill="#263238"/>
<path d="M228.58 370.8C228.33 370.801 228.085 370.726 227.878 370.585C227.67 370.444 227.511 370.243 227.42 370.01L202.81 307.72C202.719 307.419 202.744 307.095 202.882 306.812C203.019 306.529 203.257 306.309 203.55 306.194C203.843 306.079 204.168 306.079 204.46 306.193C204.753 306.307 204.992 306.527 205.13 306.81L229.74 369.09C229.815 369.279 229.843 369.484 229.82 369.687C229.798 369.889 229.727 370.083 229.612 370.252C229.498 370.42 229.344 370.558 229.164 370.654C228.984 370.749 228.784 370.8 228.58 370.8V370.8Z" fill="#263238"/>
<path d="M225.62 363.32C225.451 363.321 225.284 363.287 225.129 363.219C224.974 363.152 224.835 363.054 224.72 362.93L178.93 314.47L133.22 362.72C133.112 362.856 132.978 362.969 132.825 363.05C132.671 363.131 132.503 363.18 132.33 363.193C132.156 363.205 131.983 363.182 131.819 363.124C131.656 363.066 131.506 362.974 131.38 362.855C131.254 362.736 131.154 362.591 131.086 362.431C131.019 362.271 130.986 362.099 130.988 361.926C130.991 361.752 131.03 361.581 131.103 361.423C131.175 361.266 131.28 361.125 131.41 361.01L178 311.8C178.117 311.677 178.259 311.579 178.415 311.512C178.571 311.445 178.74 311.41 178.91 311.41V311.41C179.079 311.41 179.246 311.444 179.4 311.511C179.555 311.578 179.695 311.677 179.81 311.8L226.51 361.21C226.623 361.329 226.712 361.47 226.77 361.624C226.829 361.777 226.857 361.941 226.852 362.105C226.848 362.27 226.811 362.432 226.743 362.582C226.676 362.732 226.58 362.867 226.46 362.98C226.233 363.196 225.933 363.318 225.62 363.32V363.32Z" fill="#263238"/>
<path d="M129.28 370.8C129.122 370.8 128.966 370.769 128.82 370.71C128.667 370.65 128.527 370.561 128.409 370.447C128.291 370.333 128.197 370.197 128.131 370.046C128.066 369.896 128.032 369.733 128.03 369.569C128.028 369.405 128.059 369.242 128.12 369.09L152.72 306.81C152.841 306.501 153.079 306.253 153.383 306.119C153.687 305.986 154.031 305.979 154.34 306.1C154.649 306.221 154.897 306.459 155.031 306.763C155.164 307.067 155.171 307.411 155.05 307.72L130.44 370C130.348 370.234 130.189 370.435 129.982 370.577C129.776 370.72 129.531 370.797 129.28 370.8V370.8Z" fill="#263238"/>
<path d="M226.88 361.4L230.14 369.98C230.149 370.053 230.149 370.127 230.14 370.2V370.36C230.05 370.595 229.875 370.788 229.65 370.9C229.341 371.061 228.998 371.145 228.65 371.145C228.302 371.145 227.958 371.061 227.65 370.9C227.479 370.809 227.342 370.665 227.26 370.49V370.37L224.26 362.32L226.88 361.4Z" fill="#5BBD81"/>
<path d="M131 361.4L127.72 370C127.711 370.073 127.711 370.147 127.72 370.22C127.71 370.273 127.71 370.327 127.72 370.38C127.809 370.615 127.984 370.808 128.21 370.92C128.519 371.081 128.862 371.165 129.21 371.165C129.558 371.165 129.901 371.081 130.21 370.92C130.381 370.829 130.518 370.685 130.6 370.51V370.51V370.39L133.6 362.34L131 361.4Z" fill="#5BBD81"/>
<path d="M180.37 392.55V399.65C180.358 399.777 180.313 399.898 180.239 400.002C180.166 400.105 180.066 400.188 179.95 400.24C179.638 400.391 179.296 400.47 178.95 400.47C178.603 400.47 178.261 400.391 177.95 400.24C177.834 400.188 177.734 400.105 177.66 400.002C177.586 399.898 177.541 399.777 177.53 399.65V392.55C177.968 392.32 178.455 392.201 178.95 392.201C179.444 392.201 179.932 392.32 180.37 392.55Z" fill="#5BBD81"/>
<path d="M225.91 310.65C225.91 308.76 224.26 306.76 220.78 304.5C214.33 300.32 199.94 291.93 190.93 286.94C190.927 286.921 190.919 286.904 190.906 286.89C190.894 286.876 190.878 286.865 190.86 286.86C183.92 282.66 177.45 262.61 172.65 247.38C171.02 242.19 169.01 239.25 166.65 237.87C166.09 237.54 164.01 236.4 163.54 236.12C158.83 233.3 152.65 236.69 144.95 240.9C137.86 244.79 132.32 249.76 131.2 262.9C130.53 270.9 131.2 286.27 132.8 297.9C135.16 317.33 138.06 317.36 142.26 320.61C149.5 326.21 165.81 334.07 172.69 336.77C185.15 341.68 195.34 334.12 202.93 330.37C209.876 326.856 216.581 322.884 223 318.48C224.91 317.09 225.89 315.7 225.87 314.23C225.9 313.65 225.91 311.25 225.91 310.65Z" fill="#5BBD81"/>
<path opacity="0.25" d="M225.91 310.65C225.91 308.76 224.26 306.76 220.78 304.5C214.33 300.32 199.94 291.93 190.93 286.94C190.927 286.921 190.919 286.904 190.906 286.89C190.894 286.876 190.878 286.865 190.86 286.86C183.92 282.66 177.45 262.61 172.65 247.38C171.02 242.19 169.01 239.25 166.65 237.87C166.09 237.54 164.01 236.4 163.54 236.12C158.83 233.3 152.65 236.69 144.95 240.9C137.86 244.79 132.32 249.76 131.2 262.9C130.53 270.9 131.2 286.27 132.8 297.9C135.16 317.33 138.06 317.36 142.26 320.61C149.5 326.21 165.81 334.07 172.69 336.77C185.15 341.68 195.34 334.12 202.93 330.37C209.876 326.856 216.581 322.884 223 318.48C224.91 317.09 225.89 315.7 225.87 314.23C225.9 313.65 225.91 311.25 225.91 310.65Z" fill="black"/>
<path d="M166.36 237.71C161.7 235.26 155.63 238.59 148.13 242.71C143.33 245.35 139.23 248.47 136.74 254.31L133.58 252.48C136.07 246.66 140.15 243.54 144.94 240.91C152.64 236.7 158.82 233.31 163.54 236.13L166.36 237.71Z" fill="#5BBD81"/>
<path d="M220.78 304.5C216.6 301.79 216.5 301.1 190.73 286.81L190.85 286.86C183.92 282.63 177.45 262.61 172.65 247.38C167.78 231.92 159.65 236.38 148.13 242.71C141.04 246.59 135.5 251.56 134.38 264.71C133.26 277.86 135.7 310.59 140.2 314.55C145.11 319.97 164.81 330.06 172.68 333.16C185.14 338.06 195.33 330.5 202.92 326.75C209.869 323.236 216.578 319.264 223 314.86C227.36 311.72 227 308.51 220.78 304.5Z" fill="#5BBD81"/>
<g opacity="0.1">
<path opacity="0.1" d="M148.13 242.71C159.65 236.4 167.78 231.92 172.65 247.38C177.45 262.61 183.92 282.66 190.86 286.86C190.86 286.86 178.96 286.86 161.73 296.16C143.81 305.84 141.07 315.3 140.25 314.62C135.72 310.86 133.25 277.93 134.38 264.74C135.51 251.55 141 246.59 148.13 242.71Z" fill="black"/>
</g>
<path d="M208.31 378.49C208.31 378.49 208.56 391.59 210.42 395.66C212.414 400.285 214.963 404.65 218.01 408.66C218.75 409.61 220.46 411.4 221.07 412.17C221.215 412.323 221.325 412.506 221.391 412.707C221.457 412.907 221.477 413.119 221.452 413.329C221.426 413.538 221.354 413.739 221.241 413.917C221.129 414.096 220.978 414.247 220.8 414.36C219.11 415.81 212.26 415.82 208.58 412.76C204.9 409.7 201.97 404.76 199.81 402.38L197 399.12C196.646 398.717 196.402 398.228 196.294 397.702C196.185 397.176 196.215 396.631 196.38 396.12C196.48 395.83 196.58 395.48 196.7 395.12C197.78 391.47 195.99 380.91 195.99 380.91C199.49 376.5 204.21 377.53 208.31 378.49Z" fill="#FFA8A7"/>
<path d="M195.78 399.72C195.64 400.383 195.671 401.072 195.87 401.72C196.22 402.65 198.7 404.42 199.99 405.14C201.469 406.038 202.633 407.372 203.32 408.96C204.78 411.76 207.04 414.81 209.98 416.34C213.928 418.287 218.376 418.984 222.73 418.34C228.15 417.65 228.73 414.51 228.73 414.51C228.73 414.51 229.16 411.51 227.85 411.01C226.54 410.51 195.78 399.72 195.78 399.72Z" fill="#263238"/>
<path d="M195.23 396C195.14 397.259 195.328 398.522 195.78 399.7C197.25 401.97 200.94 402.87 202.95 405.97C204.96 409.07 207.28 413.81 214.24 415.56C221.2 417.31 226.64 415.35 228.04 413.41C229.44 411.47 228.35 409.54 223.97 406.88C219.32 404.06 213.97 396.88 213.97 396.88C212.604 394.581 211.417 392.181 210.42 389.7C210.22 389.08 209.99 388.36 209.42 388.13C209.139 388.069 208.847 388.066 208.565 388.123C208.283 388.18 208.015 388.294 207.78 388.46C206.875 389.071 205.91 389.587 204.9 390C204.041 390.12 203.169 390.12 202.31 390C202.1 389.961 201.885 389.964 201.677 390.011C201.469 390.057 201.273 390.145 201.1 390.27C200.984 390.419 200.9 390.589 200.852 390.771C200.804 390.954 200.793 391.144 200.82 391.33C200.83 391.805 200.87 392.28 200.94 392.75C201 392.976 201 393.214 200.94 393.44C200.872 393.598 200.756 393.731 200.609 393.821C200.463 393.91 200.291 393.952 200.12 393.94C199.761 393.926 199.413 393.808 199.12 393.6C198.557 393.294 198.07 392.865 197.695 392.346C197.319 391.827 197.065 391.23 196.95 390.6C196.95 390.6 196.95 389.88 196.89 389.22C196.679 389.318 196.491 389.457 196.334 389.629C196.178 389.8 196.058 390.001 195.98 390.22C195.82 390.76 195.85 391.34 195.74 391.88C195.47 393.239 195.299 394.616 195.23 396V396Z" fill="#5BBD81"/>
<path opacity="0.4" d="M195.23 396C195.14 397.259 195.328 398.522 195.78 399.7C197.25 401.97 200.94 402.87 202.95 405.97C204.96 409.07 207.28 413.81 214.24 415.56C221.2 417.31 226.64 415.35 228.04 413.41C229.44 411.47 228.35 409.54 223.97 406.88C219.32 404.06 213.97 396.88 213.97 396.88C212.604 394.581 211.417 392.181 210.42 389.7C210.22 389.08 209.99 388.36 209.42 388.13C209.139 388.069 208.847 388.066 208.565 388.123C208.283 388.18 208.015 388.294 207.78 388.46C206.875 389.071 205.91 389.587 204.9 390C204.041 390.12 203.169 390.12 202.31 390C202.1 389.961 201.885 389.964 201.677 390.011C201.469 390.057 201.273 390.145 201.1 390.27C200.984 390.419 200.9 390.589 200.852 390.771C200.804 390.954 200.793 391.144 200.82 391.33C200.83 391.805 200.87 392.28 200.94 392.75C201 392.976 201 393.214 200.94 393.44C200.872 393.598 200.756 393.731 200.609 393.821C200.463 393.91 200.291 393.952 200.12 393.94C199.761 393.926 199.413 393.808 199.12 393.6C198.557 393.294 198.07 392.865 197.695 392.346C197.319 391.827 197.065 391.23 196.95 390.6C196.95 390.6 196.95 389.88 196.89 389.22C196.679 389.318 196.491 389.457 196.334 389.629C196.178 389.8 196.058 390.001 195.98 390.22C195.82 390.76 195.85 391.34 195.74 391.88C195.47 393.239 195.299 394.616 195.23 396V396Z" fill="black"/>
<path d="M237.65 362.23C237.65 362.23 238.65 375.72 240.38 379.86C242.154 384.566 244.505 389.033 247.38 393.16C248.07 394.16 249.7 396.01 250.27 396.81C250.409 396.968 250.511 397.155 250.569 397.357C250.627 397.56 250.639 397.773 250.605 397.98C250.57 398.188 250.49 398.385 250.37 398.558C250.25 398.731 250.093 398.875 249.91 398.98C248.15 400.36 241.31 400.06 237.78 396.84C234.25 393.62 231.52 388.6 229.47 386.08L226.78 382.72C226.448 382.304 226.23 381.809 226.146 381.283C226.062 380.757 226.115 380.219 226.3 379.72C226.41 379.43 226.53 379.09 226.67 378.72C227.9 375.13 224.67 365.17 224.67 365.17C228.4 360.91 233.6 361.08 237.65 362.23Z" fill="#FFA8A7"/>
<path d="M225.56 384.12C225.42 384.784 225.451 385.472 225.65 386.12C226 387.05 228.49 388.82 229.77 389.54C231.251 390.435 232.415 391.771 233.1 393.36C234.56 396.16 236.82 399.21 239.76 400.74C243.709 402.682 248.155 403.379 252.51 402.74C257.93 402.05 258.51 398.91 258.51 398.91C258.51 398.91 258.94 395.91 257.63 395.41C256.32 394.91 225.56 384.12 225.56 384.12Z" fill="#263238"/>
<path d="M243.77 381.3C243.247 380.616 242.792 379.882 242.41 379.11C242.02 378.27 241.63 377.39 241.29 376.54C240.81 375.37 240.38 374.18 239.91 373C239.798 372.614 239.58 372.268 239.28 372C239.011 371.851 238.706 371.779 238.399 371.794C238.091 371.808 237.794 371.907 237.54 372.08C237.01 372.38 236.54 372.82 236.02 373.08C235.086 373.411 234.109 373.606 233.12 373.66C231.12 374.02 230.44 375.32 230.72 377.16C230.78 377.386 230.78 377.624 230.72 377.85C230.651 378.007 230.535 378.139 230.389 378.229C230.242 378.318 230.071 378.361 229.9 378.35C229.541 378.336 229.194 378.218 228.9 378.01C228.35 377.7 227.878 377.269 227.519 376.749C227.16 376.229 226.925 375.634 226.83 375.01C226.83 375.01 226.83 374.3 226.67 373.65C226.46 373.748 226.271 373.887 226.115 374.059C225.958 374.23 225.838 374.431 225.76 374.65C225.6 375.18 225.63 375.76 225.52 376.31C225.233 377.661 225.046 379.032 224.96 380.41C224.87 381.669 225.057 382.932 225.51 384.11C226.98 386.38 230.67 387.29 232.68 390.39C234.69 393.49 237.02 398.23 243.97 399.98C250.92 401.73 256.37 399.77 257.77 397.83C259.17 395.89 258.08 393.95 253.7 391.3C249.1 388.48 243.77 381.31 243.77 381.3Z" fill="#5BBD81"/>
<path opacity="0.4" d="M243.77 381.3C243.247 380.616 242.792 379.882 242.41 379.11C242.02 378.27 241.63 377.39 241.29 376.54C240.81 375.37 240.38 374.18 239.91 373C239.798 372.614 239.58 372.268 239.28 372C239.011 371.851 238.706 371.779 238.399 371.794C238.091 371.808 237.794 371.907 237.54 372.08C237.01 372.38 236.54 372.82 236.02 373.08C235.086 373.411 234.109 373.606 233.12 373.66C231.12 374.02 230.44 375.32 230.72 377.16C230.78 377.386 230.78 377.624 230.72 377.85C230.651 378.007 230.535 378.139 230.389 378.229C230.242 378.318 230.071 378.361 229.9 378.35C229.541 378.336 229.194 378.218 228.9 378.01C228.35 377.7 227.878 377.269 227.519 376.749C227.16 376.229 226.925 375.634 226.83 375.01C226.83 375.01 226.83 374.3 226.67 373.65C226.46 373.748 226.271 373.887 226.115 374.059C225.958 374.23 225.838 374.431 225.76 374.65C225.6 375.18 225.63 375.76 225.52 376.31C225.233 377.661 225.046 379.032 224.96 380.41C224.87 381.669 225.057 382.932 225.51 384.11C226.98 386.38 230.67 387.29 232.68 390.39C234.69 393.49 237.02 398.23 243.97 399.98C250.92 401.73 256.37 399.77 257.77 397.83C259.17 395.89 258.08 393.95 253.7 391.3C249.1 388.48 243.77 381.31 243.77 381.3Z" fill="black"/>
<path d="M148.44 286.86L163.5 287.19L197.15 284.49C197.15 284.49 228.04 301.77 232.44 311.49C234.99 317.13 237.9 359.91 238.34 366.28C236.02 368.12 227.84 369.85 225.01 369.37C223.25 364.31 222.68 362.59 220.23 355.13C218.23 349.06 216.39 345 214.96 340.8C213.327 335.879 212.319 330.772 211.96 325.6C211.96 325.6 207.74 322.36 195.69 313.6C200.2 318.53 207.36 326.5 208.24 328.47C210.74 334.12 208.82 376.99 208.82 382.61C207 385 198.18 386 196 384.43C194.66 376.93 192.88 370.8 191 363.19C187.61 349.75 189.13 343.59 189.63 339.19C189.63 339.19 181.21 333.4 169.34 325.34C163.72 321.52 158.47 318.42 155.21 314.66C149.18 307.79 148.53 295.6 148.44 286.86Z" fill="#37474F"/>
<path opacity="0.15" d="M195.73 313.59L185.82 303.59C188.152 302.412 190.179 300.709 191.741 298.615C193.303 296.52 194.357 294.091 194.82 291.52C194.82 291.52 196.97 297.69 191.33 304.18L198.24 312.61L211.98 325.61L195.73 313.59Z" fill="black"/>
<path d="M185.63 222.49C192.82 222.38 197.01 224.84 199.49 230.49C201.97 236.14 211.79 265.23 211.79 265.23C211.79 265.23 226.71 272.82 234.9 276.08L226.97 283.68C226.97 283.68 207.19 278.68 203.68 277.36C200.17 276.04 199.8 275.62 195.11 264.09C188.41 247.63 185.63 222.49 185.63 222.49Z" fill="#FFA8A7"/>
<path d="M183.3 222.49C187.52 221.91 194.3 222.25 197.61 226.64C200.92 231.03 209.37 257.37 209.37 257.37C205.551 261.561 200.232 264.077 194.57 264.37L184.71 239L183.3 222.49Z" fill="#37474F"/>
<path d="M171.17 222.79C166.85 222.97 156.56 225.02 152.71 225.86C148.03 227.46 152.43 227.21 150.16 233.68C146.77 243.35 147.82 256.68 147.82 265.81C147.82 277.94 148.1 291.98 148.1 291.98C158.35 300.64 191.75 296.63 197.34 284.49C197.34 284.49 194.49 270.2 196.46 242.49C197.34 230.09 192.92 222.43 184.33 222.43C184.33 222.47 175.5 222.6 171.17 222.79Z" fill="#5BBD81"/>
<path opacity="0.4" d="M171.17 222.79C166.85 222.97 156.56 225.02 152.71 225.86C148.03 227.46 152.43 227.21 150.16 233.68C146.77 243.35 147.82 256.68 147.82 265.81C147.82 277.94 148.1 291.98 148.1 291.98C158.35 300.64 191.75 296.63 197.34 284.49C197.34 284.49 194.49 270.2 196.46 242.49C197.34 230.09 192.92 222.43 184.33 222.43C184.33 222.47 175.5 222.6 171.17 222.79Z" fill="black"/>
<path d="M175 191.31C175.134 193.067 175.786 194.746 176.874 196.133C177.962 197.519 179.436 198.553 181.111 199.101C182.786 199.65 184.586 199.689 186.284 199.214C187.981 198.74 189.5 197.772 190.647 196.435C191.795 195.097 192.52 193.449 192.73 191.699C192.941 189.949 192.628 188.176 191.831 186.604C191.034 185.032 189.788 183.731 188.252 182.867C186.715 182.003 184.957 181.615 183.2 181.75C182.034 181.838 180.896 182.156 179.853 182.685C178.809 183.213 177.88 183.942 177.118 184.83C176.357 185.718 175.778 186.747 175.414 187.859C175.051 188.971 174.91 190.144 175 191.31Z" fill="#263238"/>
<path d="M157.62 202.2C157.62 202.2 160.49 212.28 161.46 213.9C162.078 214.899 163.061 215.616 164.2 215.9L163.5 208.7L157.62 202.2Z" fill="#263238"/>
<path d="M159.14 187.33C159.14 187.33 157.61 187.07 156.2 189.68C155 191.92 155.05 196.74 157.62 202.2L161.62 202.37L159.14 187.33Z" fill="#263238"/>
<path d="M157.84 189.51L153 190C152.937 189.688 152.94 189.366 153.008 189.055C153.077 188.744 153.209 188.45 153.397 188.194C153.585 187.937 153.825 187.722 154.101 187.563C154.377 187.404 154.683 187.304 155 187.27C155.667 187.224 156.327 187.427 156.853 187.841C157.378 188.256 157.73 188.85 157.84 189.51Z" fill="#263238"/>
<path d="M157.16 188.41L153.32 185.24C153.508 184.981 153.747 184.764 154.024 184.603C154.3 184.441 154.606 184.339 154.924 184.303C155.242 184.266 155.564 184.296 155.869 184.39C156.175 184.484 156.458 184.641 156.7 184.85C157.213 185.275 157.546 185.878 157.632 186.539C157.717 187.2 157.548 187.869 157.16 188.41V188.41Z" fill="#263238"/>
<path d="M162.78 202.28C161.687 201.766 160.662 201.118 159.73 200.35C158.67 199.35 155.53 198.59 154.21 202.2C152.89 205.81 155.88 208.98 158.21 210C160.28 210.9 162.41 208.4 162.41 208.4L163.3 224.47C171.38 235.18 186.3 232.47 179.19 223.64L178.69 218.44C180.639 218.613 182.601 218.57 184.54 218.31C187.68 217.56 188.95 215.76 189.74 212.18C190.62 207.845 190.932 203.415 190.67 199C190.568 196.314 190.26 193.639 189.75 191C187.22 179.85 173.11 178 166.01 183.45C158.91 188.9 162.78 202.28 162.78 202.28Z" fill="#FFA8A7"/>
<path d="M178.82 189.38C175.95 189.434 173.09 189.008 170.36 188.12C170.097 188.015 169.803 188.015 169.54 188.12C169.421 188.211 169.322 188.328 169.251 188.46C169.181 188.593 169.139 188.74 169.13 188.89C168.933 190.245 168.628 191.583 168.22 192.89C167.802 194.219 166.918 195.352 165.73 196.08C165.3 196.31 164.81 196.47 164.58 196.92C164.376 197.353 164.313 197.839 164.4 198.31C164.53 198.908 164.711 199.493 164.94 200.06C165.21 200.86 165.69 202.24 165.32 203.06C165.245 203.234 165.133 203.391 164.992 203.518C164.851 203.646 164.685 203.742 164.504 203.799C164.323 203.857 164.132 203.876 163.943 203.853C163.754 203.831 163.573 203.768 163.41 203.67C162.731 203.221 162.127 202.668 161.62 202.03C161.046 201.419 160.413 200.867 159.73 200.38C159.08 199.96 159.15 198.81 158.93 198.1C158.47 196.68 158.13 195.21 157.81 193.75C157.54 192.52 157.23 191.26 157.06 190.01C156.799 188.603 156.712 187.169 156.8 185.74C156.948 184.516 157.398 183.347 158.11 182.34C158.18 182.24 158.25 182.13 158.33 182.03C160.33 179.15 163.26 177.75 166.62 176.9C169.22 176.24 171.91 175.9 174.55 175.42C177.409 174.867 180.216 174.071 182.94 173.04C183.304 172.866 183.708 172.79 184.11 172.82C184.432 172.914 184.713 173.112 184.909 173.384C185.104 173.656 185.203 173.985 185.19 174.32C185.147 174.99 184.956 175.643 184.63 176.23C185.419 175.681 186.285 175.253 187.2 174.96C187.658 174.816 188.142 174.775 188.618 174.841C189.093 174.906 189.548 175.077 189.95 175.34C190.384 175.729 190.726 176.21 190.949 176.748C191.172 177.286 191.272 177.868 191.24 178.45C191.239 180.34 190.73 182.195 189.766 183.821C188.802 185.446 187.418 186.783 185.76 187.69C183.614 188.797 181.235 189.376 178.82 189.38V189.38Z" fill="#263238"/>
<path d="M178.69 218.44C178.69 218.44 171.49 217.49 168.91 216.3C167.379 215.607 166.093 214.467 165.22 213.03C165.706 214.498 166.474 215.856 167.48 217.03C169.48 219.31 178.84 220.38 178.84 220.38L178.69 218.44Z" fill="#F28F8F"/>
<path d="M176.92 199.66C176.945 199.853 176.932 200.049 176.88 200.237C176.829 200.425 176.741 200.601 176.621 200.754C176.501 200.908 176.352 201.036 176.183 201.131C176.013 201.227 175.826 201.287 175.632 201.31C175.439 201.332 175.243 201.316 175.056 201.263C174.869 201.209 174.694 201.118 174.542 200.996C174.39 200.874 174.264 200.724 174.171 200.553C174.078 200.382 174.02 200.194 174 200C173.959 199.8 173.96 199.593 174.004 199.393C174.047 199.193 174.132 199.005 174.252 198.84C174.373 198.675 174.526 198.536 174.703 198.434C174.88 198.331 175.076 198.267 175.28 198.244C175.483 198.222 175.688 198.242 175.883 198.304C176.078 198.366 176.258 198.467 176.412 198.602C176.565 198.737 176.689 198.903 176.774 199.089C176.86 199.274 176.906 199.476 176.91 199.68L176.92 199.66Z" fill="#263238"/>
<path d="M174.43 195L171.52 197.14C171.244 196.722 171.136 196.216 171.215 195.721C171.295 195.227 171.557 194.78 171.95 194.47C172.144 194.332 172.365 194.235 172.599 194.187C172.832 194.139 173.073 194.14 173.307 194.189C173.54 194.239 173.76 194.337 173.954 194.477C174.147 194.616 174.309 194.794 174.43 195V195Z" fill="#263238"/>
<path d="M176.78 208.91L182.17 210.35C182.107 210.715 181.971 211.064 181.768 211.375C181.566 211.685 181.302 211.951 180.992 212.155C180.683 212.359 180.335 212.498 179.97 212.563C179.605 212.627 179.23 212.616 178.87 212.53C178.13 212.3 177.504 211.8 177.117 211.129C176.729 210.458 176.609 209.666 176.78 208.91V208.91Z" fill="#B16668"/>
<path d="M180.39 212.46C180.282 211.824 179.94 211.252 179.431 210.856C178.922 210.459 178.283 210.268 177.64 210.32C177.375 210.349 177.116 210.416 176.87 210.52C177.006 210.996 177.261 211.429 177.611 211.779C177.961 212.129 178.394 212.384 178.87 212.52C179.371 212.656 179.902 212.635 180.39 212.46V212.46Z" fill="#F28F8F"/>
<path d="M188.85 194.41L185.29 193.57C185.32 193.335 185.399 193.108 185.522 192.906C185.646 192.704 185.811 192.53 186.006 192.395C186.202 192.261 186.424 192.17 186.657 192.128C186.89 192.085 187.13 192.093 187.36 192.15C187.846 192.271 188.27 192.571 188.546 192.99C188.821 193.408 188.93 193.915 188.85 194.41Z" fill="#263238"/>
<path d="M188.75 198.08C188.781 198.278 188.773 198.48 188.725 198.674C188.677 198.869 188.592 199.052 188.472 199.213C188.353 199.374 188.203 199.51 188.031 199.612C187.859 199.715 187.668 199.782 187.47 199.81C187.158 199.868 186.836 199.831 186.545 199.704C186.255 199.576 186.009 199.364 185.841 199.095C185.672 198.826 185.589 198.513 185.601 198.195C185.614 197.878 185.721 197.572 185.91 197.317C186.099 197.062 186.36 196.87 186.66 196.765C186.959 196.66 187.283 196.649 187.59 196.731C187.896 196.813 188.171 196.986 188.378 197.227C188.585 197.467 188.715 197.765 188.75 198.08V198.08Z" fill="#263238"/>
<path d="M180.83 197.73L182.76 207.08L187.55 204.91L180.83 197.73Z" fill="#F28F8F"/>
<path d="M152.5 226.52C151.31 226.23 144.18 226.37 140.61 234.08C137.99 239.73 132.61 255.08 128.11 266.66C120.11 260.24 110.83 253.46 109.77 252.37C106.91 249.48 106.08 247.14 103.14 244.15C101.493 242.524 100.028 240.723 98.77 238.78C97.87 237.48 96.97 238.98 96.77 239.78C96.3925 241.124 96.4168 242.549 96.84 243.88C97.23 245.06 97.9 246.43 97.16 247.42C96.54 248.24 95.33 248.24 94.31 248.12C90.4701 247.705 86.6813 246.908 83 245.74C82.3965 245.506 81.7571 245.377 81.11 245.36C80.7852 245.327 80.458 245.393 80.1718 245.55C79.8856 245.707 79.6539 245.948 79.5075 246.24C79.361 246.531 79.3068 246.861 79.3519 247.184C79.397 247.507 79.5393 247.809 79.76 248.05C80.1556 248.545 80.6365 248.965 81.18 249.29C80.8397 249.731 80.6164 250.251 80.5308 250.802C80.4451 251.353 80.4999 251.916 80.69 252.44C80.92 253.2 81.39 253.81 81.6 254.57C81.8094 255.437 82.1902 256.253 82.72 256.97C83.5596 257.861 84.6181 258.516 85.79 258.87C88.18 259.776 90.6612 260.419 93.19 260.79C94.86 261.03 96.52 261.29 98.19 261.58C99.7576 261.702 101.295 262.081 102.74 262.7C105.24 264.07 107.24 266.17 109.31 268.09C112.51 271.09 118.46 277.96 126.16 284.32C130.5 287.91 134.51 287.45 137.85 281.96C139.61 279.07 150.5 254.61 150.5 254.61C150.5 254.61 159 235.12 152.5 226.52Z" fill="#FFA8A7"/>
<path d="M128.11 266.66C129.787 267.718 131.199 269.146 132.239 270.835C133.279 272.523 133.919 274.426 134.11 276.4C134.11 276.4 135.82 268.6 129.11 264.01L128.11 266.66Z" fill="#F28F8F"/>
<path d="M152.93 225.81C145.71 226.37 141.59 229.22 138.45 237.53C133.82 249.83 130.06 259.53 130.06 259.53C130.06 259.53 132.63 266.36 145.06 269.4L150.5 255.29C153.32 249.2 155.1 245.29 155.71 240.1C156.4 233.78 155.2 228.34 152.93 225.81Z" fill="#37474F"/>
<path d="M278.86 341.79C278.528 341.79 278.21 341.658 277.976 341.424C277.742 341.189 277.61 340.872 277.61 340.54V260.29C277.61 259.959 277.742 259.641 277.976 259.406C278.21 259.172 278.528 259.04 278.86 259.04C279.191 259.04 279.509 259.172 279.744 259.406C279.978 259.641 280.11 259.959 280.11 260.29V340.54C280.11 340.872 279.978 341.189 279.744 341.424C279.509 341.658 279.191 341.79 278.86 341.79Z" fill="#263238"/>
<path d="M328.51 312.58C328.26 312.578 328.016 312.502 327.81 312.361C327.603 312.221 327.443 312.022 327.35 311.79L302.74 249.5C302.618 249.191 302.624 248.846 302.756 248.541C302.888 248.237 303.136 247.997 303.445 247.875C303.754 247.753 304.099 247.759 304.403 247.891C304.708 248.023 304.948 248.271 305.07 248.58L329.67 310.87C329.731 311.022 329.762 311.185 329.76 311.349C329.758 311.513 329.724 311.676 329.658 311.826C329.593 311.977 329.499 312.113 329.381 312.227C329.263 312.341 329.123 312.43 328.97 312.49C328.824 312.549 328.668 312.58 328.51 312.58V312.58Z" fill="#263238"/>
<path d="M325.56 305.1C325.39 305.1 325.222 305.065 325.065 304.998C324.909 304.931 324.768 304.833 324.65 304.71L278.86 256.25L233.15 304.5C233.04 304.628 232.904 304.733 232.752 304.808C232.6 304.882 232.434 304.925 232.265 304.934C232.096 304.942 231.927 304.916 231.768 304.857C231.609 304.798 231.464 304.708 231.341 304.591C231.218 304.475 231.12 304.334 231.054 304.179C230.987 304.023 230.952 303.855 230.952 303.686C230.952 303.516 230.986 303.349 231.053 303.193C231.12 303.037 231.217 302.897 231.34 302.78L278 253.58C278.115 253.457 278.255 253.359 278.409 253.291C278.564 253.224 278.731 253.19 278.9 253.19C279.07 253.19 279.239 253.224 279.395 253.291C279.552 253.358 279.693 253.456 279.81 253.58L326.46 303C326.578 303.115 326.671 303.253 326.735 303.405C326.799 303.557 326.831 303.72 326.831 303.885C326.831 304.05 326.799 304.213 326.735 304.365C326.671 304.517 326.578 304.655 326.46 304.77C326.215 304.994 325.892 305.113 325.56 305.1V305.1Z" fill="#263238"/>
<path d="M229.21 312.58C229.006 312.58 228.806 312.53 228.626 312.434C228.446 312.338 228.292 312.2 228.178 312.032C228.064 311.863 227.992 311.669 227.97 311.467C227.948 311.264 227.975 311.059 228.05 310.87L252.66 248.58C252.714 248.418 252.799 248.269 252.913 248.142C253.026 248.015 253.164 247.912 253.318 247.84C253.472 247.768 253.64 247.728 253.81 247.723C253.98 247.718 254.149 247.748 254.308 247.81C254.466 247.873 254.61 247.968 254.73 248.088C254.851 248.208 254.945 248.352 255.008 248.51C255.071 248.668 255.101 248.838 255.096 249.008C255.092 249.178 255.052 249.346 254.98 249.5L230.37 311.79C230.279 312.023 230.12 312.224 229.913 312.365C229.706 312.506 229.461 312.581 229.21 312.58V312.58Z" fill="#263238"/>
<path d="M326.82 303.17L330.07 311.76C330.08 311.833 330.08 311.907 330.07 311.98C330.08 312.03 330.08 312.081 330.07 312.13C329.983 312.369 329.807 312.566 329.58 312.68C329.27 312.836 328.927 312.918 328.58 312.918C328.233 312.918 327.89 312.836 327.58 312.68C327.409 312.589 327.272 312.445 327.19 312.27V312.27V312.15L324.19 304.1L326.82 303.17Z" fill="#5BBD81"/>
<path d="M230.91 303.17L227.65 311.76C227.64 311.833 227.64 311.907 227.65 311.98V312.13C227.737 312.369 227.913 312.566 228.14 312.68C228.45 312.836 228.793 312.918 229.14 312.918C229.487 312.918 229.83 312.836 230.14 312.68C230.311 312.589 230.448 312.445 230.53 312.27V312.15L233.53 304.1L230.91 303.17Z" fill="#5BBD81"/>
<path d="M280.3 334.33V341.43C280.287 341.556 280.242 341.677 280.168 341.781C280.095 341.884 279.995 341.967 279.88 342.02C279.568 342.171 279.226 342.25 278.88 342.25C278.534 342.25 278.192 342.171 277.88 342.02C277.765 341.967 277.665 341.884 277.592 341.781C277.518 341.677 277.473 341.556 277.46 341.43V334.33C277.898 334.1 278.385 333.981 278.88 333.981C279.375 333.981 279.862 334.1 280.3 334.33V334.33Z" fill="#5BBD81"/>
<path d="M325.85 252.42C325.85 250.54 324.19 248.54 320.71 246.27C314.27 242.1 299.88 233.71 290.87 228.71C290.864 228.693 290.853 228.677 290.839 228.665C290.825 228.652 290.808 228.644 290.79 228.64C283.86 224.43 277.39 204.39 272.59 189.16C270.95 183.97 268.95 181.03 266.59 179.65C266.03 179.32 263.95 178.18 263.49 177.9C258.78 175.08 252.6 178.47 244.9 182.68C237.8 186.56 232.26 191.53 231.15 204.68C230.47 212.68 231.15 228.05 232.75 239.68C235.11 259.1 238.01 259.14 242.22 262.39C249.46 267.98 265.77 275.85 272.64 278.55C285.11 283.45 295.29 275.89 302.89 272.14C309.847 268.623 316.565 264.651 323 260.25C324.9 258.87 325.88 257.48 325.86 256.01C325.83 255.42 325.85 253 325.85 252.42Z" fill="#5BBD81"/>
<path opacity="0.25" d="M325.85 252.42C325.85 250.54 324.19 248.54 320.71 246.27C314.27 242.1 299.88 233.71 290.87 228.71C290.864 228.693 290.853 228.677 290.839 228.665C290.825 228.652 290.808 228.644 290.79 228.64C283.86 224.43 277.39 204.39 272.59 189.16C270.95 183.97 268.95 181.03 266.59 179.65C266.03 179.32 263.95 178.18 263.49 177.9C258.78 175.08 252.6 178.47 244.9 182.68C237.8 186.56 232.26 191.53 231.15 204.68C230.47 212.68 231.15 228.05 232.75 239.68C235.11 259.1 238.01 259.14 242.22 262.39C249.46 267.98 265.77 275.85 272.64 278.55C285.11 283.45 295.29 275.89 302.89 272.14C309.847 268.623 316.565 264.651 323 260.25C324.9 258.87 325.88 257.48 325.86 256.01C325.83 255.42 325.85 253 325.85 252.42Z" fill="black"/>
<path d="M266.3 179.49C261.63 177.04 255.57 180.37 248.07 184.49C243.26 187.13 239.17 190.25 236.68 196.09L233.51 194.26C236 188.44 240.09 185.32 244.87 182.69C252.58 178.47 258.76 175.09 263.47 177.91L266.3 179.49Z" fill="#5BBD81"/>
<path d="M320.71 246.27C316.53 243.56 316.44 242.87 290.71 228.58H290.83C283.9 224.36 277.44 204.33 272.64 189.11C267.76 173.64 259.64 178.11 248.11 184.43C241.02 188.32 235.48 193.29 234.36 206.43C233.24 219.57 235.69 252.31 240.18 256.26C245.09 261.69 264.79 271.78 272.66 274.88C285.13 279.78 295.31 272.22 302.91 268.47C309.859 264.971 316.57 261.02 323 256.64C327.3 253.5 326.9 250.29 320.71 246.27Z" fill="#5BBD81"/>
<g opacity="0.1">
<path opacity="0.1" d="M248.06 184.48C259.59 178.18 267.71 173.69 272.59 189.16C277.39 204.39 283.86 224.43 290.79 228.64C290.79 228.64 278.9 228.64 261.66 237.94C243.74 247.62 241.01 257.08 240.18 256.4C235.65 252.64 233.18 219.71 234.31 206.52C235.44 193.33 241 188.37 248.06 184.48Z" fill="black"/>
</g>
<path d="M303 303.23C302.1 303.92 301.06 304.73 301 305.77C300.944 308.002 301.599 310.194 302.87 312.03C304.65 314.7 305.37 319.36 305.3 322.43C305.23 325.5 304.3 333.24 307.65 336.86C311 340.48 320.03 343.45 320.91 337.86C321.79 332.27 314.11 309 314.11 309L303 303.23Z" fill="#263238"/>
<path d="M307.6 307.64C308.537 311.797 309.159 316.019 309.46 320.27C309.7 324.91 310.54 328.27 312.64 329.86C314.74 331.45 318.21 331.74 317.4 328.49C316.59 325.24 314.11 309 314.11 309L307.6 307.64Z" fill="#9A4A4D"/>
<path d="M290.77 226.94C303.7 235.69 303.91 235.39 314.97 243.75C323.09 249.9 330.79 255.87 331.97 259.98C333.2 264.33 331.22 273.91 328.8 283.05C326.38 292.19 321.73 308.56 321.73 308.56L301.85 265.56L278.46 244.25L290.77 226.94Z" fill="#5BBD81"/>
<path opacity="0.3" d="M290.77 226.94C303.7 235.69 303.91 235.39 314.97 243.75C323.09 249.9 330.79 255.87 331.97 259.98C333.2 264.33 331.22 273.91 328.8 283.05C326.38 292.19 321.73 308.56 321.73 308.56L301.85 265.56L278.46 244.25L290.77 226.94Z" fill="black"/>
<path opacity="0.1" d="M317.21 272.6C315.58 266.24 310.61 261.4 305.88 257.35C302.12 254.12 294.71 248.1 291 245.1C292.163 242.713 292.988 240.175 293.45 237.56C291.45 240.78 289.39 243.5 287.45 244.89L309.97 268.15L323.15 303.78C323.15 303.78 318.85 279 317.21 272.6Z" fill="black"/>
<path d="M319.38 338C318.56 338.38 318.38 340.25 318.23 341.62C318.08 342.99 316.83 344.62 318.48 347.03C320.13 349.44 323.43 350.15 325.67 353.43C327.91 356.71 331.23 362.65 338.58 364.19C345.93 365.73 351.53 363.29 352.89 361.1C354.25 358.91 353.02 356.84 348.32 354.16C343.32 351.33 341.9 350.49 341.9 350.49L319.38 338Z" fill="#263238"/>
<path d="M327.24 322.9C327.24 322.9 330.83 332.71 333 337.21C335.445 341.933 338.61 346.248 342.38 350C343.2 350.86 345.07 352.46 345.74 353.16C345.901 353.292 346.031 353.459 346.12 353.647C346.209 353.836 346.255 354.042 346.255 354.25C346.255 354.459 346.209 354.664 346.12 354.853C346.031 355.041 345.901 355.208 345.74 355.34C344.22 356.95 337.47 357.64 333.54 354.98C329.61 352.32 325.62 347.1 323.24 344.93C322.05 343.84 320.94 342.79 320.12 342.02C319.732 341.66 319.444 341.205 319.285 340.7C319.125 340.195 319.099 339.658 319.21 339.14C319.28 338.84 319.35 338.49 319.42 338.08C319.84 335.87 316.51 327.08 316.51 327.08L327.24 322.9Z" fill="#B16668"/>
<path d="M254.82 226.06C255.04 234.06 250.82 246.06 253.57 252.21C256.84 259.4 261.09 262.53 271.7 268.03C280.47 272.59 293.4 279.16 296.01 280.16C298.62 281.16 298.96 282.7 298.83 287.59C298.7 292.48 300.78 300.35 306.68 310.05C310.932 317.242 314.797 324.656 318.26 332.26C318.26 332.26 325.82 333.44 329.5 328.86C329.5 328.86 316.21 275.94 313.73 269.69C311.25 263.44 286.33 244 286.33 244C286.33 244 288.39 233.8 289.92 226.38L254.82 226.06Z" fill="#5BBD81"/>
<path opacity="0.3" d="M254.82 226.06C255.04 234.06 250.82 246.06 253.57 252.21C256.84 259.4 261.09 262.53 271.7 268.03C280.47 272.59 293.4 279.16 296.01 280.16C298.62 281.16 298.96 282.7 298.83 287.59C298.7 292.48 300.78 300.35 306.68 310.05C310.932 317.242 314.797 324.656 318.26 332.26C318.26 332.26 325.82 333.44 329.5 328.86C329.5 328.86 316.21 275.94 313.73 269.69C311.25 263.44 286.33 244 286.33 244C286.33 244 288.39 233.8 289.92 226.38L254.82 226.06Z" fill="black"/>
<path d="M279.07 179.48C285.07 179.16 287.24 179.01 292.26 183.01C293.92 184.33 307.44 196.51 312.87 201.01C314.39 191.86 315.87 183.13 315.87 181.76C316.05 178.07 315.21 175.99 315.38 172.19C315.518 170.093 315.424 167.987 315.1 165.91C314.92 164.49 316.44 164.91 317.1 165.37C318.171 166.049 319.017 167.03 319.53 168.19C319.98 169.19 320.35 170.55 321.45 170.77C322.36 170.96 323.18 170.22 323.8 169.53C326.143 166.938 328.22 164.117 330 161.11C330.253 160.594 330.591 160.124 331 159.72C331.201 159.503 331.462 159.351 331.751 159.285C332.039 159.218 332.341 159.241 332.616 159.349C332.892 159.457 333.129 159.645 333.295 159.89C333.462 160.135 333.55 160.424 333.55 160.72C333.574 161.294 333.503 161.869 333.34 162.42C333.835 162.516 334.297 162.734 334.685 163.056C335.073 163.377 335.374 163.792 335.56 164.26C335.86 164.91 335.92 165.61 336.23 166.26C336.616 166.972 336.854 167.754 336.93 168.56C336.894 169.669 336.574 170.75 336 171.7C334.923 173.756 333.629 175.69 332.14 177.47C331.14 178.63 330.2 179.82 329.25 181.01C328.265 182.039 327.455 183.221 326.85 184.51C326.136 186.99 325.732 189.55 325.65 192.13C325.28 196.07 326.39 206.67 324.12 215.24C322.81 220.17 319.96 221.87 314.36 218.92C311.65 217.48 288.06 200.54 288.06 200.54C288.06 200.54 279.87 189.21 279.07 179.48Z" fill="#B16668"/>
<path d="M312.87 201C311.93 203.55 312.61 210.86 313.65 212.92C311.396 208.984 310.683 204.351 311.65 199.92L312.87 201Z" fill="#9A4A4D"/>
<path d="M263.22 181.8L252.42 184.65C252.42 184.65 256.98 192.3 255.76 199.65C254.45 207.65 253.63 208.34 251.01 210.33C252.18 215.02 254.44 225.83 254.44 225.83C252.634 231.377 251.68 237.167 251.61 243C251.61 243 259.15 247.41 276.86 243.46C292.41 240 293 228.3 293 228.3L289.5 225.19L289 210.82C289 210.82 296.86 204.12 292.87 195.44C288.88 186.76 279.04 179.44 279.04 179.44L272.58 179.98L263.22 181.8Z" fill="#5BBD81"/>
<path opacity="0.7" d="M263.22 181.8L252.42 184.65C252.42 184.65 256.98 192.3 255.76 199.65C254.45 207.65 253.63 208.34 251.01 210.33C252.18 215.02 254.44 225.83 254.44 225.83C252.634 231.377 251.68 237.167 251.61 243C251.61 243 259.15 247.41 276.86 243.46C292.41 240 293 228.3 293 228.3L289.5 225.19L289 210.82C289 210.82 296.86 204.12 292.87 195.44C288.88 186.76 279.04 179.44 279.04 179.44L272.58 179.98L263.22 181.8Z" fill="white"/>
<path opacity="0.1" d="M280.11 210.31C278.88 211.95 277.24 213.235 275.353 214.036C273.467 214.837 271.403 215.124 269.37 214.87C261.88 214.03 260.6 209.03 260.6 209.03C260.6 209.03 261.91 216.33 269.47 216.72C279 217.21 280.11 210.31 280.11 210.31Z" fill="black"/>
<path d="M285.55 153.45C285.13 142.45 277.18 136.45 268.18 135.07C261.18 133.75 258.49 135.87 251.45 135.39C248.55 135.2 245.92 135.16 244.03 136.21C241.88 137.4 240.69 139.86 241.1 142.97C241.313 144.614 242.116 146.124 243.36 147.22C241.48 150.45 243.73 155.61 248.49 156.6L253.88 172.27C253.88 172.27 274.83 179.53 274.69 175.92C278.3 168.6 286 166 285.55 153.45Z" fill="#263238"/>
<path d="M279.76 134.73L278.95 140.23C279.31 140.301 279.68 140.299 280.04 140.225C280.399 140.15 280.74 140.005 281.043 139.797C281.346 139.59 281.604 139.324 281.802 139.015C282.001 138.707 282.136 138.361 282.2 138C282.3 137.244 282.101 136.479 281.646 135.868C281.19 135.257 280.513 134.849 279.76 134.73V134.73Z" fill="#263238"/>
<path d="M285 139.08L279.4 139.9C279.439 140.267 279.552 140.623 279.732 140.945C279.913 141.267 280.157 141.55 280.449 141.775C280.742 142 281.077 142.164 281.435 142.256C281.792 142.348 282.165 142.366 282.53 142.31C283.28 142.196 283.956 141.796 284.416 141.193C284.877 140.591 285.086 139.833 285 139.08Z" fill="#263238"/>
<path d="M274.94 182.08L274.33 166.15C274.33 166.15 276.46 168.15 279.33 165.8C281.95 163.72 282.91 159.45 280.94 157.34C279.55 155.84 275.38 155.15 273.89 158.54C273.89 158.54 269.09 158.54 262.67 154.29C256.25 150.04 254.61 146.23 250.76 145.94C249.01 147.38 247.41 151.49 248.01 162.16C248.45 170.06 252.13 173.69 254.01 174.98C255.53 176.03 257.41 176.11 260.58 175.47L260.86 182.95C260.86 182.95 267.67 193.17 275.24 192.42C286.65 191.28 274.94 182.08 274.94 182.08Z" fill="#B16668"/>
<path d="M273.9 157.81L274.07 162.18C273.251 162.218 272.45 161.93 271.843 161.379C271.236 160.828 270.871 160.059 270.83 159.24L270.67 155.01L273.9 157.81Z" fill="#263238"/>
<path d="M262.24 158.92C262.236 159.11 262.269 159.3 262.338 159.477C262.408 159.655 262.511 159.817 262.643 159.954C262.775 160.092 262.932 160.202 263.107 160.278C263.281 160.355 263.469 160.396 263.66 160.4C263.952 160.41 264.24 160.332 264.488 160.178C264.736 160.023 264.933 159.797 265.052 159.53C265.171 159.263 265.208 158.967 265.158 158.679C265.108 158.391 264.973 158.124 264.77 157.913C264.568 157.702 264.307 157.556 264.021 157.494C263.736 157.432 263.438 157.457 263.166 157.565C262.894 157.673 262.661 157.86 262.496 158.101C262.331 158.342 262.242 158.628 262.24 158.92V158.92Z" fill="#263238"/>
<path d="M249.52 155.31L252.42 153.14C252.282 152.947 252.107 152.785 251.905 152.661C251.704 152.537 251.479 152.455 251.245 152.42C251.011 152.384 250.772 152.396 250.543 152.455C250.314 152.513 250.098 152.617 249.91 152.76C249.526 153.051 249.27 153.48 249.197 153.956C249.124 154.432 249.24 154.918 249.52 155.31V155.31Z" fill="#263238"/>
<path d="M263.25 166.3L259.2 168.3C259.33 168.563 259.512 168.798 259.734 168.991C259.955 169.184 260.213 169.331 260.492 169.424C260.771 169.517 261.065 169.554 261.358 169.532C261.651 169.511 261.937 169.432 262.2 169.3C262.725 169.029 263.127 168.567 263.323 168.009C263.518 167.451 263.492 166.839 263.25 166.3Z" fill="#9A4A4D"/>
<path d="M251.17 158.41C251.153 158.61 251.178 158.811 251.243 159.001C251.308 159.19 251.412 159.365 251.548 159.512C251.683 159.66 251.848 159.778 252.032 159.858C252.216 159.939 252.414 159.98 252.615 159.98C252.815 159.98 253.013 159.939 253.197 159.858C253.381 159.778 253.546 159.66 253.682 159.512C253.817 159.365 253.921 159.19 253.986 159.001C254.051 158.811 254.076 158.61 254.06 158.41C254.065 158.219 254.032 158.029 253.963 157.851C253.895 157.673 253.791 157.511 253.659 157.373C253.527 157.235 253.369 157.125 253.194 157.049C253.019 156.973 252.83 156.933 252.64 156.93C252.249 156.933 251.875 157.09 251.599 157.367C251.324 157.644 251.17 158.019 251.17 158.41V158.41Z" fill="#263238"/>
<path d="M258.56 157.4L258.65 165.16L254.45 164.05L258.56 157.4Z" fill="#9A4A4D"/>
<path d="M260.6 175.47C263.94 174.91 270.77 172.7 271.74 169.98C271.36 171.36 270.56 172.587 269.45 173.49C267.45 175.3 260.68 177.49 260.68 177.49L260.6 175.47Z" fill="#9A4A4D"/>
<path d="M415.06 370.16L417.33 368.85V279.21L415.06 277.95V370.16Z" fill="#37474F"/>
<path d="M415.06 370.16L412.8 368.81V279.17L415.06 280.52V370.16Z" fill="#455A64"/>
<path d="M330.2 321.11L332.46 319.85V230.21L330.2 231.47V321.11Z" fill="#37474F"/>
<path d="M330.2 321.11L327.93 319.85V230.21L330.2 231.47V321.11Z" fill="#455A64"/>
<path d="M327.93 235.09L415.06 285.23V277.95L327.93 227.64V235.09Z" fill="#455A64"/>
<path d="M330.07 256.09L414.94 305.15L414.95 302.62L330.07 253.57V256.09Z" fill="#455A64"/>
<path d="M412.8 301.38L330.2 253.64V251.08L412.8 298.76" fill="#37474F"/>
<path d="M417.33 284.61L247.72 382.22V374.62L417.33 276.82V284.61Z" fill="#37474F"/>
<path d="M247.72 466.84L249.98 465.53V375.89L247.72 374.63V466.84Z" fill="#37474F"/>
<path d="M247.72 466.84L245.45 465.49V375.85L247.72 377.2V466.84Z" fill="#455A64"/>
<path d="M162.85 417.8L165.11 416.54V326.89L162.85 328.15V417.8Z" fill="#37474F"/>
<path d="M162.85 417.8L160.59 416.54V326.9L162.85 328.15V417.8Z" fill="#455A64"/>
<path d="M160.59 331.77L247.72 381.92V374.63L160.59 324.33V331.77Z" fill="#455A64"/>
<path d="M162.72 352.78L247.6 401.83V399.3L162.72 350.25V352.78Z" fill="#455A64"/>
<path d="M245.45 398.06L162.85 350.33V347.76L245.45 395.45" fill="#37474F"/>
<path d="M247.72 374.63L160.59 324.33L330.2 226.52L417.33 276.82L247.72 374.63Z" fill="#5BBD81"/>
<path opacity="0.8" d="M247.72 374.63L160.59 324.33L330.2 226.52L417.33 276.82L247.72 374.63Z" fill="white"/>
<path d="M259.76 256.9C258.61 256.21 257.43 255.57 256.21 254.97C250.48 252.14 246.66 250.17 242.69 247.97C238.72 245.77 234.8 243.86 231.92 241.9C228.19 239.36 228.92 237.41 230.04 231.19C231.96 220.19 236.1 206.01 238.04 198.57C240.71 188.12 243.56 185.73 252.48 184.43C255.05 187.18 258.33 204.31 251.36 211.43L244.56 233.58C248.09 236.47 260.15 244.58 262.56 245.89C264.97 247.2 267.41 247.03 270.18 247.18C272.28 247.3 274.31 247.87 276.38 248.18C277.414 248.348 278.464 248.402 279.51 248.34C279.94 248.34 280.36 248.34 280.79 248.28C281.22 248.22 281.59 248.07 281.94 248.28C282.077 248.388 282.18 248.533 282.239 248.698C282.297 248.862 282.308 249.04 282.27 249.21C282.146 249.593 281.938 249.944 281.661 250.236C281.385 250.529 281.046 250.755 280.67 250.9C279.19 251.684 277.593 252.225 275.94 252.5C276.12 252.836 276.369 253.13 276.671 253.362C276.972 253.595 277.32 253.761 277.69 253.85C280.755 255.007 283.923 255.875 287.15 256.44C287.497 256.483 287.834 256.581 288.15 256.73C288.314 256.808 288.456 256.925 288.563 257.072C288.669 257.219 288.737 257.39 288.76 257.57C288.745 257.808 288.664 258.037 288.527 258.231C288.389 258.425 288.2 258.577 287.98 258.67C287.54 258.844 287.115 259.054 286.71 259.3C286.332 259.664 285.996 260.07 285.71 260.51C284.96 261.313 284.046 261.944 283.03 262.36C281.872 263 280.635 263.484 279.35 263.8C277.339 264.083 275.29 263.919 273.35 263.32C271.5 262.883 269.692 262.281 267.95 261.52C265.128 260.15 262.392 258.607 259.76 256.9Z" fill="#B16668"/>
<path opacity="0.1" d="M287.49 305.45L257.06 287.89C256.795 287.733 256.493 287.651 256.185 287.651C255.877 287.651 255.575 287.733 255.31 287.89L202.51 318.37C202.45 318.404 202.399 318.453 202.364 318.513C202.329 318.573 202.311 318.641 202.311 318.71C202.311 318.779 202.329 318.847 202.364 318.907C202.399 318.967 202.45 319.016 202.51 319.05L233.23 336.78L287.49 305.45Z" fill="black"/>
<path d="M285.22 301.75V302.44C285.221 302.934 285.091 303.419 284.843 303.845C284.595 304.272 284.239 304.626 283.81 304.87L234.64 333.26C234.212 333.508 233.725 333.639 233.23 333.639C232.735 333.639 232.248 333.508 231.82 333.26L205 317.84C204.575 317.59 204.222 317.233 203.977 316.806C203.731 316.378 203.601 315.893 203.6 315.4V314.45C203.597 314.514 203.612 314.577 203.644 314.632C203.676 314.687 203.723 314.731 203.78 314.76L233.22 331.76L285.22 301.75Z" fill="#37474F"/>
<path d="M285.22 301.75L256.06 284.92C255.806 284.772 255.518 284.695 255.225 284.695C254.932 284.695 254.644 284.772 254.39 284.92L203.8 314.13C203.744 314.163 203.697 314.209 203.665 314.265C203.633 314.322 203.616 314.385 203.616 314.45C203.616 314.515 203.633 314.578 203.665 314.635C203.697 314.691 203.744 314.737 203.8 314.77L233.23 331.77L285.22 301.75Z" fill="#455A64"/>
<path d="M210.2 264.38C214.49 266.44 219.9 269.15 223.02 270.55C226.14 271.95 228.41 272.69 231.91 274.07C234.59 275.13 237.91 275.94 239.96 277.53C242.01 279.12 252.37 287.81 254.6 289.27C256.83 290.73 255.94 292.61 252.13 294.08C250.632 294.705 249.02 295.012 247.397 294.983C245.774 294.953 244.175 294.588 242.7 293.91C240.306 292.752 238.038 291.351 235.93 289.73C234.073 289.807 232.231 289.357 230.62 288.43C228.44 286.94 227.05 285.06 225.79 284.17C224.53 283.28 212.98 280.06 204.23 277.54L210.2 264.38Z" fill="#FFA8A7"/>
<path d="M232.96 329.29L217.24 320.22L263.23 293.67L279.03 302.69L232.96 329.29Z" fill="#37474F"/>
<path d="M279.03 302.69L278.43 303.04L263.22 294.36L217.84 320.57L217.24 320.22L263.22 293.67L279.03 302.69Z" fill="#5BBD81"/>
<path d="M279.03 302.69L278.43 303.04L263.22 294.36L217.84 320.57L217.24 320.22L263.22 293.67L279.03 302.69Z" fill="#263238"/>
<path d="M225.23 304.06L225.52 304.23L233.23 308.68L246.94 300.76L247.23 300.6L239.23 295.98L225.23 304.06Z" fill="#263238"/>
<path d="M225.52 304.23L233.23 308.68L246.94 300.76L239.23 296.31L225.52 304.23Z" fill="#37474F"/>
<path d="M233.23 331.77V333.64C233.726 333.642 234.212 333.511 234.64 333.26L283.82 304.87C284.246 304.624 284.6 304.27 284.846 303.843C285.092 303.416 285.221 302.932 285.22 302.44V301.75L233.23 331.77Z" fill="#5BBD81"/>
<path d="M233.23 331.77V333.64C233.726 333.642 234.212 333.511 234.64 333.26L283.82 304.87C284.246 304.624 284.6 304.27 284.846 303.843C285.092 303.416 285.221 302.932 285.22 302.44V301.75L233.23 331.77Z" fill="#263238"/>
<path d="M234 332.18C234.464 332.36 234.963 332.434 235.46 332.396C235.957 332.358 236.439 332.209 236.87 331.96L285.87 303.69C286.295 303.445 286.661 303.109 286.941 302.706C287.221 302.303 287.408 301.844 287.49 301.36L292.85 269.36C292.865 269.177 292.865 268.993 292.85 268.81C292.848 268.368 292.759 267.932 292.587 267.525C292.416 267.118 292.165 266.749 291.85 266.44L241 295.87C240.686 296.05 240.416 296.298 240.21 296.595C240.005 296.893 239.868 297.233 239.81 297.59L234 332.18Z" fill="#37474F"/>
<path d="M233.23 331.77L233.57 331.96C233.713 332.047 233.863 332.121 234.02 332.18L239.82 297.59C239.878 297.233 240.015 296.893 240.22 296.595C240.426 296.298 240.696 296.05 241.01 295.87L291.9 266.48C291.695 266.283 291.467 266.111 291.22 265.97L240.22 295.4C239.907 295.583 239.638 295.833 239.432 296.132C239.226 296.431 239.089 296.772 239.03 297.13L233.23 331.77Z" fill="#455A64"/>
<path d="M240.29 296.52L239.5 296.06C239.261 296.373 239.103 296.741 239.04 297.13L233.23 331.77L233.57 331.96C233.713 332.047 233.863 332.121 234.02 332.18L239.82 297.59C239.886 297.2 240.048 296.833 240.29 296.52V296.52Z" fill="#263238"/>
<path d="M261.6 302.67C261.96 300.53 264.17 297.67 266.54 296.32C268.91 294.97 270.54 295.59 270.17 297.73C269.8 299.87 267.6 302.73 265.24 304.08C262.88 305.43 261.24 304.81 261.6 302.67Z" fill="#5BBD81"/>
<path opacity="0.1" d="M240.73 355.93C237.4 357.77 237.4 360.76 240.73 362.6C242.601 363.502 244.652 363.97 246.73 363.97C248.808 363.97 250.858 363.502 252.73 362.6C256.06 360.76 256.06 357.77 252.73 355.93C250.858 355.028 248.808 354.56 246.73 354.56C244.652 354.56 242.601 355.028 240.73 355.93V355.93Z" fill="black"/>
<path d="M251.91 345C248.432 343.995 244.729 344.093 241.31 345.28C238.47 346.45 238.51 348.22 241.42 349.28C244.89 350.284 248.587 350.186 252 349C255 347.83 254.92 346.05 251.91 345Z" fill="#5BBD81"/>
<g opacity="0.3">
<path opacity="0.3" d="M251.91 345C248.432 343.995 244.729 344.093 241.31 345.28C238.47 346.45 238.51 348.22 241.42 349.28C244.89 350.284 248.587 350.186 252 349C255 347.83 254.92 346.05 251.91 345Z" fill="black"/>
</g>
<path d="M254.19 341.37L238.92 341.78L240.55 359.78C240.64 360.43 241.27 361.06 242.45 361.53C245.438 362.521 248.678 362.436 251.61 361.29C252.8 360.76 253.42 360.1 253.48 359.44L254.19 341.37Z" fill="#FAFAFA"/>
<path d="M238.92 341.78L239.25 345.42C239.657 345.686 240.093 345.904 240.55 346.07C244.522 347.343 248.808 347.234 252.71 345.76C252.847 345.701 252.981 345.635 253.11 345.56C253.437 345.397 253.751 345.209 254.05 345L254.19 341.37L238.92 341.78Z" fill="#EBEBEB"/>
<path d="M255.17 341.87L255.1 339.12L253.32 339.17C253.062 339.043 252.799 338.93 252.53 338.83C248.557 337.564 244.273 337.673 240.37 339.14C240.1 339.26 239.86 339.39 239.63 339.52L237.9 339.57L237.97 342.32C237.97 343.21 238.84 344.09 240.51 344.73C244.484 345.995 248.768 345.882 252.67 344.41C254.36 343.69 255.2 342.77 255.17 341.87Z" fill="#5BBD81"/>
<g opacity="0.2">
<path opacity="0.2" d="M255.17 341.87L255.1 339.12L253.32 339.17C253.062 339.043 252.799 338.93 252.53 338.83C248.557 337.564 244.273 337.673 240.37 339.14C240.1 339.26 239.86 339.39 239.63 339.52L237.9 339.57L237.97 342.32C237.97 343.21 238.84 344.09 240.51 344.73C244.484 345.995 248.768 345.882 252.67 344.41C254.36 343.69 255.2 342.77 255.17 341.87Z" fill="black"/>
</g>
<path d="M252.48 336.71C248.503 335.442 244.215 335.555 240.31 337.03C237.05 338.48 237.1 340.7 240.44 342.03C244.414 343.295 248.698 343.182 252.6 341.71C256 340.21 255.93 338 252.48 336.71Z" fill="#5BBD81"/>
<path d="M253.5 338.5L252.89 336.25L248.52 336.36C247.074 336.221 245.617 336.258 244.18 336.47L239.94 336.58L239.45 338.86C239.2 339.7 239.88 340.54 241.45 341.13C244.724 342.125 248.232 342.034 251.45 340.87C253.15 340.2 253.81 339.32 253.5 338.5Z" fill="#5BBD81"/>
<path opacity="0.2" d="M253.5 338.5L252.89 336.25L248.52 336.36C247.074 336.221 245.617 336.258 244.18 336.47L239.94 336.58L239.45 338.86C239.2 339.7 239.88 340.54 241.45 341.13C244.724 342.125 248.232 342.034 251.45 340.87C253.15 340.2 253.81 339.32 253.5 338.5Z" fill="black"/>
<path d="M251 334.85C247.978 333.982 244.762 334.066 241.79 335.09C239.32 336.09 239.36 337.62 241.88 338.49C244.902 339.356 248.117 339.272 251.09 338.25C253.61 337.25 253.57 335.72 251 334.85Z" fill="#5BBD81"/>
<path d="M252.05 336.53C251.986 336.662 251.89 336.776 251.77 336.86C251.445 337.091 251.092 337.279 250.72 337.42C249.334 337.907 247.879 338.167 246.41 338.19C244.963 338.25 243.517 338.067 242.13 337.65C241.771 337.53 241.434 337.355 241.13 337.13C240.92 336.97 240.86 336.84 240.86 336.81C240.86 336.78 241.07 336.35 242.13 335.92C243.49 335.427 244.924 335.17 246.37 335.16C247.84 335.093 249.311 335.275 250.72 335.7C251.76 336.06 252 336.45 252.05 336.53Z" fill="#5BBD81"/>
<g opacity="0.5">
<path opacity="0.5" d="M252.05 336.53C251.986 336.662 251.89 336.776 251.77 336.86C251.445 337.091 251.092 337.279 250.72 337.42C249.334 337.907 247.879 338.167 246.41 338.19C244.963 338.25 243.517 338.067 242.13 337.65C241.771 337.53 241.434 337.355 241.13 337.13C240.92 336.97 240.86 336.84 240.86 336.81C240.86 336.78 241.07 336.35 242.13 335.92C243.49 335.427 244.924 335.17 246.37 335.16C247.84 335.093 249.311 335.275 250.72 335.7C251.76 336.06 252 336.45 252.05 336.53Z" fill="black"/>
</g>
<path d="M251.77 336.86C251.445 337.091 251.092 337.279 250.72 337.42C249.334 337.907 247.879 338.167 246.41 338.19C244.963 338.25 243.517 338.067 242.13 337.65C241.771 337.53 241.434 337.355 241.13 337.13C241.432 336.891 241.77 336.698 242.13 336.56C244.907 335.631 247.9 335.557 250.72 336.35C251.094 336.466 251.448 336.638 251.77 336.86Z" fill="#5BBD81"/>
<g opacity="0.2">
<path opacity="0.2" d="M251.77 336.86C251.445 337.091 251.092 337.279 250.72 337.42C249.334 337.907 247.879 338.167 246.41 338.19C244.963 338.25 243.517 338.067 242.13 337.65C241.771 337.53 241.434 337.355 241.13 337.13C241.432 336.891 241.77 336.698 242.13 336.56C244.907 335.631 247.9 335.557 250.72 336.35C251.094 336.466 251.448 336.638 251.77 336.86Z" fill="black"/>
</g>
<g opacity="0.5">
<path opacity="0.5" d="M249.18 337C249.324 336.899 249.486 336.828 249.658 336.79C249.83 336.752 250.007 336.749 250.18 336.78C250.37 336.88 250.18 337.15 249.85 337.37C249.708 337.475 249.546 337.549 249.374 337.587C249.201 337.625 249.023 337.626 248.85 337.59C248.66 337.47 248.81 337.2 249.18 337Z" fill="black"/>
</g>
<path d="M239.81 353.94C239.81 354.61 240.52 355.27 241.89 355.75C245.168 356.705 248.663 356.617 251.89 355.5C253.28 354.94 253.96 354.25 253.94 353.58L254.21 346.96C254.21 347.68 253.5 348.42 252.03 348.96C248.611 350.15 244.907 350.248 241.43 349.24C239.97 348.73 239.24 348.03 239.22 347.31L239.81 353.94Z" fill="#5BBD81"/>
<path d="M244.48 354.21C244.248 353.855 244.041 353.484 243.86 353.1C243.465 352.414 242.837 351.893 242.09 351.63C242.042 351.61 241.988 351.609 241.94 351.627C241.891 351.646 241.852 351.683 241.83 351.73C241.699 352.183 241.694 352.663 241.815 353.119C241.937 353.575 242.181 353.988 242.52 354.316C242.86 354.643 243.283 354.871 243.742 354.976C244.202 355.081 244.682 355.058 245.13 354.91C245.18 354.91 245.19 354.8 245.13 354.78C244.878 354.634 244.657 354.44 244.48 354.21V354.21Z" fill="#37474F"/>
<path d="M242.5 351.41C242.906 351.553 243.283 351.77 243.61 352.05C243.95 352.344 244.226 352.705 244.42 353.11C244.639 353.615 244.983 354.056 245.42 354.39C245.443 354.407 245.469 354.419 245.496 354.426C245.524 354.433 245.553 354.434 245.581 354.429C245.609 354.425 245.636 354.414 245.66 354.399C245.683 354.384 245.704 354.364 245.72 354.34C245.944 353.877 246.006 353.352 245.895 352.849C245.785 352.347 245.508 351.896 245.11 351.57C244.776 351.21 244.338 350.965 243.857 350.868C243.376 350.771 242.877 350.828 242.43 351.03C242.396 351.053 242.369 351.085 242.353 351.123C242.337 351.161 242.332 351.203 242.339 351.243C242.347 351.284 242.366 351.321 242.395 351.351C242.423 351.38 242.46 351.401 242.5 351.41Z" fill="#37474F"/>
<path opacity="0.1" d="M295.68 279.52L313.02 289.52C313.35 289.688 313.715 289.775 314.085 289.775C314.455 289.775 314.82 289.688 315.15 289.52L371.15 257.2C371.278 257.156 371.39 257.073 371.469 256.963C371.547 256.853 371.59 256.721 371.59 256.585C371.59 256.449 371.547 256.317 371.469 256.207C371.39 256.097 371.278 256.014 371.15 255.97L353.81 245.97C353.48 245.802 353.115 245.715 352.745 245.715C352.375 245.715 352.01 245.802 351.68 245.97L295.73 278.29C295.604 278.333 295.494 278.413 295.414 278.52C295.335 278.627 295.289 278.755 295.284 278.888C295.278 279.021 295.313 279.153 295.384 279.265C295.455 279.378 295.558 279.467 295.68 279.52V279.52Z" fill="black"/>
<path d="M296.72 276.77V276.39C296.742 276.055 296.844 275.73 297.018 275.443C297.193 275.155 297.433 274.914 297.72 274.74L347.83 245.74C348.125 245.587 348.453 245.508 348.785 245.508C349.118 245.508 349.445 245.587 349.74 245.74L365.27 254.74C365.556 254.918 365.796 255.161 365.97 255.45C366.144 255.738 366.247 256.064 366.27 256.4V256.78C366.248 257.115 366.146 257.44 365.972 257.727C365.798 258.015 365.557 258.256 365.27 258.43L315.16 287.43C314.864 287.578 314.537 287.655 314.205 287.655C313.874 287.655 313.547 287.578 313.25 287.43L297.72 278.43C297.434 278.252 297.194 278.009 297.021 277.72C296.847 277.432 296.744 277.106 296.72 276.77V276.77Z" fill="#263238"/>
<path d="M297.68 275.84L313.21 284.84C313.506 284.993 313.833 285.072 314.165 285.072C314.498 285.072 314.825 284.993 315.12 284.84L365.23 255.89C365.345 255.849 365.443 255.773 365.513 255.674C365.583 255.575 365.62 255.456 365.62 255.335C365.62 255.214 365.583 255.095 365.513 254.996C365.443 254.897 365.345 254.821 365.23 254.78L349.7 245.78C349.405 245.627 349.078 245.548 348.745 245.548C348.413 245.548 348.086 245.627 347.79 245.78L297.68 274.78C297.578 274.826 297.491 274.9 297.43 274.994C297.368 275.088 297.336 275.198 297.336 275.31C297.336 275.422 297.368 275.532 297.43 275.626C297.491 275.72 297.578 275.794 297.68 275.84V275.84Z" fill="#455A64"/>
<path opacity="0.1" d="M401.25 274.71L398.18 273C397.644 272.715 397.047 272.565 396.44 272.565C395.833 272.565 395.236 272.715 394.7 273L379.4 281.83L377.4 280.65C376.918 280.406 376.385 280.279 375.845 280.279C375.305 280.279 374.772 280.406 374.29 280.65L355.7 291.4C355.531 291.482 355.388 291.61 355.289 291.769C355.189 291.928 355.136 292.112 355.136 292.3C355.136 292.488 355.189 292.672 355.289 292.831C355.388 292.99 355.531 293.118 355.7 293.2L357.7 294.33L335.59 307.09C335.391 307.171 335.221 307.31 335.102 307.488C334.982 307.666 334.918 307.875 334.918 308.09C334.918 308.305 334.982 308.514 335.102 308.692C335.221 308.871 335.391 309.009 335.59 309.09L338.67 310.86C339.214 311.136 339.815 311.28 340.425 311.28C341.035 311.28 341.636 311.136 342.18 310.86L364.29 298.09C364.771 298.337 365.304 298.465 365.845 298.465C366.386 298.465 366.919 298.337 367.4 298.09L385.91 287.34C386.74 286.85 386.76 286.08 385.97 285.58L401.27 276.75C401.469 276.662 401.637 276.519 401.755 276.336C401.873 276.154 401.934 275.941 401.932 275.723C401.93 275.506 401.864 275.295 401.743 275.114C401.622 274.934 401.45 274.794 401.25 274.71Z" fill="black"/>
<path d="M392 262.33L396 213.48C396.033 212.698 395.866 211.922 395.516 211.222C395.166 210.522 394.645 209.923 394 209.48C393.274 209.129 392.475 208.955 391.669 208.97C390.863 208.986 390.072 209.191 389.36 209.57L335.86 240.46C335.154 240.922 334.555 241.529 334.103 242.241C333.651 242.954 333.357 243.754 333.24 244.59L329.24 293.45C329.207 294.232 329.373 295.009 329.723 295.709C330.072 296.409 330.595 297.008 331.24 297.45C331.964 297.801 332.761 297.975 333.566 297.96C334.37 297.944 335.16 297.739 335.87 297.36L389.37 266.47C390.081 266.01 390.683 265.402 391.137 264.687C391.591 263.973 391.886 263.169 392 262.33V262.33Z" fill="#263238"/>
<path d="M392 262.33L396 213.48C396.034 212.698 395.868 211.921 395.518 211.221C395.168 210.521 394.646 209.922 394 209.48C393.276 209.129 392.479 208.955 391.675 208.97C390.87 208.986 390.081 209.192 389.37 209.57L335.87 240.46C335.163 240.901 334.567 241.5 334.13 242.21L342.45 247.01V293.61L389.37 266.51C390.086 266.046 390.691 265.431 391.145 264.71C391.6 263.988 391.891 263.176 392 262.33V262.33Z" fill="#455A64"/>
<path d="M333.74 296L337.74 247.15C337.853 246.315 338.145 245.513 338.595 244.801C339.045 244.088 339.644 243.481 340.35 243.02L393.86 212.13C395.18 211.36 396.15 211.98 396.02 213.5L392.02 262.35C391.905 263.186 391.612 263.988 391.16 264.7C390.708 265.413 390.108 266.02 389.4 266.48L335.9 297.37C334.58 298.12 333.61 297.5 333.74 296Z" fill="#37474F"/>
<path d="M361.35 256.78C361.498 255.467 361.924 254.201 362.6 253.067C363.276 251.932 364.186 250.955 365.27 250.2C367.27 249.07 368.64 250.2 368.44 252.68C368.293 253.993 367.867 255.259 367.191 256.393C366.515 257.528 365.604 258.505 364.52 259.26C362.56 260.39 361.14 259.28 361.35 256.78Z" fill="#5BBD81"/>
<path d="M362.61 271.55L375.76 263.91L373.52 262.62L360.38 270.26L362.61 271.55Z" fill="#455A64"/>
<path d="M381.87 286.34L365.87 295.59C365.561 295.75 365.217 295.829 364.87 295.82C364.567 295.814 364.27 295.738 364 295.6L356.95 291.53C356.681 291.349 356.459 291.107 356.301 290.823C356.143 290.54 356.053 290.224 356.04 289.9V289.52C356.04 288.92 356.46 288.66 356.99 288.97L361.25 291.42L362.2 291.97L361.99 290.89L360.49 270.3L362.72 271.6L375.88 263.96L382.73 284.75C382.756 285.07 382.688 285.39 382.535 285.672C382.383 285.955 382.152 286.186 381.87 286.34Z" fill="#37474F"/>
<path d="M356.22 288.86L361.69 285.7L362.8 293.05L356.22 288.86Z" fill="black"/>
<path d="M362.61 271.56L360.38 270.26L361.88 290.85C362 291.45 361.66 291.69 361.14 291.38L356.88 288.93C356.35 288.62 355.93 288.88 355.93 289.48V289.86C355.944 290.184 356.033 290.5 356.191 290.783C356.349 291.067 356.571 291.309 356.84 291.49L363.89 295.56C364.16 295.698 364.457 295.774 364.76 295.78L362.61 271.56Z" fill="#263238"/>
<path opacity="0.15" d="M295.59 323.2C291.39 325.62 291.39 329.55 295.59 331.97C297.942 333.163 300.542 333.785 303.18 333.785C305.817 333.785 308.418 333.163 310.77 331.97C314.97 329.55 314.97 325.62 310.77 323.2C308.418 322.007 305.817 321.385 303.18 321.385C300.542 321.385 297.942 322.007 295.59 323.2Z" fill="black"/>
<path d="M309.86 328.13C313.51 324.4 315.66 315.13 312.09 312.13H294C290.44 315.08 292.58 324.38 296.23 328.13L296.33 328.23L296.46 328.36C296.563 328.464 296.673 328.561 296.79 328.65L296.87 328.72L297.15 328.93C297.3 329.039 297.457 329.139 297.62 329.23C299.306 330.083 301.17 330.528 303.06 330.528C304.95 330.528 306.813 330.083 308.5 329.23V329.23L308.98 328.93L309.23 328.73L309.34 328.65L309.66 328.36C309.711 328.318 309.758 328.272 309.8 328.22L309.86 328.13Z" fill="#37474F"/>
<path d="M295.54 311C291.41 313.39 291.41 317.26 295.54 319.64C297.863 320.822 300.433 321.438 303.04 321.438C305.647 321.438 308.217 320.822 310.54 319.64C314.67 317.26 314.67 313.39 310.54 311C308.217 309.818 305.647 309.202 303.04 309.202C300.433 309.202 297.863 309.818 295.54 311V311Z" fill="#455A64"/>
<path d="M297.46 312.05C294.38 313.83 294.38 316.71 297.46 318.49C299.187 319.368 301.097 319.825 303.035 319.825C304.972 319.825 306.882 319.368 308.61 318.49C311.68 316.71 311.68 313.83 308.61 312.05C306.881 311.177 304.972 310.723 303.035 310.723C301.098 310.723 299.189 311.177 297.46 312.05V312.05Z" fill="#263238"/>
<path d="M308.61 315.11C306.882 314.233 304.972 313.775 303.035 313.775C301.097 313.775 299.187 314.233 297.46 315.11C296.71 315.507 296.073 316.089 295.61 316.8C296.073 317.511 296.71 318.093 297.46 318.49C299.187 319.368 301.097 319.825 303.035 319.825C304.972 319.825 306.882 319.368 308.61 318.49C309.354 318.089 309.987 317.508 310.45 316.8C309.987 316.092 309.354 315.511 308.61 315.11V315.11Z" fill="#E0E0E0"/>
<path d="M308.84 301.4V315.09C308.795 315.602 308.613 316.093 308.314 316.512C308.015 316.93 307.61 317.261 307.14 317.47H307.06C306.251 317.904 305.37 318.189 304.46 318.31C303.512 318.45 302.548 318.45 301.6 318.31C300.69 318.189 299.809 317.904 299 317.47H298.92C298.45 317.261 298.044 316.93 297.745 316.512C297.446 316.093 297.265 315.602 297.22 315.09V301.4C297.22 299.859 297.832 298.381 298.921 297.292C300.011 296.202 301.489 295.59 303.03 295.59C304.571 295.59 306.048 296.202 307.138 297.292C308.228 298.381 308.84 299.859 308.84 301.4Z" fill="#5BBD81"/>
<path opacity="0.1" d="M303 295.58C301.775 295.942 300.711 296.711 299.983 297.76C299.256 298.81 298.909 300.076 299 301.35V317.5H298.92C298.45 317.291 298.044 316.96 297.745 316.542C297.446 316.123 297.265 315.632 297.22 315.12V301.4C297.22 299.863 297.827 298.389 298.91 297.299C299.993 296.208 301.463 295.591 303 295.58V295.58Z" fill="black"/>
<path opacity="0.1" d="M308.84 301.4V315.09C308.795 315.602 308.614 316.093 308.315 316.512C308.016 316.93 307.61 317.261 307.14 317.47H307.06V301.36C307.151 300.086 306.804 298.82 306.077 297.77C305.349 296.721 304.285 295.952 303.06 295.59V295.59C304.595 295.601 306.064 296.217 307.146 297.305C308.229 298.393 308.837 299.865 308.84 301.4V301.4Z" fill="black"/>
<g opacity="0.1">
<path opacity="0.1" d="M304.46 300.24V318.35C303.512 318.49 302.548 318.49 301.6 318.35V300.24C301.606 298.584 302.1 296.967 303.02 295.59C303.02 295.59 303.02 296.5 303.02 296.5V295.59C303.953 296.962 304.455 298.581 304.46 300.24V300.24Z" fill="black"/>
</g>
<path d="M304.46 318.54C304.434 318.541 304.408 318.537 304.384 318.529C304.36 318.52 304.338 318.506 304.319 318.488C304.3 318.47 304.285 318.449 304.275 318.425C304.265 318.401 304.26 318.376 304.26 318.35V316.79C304.262 316.739 304.285 316.69 304.322 316.655C304.359 316.62 304.408 316.6 304.46 316.6C304.51 316.6 304.559 316.62 304.594 316.656C304.63 316.691 304.65 316.74 304.65 316.79V318.35C304.651 318.375 304.647 318.401 304.638 318.424C304.629 318.448 304.615 318.47 304.597 318.488C304.579 318.506 304.558 318.519 304.534 318.529C304.51 318.538 304.485 318.541 304.46 318.54ZM301.6 317.54C301.548 317.537 301.5 317.515 301.465 317.478C301.429 317.441 301.41 317.391 301.41 317.34V315.79C301.403 315.761 301.403 315.73 301.41 315.701C301.417 315.672 301.43 315.644 301.448 315.621C301.467 315.597 301.491 315.578 301.518 315.565C301.545 315.552 301.575 315.546 301.605 315.546C301.635 315.546 301.664 315.552 301.692 315.565C301.719 315.578 301.742 315.597 301.761 315.621C301.78 315.644 301.793 315.672 301.8 315.701C301.806 315.73 301.806 315.761 301.8 315.79V317.34C301.8 317.393 301.779 317.444 301.741 317.481C301.704 317.519 301.653 317.54 301.6 317.54V317.54ZM304.46 315.44C304.407 315.44 304.356 315.419 304.318 315.381C304.281 315.344 304.26 315.293 304.26 315.24V313.69C304.26 313.637 304.281 313.586 304.318 313.549C304.356 313.511 304.407 313.49 304.46 313.49C304.486 313.49 304.511 313.495 304.535 313.505C304.559 313.516 304.58 313.53 304.598 313.549C304.616 313.568 304.629 313.59 304.638 313.614C304.647 313.638 304.651 313.664 304.65 313.69V315.24C304.651 315.266 304.647 315.292 304.638 315.316C304.629 315.34 304.616 315.362 304.598 315.381C304.58 315.4 304.559 315.415 304.535 315.425C304.511 315.435 304.486 315.44 304.46 315.44ZM301.6 314.44C301.548 314.437 301.5 314.415 301.465 314.378C301.429 314.341 301.41 314.291 301.41 314.24V312.69C301.403 312.661 301.403 312.63 301.41 312.601C301.417 312.572 301.43 312.544 301.448 312.521C301.467 312.497 301.491 312.478 301.518 312.465C301.545 312.452 301.575 312.446 301.605 312.446C301.635 312.446 301.664 312.452 301.692 312.465C301.719 312.478 301.742 312.497 301.761 312.521C301.78 312.544 301.793 312.572 301.8 312.601C301.806 312.63 301.806 312.661 301.8 312.69V314.24C301.797 314.291 301.775 314.34 301.738 314.375C301.701 314.41 301.651 314.43 301.6 314.43V314.44ZM304.46 312.34C304.407 312.34 304.356 312.319 304.318 312.281C304.281 312.244 304.26 312.193 304.26 312.14V310.59C304.26 310.537 304.281 310.486 304.318 310.449C304.356 310.411 304.407 310.39 304.46 310.39C304.486 310.39 304.511 310.395 304.535 310.405C304.559 310.416 304.58 310.43 304.598 310.449C304.616 310.468 304.629 310.49 304.638 310.514C304.647 310.538 304.651 310.564 304.65 310.59V312.14C304.65 312.19 304.63 312.239 304.594 312.274C304.559 312.31 304.51 312.33 304.46 312.33V312.34ZM301.6 311.34C301.548 311.337 301.5 311.315 301.465 311.278C301.429 311.241 301.41 311.191 301.41 311.14V309.59C301.41 309.54 301.43 309.491 301.465 309.456C301.501 309.42 301.549 309.4 301.6 309.4C301.626 309.399 301.651 309.403 301.676 309.412C301.7 309.42 301.722 309.434 301.741 309.452C301.759 309.47 301.774 309.491 301.784 309.515C301.795 309.539 301.8 309.564 301.8 309.59V311.14C301.795 311.19 301.772 311.235 301.735 311.269C301.698 311.302 301.65 311.32 301.6 311.32V311.34ZM304.46 309.24C304.407 309.24 304.356 309.219 304.318 309.181C304.281 309.144 304.26 309.093 304.26 309.04V307.49C304.26 307.437 304.281 307.386 304.318 307.349C304.356 307.311 304.407 307.29 304.46 307.29C304.486 307.29 304.511 307.295 304.535 307.305C304.559 307.316 304.58 307.33 304.598 307.349C304.616 307.368 304.629 307.39 304.638 307.414C304.647 307.438 304.651 307.464 304.65 307.49V309C304.654 309.027 304.652 309.055 304.645 309.082C304.637 309.109 304.624 309.133 304.606 309.154C304.588 309.175 304.565 309.192 304.54 309.203C304.515 309.215 304.487 309.22 304.46 309.22V309.24ZM301.6 308.24C301.55 308.238 301.503 308.217 301.468 308.182C301.433 308.147 301.412 308.1 301.41 308.05V306.49C301.41 306.44 301.43 306.391 301.465 306.356C301.501 306.32 301.549 306.3 301.6 306.3C301.626 306.299 301.651 306.303 301.676 306.312C301.7 306.32 301.722 306.334 301.741 306.352C301.759 306.37 301.774 306.391 301.784 306.415C301.795 306.439 301.8 306.464 301.8 306.49V308C301.801 308.027 301.797 308.054 301.788 308.08C301.778 308.105 301.764 308.128 301.745 308.148C301.726 308.168 301.704 308.183 301.679 308.194C301.654 308.205 301.627 308.21 301.6 308.21V308.24ZM304.46 306.14C304.407 306.14 304.356 306.119 304.318 306.081C304.281 306.044 304.26 305.993 304.26 305.94V304.39C304.26 304.337 304.281 304.286 304.318 304.249C304.356 304.211 304.407 304.19 304.46 304.19C304.486 304.19 304.511 304.195 304.535 304.205C304.559 304.216 304.58 304.23 304.598 304.249C304.616 304.268 304.629 304.29 304.638 304.314C304.647 304.338 304.651 304.364 304.65 304.39V305.94C304.645 305.987 304.623 306.03 304.588 306.062C304.552 306.093 304.507 306.11 304.46 306.11V306.14ZM301.6 305.14C301.55 305.138 301.503 305.117 301.468 305.082C301.433 305.047 301.412 305 301.41 304.95V303.39C301.41 303.34 301.43 303.291 301.465 303.256C301.501 303.22 301.549 303.2 301.6 303.2C301.626 303.199 301.651 303.203 301.676 303.212C301.7 303.22 301.722 303.234 301.741 303.252C301.759 303.27 301.774 303.291 301.784 303.315C301.795 303.339 301.8 303.364 301.8 303.39V304.95C301.788 304.994 301.762 305.033 301.726 305.06C301.69 305.087 301.645 305.101 301.6 305.1V305.14ZM304.46 303.04C304.407 303.04 304.356 303.019 304.318 302.981C304.281 302.944 304.26 302.893 304.26 302.84V301.29C304.26 301.264 304.265 301.239 304.275 301.215C304.285 301.191 304.3 301.17 304.319 301.152C304.338 301.134 304.36 301.12 304.384 301.112C304.408 301.103 304.434 301.099 304.46 301.1C304.485 301.099 304.51 301.103 304.534 301.112C304.558 301.121 304.579 301.135 304.597 301.152C304.615 301.17 304.629 301.192 304.638 301.216C304.647 301.239 304.651 301.265 304.65 301.29V302.84C304.643 302.885 304.619 302.926 304.585 302.955C304.55 302.985 304.505 303.001 304.46 303V303.04ZM301.6 302.04C301.55 302.038 301.503 302.017 301.468 301.982C301.433 301.947 301.412 301.9 301.41 301.85V300.29C301.412 300.24 301.433 300.193 301.468 300.158C301.503 300.123 301.55 300.102 301.6 300.1C301.651 300.1 301.701 300.12 301.738 300.155C301.775 300.19 301.797 300.239 301.8 300.29V301.85C301.788 301.894 301.762 301.933 301.726 301.96C301.69 301.987 301.645 302.001 301.6 302V302.04ZM304.44 299.94C304.39 299.94 304.342 299.922 304.305 299.889C304.268 299.855 304.245 299.81 304.24 299.76C304.203 299.256 304.116 298.757 303.98 298.27C303.97 298.22 303.979 298.168 304.004 298.124C304.03 298.079 304.071 298.046 304.12 298.03C304.145 298.023 304.171 298.02 304.197 298.023C304.223 298.026 304.248 298.035 304.27 298.048C304.293 298.061 304.312 298.079 304.328 298.1C304.343 298.121 304.354 298.145 304.36 298.17C304.499 298.68 304.589 299.203 304.63 299.73C304.633 299.756 304.63 299.782 304.622 299.807C304.615 299.831 304.602 299.854 304.585 299.874C304.568 299.894 304.548 299.91 304.524 299.921C304.501 299.932 304.476 299.939 304.45 299.94H304.44ZM301.75 298.94C301.698 298.93 301.653 298.901 301.623 298.858C301.593 298.815 301.581 298.762 301.59 298.71C301.692 298.192 301.839 297.683 302.03 297.19C302.05 297.143 302.086 297.105 302.132 297.083C302.178 297.061 302.231 297.056 302.28 297.07C302.329 297.09 302.368 297.129 302.388 297.177C302.409 297.226 302.41 297.281 302.39 297.33C302.21 297.801 302.07 298.286 301.97 298.78C301.954 298.823 301.922 298.858 301.881 298.878C301.841 298.899 301.794 298.903 301.75 298.89V298.94ZM303.65 296.94C303.612 296.942 303.575 296.932 303.543 296.912C303.511 296.893 303.486 296.864 303.47 296.83C303.338 296.537 303.188 296.253 303.02 295.98C302.984 296.008 302.94 296.024 302.895 296.024C302.849 296.024 302.805 296.008 302.77 295.98C302.727 295.951 302.697 295.907 302.686 295.857C302.674 295.807 302.683 295.754 302.71 295.71L302.86 295.48C302.902 295.437 302.96 295.412 303.02 295.41C303.068 295.394 303.121 295.394 303.17 295.41C303.404 295.771 303.611 296.149 303.79 296.54C303.802 296.563 303.809 296.588 303.81 296.614C303.812 296.639 303.809 296.665 303.8 296.689C303.792 296.714 303.779 296.736 303.761 296.755C303.744 296.774 303.723 296.789 303.7 296.8L303.65 296.94Z" fill="#FAFAFA"/>
<path d="M302.3 296C302.264 296.001 302.228 295.991 302.198 295.971C302.168 295.952 302.144 295.923 302.13 295.89C302.118 295.867 302.111 295.842 302.109 295.817C302.108 295.791 302.111 295.765 302.119 295.741C302.128 295.716 302.141 295.694 302.158 295.675C302.176 295.656 302.197 295.641 302.22 295.63C302.462 295.518 302.713 295.428 302.97 295.36C303.011 295.351 303.055 295.356 303.093 295.373C303.132 295.39 303.164 295.419 303.185 295.456C303.206 295.492 303.215 295.535 303.211 295.577C303.206 295.619 303.188 295.659 303.16 295.69V295.69C303.131 295.702 303.099 295.702 303.07 295.69C302.835 295.749 302.607 295.833 302.39 295.94L302.3 296Z" fill="#FAFAFA"/>
<path d="M299 315.44C298.948 315.437 298.9 315.415 298.865 315.378C298.829 315.341 298.81 315.291 298.81 315.24V313.77C298.803 313.741 298.803 313.71 298.81 313.681C298.816 313.652 298.83 313.624 298.848 313.601C298.867 313.577 298.891 313.558 298.918 313.545C298.945 313.532 298.975 313.526 299.005 313.526C299.035 313.526 299.064 313.532 299.091 313.545C299.119 313.558 299.142 313.577 299.161 313.601C299.18 313.624 299.193 313.652 299.2 313.681C299.206 313.71 299.206 313.741 299.2 313.77V315.24C299.2 315.293 299.179 315.344 299.141 315.381C299.104 315.419 299.053 315.44 299 315.44ZM299 312.44C298.95 312.438 298.903 312.417 298.868 312.382C298.833 312.347 298.812 312.3 298.81 312.25V310.77C298.803 310.741 298.803 310.71 298.81 310.681C298.816 310.652 298.83 310.624 298.848 310.601C298.867 310.577 298.891 310.558 298.918 310.545C298.945 310.532 298.975 310.526 299.005 310.526C299.035 310.526 299.064 310.532 299.091 310.545C299.119 310.558 299.142 310.577 299.161 310.601C299.18 310.624 299.193 310.652 299.2 310.681C299.206 310.71 299.206 310.741 299.2 310.77V312.25C299.204 312.279 299.202 312.308 299.194 312.336C299.186 312.364 299.172 312.389 299.153 312.411C299.134 312.433 299.11 312.451 299.084 312.462C299.057 312.474 299.029 312.48 299 312.48V312.44ZM299 309.44C298.949 309.44 298.901 309.42 298.865 309.384C298.83 309.349 298.81 309.3 298.81 309.25V307.77C298.81 307.72 298.83 307.671 298.865 307.636C298.901 307.6 298.949 307.58 299 307.58C299.025 307.579 299.051 307.583 299.075 307.591C299.1 307.6 299.122 307.614 299.141 307.632C299.159 307.65 299.174 307.671 299.184 307.695C299.194 307.719 299.2 307.744 299.2 307.77V309.25C299.215 309.281 299.221 309.316 299.218 309.35C299.214 309.385 299.202 309.418 299.181 309.445C299.16 309.473 299.133 309.495 299.101 309.508C299.069 309.521 299.034 309.525 299 309.52V309.44ZM299 306.49C298.948 306.487 298.9 306.465 298.865 306.428C298.829 306.391 298.81 306.341 298.81 306.29V304.81C298.812 304.76 298.833 304.713 298.868 304.678C298.903 304.643 298.95 304.622 299 304.62C299.051 304.62 299.1 304.64 299.138 304.675C299.175 304.71 299.197 304.759 299.2 304.81V306.29C299.214 306.322 299.219 306.357 299.216 306.391C299.212 306.426 299.2 306.459 299.179 306.487C299.159 306.515 299.132 306.538 299.101 306.552C299.069 306.567 299.034 306.573 299 306.57V306.49ZM299 303.49C298.948 303.487 298.9 303.465 298.865 303.428C298.829 303.391 298.81 303.341 298.81 303.29V301.82C298.803 301.791 298.803 301.76 298.81 301.731C298.816 301.702 298.83 301.674 298.848 301.651C298.867 301.627 298.891 301.608 298.918 301.595C298.945 301.582 298.975 301.576 299.005 301.576C299.035 301.576 299.064 301.582 299.091 301.595C299.119 301.608 299.142 301.627 299.161 301.651C299.18 301.674 299.193 301.702 299.2 301.731C299.206 301.76 299.206 301.791 299.2 301.82V303.29C299.226 303.322 299.241 303.362 299.243 303.403C299.245 303.445 299.235 303.486 299.213 303.521C299.191 303.556 299.159 303.583 299.121 303.599C299.082 303.615 299.04 303.619 299 303.61V303.49ZM299.05 300.49C299.025 300.487 299 300.48 298.978 300.468C298.956 300.456 298.937 300.44 298.921 300.42C298.905 300.401 298.893 300.378 298.886 300.354C298.879 300.33 298.877 300.305 298.88 300.28C298.933 299.776 299.044 299.279 299.21 298.8C299.233 298.76 299.27 298.73 299.313 298.714C299.357 298.698 299.404 298.698 299.448 298.713C299.492 298.729 299.528 298.759 299.552 298.798C299.577 298.838 299.586 298.884 299.58 298.93C299.423 299.38 299.319 299.846 299.27 300.32C299.306 300.352 299.33 300.396 299.336 300.444C299.343 300.492 299.331 300.541 299.304 300.582C299.278 300.622 299.237 300.651 299.19 300.664C299.143 300.676 299.093 300.671 299.05 300.65V300.49ZM300.05 297.74C300.014 297.75 299.976 297.75 299.94 297.74C299.898 297.71 299.87 297.665 299.861 297.615C299.852 297.565 299.862 297.513 299.89 297.47C300.168 297.051 300.505 296.674 300.89 296.35C300.907 296.332 300.928 296.318 300.952 296.308C300.975 296.299 301 296.294 301.025 296.294C301.05 296.294 301.075 296.299 301.098 296.308C301.121 296.318 301.142 296.332 301.16 296.35C301.179 296.368 301.195 296.389 301.205 296.414C301.216 296.438 301.221 296.464 301.221 296.49C301.221 296.516 301.216 296.542 301.205 296.566C301.195 296.591 301.179 296.612 301.16 296.63C300.781 296.914 300.444 297.251 300.16 297.63C300.18 297.68 300.18 297.737 300.159 297.787C300.139 297.838 300.099 297.878 300.05 297.9V297.74Z" fill="#FAFAFA"/>
<path d="M299 317.71C298.948 317.707 298.9 317.685 298.865 317.648C298.829 317.611 298.81 317.561 298.81 317.51V316.74C298.803 316.711 298.803 316.68 298.81 316.651C298.816 316.622 298.83 316.594 298.848 316.571C298.867 316.547 298.891 316.528 298.918 316.515C298.945 316.502 298.975 316.496 299.005 316.496C299.035 316.496 299.064 316.502 299.091 316.515C299.119 316.528 299.142 316.547 299.161 316.571C299.18 316.594 299.193 316.622 299.2 316.651C299.206 316.68 299.206 316.711 299.2 316.74V317.51C299.2 317.563 299.179 317.614 299.141 317.651C299.104 317.689 299.053 317.71 299 317.71Z" fill="#FAFAFA"/>
<path d="M303.75 296H303.67C303.456 295.894 303.231 295.81 303 295.75C302.959 295.74 302.921 295.719 302.89 295.69C302.849 295.661 302.821 295.617 302.813 295.567C302.804 295.517 302.816 295.466 302.845 295.425C302.874 295.384 302.919 295.356 302.968 295.348C303.018 295.339 303.069 295.351 303.11 295.38C303.359 295.439 303.601 295.527 303.83 295.64C303.854 295.65 303.876 295.664 303.895 295.683C303.913 295.702 303.927 295.724 303.937 295.748C303.946 295.773 303.95 295.799 303.949 295.825C303.948 295.851 303.942 295.877 303.93 295.9C303.913 295.932 303.887 295.959 303.855 295.977C303.823 295.994 303.787 296.002 303.75 296V296Z" fill="#FAFAFA"/>
<path d="M307.06 315.44C307.007 315.44 306.956 315.419 306.918 315.381C306.881 315.344 306.86 315.293 306.86 315.24V313.77C306.86 313.717 306.881 313.666 306.918 313.629C306.956 313.591 307.007 313.57 307.06 313.57C307.086 313.57 307.111 313.575 307.135 313.585C307.159 313.596 307.18 313.61 307.198 313.629C307.216 313.648 307.229 313.67 307.238 313.694C307.247 313.718 307.251 313.744 307.25 313.77V315.24C307.251 315.266 307.247 315.292 307.238 315.316C307.229 315.34 307.216 315.362 307.198 315.381C307.18 315.4 307.159 315.415 307.135 315.425C307.111 315.435 307.086 315.44 307.06 315.44V315.44ZM307.06 312.44C307.008 312.44 306.959 312.42 306.922 312.385C306.885 312.35 306.862 312.301 306.86 312.25V310.77C306.86 310.717 306.881 310.666 306.918 310.629C306.956 310.591 307.007 310.57 307.06 310.57C307.086 310.57 307.111 310.575 307.135 310.585C307.159 310.596 307.18 310.61 307.198 310.629C307.216 310.648 307.229 310.67 307.238 310.694C307.247 310.718 307.251 310.744 307.25 310.77V312.25C307.256 312.278 307.255 312.307 307.249 312.335C307.242 312.363 307.229 312.389 307.211 312.411C307.192 312.433 307.169 312.451 307.143 312.463C307.117 312.475 307.088 312.481 307.06 312.48V312.44ZM307.06 309.44C307.034 309.441 307.008 309.437 306.984 309.429C306.96 309.42 306.938 309.406 306.919 309.388C306.9 309.37 306.885 309.349 306.875 309.325C306.865 309.301 306.86 309.276 306.86 309.25V307.77C306.86 307.717 306.881 307.666 306.918 307.629C306.956 307.591 307.007 307.57 307.06 307.57C307.086 307.57 307.111 307.575 307.135 307.585C307.159 307.596 307.18 307.61 307.198 307.629C307.216 307.648 307.229 307.67 307.238 307.694C307.247 307.718 307.251 307.744 307.25 307.77V309.25C307.268 309.28 307.277 309.315 307.276 309.35C307.275 309.385 307.263 309.419 307.243 309.447C307.223 309.476 307.195 309.498 307.162 309.511C307.13 309.524 307.094 309.527 307.06 309.52V309.44ZM307.06 306.44C307.034 306.441 307.008 306.437 306.984 306.429C306.96 306.42 306.938 306.406 306.919 306.388C306.9 306.37 306.885 306.349 306.875 306.325C306.865 306.301 306.86 306.276 306.86 306.25V304.77C306.86 304.744 306.865 304.719 306.875 304.695C306.885 304.671 306.9 304.65 306.919 304.632C306.938 304.614 306.96 304.6 306.984 304.592C307.008 304.583 307.034 304.579 307.06 304.58C307.085 304.579 307.11 304.582 307.134 304.592C307.158 304.601 307.179 304.615 307.197 304.632C307.215 304.65 307.229 304.672 307.238 304.696C307.247 304.719 307.251 304.745 307.25 304.77V306.25C307.291 306.275 307.32 306.316 307.332 306.363C307.343 306.409 307.335 306.459 307.31 306.5C307.285 306.541 307.244 306.571 307.197 306.582C307.15 306.593 307.101 306.585 307.06 306.56V306.44ZM307.06 303.49C307.007 303.49 306.956 303.469 306.918 303.431C306.881 303.394 306.86 303.343 306.86 303.29V301.81C306.862 301.759 306.885 301.71 306.922 301.675C306.959 301.64 307.008 301.62 307.06 301.62C307.11 301.62 307.158 301.64 307.194 301.676C307.23 301.711 307.25 301.76 307.25 301.81V303.29C307.282 303.319 307.303 303.359 307.31 303.402C307.316 303.446 307.307 303.49 307.285 303.527C307.263 303.565 307.228 303.594 307.187 303.609C307.146 303.624 307.101 303.624 307.06 303.61V303.49ZM307.01 300.49C306.963 300.49 306.917 300.473 306.882 300.442C306.847 300.41 306.825 300.367 306.82 300.32C306.764 299.843 306.656 299.374 306.5 298.92C306.484 298.871 306.487 298.817 306.509 298.771C306.532 298.724 306.571 298.688 306.62 298.67C306.669 298.656 306.721 298.661 306.767 298.683C306.813 298.705 306.85 298.743 306.87 298.79C307.033 299.27 307.144 299.766 307.2 300.27C307.204 300.296 307.203 300.322 307.196 300.347C307.19 300.373 307.179 300.396 307.163 300.417C307.147 300.438 307.127 300.455 307.104 300.467C307.081 300.48 307.056 300.488 307.03 300.49H307.01ZM306.01 297.74C305.979 297.739 305.948 297.732 305.921 297.718C305.893 297.704 305.869 297.684 305.85 297.66C305.568 297.264 305.232 296.91 304.85 296.61C304.832 296.592 304.818 296.571 304.808 296.548C304.798 296.525 304.793 296.5 304.793 296.475C304.793 296.45 304.798 296.425 304.808 296.402C304.818 296.379 304.832 296.358 304.85 296.34C304.887 296.306 304.935 296.288 304.985 296.288C305.035 296.288 305.083 296.306 305.12 296.34C305.5 296.668 305.836 297.045 306.12 297.46C306.135 297.481 306.145 297.505 306.151 297.53C306.157 297.555 306.157 297.58 306.152 297.606C306.148 297.631 306.138 297.655 306.124 297.676C306.11 297.698 306.091 297.716 306.07 297.73C306.079 297.762 306.077 297.796 306.064 297.827C306.051 297.858 306.029 297.883 306 297.9L306.01 297.74Z" fill="#FAFAFA"/>
<path d="M307.06 317.71C307.007 317.71 306.956 317.689 306.918 317.651C306.881 317.614 306.86 317.563 306.86 317.51V316.74C306.86 316.687 306.881 316.636 306.918 316.599C306.956 316.561 307.007 316.54 307.06 316.54C307.086 316.54 307.111 316.545 307.135 316.555C307.159 316.566 307.18 316.58 307.198 316.599C307.216 316.618 307.229 316.64 307.238 316.664C307.247 316.688 307.251 316.714 307.25 316.74V317.51C307.251 317.536 307.247 317.562 307.238 317.586C307.229 317.61 307.216 317.632 307.198 317.651C307.18 317.67 307.159 317.685 307.135 317.695C307.111 317.705 307.086 317.71 307.06 317.71V317.71Z" fill="#FAFAFA"/>
</svg>
