<svg viewBox="0 0 46 49" fill="none" xmlns="http://www.w3.org/2000/svg">
<path d="M39.0798 0.250028L1.45978 21.92C1.18995 22.0973 0.965343 22.3352 0.803864 22.6147C0.642384 22.8943 0.548516 23.2077 0.529785 23.53V44.53C0.543945 44.8545 0.63694 45.1707 0.80072 45.4513C0.964501 45.7318 1.19414 45.9682 1.46979 46.14L5.17978 48.25C5.47007 48.3952 5.79019 48.4708 6.11478 48.4708C6.43936 48.4708 6.75948 48.3952 7.04977 48.25L44.6698 26.58C44.9404 26.4012 45.1654 26.1616 45.3269 25.8803C45.4884 25.599 45.5818 25.2839 45.5998 24.96V4.00003C45.5856 3.67551 45.4926 3.35931 45.3289 3.07879C45.1651 2.79828 44.9354 2.56188 44.6598 2.39003L40.9998 0.240034C40.7022 0.0881312 40.3726 0.00976304 40.0386 0.011503C39.7045 0.0132429 39.3757 0.0950347 39.0798 0.250028V0.250028Z" fill="#5BBD81"/>
<path opacity="0.15" d="M6.82977 48.34C6.56355 48.4404 6.2794 48.4842 5.99533 48.4687C5.71126 48.4532 5.43351 48.3787 5.17978 48.25L1.46979 46.14C1.19549 45.9691 0.966686 45.7343 0.802979 45.4557C0.639271 45.177 0.545537 44.8628 0.529785 44.54V23.54C0.53878 23.1873 0.638677 22.8429 0.819794 22.54L6.3898 25.75C6.22654 26.0303 6.13385 26.346 6.11978 26.67V47.67C6.11978 48.21 6.42977 48.46 6.82977 48.34Z" fill="black"/>
<g opacity="0.5">
<path opacity="0.5" d="M45.5898 3.79004C45.5098 3.32004 45.1298 3.15004 44.6598 3.42004L7.0498 25.09C6.77222 25.2615 6.54463 25.5029 6.38983 25.79L0.819824 22.58C0.974224 22.3097 1.19434 22.0827 1.45981 21.92L39.0798 0.250046C39.3701 0.104837 39.6902 0.0292358 40.0148 0.0292358C40.3394 0.0292358 40.6595 0.104837 40.9498 0.250046L44.6598 2.36005C44.9071 2.51913 45.1178 2.72883 45.2781 2.97533C45.4384 3.22182 45.5447 3.49949 45.5898 3.79004V3.79004Z" fill="white"/>
</g>
<path d="M44.6696 3.42005L7.04962 25.09C6.77979 25.2673 6.55519 25.5052 6.39371 25.7848C6.23223 26.0643 6.13836 26.3778 6.11963 26.7V47.7C6.11963 48.3 6.53962 48.5401 7.04962 48.2401L44.6696 26.5701C44.9402 26.3912 45.1652 26.1516 45.3267 25.8703C45.4882 25.589 45.5817 25.2739 45.5996 24.95V4.00005C45.5996 3.36005 45.1796 3.12005 44.6696 3.42005Z" fill="#5BBD81"/>
</svg>
