<svg width="24" height="24" viewBox="0 0 24 24" fill="none" xmlns="http://www.w3.org/2000/svg">
<rect width="24" height="24" fill="white" fill-opacity="0.01"/>
<path d="M19.004 17C19 17 19 7.006 19 7.006C19 7 4.996 7 4.996 7C5 7 5 16.994 5 16.994C5 17 19.004 17 19.004 17ZM3 7.006C2.99921 6.74327 3.0502 6.48296 3.15004 6.23994C3.24988 5.99693 3.39663 5.77596 3.5819 5.58967C3.76716 5.40339 3.98732 5.25543 4.22978 5.15425C4.47225 5.05307 4.73227 5.00066 4.995 5H19.005C19.2677 5.00066 19.5278 5.05307 19.7702 5.15425C20.0127 5.25543 20.2328 5.40339 20.4181 5.58967C20.6034 5.77596 20.7501 5.99693 20.85 6.23994C20.9498 6.48296 21.0008 6.74327 21 7.006V16.994C21.0008 17.2567 20.9498 17.517 20.85 17.7601C20.7501 18.0031 20.6034 18.224 20.4181 18.4103C20.2328 18.5966 20.0127 18.7446 19.7702 18.8458C19.5278 18.9469 19.2677 18.9993 19.005 19H4.995C4.73227 18.9993 4.47225 18.9469 4.22978 18.8458C3.98732 18.7446 3.76716 18.5966 3.5819 18.4103C3.39663 18.224 3.24988 18.0031 3.15004 17.7601C3.0502 17.517 2.99921 17.2567 3 16.994V7.006Z" fill="#42526E"/>
<path fill-rule="evenodd" clip-rule="evenodd" d="M4 6H20V11H4V6ZM9 8C9 8.556 9.446 9 9.995 9H18.005C18.545 9 19 8.552 19 8C19 7.444 18.554 7 18.005 7H9.995C9.455 7 9 7.448 9 8ZM5 8C5 8.556 5.448 9 6 9C6.556 9 7 8.552 7 8C7 7.444 6.552 7 6 7C5.444 7 5 7.448 5 8Z" fill="#42526E"/>
</svg>
