<svg width="24" height="24" viewBox="0 0 24 24" fill="none" xmlns="http://www.w3.org/2000/svg">
<rect width="24" height="24" fill="white" fill-opacity="0.01"/>
<path fill-rule="evenodd" clip-rule="evenodd" d="M22 12C22 17.5228 17.5228 22 12 22C6.47715 22 2 17.5228 2 12C2 6.47715 6.47715 2 12 2C17.5228 2 22 6.47715 22 12ZM11.046 11.046V7.95803C11.046 7.83275 11.0707 7.70869 11.1186 7.59295C11.1666 7.4772 11.2368 7.37204 11.3254 7.28345C11.414 7.19486 11.5192 7.12459 11.6349 7.07665C11.7507 7.0287 11.8747 7.00403 12 7.00403C12.1253 7.00403 12.2493 7.0287 12.3651 7.07665C12.4808 7.12459 12.586 7.19486 12.6746 7.28345C12.7632 7.37204 12.8334 7.4772 12.8814 7.59295C12.9293 7.70869 12.954 7.83275 12.954 7.95803V11.046H16.042C16.1673 11.046 16.2913 11.0707 16.4071 11.1186C16.5228 11.1666 16.628 11.2369 16.7166 11.3254C16.8052 11.414 16.8754 11.5192 16.9234 11.6349C16.9713 11.7507 16.996 11.8747 16.996 12C16.996 12.1253 16.9713 12.2494 16.9234 12.3651C16.8754 12.4809 16.8052 12.586 16.7166 12.6746C16.628 12.7632 16.5228 12.8335 16.4071 12.8814C16.2913 12.9294 16.1673 12.954 16.042 12.954H12.954V16.042C12.954 16.1673 12.9293 16.2914 12.8814 16.4071C12.8334 16.5229 12.7632 16.628 12.6746 16.7166C12.586 16.8052 12.4808 16.8755 12.3651 16.9234C12.2493 16.9714 12.1253 16.996 12 16.996C11.8747 16.996 11.7507 16.9714 11.6349 16.9234C11.5192 16.8755 11.414 16.8052 11.3254 16.7166C11.2368 16.628 11.1666 16.5229 11.1186 16.4071C11.0707 16.2914 11.046 16.1673 11.046 16.042V12.954H7.958C7.83272 12.954 7.70866 12.9294 7.59292 12.8814C7.47717 12.8335 7.372 12.7632 7.28342 12.6746C7.19483 12.586 7.12456 12.4809 7.07662 12.3651C7.02867 12.2494 7.004 12.1253 7.004 12C7.004 11.8747 7.02867 11.7507 7.07662 11.6349C7.12456 11.5192 7.19483 11.414 7.28342 11.3254C7.372 11.2369 7.47717 11.1666 7.59292 11.1186C7.70866 11.0707 7.83272 11.046 7.958 11.046H11.046Z" fill="#42526E"/>
</svg>
