<svg width="24" height="24" viewBox="0 0 24 24" fill="none" xmlns="http://www.w3.org/2000/svg">
<rect width="24" height="24" fill="white" fill-opacity="0.01"/>
<path fill-rule="evenodd" clip-rule="evenodd" d="M5.376 6.455L10.624 3.351C11.416 2.882 12.587 2.884 13.376 3.351L18.624 6.455C19.416 6.923 20 7.962 20 8.895V15.105C20 16.041 19.413 17.078 18.624 17.545L13.376 20.649C12.584 21.118 11.413 21.116 10.624 20.649L5.376 17.545C4.584 17.077 4 16.038 4 15.105V8.895C4 7.959 4.587 6.922 5.376 6.455ZM12.366 5.141C12.201 5.043 11.8 5.043 11.633 5.141L6.385 8.245C6.219 8.343 6.018 8.699 6.018 8.895V15.105C6.018 15.3 6.218 15.656 6.385 15.755L11.633 18.859C11.799 18.957 12.2 18.957 12.367 18.859L17.615 15.755C17.781 15.657 17.982 15.301 17.982 15.105V8.895C17.982 8.7 17.782 8.344 17.615 8.245L12.366 5.141Z" fill="#42526E"/>
<path fill-rule="evenodd" clip-rule="evenodd" d="M12 16C10.9391 16 9.92172 15.5786 9.17157 14.8284C8.42143 14.0783 8 13.0609 8 12C8 10.9391 8.42143 9.92172 9.17157 9.17157C9.92172 8.42143 10.9391 8 12 8C13.0609 8 14.0783 8.42143 14.8284 9.17157C15.5786 9.92172 16 10.9391 16 12C16 13.0609 15.5786 14.0783 14.8284 14.8284C14.0783 15.5786 13.0609 16 12 16ZM12 14C12.5304 14 13.0391 13.7893 13.4142 13.4142C13.7893 13.0391 14 12.5304 14 12C14 11.4696 13.7893 10.9609 13.4142 10.5858C13.0391 10.2107 12.5304 10 12 10C11.4696 10 10.9609 10.2107 10.5858 10.5858C10.2107 10.9609 10 11.4696 10 12C10 12.5304 10.2107 13.0391 10.5858 13.4142C10.9609 13.7893 11.4696 14 12 14Z" fill="#42526E"/>
</svg>
