<svg width="24" height="24" viewBox="0 0 24 24" fill="none" xmlns="http://www.w3.org/2000/svg">
<rect width="24" height="24" fill="white" fill-opacity="0.01"/>
<path fill-rule="evenodd" clip-rule="evenodd" d="M12.682 12H5.01C4.47832 11.9989 3.96797 12.209 3.59108 12.584C3.21419 12.959 3.00159 13.4683 3 14V18.446C3 20.608 7.836 21.397 11.368 20.814C10.4817 19.7408 9.99785 18.3919 10 17C9.99932 16.0099 10.2439 15.0351 10.7119 14.1626C11.1799 13.2901 11.8568 12.5471 12.682 12Z" fill="#42526E"/>
<path d="M9 11C11.2091 11 13 9.20914 13 7C13 4.79086 11.2091 3 9 3C6.79086 3 5 4.79086 5 7C5 9.20914 6.79086 11 9 11Z" fill="#42526E"/>
<path fill-rule="evenodd" clip-rule="evenodd" d="M21 17C21 19.7614 18.7614 22 16 22C13.2386 22 11 19.7614 11 17C11 14.2386 13.2386 12 16 12C18.7614 12 21 14.2386 21 17ZM15.974 19.331C15.615 19.691 15.034 19.691 14.674 19.331L13.268 17.926C13.107 17.7514 13.0198 17.5212 13.0246 17.2838C13.0295 17.0463 13.126 16.8199 13.2939 16.6519C13.4619 16.484 13.6883 16.3875 13.9257 16.3827C14.1632 16.3778 14.3934 16.465 14.568 16.626L15.323 17.38L17.431 15.27C17.6058 15.1112 17.835 15.0258 18.0711 15.0313C18.3072 15.0369 18.5321 15.133 18.6993 15.2998C18.8665 15.4666 18.9631 15.6913 18.9692 15.9274C18.9753 16.1635 18.8904 16.3928 18.732 16.568L15.974 19.331Z" fill="#42526E"/>
</svg>
