<svg width="24" height="24" viewBox="0 0 24 24" fill="none" xmlns="http://www.w3.org/2000/svg">
<rect width="24" height="24" fill="white" fill-opacity="0.01"/>
<path fill-rule="evenodd" clip-rule="evenodd" d="M22 12C22 17.5228 17.5228 22 12 22C6.47715 22 2 17.5228 2 12C2 6.47715 6.47715 2 12 2C17.5228 2 22 6.47715 22 12ZM10.994 13.586V8C10.994 7.448 11.445 7 12 7C12.555 7 13.005 7.448 13.005 8V13.586L14.284 12.314C14.4731 12.1268 14.7284 12.0218 14.9945 12.0218C15.2606 12.0218 15.5159 12.1268 15.705 12.314C15.7984 12.4068 15.8725 12.5171 15.923 12.6386C15.9736 12.7601 15.9996 12.8904 15.9996 13.022C15.9996 13.1536 15.9736 13.2839 15.923 13.4054C15.8725 13.5269 15.7984 13.6372 15.705 13.73L12.711 16.707C12.5218 16.8948 12.2661 17.0002 11.9995 17.0002C11.7329 17.0002 11.4772 16.8948 11.288 16.707L8.294 13.73C8.20063 13.6372 8.12654 13.5269 8.07597 13.4054C8.02541 13.2839 7.99938 13.1536 7.99938 13.022C7.99938 12.8904 8.02541 12.7601 8.07597 12.6386C8.12654 12.5171 8.20063 12.4068 8.294 12.314C8.4831 12.1268 8.73843 12.0218 9.0045 12.0218C9.27057 12.0218 9.5259 12.1268 9.715 12.314L10.994 13.586Z" fill="#42526E"/>
</svg>
