<svg width="24" height="24" viewBox="0 0 24 24" fill="none" xmlns="http://www.w3.org/2000/svg">
<rect width="24" height="24" fill="white" fill-opacity="0.01"/>
<path fill-rule="evenodd" clip-rule="evenodd" d="M22 12C22 17.5228 17.5228 22 12 22C6.47715 22 2 17.5228 2 12C2 6.47715 6.47715 2 12 2C17.5228 2 22 6.47715 22 12ZM8.294 10.27L11.288 7.29297C11.4772 7.10519 11.7329 6.99982 11.9995 6.99982C12.2661 6.99982 12.5218 7.10519 12.711 7.29297L15.705 10.27C15.7984 10.3627 15.8725 10.473 15.923 10.5945C15.9736 10.7161 15.9996 10.8464 15.9996 10.978C15.9996 11.1096 15.9736 11.2399 15.923 11.3614C15.8725 11.4829 15.7984 11.5932 15.705 11.686C15.5159 11.8731 15.2606 11.9781 14.9945 11.9781C14.7284 11.9781 14.4731 11.8731 14.284 11.686L13.005 10.414V16C13.005 16.552 12.555 17 12 17C11.445 17 10.994 16.552 10.994 16V10.414L9.715 11.686C9.52589 11.8731 9.27057 11.9781 9.0045 11.9781C8.73843 11.9781 8.4831 11.8731 8.294 11.686C8.1064 11.4981 8.00104 11.2435 8.00104 10.978C8.00104 10.7125 8.1064 10.4578 8.294 10.27Z" fill="#42526E"/>
</svg>
