<svg width="24" height="24" viewBox="0 0 24 24" fill="none" xmlns="http://www.w3.org/2000/svg">
<rect width="24" height="24" fill="white" fill-opacity="0.01"/>
<path fill-rule="evenodd" clip-rule="evenodd" d="M11 6V15.586L7.207 11.793C7.11422 11.7001 7.00401 11.6263 6.8827 11.576C6.76138 11.5257 6.63134 11.4998 6.5 11.4998C6.36867 11.4998 6.23862 11.5257 6.11731 11.576C5.996 11.6263 5.88579 11.7001 5.793 11.793C5.403 12.183 5.403 12.817 5.793 13.208L11.293 18.707C11.3856 18.8002 11.4958 18.8741 11.6171 18.9243C11.7385 18.9746 11.8686 19.0004 12 19C12.1314 19.0004 12.2615 18.9746 12.3829 18.9243C12.5042 18.8741 12.6144 18.8002 12.707 18.707L18.207 13.208C18.2999 13.1152 18.3736 13.0049 18.4239 12.8836C18.4742 12.7623 18.5002 12.6322 18.5002 12.5009C18.5003 12.3695 18.4744 12.2394 18.4242 12.1181C18.374 11.9967 18.3003 11.8864 18.2075 11.7935C18.1147 11.7006 18.0044 11.6269 17.8831 11.5766C17.7618 11.5263 17.6317 11.5003 17.5004 11.5003C17.369 11.5003 17.2389 11.5261 17.1176 11.5763C16.9962 11.6265 16.8859 11.7002 16.793 11.793L13 15.586V6C13 5.73478 12.8946 5.48043 12.7071 5.29289C12.5196 5.10536 12.2652 5 12 5C11.7348 5 11.4804 5.10536 11.2929 5.29289C11.1054 5.48043 11 5.73478 11 6Z" fill="#42526E"/>
</svg>
