<svg width="24" height="24" viewBox="0 0 24 24" fill="none" xmlns="http://www.w3.org/2000/svg">
<rect width="24" height="24" fill="white" fill-opacity="0.01"/>
<path fill-rule="evenodd" clip-rule="evenodd" d="M22 12C22 17.5228 17.5228 22 12 22C6.47715 22 2 17.5228 2 12C2 6.47715 6.47715 2 12 2C17.5228 2 22 6.47715 22 12ZM12.0213 9.005C12.0213 8.73868 12.1265 8.48314 12.314 8.294C12.4067 8.20078 12.517 8.12681 12.6384 8.07634C12.7598 8.02586 12.89 7.99988 13.0215 7.99988C13.153 7.99988 13.2832 8.02586 13.4046 8.07634C13.526 8.12681 13.6363 8.20078 13.729 8.294L16.707 11.289C16.8945 11.4781 16.9997 11.7337 16.9997 12C16.9997 12.2663 16.8945 12.5219 16.707 12.711L13.729 15.706C13.5413 15.8935 13.2868 15.9989 13.0215 15.9989C12.7562 15.9989 12.5017 15.8935 12.314 15.706C12.1265 15.5169 12.0213 15.2613 12.0213 14.995C12.0213 14.7287 12.1265 14.4731 12.314 14.284L13.585 13.005H7.99999C7.44699 13.005 6.99899 12.555 6.99899 12C6.99899 11.445 7.44699 10.995 7.99999 10.995H13.585L12.314 9.716C12.1265 9.52685 12.0213 9.27131 12.0213 9.005Z" fill="#42526E"/>
</svg>
