<svg width="24" height="24" viewBox="0 0 24 24" fill="none" xmlns="http://www.w3.org/2000/svg">
<rect width="24" height="24" fill="white" fill-opacity="0.01"/>
<path fill-rule="evenodd" clip-rule="evenodd" d="M22 12C22 17.5228 17.5228 22 12 22C6.47715 22 2 17.5228 2 12C2 6.47715 6.47715 2 12 2C17.5228 2 22 6.47715 22 12ZM10.414 10.995H16C16.552 10.995 17 11.445 17 12C17 12.555 16.552 13.005 16 13.005H10.414L11.686 14.284C11.8732 14.4731 11.9782 14.7284 11.9782 14.9945C11.9782 15.2606 11.8732 15.5159 11.686 15.705C11.5932 15.7981 11.4829 15.872 11.3615 15.9224C11.2401 15.9728 11.11 15.9987 10.9785 15.9987C10.847 15.9987 10.7169 15.9728 10.5955 15.9224C10.4741 15.872 10.3638 15.7981 10.271 15.705L7.293 12.712C7.10522 12.5228 6.99985 12.2671 6.99985 12.0005C6.99985 11.734 7.10522 11.4782 7.293 11.289L10.271 8.29502C10.3636 8.20156 10.4738 8.12738 10.5952 8.07675C10.7167 8.02613 10.8469 8.00006 10.9785 8.00006C11.1101 8.00006 11.2403 8.02613 11.3618 8.07675C11.4832 8.12738 11.5934 8.20156 11.686 8.29502C11.8732 8.48412 11.9782 8.73945 11.9782 9.00552C11.9782 9.27159 11.8732 9.52691 11.686 9.71602L10.414 10.995Z" fill="#42526E"/>
</svg>
