<svg width="24" height="24" viewBox="0 0 24 24" fill="none" xmlns="http://www.w3.org/2000/svg">
<rect width="24" height="24" fill="white" fill-opacity="0.01"/>
<path fill-rule="evenodd" clip-rule="evenodd" d="M11.643 17.965C10.113 19.46 7.627 19.461 6.101 17.969C5.73922 17.6173 5.45169 17.1965 5.25541 16.7316C5.05913 16.2667 4.95809 15.7672 4.95828 15.2626C4.95846 14.758 5.05987 14.2586 5.25649 13.7938C5.45312 13.3291 5.74096 12.9085 6.103 12.557L13.25 5.57203C13.6821 5.15009 14.2619 4.91364 14.8659 4.91308C15.4698 4.91252 16.0501 5.1479 16.483 5.56903C17.376 6.44203 17.378 7.85103 16.487 8.72203L9.784 15.272C9.6609 15.3906 9.49625 15.4561 9.32537 15.4546C9.15449 15.4531 8.99101 15.3847 8.87 15.264C8.80856 15.2061 8.75961 15.1362 8.72615 15.0586C8.6927 14.9811 8.67544 14.8975 8.67544 14.813C8.67544 14.7286 8.6927 14.645 8.72615 14.5674C8.75961 14.4899 8.80856 14.42 8.87 14.362L15.099 8.27503C15.1898 8.18728 15.2619 8.08216 15.3112 7.96594C15.3605 7.84972 15.3859 7.72477 15.3859 7.59853C15.3859 7.47229 15.3605 7.34734 15.3112 7.23112C15.2619 7.1149 15.1898 7.00978 15.099 6.92203C14.9134 6.74241 14.6653 6.64199 14.407 6.64199C14.1487 6.64199 13.9006 6.74241 13.715 6.92203L7.485 13.009C7.24221 13.2425 7.04906 13.5226 6.91713 13.8325C6.78519 14.1424 6.71718 14.4757 6.71718 14.8125C6.71718 15.1493 6.78519 15.4827 6.91713 15.7926C7.04906 16.1025 7.24221 16.3826 7.485 16.616C7.9771 17.0964 8.63702 17.366 9.32468 17.3677C10.0123 17.3693 10.6736 17.1029 11.168 16.625L17.871 10.075C18.2639 9.6949 18.5763 9.23958 18.7896 8.73618C19.0029 8.23278 19.1126 7.6916 19.1123 7.14489C19.1121 6.59818 19.0017 6.05712 18.788 5.55394C18.5742 5.05076 18.2613 4.59576 17.868 4.21603C17.0639 3.43536 15.9871 2.99895 14.8664 2.99951C13.7457 3.00007 12.6693 3.43756 11.866 4.21903L4.718 11.204C4.17452 11.7311 3.7424 12.362 3.44728 13.0592C3.15216 13.7564 3.00005 14.5057 2.99995 15.2628C2.99986 16.0199 3.15179 16.7693 3.44674 17.4666C3.74169 18.1639 4.17365 18.7948 4.717 19.322C7.007 21.561 10.732 21.56 13.027 19.317L19.713 12.784C19.8038 12.6963 19.8759 12.5912 19.9252 12.4749C19.9745 12.3587 19.9999 12.2338 19.9999 12.1075C19.9999 11.9813 19.9745 11.8563 19.9252 11.7401C19.8759 11.6239 19.8038 11.5188 19.713 11.431C19.5274 11.2514 19.2793 11.151 19.021 11.151C18.7627 11.151 18.5146 11.2514 18.329 11.431L11.643 17.965Z" fill="#42526E"/>
</svg>
