<svg width="24" height="24" viewBox="0 0 24 24" fill="none" xmlns="http://www.w3.org/2000/svg">
<rect width="24" height="24" fill="white" fill-opacity="0.01"/>
<path d="M19 6.67298V15.2C19 15.9426 18.705 16.6548 18.1799 17.1799C17.6548 17.705 16.9426 18 16.2 18H15.8C15.0574 18 14.3452 17.705 13.8201 17.1799C13.295 16.6548 13 15.9426 13 15.2V14.8C13 14.0574 13.295 13.3452 13.8201 12.8201C14.3452 12.295 15.0574 12 15.8 12H16.2C16.478 12 16.747 12.04 17 12.116V8.24198L11 8.86298V16.2C11 16.5677 10.9276 16.9318 10.7869 17.2715C10.6461 17.6112 10.4399 17.9199 10.1799 18.1799C9.9199 18.4399 9.61123 18.6461 9.27151 18.7868C8.9318 18.9276 8.5677 19 8.2 19H7.8C7.05739 19 6.3452 18.705 5.8201 18.1799C5.295 17.6548 5 16.9426 5 16.2V15.8C5 15.0574 5.295 14.3452 5.8201 13.8201C6.3452 13.295 7.05739 13 7.8 13H8.2C8.478 13 8.747 13.04 9 13.116V6.65398C9 6.27398 9.31 5.93298 9.72 5.88998L18.28 5.00398C18.678 4.96298 19 5.23898 19 5.61898V6.67298Z" fill="#42526E"/>
</svg>
