<svg width="24" height="24" viewBox="0 0 24 24" fill="none" xmlns="http://www.w3.org/2000/svg">
<rect width="24" height="24" fill="white" fill-opacity="0.01"/>
<path fill-rule="evenodd" clip-rule="evenodd" d="M22 12C22 17.5228 17.5228 22 12 22C6.47715 22 2 17.5228 2 12C2 6.47715 6.47715 2 12 2C17.5228 2 22 6.47715 22 12ZM16 13.6V8.38697C16.0011 8.33204 15.9903 8.27753 15.9683 8.22719C15.9463 8.17685 15.9136 8.13187 15.8725 8.09537C15.8315 8.05887 15.783 8.03171 15.7304 8.01576C15.6778 7.99981 15.6224 7.99545 15.568 8.00297L10.432 8.55597C10.186 8.58297 10 8.79598 10 9.03398V13.085C9.77369 13.005 9.53148 12.9804 9.29373 13.0134C9.05597 13.0464 8.82961 13.136 8.63365 13.2747C8.4377 13.4133 8.27788 13.5969 8.16762 13.8102C8.05736 14.0234 7.99987 14.2599 8 14.5C7.99861 14.8901 8.14924 15.2653 8.41994 15.5462C8.69063 15.8271 9.0601 15.9915 9.44997 16.0045C9.83984 16.0175 10.2194 15.8781 10.5083 15.6159C10.7971 15.3537 10.9724 14.9893 10.997 14.6H11V10.436L15 10.005V12.085C14.844 12.03 14.675 12 14.5 12C14.2076 12 13.9216 12.0856 13.6772 12.246C13.4327 12.4065 13.2405 12.6349 13.1242 12.9031C13.0078 13.1714 12.9724 13.4678 13.0223 13.7559C13.0722 14.044 13.2052 14.3113 13.405 14.5248C13.6048 14.7383 13.8626 14.8888 14.1468 14.9577C14.4309 15.0266 14.729 15.011 15.0044 14.9127C15.2798 14.8145 15.5205 14.6379 15.6968 14.4046C15.8732 14.1714 15.9775 13.8917 15.997 13.6H16Z" fill="#42526E"/>
</svg>
