<svg width="24" height="24" viewBox="0 0 24 24" fill="none" xmlns="http://www.w3.org/2000/svg">
<rect width="24" height="24" fill="white" fill-opacity="0.01"/>
<path d="M7 4V20H17V4H7ZM5 3.99C5 2.892 5.897 2 7.006 2H16.994C18.102 2 19 2.898 19 3.99V20.01C19 21.109 18.103 22 16.994 22H7.006C6.4765 22.0008 5.96822 21.7919 5.59231 21.419C5.21639 21.0461 5.00344 20.5395 5 20.01V3.99Z" fill="#42526E"/>
<path d="M15 6H9C8.44772 6 8 6.44772 8 7C8 7.55228 8.44772 8 9 8H15C15.5523 8 16 7.55228 16 7C16 6.44772 15.5523 6 15 6Z" fill="#42526E"/>
<path d="M12 9H9C8.44772 9 8 9.44772 8 10C8 10.5523 8.44772 11 9 11H12C12.5523 11 13 10.5523 13 10C13 9.44772 12.5523 9 12 9Z" fill="#42526E"/>
<path d="M12 12H9C8.44772 12 8 12.4477 8 13C8 13.5523 8.44772 14 9 14H12C12.5523 14 13 13.5523 13 13C13 12.4477 12.5523 12 12 12Z" fill="#42526E"/>
<path d="M12 15H9C8.44772 15 8 15.4477 8 16C8 16.5523 8.44772 17 9 17H12C12.5523 17 13 16.5523 13 16C13 15.4477 12.5523 15 12 15Z" fill="#42526E"/>
<path d="M16 13C16 12.4477 15.5523 12 15 12C14.4477 12 14 12.4477 14 13C14 13.5523 14.4477 14 15 14C15.5523 14 16 13.5523 16 13Z" fill="#42526E"/>
<path d="M16 16C16 15.4477 15.5523 15 15 15C14.4477 15 14 15.4477 14 16C14 16.5523 14.4477 17 15 17C15.5523 17 16 16.5523 16 16Z" fill="#42526E"/>
<path d="M16 10C16 9.44772 15.5523 9 15 9C14.4477 9 14 9.44772 14 10C14 10.5523 14.4477 11 15 11C15.5523 11 16 10.5523 16 10Z" fill="#42526E"/>
</svg>
