<svg width="24" height="24" viewBox="0 0 24 24" fill="none" xmlns="http://www.w3.org/2000/svg">
<rect width="24" height="24" fill="white" fill-opacity="0.01"/>
<path fill-rule="evenodd" clip-rule="evenodd" d="M7.006 2C5.897 2 5 2.892 5 3.99V20.01C5.00344 20.5395 5.21639 21.0461 5.59231 21.419C5.96822 21.7919 6.4765 22.0008 7.006 22H16.994C18.103 22 19 21.109 19 20.01V3.99C19 2.898 18.102 2 16.994 2H7.006ZM9 6H15C15.5523 6 16 6.44772 16 7C16 7.55228 15.5523 8 15 8H9C8.44772 8 8 7.55228 8 7C8 6.44772 8.44772 6 9 6ZM12 9H9C8.44772 9 8 9.44772 8 10C8 10.5523 8.44772 11 9 11H12C12.5523 11 13 10.5523 13 10C13 9.44772 12.5523 9 12 9ZM9 12H12C12.5523 12 13 12.4477 13 13C13 13.5523 12.5523 14 12 14H9C8.44772 14 8 13.5523 8 13C8 12.4477 8.44772 12 9 12ZM12 15H9C8.44772 15 8 15.4477 8 16C8 16.5523 8.44772 17 9 17H12C12.5523 17 13 16.5523 13 16C13 15.4477 12.5523 15 12 15ZM15 12C15.5523 12 16 12.4477 16 13C16 13.5523 15.5523 14 15 14C14.4477 14 14 13.5523 14 13C14 12.4477 14.4477 12 15 12ZM16 16C16 15.4477 15.5523 15 15 15C14.4477 15 14 15.4477 14 16C14 16.5523 14.4477 17 15 17C15.5523 17 16 16.5523 16 16ZM15 9C15.5523 9 16 9.44772 16 10C16 10.5523 15.5523 11 15 11C14.4477 11 14 10.5523 14 10C14 9.44772 14.4477 9 15 9Z" fill="#42526E"/>
</svg>
