<svg width="24" height="24" viewBox="0 0 24 24" fill="none" xmlns="http://www.w3.org/2000/svg">
<path fill-rule="evenodd" clip-rule="evenodd" d="M16.051 6C14.48 6 13.204 7.312 13.204 8.93C13.204 10.547 14.48 11.86 16.051 11.86C18.75 11.86 17.186 16.948 13.782 17.478C13.6214 17.5024 13.4748 17.5834 13.3688 17.7065C13.2628 17.8296 13.2043 17.9866 13.204 18.149C13.204 18.565 13.576 18.894 13.988 18.831C20.175 17.893 22.375 6.001 16.051 6.001V6ZM7.848 6C6.275 6 5 7.311 5 8.93C5 10.546 6.275 11.858 7.848 11.858C10.546 11.858 8.982 16.948 5.578 17.478C5.41756 17.5023 5.27111 17.5833 5.16511 17.7061C5.05911 17.829 5.00055 17.9857 5 18.148C5 18.564 5.372 18.893 5.783 18.83C11.972 17.892 14.172 6 7.848 6Z" fill="#42526E"/>
</svg>
