<svg width="24" height="24" viewBox="0 0 24 24" fill="none" xmlns="http://www.w3.org/2000/svg">
<rect width="24" height="24" fill="white" fill-opacity="0.01"/>
<path d="M4 18H20.008C20 18 20 6 20 6H3.992C4 6 4 18 4 18ZM2 5.994C2 4.893 2.898 4 3.99 4H20.01C21.108 4 22 4.895 22 5.994V18.006C21.9992 18.5339 21.7894 19.04 21.4165 19.4137C21.0436 19.7873 20.5379 19.9981 20.01 20H3.99C3.46185 19.9989 2.9557 19.7884 2.58261 19.4146C2.20953 19.0407 2 18.5342 2 18.006V5.994Z" fill="#42526E"/>
<path d="M8 6V18H10V6H8ZM14 6V18H16V6H14Z" fill="#42526E"/>
</svg>
