<svg width="24" height="24" viewBox="0 0 24 24" fill="none" xmlns="http://www.w3.org/2000/svg">
<rect width="24" height="24" fill="white" fill-opacity="0.01"/>
<path d="M7 6.002V15.998C7 16.544 7.446 17 7.995 17H16.005C16.545 17 17 16.551 17 15.998V6.002C17 5.456 16.554 5 16.005 5H7.995C7.455 5 7 5.449 7 6.002ZM5 6.002C5.00079 5.20727 5.31636 4.44522 5.87766 3.88261C6.43896 3.32 7.20028 3.00264 7.995 3H16.005C16.7999 3.00212 17.5615 3.3193 18.1229 3.88203C18.6843 4.44475 18.9997 5.20711 19 6.002V15.998C18.9992 16.7927 18.6836 17.5548 18.1223 18.1174C17.561 18.68 16.7997 18.9974 16.005 19H7.995C7.20011 18.9979 6.43849 18.6807 5.87708 18.118C5.31567 17.5552 5.00026 16.7929 5 15.998V6.002Z" fill="#42526E"/>
<path fill-rule="evenodd" clip-rule="evenodd" d="M9 7H15V11H9V7ZM9 13H15V15H9V13ZM10 20.857V20H7V20.857L8.5 20L10 20.857ZM7 18H10V20H7V18Z" fill="#42526E"/>
</svg>
