<svg width="24" height="24" viewBox="0 0 24 24" fill="none" xmlns="http://www.w3.org/2000/svg">
<rect width="24" height="24" fill="white" fill-opacity="0.01"/>
<path d="M17 15H11C10.4477 15 10 15.4477 10 16C10 16.5523 10.4477 17 11 17H17C17.5523 17 18 16.5523 18 16C18 15.4477 17.5523 15 17 15Z" fill="#42526E"/>
<path d="M8 16C8 15.4477 7.55228 15 7 15C6.44772 15 6 15.4477 6 16C6 16.5523 6.44772 17 7 17C7.55228 17 8 16.5523 8 16Z" fill="#42526E"/>
<path d="M17 11H11C10.4477 11 10 11.4477 10 12C10 12.5523 10.4477 13 11 13H17C17.5523 13 18 12.5523 18 12C18 11.4477 17.5523 11 17 11Z" fill="#42526E"/>
<path d="M8 12C8 11.4477 7.55228 11 7 11C6.44772 11 6 11.4477 6 12C6 12.5523 6.44772 13 7 13C7.55228 13 8 12.5523 8 12Z" fill="#42526E"/>
<path d="M17 7H11C10.4477 7 10 7.44772 10 8C10 8.55228 10.4477 9 11 9H17C17.5523 9 18 8.55228 18 8C18 7.44772 17.5523 7 17 7Z" fill="#42526E"/>
<path d="M8 8C8 7.44772 7.55228 7 7 7C6.44772 7 6 7.44772 6 8C6 8.55228 6.44772 9 7 9C7.55228 9 8 8.55228 8 8Z" fill="#42526E"/>
</svg>
