<svg width="24" height="24" viewBox="0 0 24 24" fill="none" xmlns="http://www.w3.org/2000/svg">
<rect width="24" height="24" fill="white" fill-opacity="0.01"/>
<path fill-rule="evenodd" clip-rule="evenodd" d="M19.005 5H19V6C19 7.105 18.112 8 17 8C15.895 8 15 7.112 15 6V5H9V6C9 7.105 8.112 8 7 8C5.895 8 5 7.112 5 6V5H4.995C3.892 5 3 5.893 3 6.994V19.006C3.00027 19.5349 3.21057 20.0421 3.58468 20.416C3.95878 20.7899 4.46607 21 4.995 21H19.005C19.2669 21.0001 19.5263 20.9487 19.7684 20.8485C20.0104 20.7484 20.2304 20.6015 20.4156 20.4163C20.6009 20.2312 20.7478 20.0113 20.8481 19.7693C20.9484 19.5273 21 19.2679 21 19.006V6.994C21 5.895 20.107 5 19.005 5ZM9 13.001H7V11H9V13.001ZM9 17.001H7V15H9V17.001ZM13 13.001H11V11H13V13.001ZM13 17.001H11V15H13V17.001ZM17 13.001H15V11H17V13.001ZM17 17.001H15V15H17V17.001Z" fill="#42526E"/>
<path fill-rule="evenodd" clip-rule="evenodd" d="M16 6V5H18V6C18 6.26522 17.8946 6.51957 17.7071 6.70711C17.5196 6.89464 17.2652 7 17 7C16.7348 7 16.4804 6.89464 16.2929 6.70711C16.1054 6.51957 16 6.26522 16 6ZM16 4C16 3.73478 16.1054 3.48043 16.2929 3.29289C16.4804 3.10536 16.7348 3 17 3C17.2652 3 17.5196 3.10536 17.7071 3.29289C17.8946 3.48043 18 3.73478 18 4V5H16V4ZM6 4C6 3.73478 6.10536 3.48043 6.29289 3.29289C6.48043 3.10536 6.73478 3 7 3C7.26522 3 7.51957 3.10536 7.70711 3.29289C7.89464 3.48043 8 3.73478 8 4V5H6V4ZM6 6V5H8V6C8 6.26522 7.89464 6.51957 7.70711 6.70711C7.51957 6.89464 7.26522 7 7 7C6.73478 7 6.48043 6.89464 6.29289 6.70711C6.10536 6.51957 6 6.26522 6 6Z" fill="#42526E"/>
</svg>
