<svg width="24" height="24" viewBox="0 0 24 24" fill="none" xmlns="http://www.w3.org/2000/svg">
<rect width="24" height="24" fill="white" fill-opacity="0.01"/>
<path fill-rule="evenodd" clip-rule="evenodd" d="M4.995 5H19.005C20.107 5 21 5.895 21 6.994V19.006C21 19.2679 20.9484 19.5273 20.8481 19.7693C20.7478 20.0113 20.6009 20.2312 20.4156 20.4163C20.2304 20.6015 20.0104 20.7484 19.7684 20.8485C19.5263 20.9487 19.2669 21.0001 19.005 21H4.995C4.46607 21 3.95878 20.7899 3.58468 20.416C3.21057 20.0421 3.00027 19.5349 3 19.006V6.994C3 5.893 3.892 5 4.995 5ZM5 9V18C5 18.2652 5.10536 18.5196 5.29289 18.7071C5.48043 18.8946 5.73478 19 6 19H18C18.2652 19 18.5196 18.8946 18.7071 18.7071C18.8946 18.5196 19 18.2652 19 18V9H5ZM6 4C6 3.73478 6.10536 3.48043 6.29289 3.29289C6.48043 3.10536 6.73478 3 7 3C7.26522 3 7.51957 3.10536 7.70711 3.29289C7.89464 3.48043 8 3.73478 8 4V5H6V4ZM16 4C16 3.73478 16.1054 3.48043 16.2929 3.29289C16.4804 3.10536 16.7348 3 17 3C17.2652 3 17.5196 3.10536 17.7071 3.29289C17.8946 3.48043 18 3.73478 18 4V5H16V4ZM7 13V10.999H9V13H7ZM15 13V10.999H17V13H15ZM11 13V10.999H13.001V13H11ZM7 17V15H9V17H7ZM11 17V15H13.001V17H11ZM15 17V15H17V17H15Z" fill="#42526E"/>
</svg>
