<svg width="24" height="24" viewBox="0 0 24 24" fill="none" xmlns="http://www.w3.org/2000/svg">
<rect width="24" height="24" fill="white" fill-opacity="0.01"/>
<path d="M12 17C14.7614 17 17 14.7614 17 12C17 9.23858 14.7614 7 12 7C9.23858 7 7 9.23858 7 12C7 14.7614 9.23858 17 12 17Z" fill="#42526E"/>
<path d="M12 18C13.5913 18 15.1174 17.3679 16.2426 16.2426C17.3679 15.1174 18 13.5913 18 12C18 10.4087 17.3679 8.88258 16.2426 7.75736C15.1174 6.63214 13.5913 6 12 6C10.4087 6 8.88258 6.63214 7.75736 7.75736C6.63214 8.88258 6 10.4087 6 12C6 13.5913 6.63214 15.1174 7.75736 16.2426C8.88258 17.3679 10.4087 18 12 18ZM12 19C11.0807 19 10.1705 18.8189 9.32122 18.4672C8.47194 18.1154 7.70026 17.5998 7.05025 16.9497C6.40024 16.2997 5.88463 15.5281 5.53284 14.6788C5.18106 13.8295 5 12.9193 5 12C5 11.0807 5.18106 10.1705 5.53284 9.32122C5.88463 8.47194 6.40024 7.70026 7.05025 7.05025C7.70026 6.40024 8.47194 5.88463 9.32122 5.53284C10.1705 5.18106 11.0807 5 12 5C13.8565 5 15.637 5.7375 16.9497 7.05025C18.2625 8.36301 19 10.1435 19 12C19 13.8565 18.2625 15.637 16.9497 16.9497C15.637 18.2625 13.8565 19 12 19Z" fill="#42526E"/>
</svg>
