<svg width="24" height="24" viewBox="0 0 24 24" fill="none" xmlns="http://www.w3.org/2000/svg">
<rect width="24" height="24" fill="white" fill-opacity="0.01"/>
<path fill-rule="evenodd" clip-rule="evenodd" d="M8.997 3C8.453 3 8 3.448 8 4V5H4C2.89543 5 2 5.89543 2 7V19C2 20.1046 2.89543 21 4 21H20C21.1046 21 22 20.1046 22 19V7C22 5.89543 21.1046 5 20 5H16V4C16 3.444 15.553 3 15.003 3H8.997ZM13 17C13 17.5523 12.5523 18 12 18C10.9682 17.9998 9.96178 17.6804 9.11869 17.0856C8.2756 16.4908 7.63717 15.6498 7.29094 14.6778C6.94471 13.7059 6.90764 12.6506 7.18482 11.6568C7.462 10.6629 8.03986 9.77917 8.83914 9.1267C9.63841 8.47423 10.62 8.085 11.6492 8.0124C12.6784 7.9398 13.7049 8.18737 14.5878 8.72118C15.4708 9.25498 16.167 10.0489 16.581 10.994C16.8052 11.5059 16.9407 12.0487 16.9849 12.5993L17.293 12.291C17.3859 12.1982 17.4962 12.1245 17.6176 12.0743C17.7389 12.0241 17.869 11.9983 18.0004 11.9983C18.1317 11.9984 18.2618 12.0243 18.3831 12.0746C18.5044 12.1249 18.6147 12.1986 18.7075 12.2915C18.8003 12.3844 18.874 12.4947 18.9242 12.6161C18.9744 12.7374 19.0002 12.8675 19.0002 12.9989C19.0002 13.1302 18.9742 13.2603 18.9239 13.3816C18.8736 13.5029 18.7999 13.6132 18.707 13.706L16.712 15.702C16.512 15.901 16.255 16 16.001 16C15.742 16 15.486 15.899 15.289 15.702L13.292 13.706C13.1052 13.5179 13.0004 13.2636 13.0004 12.9985C13.0004 12.7334 13.1052 12.4791 13.292 12.291C13.4795 12.1035 13.7338 11.9982 13.999 11.9982C14.2642 11.9982 14.5185 12.1035 14.706 12.291L14.9681 12.5531C14.947 12.4131 14.916 12.2742 14.8749 12.1375C14.6918 11.5276 14.3194 10.9918 13.8117 10.6076C13.3039 10.2234 12.687 10.0107 12.0503 10.0004C11.4136 9.99006 10.7902 10.1826 10.2702 10.5501C9.75015 10.9176 9.36056 11.441 9.15777 12.0446C8.95498 12.6482 8.94951 13.3007 9.14215 13.9076C9.33479 14.5145 9.71555 15.0444 10.2293 15.4206C10.7431 15.7967 11.3632 15.9997 12 16C12.5523 16 13 16.4477 13 17Z" fill="#42526E"/>
</svg>
