<svg width="24" height="24" viewBox="0 0 24 24" fill="none" xmlns="http://www.w3.org/2000/svg">
<rect width="24" height="24" fill="white" fill-opacity="0.01"/>
<path fill-rule="evenodd" clip-rule="evenodd" d="M2 6.994C2 5.893 2.898 5 3.99 5H20.01C21.108 5 22 5.895 22 6.994V19.006C21.9992 19.5339 21.7894 20.04 21.4165 20.4137C21.0436 20.7873 20.5379 20.9981 20.01 21H3.99C3.46185 20.9989 2.9557 20.7884 2.58261 20.4146C2.20953 20.0407 2 19.5341 2 19.006V6.994ZM4 7V19H20V7H4Z" fill="#42526E"/>
<path d="M12 17C13.0609 17 14.0783 16.5786 14.8284 15.8284C15.5786 15.0783 16 14.0609 16 13C16 11.9391 15.5786 10.9217 14.8284 10.1716C14.0783 9.42143 13.0609 9 12 9C10.9391 9 9.92172 9.42143 9.17157 10.1716C8.42143 10.9217 8 11.9391 8 13C8 14.0609 8.42143 15.0783 9.17157 15.8284C9.92172 16.5786 10.9391 17 12 17ZM12 15C11.4696 15 10.9609 14.7893 10.5858 14.4142C10.2107 14.0391 10 13.5304 10 13C10 12.4696 10.2107 11.9609 10.5858 11.5858C10.9609 11.2107 11.4696 11 12 11C12.5304 11 13.0391 11.2107 13.4142 11.5858C13.7893 11.9609 14 12.4696 14 13C14 13.5304 13.7893 14.0391 13.4142 14.4142C13.0391 14.7893 12.5304 15 12 15Z" fill="#42526E"/>
<path fill-rule="evenodd" clip-rule="evenodd" d="M8 4C8 3.448 8.453 3 8.997 3H15.003C15.553 3 16 3.444 16 4V5H8V4Z" fill="#42526E"/>
<path d="M19 9C19 8.44772 18.5523 8 18 8C17.4477 8 17 8.44772 17 9C17 9.55228 17.4477 10 18 10C18.5523 10 19 9.55228 19 9Z" fill="#42526E"/>
</svg>
