<svg width="24" height="24" viewBox="0 0 24 24" fill="none" xmlns="http://www.w3.org/2000/svg">
<rect width="24" height="24" fill="white" fill-opacity="0.01"/>
<path fill-rule="evenodd" clip-rule="evenodd" d="M10.25 19L9.23 21.462C9.18017 21.5836 9.10675 21.6941 9.01399 21.7871C8.92122 21.8802 8.81095 21.9539 8.68952 22.0041C8.5681 22.0544 8.43794 22.08 8.30655 22.0796C8.17516 22.0793 8.04514 22.0529 7.924 22.002C7.80237 21.9524 7.69179 21.8791 7.59864 21.7865C7.50549 21.6939 7.43163 21.5837 7.38132 21.4623C7.33102 21.341 7.30526 21.2109 7.30555 21.0795C7.30584 20.9481 7.33216 20.8181 7.383 20.697L8.086 19H10.25ZM15.676 19L16.378 20.697C16.4287 20.8181 16.4549 20.9481 16.4551 21.0795C16.4554 21.2108 16.4296 21.3409 16.3793 21.4622C16.329 21.5835 16.2552 21.6937 16.1621 21.7863C16.069 21.879 15.9585 21.9523 15.837 22.002C15.7158 22.0526 15.5859 22.0788 15.4545 22.079C15.3232 22.0793 15.1931 22.0535 15.0718 22.0034C14.9504 21.9532 14.8402 21.8795 14.7474 21.7866C14.6546 21.6937 14.581 21.5834 14.531 21.462L13.511 19H15.676Z" fill="#42526E"/>
<path d="M11 2.999C10.9997 2.86766 11.0254 2.73755 11.0756 2.61616C11.1258 2.49477 11.1994 2.38449 11.2924 2.29166C11.3853 2.19883 11.4956 2.12528 11.6171 2.07522C11.7385 2.02517 11.8687 1.99961 12 2C12.552 2 13 2.443 13 2.999V5H11V2.999ZM8 15.997C8 16 15.991 16 15.991 16C15.996 16 16 7.003 16 7.003C16 7 8.009 7 8.009 7C8.004 7 8 15.997 8 15.997ZM6 7.003C6 5.897 6.902 5 8.009 5H15.991C17.101 5 18 5.894 18 7.003V15.997C17.9989 16.5289 17.7867 17.0387 17.41 17.4143C17.0333 17.7899 16.5229 18.0005 15.991 18H8.01C7.74641 18.0008 7.48526 17.9496 7.24149 17.8493C6.99773 17.749 6.77614 17.6016 6.58943 17.4155C6.40272 17.2295 6.25455 17.0084 6.1534 16.765C6.05226 16.5216 6.00013 16.2606 6 15.997V7.003Z" fill="#42526E"/>
<path d="M18 16H6C5.44772 16 5 16.4477 5 17C5 17.5523 5.44772 18 6 18H18C18.5523 18 19 17.5523 19 17C19 16.4477 18.5523 16 18 16Z" fill="#42526E"/>
<path d="M18 5H6C5.44772 5 5 5.44772 5 6C5 6.55229 5.44772 7 6 7H18C18.5523 7 19 6.55229 19 6C19 5.44772 18.5523 5 18 5Z" fill="#42526E"/>
</svg>
