<svg width="24" height="24" viewBox="0 0 24 24" fill="none" xmlns="http://www.w3.org/2000/svg">
<rect width="24" height="24" fill="white" fill-opacity="0.01"/>
<path fill-rule="evenodd" clip-rule="evenodd" d="M8 6H16C17.1046 6 18 6.89543 18 8V16C18 17.1046 17.1046 18 16 18H8C6.89543 18 6 17.1046 6 16V8C6 6.89543 6.89543 6 8 6ZM9.38241 11.0689C9.50441 11.1213 9.61475 11.1975 9.707 11.293L11 12.586L14.293 9.29302C14.3852 9.19751 14.4956 9.12133 14.6176 9.06892C14.7396 9.01651 14.8708 8.98892 15.0036 8.98777C15.1364 8.98662 15.2681 9.01192 15.391 9.0622C15.5139 9.11248 15.6255 9.18673 15.7194 9.28063C15.8133 9.37452 15.8875 9.48617 15.9378 9.60907C15.9881 9.73196 16.0134 9.86364 16.0123 9.99642C16.0111 10.1292 15.9835 10.2604 15.9311 10.3824C15.8787 10.5044 15.8025 10.6148 15.707 10.707L11.707 14.707C11.5195 14.8945 11.2652 14.9998 11 14.9998C10.7348 14.9998 10.4805 14.8945 10.293 14.707L8.293 12.707C8.19749 12.6148 8.12131 12.5044 8.0689 12.3824C8.01649 12.2604 7.9889 12.1292 7.98775 11.9964C7.9866 11.8636 8.0119 11.732 8.06218 11.6091C8.11246 11.4862 8.18671 11.3745 8.28061 11.2806C8.3745 11.1867 8.48615 11.1125 8.60905 11.0622C8.73194 11.0119 8.86362 10.9866 8.9964 10.9878C9.12918 10.9889 9.2604 11.0165 9.38241 11.0689Z" fill="#42526E"/>
</svg>
