<svg width="24" height="24" viewBox="0 0 24 24" fill="none" xmlns="http://www.w3.org/2000/svg">
<rect width="24" height="24" fill="white" fill-opacity="0.01"/>
<path fill-rule="evenodd" clip-rule="evenodd" d="M22 12C22 17.5228 17.5228 22 12 22C6.47715 22 2 17.5228 2 12C2 6.47715 6.47715 2 12 2C17.5228 2 22 6.47715 22 12ZM10.0762 9.37578C10.1268 9.49655 10.2008 9.60607 10.294 9.69799L12.621 12.005L10.303 14.302C10.2098 14.3939 10.1358 14.5034 10.0852 14.6242C10.0347 14.745 10.0087 14.8746 10.0087 15.0055C10.0087 15.1364 10.0347 15.266 10.0852 15.3868C10.1358 15.5075 10.2098 15.6171 10.303 15.709C10.4921 15.8959 10.7472 16.0007 11.013 16.0007C11.2788 16.0007 11.5339 15.8959 11.723 15.709L14.678 12.779C14.7802 12.6777 14.8613 12.5571 14.9167 12.4242C14.972 12.2914 15.0005 12.1489 15.0005 12.005C15.0005 11.8611 14.972 11.7186 14.9167 11.5857C14.8613 11.4529 14.7802 11.3323 14.678 11.231L11.713 8.29099C11.524 8.10443 11.2691 7.99982 11.0035 7.99982C10.7379 7.99982 10.483 8.10443 10.294 8.29099C10.2008 8.38291 10.1268 8.49243 10.0762 8.6132C10.0257 8.73397 9.99971 8.86358 9.99971 8.99449C9.99971 9.1254 10.0257 9.25501 10.0762 9.37578Z" fill="#42526E"/>
</svg>
