<svg width="24" height="24" viewBox="0 0 24 24" fill="none" xmlns="http://www.w3.org/2000/svg">
<rect width="24" height="24" fill="white" fill-opacity="0.01"/>
<path fill-rule="evenodd" clip-rule="evenodd" d="M9.005 10.995L13.598 6.40199C13.6896 6.30854 13.7988 6.23416 13.9193 6.18318C14.0398 6.13219 14.1692 6.10559 14.3001 6.10493C14.4309 6.10427 14.5606 6.12956 14.6816 6.17932C14.8026 6.22909 14.9126 6.30236 15.0051 6.39488C15.0976 6.48741 15.1709 6.59736 15.2207 6.71837C15.2704 6.83939 15.2957 6.96907 15.2951 7.09992C15.2944 7.23077 15.2678 7.36019 15.2168 7.48069C15.1658 7.6012 15.0915 7.7104 14.998 7.80199L11.098 11.702L14.998 15.602C15.1806 15.7883 15.2822 16.0391 15.2809 16.2999C15.2796 16.5607 15.1754 16.8105 14.991 16.995C14.8065 17.1794 14.5568 17.2836 14.2959 17.2849C14.0351 17.2862 13.7843 17.1846 13.598 17.002L9.005 12.41C8.81753 12.2225 8.71221 11.9682 8.71221 11.703C8.71221 11.4378 8.81753 11.1835 9.005 10.996V10.995Z" fill="#42526E"/>
</svg>
