<svg width="24" height="24" viewBox="0 0 24 24" fill="none" xmlns="http://www.w3.org/2000/svg">
<rect width="24" height="24" fill="white" fill-opacity="0.01"/>
<path fill-rule="evenodd" clip-rule="evenodd" d="M10.294 9.69799C10.2008 9.60607 10.1268 9.49655 10.0762 9.37578C10.0257 9.25501 9.99969 9.1254 9.99969 8.99449C9.99969 8.86358 10.0257 8.73397 10.0762 8.6132C10.1268 8.49243 10.2008 8.38291 10.294 8.29099C10.483 8.10443 10.7379 7.99982 11.0035 7.99982C11.2691 7.99982 11.524 8.10443 11.713 8.29099L14.678 11.231C14.7802 11.3323 14.8613 11.4529 14.9167 11.5857C14.972 11.7186 15.0005 11.8611 15.0005 12.005C15.0005 12.1489 14.972 12.2914 14.9167 12.4242C14.8613 12.5571 14.7802 12.6777 14.678 12.779L11.723 15.709C11.5339 15.8959 11.2788 16.0007 11.013 16.0007C10.7472 16.0007 10.492 15.8959 10.303 15.709C10.2098 15.6171 10.1358 15.5075 10.0852 15.3868C10.0347 15.266 10.0087 15.1364 10.0087 15.0055C10.0087 14.8746 10.0347 14.745 10.0852 14.6242C10.1358 14.5034 10.2098 14.3939 10.303 14.302L12.621 12.005L10.294 9.69799Z" fill="#42526E"/>
</svg>
