<svg width="24" height="24" viewBox="0 0 24 24" fill="none" xmlns="http://www.w3.org/2000/svg">
<rect width="24" height="24" fill="white" fill-opacity="0.01"/>
<path fill-rule="evenodd" clip-rule="evenodd" d="M22 12C22 17.5228 17.5228 22 12 22C6.47715 22 2 17.5228 2 12C2 6.47715 6.47715 2 12 2C17.5228 2 22 6.47715 22 12ZM8.00042 11.0025C8.00042 10.7368 8.10519 10.4819 8.292 10.293C8.38404 10.2002 8.49354 10.1265 8.6142 10.0762C8.73486 10.0259 8.86428 10.0001 8.995 10.0001C9.12572 10.0001 9.25514 10.0259 9.3758 10.0762C9.49646 10.1265 9.60596 10.2002 9.698 10.293L12.005 12.62L14.303 10.303C14.3948 10.2098 14.5043 10.1358 14.625 10.0853C14.7456 10.0348 14.8752 10.0088 15.006 10.0088C15.1368 10.0088 15.2664 10.0348 15.387 10.0853C15.5077 10.1358 15.6172 10.2098 15.709 10.303C15.8956 10.492 16.0002 10.7469 16.0002 11.0125C16.0002 11.2781 15.8956 11.533 15.709 11.722L12.779 14.677C12.566 14.892 12.289 14.999 12.01 14.999C11.731 14.999 11.449 14.892 11.231 14.677L8.292 11.712C8.10519 11.5231 8.00042 11.2682 8.00042 11.0025Z" fill="#42526E"/>
</svg>
