<svg width="24" height="24" viewBox="0 0 24 24" fill="none" xmlns="http://www.w3.org/2000/svg">
<rect width="24" height="24" fill="white" fill-opacity="0.01"/>
<path fill-rule="evenodd" clip-rule="evenodd" d="M22 12C22 17.5228 17.5228 22 12 22C6.47715 22 2 17.5228 2 12C2 6.47715 6.47715 2 12 2C17.5228 2 22 6.47715 22 12ZM8.292 12.277L11.221 9.322C11.434 9.107 11.712 9 11.991 9C12.2826 9.00056 12.5623 9.11629 12.769 9.322L15.709 12.287C15.8956 12.476 16.0002 12.7309 16.0002 12.9965C16.0002 13.2621 15.8956 13.517 15.709 13.706C15.617 13.7991 15.5075 13.873 15.3867 13.9234C15.2659 13.9739 15.1364 13.9999 15.0055 13.9999C14.8746 13.9999 14.7451 13.9739 14.6243 13.9234C14.5035 13.873 14.394 13.7991 14.302 13.706L11.995 11.379L9.697 13.696C9.60525 13.7892 9.4959 13.8631 9.37529 13.9136C9.25469 13.9641 9.12525 13.9901 8.9945 13.9901C8.86375 13.9901 8.73431 13.9641 8.61371 13.9136C8.4931 13.8631 8.38375 13.7892 8.292 13.696C8.10519 13.5071 8.00042 13.2522 8.00042 12.9865C8.00042 12.7208 8.10519 12.4659 8.292 12.277Z" fill="#42526E"/>
</svg>
