<svg width="24" height="24" viewBox="0 0 24 24" fill="none" xmlns="http://www.w3.org/2000/svg">
<rect width="24" height="24" fill="white" fill-opacity="0.01"/>
<path fill-rule="evenodd" clip-rule="evenodd" d="M11 7H13V12H11V7ZM16 13H18V16H16V13ZM6 13H8V16H6V13Z" fill="#42526E"/>
<path fill-rule="evenodd" clip-rule="evenodd" d="M7 11H17C17.2652 11 17.5196 11.1054 17.7071 11.2929C17.8946 11.4804 18 11.7348 18 12V13H6V12C6 11.7348 6.10536 11.4804 6.29289 11.2929C6.48043 11.1054 6.73478 11 7 11Z" fill="#42526E"/>
<path d="M5 18V19H9V18H5ZM5 16H9C9.53043 16 10.0391 16.2107 10.4142 16.5858C10.7893 16.9609 11 17.4696 11 18V19C11 19.5304 10.7893 20.0391 10.4142 20.4142C10.0391 20.7893 9.53043 21 9 21H5C4.46957 21 3.96086 20.7893 3.58579 20.4142C3.21071 20.0391 3 19.5304 3 19V18C3 17.4696 3.21071 16.9609 3.58579 16.5858C3.96086 16.2107 4.46957 16 5 16ZM15 18V19H19V18H15ZM15 16H19C19.5304 16 20.0391 16.2107 20.4142 16.5858C20.7893 16.9609 21 17.4696 21 18V19C21 19.5304 20.7893 20.0391 20.4142 20.4142C20.0391 20.7893 19.5304 21 19 21H15C14.4696 21 13.9609 20.7893 13.5858 20.4142C13.2107 20.0391 13 19.5304 13 19V18C13 17.4696 13.2107 16.9609 13.5858 16.5858C13.9609 16.2107 14.4696 16 15 16ZM10 5V6H14V5H10ZM10 3H14C14.5304 3 15.0391 3.21071 15.4142 3.58579C15.7893 3.96086 16 4.46957 16 5V6C16 6.53043 15.7893 7.03914 15.4142 7.41421C15.0391 7.78929 14.5304 8 14 8H10C9.46957 8 8.96086 7.78929 8.58579 7.41421C8.21071 7.03914 8 6.53043 8 6V5C8 4.46957 8.21071 3.96086 8.58579 3.58579C8.96086 3.21071 9.46957 3 10 3Z" fill="#42526E"/>
</svg>
