<svg width="24" height="24" viewBox="0 0 24 24" fill="none" xmlns="http://www.w3.org/2000/svg">
<rect width="24" height="24" fill="white" fill-opacity="0.01"/>
<path fill-rule="evenodd" clip-rule="evenodd" d="M14.155 4.055C13.9042 3.96868 13.6295 3.98551 13.3911 4.10178C13.1527 4.21805 12.9703 4.42424 12.884 4.675L8.054 18.721C7.97392 18.9702 7.99472 19.2408 8.11194 19.4748C8.22916 19.7089 8.43346 19.8876 8.68098 19.9727C8.92849 20.0577 9.1995 20.0424 9.43583 19.9299C9.67216 19.8174 9.85496 19.6168 9.945 19.371L14.775 5.326C14.8613 5.07524 14.8445 4.80046 14.7282 4.5621C14.6119 4.32374 14.4058 4.14134 14.155 4.055ZM8.017 12.265L5.437 9.764L8.236 7.05C8.42643 6.86541 8.53573 6.61273 8.53985 6.34756C8.54398 6.08238 8.44259 5.82643 8.258 5.636C8.07341 5.44557 7.82074 5.33628 7.55556 5.33215C7.29038 5.32802 7.03443 5.42941 6.844 5.614L3.304 9.046C3.20784 9.13922 3.13138 9.25082 3.07916 9.37416C3.02695 9.49749 3.00005 9.63006 3.00005 9.764C3.00005 9.89793 3.02695 10.0305 3.07916 10.1538C3.13138 10.2772 3.20784 10.3888 3.304 10.482L6.624 13.701C6.71829 13.7925 6.82967 13.8645 6.95179 13.9129C7.0739 13.9613 7.20436 13.9852 7.33571 13.9832C7.46705 13.9812 7.59672 13.9534 7.71731 13.9012C7.83789 13.8491 7.94704 13.7738 8.0385 13.6795C8.12997 13.5852 8.20197 13.4738 8.25039 13.3517C8.29881 13.2296 8.3227 13.0991 8.32071 12.9678C8.31871 12.8364 8.29086 12.7068 8.23875 12.5862C8.18664 12.4656 8.11129 12.3565 8.017 12.265ZM20.236 13.833L16.916 10.613C16.8216 10.5215 16.7102 10.4495 16.588 10.4012C16.4659 10.3528 16.3353 10.3289 16.2039 10.3309C15.9386 10.3351 15.6857 10.4444 15.501 10.635C15.3163 10.8256 15.2148 11.0817 15.2189 11.3471C15.2231 11.6124 15.3324 11.8653 15.523 12.05L18.103 14.55L15.304 17.265C15.1136 17.4496 15.0043 17.7023 15.0002 17.9674C14.996 18.2326 15.0974 18.4886 15.282 18.679C15.4666 18.8694 15.7193 18.9787 15.9844 18.9828C16.2496 18.987 16.5056 18.8856 16.696 18.701L20.236 15.269C20.3322 15.1758 20.4086 15.0642 20.4608 14.9408C20.5131 14.8175 20.54 14.6849 20.54 14.551C20.54 14.4171 20.5131 14.2845 20.4608 14.1612C20.4086 14.0378 20.3322 13.9262 20.236 13.833Z" fill="#42526E"/>
</svg>
