<svg width="24" height="24" viewBox="0 0 24 24" fill="none" xmlns="http://www.w3.org/2000/svg">
<rect width="24" height="24" fill="white" fill-opacity="0.01"/>
<path fill-rule="evenodd" clip-rule="evenodd" d="M5 17.991C5 17.998 19.005 18 19.005 18C18.999 18 19 10.009 19 10.009C19 10.002 4.995 10 4.995 10C5.001 10 5 17.991 5 17.991ZM3 10.01C3 8.899 3.893 8 4.995 8H19.005C20.107 8 21 8.902 21 10.009V17.991C21 19.101 20.107 20 19.005 20H4.995C4.4642 19.9976 3.95603 19.7847 3.582 19.4081C3.20798 19.0315 2.99867 18.5218 3 17.991V10.01Z" fill="#42526E"/>
<path fill-rule="evenodd" clip-rule="evenodd" d="M7 8.335C7 8.333 9.002 8.333 9.002 8.333C9 8.333 9 6.665 9 6.665C9 6.667 6.998 6.667 6.998 6.667C7 6.667 7 8.335 7 8.335ZM5 6.665C5 5.745 5.898 5 6.998 5H9.002C10.106 5 11 5.749 11 6.665V8.335C11 9.255 10.102 10 9.002 10H6.998C5.894 10 5 9.251 5 8.335V6.665ZM15 8.335C15 8.333 17.002 8.333 17.002 8.333C17 8.333 17 6.665 17 6.665C17 6.667 14.998 6.667 14.998 6.667C15 6.667 15 8.335 15 8.335ZM13 6.665C13 5.745 13.898 5 14.998 5H17.002C18.106 5 19 5.749 19 6.665V8.335C19 9.255 18.102 10 17.002 10H14.998C13.894 10 13 9.251 13 8.335V6.665Z" fill="#42526E"/>
</svg>
