<svg width="24" height="24" viewBox="0 0 24 24" fill="none" xmlns="http://www.w3.org/2000/svg">
<rect width="24" height="24" fill="white" fill-opacity="0.01"/>
<path fill-rule="evenodd" clip-rule="evenodd" d="M12 22C17.5228 22 22 17.5228 22 12C22 6.47715 17.5228 2 12 2C6.47715 2 2 6.47715 2 12C2 17.5228 6.47715 22 12 22ZM10.5918 12.0154L9.117 13.499C9.02179 13.5915 8.94595 13.7021 8.89392 13.8242C8.84188 13.9464 8.81469 14.0776 8.81393 14.2104C8.81317 14.3432 8.83885 14.4747 8.88948 14.5975C8.9401 14.7202 9.01466 14.8316 9.10881 14.9252C9.20295 15.0189 9.31479 15.0928 9.43781 15.1427C9.56083 15.1927 9.69256 15.2176 9.82531 15.2161C9.95807 15.2146 10.0892 15.1866 10.211 15.1339C10.3329 15.0812 10.443 15.0047 10.535 14.909L12.0027 13.4325L13.442 14.878C13.6291 15.0661 13.8833 15.1721 14.1485 15.1727C14.4138 15.1734 14.6685 15.0686 14.8565 14.8815C15.0445 14.6944 15.1505 14.4403 15.1512 14.175C15.1519 13.9097 15.0471 13.6551 14.86 13.467L13.4127 12.0141L14.895 10.523C15.0767 10.3339 15.1768 10.081 15.1738 9.81874C15.1709 9.55651 15.065 9.30595 14.879 9.12104C14.6931 8.93612 14.4419 8.83166 14.1797 8.83016C13.9174 8.82865 13.6651 8.93022 13.477 9.11298L12.0015 10.5973L10.5 9.09002C10.3118 8.90742 10.0594 8.80606 9.79717 8.80776C9.53495 8.80947 9.28389 8.9141 9.09807 9.09913C8.91225 9.28416 8.80655 9.53478 8.80373 9.79699C8.80091 10.0592 8.90121 10.312 9.083 10.501L10.5918 12.0154Z" fill="#42526E"/>
</svg>
