<svg width="24" height="24" viewBox="0 0 24 24" fill="none" xmlns="http://www.w3.org/2000/svg">
<rect width="24" height="24" fill="white" fill-opacity="0.01"/>
<path d="M12 10.586L6.70701 5.29299C6.51841 5.11083 6.26581 5.01004 6.00361 5.01232C5.74141 5.01459 5.4906 5.11976 5.30519 5.30517C5.11978 5.49058 5.01461 5.74139 5.01234 6.00359C5.01006 6.26579 5.11085 6.51839 5.29301 6.70699L10.586 12L5.29301 17.293C5.11085 17.4816 5.01006 17.7342 5.01234 17.9964C5.01461 18.2586 5.11978 18.5094 5.30519 18.6948C5.4906 18.8802 5.74141 18.9854 6.00361 18.9877C6.26581 18.9899 6.51841 18.8891 6.70701 18.707L12 13.414L17.293 18.707C17.4816 18.8891 17.7342 18.9899 17.9964 18.9877C18.2586 18.9854 18.5094 18.8802 18.6948 18.6948C18.8802 18.5094 18.9854 18.2586 18.9877 17.9964C18.99 17.7342 18.8892 17.4816 18.707 17.293L13.414 12L18.707 6.70699C18.8025 6.61474 18.8787 6.5044 18.9311 6.38239C18.9835 6.26039 19.0111 6.12917 19.0123 5.99639C19.0134 5.86361 18.9881 5.73193 18.9378 5.60904C18.8876 5.48614 18.8133 5.37449 18.7194 5.28059C18.6255 5.1867 18.5139 5.11245 18.391 5.06217C18.2681 5.01189 18.1364 4.98659 18.0036 4.98774C17.8708 4.98889 17.7396 5.01648 17.6176 5.06889C17.4956 5.1213 17.3853 5.19748 17.293 5.29299L12 10.586Z" fill="#42526E"/>
</svg>
