<svg width="24" height="24" viewBox="0 0 24 24" fill="none" xmlns="http://www.w3.org/2000/svg">
<rect width="24" height="24" fill="white" fill-opacity="0.01"/>
<path d="M19.293 3.29299L14.293 8.29299C14.1975 8.38524 14.1213 8.49558 14.0689 8.61759C14.0165 8.73959 13.9889 8.87081 13.9877 9.00359C13.9866 9.13637 14.0119 9.26805 14.0622 9.39094C14.1125 9.51384 14.1867 9.62549 14.2806 9.71938C14.3745 9.81328 14.4861 9.88753 14.609 9.93781C14.7319 9.98809 14.8636 10.0134 14.9964 10.0122C15.1292 10.0111 15.2604 9.9835 15.3824 9.93109C15.5044 9.87868 15.6148 9.8025 15.707 9.70699L20.707 4.70699C20.8025 4.61474 20.8787 4.5044 20.9311 4.38239C20.9835 4.26039 21.0111 4.12917 21.0123 3.99639C21.0134 3.86361 20.9881 3.73193 20.9378 3.60904C20.8875 3.48614 20.8133 3.37449 20.7194 3.28059C20.6255 3.1867 20.5138 3.11245 20.391 3.06217C20.2681 3.01189 20.1364 2.98659 20.0036 2.98774C19.8708 2.98889 19.7396 3.01648 19.6176 3.06889C19.4956 3.1213 19.3852 3.19748 19.293 3.29299ZM8.038 4.92899C8.16718 4.93542 8.29633 4.91559 8.41763 4.87071C8.53894 4.82583 8.64989 4.75682 8.74378 4.66786C8.83767 4.5789 8.91255 4.47183 8.9639 4.35312C9.01525 4.23441 9.04201 4.10652 9.04255 3.97718C9.04309 3.84784 9.0174 3.71973 8.96705 3.60059C8.91669 3.48145 8.84271 3.37376 8.74957 3.28402C8.65642 3.19427 8.54606 3.12434 8.42513 3.07844C8.30421 3.03255 8.17523 3.01164 8.046 3.01699L4.058 2.99999C3.77941 2.99866 3.51165 3.10778 3.31335 3.30345C3.11505 3.49913 3.00238 3.76541 3 4.04399L3.017 8.04799C3.01806 8.30207 3.12001 8.54532 3.30042 8.72423C3.48083 8.90314 3.72492 9.00305 3.979 9.00199C4.23308 9.00093 4.47633 8.89898 4.65524 8.71857C4.83415 8.53816 4.93406 8.29407 4.933 8.03999L4.92 4.91599L8.038 4.92899Z" fill="#42526E"/>
<path d="M11 19.998C10.9995 20.1296 11.025 20.2599 11.075 20.3816C11.125 20.5033 11.1987 20.6139 11.2916 20.707C11.3845 20.8001 11.495 20.8739 11.6165 20.9242C11.7381 20.9745 11.8684 21.0003 12 21C12.552 21 13 20.546 13 19.993V12.593C13 12.037 12.685 11.271 12.295 10.88L5.207 3.79299L3.793 5.20699L11 12.414V19.998Z" fill="#42526E"/>
</svg>
