<svg width="24" height="24" viewBox="0 0 24 24" fill="none" xmlns="http://www.w3.org/2000/svg">
<rect width="24" height="24" fill="white" fill-opacity="0.01"/>
<path d="M14 17H20C20.003 17 20 7.006 20 7.006C20 7 14 7 14 7V17ZM12 5H20C21.105 5 22 5.897 22 7.006V16.994C22.001 17.2572 21.9501 17.5181 21.85 17.7615C21.75 18.005 21.6028 18.2263 21.4169 18.4127C21.2311 18.5991 21.0102 18.7469 20.7671 18.8477C20.5239 18.9485 20.2632 19.0003 20 19H12V5ZM1.99999 7H9.99999V5H2.99699C2.86577 4.99987 2.73582 5.02566 2.61461 5.07591C2.49339 5.12615 2.38329 5.19986 2.29065 5.29278C2.198 5.3857 2.12463 5.49602 2.07475 5.61739C2.02487 5.73876 1.99947 5.86878 1.99999 6V7ZM1.99999 11H9.99999V9H1.99999V11ZM1.99999 18C1.99999 18.552 2.45299 19 2.99699 19H9.99999V17H1.99999V18ZM1.99999 15H9.99999V13H1.99999V15Z" fill="#42526E"/>
</svg>
