<svg width="24" height="24" viewBox="0 0 24 24" fill="none" xmlns="http://www.w3.org/2000/svg">
<rect width="24" height="24" fill="white" fill-opacity="0.01"/>
<path fill-rule="evenodd" clip-rule="evenodd" d="M6 17H5V7H6V5H5C4.46957 5 3.96086 5.21071 3.58579 5.58579C3.21071 5.96086 3 6.46957 3 7V17C3 17.5304 3.21071 18.0391 3.58579 18.4142C3.96086 18.7893 4.46957 19 5 19H6V17ZM19 10.005V19H9V5H14.99V7.49C14.99 7.68698 15.0288 7.88204 15.1042 8.06402C15.1796 8.24601 15.2901 8.41137 15.4293 8.55066C15.5686 8.68995 15.734 8.80044 15.916 8.87582C16.098 8.9512 16.293 8.99 16.49 8.99H20.99V8.468C20.99 8.171 20.858 7.89 20.631 7.7L15.557 3.464C15.197 3.164 14.744 3 14.275 3H9C8.46957 3 7.96086 3.21071 7.58579 3.58579C7.21071 3.96086 7 4.46957 7 5V19C7 19.5304 7.21071 20.0391 7.58579 20.4142C7.96086 20.7893 8.46957 21 9 21H19C19.5304 21 20.0391 20.7893 20.4142 20.4142C20.7893 20.0391 21 19.5304 21 19V10.005H19Z" fill="#42526E"/>
</svg>
