<svg width="24" height="24" viewBox="0 0 24 24" fill="none" xmlns="http://www.w3.org/2000/svg">
<rect width="24" height="24" fill="white" fill-opacity="0.01"/>
<path fill-rule="evenodd" clip-rule="evenodd" d="M18.99 8.99L19 10.005V19C19 19.5304 18.7893 20.0391 18.4142 20.4142C18.0391 20.7893 17.5304 21 17 21H7C6.46957 21 5.96086 20.7893 5.58579 20.4142C5.21071 20.0391 5 19.5304 5 19V5C5 4.46957 5.21071 3.96086 5.58579 3.58579C5.96086 3.21071 6.46957 3 7 3H12.275C12.744 3 13.197 3.164 13.557 3.464L18.631 7.7C18.858 7.89 18.99 8.171 18.99 8.468V8.989V8.99ZM12.02 5L12 8.192C11.9999 8.32243 12.0255 8.4516 12.0755 8.57209C12.1254 8.69258 12.1987 8.80201 12.291 8.8941C12.3834 8.98619 12.493 9.05912 12.6137 9.1087C12.7343 9.15828 12.8636 9.18353 12.994 9.183H16.994L12.02 5Z" fill="#42526E"/>
</svg>
