<svg width="24" height="24" viewBox="0 0 24 24" fill="none" xmlns="http://www.w3.org/2000/svg">
<rect width="24" height="24" fill="white" fill-opacity="0.01"/>
<path fill-rule="evenodd" clip-rule="evenodd" d="M4.02 19.23C3.98689 19.392 3.99446 19.5597 4.04204 19.718C4.08962 19.8764 4.17572 20.0205 4.29263 20.1374C4.40955 20.2543 4.55363 20.3404 4.71198 20.388C4.87033 20.4355 5.038 20.4431 5.2 20.41L9.01 19.63L4.8 15.42L4.02 19.23ZM19.844 6.707L17.724 4.585C17.5381 4.39908 17.3173 4.2517 17.0743 4.15131C16.8313 4.05092 16.5709 3.9995 16.308 4C15.796 4 15.284 4.195 14.893 4.585L5.136 14.343L10.086 19.293L19.843 9.535C20.2179 9.15995 20.4286 8.65133 20.4286 8.121C20.4286 7.59068 20.2179 7.08206 19.843 6.707H19.844Z" fill="#42526E"/>
</svg>
