<svg width="24" height="24" viewBox="0 0 24 24" fill="none" xmlns="http://www.w3.org/2000/svg">
<rect width="24" height="24" fill="white" fill-opacity="0.01"/>
<path d="M5 7V17H19V7H5ZM19 5C20.1 5 21 5.9 21 7V17C21 18.1 20.1 19 19 19H5C3.9 19 3 18.1 3 17V7C3 5.9 3.9 5 5 5H19Z" fill="#42526E"/>
<path fill-rule="evenodd" clip-rule="evenodd" d="M5.498 6.5H3.124C3.273 6.94 3.523 7.354 3.874 7.705L9.756 13.586C10.0455 13.8757 10.3892 14.1056 10.7676 14.2624C11.1459 14.4192 11.5514 14.4999 11.961 14.4999C12.3706 14.4999 12.7761 14.4192 13.1544 14.2624C13.5328 14.1056 13.8765 13.8757 14.166 13.586L20.048 7.705C20.398 7.354 20.648 6.94 20.797 6.5H18.424L12.752 12.172C12.6481 12.276 12.5247 12.3585 12.3889 12.4147C12.2531 12.471 12.1075 12.5 11.9605 12.5C11.8135 12.5 11.6679 12.471 11.5321 12.4147C11.3963 12.3585 11.2729 12.276 11.169 12.172L5.498 6.5Z" fill="#42526E"/>
</svg>
