<svg width="24" height="24" viewBox="0 0 24 24" fill="none" xmlns="http://www.w3.org/2000/svg">
<rect width="24" height="24" fill="white" fill-opacity="0.01"/>
<path d="M8.049 14.197C7.883 13.721 8.152 13.206 8.651 13.047C9.151 12.888 9.69 13.145 9.856 13.622C9.916 13.796 10.081 14.109 10.351 14.418C10.777 14.906 11.306 15.182 12 15.182C12.693 15.182 13.223 14.906 13.65 14.418C13.92 14.108 14.083 13.796 14.144 13.622C14.31 13.146 14.85 12.888 15.348 13.047C15.848 13.206 16.118 13.72 15.951 14.197C15.821 14.568 15.556 15.073 15.112 15.582C14.348 16.458 13.306 17 12 17C10.694 17 9.652 16.458 8.888 15.582C8.52472 15.1764 8.2402 14.7068 8.049 14.197ZM9.5 11C9.10218 11 8.72065 10.842 8.43934 10.5606C8.15804 10.2793 8 9.89781 8 9.49999C8 9.10216 8.15804 8.72063 8.43934 8.43933C8.72065 8.15802 9.10218 7.99999 9.5 7.99999C9.89783 7.99999 10.2794 8.15802 10.5607 8.43933C10.842 8.72063 11 9.10216 11 9.49999C11 9.89781 10.842 10.2793 10.5607 10.5606C10.2794 10.842 9.89783 11 9.5 11ZM14.5 11C14.1022 11 13.7206 10.842 13.4393 10.5606C13.158 10.2793 13 9.89781 13 9.49999C13 9.10216 13.158 8.72063 13.4393 8.43933C13.7206 8.15802 14.1022 7.99999 14.5 7.99999C14.8978 7.99999 15.2794 8.15802 15.5607 8.43933C15.842 8.72063 16 9.10216 16 9.49999C16 9.89781 15.842 10.2793 15.5607 10.5606C15.2794 10.842 14.8978 11 14.5 11ZM19 4.99999H20C20.2652 4.99999 20.5196 5.10534 20.7071 5.29288C20.8946 5.48042 21 5.73477 21 5.99999C21 6.2652 20.8946 6.51956 20.7071 6.70709C20.5196 6.89463 20.2652 6.99999 20 6.99999H19V7.99999C19 8.2652 18.8946 8.51956 18.7071 8.70709C18.5196 8.89463 18.2652 8.99999 18 8.99999C17.7348 8.99999 17.4804 8.89463 17.2929 8.70709C17.1054 8.51956 17 8.2652 17 7.99999V6.99999H16C15.7348 6.99999 15.4804 6.89463 15.2929 6.70709C15.1054 6.51956 15 6.2652 15 5.99999C15 5.73477 15.1054 5.48042 15.2929 5.29288C15.4804 5.10534 15.7348 4.99999 16 4.99999H17V3.99999C17 3.73477 17.1054 3.48042 17.2929 3.29288C17.4804 3.10534 17.7348 2.99999 18 2.99999C18.2652 2.99999 18.5196 3.10534 18.7071 3.29288C18.8946 3.48042 19 3.73477 19 3.99999V4.99999ZM14 3.22299V5.28999C12.5073 4.84527 10.9088 4.91112 9.45775 5.4771C8.00665 6.04309 6.78577 7.07688 5.98834 8.41484C5.19092 9.7528 4.86251 11.3185 5.0551 12.8641C5.24769 14.4097 5.95027 15.847 7.05164 16.9483C8.15301 18.0497 9.59025 18.7523 11.1359 18.9449C12.6815 19.1375 14.2472 18.8091 15.5851 18.0116C16.9231 17.2142 17.9569 15.9933 18.5229 14.5422C19.0889 13.0911 19.1547 11.4927 18.71 9.99999H20.777C21.2104 11.9033 21.0133 13.8959 20.2153 15.6774C19.4174 17.4589 18.0619 18.9326 16.3532 19.8764C14.6445 20.8202 12.6753 21.1829 10.7424 20.9098C8.80962 20.6367 7.01799 19.7426 5.6377 18.3623C4.25741 16.982 3.3633 15.1904 3.09019 13.2575C2.81707 11.3247 3.17976 9.3555 4.12357 7.64681C5.06738 5.93812 6.54113 4.5826 8.32261 3.78464C10.1041 2.98669 12.0967 2.78956 14 3.22299Z" fill="#42526E"/>
</svg>
