<svg width="24" height="24" viewBox="0 0 24 24" fill="none" xmlns="http://www.w3.org/2000/svg">
<rect width="24" height="24" fill="white" fill-opacity="0.01"/>
<path d="M12 3C13.1819 3 14.3522 3.23279 15.4442 3.68508C16.5361 4.13738 17.5282 4.80031 18.364 5.63604C19.1997 6.47177 19.8626 7.46392 20.3149 8.55585C20.7672 9.64778 21 10.8181 21 12C21 13.1819 20.7672 14.3522 20.3149 15.4442C19.8626 16.5361 19.1997 17.5282 18.364 18.364C17.5282 19.1997 16.5361 19.8626 15.4442 20.3149C14.3522 20.7672 13.1819 21 12 21C9.61305 21 7.32387 20.0518 5.63604 18.364C3.94821 16.6761 3 14.3869 3 12C3 9.61305 3.94821 7.32387 5.63604 5.63604C7.32387 3.94821 9.61305 3 12 3ZM12 19.071C15.9 19.071 19.071 15.9 19.071 12C19.071 8.1 15.9 4.929 12 4.929C10.1253 4.93112 8.328 5.67678 7.00239 7.00239C5.67677 8.328 4.93112 10.1253 4.929 12C4.929 15.9 8.1 19.071 12 19.071ZM10.071 11.357C9.90212 11.3569 9.73491 11.3236 9.57891 11.2589C9.42291 11.1942 9.28118 11.0994 9.16181 10.98C9.04244 10.8605 8.94777 10.7187 8.8832 10.5627C8.81863 10.4066 8.78543 10.2394 8.7855 10.0705C8.78557 9.90162 8.81889 9.73441 8.88358 9.57841C8.94827 9.42241 9.04305 9.28068 9.16251 9.16131C9.28198 9.04194 9.42378 8.94727 9.57983 8.8827C9.73588 8.81813 9.90312 8.78493 10.072 8.785C10.4131 8.785 10.7402 8.92049 10.9813 9.16166C11.2225 9.40283 11.358 9.72993 11.358 10.071C11.358 10.4121 11.2225 10.7392 10.9813 10.9803C10.7402 11.2215 10.4131 11.357 10.072 11.357H10.071ZM13.929 11.357C13.5879 11.357 13.2608 11.2215 13.0197 10.9803C12.7785 10.7392 12.643 10.4121 12.643 10.071C12.643 9.72993 12.7785 9.40283 13.0197 9.16166C13.2608 8.92049 13.5879 8.785 13.929 8.785C14.2701 8.785 14.5972 8.92049 14.8383 9.16166C15.0795 9.40283 15.215 9.72993 15.215 10.071C15.215 10.4121 15.0795 10.7392 14.8383 10.9803C14.5972 11.2215 14.2701 11.357 13.929 11.357ZM14.276 13.392C14.4211 13.2443 14.6176 13.1583 14.8245 13.1517C15.0314 13.1451 15.233 13.2185 15.3872 13.3566C15.5414 13.4948 15.6365 13.687 15.6527 13.8934C15.6688 14.0998 15.6048 14.3045 15.474 14.465C15.0365 14.9533 14.501 15.344 13.9024 15.6116C13.3039 15.8791 12.6557 16.0176 12 16.018C11.3455 16.0177 10.6985 15.8797 10.1008 15.613C9.50319 15.3463 8.96833 14.9569 8.531 14.47C8.3951 14.3104 8.32687 14.1041 8.34085 13.895C8.35484 13.6859 8.44994 13.4905 8.60588 13.3505C8.76182 13.2104 8.96628 13.1368 9.1757 13.1453C9.38511 13.1538 9.58293 13.2438 9.727 13.396C10.885 14.686 13.12 14.686 14.276 13.392Z" fill="#42526E"/>
</svg>
