<svg width="24" height="24" viewBox="0 0 24 24" fill="none" xmlns="http://www.w3.org/2000/svg">
<rect width="24" height="24" fill="white" fill-opacity="0.01"/>
<path d="M13 6.49101V16C13 16.2652 12.8946 16.5196 12.7071 16.7071C12.5196 16.8947 12.2652 17 12 17C11.7348 17 11.4804 16.8947 11.2929 16.7071C11.1054 16.5196 11 16.2652 11 16V6.49101L9.78399 7.69701C9.58724 7.89158 9.3217 8.0007 9.04499 8.0007C8.76829 8.0007 8.50275 7.89158 8.30599 7.69701C8.20897 7.60129 8.13193 7.48724 8.07935 7.3615C8.02677 7.23575 7.99969 7.10081 7.99969 6.96451C7.99969 6.82822 8.02677 6.69328 8.07935 6.56753C8.13193 6.44178 8.20897 6.32774 8.30599 6.23201L11.261 3.30301C11.4577 3.10845 11.7233 2.99933 12 2.99933C12.2767 2.99933 12.5422 3.10845 12.739 3.30301L15.694 6.23301C16.102 6.63701 16.102 7.29301 15.694 7.69701C15.4972 7.89158 15.2317 8.0007 14.955 8.0007C14.6783 8.0007 14.4127 7.89158 14.216 7.69701L13 6.49001V6.49101ZM8.99999 9.00001V11H6.99999C6.99799 11 6.99999 18.991 6.99999 18.991C6.99999 18.995 16.994 19 16.994 19C16.997 19 17 11.009 17 11.009C17 11.003 15 11 15 11V9.00001H17C18.105 9.00001 19 9.90201 19 11.009V18.991C19 20.101 18.103 21 16.994 21H7.00599C6.47369 20.9992 5.96347 20.7872 5.58736 20.4105C5.21124 20.0339 4.99999 19.5233 4.99999 18.991V11.01C4.99868 10.7465 5.04944 10.4854 5.14936 10.2416C5.24928 9.99777 5.39639 9.77611 5.58223 9.58933C5.76808 9.40255 5.98901 9.25434 6.23231 9.1532C6.47562 9.05207 6.73651 9.00001 6.99999 9.00001H8.99999Z" fill="#42526E"/>
</svg>
