<svg width="24" height="24" viewBox="0 0 24 24" fill="none" xmlns="http://www.w3.org/2000/svg">
<rect width="24" height="24" fill="white" fill-opacity="0.01"/>
<path fill-rule="evenodd" clip-rule="evenodd" d="M17 10.005V19H7V5H12.99V7.49C12.99 7.88782 13.148 8.26936 13.4293 8.55066C13.7106 8.83196 14.0922 8.99 14.49 8.99H18.99V8.468C18.99 8.171 18.858 7.89 18.631 7.7L13.557 3.464C13.197 3.164 12.744 3 12.275 3H7C6.46957 3 5.96086 3.21071 5.58579 3.58579C5.21071 3.96086 5 4.46957 5 5V19C5 19.5304 5.21071 20.0391 5.58579 20.4142C5.96086 20.7893 6.46957 21 7 21H17C17.5304 21 18.0391 20.7893 18.4142 20.4142C18.7893 20.0391 19 19.5304 19 19V10.005H17Z" fill="#42526E"/>
<path d="M15 12H9C8.44772 12 8 12.4477 8 13C8 13.5523 8.44772 14 9 14H15C15.5523 14 16 13.5523 16 13C16 12.4477 15.5523 12 15 12Z" fill="#42526E"/>
<path d="M11 15H9C8.44772 15 8 15.4477 8 16C8 16.5523 8.44772 17 9 17H11C11.5523 17 12 16.5523 12 16C12 15.4477 11.5523 15 11 15Z" fill="#42526E"/>
</svg>
