<svg width="24" height="24" viewBox="0 0 24 24" fill="none" xmlns="http://www.w3.org/2000/svg">
<rect width="24" height="24" fill="white" fill-opacity="0.01"/>
<path d="M6 12.235V18.681C6 19.218 6.45 19.658 7 19.658C7.55 19.658 8 19.218 8 18.681V12.903C9.17 12.562 10.389 12.858 11.768 13.193C12.75 13.431 13.804 13.688 14.898 13.688C15.7793 13.6974 16.6509 13.5034 17.445 13.121C17.6139 13.039 17.7562 12.9111 17.8558 12.7519C17.9554 12.5927 18.0081 12.4088 18.008 12.221V5.46601C18.0086 5.29627 17.966 5.12918 17.884 4.98052C17.8021 4.83186 17.6836 4.70656 17.5397 4.61647C17.3959 4.52637 17.2314 4.47445 17.0619 4.46562C16.8924 4.45679 16.7234 4.49135 16.571 4.56601C15.226 5.22001 13.84 4.88301 12.24 4.49501C10.511 4.07501 8.553 3.60001 6.562 4.56701C6.39348 4.64912 6.25143 4.77695 6.15205 4.93591C6.05268 5.09486 6 5.27855 6 5.46601V12.235Z" fill="#42526E"/>
</svg>
