<svg width="24" height="24" viewBox="0 0 24 24" fill="none" xmlns="http://www.w3.org/2000/svg">
<rect width="24" height="24" fill="white" fill-opacity="0.01"/>
<path fill-rule="evenodd" clip-rule="evenodd" d="M20.99 6C20.9909 6.12978 20.9661 6.25846 20.917 6.3786C20.8679 6.49874 20.7955 6.60798 20.704 6.7L19.371 7.969L20.655 9.269C20.7934 9.38673 20.8964 9.54055 20.9526 9.71335C21.0088 9.88614 21.0159 10.0711 20.9732 10.2477C20.9305 10.4243 20.8396 10.5856 20.7107 10.7137C20.5818 10.8417 20.4199 10.9315 20.243 10.973C20.0663 11.0152 19.8814 11.0079 19.7085 10.952C19.5357 10.8961 19.3815 10.7937 19.263 10.656L17.287 8.687C17.1034 8.50291 17.0003 8.25351 17.0003 7.9935C17.0003 7.73349 17.1034 7.48409 17.287 7.3L19.322 5.272C19.463 5.13804 19.6403 5.04858 19.8319 5.01479C20.0234 4.981 20.2207 5.00437 20.399 5.082C20.764 5.242 20.996 5.604 20.99 6ZM5 14C5 12.895 5.902 12 7.009 12H14.991C16.101 12 17 12.894 17 14.006V18.446C17 21.851 5 21.851 5 18.446V14Z" fill="#42526E"/>
<path d="M11 11C13.2091 11 15 9.20914 15 7C15 4.79086 13.2091 3 11 3C8.79086 3 7 4.79086 7 7C7 9.20914 8.79086 11 11 11Z" fill="#42526E"/>
</svg>
