<svg width="24" height="24" viewBox="0 0 24 24" fill="none" xmlns="http://www.w3.org/2000/svg">
<rect width="24" height="24" fill="white" fill-opacity="0.01"/>
<path fill-rule="evenodd" clip-rule="evenodd" d="M5 14C5 12.895 5.902 12 7.009 12H14.991C16.101 12 17 12.894 17 14.006V18.446C17 21.851 5 21.851 5 18.446V14Z" fill="#42526E"/>
<path d="M11 11C13.2091 11 15 9.20914 15 7C15 4.79086 13.2091 3 11 3C8.79086 3 7 4.79086 7 7C7 9.20914 8.79086 11 11 11Z" fill="#42526E"/>
<path d="M17.293 9.293C17.1975 9.38525 17.1213 9.49559 17.0689 9.6176C17.0165 9.7396 16.9889 9.87082 16.9877 10.0036C16.9866 10.1364 17.0119 10.2681 17.0622 10.391C17.1125 10.5139 17.1867 10.6255 17.2806 10.7194C17.3745 10.8133 17.4862 10.8875 17.609 10.9378C17.7319 10.9881 17.8636 11.0134 17.9964 11.0123C18.1292 11.0111 18.2604 10.9835 18.3824 10.9311C18.5044 10.8787 18.6148 10.8025 18.707 10.707L20.703 8.711C20.7972 8.61807 20.8719 8.50737 20.9229 8.38531C20.974 8.26326 21.0002 8.13229 21.0002 8C21.0002 7.86771 20.974 7.73674 20.9229 7.61469C20.8719 7.49263 20.7972 7.38193 20.703 7.289L18.707 5.293C18.5184 5.11084 18.2658 5.01005 18.0036 5.01233C17.7414 5.0146 17.4906 5.11977 17.3052 5.30518C17.1198 5.49059 17.0146 5.7414 17.0123 6.0036C17.01 6.2658 17.1108 6.5184 17.293 6.707L18.586 8L17.293 9.293Z" fill="#42526E"/>
</svg>
