<svg width="24" height="24" viewBox="0 0 24 24" fill="none" xmlns="http://www.w3.org/2000/svg">
<rect width="24" height="24" fill="white" fill-opacity="0.01"/>
<path d="M21 17H4.995C4.448 17 4 16.548 4 15.991V6C4 5.73478 3.89465 5.48043 3.70711 5.29289C3.51957 5.10536 3.26522 5 3 5C2.73479 5 2.48043 5.10536 2.2929 5.29289C2.10536 5.48043 2 5.73478 2 6V15.991C1.99868 16.787 2.31335 17.551 2.8749 18.1152C3.43646 18.6794 4.19899 18.9976 4.995 19H21C21.2652 19 21.5196 18.8946 21.7071 18.7071C21.8946 18.5196 22 18.2652 22 18C22 17.7348 21.8946 17.4804 21.7071 17.2929C21.5196 17.1054 21.2652 17 21 17ZM18 9V12C18 12.2652 18.1054 12.5196 18.2929 12.7071C18.4804 12.8946 18.7348 13 19 13C19.2652 13 19.5196 12.8946 19.7071 12.7071C19.8946 12.5196 20 12.2652 20 12V8C20 7.73478 19.8946 7.48043 19.7071 7.29289C19.5196 7.10536 19.2652 7 19 7H15C14.7348 7 14.4804 7.10536 14.2929 7.29289C14.1054 7.48043 14 7.73478 14 8C14 8.26522 14.1054 8.51957 14.2929 8.70711C14.4804 8.89464 14.7348 9 15 9H18Z" fill="#42526E"/>
<path d="M13.293 13.707C13.4805 13.8945 13.7348 13.9998 14 13.9998C14.2652 13.9998 14.5195 13.8945 14.707 13.707L18.707 9.707C18.8025 9.61475 18.8787 9.50441 18.9311 9.3824C18.9835 9.2604 19.0111 9.12918 19.0123 8.9964C19.0134 8.86362 18.9881 8.73194 18.9378 8.60905C18.8875 8.48615 18.8133 8.3745 18.7194 8.28061C18.6255 8.18671 18.5139 8.11246 18.391 8.06218C18.2681 8.0119 18.1364 7.9866 18.0036 7.98775C17.8708 7.9889 17.7396 8.01649 17.6176 8.0689C17.4956 8.12131 17.3853 8.19749 17.293 8.293L14 11.586L11.707 9.293C11.5195 9.10553 11.2652 9.00021 11 9.00021C10.7348 9.00021 10.4805 9.10553 10.293 9.293L6.293 13.293C6.11085 13.4816 6.01005 13.7342 6.01233 13.9964C6.01461 14.2586 6.11978 14.5094 6.30519 14.6948C6.49059 14.8802 6.74141 14.9854 7.0036 14.9877C7.2658 14.99 7.5184 14.8892 7.707 14.707L11 11.414L13.293 13.707Z" fill="#42526E"/>
</svg>
