<svg width="24" height="24" viewBox="0 0 24 24" fill="none" xmlns="http://www.w3.org/2000/svg">
<rect width="24" height="24" fill="white" fill-opacity="0.01"/>
<path d="M21 7C21 5.89543 20.1046 5 19 5C17.8954 5 17 5.89543 17 7V14C17 15.1046 17.8954 16 19 16C20.1046 16 21 15.1046 21 14V7Z" fill="#42526E"/>
<path d="M15 10C15 8.89543 14.1046 8 13 8C11.8954 8 11 8.89543 11 10V14C11 15.1046 11.8954 16 13 16C14.1046 16 15 15.1046 15 14V10Z" fill="#42526E"/>
<path d="M9 13C9 11.8954 8.10457 11 7 11C5.89543 11 5 11.8954 5 13V14C5 15.1046 5.89543 16 7 16C8.10457 16 9 15.1046 9 14V13Z" fill="#42526E"/>
<path d="M21 17H4.995C4.448 17 4 16.548 4 15.991V6C4 5.73478 3.89465 5.48043 3.70711 5.29289C3.51957 5.10536 3.26522 5 3 5C2.73479 5 2.48043 5.10536 2.2929 5.29289C2.10536 5.48043 2 5.73478 2 6V15.991C1.99868 16.787 2.31335 17.551 2.8749 18.1152C3.43646 18.6794 4.19899 18.9976 4.995 19H21C21.2652 19 21.5196 18.8946 21.7071 18.7071C21.8946 18.5196 22 18.2652 22 18C22 17.7348 21.8946 17.4804 21.7071 17.2929C21.5196 17.1054 21.2652 17 21 17Z" fill="#42526E"/>
</svg>
