<svg width="24" height="24" viewBox="0 0 24 24" fill="none" xmlns="http://www.w3.org/2000/svg">
<rect width="24" height="24" fill="white" fill-opacity="0.01"/>
<path d="M16.83 7.662C16.2456 7.05337 15.5571 6.55418 14.797 6.188C14.074 5.848 13.16 5.683 12.109 5.683C11.263 5.683 10.459 5.833 9.708 6.133C8.97564 6.42199 8.30803 6.85369 7.744 7.403C7.1606 7.9659 6.70054 8.6439 6.393 9.394C6.065 10.172 5.902 11.031 5.902 11.986C5.902 12.941 6.065 13.801 6.392 14.578C6.69981 15.3247 7.16033 15.9988 7.744 16.557C8.31975 17.1075 8.99559 17.5427 9.735 17.839C10.485 18.139 11.305 18.289 12.164 18.289C13.078 18.289 13.883 18.166 14.564 17.907C15.2099 17.6674 15.8064 17.3115 16.324 16.857C16.652 16.557 16.952 16.188 17.211 15.752C17.471 15.302 17.675 14.81 17.825 14.265H12.055V10.99H21.468C21.523 11.209 21.563 11.468 21.604 11.795C21.645 12.123 21.659 12.423 21.659 12.737C21.659 14.033 21.468 15.206 21.086 16.284C20.7083 17.3423 20.1186 18.3125 19.353 19.135C18.493 20.049 17.471 20.745 16.27 21.25C15.07 21.754 13.692 22 12.15 22C10.759 22 9.449 21.754 8.221 21.25C7.02167 20.7634 5.92485 20.055 4.988 19.162C4.06591 18.2606 3.32491 17.191 2.805 16.011C2.259 14.797 2 13.446 2 12C2 10.554 2.273 9.217 2.805 7.99C3.31129 6.79801 4.0539 5.721 4.988 4.824C5.902 3.937 6.98 3.255 8.22 2.75C9.46858 2.24617 10.8036 1.99139 12.15 2C13.732 2 15.137 2.273 16.351 2.819C17.5426 3.34842 18.6145 4.11382 19.502 5.069L16.83 7.663V7.662Z" fill="#42526E"/>
</svg>
