<svg width="24" height="24" viewBox="0 0 24 24" fill="none" xmlns="http://www.w3.org/2000/svg">
<rect width="24" height="24" fill="white" fill-opacity="0.01"/>
<path d="M19 7C20.105 7.003 21 7.899 21 9.006V18.994C21.0001 19.2575 20.9483 19.5184 20.8476 19.7618C20.7468 20.0053 20.5991 20.2264 20.4128 20.4128C20.2264 20.5991 20.0053 20.7468 19.7618 20.8476C19.5184 20.9483 19.2575 21.0001 18.994 21H9.006C8.47493 21.0003 7.96545 20.7898 7.58937 20.4149C7.21329 20.0399 7.00132 19.5311 7 19H18C18.555 19 19 18.552 19 18V7ZM3 5.006C3 3.898 3.897 3 5.006 3H14.994C16.102 3 17 3.897 17 5.006V14.994C17.0001 15.2575 16.9483 15.5184 16.8476 15.7618C16.7468 16.0053 16.5991 16.2264 16.4128 16.4128C16.2264 16.5991 16.0053 16.7468 15.7618 16.8476C15.5184 16.9483 15.2575 17.0001 14.994 17H5.006C4.74253 17.0001 4.48162 16.9483 4.23818 16.8476C3.99474 16.7468 3.77355 16.5991 3.58725 16.4128C3.40095 16.2264 3.25319 16.0053 3.15243 15.7618C3.05167 15.5184 2.99987 15.2575 3 14.994V5.006ZM5 5V15H15V5H5Z" fill="#42526E"/>
<path fill-rule="evenodd" clip-rule="evenodd" d="M9.577 6.77L8.763 8.513L6.896 8.8C6.81115 8.81424 6.73178 8.85135 6.66646 8.90734C6.60113 8.96333 6.55231 9.03608 6.52525 9.11775C6.4982 9.19943 6.49394 9.28694 6.51292 9.37086C6.53191 9.45477 6.57342 9.53192 6.633 9.594L7.998 10.999L7.681 12.954C7.66547 13.0408 7.67495 13.1303 7.70834 13.2119C7.74172 13.2935 7.79764 13.364 7.86956 13.4151C7.94148 13.4661 8.02643 13.4957 8.11451 13.5003C8.20259 13.5048 8.29016 13.4843 8.367 13.441L10 12.535L11.633 13.441C11.7098 13.4843 11.7974 13.5048 11.8855 13.5003C11.9736 13.4957 12.0585 13.4661 12.1304 13.4151C12.2024 13.364 12.2583 13.2935 12.2917 13.2119C12.3251 13.1303 12.3345 13.0408 12.319 12.954L12.002 10.999L13.366 9.594C13.4266 9.53235 13.4691 9.45517 13.4887 9.37095C13.5083 9.28673 13.5043 9.19874 13.4771 9.11665C13.4499 9.03457 13.4006 8.96158 13.3346 8.90571C13.2686 8.84984 13.1884 8.81326 13.103 8.8L11.237 8.513L10.422 6.77C10.3845 6.68963 10.3249 6.62158 10.2502 6.57378C10.1755 6.52598 10.0887 6.50039 10 6.5C9.825 6.5 9.657 6.6 9.577 6.77Z" fill="#42526E"/>
</svg>
