<svg width="24" height="24" viewBox="0 0 24 24" fill="none" xmlns="http://www.w3.org/2000/svg">
<rect width="24" height="24" fill="white" fill-opacity="0.01"/>
<path d="M10 19V14.5C10 13.9696 10.2107 13.4608 10.5858 13.0858C10.9609 12.7107 11.4696 12.5 12 12.5C12.5304 12.5 13.0391 12.7107 13.4142 13.0858C13.7893 13.4608 14 13.9696 14 14.5V19H18C18.2652 19 18.5196 18.8946 18.7071 18.7071C18.8946 18.5196 19 18.2652 19 18V10.169L12.707 3.87299C12.5195 3.68552 12.2652 3.5802 12 3.5802C11.7348 3.5802 11.4805 3.68552 11.293 3.87299L5 10.169V18C5 18.2652 5.10535 18.5196 5.29289 18.7071C5.48043 18.8946 5.73478 19 6 19H10ZM21 12.17V18C21 18.7956 20.6839 19.5587 20.1213 20.1213C19.5587 20.6839 18.7956 21 18 21H6C5.20435 21 4.44129 20.6839 3.87868 20.1213C3.31607 19.5587 3 18.7956 3 18V12.17L2.96 12.21C2.57 12.6 1.93 12.6 1.54 12.21C1.15 11.82 1.15 11.18 1.54 10.79L9.879 2.45899C10.4416 1.89657 11.2045 1.58063 12 1.58063C12.7955 1.58063 13.5584 1.89657 14.121 2.45899L22.46 10.79C22.85 11.18 22.85 11.82 22.46 12.21C22.07 12.6 21.43 12.6 21.04 12.21L21 12.17Z" fill="#42526E"/>
</svg>
