<svg width="24" height="24" viewBox="0 0 24 24" fill="none" xmlns="http://www.w3.org/2000/svg">
<rect width="24" height="24" fill="white" fill-opacity="0.01"/>
<path fill-rule="evenodd" clip-rule="evenodd" d="M10.5 16H9C8.73478 16 8.48043 15.8946 8.29289 15.7071C8.10536 15.5196 8 15.2652 8 15V10.054L11.28 6.675L11.301 6.654C11.4913 6.46929 11.7472 6.36773 12.0123 6.37167C12.2775 6.37561 12.5303 6.48472 12.715 6.675L16 10.059V15C16 15.2652 15.8946 15.5196 15.7071 15.7071C15.5196 15.8946 15.2652 16 15 16H13.5V13.5C13.5 13.1022 13.342 12.7206 13.0607 12.4393C12.7794 12.158 12.3978 12 12 12C11.6022 12 11.2206 12.158 10.9393 12.4393C10.658 12.7206 10.5 13.1022 10.5 13.5V16ZM18 12.064C18.2091 12.1839 18.4545 12.2243 18.6911 12.1776C18.9276 12.1309 19.1393 12.0004 19.2872 11.81C19.4351 11.6196 19.5092 11.3822 19.4959 11.1415C19.4827 10.9008 19.3829 10.673 19.215 10.5L14.15 5.282C13.5958 4.71115 12.8376 4.38382 12.042 4.372C11.2465 4.36019 10.4789 4.66486 9.908 5.219L9.845 5.282L4.78 10.5C4.61185 10.6734 4.51211 10.9017 4.49923 11.1429C4.48634 11.3841 4.56117 11.6217 4.70989 11.812C4.85861 12.0023 5.07118 12.1324 5.30832 12.1781C5.54546 12.2239 5.79115 12.1823 6 12.061V15C6 15.7956 6.31607 16.5587 6.87868 17.1213C7.44129 17.6839 8.20435 18 9 18H15C15.7956 18 16.5587 17.6839 17.1213 17.1213C17.6839 16.5587 18 15.7956 18 15V12.064ZM12 22C6.477 22 2 17.523 2 12C2 6.477 6.477 2 12 2C17.523 2 22 6.477 22 12C22 17.523 17.523 22 12 22Z" fill="#42526E"/>
</svg>
