<svg width="24" height="24" viewBox="0 0 24 24" fill="none" xmlns="http://www.w3.org/2000/svg">
<rect width="24" height="24" fill="white" fill-opacity="0.01"/>
<path fill-rule="evenodd" clip-rule="evenodd" d="M3 4.995C3 3.893 3.893 3 4.995 3H19.005C20.107 3 21 3.893 21 4.995V19.005C21 19.5341 20.7898 20.0415 20.4157 20.4157C20.0415 20.7898 19.5341 21 19.005 21H4.995C4.46589 21 3.95846 20.7898 3.58432 20.4157C3.21019 20.0415 3 19.5341 3 19.005V4.995ZM10.5 16.5L9 15L6 18H18V15.3L15 12L10.5 16.5ZM8 10C8.53043 10 9.03914 9.78929 9.41421 9.41421C9.78929 9.03914 10 8.53043 10 8C10 7.46957 9.78929 6.96086 9.41421 6.58579C9.03914 6.21071 8.53043 6 8 6C7.46957 6 6.96086 6.21071 6.58579 6.58579C6.21071 6.96086 6 7.46957 6 8C6 8.53043 6.21071 9.03914 6.58579 9.41421C6.96086 9.78929 7.46957 10 8 10Z" fill="#42526E"/>
</svg>
