<svg width="24" height="24" viewBox="0 0 24 24" fill="none" xmlns="http://www.w3.org/2000/svg">
<rect width="24" height="24" fill="white" fill-opacity="0.01"/>
<path fill-rule="evenodd" clip-rule="evenodd" d="M3 17V20.41C3 20.736 3.262 21 3.59 21H7V19H5V17H3ZM19 17V19H17V21H20.41C20.738 21 21 20.736 21 20.41V17H19ZM3.59 2.99999C3.51248 2.99986 3.4357 3.01503 3.36406 3.04464C3.29242 3.07424 3.22733 3.11769 3.17251 3.17251C3.1177 3.22732 3.07425 3.29241 3.04464 3.36405C3.01504 3.4357 2.99987 3.51248 3 3.58999V6.99999H5V4.99999H7V2.99999H3.59ZM17 2.99999V4.99999H19V6.99999H21V3.58999C21.0001 3.51248 20.985 3.4357 20.9554 3.36405C20.9258 3.29241 20.8823 3.22732 20.8275 3.17251C20.7727 3.11769 20.7076 3.07424 20.6359 3.04464C20.5643 3.01503 20.4875 2.99986 20.41 2.99999H17ZM14 4.99999H16V2.99899H14V4.99999ZM8 4.99999H13V2.99899H8V4.99999ZM19 9.99999H21.001V7.99999H19V9.99999ZM3 12H5V7.99999H3V12ZM19 16H21.001V11H19V16ZM3 16H5V13H3V16ZM12 21H16V19H12V21ZM8 21H11V19H8V21Z" fill="#42526E"/>
</svg>
