<svg width="24" height="24" viewBox="0 0 24 24" fill="none" xmlns="http://www.w3.org/2000/svg">
<rect width="24" height="24" fill="white" fill-opacity="0.01"/>
<path fill-rule="evenodd" clip-rule="evenodd" d="M5 3H19C20.1046 3 21 3.89543 21 5V19C21 20.1046 20.1046 21 19 21H5C3.89543 21 3 20.1046 3 19V5C3 3.89543 3.89543 3 5 3ZM5 17.89V14C5 13.7348 5.10536 13.4804 5.29289 13.2929C5.48043 13.1054 5.73478 13 6 13C6.26522 13 6.51957 13.1054 6.70711 13.2929C6.89464 13.4804 7 13.7348 7 14V15.414L15.414 7H14C13.7348 7 13.4804 6.89464 13.2929 6.70711C13.1054 6.51957 13 6.26522 13 6C13 5.73478 13.1054 5.48043 13.2929 5.29289C13.4804 5.10536 13.7348 5 14 5H17.9C18.0445 5 18.1875 5.02845 18.321 5.08373C18.4544 5.13901 18.5757 5.22004 18.6778 5.32218C18.78 5.42433 18.861 5.54559 18.9163 5.67905C18.9715 5.81251 19 5.95555 19 6.1V9.99C19 10.2552 18.8946 10.5096 18.7071 10.6971C18.5196 10.8846 18.2652 10.99 18 10.99C17.7348 10.99 17.4804 10.8846 17.2929 10.6971C17.1054 10.5096 17 10.2552 17 9.99V8.24201L8.25201 16.99H10C10.2652 16.99 10.5196 17.0954 10.7071 17.2829C10.8946 17.4704 11 17.7248 11 17.99C11 18.2552 10.8946 18.5096 10.7071 18.6971C10.5196 18.8846 10.2652 18.99 10 18.99H6.1C5.95555 18.99 5.81251 18.9615 5.67905 18.9063C5.54559 18.851 5.42433 18.77 5.32218 18.6678C5.22004 18.5657 5.13901 18.4444 5.08373 18.311C5.02845 18.1775 5 18.0345 5 17.89Z" fill="#42526E"/>
</svg>
