<svg width="24" height="24" viewBox="0 0 24 24" fill="none" xmlns="http://www.w3.org/2000/svg">
<rect width="24" height="24" fill="white" fill-opacity="0.01"/>
<path d="M20 6C20 5.44772 19.5523 5 19 5C18.4477 5 18 5.44772 18 6V10C18 10.5523 18.4477 11 19 11C19.5523 11 20 10.5523 20 10V6Z" fill="#42526E"/>
<path d="M21 7H17C16.4477 7 16 7.44772 16 8C16 8.55228 16.4477 9 17 9H21C21.5523 9 22 8.55228 22 8C22 7.44772 21.5523 7 21 7Z" fill="#42526E"/>
<path fill-rule="evenodd" clip-rule="evenodd" d="M5 14C5 12.895 5.902 12 7.009 12H14.991C16.101 12 17 12.894 17 14.006V18.446C17 21.851 5 21.851 5 18.446V14Z" fill="#42526E"/>
<path d="M11 11C13.2091 11 15 9.20914 15 7C15 4.79086 13.2091 3 11 3C8.79086 3 7 4.79086 7 7C7 9.20914 8.79086 11 11 11Z" fill="#42526E"/>
</svg>
