<svg width="24" height="24" viewBox="0 0 24 24" fill="none" xmlns="http://www.w3.org/2000/svg">
<rect width="24" height="24" fill="white" fill-opacity="0.01"/>
<path d="M5.00001 15.991C5.00001 15.998 19.005 16 19.005 16C18.999 16 19 8.009 19 8.009C19 8.002 4.99501 8 4.99501 8C5.00101 8 5.00001 15.991 5.00001 15.991ZM3.00001 8.01C3.00001 6.899 3.89301 6 4.99501 6H19.005C20.107 6 21 6.902 21 8.009V15.991C21 17.101 20.107 18 19.005 18H4.99501C4.46421 17.9976 3.95603 17.7847 3.58201 17.4081C3.20799 17.0315 2.99868 16.5218 3.00001 15.991V8.01Z" fill="#42526E"/>
<path fill-rule="evenodd" clip-rule="evenodd" d="M10.674 14.331C11.034 14.691 11.615 14.691 11.974 14.331L14.732 11.568C14.8904 11.3928 14.9753 11.1634 14.9692 10.9273C14.9631 10.6913 14.8665 10.4666 14.6993 10.2998C14.5321 10.133 14.3072 10.0368 14.0711 10.0313C13.835 10.0258 13.6058 10.1112 13.431 10.27L11.323 12.38L10.568 11.626C10.3934 11.465 10.1632 11.3778 9.92575 11.3826C9.68828 11.3875 9.46188 11.484 9.29393 11.6519C9.12597 11.8199 9.02948 12.0463 9.02465 12.2837C9.01982 12.5212 9.10702 12.7514 9.26801 12.926L10.674 14.331Z" fill="#42526E"/>
</svg>
