<svg width="24" height="24" viewBox="0 0 24 24" fill="none" xmlns="http://www.w3.org/2000/svg">
<rect width="24" height="24" fill="white" fill-opacity="0.01"/>
<path d="M13 10C13 9.44772 12.5523 9 12 9C11.4477 9 11 9.44772 11 10V14C11 14.5523 11.4477 15 12 15C12.5523 15 13 14.5523 13 14V10Z" fill="#42526E"/>
<path d="M5.00001 15.991C5.00001 15.998 19.005 16 19.005 16C18.999 16 19 8.009 19 8.009C19 8.002 4.99501 8 4.99501 8C5.00101 8 5.00001 15.991 5.00001 15.991ZM3.00001 8.01C3.00001 6.899 3.89301 6 4.99501 6H19.005C20.107 6 21 6.902 21 8.009V15.991C21 17.101 20.107 18 19.005 18H4.99501C4.46421 17.9976 3.95603 17.7847 3.58201 17.4081C3.20799 17.0315 2.99868 16.5218 3.00001 15.991V8.01Z" fill="#42526E"/>
<path d="M14 11H10C9.44772 11 9.00001 11.4477 9.00001 12C9.00001 12.5523 9.44772 13 10 13H14C14.5523 13 15 12.5523 15 12C15 11.4477 14.5523 11 14 11Z" fill="#42526E"/>
</svg>
