<svg width="24" height="24" viewBox="0 0 24 24" fill="none" xmlns="http://www.w3.org/2000/svg">
<rect width="24" height="24" fill="white" fill-opacity="0.01"/>
<path fill-rule="evenodd" clip-rule="evenodd" d="M11.433 5.42799L7.226 6.02799C6.79752 6.0895 6.40056 6.28837 6.09475 6.59473C5.78893 6.90109 5.59076 7.2984 5.53001 7.72699L4.93 11.934C4.90774 12.0876 4.92154 12.2443 4.97031 12.3917C5.01908 12.539 5.10149 12.673 5.211 12.783L12.106 19.677C12.1988 19.7699 12.309 19.8437 12.4303 19.894C12.5516 19.9443 12.6817 19.9702 12.813 19.9702C12.9443 19.9702 13.0744 19.9443 13.1957 19.894C13.317 19.8437 13.4272 19.7699 13.52 19.677L19.177 14.02C19.3645 13.8325 19.4698 13.5782 19.4698 13.313C19.4698 13.0478 19.3645 12.7935 19.177 12.606L12.282 5.70999C12.1723 5.59999 12.0384 5.51712 11.891 5.46799C11.7436 5.41886 11.5868 5.40482 11.433 5.42699V5.42799ZM10.786 11.285C10.6318 11.4418 10.448 11.5665 10.2453 11.6519C10.0427 11.7373 9.8251 11.7818 9.60517 11.7827C9.38523 11.7836 9.16729 11.7409 8.96393 11.6572C8.76056 11.5734 8.57579 11.4502 8.42027 11.2947C8.26475 11.1392 8.14157 10.9544 8.05782 10.7511C7.97407 10.5477 7.93142 10.3298 7.93232 10.1098C7.93323 9.8899 7.97767 9.67232 8.06309 9.46965C8.14851 9.26698 8.27321 9.08322 8.43001 8.92899C8.74256 8.61643 9.16648 8.44084 9.6085 8.44084C10.0505 8.44084 10.4744 8.61643 10.787 8.92899C11.0996 9.24155 11.2752 9.66547 11.2752 10.1075C11.2752 10.5495 11.0996 10.9734 10.787 11.286" fill="#42526E"/>
</svg>
