<svg width="24" height="24" viewBox="0 0 24 24" fill="none" xmlns="http://www.w3.org/2000/svg">
<rect width="24" height="24" fill="white" fill-opacity="0.01"/>
<path fill-rule="evenodd" clip-rule="evenodd" d="M12.856 5.457L11.919 6.377C11.8229 6.47038 11.7466 6.58208 11.6944 6.70549C11.6423 6.8289 11.6154 6.96152 11.6154 7.0955C11.6154 7.22947 11.6423 7.36209 11.6944 7.4855C11.7466 7.60891 11.8229 7.72061 11.919 7.814C12.1146 8.00499 12.3771 8.11192 12.6505 8.11192C12.9239 8.11192 13.1864 8.00499 13.382 7.814L14.366 6.848C15.333 5.898 16.908 5.713 17.968 6.56C18.2515 6.78361 18.484 7.06509 18.6501 7.38566C18.8162 7.70623 18.9121 8.05854 18.9313 8.41908C18.9505 8.77962 18.8926 9.14011 18.7615 9.47652C18.6304 9.81293 18.4291 10.1175 18.171 10.37L15.268 13.222C14.7738 13.7043 14.1106 13.9743 13.42 13.9743C12.7294 13.9743 12.0662 13.7043 11.572 13.222L10.462 12.132L9 13.57L10.108 14.659C11.93 16.447 14.91 16.447 16.73 14.659L19.635 11.807C20.0957 11.3546 20.455 10.8095 20.6892 10.2077C20.9233 9.60599 21.027 8.96136 20.9932 8.31655C20.9595 7.67174 20.7891 7.04146 20.4934 6.46746C20.1977 5.89345 19.7834 5.38882 19.278 4.987C17.385 3.47 14.583 3.761 12.856 5.457Z" fill="#42526E"/>
<path fill-rule="evenodd" clip-rule="evenodd" d="M11.144 19.543L12.081 18.623C12.1771 18.5296 12.2534 18.4179 12.3056 18.2945C12.3577 18.1711 12.3846 18.0385 12.3846 17.9045C12.3846 17.7705 12.3577 17.6379 12.3056 17.5145C12.2534 17.3911 12.1771 17.2794 12.081 17.186C11.8855 16.9953 11.6231 16.8886 11.35 16.8886C11.0769 16.8886 10.8145 16.9953 10.619 17.186L9.634 18.152C8.667 19.102 7.092 19.287 6.032 18.44C5.74853 18.2164 5.51598 17.9349 5.34988 17.6143C5.18377 17.2938 5.08792 16.9415 5.06871 16.5809C5.0495 16.2204 5.10737 15.8599 5.23847 15.5235C5.36958 15.1871 5.57089 14.8825 5.829 14.63L8.732 11.778C9.22623 11.2957 9.88944 11.0257 10.58 11.0257C11.2706 11.0257 11.9338 11.2957 12.428 11.778L13.538 12.868L15 11.43L13.892 10.341C12.07 8.553 9.09 8.553 7.27 10.341L4.365 13.193C3.90429 13.6454 3.54496 14.1905 3.31081 14.7923C3.07666 15.394 2.97302 16.0386 3.00678 16.6834C3.04053 17.3282 3.2109 17.9585 3.5066 18.5325C3.8023 19.1065 4.21658 19.6112 4.722 20.013C6.615 21.53 9.417 21.239 11.144 19.543Z" fill="#42526E"/>
</svg>
