<svg width="24" height="24" viewBox="0 0 24 24" fill="none" xmlns="http://www.w3.org/2000/svg">
<rect width="24" height="24" fill="white" fill-opacity="0.01"/>
<path fill-rule="evenodd" clip-rule="evenodd" d="M12 22C17.5228 22 22 17.5228 22 12C22 6.47715 17.5228 2 12 2C6.47715 2 2 6.47715 2 12C2 17.5228 6.47715 22 12 22ZM11.75 16.15L12.298 15.613C12.3539 15.5585 12.3984 15.4934 12.4288 15.4214C12.4591 15.3494 12.4748 15.2721 12.4748 15.194C12.4748 15.1159 12.4591 15.0386 12.4288 14.9666C12.3984 14.8947 12.3539 14.8295 12.298 14.775C12.184 14.6632 12.0307 14.6006 11.871 14.6006C11.7113 14.6006 11.558 14.6632 11.444 14.775L10.87 15.339C10.306 15.892 9.38701 16.001 8.76901 15.507C8.60357 15.3766 8.46785 15.2124 8.37088 15.0254C8.27391 14.8383 8.21793 14.6328 8.20667 14.4224C8.19541 14.2121 8.22913 14.0017 8.30557 13.8054C8.38202 13.6091 8.49944 13.4314 8.65001 13.284L10.344 11.621C10.6322 11.3396 11.0191 11.182 11.422 11.182C11.8249 11.182 12.2118 11.3396 12.5 11.621L13.147 12.256L14 11.417L13.354 10.782C12.8363 10.2801 12.1436 9.99948 11.4225 9.99948C10.7015 9.99948 10.0087 10.2801 9.49101 10.782L7.79701 12.446C7.52816 12.7099 7.31846 13.0279 7.18179 13.379C7.04513 13.7301 6.98463 14.1062 7.0043 14.4824C7.02396 14.8586 7.12335 15.2263 7.29587 15.5613C7.46839 15.8962 7.71011 16.1906 8.00501 16.425C9.10901 17.309 10.743 17.14 11.751 16.15H11.75ZM11.703 8.387L12.25 7.85H12.249C13.257 6.86 14.891 6.691 15.995 7.575C16.29 7.80936 16.5318 8.10373 16.7044 8.43859C16.877 8.77346 16.9765 9.14119 16.9962 9.5174C17.016 9.89362 16.9556 10.2697 16.819 10.6208C16.6824 10.972 16.4728 11.29 16.204 11.554L14.509 13.218C13.9913 13.7199 13.2985 14.0005 12.5775 14.0005C11.8565 14.0005 11.1637 13.7199 10.646 13.218L10 12.583L10.853 11.744L11.5 12.379C11.7882 12.6605 12.1751 12.818 12.578 12.818C12.9809 12.818 13.3678 12.6605 13.656 12.379L15.35 10.716C15.981 10.096 15.941 9.063 15.231 8.493C14.613 7.999 13.694 8.108 13.13 8.661L12.556 9.225C12.442 9.33647 12.2889 9.39889 12.1295 9.39889C11.9701 9.39889 11.817 9.33647 11.703 9.225C11.6471 9.1705 11.6026 9.10534 11.5722 9.03338C11.5419 8.96142 11.5262 8.88411 11.5262 8.806C11.5262 8.7279 11.5419 8.65059 11.5722 8.57863C11.6026 8.50666 11.6471 8.44151 11.703 8.387Z" fill="#42526E"/>
</svg>
