<svg width="24" height="24" viewBox="0 0 24 24" fill="none" xmlns="http://www.w3.org/2000/svg">
<rect width="24" height="24" fill="white" fill-opacity="0.01"/>
<path d="M2.99999 18C2.99999 18.552 3.44499 19 3.99299 19H20.007C20.1379 18.9999 20.2676 18.9739 20.3885 18.9235C20.5093 18.8731 20.6191 18.7993 20.7113 18.7064C20.8036 18.6135 20.8766 18.5032 20.9261 18.382C20.9757 18.2608 21.0008 18.131 21 18V17H2.99999V18ZM2.99999 11H21V9H2.99999V11ZM2.99999 7H21V6C21 5.448 20.555 5 20.007 5H3.99299C3.86203 5.00013 3.73239 5.02613 3.61152 5.07652C3.49064 5.12691 3.38092 5.20068 3.28864 5.29361C3.19637 5.38653 3.12336 5.49678 3.07383 5.618C3.02429 5.73923 2.9992 5.86905 2.99999 6V7ZM2.99999 15H21V13H2.99999V15Z" fill="#42526E"/>
</svg>
