<svg width="24" height="24" viewBox="0 0 24 24" fill="none" xmlns="http://www.w3.org/2000/svg">
<rect width="24" height="24" fill="white" fill-opacity="0.01"/>
<path fill-rule="evenodd" clip-rule="evenodd" d="M8 10V8.002C8.00053 6.94111 8.42206 5.9238 9.17204 5.17345C9.92201 4.4231 10.9391 4.00106 12 4C12.5255 4 13.0458 4.10353 13.5312 4.30467C14.0166 4.50582 14.4577 4.80063 14.8291 5.17228C15.2006 5.54393 15.4952 5.98512 15.6961 6.47065C15.897 6.95619 16.0003 7.47654 16 8.002V10C16.5304 10 17.0391 10.2107 17.4142 10.5858C17.7893 10.9609 18 11.4696 18 12V18C18 19.105 17.098 20 15.991 20H8.01C7.74652 20.0013 7.48537 19.9506 7.24156 19.8506C6.99776 19.7507 6.7761 19.6036 6.58932 19.4178C6.40254 19.2319 6.25433 19.011 6.15319 18.7677C6.05206 18.5244 6 18.2635 6 18V12C6 10.898 6.897 10.005 8 10ZM10 10H14V8.002C14.0001 7.73922 13.9485 7.479 13.8481 7.23617C13.7476 6.99335 13.6003 6.77269 13.4146 6.58679C13.2289 6.40088 13.0084 6.25338 12.7657 6.1527C12.523 6.05202 12.2628 6.00013 12 6C10.898 6 10 6.898 10 8.002V10ZM12 17C12.5304 17 13.0391 16.7893 13.4142 16.4142C13.7893 16.0391 14 15.5304 14 15C14 14.4696 13.7893 13.9609 13.4142 13.5858C13.0391 13.2107 12.5304 13 12 13C11.4696 13 10.9609 13.2107 10.5858 13.5858C10.2107 13.9609 10 14.4696 10 15C10 15.5304 10.2107 16.0391 10.5858 16.4142C10.9609 16.7893 11.4696 17 12 17Z" fill="#42526E"/>
</svg>
