<svg width="24" height="24" viewBox="0 0 24 24" fill="none" xmlns="http://www.w3.org/2000/svg">
<rect width="24" height="24" fill="white" fill-opacity="0.01"/>
<path d="M16 11V9H14V7.002C14.0001 6.73922 13.9485 6.479 13.8481 6.23617C13.7476 5.99335 13.6003 5.77269 13.4146 5.58679C13.2289 5.40088 13.0084 5.25338 12.7657 5.1527C12.523 5.05202 12.2628 5.00013 12 5C10.898 5 10 5.898 10 7.002V9H8V11H7V19H17V11H16ZM14 11H10V9H14V11ZM8 9V7.002C8.00053 5.94111 8.42206 4.9238 9.17204 4.17345C9.92201 3.4231 10.9391 3.00106 12 3C12.5255 3 13.0458 3.10353 13.5312 3.30467C14.0166 3.50582 14.4577 3.80063 14.8291 4.17228C15.2006 4.54393 15.4952 4.98512 15.6961 5.47065C15.897 5.95619 16.0003 6.47654 16 7.002V9H16.994C17.5262 9.00106 18.0363 9.21316 18.4123 9.58977C18.7884 9.96639 18.9997 10.4768 19 11.009V18.991C19 20.101 18.103 21 16.994 21H7.006C6.4737 20.9992 5.96347 20.7872 5.58736 20.4105C5.21125 20.0338 5 19.5233 5 18.991V11.01C5 9.899 5.897 9 7.006 9H8ZM8 9H10V11H8V9ZM14 9H16V11H14V9Z" fill="#42526E"/>
<path d="M12 17C13.1046 17 14 16.1046 14 15C14 13.8954 13.1046 13 12 13C10.8954 13 10 13.8954 10 15C10 16.1046 10.8954 17 12 17Z" fill="#42526E"/>
</svg>
