<svg width="24" height="24" viewBox="0 0 24 24" fill="none" xmlns="http://www.w3.org/2000/svg">
<rect width="24" height="24" fill="white" fill-opacity="0.01"/>
<path fill-rule="evenodd" clip-rule="evenodd" d="M11.94 12H5.008C4.47667 11.9995 3.96683 12.2098 3.59037 12.5847C3.21391 12.9597 3.00159 13.4687 3 14V18.446C3 20.679 8.16 21.448 11.713 20.752C10.6898 19.572 10.1276 18.0619 10.13 16.5C10.13 14.754 10.819 13.168 11.94 12Z" fill="#42526E"/>
<path fill-rule="evenodd" clip-rule="evenodd" d="M21.153 13.123C21.948 14.159 22.195 15.439 21.843 16.726C21.503 17.98 20.893 18.803 20.029 19.172C18.89 19.658 17.829 19.12 17.714 19.058C17.4963 18.9313 17.3018 18.7683 17.139 18.576C16.691 18.904 16.199 19.096 15.722 19.096C15.4318 19.0978 15.1458 19.027 14.89 18.89C14.6756 18.7716 14.487 18.6115 14.3354 18.4192C14.1837 18.2268 14.0721 18.0061 14.007 17.77C13.797 17.055 13.927 16.196 14.364 15.412C15.082 14.124 16.532 13.53 17.594 14.077C17.652 14.105 17.688 14.159 17.741 14.194C17.8566 14.1111 17.9911 14.0584 18.1322 14.041C18.2734 14.0235 18.4167 14.0417 18.549 14.094C18.991 14.274 19.203 14.777 19.02 15.217L18.948 15.39C18.51 16.442 18.18 17.33 18.562 17.558C18.567 17.558 18.985 17.748 19.357 17.587C19.7 17.433 19.984 16.98 20.177 16.274C20.387 15.496 20.254 14.786 19.78 14.168C19.105 13.289 17.827 12.722 16.525 12.722C14.432 12.722 12.729 14.416 12.729 16.5C12.729 18.583 14.432 20.28 16.525 20.28C17.003 20.28 17.39 20.665 17.39 21.14C17.39 21.615 17.003 22 16.525 22C13.478 22 11 19.533 11 16.5C11 13.467 13.478 11 16.525 11C18.373 11 20.147 11.814 21.153 13.123ZM17.255 16.88C17.668 16.142 17.609 15.414 17.114 15.16C16.592 14.893 15.84 15.289 15.477 15.936C15.063 16.673 15.127 17.481 15.617 17.742C16.108 18.002 16.841 17.617 17.255 16.88Z" fill="#42526E"/>
<path d="M9 11C11.2091 11 13 9.20914 13 7C13 4.79086 11.2091 3 9 3C6.79086 3 5 4.79086 5 7C5 9.20914 6.79086 11 9 11Z" fill="#42526E"/>
</svg>
