<svg width="24" height="24" viewBox="0 0 24 24" fill="none" xmlns="http://www.w3.org/2000/svg">
<rect width="24" height="24" fill="white" fill-opacity="0.01"/>
<path d="M6 12C6 11.448 6.456 11 7.002 11H16.998C17.2632 11 17.5176 11.1054 17.7051 11.2929C17.8926 11.4804 17.998 11.7348 17.998 12C17.998 12.2652 17.8926 12.5196 17.7051 12.7071C17.5176 12.8946 17.2632 13 16.998 13H7.002C6.87047 13.0004 6.74016 12.9748 6.61855 12.9247C6.49693 12.8746 6.3864 12.801 6.29331 12.7081C6.20021 12.6152 6.12638 12.5048 6.07604 12.3833C6.02571 12.2618 5.99987 12.1315 6 12ZM6 16C6 15.448 6.456 15 7.002 15H16.998C17.2632 15 17.5176 15.1054 17.7051 15.2929C17.8926 15.4804 17.998 15.7348 17.998 16C17.998 16.2652 17.8926 16.5196 17.7051 16.7071C17.5176 16.8946 17.2632 17 16.998 17H7.002C6.87047 17.0004 6.74016 16.9748 6.61855 16.9247C6.49693 16.8746 6.3864 16.801 6.29331 16.7081C6.20021 16.6152 6.12638 16.5048 6.07604 16.3833C6.02571 16.2618 5.99987 16.1315 6 16ZM6 8C6 7.448 6.456 7 7.002 7H16.998C17.2632 7 17.5176 7.10536 17.7051 7.29289C17.8926 7.48043 17.998 7.73478 17.998 8C17.998 8.26522 17.8926 8.51957 17.7051 8.70711C17.5176 8.89464 17.2632 9 16.998 9H7.002C6.87047 9.0004 6.74016 8.97481 6.61855 8.92472C6.49693 8.87463 6.3864 8.80102 6.29331 8.70811C6.20021 8.6152 6.12638 8.50482 6.07604 8.3833C6.02571 8.26179 5.99987 8.13153 6 8Z" fill="#42526E"/>
</svg>
