<svg width="24" height="24" viewBox="0 0 24 24" fill="none" xmlns="http://www.w3.org/2000/svg">
<rect width="24" height="24" fill="white" fill-opacity="0.01"/>
<path d="M11.384 5.478C11.8525 5.00875 12.409 4.63663 13.0216 4.383C13.6342 4.12936 14.2909 3.99921 14.954 4C15.926 4 16.899 4.28 17.742 4.839C17.762 4.813 17.785 4.789 17.808 4.765C17.9043 4.66643 18.0197 4.58861 18.1472 4.53633C18.2747 4.48404 18.4116 4.45841 18.5494 4.46099C18.6871 4.46357 18.8229 4.49432 18.9484 4.55134C19.0738 4.60836 19.1863 4.69045 19.2788 4.79256C19.3714 4.89467 19.442 5.01463 19.4865 5.14507C19.5309 5.2755 19.5482 5.41366 19.5373 5.55102C19.5263 5.68839 19.4874 5.82206 19.4228 5.94382C19.3583 6.06557 19.2695 6.17283 19.162 6.259C19.8046 7.22976 20.0919 8.39279 19.9753 9.55111C19.8586 10.7094 19.3452 11.7918 18.522 12.615L17.797 13.34C17.015 14.123 15.984 15.55 15.485 16.547L13.976 19.563C13.727 20.063 13.203 20.147 12.805 19.75L4.249 11.195C3.852 10.798 3.941 10.271 4.436 10.023L7.453 8.515C8.442 8.021 9.873 6.989 10.659 6.203L11.384 5.478Z" fill="#42526E"/>
<path fill-rule="evenodd" clip-rule="evenodd" d="M7.924 3.618L8.325 4.586C8.37523 4.70734 8.40107 4.83739 8.40104 4.96871C8.40101 5.10004 8.37511 5.23008 8.32483 5.3514C8.27455 5.47272 8.20086 5.58294 8.10798 5.67579C8.0151 5.76863 7.90484 5.84227 7.7835 5.8925C7.66216 5.94273 7.53211 5.96857 7.40078 5.96854C7.26945 5.96851 7.13942 5.94262 7.0181 5.89233C6.77308 5.79078 6.57844 5.59606 6.477 5.351L6.077 4.383C6.02677 4.26166 6.00093 4.13161 6.00096 4.00028C6.00098 3.86896 6.02688 3.73892 6.07716 3.6176C6.12745 3.49628 6.20113 3.38605 6.29401 3.29321C6.3869 3.20037 6.49716 3.12673 6.6185 3.0765C6.73984 3.02627 6.86989 3.00043 7.00121 3.00046C7.13254 3.00049 7.26258 3.02638 7.3839 3.07666C7.50522 3.12695 7.61544 3.20063 7.70829 3.29352C7.80113 3.3864 7.87477 3.49666 7.925 3.618H7.924ZM4.383 6.076L5.351 6.477C5.58592 6.58534 5.76977 6.78042 5.86401 7.02134C5.95825 7.26226 5.95556 7.53031 5.8565 7.76929C5.75744 8.00827 5.56971 8.19962 5.33267 8.30322C5.09562 8.40682 4.82767 8.41462 4.585 8.325L3.617 7.925C3.38208 7.81666 3.19823 7.62158 3.10399 7.38066C3.00974 7.13974 3.01244 6.87169 3.11149 6.63271C3.21055 6.39373 3.39828 6.20238 3.63533 6.09878C3.87237 5.99518 4.14032 5.98637 4.383 6.076ZM16.218 18.076C15.9732 18.178 15.7788 18.3727 15.6773 18.6176C15.5757 18.8626 15.5752 19.1377 15.676 19.383L16.078 20.351C16.1283 20.4723 16.202 20.5826 16.2949 20.6754C16.3878 20.7683 16.4981 20.842 16.6195 20.8922C16.7408 20.9424 16.8709 20.9683 17.0022 20.9682C17.1336 20.9682 17.2637 20.9423 17.385 20.892C17.5063 20.8417 17.6166 20.768 17.7094 20.6751C17.8023 20.5822 17.8759 20.4719 17.9262 20.3505C17.9764 20.2292 18.0023 20.0991 18.0022 19.9678C18.0022 19.8364 17.9763 19.7063 17.926 19.585L17.525 18.618C17.4748 18.4965 17.4012 18.3862 17.3083 18.2932C17.2155 18.2002 17.1052 18.1265 16.9838 18.0761C16.8624 18.0258 16.7323 17.9999 16.6009 17.9998C16.4695 17.9998 16.3394 18.0257 16.218 18.076ZM18.077 16.219C17.9756 16.4638 17.9755 16.7389 18.0768 16.9837C18.178 17.2286 18.3723 17.4233 18.617 17.525L19.586 17.926C19.8287 18.0156 20.0966 18.0078 20.3337 17.9042C20.5707 17.8006 20.7584 17.6093 20.8575 17.3703C20.9566 17.1313 20.9592 16.8633 20.865 16.6223C20.7708 16.3814 20.5869 16.1863 20.352 16.078L19.382 15.677C19.1369 15.5757 18.8617 15.5759 18.6168 15.6776C18.3719 15.7792 18.1783 15.974 18.077 16.219ZM6.485 17.669C6.67073 17.8548 6.89124 18.0022 7.13394 18.1028C7.37665 18.2033 7.63679 18.2551 7.8995 18.2551C8.16221 18.2551 8.42235 18.2033 8.66505 18.1028C8.90776 18.0022 9.12827 17.8548 9.314 17.669L6.485 14.839C6.29904 15.0247 6.15153 15.2453 6.05088 15.4881C5.95023 15.7309 5.89842 15.9912 5.89842 16.254C5.89842 16.5168 5.95023 16.7771 6.05088 17.0199C6.15153 17.2627 6.29904 17.4833 6.485 17.669Z" fill="#42526E"/>
</svg>
