<svg width="24" height="24" viewBox="0 0 24 24" fill="none" xmlns="http://www.w3.org/2000/svg">
<rect width="24" height="24" fill="white" fill-opacity="0.01"/>
<path fill-rule="evenodd" clip-rule="evenodd" d="M6.586 17.829C6.77173 18.0148 6.99224 18.1622 7.23495 18.2628C7.47765 18.3633 7.73779 18.4151 8.0005 18.4151C8.26321 18.4151 8.52335 18.3633 8.76605 18.2628C9.00876 18.1622 9.22927 18.0148 9.415 17.829L6.585 15C6.3992 15.1857 6.25181 15.4062 6.15125 15.6489C6.05069 15.8917 5.99893 16.1518 5.99893 16.4145C5.99893 16.6772 6.05069 16.9374 6.15125 17.1801C6.25181 17.4228 6.3992 17.6433 6.585 17.829H6.586ZM11.384 5.478C11.8525 5.00875 12.409 4.63663 13.0216 4.383C13.6342 4.12937 14.2909 3.99921 14.954 4C15.926 4 16.899 4.28 17.742 4.839C17.762 4.813 17.785 4.789 17.808 4.765C17.9043 4.66644 18.0197 4.58862 18.1472 4.53633C18.2747 4.48405 18.4116 4.45841 18.5494 4.46099C18.6871 4.46357 18.8229 4.49432 18.9484 4.55134C19.0738 4.60837 19.1863 4.69046 19.2788 4.79256C19.3714 4.89467 19.442 5.01463 19.4865 5.14507C19.5309 5.27551 19.5482 5.41366 19.5373 5.55103C19.5263 5.68839 19.4874 5.82206 19.4228 5.94382C19.3583 6.06558 19.2695 6.17284 19.162 6.259C19.8046 7.22976 20.0919 8.3928 19.9753 9.55112C19.8586 10.7094 19.3452 11.7918 18.522 12.615L17.797 13.34C17.015 14.123 15.984 15.55 15.485 16.547L13.976 19.563C13.727 20.063 13.203 20.147 12.805 19.75L4.249 11.195C3.852 10.798 3.941 10.271 4.436 10.023L7.453 8.515C8.442 8.021 9.873 6.989 10.659 6.203L11.384 5.478ZM14.123 15.108C14.64 14.133 15.691 12.712 16.477 11.926L17.202 11.2C17.6985 10.7032 18.0081 10.0502 18.0787 9.35144C18.1492 8.65266 17.9762 7.95096 17.589 7.365C17.399 7.079 16.871 6.599 16.73 6.505C16.2309 6.17484 15.6455 5.99918 15.047 6C14.6466 5.99937 14.25 6.07785 13.88 6.23093C13.51 6.384 13.1739 6.60866 12.891 6.892L11.941 7.843C11.157 8.628 9.722 9.663 8.74 10.154L7 11.024L13.07 17.093L14.123 15.108Z" fill="#42526E"/>
</svg>
