<svg width="24" height="24" viewBox="0 0 24 24" fill="none" xmlns="http://www.w3.org/2000/svg">
<rect width="24" height="24" fill="white" fill-opacity="0.01"/>
<path d="M8 6H5.009C3.902 6 3 6.962 3 8.15V18.85C3 20.04 3.9 21 5.009 21H10.496H8V18.855C6.384 18.854 5 18.851 5 18.851C5 18.851 5.005 8.143 5.009 8.143L8 8.144V6Z" fill="#42526E"/>
<path fill-rule="evenodd" clip-rule="evenodd" d="M12 7H14V9H12V7ZM6 10H8V12H6V10ZM6 13H8V15H6V13ZM12 10H14V12H12V10ZM12 13H14V15H12V13ZM14 16H16V19H14V16ZM16 7H18V9H16V7ZM16 10H18V12H16V10ZM16 13H18V15H16V13Z" fill="#42526E"/>
<path d="M18.991 19C18.998 19 19 4.995 19 4.995C19 5.001 11.009 5 11.009 5C11.002 5 11 19 11 19H18.991ZM9 4.995C9 3.893 9.902 3 11.009 3H18.991C20.101 3 21 3.893 21 4.995V19.005C20.9976 19.5358 20.7847 20.044 20.4081 20.418C20.0315 20.792 19.5218 21.0013 18.991 21H9V4.995Z" fill="#42526E"/>
</svg>
