<svg width="24" height="24" viewBox="0 0 24 24" fill="none" xmlns="http://www.w3.org/2000/svg">
<rect width="24" height="24" fill="white" fill-opacity="0.01"/>
<path d="M5.009 6H8V10H6V12H8V13H6V15H8V21H5.009C3.9 21 3 20.04 3 18.85V8.15C3 6.962 3.902 6 5.009 6Z" fill="#42526E"/>
<path fill-rule="evenodd" clip-rule="evenodd" d="M11.009 3C9.902 3 9 3.893 9 4.995V21H18.991C19.5218 21.0013 20.0315 20.792 20.4081 20.418C20.7847 20.044 20.9976 19.5358 21 19.005V4.995C21 3.893 20.101 3 18.991 3H11.009ZM14 7H12V9H14V7ZM14 10H12V12H14V10ZM14 13H12V15H14V13ZM16 16H14V19H16V16ZM18 7H16V9H18V7ZM18 10H16V12H18V10ZM18 13H16V15H18V13Z" fill="#42526E"/>
</svg>
