<svg width="24" height="24" viewBox="0 0 24 24" fill="none" xmlns="http://www.w3.org/2000/svg">
<path d="M9.092 2C10.409 2 11.445 3.111 11.336 4.408L11.1 7.227C11.0509 7.7725 10.7988 8.27969 10.3936 8.6482C9.98845 9.01672 9.45969 9.21971 8.91199 9.217H8.88599C8.772 10.079 8.715 10.947 8.715 11.807V11.979C8.715 12.9 8.78099 13.84 8.91199 14.784C10.054 14.784 11.005 15.65 11.1 16.774L11.337 19.592C11.446 20.89 10.41 22 9.092 22H7.462C6.087 22 4.838 21.092 4.353 19.741C3.45528 17.2521 2.99746 14.6259 3 11.98V11.809C3 9.199 3.453 6.648 4.349 4.228C4.849 2.874 6.064 2 7.446 2H9.092ZM9.093 4.222H7.446C7.021 4.222 6.63499 4.523 6.463 4.989C5.65642 7.17179 5.24565 9.48096 5.25 11.808V11.978C5.25 14.376 5.65499 16.722 6.456 18.951C6.644 19.472 7.03199 19.778 7.463 19.778H9.093L8.85999 17.007H7.007L6.842 16.092C6.59334 14.7351 6.46683 13.3585 6.464 11.979V11.808C6.464 10.511 6.581 9.2 6.814 7.911L6.978 6.994H8.85999L9.093 4.222ZM18.546 10.333C19.477 10.333 20.233 11.08 20.233 12C20.233 12.921 19.477 13.667 18.546 13.667C18.3257 13.6684 18.1072 13.6265 17.9032 13.5435C17.6991 13.4605 17.5134 13.3381 17.3566 13.1833C17.1998 13.0284 17.0751 12.8443 16.9896 12.6412C16.904 12.4382 16.8593 12.2203 16.858 12C16.858 11.08 17.614 10.333 18.546 10.333ZM14.046 10.333C14.977 10.333 15.733 11.08 15.733 12C15.733 12.921 14.977 13.667 14.046 13.667C13.8257 13.6684 13.6072 13.6265 13.4032 13.5435C13.1991 13.4605 13.0134 13.3381 12.8566 13.1833C12.6998 13.0284 12.5751 12.8443 12.4896 12.6412C12.404 12.4382 12.3593 12.2203 12.358 12C12.358 11.08 13.114 10.333 14.046 10.333Z" fill="#42526E"/>
</svg>
