<svg width="24" height="24" viewBox="0 0 24 24" fill="none" xmlns="http://www.w3.org/2000/svg">
<rect width="24" height="24" fill="white" fill-opacity="0.01"/>
<path fill-rule="evenodd" clip-rule="evenodd" d="M8.01 18C8.556 18 9 17.556 9 17C9.00002 16.7365 8.89603 16.4837 8.71065 16.2964C8.52527 16.1092 8.27348 16.0026 8.01 16H3.99C3.85926 16.0004 3.72988 16.0266 3.6093 16.0771C3.48871 16.1276 3.37928 16.2015 3.2873 16.2944C3.19532 16.3873 3.12259 16.4974 3.07329 16.6185C3.02398 16.7396 2.99908 16.8693 3 17C2.99999 17.2635 3.10397 17.5163 3.28935 17.7036C3.47473 17.8908 3.72652 17.9974 3.99 18H8.01ZM3 7C3 7.552 3.445 8 3.993 8H20.007C20.138 7.99987 20.2676 7.97387 20.3885 7.92348C20.5093 7.87309 20.6191 7.79932 20.7113 7.70639C20.8036 7.61347 20.8766 7.50322 20.9262 7.382C20.9757 7.26077 21.0008 7.13095 21 7C21 6.448 20.555 6 20.007 6H3.993C3.86205 6.00013 3.73241 6.02613 3.61153 6.07652C3.49066 6.12691 3.38093 6.20068 3.28866 6.29361C3.19638 6.38653 3.12338 6.49678 3.07384 6.618C3.02431 6.73923 2.99921 6.86905 3 7ZM13.998 13C14.1295 13.0004 14.2598 12.9748 14.3815 12.9247C14.5031 12.8746 14.6136 12.801 14.7067 12.7081C14.7998 12.6152 14.8736 12.5048 14.924 12.3833C14.9743 12.2618 15.0001 12.1315 15 12C15 11.448 14.544 11 13.998 11H4.002C3.87047 10.9996 3.74016 11.0252 3.61855 11.0753C3.49693 11.1254 3.3864 11.199 3.29331 11.2919C3.20021 11.3848 3.12638 11.4952 3.07604 11.6167C3.02571 11.7382 2.99987 11.8685 3 12C3 12.552 3.456 13 4.002 13H13.998Z" fill="#42526E"/>
</svg>
