<svg width="24" height="24" viewBox="0 0 24 24" fill="none" xmlns="http://www.w3.org/2000/svg">
<rect width="24" height="24" fill="white" fill-opacity="0.01"/>
<path fill-rule="evenodd" clip-rule="evenodd" d="M17 4H7C5.89543 4 5 4.89543 5 6V18C5 19.1046 5.89543 20 7 20H17C18.1046 20 19 19.1046 19 18V6C19 4.89543 18.1046 4 17 4ZM15 8H9C8.44772 8 8 8.44772 8 9C8 9.55228 8.44772 10 9 10H15C15.5523 10 16 9.55228 16 9C16 8.44772 15.5523 8 15 8ZM13.49 16H15.512C15.5767 15.9995 15.6417 15.9862 15.7012 15.9609C15.7608 15.9357 15.8148 15.8989 15.8601 15.8527C15.9054 15.8066 15.9412 15.7519 15.9654 15.6919C15.9896 15.6319 16.0017 15.5677 16.001 15.503V11.497C16.001 11.222 15.783 11 15.513 11H13.49C13.219 11 13.001 11.222 13.001 11.497V15.503C13.0003 15.5678 13.0125 15.632 13.0367 15.6921C13.061 15.7522 13.0968 15.8069 13.1423 15.8531C13.1877 15.8992 13.2418 15.936 13.3015 15.9612C13.3612 15.9864 13.4252 15.9996 13.49 16ZM11 11H9C8.44772 11 8 11.4477 8 12C8 12.5523 8.44772 13 9 13H11C11.5523 13 12 12.5523 12 12C12 11.4477 11.5523 11 11 11ZM9 14H11C11.5523 14 12 14.4477 12 15C12 15.5523 11.5523 16 11 16H9C8.44772 16 8 15.5523 8 15C8 14.4477 8.44772 14 9 14Z" fill="#42526E"/>
</svg>
