<svg width="24" height="24" viewBox="0 0 24 24" fill="none" xmlns="http://www.w3.org/2000/svg">
<rect width="24" height="24" fill="white" fill-opacity="0.01"/>
<path d="M16 12C17.6569 12 19 10.6569 19 9C19 7.34315 17.6569 6 16 6C14.3431 6 13 7.34315 13 9C13 10.6569 14.3431 12 16 12Z" fill="#42526E"/>
<path d="M8 9C9.65685 9 11 7.65685 11 6C11 4.34315 9.65685 3 8 3C6.34315 3 5 4.34315 5 6C5 7.65685 6.34315 9 8 9Z" fill="#42526E"/>
<path fill-rule="evenodd" clip-rule="evenodd" d="M11 15C11 13.895 11.887 13 13 13H19C20.105 13 21 13.885 21 15V18.73C21 21.757 11 21.757 11 18.73V15Z" fill="#42526E"/>
<path fill-rule="evenodd" clip-rule="evenodd" d="M13 12C13.0004 11.7372 12.9489 11.477 12.8486 11.2342C12.7482 10.9913 12.6009 10.7707 12.4151 10.5849C12.2293 10.3991 12.0087 10.2518 11.7658 10.1514C11.523 10.0511 11.2628 9.99961 11 10H5C3.887 10 3 10.897 3 12.003V15.829C3 17.75 7.054 18.347 10 17.813V15.006C9.99934 14.6118 10.0763 14.2214 10.2266 13.857C10.3769 13.4925 10.5975 13.1613 10.8758 12.8822C11.1541 12.603 11.4847 12.3814 11.8486 12.2301C12.2126 12.0787 12.6028 12.0005 12.997 12H13Z" fill="#42526E"/>
</svg>
