<svg width="24" height="24" viewBox="0 0 24 24" fill="none" xmlns="http://www.w3.org/2000/svg">
<rect width="24" height="24" fill="white" fill-opacity="0.01"/>
<path fill-rule="evenodd" clip-rule="evenodd" d="M8.126 9.99999H4C2.887 9.99999 2 10.895 2 12V15.73C2 17.04 3.874 17.783 6 17.96V14.996C6.00159 14.2012 6.3183 13.4395 6.88068 12.8778C7.44306 12.3162 8.2052 12.0005 9 12H9.354C8.7539 11.4711 8.32615 10.7744 8.126 9.99999ZM15.874 9.99999H20C21.105 9.99999 22 10.885 22 12V15.73C22 17.04 20.126 17.783 18 17.96V14.996C17.9989 14.201 17.6824 13.439 17.1199 12.8773C16.5574 12.3155 15.795 12 15 12H14.646C15.2461 11.4711 15.6738 10.7744 15.874 9.99999ZM9.967 5.55399C9.87498 4.94304 9.59657 4.37541 9.16981 3.92864C8.74304 3.48187 8.18875 3.17776 7.58265 3.05785C6.97656 2.93795 6.34823 3.00811 5.7835 3.25874C5.21878 3.50937 4.74521 3.92825 4.4275 4.45814C4.10979 4.98804 3.96343 5.6031 4.00843 6.2193C4.05342 6.83551 4.28758 7.42279 4.67889 7.90091C5.07021 8.37903 5.59961 8.72467 6.19475 8.8906C6.78989 9.05654 7.42175 9.03467 8.004 8.82799C8.03235 8.16189 8.22679 7.51345 8.56962 6.94165C8.91246 6.36984 9.39282 5.89283 9.967 5.55399ZM15.997 8.82799C16.5792 9.03458 17.2109 9.05641 17.806 8.89049C18.401 8.72458 18.9304 8.37901 19.3217 7.901C19.713 7.42299 19.9471 6.83583 19.9922 6.21973C20.0373 5.60363 19.8911 4.98863 19.5736 4.45873C19.2561 3.92884 18.7828 3.50988 18.2182 3.25908C17.6537 3.00828 17.0255 2.93788 16.4194 3.05749C15.8133 3.1771 15.259 3.48088 14.832 3.92735C14.4051 4.37382 14.1264 4.9412 14.034 5.55199C14.6088 5.89066 15.0895 6.36791 15.4324 6.94016C15.7753 7.51241 15.9694 8.16144 15.997 8.82799Z" fill="#42526E"/>
<path fill-rule="evenodd" clip-rule="evenodd" d="M7 15C7 13.895 7.887 13 9 13H15C16.105 13 17 13.885 17 15V18.73C17 21.757 7 21.757 7 18.73V15Z" fill="#42526E"/>
<path d="M12 12C13.6569 12 15 10.6568 15 8.99999C15 7.34314 13.6569 5.99999 12 5.99999C10.3431 5.99999 9 7.34314 9 8.99999C9 10.6568 10.3431 12 12 12Z" fill="#42526E"/>
</svg>
