<svg width="24" height="24" viewBox="0 0 24 24" fill="none" xmlns="http://www.w3.org/2000/svg">
<rect width="24" height="24" fill="white" fill-opacity="0.01"/>
<path fill-rule="evenodd" clip-rule="evenodd" d="M8.83 17H15.17C15.4059 16.3325 15.8702 15.7699 16.4808 15.4116C17.0914 15.0534 17.809 14.9225 18.5068 15.0422C19.2046 15.1619 19.8375 15.5244 20.2939 16.0656C20.7502 16.6069 21.0005 17.292 21.0005 18C21.0005 18.708 20.7502 19.3931 20.2939 19.9344C19.8375 20.4756 19.2046 20.8381 18.5068 20.9578C17.809 21.0775 17.0914 20.9466 16.4808 20.5884C15.8702 20.2301 15.4059 19.6675 15.17 19H8.83C8.59409 19.6675 8.1298 20.2301 7.51919 20.5884C6.90858 20.9466 6.19098 21.0775 5.49321 20.9578C4.79545 20.8381 4.16246 20.4756 3.70613 19.9344C3.2498 19.3931 2.99951 18.708 2.99951 18C2.99951 17.292 3.2498 16.6069 3.70613 16.0656C4.16246 15.5244 4.79545 15.1619 5.49321 15.0422C6.19098 14.9225 6.90858 15.0534 7.51919 15.4116C8.1298 15.7699 8.59409 16.3325 8.83 17ZM3 5C3 3.895 3.895 3 4.994 3H17.006C18.107 3 19 3.888 19 5C19 6.105 18.105 7 17.006 7H4.994C4.73156 7.00027 4.47166 6.94867 4.22923 6.84818C3.98679 6.74769 3.7666 6.60029 3.58131 6.41444C3.39602 6.22859 3.24928 6.00796 3.14952 5.76523C3.04976 5.52249 2.99895 5.26243 3 5ZM8 11C8 10.7371 8.05183 10.4768 8.15253 10.2339C8.25322 9.99109 8.40081 9.77048 8.58685 9.58472C8.77288 9.39897 8.99371 9.25171 9.23671 9.15138C9.47971 9.05105 9.7401 8.99961 10.003 9H18.997C19.5274 9 20.0361 9.21071 20.4112 9.58579C20.7863 9.96086 20.997 10.4696 20.997 11C20.997 11.5304 20.7863 12.0391 20.4112 12.4142C20.0361 12.7893 19.5274 13 18.997 13H10.003C9.73996 13.0009 9.47932 12.9498 9.23609 12.8497C8.99285 12.7496 8.77181 12.6023 8.58567 12.4165C8.39953 12.2306 8.25196 12.0098 8.15145 11.7667C8.05094 11.5236 7.99947 11.263 8 11Z" fill="#42526E"/>
</svg>
