<svg width="24" height="24" viewBox="0 0 24 24" fill="none" xmlns="http://www.w3.org/2000/svg">
<rect width="24" height="24" fill="white" fill-opacity="0.01"/>
<path fill-rule="evenodd" clip-rule="evenodd" d="M3 7H6V9H3V7ZM3 15H14V17H3V15ZM10 7H21V9H10V7ZM18 15H21V17H18V15Z" fill="#42526E"/>
<path fill-rule="evenodd" clip-rule="evenodd" d="M11 8C11.0073 8.39851 10.9352 8.79448 10.7878 9.1648C10.6404 9.53511 10.4207 9.87234 10.1415 10.1568C9.86225 10.4412 9.52917 10.6672 9.16166 10.8214C8.79415 10.9757 8.39958 11.0552 8.00101 11.0553C7.60243 11.0553 7.20784 10.976 6.84028 10.8218C6.47272 10.6677 6.13956 10.4418 5.86026 10.1575C5.58097 9.87314 5.36113 9.53599 5.2136 9.16572C5.06606 8.79546 4.99379 8.39951 5.001 8.001C5.01522 7.21496 5.33742 6.46592 5.89828 5.91502C6.45915 5.36412 7.21384 5.0554 8.00001 5.05527C8.78617 5.05514 9.54098 5.36361 10.102 5.91432C10.6631 6.46503 10.9855 7.21397 11 8ZM9 8C9.0043 7.86609 8.98165 7.73267 8.93339 7.60768C8.88513 7.48269 8.81224 7.36868 8.71906 7.2724C8.62588 7.17613 8.5143 7.09957 8.39095 7.04725C8.2676 6.99494 8.135 6.96795 8.00102 6.96789C7.86703 6.96782 7.7344 6.99468 7.611 7.04686C7.4876 7.09905 7.37595 7.17551 7.28267 7.27169C7.18939 7.36787 7.11639 7.48181 7.068 7.60675C7.01962 7.73169 6.99683 7.86508 7.001 7.999C7.00908 8.25862 7.11786 8.5049 7.30432 8.68573C7.49077 8.86657 7.74027 8.96775 8.00002 8.96788C8.25976 8.96801 8.50936 8.86708 8.696 8.68643C8.88263 8.50578 8.99166 8.25961 9 8ZM19 16C19.0073 16.3985 18.9352 16.7945 18.7878 17.1648C18.6404 17.5351 18.4207 17.8723 18.1415 18.1568C17.8623 18.4412 17.5292 18.6672 17.1617 18.8214C16.7942 18.9757 16.3996 19.0552 16.001 19.0553C15.6024 19.0553 15.2078 18.976 14.8403 18.8218C14.4727 18.6677 14.1396 18.4418 13.8603 18.1575C13.581 17.8731 13.3611 17.536 13.2136 17.1657C13.0661 16.7955 12.9938 16.3995 13.001 16.001C13.0152 15.215 13.3374 14.4659 13.8983 13.915C14.4591 13.3641 15.2138 13.0554 16 13.0553C16.7862 13.0551 17.541 13.3636 18.102 13.9143C18.6631 14.465 18.9855 15.214 19 16ZM17 16C17.0043 15.8661 16.9817 15.7327 16.9334 15.6077C16.8851 15.4827 16.8122 15.3687 16.7191 15.2724C16.6259 15.1761 16.5143 15.0996 16.391 15.0473C16.2676 14.9949 16.135 14.968 16.001 14.9679C15.867 14.9678 15.7344 14.9947 15.611 15.0469C15.4876 15.0991 15.3759 15.1755 15.2827 15.2717C15.1894 15.3679 15.1164 15.4818 15.068 15.6068C15.0196 15.7317 14.9968 15.8651 15.001 15.999C15.0091 16.2586 15.1179 16.5049 15.3043 16.6857C15.4908 16.8666 15.7403 16.9678 16 16.9679C16.2598 16.968 16.5094 16.8671 16.696 16.6864C16.8826 16.5058 16.9917 16.2596 17 16Z" fill="#42526E"/>
</svg>
