<svg width="24" height="24" viewBox="0 0 24 24" fill="none" xmlns="http://www.w3.org/2000/svg">
<rect width="24" height="24" fill="white" fill-opacity="0.01"/>
<path fill-rule="evenodd" clip-rule="evenodd" d="M9.276 4.382L7.357 9.247L2.494 11.164C2.34876 11.2216 2.22419 11.3216 2.13641 11.4508C2.04863 11.5801 2.00171 11.7327 2.00171 11.889C2.00171 12.0453 2.04863 12.1979 2.13641 12.3272C2.22419 12.4564 2.34876 12.5564 2.494 12.614L7.357 14.532L9.276 19.395C9.33363 19.5402 9.43356 19.6648 9.56283 19.7526C9.6921 19.8404 9.84475 19.8873 10.001 19.8873C10.1573 19.8873 10.3099 19.8404 10.4392 19.7526C10.5684 19.6648 10.6684 19.5402 10.726 19.395H10.725L12.643 14.532L17.507 12.613C17.6518 12.555 17.776 12.4549 17.8634 12.3257C17.9509 12.1965 17.9976 12.044 17.9976 11.888C17.9976 11.732 17.9509 11.5795 17.8634 11.4503C17.776 11.3211 17.6518 11.221 17.507 11.163L12.643 9.247L10.725 4.382C10.6858 4.28264 10.6264 4.19245 10.5507 4.11708C10.475 4.04171 10.3845 3.98279 10.285 3.944C10.1899 3.90638 10.0884 3.88787 9.98615 3.88953C9.88392 3.89118 9.78302 3.91297 9.68921 3.95365C9.59541 3.99433 9.51055 4.0531 9.43947 4.1266C9.3684 4.2001 9.31251 4.28688 9.275 4.382H9.276ZM17.573 2.352L16.83 4.238L14.946 4.981C14.8427 5.02287 14.7542 5.09464 14.6919 5.1871C14.6296 5.27956 14.5963 5.38851 14.5963 5.5C14.5963 5.61149 14.6296 5.72044 14.6919 5.8129C14.7542 5.90536 14.8427 5.97712 14.946 6.019L16.83 6.762L17.573 8.648C17.6141 8.75212 17.6856 8.84146 17.7781 8.90442C17.8707 8.96738 17.9801 9.00105 18.092 9.00105C18.2039 9.00105 18.3133 8.96738 18.4058 8.90442C18.4984 8.84146 18.5699 8.75212 18.611 8.648L19.356 6.762L21.239 6.019C21.3435 5.97828 21.4333 5.90694 21.4966 5.81434C21.5599 5.72173 21.5938 5.61217 21.5938 5.5C21.5938 5.38782 21.5599 5.27826 21.4966 5.18566C21.4333 5.09305 21.3435 5.02172 21.239 4.981L19.356 4.238L18.611 2.353C18.5833 2.28177 18.541 2.21708 18.487 2.16303C18.4329 2.10898 18.3682 2.06674 18.297 2.039C18.1593 1.98572 18.0061 1.98879 17.8706 2.04755C17.7351 2.10631 17.6282 2.21603 17.573 2.353V2.352ZM16.869 15.355L16.125 17.238L14.242 17.982C14.1704 18.0096 14.1054 18.0517 14.051 18.1058C13.9966 18.1598 13.954 18.2246 13.926 18.296C13.8723 18.4339 13.8754 18.5875 13.9346 18.7232C13.9938 18.8589 14.1043 18.9656 14.242 19.02L16.125 19.763L16.869 21.647C16.926 21.791 17.039 21.905 17.183 21.962C17.3208 22.0158 17.4743 22.0128 17.61 21.9538C17.7456 21.8948 17.8524 21.7845 17.907 21.647L18.651 19.763L20.534 19.02C20.6385 18.9793 20.7283 18.9079 20.7916 18.8153C20.8549 18.7227 20.8888 18.6132 20.8888 18.501C20.8888 18.3888 20.8549 18.2793 20.7916 18.1867C20.7283 18.0941 20.6385 18.0227 20.534 17.982L18.651 17.238L17.907 15.355C17.8794 15.2833 17.8372 15.2181 17.7829 15.1637C17.7287 15.1093 17.6636 15.0668 17.592 15.039C17.4542 14.9856 17.3008 14.9888 17.1654 15.048C17.03 15.1072 16.9234 15.2176 16.869 15.355Z" fill="#42526E"/>
</svg>
