<svg width="24" height="24" viewBox="0 0 24 24" fill="none" xmlns="http://www.w3.org/2000/svg">
<rect width="24" height="24" fill="white" fill-opacity="0.01"/>
<path fill-rule="evenodd" clip-rule="evenodd" d="M16.2426 16.2426C15.1174 17.3679 13.5913 18 12 18C10.4087 18 8.88258 17.3679 7.75736 16.2426C6.63214 15.1174 6 13.5913 6 12C6 10.4087 6.63214 8.88258 7.75736 7.75736C8.88258 6.63214 10.4087 6 12 6C13.5913 6 15.1174 6.63214 16.2426 7.75736C17.3679 8.88258 18 10.4087 18 12C18 13.5913 17.3679 15.1174 16.2426 16.2426ZM10.2389 8.99952C9.91168 9.00102 9.59834 9.13166 9.367 9.36301C8.879 9.85101 8.879 10.631 9.359 11.111L12.886 14.637C13.1194 14.8662 13.434 14.994 13.7611 14.9925C14.0883 14.991 14.4017 14.8604 14.633 14.629C15.121 14.142 15.121 13.362 14.641 12.882L11.114 9.35501C10.8805 9.12579 10.566 8.99803 10.2389 8.99952Z" fill="#42526E"/>
</svg>
