<svg width="24" height="24" viewBox="0 0 24 24" fill="none" xmlns="http://www.w3.org/2000/svg">
<rect width="24" height="24" fill="white" fill-opacity="0.01"/>
<path d="M15 16H19V6H5V16H12.333L15 18V16ZM17 18V20C17 20.1857 16.9483 20.3678 16.8507 20.5257C16.753 20.6837 16.6133 20.8114 16.4472 20.8944C16.2811 20.9775 16.0952 21.0126 15.9102 20.996C15.7252 20.9793 15.5486 20.9114 15.4 20.8L11.667 18H5C4.46957 18 3.96086 17.7893 3.58579 17.4142C3.21071 17.0391 3 16.5304 3 16V6C3 5.46957 3.21071 4.96086 3.58579 4.58579C3.96086 4.21071 4.46957 4 5 4H19C19.5304 4 20.0391 4.21071 20.4142 4.58579C20.7893 4.96086 21 5.46957 21 6V16C21 16.5304 20.7893 17.0391 20.4142 17.4142C20.0391 17.7893 19.5304 18 19 18H17Z" fill="#42526E"/>
<path fill-rule="evenodd" clip-rule="evenodd" d="M7 10H17V8H7V10ZM7 14H13V12H7V14Z" fill="#42526E"/>
</svg>
