<svg width="24" height="24" viewBox="0 0 24 24" fill="none" xmlns="http://www.w3.org/2000/svg">
<rect width="24" height="24" fill="white" fill-opacity="0.01"/>
<path d="M6.48806 8H8C8.55228 8 9 8.44771 9 9C9 9.55228 8.55228 10 8 10H4C3.44772 10 3 9.55228 3 9V5C3 4.44771 3.44772 4 4 4C4.55228 4 5 4.44771 5 5V6.64341C5.75691 5.61981 6.7293 4.7616 7.87158 4.12842C12.2189 1.71865 17.6967 3.28936 20.1064 7.63671C22.5162 11.9841 20.9455 17.4618 16.5982 19.8716C12.2508 22.2814 6.77306 20.7106 4.36329 16.3633C4.09553 15.8802 4.27006 15.2716 4.7531 15.0039C5.23614 14.7361 5.84477 14.9106 6.11253 15.3937C7.9868 18.7749 12.2473 19.9966 15.6285 18.1223C19.0098 16.2481 20.2315 11.9876 18.3572 8.60633C16.4829 5.22506 12.2225 4.00339 8.8412 5.87766C7.88984 6.40501 7.09195 7.13063 6.48806 8ZM13.2349 9.0044V12.5864L15.4199 14.7714C15.8089 15.1604 15.8089 15.7964 15.4199 16.1854C15.0309 16.5744 14.3949 16.5744 14.0059 16.1854L11.5359 13.7164C11.3509 13.5344 11.2349 13.2834 11.2349 13.0044V9.0044C11.2349 9.00293 11.2349 9.00147 11.2349 9V7C11.2349 6.44771 11.6826 6 12.2349 6C12.7871 6 13.2349 6.44771 13.2349 7V9C13.2349 9.00147 13.2349 9.00293 13.2349 9.0044H13.2349Z" fill="#42526E"/>
</svg>
