<svg width="24" height="24" viewBox="0 0 24 24" fill="none" xmlns="http://www.w3.org/2000/svg">
<rect width="24" height="24" fill="white" fill-opacity="0.01"/>
<path fill-rule="evenodd" clip-rule="evenodd" d="M4.101 13.569C3.854 14.069 4.075 14.664 4.594 14.902C5.114 15.139 5.736 14.927 5.982 14.429C7.011 12.351 9.193 11 11.63 11C13.896 11 15.949 12.167 17.055 14.021C17.341 14.5 17.977 14.666 18.476 14.392C18.5934 14.3301 18.697 14.2449 18.7805 14.1417C18.864 14.0385 18.9257 13.9195 18.9618 13.7917C18.9979 13.664 19.0076 13.5303 18.9905 13.3986C18.9733 13.267 18.9296 13.1402 18.862 13.026C17.389 10.557 14.65 9 11.63 9C8.383 9 5.472 10.802 4.101 13.569Z" fill="#42526E"/>
<path fill-rule="evenodd" clip-rule="evenodd" d="M17.497 10V13H14.502C14.2368 13 13.9824 13.1054 13.7949 13.2929C13.6074 13.4804 13.502 13.7348 13.502 14C13.502 14.2652 13.6074 14.5196 13.7949 14.7071C13.9824 14.8946 14.2368 15 14.502 15H18.398C19.006 15 19.5 14.507 19.5 13.9V10C19.5 9.73439 19.3945 9.47966 19.2067 9.29184C19.0188 9.10402 18.7641 8.9985 18.4985 8.9985C18.2329 8.9985 17.9782 9.10402 17.7903 9.29184C17.6025 9.47966 17.497 9.73439 17.497 10Z" fill="#42526E"/>
</svg>
