<svg width="24" height="24" viewBox="0 0 24 24" fill="none" xmlns="http://www.w3.org/2000/svg">
<rect width="24" height="24" fill="white" fill-opacity="0.01"/>
<path d="M6 10H8.954C9.21922 10 9.47357 10.1054 9.66111 10.2929C9.84864 10.4804 9.954 10.7348 9.954 11C9.954 11.2652 9.84864 11.5196 9.66111 11.7071C9.47357 11.8946 9.21922 12 8.954 12H5.099C4.80744 11.9997 4.5279 11.8837 4.32183 11.6775C4.11576 11.4712 4 11.1916 4 10.9V7C4 6.73478 4.10536 6.48043 4.29289 6.29289C4.48043 6.10535 4.73478 6 5 6C5.26522 6 5.51957 6.10535 5.70711 6.29289C5.89464 6.48043 6 6.73478 6 7V10Z" fill="#42526E"/>
<path d="M7.39 10.09H5.3C5.76343 8.29488 6.83595 6.71645 8.33424 5.6245C9.83253 4.53256 11.6636 3.9949 13.5144 4.10343C15.3651 4.21196 17.1208 4.95994 18.4812 6.21952C19.8416 7.4791 20.7223 9.17207 20.9727 11.009C21.2232 12.846 20.8278 14.713 19.8542 16.2907C18.8807 17.8685 17.3893 19.0592 15.6351 19.6592C13.8809 20.2592 11.9728 20.2313 10.2369 19.5803C8.50096 18.9293 7.04505 17.6955 6.118 16.09H7.84V15.07C8.52015 16.2581 9.58616 17.1779 10.8611 17.6767C12.136 18.1755 13.5432 18.2233 14.849 17.8122C16.1549 17.4011 17.2808 16.5557 18.04 15.4165C18.7992 14.2773 19.146 12.9126 19.0228 11.5492C18.8996 10.1857 18.3138 8.90536 17.3627 7.92067C16.4116 6.93599 15.1523 6.30618 13.7939 6.13579C12.4355 5.9654 11.0597 6.26468 9.89487 6.98394C8.73001 7.7032 7.84615 8.79919 7.39 10.09Z" fill="#42526E"/>
<path d="M7 16.61C7.55228 16.61 8 16.1623 8 15.61C8 15.0577 7.55228 14.61 7 14.61C6.44772 14.61 6 15.0577 6 15.61C6 16.1623 6.44772 16.61 7 16.61Z" fill="#42526E"/>
</svg>
