<svg width="24" height="24" viewBox="0 0 24 24" fill="none" xmlns="http://www.w3.org/2000/svg">
<rect width="24" height="24" fill="white" fill-opacity="0.01"/>
<path fill-rule="evenodd" clip-rule="evenodd" d="M19 10.341V6.745C19 5.783 18.206 5 17.227 5H17V6C17 7.105 16.112 8 15 8C13.895 8 13 7.112 13 6V5H9V6C9 7.105 8.112 8 7 8C5.895 8 5 7.112 5 6V5H4.773C3.793 5 3 5.781 3 6.745V17.255C3 18.218 3.794 19 4.773 19H11.803C11.1888 17.9376 10.9151 16.7125 11.0189 15.4897C11.1226 14.267 11.5987 13.1055 12.3831 12.1617C13.1675 11.218 14.2224 10.5375 15.4055 10.2119C16.5887 9.88637 17.8432 9.93142 19 10.341Z" fill="#42526E"/>
<path fill-rule="evenodd" clip-rule="evenodd" d="M14 6V5H16V6C16 6.26522 15.8946 6.51957 15.7071 6.70711C15.5196 6.89464 15.2652 7 15 7C14.7348 7 14.4804 6.89464 14.2929 6.70711C14.1054 6.51957 14 6.26522 14 6ZM14 4C14 3.73478 14.1054 3.48043 14.2929 3.29289C14.4804 3.10536 14.7348 3 15 3C15.2652 3 15.5196 3.10536 15.7071 3.29289C15.8946 3.48043 16 3.73478 16 4V5H14V4ZM6 4C6 3.73478 6.10536 3.48043 6.29289 3.29289C6.48043 3.10536 6.73478 3 7 3C7.26522 3 7.51957 3.10536 7.70711 3.29289C7.89464 3.48043 8 3.73478 8 4V5H6V4ZM6 6V5H8V6C8 6.26522 7.89464 6.51957 7.70711 6.70711C7.51957 6.89464 7.26522 7 7 7C6.73478 7 6.48043 6.89464 6.29289 6.70711C6.10536 6.51957 6 6.26522 6 6ZM18 15V13.99C17.9974 13.7265 17.8908 13.4747 17.7036 13.2893C17.5163 13.104 17.2635 13 17 13C16.444 13 16 13.444 16 13.99V15H14.99C14.7265 15.0026 14.4747 15.1092 14.2893 15.2964C14.104 15.4837 14 15.7365 14 16C14 16.556 14.444 17 14.99 17H16V18.01C16.0026 18.2735 16.1092 18.5253 16.2964 18.7107C16.4837 18.896 16.7365 19 17 19C17.556 19 18 18.556 18 18.01V17H19.01C19.2735 16.9974 19.5253 16.8908 19.7107 16.7036C19.896 16.5163 20 16.2635 20 16C20 15.444 19.556 15 19.01 15H18ZM17 21C15.6739 21 14.4021 20.4732 13.4645 19.5355C12.5268 18.5979 12 17.3261 12 16C12 14.6739 12.5268 13.4021 13.4645 12.4645C14.4021 11.5268 15.6739 11 17 11C18.3261 11 19.5979 11.5268 20.5355 12.4645C21.4732 13.4021 22 14.6739 22 16C22 17.3261 21.4732 18.5979 20.5355 19.5355C19.5979 20.4732 18.3261 21 17 21Z" fill="#42526E"/>
</svg>
