<svg width="24" height="24" viewBox="0 0 24 24" fill="none" xmlns="http://www.w3.org/2000/svg">
<rect width="24" height="24" fill="white" fill-opacity="0.01"/>
<path d="M19 10.341V7.006C19.0008 6.74336 18.9498 6.48313 18.8501 6.24018C18.7503 5.99722 18.6036 5.7763 18.4185 5.59003C18.2333 5.40375 18.0133 5.25577 17.7709 5.15453C17.5286 5.0533 17.2686 5.00079 17.006 5H4.99399C4.73135 5.00079 4.47143 5.0533 4.22908 5.15453C3.98673 5.25577 3.7667 5.40375 3.58153 5.59003C3.39637 5.7763 3.24972 5.99722 3.14994 6.24018C3.05016 6.48313 2.9992 6.74336 2.99999 7.006V16.994C2.9992 17.2566 3.05016 17.5169 3.14994 17.7598C3.24972 18.0028 3.39637 18.2237 3.58153 18.41C3.7667 18.5962 3.98673 18.7442 4.22908 18.8455C4.47143 18.9467 4.73135 18.9992 4.99399 19H11.803C11.445 18.3816 11.2011 17.7038 11.083 16.999C8.05499 16.999 4.99999 16.997 4.99999 16.994C4.99999 16.994 4.99999 7 4.99399 7C4.99399 7 17 7 17 7.006V10C17.701 10 18.374 10.12 19 10.341Z" fill="#42526E"/>
<path fill-rule="evenodd" clip-rule="evenodd" d="M4.99999 4V5H6.99999V4C6.99999 3.73478 6.89464 3.48043 6.7071 3.29289C6.51956 3.10536 6.26521 3 5.99999 3C5.73478 3 5.48042 3.10536 5.29289 3.29289C5.10535 3.48043 4.99999 3.73478 4.99999 4ZM15 4V5H17V4C17 3.73478 16.8946 3.48043 16.7071 3.29289C16.5196 3.10536 16.2652 3 16 3C15.7348 3 15.4804 3.10536 15.2929 3.29289C15.1054 3.48043 15 3.73478 15 4ZM3.99999 7H18V9H3.99999V7ZM18 15V13.99C17.9974 13.7265 17.8908 13.4747 17.7036 13.2893C17.5163 13.104 17.2635 13 17 13C16.444 13 16 13.444 16 13.99V15H14.99C14.7265 15.0026 14.4747 15.1092 14.2893 15.2964C14.104 15.4837 14 15.7365 14 16C14 16.556 14.444 17 14.99 17H16V18.01C16.0026 18.2735 16.1091 18.5253 16.2964 18.7107C16.4837 18.896 16.7365 19 17 19C17.556 19 18 18.556 18 18.01V17H19.01C19.2735 16.9974 19.5253 16.8908 19.7106 16.7036C19.896 16.5163 20 16.2635 20 16C20 15.444 19.556 15 19.01 15H18ZM17 21C15.6739 21 14.4021 20.4732 13.4645 19.5355C12.5268 18.5979 12 17.3261 12 16C12 14.6739 12.5268 13.4021 13.4645 12.4645C14.4021 11.5268 15.6739 11 17 11C18.3261 11 19.5978 11.5268 20.5355 12.4645C21.4732 13.4021 22 14.6739 22 16C22 17.3261 21.4732 18.5979 20.5355 19.5355C19.5978 20.4732 18.3261 21 17 21Z" fill="#42526E"/>
</svg>
