<svg width="24" height="24" viewBox="0 0 24 24" fill="none" xmlns="http://www.w3.org/2000/svg">
<rect width="24" height="24" fill="white" fill-opacity="0.01"/>
<path d="M3 6.009C3 4.899 3.893 4 4.995 4H19.005C20.107 4 21 4.902 21 6.009V13.991C21 15.101 20.107 16 19.005 16H4.995C4.4642 15.9976 3.95603 15.7847 3.582 15.4081C3.20798 15.0315 2.99867 14.5218 3 13.991V6.009ZM5 14H19V6H5V14Z" fill="#42526E"/>
<path fill-rule="evenodd" clip-rule="evenodd" d="M10 17H14V20H10V17ZM9 20.5C8.99998 20.3689 9.05142 20.2431 9.14325 20.1496C9.23508 20.0561 9.35996 20.0024 9.491 20H14.509C14.64 20.0024 14.7649 20.0561 14.8567 20.1496C14.9486 20.2431 15 20.3689 15 20.5V21H9V20.5Z" fill="#42526E"/>
</svg>
