<svg width="24" height="24" viewBox="0 0 24 24" fill="none" xmlns="http://www.w3.org/2000/svg">
<rect width="24" height="24" fill="white" fill-opacity="0.01"/>
<path d="M6.978 19.477C6.978 20.848 8.623 21.519 9.555 20.527L21.558 7.723C22.518 6.695 21.803 5 20.409 5H3.496C2.178 5 1.505 6.607 2.418 7.572L6.978 12.4V19.477ZM8.971 18.212V11.585L3.856 6.169C4.159 6.491 3.934 7.026 3.496 7.026H19.459L8.971 18.212Z" fill="#42526E"/>
<path d="M8.416 12.902L12.426 10.952C12.6665 10.8303 12.8503 10.6199 12.9388 10.3653C13.0272 10.1106 13.0133 9.83159 12.9 9.587C12.8469 9.46651 12.7701 9.35793 12.6742 9.26772C12.5782 9.17751 12.4652 9.10751 12.3416 9.06189C12.2181 9.01627 12.0867 8.99595 11.9552 9.00216C11.8236 9.00836 11.6947 9.04096 11.576 9.098L7.566 11.048C7.069 11.29 6.856 11.901 7.091 12.412C7.14401 12.5327 7.22078 12.6415 7.31673 12.7319C7.41269 12.8223 7.52586 12.8925 7.64951 12.9382C7.77316 12.9839 7.90475 13.0043 8.03644 12.9981C8.16812 12.9918 8.29721 12.9592 8.416 12.902Z" fill="#42526E"/>
</svg>
