<svg width="24" height="24" viewBox="0 0 24 24" fill="none" xmlns="http://www.w3.org/2000/svg">
<rect width="24" height="24" fill="white" fill-opacity="0.01"/>
<path fill-rule="evenodd" clip-rule="evenodd" d="M11.701 16.7C11.0383 16.7094 10.3802 16.5869 9.76522 16.3398C9.15019 16.0926 8.59042 15.7257 8.11843 15.2604C7.64644 14.795 7.27165 14.2405 7.01584 13.629C6.76002 13.0175 6.62829 12.3613 6.62829 11.6985C6.62829 11.0357 6.76002 10.3795 7.01584 9.768C7.27165 9.15653 7.64644 8.602 8.11843 8.13664C8.59042 7.67128 9.15019 7.30437 9.76522 7.05722C10.3802 6.81008 11.0383 6.68764 11.701 6.69701C13.0276 6.69701 14.2999 7.224 15.238 8.16206C16.176 9.10012 16.703 10.3724 16.703 11.699C16.703 13.0256 16.176 14.2979 15.238 15.236C14.2999 16.174 13.0276 16.701 11.701 16.701V16.7ZM20.069 13.584C19.6764 13.4489 19.3357 13.1947 19.0944 12.8568C18.8532 12.519 18.7233 12.1142 18.723 11.699C18.723 10.823 19.286 10.086 20.068 9.81401C20.1834 9.77597 20.2801 9.69558 20.3386 9.58905C20.397 9.48252 20.4129 9.35779 20.383 9.24001C20.1859 8.54433 19.9052 7.87512 19.547 7.24701C19.4879 7.1475 19.3947 7.07285 19.2847 7.03698C19.1747 7.0011 19.0554 7.00644 18.949 7.05201C18.539 7.21779 18.0863 7.24586 17.659 7.13201C17.3235 7.04236 17.0174 6.8664 16.7711 6.62165C16.5247 6.3769 16.3468 6.0719 16.255 5.73701C16.1383 5.30794 16.165 4.8525 16.331 4.44001C16.376 4.33361 16.3809 4.21453 16.3449 4.10478C16.3089 3.99503 16.2343 3.90204 16.135 3.84301C15.512 3.48991 14.8489 3.2126 14.16 3.01701C14.0424 2.98681 13.9176 3.00244 13.811 3.06074C13.7045 3.11903 13.624 3.21564 13.586 3.33101C13.4509 3.72362 13.1967 4.0643 12.8589 4.30558C12.521 4.54686 12.1162 4.6767 11.701 4.67701C11.2861 4.67671 10.8816 4.54698 10.5439 4.30588C10.2061 4.06479 9.95206 3.72435 9.81701 3.33201C9.77857 3.21666 9.69795 3.1201 9.59132 3.06168C9.48468 3.00327 9.35991 2.98731 9.24201 3.01701C8.53401 3.21701 7.86301 3.50201 7.23801 3.85901C7.14062 3.91607 7.06702 4.00628 7.03066 4.11315C6.99431 4.22001 6.99762 4.33639 7.04001 4.44101C7.18928 4.80482 7.22809 5.20454 7.15161 5.59027C7.07513 5.976 6.88675 6.33067 6.60997 6.61002C6.33319 6.88936 5.98027 7.081 5.59525 7.16103C5.21024 7.24105 4.81018 7.20592 4.44501 7.06001C4.33885 7.01558 4.22023 7.01094 4.11093 7.04695C4.00162 7.08296 3.90898 7.15719 3.85001 7.25601C3.49279 7.88457 3.21308 8.55412 3.01701 9.25001C2.98732 9.3666 3.0025 9.4901 3.05954 9.59603C3.11658 9.70197 3.21133 9.78261 3.32501 9.82201C3.71203 9.96046 4.04684 10.2151 4.28366 10.5511C4.52047 10.887 4.64772 11.288 4.64801 11.699C4.64801 12.566 4.09601 13.298 3.32401 13.576C3.21062 13.6152 3.11605 13.6955 3.05902 13.801C3.00199 13.9066 2.98664 14.0297 3.01601 14.146C3.19206 14.7669 3.43446 15.367 3.73901 15.936C3.79879 16.0417 3.89663 16.1206 4.01257 16.1566C4.12852 16.1927 4.25384 16.1832 4.36301 16.13C4.95801 15.857 5.70601 15.866 6.46701 16.368C6.58401 16.445 6.69201 16.553 6.76901 16.668C7.29601 17.468 7.28101 18.248 6.96701 18.856C6.90945 18.9623 6.89478 19.0866 6.92603 19.2034C6.95727 19.3202 7.03205 19.4206 7.13501 19.484C7.79696 19.8723 8.50611 20.1737 9.24501 20.381C9.36202 20.4114 9.48619 20.3958 9.59215 20.3377C9.6981 20.2795 9.77782 20.183 9.81501 20.068C9.94895 19.6739 10.2028 19.3316 10.541 19.089C10.8792 18.8464 11.2848 18.7156 11.701 18.715C12.579 18.715 13.319 19.282 13.588 20.068C13.6254 20.1829 13.7052 20.2792 13.8111 20.3373C13.9169 20.3955 14.041 20.4111 14.158 20.381C14.8872 20.1759 15.5874 19.8792 16.242 19.498C16.3456 19.4344 16.4207 19.3334 16.4518 19.2159C16.4829 19.0984 16.4676 18.9735 16.409 18.867C16.091 18.259 16.072 17.474 16.6 16.672C16.677 16.556 16.785 16.447 16.902 16.37C17.674 15.859 18.429 15.857 19.027 16.14C19.1361 16.1947 19.262 16.2055 19.3789 16.1701C19.4957 16.1348 19.5945 16.056 19.655 15.95C19.9619 15.3805 20.206 14.7793 20.383 14.157C20.4132 14.0395 20.3975 13.9149 20.3392 13.8085C20.2809 13.7021 20.1843 13.6218 20.069 13.584Z" fill="#42526E"/>
</svg>
