<svg width="24" height="24" viewBox="0 0 24 24" fill="none" xmlns="http://www.w3.org/2000/svg">
<rect width="24" height="24" fill="white" fill-opacity="0.01"/>
<path d="M6 12H14V10H6V12ZM4 8.99C4 8.445 4.456 8 5.002 8H14.998C15.55 8 16 8.451 16 8.99V14H4V8.99Z" fill="#42526E"/>
<path fill-rule="evenodd" clip-rule="evenodd" d="M6 7.005C6 5.898 6.898 5 7.998 5H10.002C11.106 5 12 5.894 12 7.005V10H6V7.005ZM10 7.005V7H7.999C8.004 7 8.001 7.003 8.001 7.005V8H10.001V7.005H10Z" fill="#42526E"/>
<path d="M4.5 17H18.494L19.496 14H4.14L4.5 17ZM2.005 12.988C1.98652 12.8633 1.9956 12.7362 2.0316 12.6154C2.0676 12.4946 2.12963 12.3832 2.21334 12.289C2.29705 12.1948 2.40039 12.1201 2.51609 12.0702C2.63179 12.0203 2.75703 11.9963 2.883 12H21.276C21.826 12 22.133 12.417 21.957 12.944L20.25 18.056C20.076 18.577 19.492 19 18.935 19H3.725C3.45155 18.9953 3.18875 18.8932 2.98382 18.7121C2.77889 18.531 2.64528 18.2828 2.607 18.012L2.005 12.988Z" fill="#42526E"/>
</svg>
