<svg width="24" height="24" viewBox="0 0 24 24" fill="none" xmlns="http://www.w3.org/2000/svg">
<rect width="24" height="24" fill="white" fill-opacity="0.01"/>
<path d="M19.005 19C19.002 19 19 19.002 19 19.002L19.005 19ZM5 19.006C5 19.002 4.998 19 4.995 19H5V19.006ZM19 19V13H21V19.002C21.0003 19.2642 20.9489 19.5239 20.8487 19.7662C20.7486 20.0086 20.6017 20.2288 20.4164 20.4143C20.2312 20.5999 20.0112 20.7471 19.769 20.8476C19.5268 20.9481 19.2672 20.9999 19.005 21H4.995C4.46615 20.9997 3.95902 20.7896 3.58497 20.4157C3.21092 20.0419 3.00053 19.5349 3 19.006V4.994C3 3.893 3.896 3 4.997 3H11V5H5V19H19ZM5 19.006C5 19.002 4.998 19 4.995 19H5V19.006ZM11 5H5V19H19V13H21V19.002C21.0003 19.2642 20.9489 19.5239 20.8487 19.7662C20.7486 20.0086 20.6017 20.2288 20.4164 20.4143C20.2312 20.5999 20.0112 20.7471 19.769 20.8476C19.5268 20.9481 19.2672 20.9999 19.005 21H4.995C4.46615 20.9997 3.95902 20.7896 3.58497 20.4157C3.21092 20.0419 3.00053 19.5349 3 19.006V4.994C3 3.893 3.896 3 4.997 3H11V5ZM19 5V8C19 8.26522 19.1054 8.51958 19.2929 8.70711C19.4804 8.89465 19.7348 9 20 9C20.2652 9 20.5196 8.89465 20.7071 8.70711C20.8946 8.51958 21 8.26522 21 8V4C21 3.73479 20.8946 3.48043 20.7071 3.2929C20.5196 3.10536 20.2652 3 20 3H16C15.7348 3 15.4804 3.10536 15.2929 3.2929C15.1054 3.48043 15 3.73479 15 4C15 4.26522 15.1054 4.51957 15.2929 4.70711C15.4804 4.89465 15.7348 5 16 5H19Z" fill="#42526E"/>
<path d="M12.707 12.707L20.707 4.707C20.8025 4.61476 20.8787 4.50441 20.9311 4.38241C20.9835 4.26041 21.0111 4.12919 21.0123 3.99641C21.0134 3.86363 20.9881 3.73195 20.9378 3.60905C20.8875 3.48615 20.8133 3.3745 20.7194 3.28061C20.6255 3.18672 20.5138 3.11246 20.391 3.06218C20.2681 3.0119 20.1364 2.9866 20.0036 2.98775C19.8708 2.98891 19.7396 3.01649 19.6176 3.0689C19.4956 3.12131 19.3852 3.19749 19.293 3.293L11.293 11.293C11.1108 11.4816 11.01 11.7342 11.0123 11.9964C11.0146 12.2586 11.1198 12.5094 11.3052 12.6948C11.4906 12.8802 11.7414 12.9854 12.0036 12.9877C12.2658 12.99 12.5184 12.8892 12.707 12.707Z" fill="#42526E"/>
</svg>
