<svg width="24" height="24" viewBox="0 0 24 24" fill="none" xmlns="http://www.w3.org/2000/svg">
<rect width="24" height="24" fill="white" fill-opacity="0.01"/>
<path fill-rule="evenodd" clip-rule="evenodd" d="M12 3V5H19V19H12V21H19.006C20.106 21 21 20.107 21 19.005V4.995C21.0003 4.73302 20.9489 4.47357 20.8488 4.23147C20.7487 3.98937 20.6018 3.76938 20.4166 3.58409C20.2314 3.3988 20.0115 3.25184 19.7695 3.15161C19.5274 3.05139 19.268 2.99987 19.006 3H12Z" fill="#42526E"/>
<path fill-rule="evenodd" clip-rule="evenodd" d="M3.977 11C3.71478 11.0034 3.46463 11.1108 3.28146 11.2984C3.09829 11.4861 2.99706 11.7388 3 12.001C3 12.552 3.437 13 3.977 13H15.024C15.2859 12.9968 15.5358 12.8898 15.7188 12.7025C15.9018 12.5152 16.0029 12.2629 16 12.001C16.0029 11.7389 15.9018 11.4864 15.7189 11.2988C15.5359 11.1111 15.286 11.0037 15.024 11H3.977Z" fill="#42526E"/>
<path fill-rule="evenodd" clip-rule="evenodd" d="M12.303 8.305C12.1089 8.502 12.0001 8.76745 12.0001 9.044C12.0001 9.32055 12.1089 9.586 12.303 9.783L14.5 12L12.303 14.217C12.1088 14.4135 11.9999 14.6787 11.9999 14.955C11.9999 15.2313 12.1088 15.4965 12.303 15.693C12.707 16.102 13.363 16.102 13.768 15.693L16.698 12.738C16.8913 12.5408 16.9996 12.2756 16.9996 11.9995C16.9996 11.7234 16.8913 11.4582 16.698 11.261L13.768 8.305C13.6719 8.20858 13.5578 8.13207 13.4321 8.07987C13.3064 8.02767 13.1716 8.00079 13.0355 8.00079C12.8994 8.00079 12.7646 8.02767 12.6389 8.07987C12.5132 8.13207 12.3991 8.20858 12.303 8.305Z" fill="#42526E"/>
</svg>
