<svg width="24" height="24" viewBox="0 0 24 24" fill="none" xmlns="http://www.w3.org/2000/svg">
<rect width="24" height="24" fill="white" fill-opacity="0.01"/>
<path fill-rule="evenodd" clip-rule="evenodd" d="M4.977 11C4.71487 11.0032 4.46472 11.1103 4.28152 11.2978C4.09832 11.4853 3.99707 11.7379 4 12C4 12.551 4.437 13 4.977 13H16.023C16.285 12.9966 16.535 12.8894 16.7182 12.7019C16.9013 12.5145 17.0027 12.2621 17 12C17.0027 11.7379 16.9013 11.4855 16.7182 11.2981C16.535 11.1106 16.285 11.0034 16.023 11H4.977Z" fill="#42526E"/>
<path fill-rule="evenodd" clip-rule="evenodd" d="M6.231 8.306L3.301 11.262C3.10776 11.459 2.99951 11.724 2.99951 12C2.99951 12.276 3.10776 12.541 3.301 12.738L6.231 15.695C6.32708 15.7916 6.4413 15.8682 6.5671 15.9205C6.69289 15.9728 6.82777 15.9997 6.964 15.9997C7.10023 15.9997 7.23511 15.9728 7.36091 15.9205C7.4867 15.8682 7.60092 15.7916 7.697 15.695C7.89181 15.4984 8.00109 15.2328 8.00109 14.956C8.00109 14.6792 7.89181 14.4136 7.697 14.217L5.5 12.001L7.697 9.783C7.8915 9.58642 8.0006 9.32104 8.0006 9.0445C8.0006 8.76796 7.8915 8.50258 7.697 8.306C7.60099 8.20931 7.48679 8.13257 7.36099 8.0802C7.23519 8.02783 7.10027 8.00087 6.964 8.00087C6.82774 8.00087 6.69282 8.02783 6.56702 8.0802C6.44121 8.13257 6.32702 8.20931 6.231 8.306ZM12 3V5H19V19H12V21H19.006C20.106 21 21 20.107 21 19.005V4.995C21.0003 4.73302 20.9489 4.47357 20.8488 4.23147C20.7487 3.98937 20.6018 3.76938 20.4166 3.58409C20.2314 3.3988 20.0115 3.25184 19.7695 3.15161C19.5274 3.05139 19.268 2.99987 19.006 3H12Z" fill="#42526E"/>
</svg>
