<svg width="24" height="24" viewBox="0 0 24 24" fill="none" xmlns="http://www.w3.org/2000/svg">
<rect width="24" height="24" fill="white" fill-opacity="0.01"/>
<path d="M15.673 14.042L19.346 10.462L14.27 9.724L12 5.125L9.73 9.725L4.654 10.462L8.327 14.042L7.46 19.097L12 16.711L16.54 19.097L15.673 14.042ZM12 19.04L7.495 21.41C7.23962 21.5445 6.95169 21.6048 6.6638 21.5841C6.37591 21.5634 6.09956 21.4626 5.86604 21.2929C5.63251 21.1233 5.45114 20.8917 5.34244 20.6243C5.23374 20.3569 5.20207 20.0645 5.251 19.78L6.111 14.763L2.467 11.21C2.26043 11.0086 2.11431 10.7535 2.04519 10.4734C1.97607 10.1933 1.98669 9.89948 2.07585 9.62512C2.16501 9.35076 2.32916 9.10682 2.54974 8.92089C2.77031 8.73496 3.03851 8.61445 3.324 8.573L8.361 7.841L10.613 3.277C10.7405 3.01797 10.9381 2.79983 11.1832 2.64729C11.4283 2.49474 11.7113 2.41389 12 2.41389C12.2887 2.41389 12.5717 2.49474 12.8168 2.64729C13.0619 2.79983 13.2595 3.01797 13.387 3.277L15.639 7.841L20.676 8.573C20.9615 8.61445 21.2297 8.73496 21.4503 8.92089C21.6708 9.10682 21.835 9.35076 21.9242 9.62512C22.0133 9.89948 22.0239 10.1933 21.9548 10.4734C21.8857 10.7535 21.7396 11.0086 21.533 11.21L17.888 14.763L18.748 19.779C18.7968 20.0633 18.7651 20.3556 18.6564 20.6228C18.5478 20.8901 18.3665 21.1216 18.1331 21.2912C17.8998 21.4607 17.6236 21.5617 17.3359 21.5825C17.0482 21.6033 16.7604 21.5432 16.505 21.409L12 19.04Z" fill="#42526E"/>
</svg>
