<svg width="24" height="24" viewBox="0 0 24 24" fill="none" xmlns="http://www.w3.org/2000/svg">
<rect width="24" height="24" fill="white" fill-opacity="0.01"/>
<path d="M12 16.373L15.98 18.566L15.22 13.911L18.496 10.564L13.972 9.874L12 5.687L10.028 9.876L5.504 10.565L8.78 13.91L8.018 18.565L12 16.373ZM12 18.656L8.984 20.318C8.65534 20.4991 8.28236 20.5841 7.90767 20.5633C7.53299 20.5425 7.17172 20.4167 6.86516 20.2002C6.55861 19.9838 6.31913 19.6855 6.17409 19.3394C6.02906 18.9933 5.98432 18.6133 6.045 18.243L6.644 14.587L4.074 11.963C3.81632 11.7 3.63626 11.3709 3.55366 11.012C3.47106 10.6532 3.48914 10.2785 3.60589 9.92928C3.72265 9.58005 3.93355 9.26984 4.21535 9.03282C4.49716 8.7958 4.83893 8.64118 5.203 8.586L8.673 8.058L10.191 4.834C10.3527 4.49096 10.6087 4.20098 10.929 3.99788C11.2493 3.79479 11.6207 3.68695 12 3.68695C12.3793 3.68695 12.7507 3.79479 13.071 3.99788C13.3913 4.20098 13.6473 4.49096 13.809 4.834L15.328 8.058L18.798 8.586C19.1619 8.64148 19.5034 8.79632 19.785 9.03346C20.0665 9.2706 20.2772 9.58085 20.3937 9.93003C20.5102 10.2792 20.5281 10.6538 20.4454 11.0125C20.3627 11.3712 20.1826 11.7001 19.925 11.963L17.356 14.587L17.955 18.243C18.0158 18.6135 17.9711 18.9936 17.8261 19.3398C17.681 19.6861 17.4414 19.9845 17.1347 20.201C16.828 20.4175 16.4665 20.5433 16.0916 20.564C15.7168 20.5846 15.3437 20.4994 15.015 20.318L12 18.656Z" fill="#42526E"/>
</svg>
