<svg width="24" height="24" viewBox="0 0 24 24" fill="none" xmlns="http://www.w3.org/2000/svg">
<rect width="24" height="24" fill="white" fill-opacity="0.01"/>
<path fill-rule="evenodd" clip-rule="evenodd" d="M12.072 17.284L8.167 19.337C8.00185 19.4238 7.81571 19.4627 7.62961 19.4493C7.44351 19.4358 7.26489 19.3706 7.11393 19.261C6.96297 19.1513 6.8457 19.0016 6.77538 18.8288C6.70506 18.656 6.68449 18.4669 6.716 18.283L7.461 13.934L4.302 10.854C4.16859 10.7237 4.07425 10.5588 4.02965 10.3777C3.98504 10.1967 3.99193 10.0068 4.04955 9.82947C4.10717 9.65214 4.21322 9.49445 4.35572 9.37421C4.49822 9.25397 4.67151 9.17596 4.856 9.149L9.222 8.514L11.175 4.558C11.2575 4.39053 11.3853 4.24951 11.5438 4.1509C11.7023 4.05229 11.8853 4.00003 12.072 4.00003C12.2587 4.00003 12.4417 4.05229 12.6002 4.1509C12.7587 4.24951 12.8865 4.39053 12.969 4.558L14.921 8.514L19.287 9.149C19.4716 9.17581 19.645 9.2537 19.7876 9.37388C19.9302 9.49406 20.0364 9.65173 20.0942 9.82909C20.1519 10.0064 20.1589 10.1964 20.1143 10.3775C20.0698 10.5586 19.9754 10.7237 19.842 10.854L16.682 13.934L17.428 18.283C17.4594 18.4668 17.4388 18.6556 17.3685 18.8283C17.2982 19.001 17.181 19.1506 17.0302 19.2602C16.8794 19.3698 16.701 19.4351 16.5151 19.4487C16.3291 19.4622 16.1431 19.4236 15.978 19.337L12.072 17.284Z" fill="#42526E"/>
</svg>
