<svg width="24" height="24" viewBox="0 0 24 24" fill="none" xmlns="http://www.w3.org/2000/svg">
<rect width="24" height="24" fill="white" fill-opacity="0.01"/>
<path d="M4 5H20C21.105 5 22 6.045 22 7.333V16.667C22 17.955 21.105 19 20 19H4C2.895 19 2 17.955 2 16.667V7.333C2 6.045 2.895 5 4 5ZM7.465 14.887H8.743L6.786 9.251H5.399L3.442 14.887H4.625L5.059 13.544H7.039L7.465 14.887ZM6.02 10.423H6.09L6.79 12.633H5.313L6.02 10.423ZM12.235 14.887C13.438 14.887 14.185 14.262 14.185 13.274C14.185 12.548 13.641 11.985 12.895 11.93V11.86C13.18 11.8128 13.439 11.666 13.6258 11.4457C13.8126 11.2254 13.9151 10.9459 13.915 10.657C13.915 9.786 13.262 9.251 12.168 9.251H9.704V14.887H12.234H12.235ZM10.883 10.153H11.868C12.43 10.153 12.754 10.423 12.754 10.872C12.754 11.325 12.407 11.587 11.77 11.587H10.883V10.153ZM10.883 13.985V12.384H11.907C12.602 12.384 12.981 12.657 12.981 13.173C12.981 13.7 12.614 13.985 11.934 13.985H10.884H10.883ZM17.645 15.032C19.005 15.032 19.997 14.192 20.095 12.973H18.945C18.833 13.594 18.325 13.993 17.649 13.993C16.759 13.993 16.208 13.255 16.208 12.067C16.208 10.88 16.758 10.145 17.645 10.145C18.317 10.145 18.829 10.571 18.942 11.219H20.09C20.004 9.993 18.981 9.106 17.645 9.106C16.008 9.106 15 10.236 15 12.067C15 13.903 16.012 15.032 17.645 15.032Z" fill="#42526E"/>
</svg>
