<svg width="24" height="24" viewBox="0 0 24 24" fill="none" xmlns="http://www.w3.org/2000/svg">
<rect width="24" height="24" fill="white" fill-opacity="0.01"/>
<path d="M19 7C20.105 7.003 21 7.899 21 9.006V18.994C21.0001 19.2575 20.9483 19.5184 20.8476 19.7618C20.7468 20.0053 20.5991 20.2264 20.4128 20.4128C20.2264 20.5991 20.0053 20.7468 19.7618 20.8476C19.5184 20.9483 19.2575 21.0001 18.994 21H9.006C8.47493 21.0003 7.96545 20.7898 7.58937 20.4149C7.21329 20.0399 7.00132 19.5311 7 19H18C18.555 19 19 18.552 19 18V7ZM3 5.006C3 3.898 3.897 3 5.006 3H14.994C16.102 3 17 3.897 17 5.006V14.994C17.0001 15.2575 16.9483 15.5184 16.8476 15.7618C16.7468 16.0053 16.5991 16.2264 16.4128 16.4128C16.2264 16.5991 16.0053 16.7468 15.7618 16.8476C15.5184 16.9483 15.2575 17.0001 14.994 17H5.006C4.74253 17.0001 4.48162 16.9483 4.23818 16.8476C3.99474 16.7468 3.77355 16.5991 3.58725 16.4128C3.40095 16.2264 3.25319 16.0053 3.15243 15.7618C3.05167 15.5184 2.99987 15.2575 3 14.994V5.006ZM5 5V15H15V5H5Z" fill="#42526E"/>
<path d="M7.707 9.293C7.61475 9.19749 7.50441 9.12131 7.3824 9.0689C7.2604 9.01649 7.12918 8.9889 6.9964 8.98775C6.86362 8.9866 6.73194 9.0119 6.60905 9.06218C6.48615 9.11246 6.3745 9.18671 6.28061 9.28061C6.18671 9.3745 6.11246 9.48615 6.06218 9.60905C6.0119 9.73194 5.9866 9.86362 5.98775 9.9964C5.9889 10.1292 6.01649 10.2604 6.0689 10.3824C6.12131 10.5044 6.19749 10.6148 6.293 10.707L8.293 12.707C8.48053 12.8945 8.73484 12.9998 9 12.9998C9.26516 12.9998 9.51947 12.8945 9.707 12.707L13.707 8.707C13.8025 8.61475 13.8787 8.50441 13.9311 8.3824C13.9835 8.2604 14.0111 8.12918 14.0123 7.9964C14.0134 7.86362 13.9881 7.73194 13.9378 7.60905C13.8875 7.48615 13.8133 7.3745 13.7194 7.2806C13.6255 7.18671 13.5139 7.11246 13.391 7.06218C13.2681 7.0119 13.1364 6.9866 13.0036 6.98775C12.8708 6.9889 12.7396 7.01649 12.6176 7.0689C12.4956 7.12131 12.3852 7.19749 12.293 7.293L9 10.586L7.707 9.293Z" fill="#42526E"/>
</svg>
