<svg width="24" height="24" viewBox="0 0 24 24" fill="none" xmlns="http://www.w3.org/2000/svg">
<rect width="24" height="24" fill="white" fill-opacity="0.01"/>
<path d="M3.507 15H16.5C16.493 15 16.493 5 16.493 5H3.5C3.507 5 3.507 15 3.507 15ZM1.5 4.994C1.5 3.893 2.263 3 3.192 3H16.808C17.742 3 18.5 3.895 18.5 4.994V15.006C18.5 16.107 17.737 17 16.808 17H3.192C2.258 17 1.5 16.105 1.5 15.006V4.994ZM6.5 5V15H8.5V5H6.5ZM11.5 5V15H13.5V5H11.5Z" fill="#42526E"/>
<path d="M20.5 5H20.506C21.607 5 22.5 5.895 22.5 6.994V19.006C22.4997 19.5348 22.2896 20.0418 21.9157 20.4157C21.5418 20.7896 21.0348 20.9997 20.506 21H8.494C7.96524 20.9997 7.45821 20.7896 7.08432 20.4157C6.71043 20.0418 6.50027 19.5348 6.5 19.006V19H19.5C20.055 19 20.5 18.552 20.5 18V5Z" fill="#42526E"/>
</svg>
