<svg width="24" height="24" viewBox="0 0 24 24" fill="none" xmlns="http://www.w3.org/2000/svg">
<rect width="24" height="24" fill="white" fill-opacity="0.01"/>
<path d="M4 17.995H19.992C19.983 17.995 19.983 8.005 19.983 8.005H3.992C4 8.005 4 17.995 4 17.995ZM2 5.995C2 4.892 2.898 4 3.99 4H20.01C21.108 4 22 4.895 22 5.994V18.006C21.9992 18.5339 21.7894 19.04 21.4165 19.4137C21.0436 19.7873 20.5379 19.9981 20.01 20H3.99C3.46185 19.9989 2.9557 19.7884 2.58261 19.4146C2.20953 19.0407 2 18.5342 2 18.006V5.995Z" fill="#42526E"/>
<path d="M8 6V18H10V6H8ZM14 6V18H16V6H14Z" fill="#42526E"/>
<path fill-rule="evenodd" clip-rule="evenodd" d="M4 12H21V14H4V12Z" fill="#42526E"/>
</svg>
