<svg width="24" height="24" viewBox="0 0 24 24" fill="none" xmlns="http://www.w3.org/2000/svg">
<rect width="24" height="24" fill="white" fill-opacity="0.01"/>
<path fill-rule="evenodd" clip-rule="evenodd" d="M3 3.993C3 3.445 3.445 3 3.993 3H20.007C20.555 3 21 3.445 21 3.993V20.007C20.9997 20.2703 20.895 20.5227 20.7089 20.7089C20.5227 20.895 20.2703 20.9997 20.007 21H3.993C3.72972 20.9997 3.4773 20.895 3.29114 20.7089C3.10497 20.5227 3.00026 20.2703 3 20.007V3.993ZM5 5V19H19V5H5Z" fill="#42526E"/>
<path d="M9.707 11.293C9.61475 11.1975 9.50441 11.1213 9.3824 11.0689C9.2604 11.0165 9.12918 10.9889 8.9964 10.9877C8.86362 10.9866 8.73194 11.0119 8.60905 11.0622C8.48615 11.1125 8.3745 11.1867 8.28061 11.2806C8.18671 11.3745 8.11246 11.4861 8.06218 11.609C8.0119 11.7319 7.9866 11.8636 7.98775 11.9964C7.9889 12.1292 8.01649 12.2604 8.0689 12.3824C8.12131 12.5044 8.19749 12.6148 8.293 12.707L10.293 14.707C10.4805 14.8945 10.7348 14.9998 11 14.9998C11.2652 14.9998 11.5195 14.8945 11.707 14.707L15.707 10.707C15.8025 10.6148 15.8787 10.5044 15.9311 10.3824C15.9835 10.2604 16.0111 10.1292 16.0123 9.9964C16.0134 9.86362 15.9881 9.73194 15.9378 9.60905C15.8875 9.48615 15.8133 9.3745 15.7194 9.2806C15.6255 9.18671 15.5139 9.11246 15.391 9.06218C15.2681 9.0119 15.1364 8.98659 15.0036 8.98775C14.8708 8.9889 14.7396 9.01649 14.6176 9.0689C14.4956 9.12131 14.3852 9.19749 14.293 9.293L11 12.586L9.707 11.293Z" fill="#42526E"/>
</svg>
