<svg width="24" height="24" viewBox="0 0 24 24" fill="none" xmlns="http://www.w3.org/2000/svg">
<rect width="24" height="24" fill="white" fill-opacity="0.01"/>
<path fill-rule="evenodd" clip-rule="evenodd" d="M5 5C4.73478 5 4.48043 5.10536 4.29289 5.29289C4.10536 5.48043 4 5.73478 4 6V7H20V6C20 5.73478 19.8946 5.48043 19.7071 5.29289C19.5196 5.10536 19.2652 5 19 5H5ZM16.15 20H7.845C7.60844 19.9999 7.37956 19.916 7.19904 19.7631C7.01851 19.6102 6.89803 19.3983 6.859 19.165L5 8H19L17.136 19.166C17.0969 19.3992 16.9764 19.611 16.7959 19.7637C16.6153 19.9165 16.3865 20.0002 16.15 20ZM9 4.5C8.99998 4.36894 9.05142 4.2431 9.14325 4.14959C9.23508 4.05608 9.35996 4.00236 9.491 4H14.509C14.64 4.00236 14.7649 4.05608 14.8567 4.14959C14.9486 4.2431 15 4.36894 15 4.5V5H9V4.5Z" fill="#42526E"/>
</svg>
