<svg width="24" height="24" viewBox="0 0 24 24" fill="none" xmlns="http://www.w3.org/2000/svg">
<rect width="24" height="24" fill="white" fill-opacity="0.01"/>
<path d="M5 19H19V5H5V19ZM3 4.995C3 3.893 3.893 3 4.995 3H19.005C20.107 3 21 3.893 21 4.995V19.005C21 19.5341 20.7898 20.0415 20.4157 20.4157C20.0415 20.7898 19.5341 21 19.005 21H4.995C4.46589 21 3.95846 20.7898 3.58432 20.4157C3.21019 20.0415 3 19.5341 3 19.005V4.995Z" fill="#42526E"/>
<path fill-rule="evenodd" clip-rule="evenodd" d="M9.17 17H4V18.5C4 18.6974 4.03896 18.8929 4.11466 19.0752C4.19035 19.2575 4.30129 19.4231 4.44111 19.5624C4.58092 19.7018 4.74687 19.8122 4.92944 19.8873C5.112 19.9623 5.3076 20.0007 5.505 20H18.495C19.333 20 20 19.328 20 18.5V17H14.83C14.6234 17.5855 14.2403 18.0926 13.7334 18.4512C13.2265 18.8099 12.6209 19.0025 12 19.0025C11.3791 19.0025 10.7735 18.8099 10.2666 18.4512C9.75974 18.0926 9.3766 17.5855 9.17 17ZM7 12H17V14H7V12ZM7 8H17V10H7V8Z" fill="#42526E"/>
</svg>
