<svg width="24" height="24" viewBox="0 0 24 24" fill="none" xmlns="http://www.w3.org/2000/svg">
<rect width="24" height="24" fill="white" fill-opacity="0.01"/>
<path fill-rule="evenodd" clip-rule="evenodd" d="M5.138 13.026C5.07038 13.1402 5.02667 13.267 5.00952 13.3986C4.99237 13.5302 5.00214 13.664 5.03823 13.7917C5.07433 13.9195 5.136 14.0385 5.2195 14.1417C5.303 14.2449 5.4066 14.3301 5.524 14.392C5.76326 14.5241 6.04413 14.5593 6.30858 14.4902C6.57303 14.4212 6.80086 14.2532 6.945 14.021C8.051 12.167 10.104 11 12.37 11C14.807 11 16.989 12.351 18.018 14.429C18.264 14.927 18.886 15.139 19.406 14.902C19.925 14.664 20.146 14.069 19.899 13.569C18.528 10.802 15.618 9 12.37 9C9.35 9 6.611 10.557 5.138 13.026Z" fill="#42526E"/>
<path fill-rule="evenodd" clip-rule="evenodd" d="M4.5 10V13.9C4.5 14.507 4.994 15 5.602 15H9.498C9.76322 15 10.0176 14.8946 10.2051 14.7071C10.3926 14.5196 10.498 14.2652 10.498 14C10.498 13.7348 10.3926 13.4804 10.2051 13.2929C10.0176 13.1054 9.76322 13 9.498 13H6.503V10C6.503 9.73438 6.39748 9.47965 6.20967 9.29183C6.02185 9.10401 5.76711 8.9985 5.5015 8.9985C5.23589 8.9985 4.98115 9.10401 4.79333 9.29183C4.60551 9.47965 4.5 9.73438 4.5 10Z" fill="#42526E"/>
</svg>
