<svg width="24" height="24" viewBox="0 0 24 24" fill="none" xmlns="http://www.w3.org/2000/svg">
<rect width="24" height="24" fill="white" fill-opacity="0.01"/>
<path fill-rule="evenodd" clip-rule="evenodd" d="M13.721 14.43C13.5394 14.2486 13.2935 14.1464 13.0368 14.1456C12.7802 14.1449 12.5336 14.2457 12.351 14.426L10.263 16.485C10.0834 16.6654 9.86994 16.8085 9.6348 16.906C9.39966 17.0035 9.14755 17.0534 8.893 17.053C8.305 17.053 7.758 16.793 7.368 16.315C6.734 15.538 6.863 14.382 7.571 13.672L8.892 12.35L8.894 12.351L9.582 11.665C9.76453 11.4824 9.86706 11.2347 9.86706 10.9765C9.86706 10.7183 9.76453 10.4706 9.582 10.288L9.58 10.285C9.48974 10.1947 9.38256 10.123 9.2646 10.0742C9.14663 10.0253 9.02019 10.0001 8.8925 10.0001C8.76481 10.0001 8.63837 10.0253 8.52041 10.0742C8.40244 10.123 8.29527 10.1947 8.205 10.285L6.137 12.355C5.40928 13.0846 5.00062 14.073 5.00062 15.1035C5.00062 16.134 5.40928 17.1224 6.137 17.852L6.146 17.862C6.50612 18.2233 6.93412 18.5099 7.40539 18.7052C7.87665 18.9005 8.38187 19.0007 8.892 19C9.4022 19.0005 9.90747 18.9002 10.3787 18.7047C10.85 18.5092 11.278 18.2225 11.638 17.861L13.721 15.776C13.8093 15.6877 13.8794 15.5828 13.9272 15.4675C13.975 15.3521 13.9996 15.2284 13.9996 15.1035C13.9996 14.9786 13.975 14.8549 13.9272 14.7395C13.8794 14.6242 13.8093 14.5193 13.721 14.431V14.43ZM10.279 9.57C10.4606 9.75141 10.7065 9.85364 10.9632 9.85439C11.2198 9.85514 11.4664 9.75435 11.649 9.574L13.737 7.516C14.103 7.149 14.59 6.946 15.107 6.946C15.695 6.946 16.242 7.206 16.632 7.685C17.266 8.462 17.137 9.618 16.429 10.328L15.108 11.65L15.106 11.649L14.418 12.335C14.2355 12.5176 14.1329 12.7653 14.1329 13.0235C14.1329 13.2817 14.2355 13.5294 14.418 13.712L14.42 13.715C14.8 14.095 15.415 14.095 15.795 13.715L17.863 11.645C18.5907 10.9154 18.9994 9.92698 18.9994 8.8965C18.9994 7.86602 18.5907 6.8776 17.863 6.148L17.854 6.138C17.4939 5.77669 17.0659 5.49015 16.5946 5.29484C16.1234 5.09954 15.6181 4.99934 15.108 5C14.5978 4.99947 14.0925 5.09983 13.6213 5.29531C13.15 5.49078 12.722 5.77751 12.362 6.139L10.279 8.224C10.1907 8.31231 10.1206 8.41715 10.0728 8.53254C10.025 8.64793 10.0004 8.7716 10.0004 8.8965C10.0004 9.0214 10.025 9.14507 10.0728 9.26046C10.1206 9.37585 10.1907 9.48069 10.279 9.569V9.57ZM8.924 4.618L9.325 5.586C9.37523 5.70734 9.40107 5.83739 9.40104 5.96871C9.40101 6.10004 9.37512 6.23008 9.32484 6.3514C9.27455 6.47272 9.20087 6.58295 9.10798 6.67579C9.0151 6.76863 8.90484 6.84227 8.7835 6.8925C8.66216 6.94273 8.53211 6.96857 8.40079 6.96854C8.26946 6.96851 8.13942 6.94262 8.0181 6.89233C7.89678 6.84205 7.78656 6.76836 7.69371 6.67548C7.60087 6.5826 7.52723 6.47234 7.477 6.351L7.077 5.383C7.02677 5.26166 7.00093 5.13161 7.00096 5.00028C7.00099 4.86896 7.02688 4.73892 7.07717 4.6176C7.17872 4.37258 7.37344 4.17794 7.6185 4.0765C7.86356 3.97505 8.13888 3.97511 8.3839 4.07666C8.62892 4.17821 8.82356 4.37294 8.925 4.618H8.924ZM5.383 7.076L6.351 7.477C6.58592 7.58534 6.76977 7.78042 6.86401 8.02134C6.95825 8.26226 6.95556 8.53031 6.8565 8.76929C6.75745 9.00827 6.56972 9.19962 6.33267 9.30322C6.09563 9.40682 5.82768 9.41462 5.585 9.325L4.617 8.925C4.38208 8.81666 4.19823 8.62158 4.10399 8.38066C4.00975 8.13974 4.01244 7.87169 4.1115 7.63271C4.21055 7.39373 4.39829 7.20238 4.63533 7.09878C4.87238 6.99518 5.14033 6.98737 5.383 7.077V7.076ZM15.315 17.49C15.0702 17.592 14.8758 17.7867 14.7743 18.0316C14.6727 18.2766 14.6722 18.5517 14.773 18.797L15.175 19.765C15.2252 19.8863 15.2989 19.9966 15.3917 20.0895C15.4846 20.1824 15.5948 20.2561 15.7161 20.3063C15.8374 20.3566 15.9675 20.3825 16.0988 20.3825C16.2301 20.3826 16.3602 20.3567 16.4815 20.3065C16.6028 20.2563 16.7131 20.1826 16.806 20.0898C16.8989 19.9969 16.9726 19.8867 17.0228 19.7654C17.0731 19.6441 17.099 19.514 17.099 19.3827C17.0991 19.2514 17.0732 19.1213 17.023 19L16.622 18.033C16.5718 17.9116 16.4982 17.8012 16.4053 17.7082C16.3125 17.6152 16.2022 17.5415 16.0808 17.4911C15.9594 17.4408 15.8293 17.4149 15.6979 17.4148C15.5665 17.4148 15.4364 17.4407 15.315 17.491V17.49ZM17.491 15.316C17.3896 15.5608 17.3895 15.8359 17.4908 16.0807C17.592 16.3256 17.7863 16.5203 18.031 16.622L19 17.023C19.2427 17.1126 19.5106 17.1048 19.7477 17.0012C19.9847 16.8976 20.1724 16.7063 20.2715 16.4673C20.3706 16.2283 20.3733 15.9603 20.279 15.7193C20.1848 15.4784 20.0009 15.2833 19.766 15.175L18.797 14.775C18.5519 14.6737 18.2767 14.6739 18.0318 14.7756C17.7869 14.8772 17.5923 15.072 17.491 15.317V15.316Z" fill="#42526E"/>
</svg>
