<svg width="24" height="24" viewBox="0 0 24 24" fill="none" xmlns="http://www.w3.org/2000/svg">
<rect width="24" height="24" fill="white" fill-opacity="0.01"/>
<path fill-rule="evenodd" clip-rule="evenodd" d="M22 12C22 17.5228 17.5228 22 12 22C6.47715 22 2 17.5228 2 12C2 6.47715 6.47715 2 12 2C17.5228 2 22 6.47715 22 12ZM11 9.99V12H14C14.2652 12 14.5196 12.1054 14.7071 12.2929C14.8946 12.4804 15 12.7348 15 13V15.001C15 15.557 14.556 16 14.01 16H9.99C9.72669 15.9974 9.47505 15.891 9.2897 15.7039C9.10435 15.5169 9.00025 15.2643 9 15.001V13C9 12.7348 9.10536 12.4804 9.29289 12.2929C9.48043 12.1054 9.73478 12 10 12V9.98C10 9.45487 10.2086 8.95125 10.5799 8.57993C10.9513 8.20861 11.4549 8 11.98 8H12.02C12.5451 8 13.0487 8.20861 13.4201 8.57993C13.7914 8.95125 14 9.45487 14 9.98V10.5C14 10.7761 13.7761 11 13.5 11C13.2239 11 13 10.7761 13 10.5V9.99C13 9.72744 12.8957 9.47563 12.71 9.28996C12.5244 9.1043 12.2726 9 12.01 9H11.99C11.7274 9 11.4756 9.1043 11.29 9.28996C11.1043 9.47563 11 9.72744 11 9.99Z" fill="#42526E"/>
</svg>
