<svg width="24" height="24" viewBox="0 0 24 24" fill="none" xmlns="http://www.w3.org/2000/svg">
<rect width="24" height="24" fill="white" fill-opacity="0.01"/>
<path d="M9 15.003V17.998C9 18.2632 9.10536 18.5176 9.29289 18.7051C9.48043 18.8926 9.73478 18.998 10 18.998C10.2652 18.998 10.5196 18.8926 10.7071 18.7051C10.8946 18.5176 11 18.2632 11 17.998V14.102C11 13.494 10.507 13 9.9 13H6C5.73438 13 5.47965 13.1055 5.29183 13.2933C5.10401 13.4812 4.9985 13.7359 4.9985 14.0015C4.9985 14.2671 5.10401 14.5219 5.29183 14.7097C5.47965 14.8975 5.73438 15.003 6 15.003H9Z" fill="#42526E"/>
<path d="M3.74 20.294C3.92619 20.4807 4.17877 20.5861 4.44247 20.587C4.70616 20.588 4.95949 20.4844 5.147 20.299L10.299 15.147C10.4837 14.9591 10.5867 14.7059 10.5858 14.4425C10.5849 14.179 10.48 13.9266 10.294 13.74L10.26 13.706C10.0738 13.5193 9.82122 13.4139 9.55753 13.413C9.29384 13.412 9.04051 13.5156 8.853 13.701L3.701 18.853C3.51632 19.0409 3.41325 19.2941 3.41419 19.5575C3.41513 19.821 3.51999 20.0734 3.706 20.26L3.74 20.294Z" fill="#42526E"/>
<path fill-rule="evenodd" clip-rule="evenodd" d="M19.067 3.321L13.32 9.066C13.1136 9.27548 12.9984 9.55799 12.9993 9.85203C13.0003 10.1461 13.1173 10.4278 13.325 10.636L13.361 10.673C13.5688 10.8817 13.8509 10.9995 14.1455 11.0004C14.44 11.0013 14.7229 10.8854 14.932 10.678L20.679 4.934C20.885 4.72427 20.9999 4.44173 20.9988 4.14777C20.9976 3.8538 20.8806 3.57216 20.673 3.364L20.636 3.327C20.4277 3.11967 20.1461 3.00277 19.8522 3.00164C19.5583 3.00052 19.2769 3.11526 19.067 3.321Z" fill="#42526E"/>
<path fill-rule="evenodd" clip-rule="evenodd" d="M13 6.002V9.898C13 10.506 13.493 11 14.1 11H18C18.2656 11 18.5203 10.8945 18.7082 10.7067C18.896 10.5189 19.0015 10.2641 19.0015 9.9985C19.0015 9.73289 18.896 9.47815 18.7082 9.29033C18.5203 9.10252 18.2656 8.997 18 8.997H15V6.002C15 5.73678 14.8946 5.48243 14.7071 5.29489C14.5196 5.10736 14.2652 5.002 14 5.002C13.7348 5.002 13.4804 5.10736 13.2929 5.29489C13.1054 5.48243 13 5.73678 13 6.002Z" fill="#42526E"/>
</svg>
