<svg width="24" height="24" viewBox="0 0 24 24" fill="none" xmlns="http://www.w3.org/2000/svg">
<rect width="24" height="24" fill="white" fill-opacity="0.01"/>
<path fill-rule="evenodd" clip-rule="evenodd" d="M5.467 14.95L8.078 14.294C8.078 14.294 8.718 14.057 8.73 13.316L8.72 12.104C8.72 12.104 8.758 11.633 9.357 11.547C11.125 11.22 12.775 11.207 14.539 11.547C15.228 11.678 15.175 12.104 15.175 12.104L15.182 12.993C15.195 13.733 15.834 13.97 15.834 13.97L18.427 14.952C19.654 15.322 20.295 13.479 19.867 12.378C18.876 9.821 15.871 9.384 13.586 9.084C12.501 8.941 11.295 9.007 10.312 9.084C8.592 9.221 5.142 9.797 4.147 12.354C3.72 13.454 4.24 15.32 5.467 14.95Z" fill="#42526E"/>
</svg>
