<svg width="24" height="24" viewBox="0 0 24 24" fill="none" xmlns="http://www.w3.org/2000/svg">
<rect width="24" height="24" fill="white" fill-opacity="0.01"/>
<path fill-rule="evenodd" clip-rule="evenodd" d="M5.586 7L3.706 5.12C3.61291 5.02737 3.53906 4.91724 3.4887 4.79595C3.43834 4.67467 3.41246 4.54462 3.41255 4.41329C3.41264 4.28197 3.43871 4.15195 3.48924 4.03074C3.53977 3.90953 3.61378 3.7995 3.707 3.707C3.79944 3.61371 3.90941 3.53963 4.03059 3.48901C4.15176 3.43839 4.28176 3.41224 4.41308 3.41205C4.54441 3.41186 4.67448 3.43765 4.7958 3.48793C4.91712 3.5382 5.0273 3.61198 5.12 3.705L20.123 18.71C20.2159 18.8027 20.2895 18.9128 20.3397 19.034C20.3899 19.1553 20.4156 19.2852 20.4154 19.4164C20.4153 19.5476 20.3892 19.6775 20.3386 19.7986C20.2881 19.9197 20.2141 20.0296 20.121 20.122C20.0286 20.2151 19.9187 20.2891 19.7976 20.3396C19.6765 20.3902 19.5466 20.4163 19.4154 20.4164C19.2842 20.4166 19.1543 20.3909 19.033 20.3407C18.9118 20.2905 18.8017 20.2169 18.709 20.124L15.254 16.67C14.944 16.878 14.561 17.001 14.144 17.001H4.856C3.83 17 3 16.253 3 15.331V8.67C3 7.747 3.83 7 4.856 7H5.586ZM20.209 15.994L17.065 12.85V9.5L19.678 8.089C19.815 8.028 19.958 8 20.099 8C20.571 8 21 8.316 21 8.753V15.247C21 15.65 20.635 15.95 20.209 15.994ZM11.214 7H14.144C15.17 7 16 7.747 16 8.669V11.786L11.214 7Z" fill="#42526E"/>
</svg>
