<svg width="24" height="24" viewBox="0 0 24 24" fill="none" xmlns="http://www.w3.org/2000/svg">
<rect width="24" height="24" fill="white" fill-opacity="0.01"/>
<path fill-rule="evenodd" clip-rule="evenodd" d="M22 12C22 17.5228 17.5228 22 12 22C6.47715 22 2 17.5228 2 12C2 6.47715 6.47715 2 12 2C17.5228 2 22 6.47715 22 12ZM16 9C16 8.44772 15.5523 8 15 8C14.4477 8 14 8.44772 14 9V15C14 15.5523 14.4477 16 15 16C15.5523 16 16 15.5523 16 15V9ZM13 11C13 10.4477 12.5523 10 12 10C11.4477 10 11 10.4477 11 11V15C11 15.5523 11.4477 16 12 16C12.5523 16 13 15.5523 13 15V11ZM9 13C9.55228 13 10 13.4477 10 14V15C10 15.5523 9.55228 16 9 16C8.44772 16 8 15.5523 8 15V14C8 13.4477 8.44772 13 9 13Z" fill="#42526E"/>
</svg>
