<svg width="24" height="24" viewBox="0 0 24 24" fill="none" xmlns="http://www.w3.org/2000/svg">
<rect width="24" height="24" fill="white" fill-opacity="0.01"/>
<path fill-rule="evenodd" clip-rule="evenodd" d="M14 16.001V20.051C13.9999 20.1445 13.9736 20.236 13.9242 20.3153C13.8747 20.3946 13.804 20.4584 13.72 20.4996C13.6361 20.5407 13.5423 20.5575 13.4494 20.548C13.3564 20.5385 13.2679 20.5032 13.194 20.446L8.232 16.612H3.999C3.447 16.612 3 16.159 3 15.615V9.609C3 9.059 3.441 8.612 3.999 8.612H6.61L3.705 5.707C3.61198 5.6143 3.5382 5.50412 3.48793 5.3828C3.43765 5.26148 3.41186 5.13141 3.41205 5.00008C3.41224 4.86876 3.43839 4.73876 3.48901 4.61759C3.53963 4.49641 3.61371 4.38644 3.707 4.294C3.7995 4.20078 3.90953 4.12677 4.03074 4.07624C4.15195 4.02571 4.28197 3.99964 4.41329 3.99955C4.54462 3.99946 4.67467 4.02534 4.79595 4.0757C4.91724 4.12606 5.02737 4.19991 5.12 4.293L20.123 19.296C20.216 19.3887 20.2898 19.4989 20.3401 19.6202C20.3903 19.7415 20.4161 19.8716 20.416 20.0029C20.4158 20.1342 20.3896 20.2642 20.339 20.3854C20.2884 20.5066 20.2143 20.6166 20.121 20.709C20.0285 20.8021 19.9186 20.8759 19.7974 20.9264C19.6763 20.9768 19.5464 21.0029 19.4152 21.0029C19.284 21.003 19.1541 20.9772 19.0329 20.9269C18.9117 20.8767 18.8016 20.8029 18.709 20.71L14 16.001ZM19.829 16.496L18.717 15.384C19.239 14.581 19.493 13.646 19.493 12.568C19.493 10.492 18.551 8.967 16.576 7.896C16.204 7.694 16.054 7.206 16.241 6.806C16.428 6.406 16.881 6.245 17.253 6.446C19.72 7.784 21 9.856 21 12.568C21 14.075 20.604 15.39 19.829 16.496ZM17.549 14.216L16.396 13.064C16.441 12.912 16.462 12.749 16.462 12.57C16.462 11.933 16.188 11.488 15.547 11.141C15.175 10.94 15.025 10.452 15.212 10.051C15.4 9.651 15.852 9.491 16.224 9.691C17.357 10.305 17.969 11.297 17.969 12.571C17.969 13.187 17.825 13.739 17.549 14.216ZM14 10.669L10.276 6.946L13.194 4.692C13.2679 4.6348 13.3564 4.59947 13.4494 4.59C13.5423 4.58053 13.6361 4.59732 13.72 4.63845C13.804 4.67958 13.8747 4.7434 13.9242 4.82269C13.9736 4.90197 13.9999 4.99354 14 5.087V10.669Z" fill="#42526E"/>
</svg>
