<svg width="24" height="24" viewBox="0 0 24 24" fill="none" xmlns="http://www.w3.org/2000/svg">
<rect width="24" height="24" fill="white" fill-opacity="0.01"/>
<path fill-rule="evenodd" clip-rule="evenodd" d="M12 22C6.477 22 2 17.523 2 12C2 6.477 6.477 2 12 2C17.523 2 22 6.477 22 12C22 17.523 17.523 22 12 22ZM12.467 7.982C12.353 7.812 12.269 7.7 12.229 7.652C12.1437 7.5484 12.0801 7.42869 12.042 7.3C12.0039 7.17131 11.9921 7.03626 12.0073 6.90292C12.0226 6.76958 12.0644 6.64066 12.1305 6.52384C12.1966 6.40703 12.2855 6.30472 12.392 6.223C12.6093 6.0544 12.8835 5.97665 13.1569 6.00612C13.4303 6.03559 13.6817 6.16997 13.858 6.381C14.14 6.725 14.536 7.313 14.928 8.101C16.363 10.985 16.501 14.095 14.456 17.002C14.3062 17.2151 14.1477 17.4219 13.981 17.622C13.8038 17.8324 13.5518 17.9658 13.2782 17.9942C13.0046 18.0225 12.7306 17.9436 12.514 17.774C12.4079 17.6918 12.3195 17.589 12.2539 17.4718C12.1884 17.3547 12.1471 17.2255 12.1326 17.0921C12.118 16.9587 12.1305 16.8236 12.1692 16.6951C12.2079 16.5666 12.2721 16.4472 12.358 16.344C12.4901 16.185 12.6159 16.0209 12.735 15.852C14.294 13.636 14.189 11.276 13.051 8.988C12.865 8.613 12.665 8.276 12.467 7.982ZM9.59001 10.277C9.43901 9.949 9.29301 9.72 9.21301 9.619C8.87301 9.185 8.94801 8.556 9.37901 8.215C9.48152 8.13367 9.59911 8.07342 9.725 8.03772C9.8509 8.00203 9.98261 7.9916 10.1126 8.00703C10.2425 8.02246 10.3681 8.06344 10.4821 8.12763C10.5962 8.19181 10.6964 8.27792 10.777 8.381C11.022 8.70853 11.2296 9.06239 11.396 9.436C12.281 11.356 12.281 13.509 10.805 15.582C10.7293 15.6888 10.6332 15.7795 10.5222 15.8489C10.4113 15.9184 10.2877 15.9652 10.1586 15.9867C10.0295 16.0082 9.8974 16.0039 9.76995 15.9741C9.6425 15.9442 9.52221 15.8895 9.41601 15.813C8.96901 15.492 8.86601 14.868 9.18601 14.418C10.198 12.997 10.198 11.595 9.59001 10.277Z" fill="#42526E"/>
</svg>
