<svg width="24" height="24" viewBox="0 0 24 24" fill="none" xmlns="http://www.w3.org/2000/svg">
<rect width="24" height="24" fill="white" fill-opacity="0.01"/>
<path fill-rule="evenodd" clip-rule="evenodd" d="M6 4H8C8.26522 4 8.51957 4.10536 8.70711 4.29289C8.89464 4.48043 9 4.73478 9 5V19C9 19.2652 8.89464 19.5196 8.70711 19.7071C8.51957 19.8946 8.26522 20 8 20H6C5.73478 20 5.48043 19.8946 5.29289 19.7071C5.10536 19.5196 5 19.2652 5 19V5C5 4.73478 5.10536 4.48043 5.29289 4.29289C5.48043 4.10536 5.73478 4 6 4ZM16 4H18C18.2652 4 18.5196 4.10536 18.7071 4.29289C18.8946 4.48043 19 4.73478 19 5V19C19 19.2652 18.8946 19.5196 18.7071 19.7071C18.5196 19.8946 18.2652 20 18 20H16C15.7348 20 15.4804 19.8946 15.2929 19.7071C15.1054 19.5196 15 19.2652 15 19V5C15 4.73478 15.1054 4.48043 15.2929 4.29289C15.4804 4.10536 15.7348 4 16 4Z" fill="#42526E"/>
</svg>
