<svg width="24" height="24" viewBox="0 0 24 24" fill="none" xmlns="http://www.w3.org/2000/svg">
<rect width="24" height="24" fill="white" fill-opacity="0.01"/>
<path fill-rule="evenodd" clip-rule="evenodd" d="M8.121 8.024L13.194 4.104C13.268 4.04675 13.3565 4.0114 13.4496 4.00197C13.5427 3.99255 13.6365 4.00942 13.7205 4.05067C13.8044 4.09192 13.8751 4.15589 13.9246 4.23532C13.974 4.31476 14.0001 4.40645 14 4.5V19.464C13.9999 19.5575 13.9736 19.649 13.9242 19.7283C13.8747 19.8076 13.804 19.8714 13.72 19.9126C13.6361 19.9537 13.5423 19.9705 13.4494 19.961C13.3564 19.9515 13.2679 19.9162 13.194 19.859L8.232 16.024H3.999C3.447 16.024 3 15.571 3 15.027V9.022C3 8.471 3.441 8.024 3.999 8.024H6.605L6.641 8.025H8.121V8.024ZM15.547 10.554C15.175 10.352 15.025 9.864 15.212 9.464C15.4 9.064 15.852 8.903 16.224 9.104C17.357 9.718 17.969 10.71 17.969 11.984C17.969 13.254 17.359 14.249 16.231 14.877C15.861 15.083 15.407 14.927 15.216 14.528C15.026 14.13 15.17 13.641 15.54 13.435C16.185 13.077 16.462 12.623 16.462 11.983C16.462 11.346 16.188 10.901 15.547 10.553V10.554Z" fill="#42526E"/>
</svg>
