<svg width="24" height="24" viewBox="0 0 24 24" fill="none" xmlns="http://www.w3.org/2000/svg">
<rect width="24" height="24" fill="white" fill-opacity="0.01"/>
<path d="M15 6C15 4.34315 13.6569 3 12 3C10.3431 3 9 4.34315 9 6V12C9 13.6569 10.3431 15 12 15C13.6569 15 15 13.6569 15 12V6Z" fill="#42526E"/>
<path d="M13 17.917C15.833 17.441 18 14.976 18 12.007V9C18 8.73478 17.8946 8.48043 17.7071 8.29289C17.5196 8.10536 17.2652 8 17 8C16.7348 8 16.4804 8.10536 16.2929 8.29289C16.1054 8.48043 16 8.73478 16 9V12.006C15.9981 13.0657 15.5759 14.0815 14.826 14.8303C14.0761 15.579 13.0597 15.9997 12 16C9.795 16 8 14.205 8 12.006V9C8 8.73478 7.89464 8.48043 7.70711 8.29289C7.51957 8.10536 7.26522 8 7 8C6.73478 8 6.48043 8.10536 6.29289 8.29289C6.10536 8.48043 6 8.73478 6 9V12.006C6 14.966 8.162 17.439 11 17.916V19.991C11 20.2562 11.1054 20.5106 11.2929 20.6981C11.4804 20.8856 11.7348 20.991 12 20.991C12.2652 20.991 12.5196 20.8856 12.7071 20.6981C12.8946 20.5106 13 20.2562 13 19.991V17.917Z" fill="#42526E"/>
</svg>
