<svg width="24" height="24" viewBox="0 0 24 24" fill="none" xmlns="http://www.w3.org/2000/svg">
<rect width="24" height="24" fill="white" fill-opacity="0.01"/>
<path d="M13 4H4.995C3.893 4 3 4.9 3 6.009V13.991C3 15.098 3.893 16 4.995 16H19.005C20.107 16 21 15.1 21 13.991V7.5V11H19V14H5V6H13V4Z" fill="#42526E"/>
<path fill-rule="evenodd" clip-rule="evenodd" d="M10 17H14V20H10V17Z" fill="#42526E"/>
<path fill-rule="evenodd" clip-rule="evenodd" d="M9 20C8.99999 19.7365 9.10397 19.4837 9.28935 19.2964C9.47473 19.1092 9.72652 19.0026 9.99 19H14.01C14.556 19 15 19.444 15 20V21H9V20Z" fill="#42526E"/>
<path d="M19 5V8C19 8.26522 19.1054 8.51957 19.2929 8.70711C19.4804 8.89464 19.7348 9 20 9C20.2652 9 20.5196 8.89464 20.7071 8.70711C20.8946 8.51957 21 8.26522 21 8V4C21 3.73478 20.8946 3.48043 20.7071 3.29289C20.5196 3.10536 20.2652 3 20 3H16C15.7348 3 15.4804 3.10536 15.2929 3.29289C15.1054 3.48043 15 3.73478 15 4C15 4.26522 15.1054 4.51957 15.2929 4.70711C15.4804 4.89464 15.7348 5 16 5H19Z" fill="#42526E"/>
<path d="M19 3.586L12.293 10.293C12.1108 10.4816 12.01 10.7342 12.0123 10.9964C12.0146 11.2586 12.1198 11.5094 12.3052 11.6948C12.4906 11.8802 12.7414 11.9854 13.0036 11.9877C13.2658 11.99 13.5184 11.8892 13.707 11.707L20.414 5H19V3.586Z" fill="#42526E"/>
</svg>
