<svg width="24" height="24" viewBox="0 0 24 24" fill="none" xmlns="http://www.w3.org/2000/svg">
<rect width="24" height="24" fill="white" fill-opacity="0.01"/>
<path fill-rule="evenodd" clip-rule="evenodd" d="M19.678 8.089C19.815 8.028 19.958 8 20.099 8C20.571 8 21 8.316 21 8.753V15.247C21 15.684 20.57 16 20.1 16C19.959 16 19.814 15.972 19.676 15.91L17.065 14.494V9.499L19.678 8.089ZM4.856 7H14.144C15.17 7 16 7.747 16 8.669V15.331C16 16.253 15.17 17 14.144 17H4.856C3.83 17 3 16.253 3 15.331V8.67C3 7.747 3.83 7 4.856 7Z" fill="#42526E"/>
</svg>
