<svg width="24" height="24" viewBox="0 0 24 24" fill="none" xmlns="http://www.w3.org/2000/svg">
<rect width="24" height="24" fill="white" fill-opacity="0.01"/>
<path d="M13.293 14.707C12.836 14.9259 12.3309 15.0254 11.8251 14.9961C11.3192 14.9669 10.829 14.8099 10.4002 14.5399C9.97143 14.2698 9.61812 13.8955 9.37326 13.4518C9.12839 13.0082 8.99997 12.5097 8.99999 12.003V10.414L7.99999 9.414V12.006C8.00264 13.0655 8.42511 14.0808 9.17485 14.8294C9.9246 15.578 10.9405 15.9989 12 16C12.7144 16.001 13.416 15.8096 14.031 15.446L13.293 14.707ZM15.476 16.89C14.7391 17.4155 13.8925 17.7666 13 17.917V19.991C13 20.2562 12.8946 20.5106 12.7071 20.6981C12.5196 20.8856 12.2652 20.991 12 20.991C11.7348 20.991 11.4804 20.8856 11.2929 20.6981C11.1054 20.5106 11 20.2562 11 19.991V17.917C8.16199 17.439 5.99999 14.966 5.99999 12.007V9C5.99994 8.79619 6.06217 8.59723 6.17834 8.42976C6.29451 8.2623 6.45907 8.13433 6.64999 8.063L3.70399 5.12C3.61097 5.0273 3.5372 4.91712 3.48692 4.7958C3.43664 4.67448 3.41086 4.54441 3.41104 4.41308C3.41123 4.28176 3.43738 4.15176 3.488 4.03059C3.53862 3.90941 3.61271 3.79944 3.70599 3.707C3.79843 3.61371 3.9084 3.53963 4.02958 3.48901C4.15076 3.43839 4.28075 3.41224 4.41208 3.41205C4.5434 3.41186 4.67347 3.43765 4.79479 3.48793C4.91611 3.5382 5.02629 3.61198 5.11899 3.705L20.123 18.71C20.2159 18.8027 20.2895 18.9128 20.3397 19.034C20.3899 19.1553 20.4156 19.2852 20.4154 19.4164C20.4153 19.5476 20.3891 19.6775 20.3386 19.7986C20.2881 19.9197 20.2141 20.0296 20.121 20.122C20.0286 20.2151 19.9187 20.2891 19.7976 20.3396C19.6765 20.3902 19.5466 20.4163 19.4154 20.4164C19.2842 20.4166 19.1543 20.3909 19.033 20.3407C18.9118 20.2905 18.8017 20.2169 18.709 20.124L15.476 16.891V16.89ZM9.18599 4.958C9.39936 4.38359 9.78328 3.88816 10.2863 3.53818C10.7892 3.1882 11.3872 3.00041 12 3C13.657 3 15 4.342 15 5.997V10.772L9.18599 4.958ZM17.794 13.566L16 11.772V9C16 8.73478 16.1053 8.48043 16.2929 8.29289C16.4804 8.10536 16.7348 8 17 8C17.2652 8 17.5196 8.10536 17.7071 8.29289C17.8946 8.48043 18 8.73478 18 9V12.006C18 12.546 17.928 13.069 17.794 13.566Z" fill="#42526E"/>
</svg>
