<svg width="24" height="24" viewBox="0 0 24 24" fill="none" xmlns="http://www.w3.org/2000/svg">
<rect width="24" height="24" fill="white" fill-opacity="0.01"/>
<path fill-rule="evenodd" clip-rule="evenodd" d="M11 3C9.93913 3 8.92172 3.42143 8.17157 4.17157C7.42143 4.92172 7 5.93913 7 7C7 8.06087 7.42143 9.07828 8.17157 9.82843C8.92172 10.5786 9.93913 11 11 11C12.0609 11 13.0783 10.5786 13.8284 9.82843C14.5786 9.07828 15 8.06087 15 7C15 5.93913 14.5786 4.92172 13.8284 4.17157C13.0783 3.42143 12.0609 3 11 3ZM14 12H8C7.20435 12 6.44129 12.3161 5.87868 12.8787C5.31607 13.4413 5 14.2044 5 15V18.7C6.62647 20.1506 8.72088 20.9671 10.9 21C13.1627 20.9953 15.3407 20.1384 17 18.6V15C17 14.2044 16.6839 13.4413 16.1213 12.8787C15.5587 12.3161 14.7956 12 14 12Z" fill="#42526E"/>
<path d="M16.6 10.6C16.521 10.705 16.4634 10.8245 16.4307 10.9517C16.3979 11.079 16.3906 11.2115 16.4092 11.3415C16.4278 11.4716 16.4719 11.5967 16.539 11.7097C16.606 11.8227 16.6947 11.9214 16.8 12C17.0131 12.1581 17.2802 12.2256 17.5428 12.1875C17.8055 12.1495 18.0425 12.0091 18.202 11.797L20.198 9.136C20.531 8.693 20.8 7.886 20.8 7.328V5.005C20.8007 4.87326 20.7753 4.74268 20.7253 4.62078C20.6754 4.49888 20.6018 4.38805 20.5089 4.29466C20.416 4.20127 20.3055 4.12716 20.1838 4.0766C20.0622 4.02603 19.9317 4 19.8 4C19.248 4 18.8 4.45 18.8 5.002V7.667L16.6 10.599V10.6Z" fill="#42526E"/>
</svg>
