<svg width="24" height="24" viewBox="0 0 24 24" fill="none" xmlns="http://www.w3.org/2000/svg">
<rect width="24" height="24" fill="white" fill-opacity="0.01"/>
<path fill-rule="evenodd" clip-rule="evenodd" d="M22 12C22 17.5228 17.5228 22 12 22C6.47715 22 2 17.5228 2 12C2 6.47715 6.47715 2 12 2C17.5228 2 22 6.47715 22 12ZM15 13.807L17.37 14.954C17.655 15.092 18 14.904 18 14.611V9.38901C18 9.09601 17.655 8.90801 17.37 9.046L15 10.194V13.807ZM7 9H13C13.5523 9 14 9.44772 14 10V14C14 14.5523 13.5523 15 13 15H7C6.44772 15 6 14.5523 6 14V10C6 9.44772 6.44772 9 7 9Z" fill="#42526E"/>
</svg>
