<svg width="24" height="24" viewBox="0 0 24 24" fill="none" xmlns="http://www.w3.org/2000/svg">
<rect width="24" height="24" fill="white" fill-opacity="0.01"/>
<path fill-rule="evenodd" clip-rule="evenodd" d="M11.983 15.984C10.9222 15.9832 9.90503 15.5616 9.15474 14.8117C8.40445 14.0618 7.98232 13.0448 7.981 11.984C7.981 9.778 9.776 7.984 11.983 7.984C13.0438 7.98479 14.061 8.40641 14.8113 9.15633C15.5615 9.90624 15.9837 10.9232 15.985 11.984C15.985 14.19 14.19 15.984 11.983 15.984ZM12 4C6.48 4 2 8.84 2 12C2 15.086 6.577 20 12 20C17.423 20 22 15.086 22 12C22 8.84 17.519 4 12 4Z" fill="#42526E"/>
<path d="M12 14C13.1046 14 14 13.1046 14 12C14 10.8954 13.1046 10 12 10C10.8954 10 10 10.8954 10 12C10 13.1046 10.8954 14 12 14Z" fill="#42526E"/>
</svg>
