<svg width="24" height="24" viewBox="0 0 24 24" fill="none" xmlns="http://www.w3.org/2000/svg">
<rect width="24" height="24" fill="white" fill-opacity="0.01"/>
<path fill-rule="evenodd" clip-rule="evenodd" d="M12 18C13.5913 18 15.1174 17.3679 16.2426 16.2426C17.3679 15.1174 18 13.5913 18 12C18 10.4087 17.3679 8.88258 16.2426 7.75736C15.1174 6.63214 13.5913 6 12 6C10.4087 6 8.88258 6.63214 7.75736 7.75736C6.63214 8.88258 6 10.4087 6 12C6 13.5913 6.63214 15.1174 7.75736 16.2426C8.88258 17.3679 10.4087 18 12 18ZM11.5 15.965C10.5335 15.8445 9.64428 15.375 8.9997 14.6448C8.35512 13.9146 7.99959 12.974 8 12C8 11.69 8.04 11.395 8.105 11.105L10.5 13.5V14C10.5 14.55 10.95 15 11.5 15V15.965ZM14.95 14.695C14.8866 14.4929 14.7602 14.3164 14.5892 14.1914C14.4183 14.0663 14.2118 13.9993 14 14H13.5V12.5C13.5 12.225 13.275 12 13 12H10V11H11C11.275 11 11.5 10.775 11.5 10.5V9.5H12.5C13.05 9.5 13.5 9.05 13.5 8.5V8.295C14.238 8.59382 14.8701 9.10598 15.3154 9.76598C15.7608 10.426 15.9991 11.2038 16 12C16 13.04 15.6 13.985 14.95 14.695Z" fill="#42526E"/>
</svg>
