<svg width="24" height="24" viewBox="0 0 24 24" fill="none" xmlns="http://www.w3.org/2000/svg">
<rect width="24" height="24" fill="white" fill-opacity="0.01"/>
<path fill-rule="evenodd" clip-rule="evenodd" d="M12 21C13.1819 21 14.3522 20.7672 15.4442 20.3149C16.5361 19.8626 17.5282 19.1997 18.364 18.364C19.1997 17.5282 19.8626 16.5361 20.3149 15.4442C20.7672 14.3522 21 13.1819 21 12C21 10.8181 20.7672 9.64778 20.3149 8.55585C19.8626 7.46392 19.1997 6.47177 18.364 5.63604C17.5282 4.80031 16.5361 4.13738 15.4442 3.68508C14.3522 3.23279 13.1819 3 12 3C9.61305 3 7.32387 3.94821 5.63604 5.63604C3.94821 7.32387 3 9.61305 3 12C3 14.3869 3.94821 16.6761 5.63604 18.364C7.32387 20.0518 9.61305 21 12 21ZM11.1 19.137C9.36032 18.92 7.75986 18.0748 6.59966 16.7605C5.43945 15.4461 4.79944 13.7532 4.8 12C4.8 11.442 4.872 10.911 4.989 10.389L9.3 14.7V15.6C9.3 16.59 10.11 17.4 11.1 17.4V19.137ZM17.31 16.851C17.1958 16.4873 16.9682 16.1696 16.6605 15.9445C16.3529 15.7195 15.9812 15.5987 15.6 15.6H14.7V12.9C14.7 12.405 14.295 12 13.8 12H8.4V10.2H10.2C10.695 10.2 11.1 9.795 11.1 9.3V7.5H12.9C13.89 7.5 14.7 6.69 14.7 5.7V5.331C17.337 6.402 19.2 8.985 19.2 12C19.2 13.872 18.48 15.573 17.31 16.851Z" fill="#42526E"/>
</svg>
