<svg width="48" height="64" viewBox="0 0 48 64" fill="none" xmlns="http://www.w3.org/2000/svg">
<rect width="48" height="64" fill="white" fill-opacity="0.01"/>
<path fill-rule="evenodd" clip-rule="evenodd" d="M4 0.5H32.007C32.4775 0.500118 32.9432 0.595111 33.3762 0.779302C33.8092 0.963492 34.2006 1.2331 34.527 1.572L46.521 14.022C47.1494 14.6745 47.5003 15.5452 47.5 16.451V60C47.5 60.9283 47.1312 61.8185 46.4749 62.4749C45.8185 63.1312 44.9283 63.5 44 63.5H4C3.07174 63.5 2.1815 63.1312 1.52513 62.4749C0.868749 61.8185 0.5 60.9283 0.5 60V4C0.5 3.07174 0.868749 2.1815 1.52513 1.52513C2.1815 0.868749 3.07174 0.5 4 0.5Z" fill="white" stroke="#091E42" stroke-opacity="0.08"/>
<path fill-rule="evenodd" clip-rule="evenodd" d="M32.167 25.785V35.733C32.167 36.5995 31.8228 37.4304 31.2101 38.0431C30.5974 38.6558 29.7665 39 28.9 39H28.433C27.5667 38.9997 26.736 38.6554 26.1235 38.0428C25.5111 37.4301 25.167 36.5993 25.167 35.733V35.267C25.167 34.4007 25.5111 33.5699 26.1235 32.9572C26.736 32.3446 27.5667 32.0003 28.433 32H28.9C29.224 32 29.538 32.047 29.833 32.135V27.615L22.833 28.341V36.9C22.833 37.7663 22.4889 38.5971 21.8765 39.2098C21.264 39.8224 20.4333 40.1667 19.567 40.167H19.1C18.2335 40.167 17.4026 39.8228 16.7899 39.2101C16.1772 38.5974 15.833 37.7665 15.833 36.9V36.433C15.8333 35.5667 16.1776 34.736 16.7902 34.1235C17.4029 33.5111 18.2337 33.167 19.1 33.167H19.567C19.891 33.167 20.204 33.214 20.5 33.302V25.763C20.5 25.319 20.862 24.921 21.339 24.873L31.328 23.838C31.791 23.79 32.167 24.112 32.167 24.555V25.785Z" fill="#FF5630"/>
</svg>
