<svg width="48" height="64" viewBox="0 0 48 64" fill="none" xmlns="http://www.w3.org/2000/svg">
<rect width="48" height="64" fill="white" fill-opacity="0.01"/>
<path fill-rule="evenodd" clip-rule="evenodd" d="M4 0.5H32.007C32.4775 0.500118 32.9432 0.595111 33.3762 0.779302C33.8092 0.963492 34.2006 1.2331 34.527 1.572L46.521 14.022C47.1494 14.6745 47.5003 15.5452 47.5 16.451V60C47.5 60.9283 47.1312 61.8185 46.4749 62.4749C45.8185 63.1312 44.9283 63.5 44 63.5H4C3.07174 63.5 2.1815 63.1312 1.52513 62.4749C0.868749 61.8185 0.5 60.9283 0.5 60V4C0.5 3.07174 0.868749 2.1815 1.52513 1.52513C2.1815 0.868749 3.07174 0.5 4 0.5Z" fill="white" stroke="#091E42" stroke-opacity="0.08"/>
<path fill-rule="evenodd" clip-rule="evenodd" d="M14.667 39C14.667 38.356 15.198 37.833 15.828 37.833H25.172C25.813 37.833 26.333 38.351 26.333 39C26.333 39.644 25.802 40.167 25.172 40.167H15.828C15.675 40.167 15.5236 40.1368 15.3823 40.0781C15.2411 40.0193 15.1128 39.9333 15.0049 39.8248C14.897 39.7164 14.8116 39.5877 14.7536 39.4461C14.6957 39.3046 14.6662 39.153 14.667 39ZM14.667 34.333C14.667 33.689 15.185 33.167 15.834 33.167H32.166C32.811 33.167 33.333 33.685 33.333 34.333C33.333 34.978 32.815 35.5 32.166 35.5H15.834C15.6806 35.5004 15.5287 35.4705 15.3869 35.412C15.2452 35.3535 15.1164 35.2675 15.0079 35.1591C14.8995 35.0506 14.8135 34.9218 14.755 34.7801C14.6965 34.6383 14.6666 34.4864 14.667 34.333ZM14.667 29.667C14.667 29.022 15.185 28.5 15.834 28.5H32.166C32.811 28.5 33.333 29.018 33.333 29.667C33.333 30.311 32.815 30.833 32.166 30.833H15.834C15.6807 30.8334 15.5289 30.8035 15.3872 30.7451C15.2455 30.6866 15.1167 30.6008 15.0083 30.4924C14.8998 30.3841 14.8139 30.2554 14.7553 30.1138C14.6967 29.9721 14.6667 29.8203 14.667 29.667ZM14.667 25C14.667 24.356 15.185 23.833 15.834 23.833H32.166C32.811 23.833 33.333 24.351 33.333 25C33.333 25.644 32.815 26.167 32.166 26.167H15.834C15.6806 26.1674 15.5287 26.1375 15.3869 26.079C15.2452 26.0205 15.1164 25.9345 15.0079 25.8261C14.8995 25.7176 14.8135 25.5888 14.755 25.4471C14.6965 25.3053 14.6666 25.1534 14.667 25Z" fill="#2684FF"/>
</svg>
