<svg width="48" height="64" viewBox="0 0 48 64" fill="none" xmlns="http://www.w3.org/2000/svg">
<rect width="48" height="64" fill="white" fill-opacity="0.01"/>
<path fill-rule="evenodd" clip-rule="evenodd" d="M4 0.5H32.007C32.4775 0.500118 32.9432 0.595111 33.3762 0.779302C33.8092 0.963492 34.2006 1.2331 34.527 1.572L46.521 14.022C47.1494 14.6745 47.5003 15.5452 47.5 16.451V60C47.5 60.9283 47.1312 61.8185 46.4749 62.4749C45.8185 63.1312 44.9283 63.5 44 63.5H4C3.07174 63.5 2.1815 63.1312 1.52513 62.4749C0.868749 61.8185 0.5 60.9283 0.5 60V4C0.5 3.07174 0.868749 2.1815 1.52513 1.52513C2.1815 0.868749 3.07174 0.5 4 0.5Z" fill="white" stroke="#091E42" stroke-opacity="0.08"/>
<path fill-rule="evenodd" clip-rule="evenodd" d="M15.833 33.167L16.891 24.709C16.9212 24.4672 17.0387 24.2447 17.2214 24.0834C17.404 23.9221 17.6393 23.8331 17.883 23.833H30.117C30.3607 23.8331 30.596 23.9221 30.7786 24.0834C30.9613 24.2447 31.0788 24.4672 31.109 24.709L32.167 33.167V39.167C32.167 39.4322 32.0616 39.6866 31.8741 39.8741C31.6866 40.0617 31.4322 40.167 31.167 40.167H16.833C16.5678 40.167 16.3134 40.0617 16.1259 39.8741C15.9384 39.6866 15.833 39.4322 15.833 39.167V33.167ZM19.167 35.5C18.9018 35.5 18.6474 35.6054 18.4599 35.7929C18.2724 35.9804 18.167 36.2348 18.167 36.5V36.833C18.167 37.0982 18.2724 37.3526 18.4599 37.5401C18.6474 37.7277 18.9018 37.833 19.167 37.833H28.833C29.0982 37.833 29.3526 37.7277 29.5401 37.5401C29.7276 37.3526 29.833 37.0982 29.833 36.833V36.5C29.833 36.2348 29.7276 35.9804 29.5401 35.7929C29.3526 35.6054 29.0982 35.5 28.833 35.5H19.167Z" fill="#5E6C84"/>
</svg>
