<svg width="48" height="64" viewBox="0 0 48 64" fill="none" xmlns="http://www.w3.org/2000/svg">
<rect width="48" height="64" fill="white" fill-opacity="0.01"/>
<path fill-rule="evenodd" clip-rule="evenodd" d="M20 16H44C45.0609 16 46.0783 16.4214 46.8284 17.1716C47.5786 17.9217 48 18.9391 48 20V48C48 49.0609 47.5786 50.0783 46.8284 50.8284C46.0783 51.5786 45.0609 52 44 52H4C2.93913 52 1.92172 51.5786 1.17157 50.8284C0.421427 50.0783 0 49.0609 0 48V16C0 14.9391 0.421427 13.9217 1.17157 13.1716C1.92172 12.4214 2.93913 12 4 12H16C17.0609 12 18.0783 12.4214 18.8284 13.1716C19.5786 13.9217 20 14.9391 20 16Z" fill="#B3D4FF"/>
<g style="mix-blend-mode:multiply">
<path fill-rule="evenodd" clip-rule="evenodd" d="M0 20H48V48C48 49.0609 47.5786 50.0783 46.8284 50.8284C46.0783 51.5786 45.0609 52 44 52H4C2.93913 52 1.92172 51.5786 1.17157 50.8284C0.421427 50.0783 0 49.0609 0 48V20Z" fill="#B3D4FF"/>
</g>
</svg>
