<svg width="48" height="64" viewBox="0 0 48 64" fill="none" xmlns="http://www.w3.org/2000/svg">
<rect width="48" height="64" fill="white" fill-opacity="0.01"/>
<path fill-rule="evenodd" clip-rule="evenodd" d="M4 0.5H32.007C32.4775 0.500118 32.9432 0.595111 33.3762 0.779302C33.8092 0.963492 34.2006 1.2331 34.527 1.572L46.521 14.022C47.1494 14.6745 47.5003 15.5452 47.5 16.451V60C47.5 60.9283 47.1312 61.8185 46.4749 62.4749C45.8185 63.1312 44.9283 63.5 44 63.5H4C3.07174 63.5 2.1815 63.1312 1.52513 62.4749C0.868749 61.8185 0.5 60.9283 0.5 60V4C0.5 3.07174 0.868749 2.1815 1.52513 1.52513C2.1815 0.868749 3.07174 0.5 4 0.5Z" fill="white" stroke="#091E42" stroke-opacity="0.08"/>
<path fill-rule="evenodd" clip-rule="evenodd" d="M25.824 37.409H23.572C23.5347 37.4091 23.4977 37.4019 23.4632 37.3877C23.4286 37.3734 23.3973 37.3525 23.3709 37.3261C23.3445 37.2997 23.3236 37.2684 23.3093 37.2338C23.2951 37.1993 23.2879 37.1623 23.288 37.125V27.782C23.288 27.624 23.414 27.498 23.572 27.498H25.824C25.981 27.498 26.108 27.624 26.108 27.782V37.125C26.108 37.2003 26.0781 37.2726 26.0248 37.3258C25.9716 37.3791 25.8993 37.409 25.824 37.409ZM30.247 37.409H27.993C27.9179 37.4087 27.8459 37.3787 27.7928 37.3255C27.7398 37.2722 27.71 37.2002 27.71 37.125V27.782C27.71 27.624 27.837 27.498 27.993 27.498H34.216C34.372 27.498 34.5 27.624 34.5 27.782V29.616C34.4997 29.6912 34.4697 29.7633 34.4165 29.8165C34.3633 29.8697 34.2912 29.8997 34.216 29.9H30.53V31.557H33.853C34.01 31.557 34.137 31.684 34.137 31.841V33.613C34.137 33.6883 34.1071 33.7606 34.0538 33.8138C34.0006 33.8671 33.9283 33.897 33.853 33.897H30.53V37.125C30.5297 37.2001 30.4999 37.272 30.4469 37.3252C30.3939 37.3784 30.3221 37.4085 30.247 37.409ZM17.917 37.579C15.152 37.579 13.5 35.862 13.5 32.984V31.861C13.5 29.068 15.195 27.333 17.925 27.333C20.625 27.333 21.935 29.045 22.034 30.743C22.0365 30.7816 22.031 30.8203 22.0178 30.8567C22.0047 30.8931 21.9843 30.9264 21.9577 30.9545C21.9312 30.9827 21.8991 31.005 21.8636 31.0203C21.828 31.0355 21.7897 31.0432 21.751 31.043H19.561C19.4944 31.0432 19.4299 31.0199 19.3787 30.9773C19.3275 30.9347 19.293 30.8755 19.281 30.81C19.164 30.168 18.636 29.77 17.904 29.77C16.611 29.77 16.34 30.918 16.34 31.882V32.977C16.34 34.414 16.886 35.143 17.966 35.143C18.999 35.143 19.366 34.515 19.366 33.976V33.869H18.02C17.9828 33.8691 17.9458 33.8619 17.9114 33.8478C17.8769 33.8336 17.8456 33.8128 17.8192 33.7865C17.7929 33.7602 17.7719 33.7289 17.7576 33.6945C17.7434 33.6601 17.736 33.6233 17.736 33.586V31.984C17.736 31.827 17.863 31.7 18.02 31.7H21.772C21.928 31.7 22.056 31.827 22.056 31.984V33.798C22.056 35.543 20.971 37.579 17.918 37.579" fill="#FFAB00"/>
</svg>
