<svg width="48" height="64" viewBox="0 0 48 64" fill="none" xmlns="http://www.w3.org/2000/svg">
<rect width="48" height="64" fill="white" fill-opacity="0.01"/>
<path fill-rule="evenodd" clip-rule="evenodd" d="M4 0.5H32.007C32.4775 0.500118 32.9432 0.595111 33.3762 0.779302C33.8092 0.963492 34.2006 1.2331 34.527 1.572L46.521 14.022C47.1494 14.6745 47.5003 15.5452 47.5 16.451V60C47.5 60.9283 47.1312 61.8185 46.4749 62.4749C45.8185 63.1312 44.9283 63.5 44 63.5H4C3.07174 63.5 2.1815 63.1312 1.52513 62.4749C0.868749 61.8185 0.5 60.9283 0.5 60V4C0.5 3.07174 0.868749 2.1815 1.52513 1.52513C2.1815 0.868749 3.07174 0.5 4 0.5Z" fill="white" stroke="#091E42" stroke-opacity="0.08"/>
<path fill-rule="evenodd" clip-rule="evenodd" d="M27.557 23.833L33.013 33.342L26.688 33.406L21.232 23.897L27.557 23.833ZM14.667 34.46L17.884 39.94L23.34 30.43L20.123 24.95L14.667 34.46ZM22.42 34.624L19.313 40.167H30.226L33.333 34.624H22.42Z" fill="#673AB7"/>
</svg>
