<svg width="48" height="64" viewBox="0 0 48 64" fill="none" xmlns="http://www.w3.org/2000/svg">
<rect width="48" height="64" fill="white" fill-opacity="0.01"/>
<path fill-rule="evenodd" clip-rule="evenodd" d="M4 0.5H32.007C32.4775 0.500118 32.9432 0.595111 33.3762 0.779302C33.8092 0.963492 34.2006 1.2331 34.527 1.572L46.521 14.022C47.1494 14.6745 47.5003 15.5452 47.5 16.451V60C47.5 60.9283 47.1312 61.8185 46.4749 62.4749C45.8185 63.1312 44.9283 63.5 44 63.5H4C3.07174 63.5 2.1815 63.1312 1.52513 62.4749C0.868749 61.8185 0.5 60.9283 0.5 60V4C0.5 3.07174 0.868749 2.1815 1.52513 1.52513C2.1815 0.868749 3.07174 0.5 4 0.5Z" fill="white" stroke="#091E42" stroke-opacity="0.08"/>
<path fill-rule="evenodd" clip-rule="evenodd" d="M21.667 37.833L27.925 31.575C28.0207 31.4793 28.1348 31.404 28.2604 31.3537C28.386 31.3033 28.5205 31.279 28.6558 31.2822C28.7911 31.2854 28.9243 31.316 29.0474 31.3722C29.1705 31.4283 29.2809 31.5089 29.372 31.609L33.333 35.967V40.167H14.667L18.627 36.207C18.8145 36.0198 19.0686 35.9147 19.3335 35.9147C19.5984 35.9147 19.8525 36.0198 20.04 36.207L21.667 37.833ZM17.777 30.056C16.9518 30.056 16.1604 29.7282 15.5768 29.1447C14.9933 28.5612 14.6655 27.7697 14.6655 26.9445C14.6655 26.1193 14.9933 25.3279 15.5768 24.7443C16.1604 24.1608 16.9518 23.833 17.777 23.833C18.6022 23.833 19.3936 24.1608 19.9772 24.7443C20.5607 25.3279 20.8885 26.1193 20.8885 26.9445C20.8885 27.7697 20.5607 28.5612 19.9772 29.1447C19.3936 29.7282 18.6022 30.056 17.777 30.056Z" fill="#FFAB00"/>
</svg>
