<svg width="48" height="64" viewBox="0 0 48 64" fill="none" xmlns="http://www.w3.org/2000/svg">
<rect width="48" height="64" fill="white" fill-opacity="0.01"/>
<path fill-rule="evenodd" clip-rule="evenodd" d="M4 0.5H32.007C32.4775 0.500118 32.9432 0.595111 33.3762 0.779302C33.8092 0.963492 34.2006 1.2331 34.527 1.572L46.521 14.022C47.1494 14.6745 47.5003 15.5452 47.5 16.451V60C47.5 60.9283 47.1312 61.8185 46.4749 62.4749C45.8185 63.1312 44.9283 63.5 44 63.5H4C3.07174 63.5 2.1815 63.1312 1.52513 62.4749C0.868749 61.8185 0.5 60.9283 0.5 60V4C0.5 3.07174 0.868749 2.1815 1.52513 1.52513C2.1815 0.868749 3.07174 0.5 4 0.5Z" fill="white" stroke="#091E42" stroke-opacity="0.08"/>
<path fill-rule="evenodd" clip-rule="evenodd" d="M15.654 32.197V30.393H16.668C17.308 30.393 17.621 30.688 17.621 31.293C17.621 31.823 17.519 32.197 16.218 32.197H15.654ZM22.991 34.745H23.767C24.632 34.745 25.518 34.488 25.518 32.58C25.518 30.657 24.582 30.41 23.767 30.41H22.991V34.745ZM15.207 36.655H13.947C13.8284 36.6547 13.7147 36.6074 13.6309 36.5234C13.5471 36.4394 13.5 36.3256 13.5 36.207V28.947C13.5 28.701 13.7 28.5 13.947 28.5H16.857C18.587 28.5 19.797 29.648 19.797 31.293C19.797 32.96 18.613 34.081 16.851 34.081H15.654V36.207C15.654 36.454 15.454 36.655 15.207 36.655ZM23.899 36.655H21.285C21.1664 36.6547 21.0527 36.6074 20.9689 36.5234C20.8851 36.4394 20.838 36.3256 20.838 36.207V28.947C20.838 28.701 21.038 28.5 21.285 28.5H23.899C26.358 28.5 27.712 29.943 27.712 32.565C27.712 35.202 26.358 36.655 23.899 36.655ZM30.637 36.655H29.377C29.2582 36.655 29.1442 36.6078 29.0602 36.5238C28.9762 36.4398 28.929 36.3258 28.929 36.207V28.947C28.929 28.701 29.129 28.5 29.376 28.5H34.053C34.299 28.5 34.5 28.701 34.5 28.947V29.973C34.5 30.0317 34.4884 30.0898 34.466 30.1441C34.4435 30.1983 34.4106 30.2476 34.3691 30.2891C34.3276 30.3306 34.2783 30.3635 34.2241 30.386C34.1698 30.4084 34.1117 30.42 34.053 30.42H31.084V31.75H33.758C34.005 31.75 34.205 31.95 34.205 32.197V33.208C34.205 33.454 34.005 33.655 33.758 33.655H31.084V36.207C31.084 36.454 30.884 36.655 30.637 36.655Z" fill="#FF5630"/>
</svg>
