<svg width="48" height="64" viewBox="0 0 48 64" fill="none" xmlns="http://www.w3.org/2000/svg">
<rect width="48" height="64" fill="white" fill-opacity="0.01"/>
<path fill-rule="evenodd" clip-rule="evenodd" d="M4 0.5H32.007C32.4775 0.500118 32.9432 0.595111 33.3762 0.779302C33.8092 0.963492 34.2006 1.2331 34.527 1.572L46.521 14.022C47.1494 14.6745 47.5003 15.5452 47.5 16.451V60C47.5 60.9283 47.1312 61.8185 46.4749 62.4749C45.8185 63.1312 44.9283 63.5 44 63.5H4C3.07174 63.5 2.1815 63.1312 1.52513 62.4749C0.868749 61.8185 0.5 60.9283 0.5 60V4C0.5 3.07174 0.868749 2.1815 1.52513 1.52513C2.1815 0.868749 3.07174 0.5 4 0.5Z" fill="white" stroke="#091E42" stroke-opacity="0.08"/>
<path fill-rule="evenodd" clip-rule="evenodd" d="M15.043 25.024L28.168 23.162C28.23 23.1533 28.2932 23.1579 28.3532 23.1757C28.4132 23.1934 28.4688 23.2239 28.5161 23.2649C28.5634 23.3059 28.6013 23.3566 28.6273 23.4136C28.6534 23.4705 28.6669 23.5324 28.667 23.595V40.407C28.6669 40.4695 28.6534 40.5313 28.6274 40.5881C28.6014 40.645 28.5636 40.6956 28.5164 40.7366C28.4692 40.7777 28.4138 40.8081 28.3539 40.8259C28.294 40.8438 28.2309 40.8485 28.169 40.84L15.044 39.026C14.9396 39.0113 14.8439 38.9594 14.7747 38.8799C14.7054 38.8003 14.6672 38.6985 14.667 38.593V25.457C14.667 25.24 14.827 25.055 15.043 25.024ZM29.833 26.167H32.833C32.9656 26.167 33.0928 26.2197 33.1866 26.3134C33.2803 26.4072 33.333 26.5344 33.333 26.667V37.333C33.333 37.4656 33.2803 37.5928 33.1866 37.6865C33.0928 37.7803 32.9656 37.833 32.833 37.833H29.833V26.167ZM19.163 27.863V36.083H20.884V33.531H22.507C24.239 33.531 25.441 32.398 25.441 30.706C25.441 28.996 24.285 27.863 22.593 27.863H19.163ZM20.884 29.276H22.137C23.128 29.276 23.692 29.777 23.692 30.711C23.692 31.634 23.117 32.136 22.132 32.136H20.884V29.276Z" fill="#CA5010"/>
</svg>
