<svg width="48" height="64" viewBox="0 0 48 64" fill="none" xmlns="http://www.w3.org/2000/svg">
<rect width="48" height="64" fill="white" fill-opacity="0.01"/>
<path fill-rule="evenodd" clip-rule="evenodd" d="M4 0.5H32.007C32.4775 0.500118 32.9432 0.595111 33.3762 0.779302C33.8092 0.963492 34.2006 1.2331 34.527 1.572L46.521 14.022C47.1494 14.6745 47.5003 15.5452 47.5 16.451V60C47.5 60.9283 47.1312 61.8185 46.4749 62.4749C45.8185 63.1312 44.9283 63.5 44 63.5H4C3.07174 63.5 2.1815 63.1312 1.52513 62.4749C0.868749 61.8185 0.5 60.9283 0.5 60V4C0.5 3.07174 0.868749 2.1815 1.52513 1.52513C2.1815 0.868749 3.07174 0.5 4 0.5Z" fill="white" stroke="#091E42" stroke-opacity="0.08"/>
<path fill-rule="evenodd" clip-rule="evenodd" d="M17 34.333C17.644 34.333 18.167 34.856 18.167 35.5V39C18.167 39.3095 18.044 39.6063 17.8252 39.8252C17.6063 40.0441 17.3095 40.167 17 40.167C16.6905 40.167 16.3937 40.0441 16.1748 39.8252C15.956 39.6063 15.833 39.3095 15.833 39V35.5C15.833 34.856 16.356 34.333 17 34.333ZM26.333 27.333C26.978 27.333 27.5 27.856 27.5 28.5V39C27.4911 39.3035 27.3643 39.5915 27.1465 39.803C26.9287 40.0145 26.6371 40.1329 26.3335 40.1329C26.0299 40.1329 25.7383 40.0145 25.5205 39.803C25.3027 39.5915 25.1759 39.3035 25.167 39V28.5C25.167 27.856 25.689 27.333 26.333 27.333ZM21.667 32C22.311 32 22.833 32.522 22.833 33.167V39C22.8376 39.1561 22.8108 39.3115 22.7542 39.457C22.6976 39.6025 22.6125 39.7352 22.5037 39.8472C22.3949 39.9592 22.2648 40.0482 22.121 40.109C21.9772 40.1698 21.8226 40.2012 21.6665 40.2012C21.5104 40.2012 21.3558 40.1698 21.212 40.109C21.0682 40.0482 20.9381 39.9592 20.8293 39.8472C20.7205 39.7352 20.6354 39.6025 20.5788 39.457C20.5222 39.3115 20.4954 39.1561 20.5 39V33.167C20.5 32.522 21.022 32 21.667 32ZM31 23.833C31.644 23.833 32.167 24.356 32.167 25V39C32.167 39.3095 32.044 39.6063 31.8252 39.8252C31.6063 40.0441 31.3095 40.167 31 40.167C30.6905 40.167 30.3937 40.0441 30.1748 39.8252C29.956 39.6063 29.833 39.3095 29.833 39V25C29.833 24.356 30.356 23.833 31 23.833Z" fill="#6554C0"/>
</svg>
