<svg width="48" height="64" viewBox="0 0 48 64" fill="none" xmlns="http://www.w3.org/2000/svg">
<rect width="48" height="64" fill="white" fill-opacity="0.01"/>
<path fill-rule="evenodd" clip-rule="evenodd" d="M4 0.5H32.007C32.4775 0.500118 32.9432 0.595111 33.3762 0.779302C33.8092 0.963492 34.2006 1.2331 34.527 1.572L46.521 14.022C47.1494 14.6745 47.5003 15.5452 47.5 16.451V60C47.5 60.9283 47.1312 61.8185 46.4749 62.4749C45.8185 63.1312 44.9283 63.5 44 63.5H4C3.07174 63.5 2.1815 63.1312 1.52513 62.4749C0.868749 61.8185 0.5 60.9283 0.5 60V4C0.5 3.07174 0.868749 2.1815 1.52513 1.52513C2.1815 0.868749 3.07174 0.5 4 0.5Z" fill="white" stroke="#091E42" stroke-opacity="0.08"/>
<path fill-rule="evenodd" clip-rule="evenodd" d="M24.034 41.333C23.698 41.333 23.379 41.189 23.158 40.937L14.958 31.603C14.7883 31.4101 14.6869 31.1665 14.6698 30.9101C14.6526 30.6537 14.7205 30.3988 14.863 30.185L17.983 25.518C18.0899 25.3588 18.2342 25.2283 18.4034 25.1379C18.5725 25.0476 18.7612 25.0002 18.953 25H29.267C29.67 25 30.045 25.209 30.258 25.55L33.158 30.217C33.428 30.653 33.383 31.214 33.047 31.6L24.914 40.933C24.8046 41.0581 24.6698 41.1585 24.5186 41.2275C24.3674 41.2965 24.2032 41.3324 24.037 41.333H24.034Z" fill="#FF8B00"/>
</svg>
