<svg width="48" height="64" viewBox="0 0 48 64" fill="none" xmlns="http://www.w3.org/2000/svg">
<rect width="48" height="64" fill="white" fill-opacity="0.01"/>
<path fill-rule="evenodd" clip-rule="evenodd" d="M4 0.5H32.007C32.4775 0.500118 32.9432 0.595111 33.3762 0.779302C33.8092 0.963492 34.2006 1.2331 34.527 1.572L46.521 14.022C47.1494 14.6745 47.5003 15.5452 47.5 16.451V60C47.5 60.9283 47.1312 61.8185 46.4749 62.4749C45.8185 63.1312 44.9283 63.5 44 63.5H4C3.07174 63.5 2.1815 63.1312 1.52513 62.4749C0.868749 61.8185 0.5 60.9283 0.5 60V4C0.5 3.07174 0.868749 2.1815 1.52513 1.52513C2.1815 0.868749 3.07174 0.5 4 0.5Z" fill="white" stroke="#091E42" stroke-opacity="0.08"/>
<path fill-rule="evenodd" clip-rule="evenodd" d="M26.514 22.73C27.123 22.94 27.447 23.604 27.237 24.213L21.603 40.6C21.5531 40.7448 21.4752 40.8784 21.3736 40.9931C21.2721 41.1079 21.1489 41.2015 21.0112 41.2686C20.8735 41.3357 20.7239 41.3751 20.571 41.3844C20.4181 41.3937 20.2648 41.3729 20.12 41.323C19.9752 41.2731 19.8416 41.1951 19.7268 41.0936C19.6121 40.992 19.5185 40.8689 19.4514 40.7312C19.3842 40.5935 19.3449 40.4439 19.3355 40.291C19.3262 40.1381 19.3471 39.9848 19.397 39.84L25.031 23.455C25.241 22.845 25.905 22.521 26.514 22.731V22.73ZM19.353 32.309C19.5573 32.5281 19.6696 32.8173 19.6666 33.1169C19.6637 33.4164 19.5458 33.7034 19.3373 33.9185C19.1287 34.1335 18.8455 34.2603 18.5462 34.2725C18.2469 34.2847 17.9543 34.1814 17.729 33.984L13.854 30.229C13.7419 30.1202 13.6528 29.99 13.5919 29.8461C13.5311 29.7023 13.4997 29.5477 13.4997 29.3915C13.4997 29.2353 13.5311 29.0806 13.5919 28.9368C13.6528 28.7929 13.7419 28.6627 13.854 28.554L17.984 24.55C18.094 24.4433 18.2239 24.3594 18.3663 24.303C18.5087 24.2465 18.6609 24.2187 18.814 24.2211C18.9672 24.2235 19.1184 24.256 19.259 24.3168C19.3996 24.3776 19.5269 24.4655 19.6335 24.5755C19.7401 24.6854 19.8241 24.8153 19.8805 24.9578C19.9369 25.1002 19.9647 25.2523 19.9624 25.4055C19.96 25.5587 19.9275 25.7099 19.8667 25.8505C19.8059 25.9911 19.718 26.1183 19.608 26.225L16.343 29.391L19.353 32.309ZM33.609 34.139C33.7211 34.2477 33.8102 34.3779 33.8711 34.5218C33.9319 34.6656 33.9633 34.8203 33.9633 34.9765C33.9633 35.1327 33.9319 35.2873 33.8711 35.4311C33.8102 35.575 33.7211 35.7052 33.609 35.814L29.479 39.818C29.3695 39.9273 29.2394 40.0137 29.0962 40.0722C28.953 40.1308 28.7995 40.1603 28.6448 40.159C28.4901 40.1577 28.3372 40.1257 28.195 40.0647C28.0528 40.0038 27.9241 39.9152 27.8164 39.8041C27.7088 39.693 27.6243 39.5616 27.5679 39.4175C27.5115 39.2735 27.4843 39.1196 27.4879 38.965C27.4914 38.8103 27.5257 38.6579 27.5888 38.5166C27.6518 38.3753 27.7423 38.248 27.855 38.142L31.12 34.976L28.11 32.058C27.9057 31.8388 27.7934 31.5496 27.7964 31.2501C27.7993 30.9505 27.9172 30.6635 28.1257 30.4484C28.3343 30.2334 28.6175 30.1066 28.9168 30.0945C29.2161 30.0823 29.5087 30.1855 29.734 30.383L33.609 34.138V34.139Z" fill="#00B8D9"/>
</svg>
