<svg width="48" height="64" viewBox="0 0 48 64" fill="none" xmlns="http://www.w3.org/2000/svg">
<rect width="48" height="64" fill="white" fill-opacity="0.01"/>
<path fill-rule="evenodd" clip-rule="evenodd" d="M4 0.5H32.007C32.4775 0.500118 32.9432 0.595111 33.3762 0.779302C33.8092 0.963492 34.2006 1.2331 34.527 1.572L46.521 14.022C47.1494 14.6745 47.5003 15.5452 47.5 16.451V60C47.5 60.9283 47.1312 61.8185 46.4749 62.4749C45.8185 63.1312 44.9283 63.5 44 63.5H4C3.07174 63.5 2.1815 63.1312 1.52513 62.4749C0.868749 61.8185 0.5 60.9283 0.5 60V4C0.5 3.07174 0.868749 2.1815 1.52513 1.52513C2.1815 0.868749 3.07174 0.5 4 0.5Z" fill="white" stroke="#091E42" stroke-opacity="0.08"/>
<path fill-rule="evenodd" clip-rule="evenodd" d="M15.833 23.833H19.333C19.6425 23.833 19.9393 23.956 20.1582 24.1748C20.377 24.3937 20.5 24.6905 20.5 25C20.5 25.3095 20.377 25.6063 20.1582 25.8252C19.9393 26.0441 19.6425 26.167 19.333 26.167H15.833C15.5235 26.167 15.2267 26.0441 15.0078 25.8252C14.789 25.6063 14.666 25.3095 14.666 25C14.666 24.6905 14.789 24.3937 15.0078 24.1748C15.2267 23.956 15.5235 23.833 15.833 23.833ZM15.833 28.5H19.333C19.6365 28.5089 19.9245 28.6357 20.136 28.8535C20.3475 29.0713 20.4658 29.3629 20.4658 29.6665C20.4658 29.9701 20.3475 30.2617 20.136 30.4795C19.9245 30.6973 19.6365 30.8241 19.333 30.833H15.833C15.6769 30.8376 15.5215 30.8108 15.376 30.7542C15.2305 30.6977 15.0978 30.6125 14.9858 30.5037C14.8738 30.3949 14.7848 30.2648 14.724 30.121C14.6632 29.9772 14.6318 29.8226 14.6318 29.6665C14.6318 29.5104 14.6632 29.3558 14.724 29.212C14.7848 29.0682 14.8738 28.9381 14.9858 28.8293C15.0978 28.7206 15.2305 28.6354 15.376 28.5788C15.5215 28.5222 15.6769 28.4954 15.833 28.5ZM15.833 33.167H19.333C19.4891 33.1624 19.6445 33.1892 19.79 33.2458C19.9355 33.3024 20.0682 33.3876 20.1802 33.4963C20.2922 33.6051 20.3812 33.7352 20.442 33.879C20.5028 34.0228 20.5342 34.1774 20.5342 34.3335C20.5342 34.4896 20.5028 34.6442 20.442 34.788C20.3812 34.9318 20.2922 35.0619 20.1802 35.1707C20.0682 35.2795 19.9355 35.3647 19.79 35.4212C19.6445 35.4778 19.4891 35.5046 19.333 35.5H15.833C15.5295 35.4911 15.2415 35.3643 15.03 35.1465C14.8185 34.9287 14.7002 34.6371 14.7002 34.3335C14.7002 34.0299 14.8185 33.7383 15.03 33.5205C15.2415 33.3027 15.5295 33.1759 15.833 33.167ZM15.833 37.833H19.333C19.6425 37.833 19.9393 37.956 20.1582 38.1748C20.377 38.3937 20.5 38.6905 20.5 39C20.5 39.3095 20.377 39.6063 20.1582 39.8252C19.9393 40.0441 19.6425 40.167 19.333 40.167H15.833C15.5235 40.167 15.2267 40.0441 15.0078 39.8252C14.789 39.6063 14.666 39.3095 14.666 39C14.666 38.6905 14.789 38.3937 15.0078 38.1748C15.2267 37.956 15.5235 37.833 15.833 37.833ZM24 23.833H32.167C32.4765 23.833 32.7733 23.956 32.9922 24.1748C33.211 24.3937 33.334 24.6905 33.334 25C33.334 25.3095 33.211 25.6063 32.9922 25.8252C32.7733 26.0441 32.4765 26.167 32.167 26.167H24C23.6905 26.167 23.3937 26.0441 23.1748 25.8252C22.956 25.6063 22.833 25.3095 22.833 25C22.833 24.6905 22.956 24.3937 23.1748 24.1748C23.3937 23.956 23.6905 23.833 24 23.833ZM24 28.5H32.167C32.4705 28.5089 32.7585 28.6357 32.97 28.8535C33.1815 29.0713 33.2998 29.3629 33.2998 29.6665C33.2998 29.9701 33.1815 30.2617 32.97 30.4795C32.7585 30.6973 32.4705 30.8241 32.167 30.833H24C23.8439 30.8376 23.6885 30.8108 23.543 30.7542C23.3975 30.6977 23.2648 30.6125 23.1528 30.5037C23.0408 30.3949 22.9518 30.2648 22.891 30.121C22.8302 29.9772 22.7988 29.8226 22.7988 29.6665C22.7988 29.5104 22.8302 29.3558 22.891 29.212C22.9518 29.0682 23.0408 28.9381 23.1528 28.8293C23.2648 28.7206 23.3975 28.6354 23.543 28.5788C23.6885 28.5222 23.8439 28.4954 24 28.5ZM24 33.167H32.167C32.3231 33.1624 32.4785 33.1892 32.624 33.2458C32.7695 33.3024 32.9022 33.3876 33.0142 33.4963C33.1262 33.6051 33.2152 33.7352 33.276 33.879C33.3368 34.0228 33.3682 34.1774 33.3682 34.3335C33.3682 34.4896 33.3368 34.6442 33.276 34.788C33.2152 34.9318 33.1262 35.0619 33.0142 35.1707C32.9022 35.2795 32.7695 35.3647 32.624 35.4212C32.4785 35.4778 32.3231 35.5046 32.167 35.5H24C23.6965 35.4911 23.4085 35.3643 23.197 35.1465C22.9855 34.9287 22.8672 34.6371 22.8672 34.3335C22.8672 34.0299 22.9855 33.7383 23.197 33.5205C23.4085 33.3027 23.6965 33.1759 24 33.167ZM24 37.833H32.167C32.4765 37.833 32.7733 37.956 32.9922 38.1748C33.211 38.3937 33.334 38.6905 33.334 39C33.334 39.3095 33.211 39.6063 32.9922 39.8252C32.7733 40.0441 32.4765 40.167 32.167 40.167H24C23.6905 40.167 23.3937 40.0441 23.1748 39.8252C22.956 39.6063 22.833 39.3095 22.833 39C22.833 38.6905 22.956 38.3937 23.1748 38.1748C23.3937 37.956 23.6905 37.833 24 37.833Z" fill="#36B37E"/>
</svg>
