<svg width="48" height="64" viewBox="0 0 48 64" fill="none" xmlns="http://www.w3.org/2000/svg">
<rect width="48" height="64" fill="white" fill-opacity="0.01"/>
<path fill-rule="evenodd" clip-rule="evenodd" d="M4 0.5H32.007C32.4775 0.500118 32.9432 0.595111 33.3762 0.779302C33.8092 0.963492 34.2006 1.2331 34.527 1.572L46.521 14.022C47.1494 14.6745 47.5003 15.5452 47.5 16.451V60C47.5 60.9283 47.1312 61.8185 46.4749 62.4749C45.8185 63.1312 44.9283 63.5 44 63.5H4C3.07174 63.5 2.1815 63.1312 1.52513 62.4749C0.868749 61.8185 0.5 60.9283 0.5 60V4C0.5 3.07174 0.868749 2.1815 1.52513 1.52513C2.1815 0.868749 3.07174 0.5 4 0.5Z" fill="white" stroke="#091E42" stroke-opacity="0.08"/>
<path fill-rule="evenodd" clip-rule="evenodd" d="M14.667 27.161C14.667 26.612 15.11 26.167 15.661 26.167H25.339C25.888 26.167 26.333 26.61 26.333 27.161V36.839C26.3331 36.9696 26.3075 37.0989 26.2576 37.2195C26.2077 37.3402 26.1345 37.4498 26.0422 37.5421C25.9498 37.6345 25.8402 37.7077 25.7195 37.7576C25.5989 37.8075 25.4696 37.8331 25.339 37.833H15.66C15.5294 37.8331 15.4001 37.8075 15.2795 37.7576C15.1588 37.7077 15.0492 37.6345 14.9568 37.5421C14.8645 37.4498 14.7913 37.3402 14.7414 37.2195C14.6915 37.0989 14.6659 36.9696 14.666 36.839V27.16L14.667 27.161ZM32.353 36.595L28.667 34.811V29.191L32.353 27.405C32.797 27.19 33.333 27.483 33.333 27.938V36.062C33.333 36.517 32.797 36.81 32.353 36.595Z" fill="#FF5630"/>
</svg>
