<svg width="428" height="360" viewBox="0 0 428 360" fill="none" xmlns="http://www.w3.org/2000/svg">
  <g clip-path="url(#clip0)">
    <path
      d="M68.0422 99.3158L16.7533 123.53C16.3822 123.727 16.0733 123.992 15.8516 124.305C15.63 124.618 15.5019 124.97 15.478 125.331V148.789C15.4996 149.15 15.6267 149.501 15.8486 149.813C16.0705 150.126 16.3808 150.389 16.7533 150.583L21.8165 152.922C22.2125 153.084 22.6492 153.169 23.0918 153.169C23.5345 153.169 23.9711 153.084 24.3671 152.922L75.656 128.708C76.0271 128.512 76.336 128.246 76.5577 127.933C76.7793 127.62 76.9074 127.268 76.9313 126.907V103.465C76.9089 103.103 76.7816 102.751 76.5597 102.438C76.3379 102.124 76.0281 101.859 75.656 101.663L70.5928 99.3236C70.1975 99.1603 69.7613 99.0747 69.3186 99.0733C68.8759 99.0719 68.4389 99.1549 68.0422 99.3158Z"
      fill="#263238" />
    <path
      d="M76.9137 103.268C76.8185 102.746 76.2951 102.558 75.6574 102.855L24.3779 127.03C23.9991 127.221 23.6877 127.49 23.4737 127.81L15.8599 124.23C16.0644 123.913 16.3662 123.644 16.7355 123.45L68.0245 99.2752C68.4206 99.1132 68.8571 99.0288 69.2998 99.0288C69.7425 99.0288 70.179 99.1132 70.5751 99.2752L75.6383 101.615C75.9866 101.796 76.2815 102.039 76.5019 102.324C76.7225 102.61 76.8631 102.932 76.9137 103.268Z"
      fill="#455A64" />
    <path
      d="M75.6557 102.855L24.3668 127.03C24.0007 127.23 23.6959 127.497 23.4763 127.809C23.2568 128.122 23.1284 128.472 23.1011 128.831V152.289C23.1011 152.96 23.6721 153.225 24.3668 152.897L75.6557 128.683C76.0268 128.487 76.3358 128.221 76.5575 127.908C76.7792 127.595 76.9071 127.243 76.9311 126.882V103.463C76.9311 102.793 76.3601 102.527 75.6557 102.855Z"
      fill="#37474F" />
    <path
      d="M36.7684 132.606C36.7684 132.793 36.7684 133.043 36.7684 133.386C36.7684 133.729 36.7684 134.033 36.7684 134.368C36.7684 134.704 36.7684 135.039 36.7684 135.359C36.7684 135.678 36.7684 135.928 36.7684 136.139C36.7902 136.422 36.8412 136.704 36.9208 136.981C36.9781 137.2 37.1025 137.404 37.2824 137.573C37.4463 137.711 37.6667 137.795 37.9011 137.807C38.241 137.801 38.5714 137.714 38.8527 137.558C39.2061 137.403 39.5274 137.203 39.8046 136.965C40.0285 136.753 40.2261 136.523 40.3946 136.279C40.5417 136.058 40.6598 135.826 40.7467 135.585C40.8196 135.379 40.8802 135.171 40.9277 134.961C40.9637 134.772 41.0242 134.586 41.1084 134.407C41.196 134.275 41.3283 134.167 41.4892 134.095L43.6306 133.082C43.6665 133.057 43.712 133.043 43.7589 133.043C43.806 133.043 43.8516 133.057 43.8875 133.082C43.9643 133.158 44.0017 133.256 43.9921 133.354C43.9777 134.092 43.84 134.824 43.583 135.53C43.327 136.271 42.9626 136.983 42.4979 137.651C42.0486 138.315 41.5091 138.935 40.8895 139.5C40.3133 140.035 39.6352 140.491 38.8814 140.849C38.2541 141.185 37.5273 141.377 36.778 141.402C36.2012 141.409 35.6405 141.246 35.1982 140.942C34.7231 140.589 34.3744 140.136 34.1894 139.632C33.9468 138.993 33.8124 138.329 33.7896 137.659C33.7896 137.103 33.7896 136.502 33.7896 135.858C33.7896 135.213 33.7896 134.589 33.7896 133.986C33.8144 133.197 33.9452 132.412 34.1797 131.647C34.4184 130.866 34.7566 130.108 35.1885 129.385C35.6153 128.682 36.1459 128.025 36.7684 127.428C37.3712 126.855 38.0851 126.367 38.8814 125.985C39.4877 125.674 40.1765 125.487 40.8895 125.439C41.4533 125.406 42.0153 125.518 42.4979 125.759C42.9894 126.025 43.3684 126.409 43.583 126.858C43.8651 127.428 44.0042 128.038 43.9921 128.652C43.9882 128.779 43.9526 128.904 43.8875 129.019C43.8361 129.124 43.7465 129.214 43.6306 129.276L41.4892 130.29C41.2988 130.375 41.175 130.391 41.1084 130.336C41.0157 130.221 40.9541 130.091 40.9277 129.954C40.8832 129.8 40.8227 129.648 40.7467 129.502C40.6702 129.359 40.5487 129.235 40.3946 129.143C40.2173 129.055 40.0121 129.011 39.8046 129.019C39.4646 129.043 39.1375 129.137 38.8527 129.291C38.4911 129.453 38.1686 129.667 37.9011 129.923C37.6537 130.177 37.4459 130.454 37.2824 130.75C37.1178 131.049 36.9964 131.363 36.9208 131.686C36.8486 131.99 36.7977 132.297 36.7684 132.606Z"
      fill="#F0F0F0" />
    <path
      d="M51.8059 129.853V133.261C51.8025 133.42 51.7569 133.577 51.6727 133.721C51.6059 133.845 51.501 133.952 51.3681 134.033L49.3028 135.008C49.2578 135.036 49.2026 135.052 49.1458 135.052C49.089 135.052 49.0338 135.036 48.9887 135.008C48.9403 134.962 48.9035 134.909 48.8806 134.851C48.8577 134.794 48.8492 134.733 48.8556 134.673V131.265L46.324 132.466C46.2804 132.497 46.2247 132.514 46.1669 132.514C46.1091 132.514 46.0533 132.497 46.0099 132.466C45.9614 132.42 45.9245 132.367 45.9016 132.309C45.8788 132.251 45.8702 132.191 45.8766 132.13V130.017C45.879 129.86 45.9245 129.705 46.0099 129.565C46.0723 129.434 46.1818 129.323 46.324 129.245L48.8556 128.044V124.636C48.8589 124.479 48.9043 124.325 48.9887 124.184C49.0512 124.055 49.1611 123.946 49.3028 123.872L51.3872 122.897C51.429 122.866 51.4832 122.849 51.5394 122.849C51.5956 122.849 51.6498 122.866 51.6916 122.897C51.7394 122.941 51.7758 122.993 51.7987 123.05C51.8216 123.106 51.8305 123.165 51.8249 123.224V126.64L54.347 125.447C54.3894 125.414 54.4456 125.396 54.5041 125.396C54.5624 125.396 54.6186 125.414 54.6611 125.447C54.7088 125.492 54.7452 125.543 54.7681 125.6C54.791 125.656 54.7999 125.715 54.7943 125.775V127.864C54.791 128.021 54.7455 128.176 54.6611 128.317C54.6015 128.446 54.491 128.556 54.347 128.629L51.8059 129.853Z"
      fill="#F0F0F0" />
    <path
      d="M62.6652 124.722V128.129C62.6607 128.286 62.6153 128.441 62.532 128.582C62.4695 128.71 62.3597 128.819 62.2179 128.894L60.1622 129.869C60.1187 129.9 60.063 129.917 60.0051 129.917C59.9474 129.917 59.8915 129.9 59.8481 129.869C59.8004 129.824 59.764 129.772 59.7411 129.716C59.7182 129.66 59.7093 129.6 59.7149 129.541V126.125L57.1737 127.326C57.1329 127.359 57.0782 127.377 57.0214 127.377C56.9647 127.377 56.91 127.359 56.8692 127.326C56.8214 127.282 56.785 127.23 56.7622 127.174C56.7393 127.117 56.7304 127.058 56.736 126.999V124.87C56.7393 124.713 56.7848 124.558 56.8692 124.417C56.9286 124.29 57.0351 124.181 57.1737 124.106L59.7149 122.905V119.497C59.7183 119.337 59.7637 119.18 59.8481 119.037C59.9132 118.91 60.0224 118.801 60.1622 118.725L62.2179 117.75C62.2628 117.721 62.3181 117.706 62.375 117.706C62.4318 117.706 62.487 117.721 62.532 117.75C62.5805 117.796 62.6172 117.849 62.6401 117.906C62.663 117.964 62.6715 118.025 62.6652 118.085V121.493L65.1874 120.3C65.2316 120.27 65.2871 120.254 65.3443 120.254C65.4016 120.254 65.4571 120.27 65.5014 120.3C65.5483 120.346 65.5832 120.4 65.6045 120.457C65.6258 120.515 65.6328 120.575 65.6251 120.635V122.717C65.626 122.874 65.5837 123.029 65.5014 123.17C65.4384 123.298 65.3287 123.407 65.1874 123.482L62.6652 124.722Z"
      fill="#F0F0F0" />
  </g>
  <defs>
    <clipPath id="clip0">
      <rect width="428" height="360" fill="white" />
    </clipPath>
  </defs>
</svg>
