<svg width="428" height="360" viewBox="0 0 428 360" fill="none" xmlns="http://www.w3.org/2000/svg">
  <g clip-path="url(#clip0)">
    <path
      d="M160.208 63.8004L156.078 57.3979L159.419 49.4824V44.6396L149.187 49.4824V54.3253L153.584 60.564C153.651 60.6639 153.759 60.7413 153.889 60.7823L160.208 63.8004Z"
      fill="#5BBD81" />
    <path opacity="0.2"
      d="M160.208 63.8004L156.078 57.3979L159.419 49.4824V44.6396L149.187 49.4824V54.3253L153.584 60.564C153.651 60.6639 153.759 60.7413 153.889 60.7823L160.208 63.8004Z"
      fill="black" />
    <path
      d="M184.629 6.13912C184.571 5.26571 184.262 4.41588 183.728 3.6585C183.193 2.90112 182.45 2.2575 181.555 1.7798L179.062 0.602242C178.111 0.206344 177.059 0 175.992 0C174.926 0 173.875 0.206344 172.923 0.602242L134.616 18.7647C133.723 19.2429 132.98 19.8867 132.448 20.6442C131.915 21.4016 131.608 22.2512 131.551 23.1241V57.6788C131.609 58.5503 131.918 59.3984 132.45 60.1544C132.982 60.9104 133.724 61.553 134.616 62.0303L137.119 63.2157C138.07 63.6116 139.121 63.818 140.188 63.818C141.255 63.818 142.307 63.6116 143.258 63.2157L155.582 57.3825L159.98 63.6212C160.041 63.7112 160.132 63.7846 160.244 63.8325C160.355 63.8803 160.482 63.9005 160.607 63.8905C160.732 63.8806 160.851 63.841 160.949 63.7766C161.048 63.7121 161.12 63.6256 161.159 63.5276L165.804 52.5475L181.583 45.061C182.474 44.5799 183.214 43.9339 183.742 43.1753C184.272 42.4166 184.576 41.5666 184.629 40.6939V6.13912Z"
      fill="#5BBD81" />
    <path opacity="0.2"
      d="M131.551 57.6787C131.609 58.5502 131.918 59.3983 132.45 60.1543C132.982 60.9102 133.724 61.5529 134.616 62.0302L137.119 63.2156C137.984 63.5723 138.932 63.7747 139.9 63.8097C140.868 63.8446 141.834 63.7113 142.734 63.4184C141.287 63.8629 140.184 63.2 140.184 61.7651V27.2103C140.224 26.3343 140.535 25.481 141.087 24.7304L132.446 20.644C131.896 21.3951 131.588 22.2485 131.551 23.1239V57.6787Z"
      fill="black" />
    <path opacity="0.5"
      d="M184.553 5.42166C184.201 4.35328 183.012 4.01795 181.594 4.68081L143.258 22.8511C142.349 23.3106 141.603 23.959 141.098 24.7305L132.456 20.6442C132.969 19.8799 133.714 19.2357 134.616 18.7726L172.943 0.602243C173.894 0.206344 174.945 0 176.011 0C177.078 0 178.13 0.206344 179.081 0.602243L181.594 1.7876C182.362 2.19648 183.022 2.72967 183.531 3.35453C184.04 3.9794 184.387 4.68279 184.553 5.42166Z"
      fill="white" />
    <path
      d="M145.827 40.7715C145.819 40.5264 145.871 40.2825 145.98 40.054C146.109 39.8222 146.259 39.5981 146.427 39.3834L154.764 28.3486C154.8 28.2986 154.845 28.2538 154.897 28.216L154.993 28.1615C155.034 28.1308 155.089 28.1138 155.145 28.1138C155.202 28.1138 155.255 28.1308 155.298 28.1615C155.345 28.2072 155.383 28.2604 155.406 28.318C155.428 28.3756 155.436 28.4364 155.43 28.4968V32.7547C155.441 33.0634 155.356 33.3693 155.183 33.6437C155.058 33.8455 154.918 34.0408 154.764 34.2286L150.463 39.5939L154.764 41.216C154.911 41.2558 155.052 41.3108 155.183 41.3798C155.345 41.4656 155.43 41.6839 155.43 42.027V45.0528C155.429 45.21 155.384 45.3649 155.298 45.5051C155.238 45.6328 155.132 45.742 154.993 45.8171H154.897C154.854 45.8284 154.808 45.8284 154.764 45.8171L146.427 42.6977C146.255 42.6456 146.102 42.56 145.98 42.4481C145.854 42.2771 145.801 42.0772 145.827 41.8789V40.7715Z"
      fill="white" />
    <path
      d="M163.987 23.7244C164.067 23.4888 164.173 23.2593 164.301 23.0381C164.433 22.8125 164.645 22.6249 164.909 22.5L167.698 21.1509C167.743 21.1191 167.801 21.1016 167.86 21.1016C167.919 21.1016 167.976 21.1191 168.021 21.1509C168.12 21.2466 168.167 21.3698 168.155 21.494C168.167 21.5795 168.167 21.6659 168.155 21.7514L161.112 46.3476C161.043 46.5765 160.945 46.7987 160.818 47.0105C160.686 47.243 160.469 47.4364 160.199 47.5641L157.467 48.8587C157.422 48.8905 157.365 48.908 157.305 48.908C157.246 48.908 157.189 48.8905 157.144 48.8587C157.093 48.8125 157.055 48.7581 157.032 48.6989C157.008 48.6397 157.001 48.5772 157.011 48.5156C156.998 48.4327 156.998 48.3489 157.011 48.266L163.987 23.7244Z"
      fill="white" />
    <path
      d="M179.3 27.7014C179.309 27.9465 179.257 28.1907 179.147 28.4188C179.018 28.6507 178.868 28.8748 178.7 29.0895L170.354 40.1321C170.313 40.1765 170.268 40.2183 170.22 40.2568L170.125 40.3192C170.081 40.3505 170.025 40.3677 169.967 40.3677C169.91 40.3677 169.854 40.3505 169.81 40.3192C169.762 40.2736 169.726 40.2202 169.705 40.1624C169.684 40.1046 169.678 40.0438 169.687 39.9839V35.7104C169.672 35.4072 169.755 35.1062 169.924 34.8369C170.087 34.603 170.229 34.4158 170.354 34.2676L173.998 29.651L170.354 28.5124C170.199 28.4716 170.055 28.4111 169.924 28.3331C169.763 28.2395 169.687 28.0211 169.687 27.6702V23.4123C169.686 23.2558 169.729 23.1011 169.81 22.9599C169.878 22.8365 169.987 22.7312 170.125 22.6558H170.22H170.354L178.691 25.7752C178.892 25.8194 179.065 25.9243 179.177 26.0689C179.288 26.2134 179.328 26.387 179.29 26.555L179.3 27.7014Z"
      fill="white" />
  </g>
  <defs>
    <clipPath id="clip0">
      <rect width="428" height="360" fill="white" />
    </clipPath>
  </defs>
</svg>
