<svg width="428" height="360" viewBox="0 0 428 360" fill="none" xmlns="http://www.w3.org/2000/svg">
  <g clip-path="url(#clip0)">
    <path
      d="M330.91 296.833C321.032 288.481 315.236 254.495 324.867 247.874H373.881C383.513 254.495 377.688 288.473 367.848 296.825L367.571 297.059C367.467 297.152 367.353 297.246 367.238 297.332C366.953 297.558 366.658 297.776 366.344 297.987L366.106 298.143C365.868 298.299 365.631 298.455 365.364 298.611C364.954 298.855 364.528 299.081 364.088 299.289C355.961 303.188 342.789 303.188 334.66 299.289C334.232 299.086 333.804 298.853 333.376 298.603C333.129 298.463 332.909 298.314 332.682 298.166L332.396 297.979C332.094 297.781 331.806 297.57 331.529 297.347C331.397 297.246 331.263 297.137 331.139 297.028C331.059 296.967 330.982 296.901 330.91 296.833Z"
      fill="#5BBD81" />
    <g opacity="0.5">
      <path opacity="0.5"
        d="M330.91 296.833C321.032 288.481 315.236 254.495 324.867 247.874H373.881C383.513 254.495 377.688 288.473 367.848 296.825L367.571 297.059C367.467 297.152 367.353 297.246 367.238 297.332C366.953 297.558 366.658 297.776 366.344 297.987L366.106 298.143C365.868 298.299 365.631 298.455 365.364 298.611C364.954 298.855 364.528 299.081 364.088 299.289C355.961 303.188 342.789 303.188 334.66 299.289C334.232 299.086 333.804 298.853 333.376 298.603C333.129 298.463 332.909 298.314 332.682 298.166L332.396 297.979C332.094 297.781 331.806 297.57 331.529 297.347C331.397 297.246 331.263 297.137 331.139 297.028C331.059 296.967 330.982 296.901 330.91 296.833Z"
        fill="white" />
    </g>
    <path
      d="M369.627 245.207C380.81 250.557 380.81 259.244 369.627 264.586C358.445 269.928 340.304 269.936 329.121 264.586C317.939 259.236 317.939 250.549 329.121 245.207C340.304 239.865 358.445 239.857 369.627 245.207Z"
      fill="#5BBD81" />
    <g opacity="0.7">
      <path opacity="0.7"
        d="M369.627 245.207C380.81 250.557 380.81 259.244 369.627 264.586C358.445 269.928 340.304 269.936 329.121 264.586C317.939 259.236 317.939 250.549 329.121 245.207C340.304 239.865 358.445 239.857 369.627 245.207Z"
        fill="white" />
    </g>
    <path
      d="M364.251 247.781C372.463 251.68 372.463 258.082 364.251 262.013C356.037 265.943 342.712 265.912 334.499 262.013C326.285 258.113 326.285 251.711 334.499 247.781C342.712 243.85 356.037 243.85 364.251 247.781Z"
      fill="#5BBD81" />
    <g opacity="0.3">
      <path opacity="0.3"
        d="M364.251 247.781C372.463 251.68 372.463 258.082 364.251 262.013C356.037 265.943 342.712 265.912 334.499 262.013C326.285 258.113 326.285 251.711 334.499 247.781C342.712 243.85 356.037 243.85 364.251 247.781Z"
        fill="black" />
    </g>
    <path
      d="M334.499 254.534C342.712 250.635 356.037 250.635 364.249 254.534C366.24 255.426 367.927 256.71 369.161 258.27C367.928 259.832 366.24 261.118 364.249 262.013C356.037 265.912 342.712 265.912 334.499 262.013C332.507 261.116 330.817 259.83 329.578 258.27C330.818 256.711 332.509 255.428 334.499 254.534Z"
      fill="#F5F5F5" />
    <path
      d="M345.358 237.386C344.78 236.46 344.36 235.473 344.112 234.453C343.56 232.005 344.302 229.205 346.719 227.692C347.671 227.099 348.937 226.655 349.346 225.719C349.512 225.19 349.512 224.634 349.346 224.105C348.898 222.015 348.042 219.863 348.747 217.827C349.138 216.896 349.763 216.042 350.583 215.322C351.402 214.602 352.398 214.031 353.505 213.647C355.715 212.891 358.045 212.393 360.425 212.165C361.697 212.053 362.936 211.763 364.088 211.308C365.459 210.676 365.888 209.569 366.734 208.594C367.727 207.518 368.857 206.533 370.104 205.654C372.597 203.829 375.719 202.324 379.174 202.449C386.388 202.706 386.178 207.791 384.103 211.643C382.029 215.495 381.477 216.751 386.007 220.767C390.538 224.783 390.519 229.735 385.141 232.465C379.764 235.194 376.271 235.584 378.403 240.934C380.306 245.699 381.477 249.762 376.109 254.854C372.635 258.145 367.886 260.492 361.947 260.313C359.561 260.164 357.216 259.722 354.99 259.003C353.353 258.34 354.456 257.303 353.905 255.977L350.346 247.461C349.548 245.178 348.595 242.934 347.49 240.739C346.833 239.569 346.034 238.501 345.358 237.386Z"
      fill="#5BBD81" />
    <g opacity="0.25">
      <path opacity="0.25"
        d="M345.358 237.386C344.78 236.46 344.36 235.473 344.112 234.453C343.56 232.005 344.302 229.205 346.719 227.692C347.671 227.099 348.937 226.655 349.346 225.719C349.512 225.19 349.512 224.634 349.346 224.105C348.898 222.015 348.042 219.863 348.747 217.827C349.138 216.896 349.763 216.042 350.583 215.322C351.402 214.602 352.398 214.031 353.505 213.647C355.715 212.891 358.045 212.393 360.425 212.165C361.697 212.053 362.936 211.763 364.088 211.308C365.459 210.676 365.888 209.569 366.734 208.594C367.727 207.518 368.857 206.533 370.104 205.654C372.597 203.829 375.719 202.324 379.174 202.449C386.388 202.706 386.178 207.791 384.103 211.643C382.029 215.495 381.477 216.751 386.007 220.767C390.538 224.783 390.519 229.735 385.141 232.465C379.764 235.194 376.271 235.584 378.403 240.934C380.306 245.699 381.477 249.762 376.109 254.854C372.635 258.145 367.886 260.492 361.947 260.313C359.561 260.164 357.216 259.722 354.99 259.003C353.353 258.34 354.456 257.303 353.905 255.977L350.346 247.461C349.548 245.178 348.595 242.934 347.49 240.739C346.833 239.569 346.034 238.501 345.358 237.386Z"
        fill="black" />
    </g>
    <path
      d="M355.161 259.002C355.267 258.975 355.359 258.919 355.423 258.845C355.487 258.77 355.519 258.68 355.513 258.589C355.208 229.407 374.843 211.986 375.043 211.798C375.14 211.714 375.195 211.603 375.195 211.486C375.195 211.37 375.14 211.259 375.043 211.175C374.943 211.093 374.808 211.047 374.667 211.047C374.526 211.047 374.391 211.093 374.291 211.175C374.091 211.346 354.171 229.009 354.475 258.558C354.474 258.615 354.487 258.673 354.513 258.726C354.54 258.78 354.58 258.828 354.629 258.869C354.679 258.91 354.738 258.942 354.804 258.963C354.869 258.985 354.939 258.995 355.009 258.994L355.161 259.002Z"
      fill="white" />
    <path
      d="M360.872 231.841L360.985 231.802C367.372 228.503 378.765 226.046 378.878 226.023C379.015 225.992 379.131 225.918 379.202 225.818C379.273 225.717 379.295 225.598 379.259 225.485C379.242 225.429 379.213 225.377 379.17 225.331C379.129 225.285 379.076 225.246 379.016 225.217C378.955 225.188 378.889 225.169 378.819 225.161C378.75 225.154 378.679 225.158 378.612 225.173C378.136 225.274 366.943 227.684 360.423 231.053C360.364 231.082 360.311 231.122 360.27 231.168C360.229 231.215 360.199 231.267 360.183 231.323C360.167 231.379 360.165 231.438 360.177 231.494C360.189 231.551 360.215 231.605 360.253 231.653C360.314 231.738 360.409 231.803 360.522 231.837C360.634 231.871 360.758 231.872 360.872 231.841Z"
      fill="white" />
    <path
      d="M362.85 227.809C362.983 227.764 363.087 227.678 363.143 227.57C363.199 227.462 363.199 227.341 363.146 227.232C361.653 224.314 359.671 221.582 357.254 219.114C357.209 219.069 357.155 219.033 357.092 219.006C357.029 218.98 356.962 218.964 356.89 218.959C356.82 218.955 356.75 218.962 356.683 218.981C356.616 218.999 356.555 219.029 356.503 219.067C356.397 219.144 356.333 219.251 356.322 219.366C356.312 219.48 356.356 219.594 356.446 219.683C358.781 222.084 360.703 224.737 362.156 227.567C362.182 227.621 362.22 227.67 362.268 227.712C362.317 227.754 362.376 227.787 362.44 227.809C362.505 227.832 362.575 227.843 362.645 227.843C362.716 227.843 362.786 227.832 362.85 227.809Z"
      fill="white" />
    <path
      d="M350.155 262.122C345.085 263.411 339.689 263.573 334.518 262.59C325.553 261.03 320.061 254.136 320.061 254.136C320.061 254.136 329.769 250.954 335.422 250.643C329.78 249.948 324.034 250.048 318.433 250.939C318.433 250.939 313.237 249.379 314.217 242.173C314.217 242.173 319.109 239.218 330.397 240.38C330.397 240.38 324.763 237.081 314.874 236.106C314.094 236.106 315.15 226.748 316.093 222.576C317.034 218.404 318.948 219.051 322.944 219.41C326.942 219.769 338.944 221.999 340.457 224.401C341.97 226.803 340.504 232.932 340.504 232.932C342.581 230.601 343.731 227.802 343.798 224.916C343.798 224.916 348.299 226.265 350.707 228.035C352.515 229.233 353.983 230.739 355.009 232.449C354.447 235.732 352.563 240.746 349.917 243.546C349.917 243.546 355.874 240.388 357.235 234.586C360.2 237.91 361.86 241.895 361.994 246.01C361.862 253.349 357.845 258.8 350.155 262.122Z"
      fill="#5BBD81" />
    <path opacity="0.1"
      d="M350.155 262.122C345.085 263.411 339.689 263.573 334.518 262.59C325.553 261.03 320.061 254.136 320.061 254.136C320.061 254.136 329.769 250.954 335.422 250.643C329.78 249.948 324.034 250.048 318.433 250.939C318.433 250.939 313.237 249.379 314.217 242.173C314.217 242.173 319.109 239.218 330.397 240.38C330.397 240.38 324.763 237.081 314.874 236.106C314.094 236.106 315.15 226.748 316.093 222.576C317.034 218.404 318.948 219.051 322.944 219.41C326.942 219.769 338.944 221.999 340.457 224.401C341.97 226.803 340.504 232.932 340.504 232.932C342.581 230.601 343.731 227.802 343.798 224.916C343.798 224.916 348.299 226.265 350.707 228.035C352.515 229.233 353.983 230.739 355.009 232.449C354.447 235.732 352.563 240.746 349.917 243.546C349.917 243.546 355.874 240.388 357.235 234.586C360.2 237.91 361.86 241.895 361.994 246.01C361.862 253.349 357.845 258.8 350.155 262.122Z"
      fill="black" />
    <path
      d="M351.344 261.49C351.254 261.463 351.175 261.415 351.116 261.351C351.06 261.287 351.026 261.211 351.02 261.132C349.659 247.204 330.644 225.454 322.24 221.087C322.128 221.025 322.048 220.929 322.017 220.821C321.988 220.712 322.009 220.598 322.079 220.502C322.152 220.41 322.267 220.345 322.398 220.32C322.529 220.295 322.667 220.313 322.783 220.369C331.349 224.807 350.659 246.884 352.029 261.062C352.037 261.116 352.029 261.172 352.009 261.225C351.989 261.277 351.956 261.326 351.913 261.368C351.869 261.41 351.816 261.445 351.756 261.47C351.696 261.495 351.631 261.51 351.563 261.514C351.489 261.522 351.414 261.514 351.344 261.49Z"
      fill="white" />
  </g>
  <defs>
    <clipPath id="clip0">
      <rect width="428" height="360" fill="white" />
    </clipPath>
  </defs>
</svg>
