<svg width="24" height="24" viewBox="0 0 24 24" fill="none" xmlns="http://www.w3.org/2000/svg">
<rect width="24" height="24" fill="white" fill-opacity="0.01"/>
<path fill-rule="evenodd" clip-rule="evenodd" d="M16.587 6.003H15C14.7344 6.003 14.4797 5.89748 14.2918 5.70966C14.104 5.52185 13.9985 5.26711 13.9985 5.0015C13.9985 4.73588 14.104 4.48115 14.2918 4.29333C14.4797 4.10551 14.7344 4 15 4H18.9L18.947 4.001C19.0828 3.99458 19.2184 4.01661 19.3451 4.0657C19.4719 4.11478 19.587 4.18981 19.683 4.286L19.715 4.318C19.915 4.518 20.011 4.788 19.999 5.054L20 5.102V8.998C20 9.26321 19.8947 9.51757 19.7071 9.7051C19.5196 9.89264 19.2652 9.998 19 9.998C18.7348 9.998 18.4804 9.89264 18.2929 9.7051C18.1054 9.51757 18 9.26321 18 8.998V7.411L14.691 10.719C14.5075 10.8992 14.2602 10.9998 14.003 10.9988C13.7457 10.9979 13.4993 10.8955 13.317 10.714L13.285 10.682C13.1032 10.4999 13.0007 10.2533 12.9998 9.99603C12.9988 9.73871 13.0996 9.49143 13.28 9.308L16.587 6.003ZM7.41301 17.997H9.00001C9.26563 17.997 9.52036 18.1025 9.70818 18.2903C9.896 18.4781 10.0015 18.7329 10.0015 18.9985C10.0015 19.2641 9.896 19.5188 9.70818 19.7067C9.52036 19.8945 9.26563 20 9.00001 20H5.10001L5.05301 19.999C4.91724 20.0054 4.78163 19.9834 4.65488 19.9343C4.52814 19.8852 4.41305 19.8102 4.31701 19.714L4.28501 19.682C4.18893 19.5859 4.11396 19.4708 4.06488 19.3441C4.01581 19.2173 3.99372 19.0818 4.00001 18.946C3.99967 18.93 3.99967 18.914 4.00001 18.898V15.002C4.00001 14.7368 4.10537 14.4824 4.2929 14.2949C4.48044 14.1074 4.7348 14.002 5.00001 14.002C5.26523 14.002 5.51958 14.1074 5.70712 14.2949C5.89465 14.4824 6.00001 14.7368 6.00001 15.002V16.589L9.30901 13.281C9.49257 13.1008 9.7398 13.0002 9.99704 13.0012C10.2543 13.0021 10.5008 13.1044 10.683 13.286L10.715 13.318C10.8968 13.5001 10.9993 13.7466 11.0003 14.004C11.0012 14.2613 10.9005 14.5086 10.72 14.692L7.41301 17.997Z" fill="#42526E"/>
</svg>
