<svg width="24" height="24" viewBox="0 0 24 24" fill="none" xmlns="http://www.w3.org/2000/svg">
<rect width="24" height="24" fill="white" fill-opacity="0.01"/>
<path d="M9.864 10.736C10.634 9.99 11.757 10.2 12.584 11.001C13.41 11.801 13.627 12.889 12.857 13.635C11.041 15.395 7.375 15.637 8.092 14.842C9.679 13.082 8.67 11.893 9.864 10.736ZM19.968 4.03C20.37 4.408 16.868 8.762 15.541 10.01C14.882 10.63 14.529 10.836 14.265 11.026C14.15 11.108 14.115 10.999 14.088 10.95C13.9155 10.6555 13.7035 10.386 13.458 10.149C13.222 9.927 12.851 9.704 12.591 9.577C12.538 9.552 12.422 9.519 12.511 9.411C12.712 9.162 12.932 8.831 13.591 8.211C14.918 6.964 19.565 3.651 19.968 4.03ZM18.38 19.946C18.273 19.982 18.1609 20.0003 18.048 20C17.8491 20.0046 17.6538 19.9464 17.4899 19.8337C17.326 19.7209 17.2018 19.5594 17.135 19.372C16.792 18.415 15.995 17.73 14.878 17.439C12.696 16.871 11.658 17.175 9.825 18.434L9.665 18.544C9.32987 18.7815 8.97944 18.9966 8.616 19.188C7.139 19.943 5.984 20.013 5.134 19.607C4.548 19.327 4.145 18.813 4.034 18.2C3.78 16.797 4.964 15.553 6.636 15.044C6.75122 15.0056 6.873 14.9907 6.99409 15.0003C7.11517 15.0099 7.2331 15.0437 7.34085 15.0998C7.4486 15.1558 7.54398 15.233 7.62131 15.3267C7.69864 15.4203 7.75635 15.5286 7.791 15.645C7.83193 15.7634 7.84823 15.889 7.8389 16.014C7.82958 16.1389 7.79482 16.2607 7.73677 16.3717C7.67872 16.4828 7.59859 16.5808 7.5013 16.6598C7.40401 16.7387 7.29161 16.797 7.171 16.831C6.841 16.931 6.454 17.142 6.193 17.364C5.998 17.529 5.863 17.719 5.887 17.798C5.929 17.936 5.975 17.983 6.047 18.012C6.202 18.075 6.492 18.041 6.865 17.916C7.029 17.861 7.205 17.79 7.389 17.706C7.585 17.618 7.737 17.541 7.969 17.419C8.045 17.379 8.146 17.309 8.414 17.116C9.504 16.332 10.216 15.918 11.259 15.596C12.821 15.114 14.439 15.206 16.061 15.868C17.46 16.438 18.46 17.457 18.944 18.808C19.118 19.291 18.874 19.778 18.38 19.946Z" fill="#42526E"/>
</svg>
