<svg width="24" height="24" viewBox="0 0 24 24" fill="none" xmlns="http://www.w3.org/2000/svg">
<rect width="24" height="24" fill="white" fill-opacity="0.01"/>
<path fill-rule="evenodd" clip-rule="evenodd" d="M6 4H18C19.1046 4 20 4.89543 20 6V18C20 19.1046 19.1046 20 18 20H6C4.89543 20 4 19.1046 4 18V6C4 4.89543 4.89543 4 6 4ZM16 13.6V9.283V8.387C16.0011 8.33207 15.9903 8.27755 15.9683 8.22721C15.9463 8.17687 15.9136 8.1319 15.8725 8.0954C15.8315 8.0589 15.783 8.03173 15.7304 8.01578C15.6778 7.99983 15.6224 7.99547 15.568 8.003L10.432 8.556C10.186 8.583 10 8.796 10 9.034V13.085C9.7737 13.005 9.53149 12.9805 9.29374 13.0135C9.05598 13.0465 8.82962 13.1361 8.63366 13.2747C8.43771 13.4133 8.27789 13.597 8.16763 13.8102C8.05737 14.0234 7.99988 14.26 8.00001 14.5C7.99862 14.8901 8.14925 15.2654 8.41995 15.5462C8.69064 15.8271 9.06011 15.9915 9.44998 16.0045C9.83985 16.0175 10.2194 15.8781 10.5083 15.6159C10.7971 15.3537 10.9724 14.9893 10.997 14.6H11V10.436L15 10.005V12.085C14.844 12.03 14.675 12 14.5 12C14.2076 12.0001 13.9216 12.0856 13.6772 12.246C13.4327 12.4065 13.2405 12.6349 13.1242 12.9032C13.0079 13.1714 12.9725 13.4678 13.0223 13.7559C13.0722 14.0441 13.2052 14.3113 13.405 14.5248C13.6048 14.7383 13.8626 14.8888 14.1468 14.9577C14.4309 15.0267 14.729 15.011 15.0044 14.9128C15.2798 14.8145 15.5205 14.6379 15.6968 14.4047C15.8732 14.1714 15.9775 13.8917 15.997 13.6H16Z" fill="#42526E"/>
</svg>
