<svg width="24" height="24" viewBox="0 0 24 24" fill="none" xmlns="http://www.w3.org/2000/svg">
<rect width="24" height="24" fill="white" fill-opacity="0.01"/>
<path d="M6.48601 13.728C4.89301 15.327 6.23801 16.968 4.12201 19.402C3.16701 20.5 8.05401 20.165 10.476 17.734C11.503 16.704 11.213 15.2 10.112 14.094C9.01001 12.988 7.51201 12.697 6.48601 13.728ZM19.957 4.043C19.42 3.495 13.224 8.293 11.454 10.101C10.576 10.998 10.283 11.479 10.014 11.839C9.89601 11.995 10.051 12.043 10.121 12.08C10.469 12.264 10.963 12.587 11.277 12.908C11.592 13.229 11.942 13.723 12.117 14.069C12.153 14.14 12.2 14.299 12.353 14.179C12.705 13.904 13.176 13.605 14.054 12.707C15.824 10.9 20.494 4.592 19.957 4.043Z" fill="#42526E"/>
</svg>
