<svg width="24" height="24" viewBox="0 0 24 24" fill="none" xmlns="http://www.w3.org/2000/svg">
<rect width="24" height="24" fill="white" fill-opacity="0.01"/>
<path fill-rule="evenodd" clip-rule="evenodd" d="M6 4H18C19.1046 4 20 4.89543 20 6V18C20 19.1046 19.1046 20 18 20H6C4.89543 20 4 19.1046 4 18V6C4 4.89543 4.89543 4 6 4ZM14.285 10.647L15.652 12.014L14.312 13.354C14.2216 13.4448 14.15 13.5526 14.1014 13.6711C14.0527 13.7896 14.028 13.9166 14.0285 14.0447C14.0291 14.1729 14.0549 14.2996 14.1046 14.4177C14.1543 14.5359 14.2268 14.643 14.318 14.733C14.5007 14.9152 14.7478 15.018 15.0058 15.0191C15.2637 15.0202 15.5118 14.9196 15.696 14.739L17.716 12.719C17.8568 12.5782 17.9508 12.3975 17.9853 12.2014C18.0198 12.0054 17.9932 11.8034 17.909 11.623C17.861 11.4957 17.7864 11.3801 17.69 11.284L15.67 9.262C15.5792 9.17138 15.4715 9.09959 15.3529 9.05077C15.2343 9.00195 15.1072 8.97706 14.979 8.97752C14.8507 8.97798 14.7238 9.0038 14.6056 9.05348C14.4873 9.10316 14.3801 9.17572 14.29 9.267C14.1073 9.44988 14.0043 9.69751 14.0034 9.95597C14.0025 10.2144 14.1037 10.4628 14.285 10.647ZM6.30899 11.283C6.21323 11.3796 6.13924 11.4955 6.09199 11.623H6.09099C6.00703 11.8033 5.98051 12.005 6.01503 12.2009C6.04955 12.3968 6.14345 12.5773 6.28399 12.718L8.30399 14.738C8.49057 14.9058 8.73442 14.9957 8.9853 14.9891C9.23617 14.9825 9.47495 14.8799 9.65241 14.7024C9.82987 14.525 9.93248 14.2862 9.9391 14.0353C9.94572 13.7844 9.85584 13.5406 9.68799 13.354L8.34799 12.014L9.71499 10.647C9.89644 10.4629 9.99783 10.2146 9.99708 9.95618C9.99633 9.69771 9.89351 9.45001 9.71099 9.267C9.62083 9.17579 9.51353 9.1033 9.39526 9.05371C9.27699 9.00412 9.15007 8.97839 9.02183 8.97802C8.89358 8.97765 8.76652 9.00264 8.64796 9.05154C8.5294 9.10045 8.42168 9.17231 8.33099 9.263L6.30899 11.283ZM13.949 9.359C14.126 8.814 13.828 8.228 13.282 8.051H13.283C13.1533 8.00888 13.0166 7.99273 12.8807 8.00346C12.7448 8.01418 12.6123 8.05159 12.4908 8.11353C12.3693 8.17547 12.2613 8.26073 12.1728 8.36445C12.0843 8.46816 12.0171 8.5883 11.975 8.718L10.051 14.641C10.0053 14.7715 9.98617 14.9099 9.99469 15.0479C10.0032 15.1859 10.0392 15.3209 10.1007 15.4448C10.1621 15.5687 10.2476 15.6791 10.3523 15.7695C10.4569 15.8599 10.5786 15.9284 10.7101 15.9712C10.8417 16.0139 10.9804 16.0299 11.1182 16.0182C11.256 16.0065 11.3901 15.9675 11.5126 15.9033C11.6351 15.8391 11.7435 15.751 11.8315 15.6444C11.9195 15.5377 11.9853 15.4145 12.025 15.282L13.949 9.359Z" fill="#42526E"/>
</svg>
