<svg width="24" height="24" viewBox="0 0 24 24" fill="none" xmlns="http://www.w3.org/2000/svg">
<rect width="24" height="24" fill="white" fill-opacity="0.01"/>
<path fill-rule="evenodd" clip-rule="evenodd" d="M16.413 8.997H18C18.2656 8.997 18.5204 9.10252 18.7082 9.29034C18.896 9.47815 19.0015 9.73289 19.0015 9.9985C19.0015 10.2641 18.896 10.5189 18.7082 10.7067C18.5204 10.8945 18.2656 11 18 11H14.1L14.053 10.999C13.9172 11.0054 13.7816 10.9834 13.6549 10.9343C13.5281 10.8852 13.413 10.8102 13.317 10.714L13.285 10.682C13.1889 10.5859 13.114 10.4708 13.0649 10.3441C13.0158 10.2173 12.9937 10.0818 13 9.946C12.9997 9.93001 12.9997 9.914 13 9.898V6.002C13 5.73679 13.1054 5.48243 13.2929 5.2949C13.4804 5.10736 13.7348 5.002 14 5.002C14.2652 5.002 14.5196 5.10736 14.7071 5.2949C14.8946 5.48243 15 5.73679 15 6.002V7.589L18.309 4.281C18.4926 4.10078 18.7398 4.00023 18.997 4.00117C19.2543 4.0021 19.5008 4.10445 19.683 4.286L19.715 4.318C19.8968 4.50012 19.9993 4.74666 20.0003 5.00397C20.0012 5.26129 19.9005 5.50857 19.72 5.692L16.413 8.997ZM7.58701 15.003H6.00001C5.73439 15.003 5.47966 14.8975 5.29184 14.7097C5.10402 14.5219 4.99851 14.2671 4.99851 14.0015C4.99851 13.7359 5.10402 13.4812 5.29184 13.2933C5.47966 13.1055 5.73439 13 6.00001 13H9.90001L9.94701 13.001C10.0828 12.9946 10.2184 13.0166 10.3451 13.0657C10.4719 13.1148 10.587 13.1898 10.683 13.286L10.715 13.318C10.915 13.518 11.011 13.788 10.999 14.054L11 14.102V17.998C11 18.2632 10.8946 18.5176 10.7071 18.7051C10.5196 18.8926 10.2652 18.998 10 18.998C9.73479 18.998 9.48044 18.8926 9.2929 18.7051C9.10536 18.5176 9.00001 18.2632 9.00001 17.998V16.411L5.69101 19.719C5.50745 19.8992 5.26022 19.9998 5.00298 19.9988C4.74574 19.9979 4.49925 19.8956 4.31701 19.714L4.28501 19.682C4.10322 19.4999 4.0007 19.2534 3.99976 18.996C3.99883 18.7387 4.09955 18.4914 4.28001 18.308L7.58701 15.003Z" fill="#42526E"/>
</svg>
