<svg width="24" height="24" viewBox="0 0 24 24" fill="none" xmlns="http://www.w3.org/2000/svg">
<rect width="24" height="24" fill="white" fill-opacity="0.01"/>
<path d="M4.36003 17.904L17.904 4.36C18.0168 4.24082 18.1524 4.14546 18.3027 4.07956C18.453 4.01365 18.6149 3.97853 18.779 3.97628C18.9431 3.97403 19.106 4.00469 19.258 4.06644C19.41 4.1282 19.5482 4.2198 19.6642 4.33584C19.7802 4.45188 19.8718 4.58999 19.9336 4.74203C19.9953 4.89406 20.026 5.05694 20.0237 5.22102C20.0215 5.3851 19.9864 5.54707 19.9205 5.69736C19.8546 5.84764 19.7592 5.98319 19.64 6.096L6.09603 19.64C5.98322 19.7592 5.84767 19.8545 5.69739 19.9204C5.5471 19.9863 5.38513 20.0215 5.22105 20.0237C5.05697 20.026 4.89409 19.9953 4.74206 19.9336C4.59002 19.8718 4.45191 19.7802 4.33587 19.6642C4.21983 19.5481 4.12823 19.41 4.06647 19.258C4.00472 19.1059 3.97406 18.9431 3.97631 18.779C3.97856 18.6149 4.01368 18.4529 4.07959 18.3026C4.14549 18.1524 4.24085 18.0168 4.36003 17.904Z" fill="#42526E"/>
</svg>
