<svg width="24" height="24" viewBox="0 0 24 24" fill="none" xmlns="http://www.w3.org/2000/svg">
<rect width="24" height="24" fill="white" fill-opacity="0.01"/>
<path d="M4.00002 4.495C4.00002 4.222 4.22602 4 4.49602 4H19.504C19.778 4 20 4.216 20 4.495V6.505C19.9992 6.63621 19.9467 6.76181 19.8538 6.8545C19.7609 6.94719 19.6352 6.99948 19.504 7H4.49602C4.43082 7.00053 4.36617 6.9881 4.30582 6.96342C4.24547 6.93875 4.19062 6.90232 4.14447 6.85626C4.09832 6.81021 4.06178 6.75543 4.03699 6.69513C4.01219 6.63483 3.99962 6.5702 4.00002 6.505V4.495ZM4.00002 12.505C4.00002 12.226 4.22602 12 4.49602 12H19.504C19.778 12 20 12.214 20 12.505V13.495C20.0006 13.6275 19.9488 13.7549 19.8559 13.8495C19.763 13.9441 19.6366 13.9982 19.504 14H4.49602C4.43001 14.0004 4.36458 13.9876 4.30362 13.9622C4.24266 13.9369 4.18741 13.8996 4.14115 13.8525C4.09489 13.8054 4.05857 13.7495 4.03432 13.6881C4.01008 13.6266 3.99842 13.561 4.00002 13.495V12.505ZM4.00002 19.252C4.00002 19.113 4.10202 19 4.25102 19H19.75C19.888 19 20.001 19.107 20.001 19.252V19.748C20.002 19.7813 19.9962 19.8144 19.9839 19.8453C19.9716 19.8763 19.9532 19.9044 19.9297 19.928C19.9062 19.9516 19.8782 19.9701 19.8473 19.9825C19.8164 19.9949 19.7833 20.0008 19.75 20H4.25002C4.21695 20.0003 4.18415 19.9939 4.15357 19.9813C4.12298 19.9687 4.09523 19.9502 4.07193 19.9267C4.04864 19.9032 4.03027 19.8753 4.01793 19.8446C4.00558 19.8139 3.99949 19.7811 4.00002 19.748V19.252Z" fill="#42526E"/>
</svg>
