<svg width="24" height="24" viewBox="0 0 24 24" fill="none" xmlns="http://www.w3.org/2000/svg">
<rect width="24" height="24" fill="white" fill-opacity="0.01"/>
<path d="M19.41 3.041L20.13 2.321C20.3353 2.11546 20.6138 1.99988 20.9043 1.99969C21.1948 1.9995 21.4735 2.11472 21.679 2.32C21.8846 2.52528 22.0001 2.8038 22.0003 3.09429C22.0005 3.38479 21.8853 3.66346 21.68 3.869L3.87001 21.68C3.66447 21.8855 3.38569 22.001 3.09501 22.001C2.80433 22.001 2.52555 21.8855 2.32001 21.68C2.11447 21.4745 1.99899 21.1957 1.99899 20.905C1.99899 20.6143 2.11447 20.3355 2.32001 20.13L3.04001 19.41C3.01297 19.2767 2.99957 19.141 3.00001 19.005V4.995C3.00001 3.893 3.89301 3 4.99501 3H19.005C19.144 3 19.279 3.014 19.41 3.041ZM21 7.531V19.005C21 19.5341 20.7898 20.0415 20.4157 20.4157C20.0415 20.7898 19.5341 21 19.005 21H7.53001L10.53 18H18V15.3L15.729 12.802L21 7.53V7.531ZM8.00001 10C8.53044 10 9.03915 9.78929 9.41422 9.41421C9.78929 9.03914 10 8.53043 10 8C10 7.46957 9.78929 6.96086 9.41422 6.58579C9.03915 6.21071 8.53044 6 8.00001 6C7.46958 6 6.96087 6.21071 6.58579 6.58579C6.21072 6.96086 6.00001 7.46957 6.00001 8C6.00001 8.53043 6.21072 9.03914 6.58579 9.41421C6.96087 9.78929 7.46958 10 8.00001 10Z" fill="#42526E"/>
</svg>
