<svg width="24" height="24" viewBox="0 0 24 24" fill="none" xmlns="http://www.w3.org/2000/svg">
<rect width="24" height="24" fill="white" fill-opacity="0.01"/>
<path fill-rule="evenodd" clip-rule="evenodd" d="M14 11.414L11 14.414V18H14V20H6.00601C5.74232 20.0009 5.48105 19.9497 5.23726 19.8492C4.99346 19.7487 4.77195 19.601 4.58549 19.4145C4.39903 19.2281 4.25131 19.0066 4.15083 18.7628C4.05034 18.519 3.99909 18.2577 4.00001 17.994V10H6.00001V13H9.58601L12.586 10H12C11.448 10 11 9.556 11 9C11 8.448 11.444 8 12 8H15C15.1314 7.9996 15.2617 8.0252 15.3832 8.07531C15.5047 8.12543 15.6151 8.19907 15.708 8.29201C15.8009 8.38495 15.8746 8.49534 15.9247 8.61685C15.9748 8.73835 16.0004 8.86857 16 9V12C16 12.552 15.556 13 15 13C14.448 13 14 12.556 14 12V11.414ZM16 18V20H18C19.105 20 20 19.112 20 18V16H18V17.497C18 17.767 17.775 18 17.497 18H16ZM8.00001 6V4H6.00001C4.89501 4 4.00001 4.888 4.00001 6V8H6.00001V6.503C6.00001 6.233 6.22501 6 6.50301 6H8.00001ZM18 8H20V6C20 4.888 19.105 4 18 4H16V6H17.497C17.775 6 18 6.233 18 6.503V8ZM10 4H14V6H10V4ZM18 10H20V14H18V10Z" fill="#42526E"/>
</svg>
