<svg width="24" height="24" viewBox="0 0 24 24" fill="none" xmlns="http://www.w3.org/2000/svg">
<rect width="24" height="24" fill="white" fill-opacity="0.01"/>
<path fill-rule="evenodd" clip-rule="evenodd" d="M6 4H18C19.1046 4 20 4.89543 20 6V18C20 19.1046 19.1046 20 18 20H6C4.89543 20 4 19.1046 4 18V6C4 4.89543 4.89543 4 6 4ZM8 8H16C16.5523 8 17 8.44772 17 9C17 9.55228 16.5523 10 16 10H8C7.44772 10 7 9.55228 7 9C7 8.44772 7.44772 8 8 8ZM12.814 16H16.187C16.636 16 17 15.778 17 15.503V11.497C17 11.222 16.637 11 16.187 11H12.814C12.364 11 12 11.222 12 11.497V15.503C12 15.778 12.364 16 12.814 16ZM10 11H8C7.44772 11 7 11.4477 7 12C7 12.5523 7.44772 13 8 13H10C10.5523 13 11 12.5523 11 12C11 11.4477 10.5523 11 10 11ZM8 14H10C10.5523 14 11 14.4477 11 15C11 15.5523 10.5523 16 10 16H8C7.44772 16 7 15.5523 7 15C7 14.4477 7.44772 14 8 14Z" fill="#42526E"/>
</svg>
