<svg width="24" height="24" viewBox="0 0 24 24" fill="none" xmlns="http://www.w3.org/2000/svg">
<rect width="24" height="24" fill="white" fill-opacity="0.01"/>
<path fill-rule="evenodd" clip-rule="evenodd" d="M6 4H18C19.1046 4 20 4.89543 20 6V18C20 19.1046 19.1046 20 18 20H6C4.89543 20 4 19.1046 4 18V6C4 4.89543 4.89543 4 6 4ZM15 8C15.5523 8 16 8.44772 16 9V14C16 14.5523 15.5523 15 15 15C14.4477 15 14 14.5523 14 14V9C14 8.44772 14.4477 8 15 8ZM13 11C13 10.4477 12.5523 10 12 10C11.4477 10 11 10.4477 11 11V14C11 14.5523 11.4477 15 12 15C12.5523 15 13 14.5523 13 14V11ZM10 13C10 12.4477 9.55228 12 9 12C8.44772 12 8 12.4477 8 13V14C8 14.5523 8.44772 15 9 15C9.55228 15 10 14.5523 10 14V13Z" fill="#42526E"/>
</svg>
