<svg width="24" height="24" viewBox="0 0 24 24" fill="none" xmlns="http://www.w3.org/2000/svg">
<rect width="24" height="24" fill="white" fill-opacity="0.01"/>
<path d="M8 8.575V15.425C7.99934 15.5007 8.01376 15.5758 8.04242 15.6458C8.07108 15.7159 8.1134 15.7795 8.16693 15.8331C8.22046 15.8866 8.28411 15.9289 8.35418 15.9576C8.42424 15.9862 8.49931 16.0007 8.575 16H15.425C15.5007 16.0007 15.5758 15.9862 15.6458 15.9576C15.7159 15.9289 15.7796 15.8866 15.8331 15.8331C15.8866 15.7795 15.9289 15.7159 15.9576 15.6458C15.9863 15.5758 16.0007 15.5007 16 15.425V8.575C16.0007 8.4993 15.9863 8.42423 15.9576 8.35417C15.9289 8.28411 15.8866 8.22045 15.8331 8.16693C15.7796 8.1134 15.7159 8.07107 15.6458 8.04241C15.5758 8.01375 15.5007 7.99933 15.425 8H8.575C8.49931 7.99933 8.42424 8.01375 8.35418 8.04241C8.28411 8.07107 8.22046 8.1134 8.16693 8.16693C8.1134 8.22045 8.07108 8.28411 8.04242 8.35417C8.01376 8.42423 7.99934 8.4993 8 8.575ZM6 8.575C5.99935 8.23666 6.0655 7.90152 6.19467 7.58881C6.32385 7.2761 6.51349 6.99197 6.75274 6.75273C6.99198 6.51349 7.2761 6.32384 7.58882 6.19467C7.90153 6.0655 8.23667 5.99934 8.575 6H15.425C15.7633 5.99934 16.0985 6.0655 16.4112 6.19467C16.7239 6.32384 17.008 6.51349 17.2473 6.75273C17.4865 6.99197 17.6762 7.2761 17.8053 7.58881C17.9345 7.90152 18.0007 8.23666 18 8.575V15.425C18.0007 15.7633 17.9345 16.0985 17.8053 16.4112C17.6762 16.7239 17.4865 17.008 17.2473 17.2473C17.008 17.4865 16.7239 17.6762 16.4112 17.8053C16.0985 17.9345 15.7633 18.0007 15.425 18H8.575C8.23667 18.0007 7.90153 17.9345 7.58882 17.8053C7.2761 17.6762 6.99198 17.4865 6.75274 17.2473C6.51349 17.008 6.32385 16.7239 6.19467 16.4112C6.0655 16.0985 5.99935 15.7633 6 15.425V8.575Z" fill="#42526E"/>
<path fill-rule="evenodd" clip-rule="evenodd" d="M14.571 14.857C14.6472 14.8559 14.72 14.8249 14.7735 14.7707C14.827 14.7164 14.857 14.6432 14.857 14.567V13.632C14.853 13.5379 14.8178 13.4479 14.757 13.376L13.433 11.92C13.371 11.851 13.288 11.855 13.232 11.91L11.429 13.714L10.959 13.245C10.9458 13.2312 10.93 13.2202 10.9125 13.2127C10.8949 13.2052 10.8761 13.2014 10.857 13.2014C10.8379 13.2014 10.8191 13.2052 10.8015 13.2127C10.784 13.2202 10.7682 13.2312 10.755 13.245L9.34 14.66C9.235 14.765 9.274 14.857 9.435 14.857H14.571Z" fill="#42526E"/>
<path d="M10.286 11.429C10.9173 11.429 11.429 10.9173 11.429 10.286C11.429 9.65474 10.9173 9.143 10.286 9.143C9.65474 9.143 9.143 9.65474 9.143 10.286C9.143 10.9173 9.65474 11.429 10.286 11.429Z" fill="#42526E"/>
</svg>
