<svg width="24" height="24" viewBox="0 0 24 24" fill="none" xmlns="http://www.w3.org/2000/svg">
<rect width="24" height="24" fill="white" fill-opacity="0.01"/>
<path d="M5 6.007V17.993C5 18.55 5.45 19 6.007 19H17.993C18.55 19 19 18.55 19 17.993V6.007C19 5.45 18.55 5 17.993 5H6.007C5.45 5 5 5.45 5 6.007ZM3 6.007C2.99987 5.61208 3.07756 5.221 3.22863 4.85612C3.3797 4.49123 3.60119 4.15969 3.88044 3.88044C4.15969 3.60118 4.49123 3.3797 4.85612 3.22863C5.221 3.07756 5.61208 2.99987 6.007 3H17.993C18.3879 2.99987 18.779 3.07756 19.1439 3.22863C19.5088 3.3797 19.8403 3.60118 20.1196 3.88044C20.3988 4.15969 20.6203 4.49123 20.7714 4.85612C20.9224 5.221 21.0001 5.61208 21 6.007V17.993C21.0001 18.3879 20.9224 18.779 20.7714 19.1439C20.6203 19.5088 20.3988 19.8403 20.1196 20.1196C19.8403 20.3988 19.5088 20.6203 19.1439 20.7714C18.779 20.9224 18.3879 21.0001 17.993 21H6.007C5.61208 21.0001 5.221 20.9224 4.85612 20.7714C4.49123 20.6203 4.15969 20.3988 3.88044 20.1196C3.60119 19.8403 3.3797 19.5088 3.22863 19.1439C3.07756 18.779 2.99987 18.3879 3 17.993V6.007Z" fill="#42526E"/>
<path fill-rule="evenodd" clip-rule="evenodd" d="M16.5 17C16.77 17 17 16.772 17 16.491V14.857C16.9948 14.6958 16.936 14.541 16.833 14.417L14.5 11.85C14.4782 11.8264 14.4518 11.8074 14.4225 11.7943C14.3931 11.7811 14.3614 11.774 14.3293 11.7735C14.2971 11.7729 14.2652 11.7789 14.2354 11.791C14.2056 11.8031 14.1786 11.8211 14.156 11.844L11 15L10.179 14.179C10.1559 14.1549 10.1281 14.1357 10.0973 14.1225C10.0665 14.1094 10.0334 14.1026 10 14.1026C9.96656 14.1026 9.93346 14.1094 9.9027 14.1225C9.87194 14.1357 9.84415 14.1549 9.821 14.179L7.356 16.644C7.161 16.839 7.22 17 7.491 17H16.5Z" fill="#42526E"/>
<path d="M9 11C10.1046 11 11 10.1046 11 9C11 7.89543 10.1046 7 9 7C7.89543 7 7 7.89543 7 9C7 10.1046 7.89543 11 9 11Z" fill="#42526E"/>
</svg>
