<svg width="24" height="24" viewBox="0 0 24 24" fill="none" xmlns="http://www.w3.org/2000/svg">
<rect width="24" height="24" fill="white" fill-opacity="0.01"/>
<path fill-rule="evenodd" clip-rule="evenodd" d="M18 4H6C4.89543 4 4 4.89543 4 6V18C4 19.1046 4.89543 20 6 20H18C19.1046 20 20 19.1046 20 18V6C20 4.89543 19.1046 4 18 4ZM10 8H8C7.44772 8 7 8.44772 7 9C7 9.55228 7.44772 10 8 10H10C10.5523 10 11 9.55228 11 9C11 8.44772 10.5523 8 10 8ZM8 11H10C10.5523 11 11 11.4477 11 12C11 12.5523 10.5523 13 10 13H8C7.44772 13 7 12.5523 7 12C7 11.4477 7.44772 11 8 11ZM16 11H14C13.4477 11 13 11.4477 13 12C13 12.5523 13.4477 13 14 13H16C16.5523 13 17 12.5523 17 12C17 11.4477 16.5523 11 16 11ZM8 14H10C10.5523 14 11 14.4477 11 15C11 15.5523 10.5523 16 10 16H8C7.44772 16 7 15.5523 7 15C7 14.4477 7.44772 14 8 14ZM16 14H14C13.4477 14 13 14.4477 13 15C13 15.5523 13.4477 16 14 16H16C16.5523 16 17 15.5523 17 15C17 14.4477 16.5523 14 16 14ZM14 8H16C16.5523 8 17 8.44772 17 9C17 9.55228 16.5523 10 16 10H14C13.4477 10 13 9.55228 13 9C13 8.44772 13.4477 8 14 8Z" fill="#42526E"/>
</svg>
