<svg width="24" height="24" viewBox="0 0 24 24" fill="none" xmlns="http://www.w3.org/2000/svg">
<rect width="24" height="24" fill="white" fill-opacity="0.01"/>
<path fill-rule="evenodd" clip-rule="evenodd" d="M6 4H18C19.1046 4 20 4.89543 20 6V18C20 19.1046 19.1046 20 18 20H6C4.89543 20 4 19.1046 4 18V6C4 4.89543 4.89543 4 6 4ZM15.502 11H12V7.51C12.0013 7.44434 11.9897 7.37905 11.9658 7.31788C11.9419 7.25671 11.9062 7.20085 11.8607 7.15349C11.8152 7.10613 11.7608 7.0682 11.7006 7.04186C11.6404 7.01552 11.5757 7.0013 11.51 7H9.01C8.443 7 8 7.445 8 7.995V16.005C8 16.544 8.451 17 9.01 17H15C15.1308 17.0009 15.2605 16.976 15.3817 16.9266C15.5028 16.8773 15.6131 16.8044 15.706 16.7123C15.7989 16.6203 15.8727 16.5107 15.9232 16.39C15.9736 16.2693 15.9997 16.1398 16 16.009V11.491C15.9976 11.3603 15.9442 11.2357 15.8511 11.1439C15.758 11.0522 15.6327 11.0005 15.502 11ZM16 10L13 7V10H16Z" fill="#42526E"/>
</svg>
