<svg width="24" height="24" viewBox="0 0 24 24" fill="none" xmlns="http://www.w3.org/2000/svg">
<rect width="24" height="24" fill="white" fill-opacity="0.01"/>
<path fill-rule="evenodd" clip-rule="evenodd" d="M6 4H18C19.1046 4 20 4.89543 20 6V18C20 19.1046 19.1046 20 18 20H6C4.89543 20 4 19.1046 4 18V6C4 4.89543 4.89543 4 6 4ZM9.999 6C9.443 6 9 6.447 9 6.999V8.001C8.99961 8.1323 9.02518 8.26239 9.07524 8.38377C9.12531 8.50515 9.19888 8.61544 9.29172 8.70828C9.38457 8.80113 9.49485 8.8747 9.61624 8.92476C9.73762 8.97483 9.8677 9.0004 9.999 9H12V12H9.999C9.443 12 9 12.447 9 12.999V14.001C8.99961 14.1323 9.02518 14.2624 9.07524 14.3838C9.12531 14.5052 9.19888 14.6154 9.29172 14.7083C9.38457 14.8011 9.49485 14.8747 9.61624 14.9248C9.73762 14.9748 9.8677 15.0004 9.999 15H12V18H14.001C14.1323 18.0004 14.2624 17.9748 14.3838 17.9248C14.5052 17.8747 14.6154 17.8011 14.7083 17.7083C14.8011 17.6154 14.8747 17.5052 14.9248 17.3838C14.9748 17.2624 15.0004 17.1323 15 17.001V15.999C15 15.443 14.553 15 14.001 15H12V12H14.001C14.1323 12.0004 14.2624 11.9748 14.3838 11.9248C14.5052 11.8747 14.6154 11.8011 14.7083 11.7083C14.8011 11.6154 14.8747 11.5052 14.9248 11.3838C14.9748 11.2624 15.0004 11.1323 15 11.001V9.999C15 9.443 14.553 9 14.001 9H12V6H9.999Z" fill="#42526E"/>
</svg>
