<svg width="24" height="24" viewBox="0 0 24 24" fill="none" xmlns="http://www.w3.org/2000/svg">
<rect width="24" height="24" fill="white" fill-opacity="0.01"/>
<path fill-rule="evenodd" clip-rule="evenodd" d="M16.436 15.085L20.376 19.095C20.5525 19.2858 20.6478 19.5378 20.6417 19.7976C20.6356 20.0574 20.5286 20.3047 20.3433 20.487C20.158 20.6692 19.9091 20.7722 19.6492 20.7741C19.3893 20.776 19.1389 20.6766 18.951 20.497L15.013 16.491C13.4935 17.6356 11.5959 18.1601 9.70428 17.9582C7.81266 17.7563 6.06845 16.8431 4.82482 15.4036C3.58118 13.964 2.93106 12.1057 3.00608 10.2048C3.08111 8.30391 3.87568 6.50257 5.22891 5.16551C6.58214 3.82845 8.3929 3.05558 10.2945 3.00341C12.1962 2.95123 14.0466 3.62364 15.4711 4.88448C16.8956 6.14533 17.7878 7.90039 17.9669 9.79429C18.1461 11.6882 17.5988 13.5794 16.436 15.085ZM13.5 11.5C13.7652 11.5 14.0196 11.3946 14.2071 11.2071C14.3946 11.0196 14.5 10.7652 14.5 10.5C14.5 10.2348 14.3946 9.98043 14.2071 9.79289C14.0196 9.60536 13.7652 9.5 13.5 9.5H11.5V7.5C11.5 7.23478 11.3946 6.98043 11.2071 6.79289C11.0196 6.60536 10.7652 6.5 10.5 6.5C10.2348 6.5 9.98043 6.60536 9.79289 6.79289C9.60536 6.98043 9.5 7.23478 9.5 7.5V9.5H7.5C7.23478 9.5 6.98043 9.60536 6.79289 9.79289C6.60536 9.98043 6.5 10.2348 6.5 10.5C6.5 10.7652 6.60536 11.0196 6.79289 11.2071C6.98043 11.3946 7.23478 11.5 7.5 11.5H9.5V13.5C9.5 13.7652 9.60536 14.0196 9.79289 14.2071C9.98043 14.3946 10.2348 14.5 10.5 14.5C10.7652 14.5 11.0196 14.3946 11.2071 14.2071C11.3946 14.0196 11.5 13.7652 11.5 13.5V11.5H13.5Z" fill="#42526E"/>
</svg>
