<svg xmlns="http://www.w3.org/2000/svg" xmlns:xlink="http://www.w3.org/1999/xlink" width="512" height="512" viewBox="0 0 512 512">
  <defs>
    <style>
      .cls-1 {
        clip-path: url(#clip-logo);
      }

      .cls-2 {
        fill: #e0234e;
        fill-rule: evenodd;
      }

      .cls-3 {
        fill: #ffc24a;
      }

      .cls-4 {
        fill: #ffa712;
      }

      .cls-5 {
        fill: #f4bd62;
      }

      .cls-6 {
        fill: #ffa50e;
      }

      .cls-7 {
        fill: #f6820c;
      }

      .cls-8 {
        fill: #fde068;
      }

      .cls-9 {
        fill: #fcca3f;
      }

      .cls-10 {
        fill: #eeab37;
      }

      .cls-11 {
        fill: #0d6fd1;
      }

      .cls-12 {
        fill: #1976d2;
      }

      .cls-13 {
        fill: #fff;
      }
    </style>
    <clipPath id="clip-logo">
      <rect width="512" height="512"/>
    </clipPath>
  </defs>
  <g id="logo" class="cls-1">
    <g id="NestJS" transform="translate(-605 -642.588)">
      <path id="path818" class="cls-2" d="M268.616,45.652a28.269,28.269,0,0,0-8.984,1.613,25.367,25.367,0,0,1,10.712,14.973c.116.806.346,1.382.461,2.188a12.656,12.656,0,0,1,.23,2.073c.461,10.136-2.649,11.4-4.838,17.392a24.612,24.612,0,0,0,1.613,22.691,13.76,13.76,0,0,0,1.382,2.534C264.815,79.976,289.118,75.6,293.61,66.5c.346-7.947-6.22-13.246-11.4-16.932a25.446,25.446,0,0,0-13.591-3.916Zm36.627,6.565a13.329,13.329,0,0,0-.23,3.34c-.115.921-.115,2.073-.23,2.995a25.019,25.019,0,0,1-.806,2.764,25.886,25.886,0,0,1-.921,2.764c-.461.921-.806,1.728-1.267,2.649-.346.461-.576.921-.921,1.382l-.691,1.037c-.576.806-1.152,1.613-1.728,2.3a17.621,17.621,0,0,1-2.073,2.073v.115c-.691.576-1.382,1.267-2.188,1.843-2.419,1.843-5.183,3.225-7.717,4.953a17.169,17.169,0,0,0-2.3,1.728,16.837,16.837,0,0,0-2.188,1.843A18.632,18.632,0,0,0,279.9,86.2a17.171,17.171,0,0,0-1.728,2.3c-.576.806-1.152,1.613-1.613,2.419-.461.921-.806,1.728-1.267,2.649a24.13,24.13,0,0,0-.921,2.649c-.346,1.037-.576,1.958-.806,2.88-.115.461-.115,1.037-.23,1.5s-.115.921-.23,1.382c0,.921-.115,1.958-.115,2.879a12.5,12.5,0,0,0,.115,2.073,13.073,13.073,0,0,0,.346,2.879,23.6,23.6,0,0,0,.576,2.764c.346.921.576,1.843.921,2.764.23.576.576,1.152.806,1.613L249.267,106.7c-4.492-1.267-8.869-2.419-13.361-3.455l-7.256-1.728c-6.911-1.382-13.937-2.419-20.963-3.11-.23,0-.346-.115-.576-.115a205.94,205.94,0,0,0-20.617-1.037c-5.068,0-10.136.23-15.089.576-7.026.461-14.052,1.382-21.078,2.534-1.728.23-3.455.576-5.183.921-3.571.691-7.026,1.5-10.366,2.3l-5.183,1.382c-1.728.691-3.34,1.5-4.953,2.188l-3.8,1.728c-.23.115-.461.115-.576.23-1.152.576-2.188,1.037-3.225,1.613a5.614,5.614,0,0,0-.806.346c-1.267.576-2.534,1.267-3.571,1.843-.806.346-1.613.806-2.3,1.152a10.387,10.387,0,0,1-1.037.576c-1.037.576-2.073,1.152-2.995,1.728a28.977,28.977,0,0,0-2.764,1.728c-.806.576-1.613,1.037-2.3,1.613-.115.115-.23.115-.346.23a26.608,26.608,0,0,0-2.188,1.613l-.23.23-1.728,1.382c-.23.115-.461.346-.691.461-.576.461-1.152,1.037-1.728,1.5-.115.23-.346.346-.461.461-.691.691-1.382,1.267-2.073,1.958-.115,0-.115.115-.23.23-.691.576-1.382,1.267-2.073,1.958-.115.115-.115.23-.23.23-.576.576-1.152,1.152-1.728,1.843-.23.23-.576.461-.806.691-.576.691-1.267,1.382-1.958,2.073-.115.23-.346.346-.461.576-.921.921-1.728,1.843-2.649,2.764l-.346.346A67.987,67.987,0,0,1,75.46,143.9a65.472,65.472,0,0,1-6.45,5.068c-2.3,1.613-4.492,2.995-6.911,4.377a70.2,70.2,0,0,1-7.256,3.455c-2.419,1.037-4.953,1.958-7.487,2.764-4.838,1.037-9.79,2.995-14.052,3.34a24.506,24.506,0,0,0-2.879.346c-1.037.23-1.958.461-2.879.691l-2.764,1.037a29.45,29.45,0,0,0-2.764,1.267c-.806.576-1.728,1.037-2.534,1.613a18.8,18.8,0,0,0-2.3,1.958,19.723,19.723,0,0,0-2.3,2.073c-.691.806-1.382,1.5-1.958,2.3-.576.921-1.267,1.728-1.728,2.649a20.293,20.293,0,0,0-1.613,2.649c-.461,1.037-.921,1.958-1.267,2.995-.346.921-.691,1.958-1.037,2.995a23.587,23.587,0,0,0-.576,2.764c0,.115-.115.23-.115.346-.23,1.037-.23,2.419-.346,3.11a15.584,15.584,0,0,0-.23,2.3,6.557,6.557,0,0,0,.115,1.5,12.218,12.218,0,0,0,.461,2.189,15.393,15.393,0,0,0,.806,2.073v.115a20.034,20.034,0,0,0,1.267,2.073,23.4,23.4,0,0,0,1.5,2.073c.576.576,1.267,1.267,1.958,1.843a16.842,16.842,0,0,0,2.188,1.843c2.764,2.419,3.455,3.225,7.026,5.068.576.346,1.152.576,1.843.921.115,0,.23.115.346.115a1.037,1.037,0,0,0,.115.576,23.63,23.63,0,0,0,.576,2.764,15.525,15.525,0,0,0,.921,2.764c.346.691.576,1.382.921,2.073a2.517,2.517,0,0,0,.346.576c.461.921.921,1.728,1.382,2.534l1.728,2.419c.576.691,1.267,1.5,1.958,2.188s1.382,1.267,2.188,1.958a.4.4,0,0,0,.23.115,25.274,25.274,0,0,0,2.073,1.613,18.333,18.333,0,0,0,2.534,1.5,18.723,18.723,0,0,0,2.649,1.267,13.551,13.551,0,0,0,2.3.806c.115.116.23.116.461.23.461.115,1.037.23,1.5.345-.346,6.22-.461,12.094.461,14.167,1.037,2.3,6.1-4.722,11.172-12.785-.691,7.947-1.152,17.277,0,20.041,1.267,2.879,8.178-6.1,14.167-16.01C152.862,224.067,227.383,280.5,235.216,360.21c-1.5-12.439-16.816-19.35-23.842-17.622-3.455,8.523-9.33,19.465-18.774,26.261a73.853,73.853,0,0,0-1.152-23.036,74.492,74.492,0,0,1-14.282,29.025h0c-10.942.806-21.884-4.492-27.643-12.439-.461-.346-.576-1.037-.921-1.5a20.765,20.765,0,0,1-.921-2.419,9.564,9.564,0,0,1-.691-2.419,17.8,17.8,0,0,1-.115-2.534V351.8a18.445,18.445,0,0,1,.576-2.419,19.848,19.848,0,0,1,.806-2.419,25.913,25.913,0,0,1,1.382-2.419c1.958-5.529,1.958-10.021-1.613-12.67a13.118,13.118,0,0,0-2.188-1.152c-.461-.115-1.037-.346-1.5-.461-.346-.115-.576-.23-.921-.346a18.409,18.409,0,0,0-2.419-.576,8.776,8.776,0,0,0-2.419-.346,18.785,18.785,0,0,0-2.534-.23c-.576,0-1.152.115-1.728.115a8.994,8.994,0,0,0-2.534.346,17.883,17.883,0,0,0-2.419.461,19.844,19.844,0,0,0-2.419.806c-.806.346-1.5.691-2.3,1.037-.691.346-1.382.806-2.188,1.152-26.837,17.507-10.827,58.512,7.487,70.375-6.911,1.267-13.937,2.764-15.895,4.262l-.23.23a108.531,108.531,0,0,0,15.549,7.717c7.372,2.419,15.2,4.607,18.659,5.529v.115a111.43,111.43,0,0,0,29.025,2.073c51.025-3.571,92.835-42.386,100.437-93.526.23,1.037.461,1.958.691,2.995h0c.346,2.073.806,4.262,1.037,6.45v.116c.23,1.037.346,2.073.461,2.995v.461a28.271,28.271,0,0,1,.23,2.995c.115,1.267.23,2.534.23,3.8v1.843c0,.576.115,1.267.115,1.843,0,.691-.115,1.382-.115,2.073v1.612c0,.806-.115,1.5-.115,2.3a7.075,7.075,0,0,1-.115,1.5c0,.806-.115,1.613-.115,2.534a3.18,3.18,0,0,0-.116,1.037c-.115.921-.23,1.728-.346,2.649a3.185,3.185,0,0,1-.115,1.037c-.116,1.152-.346,2.188-.461,3.34v.231c-.23,1.037-.461,2.188-.691,3.225v.346l-.691,3.11c0,.116-.115.346-.115.461a30.915,30.915,0,0,1-.806,3.11v.345c-.346,1.152-.691,2.188-.921,3.225a.357.357,0,0,0-.115.23l-1.037,3.455c-.461,1.152-.806,2.188-1.267,3.34s-.806,2.3-1.267,3.34c-.461,1.152-.921,2.188-1.382,3.34h-.116c-.461,1.037-.921,2.188-1.5,3.225h0a5.608,5.608,0,0,1-.345.806c-.115.116-.115.23-.23.346a109.019,109.019,0,0,1-32.366,38.7h0c-.921.576-1.843,1.267-2.764,1.958h0c-.23.23-.576.346-.806.576-.806.576-1.613,1.152-2.534,1.728l.346.691h.115l4.838-.691h.115c2.995-.461,5.989-1.037,8.984-1.613a20.1,20.1,0,0,0,2.534-.576c.576-.115,1.037-.23,1.613-.345.806-.116,1.613-.346,2.419-.461.691-.23,1.382-.346,2.073-.576a218.288,218.288,0,0,0,33.4-11.057,184.459,184.459,0,0,1-71.527,58.4,189.513,189.513,0,0,0,39.276-6.8,184.026,184.026,0,0,0,108.845-86.961,183.848,183.848,0,0,1-30.983,74.061,181,181,0,0,0,79.244-123.473,183.413,183.413,0,0,1,3.34,55.517c83.16-115.986,6.911-236.235-24.994-267.909-.116-.23-.23-.346-.23-.576-.115.115-.115.115-.115.23,0-.115,0-.115-.115-.23,0,1.382-.115,2.764-.23,4.146-.346,2.649-.691,5.183-1.152,7.717-.576,2.534-1.267,5.068-1.958,7.6-.806,2.419-1.728,4.953-2.764,7.372-1.037,2.3-2.188,4.722-3.455,7.026-1.267,2.188-2.649,4.492-4.146,6.565-1.5,2.188-3.11,4.262-4.722,6.22-1.728,2.073-3.571,3.916-5.413,5.759-1.152,1.037-2.188,1.958-3.34,2.879-.921.806-1.728,1.5-2.649,2.3a64.281,64.281,0,0,1-6.45,4.492c-2.188,1.382-4.492,2.764-6.8,3.916-2.419,1.152-4.838,2.188-7.256,3.225-2.419.921-4.953,1.728-7.487,2.419s-5.183,1.267-7.717,1.728c-2.649.461-5.3.691-7.832.921-1.843.115-3.686.23-5.529.23-2.649,0-5.3-.23-7.832-.461a77.518,77.518,0,0,1-15.549-3.11h-.115c2.534-.23,5.068-.461,7.6-.921,2.649-.461,5.183-1.037,7.717-1.728s5.068-1.5,7.487-2.419a69.166,69.166,0,0,0,7.256-3.225c2.419-1.152,4.607-2.419,6.911-3.8,2.188-1.5,4.377-2.995,6.45-4.607a62.98,62.98,0,0,0,5.874-5.183,62.663,62.663,0,0,0,5.413-5.644q2.591-3.11,4.838-6.22c.23-.346.461-.806.691-1.152,1.152-1.843,2.3-3.686,3.34-5.529,1.267-2.3,2.419-4.607,3.455-7.026s1.958-4.838,2.764-7.372c.806-2.419,1.382-4.953,1.958-7.487.461-2.649.921-5.183,1.152-7.717.23-2.649.461-5.3.461-7.832,0-1.843-.116-3.686-.23-5.529-.23-2.649-.576-5.183-.921-7.717-.461-2.649-1.037-5.183-1.728-7.717-.806-2.419-1.613-4.953-2.534-7.371s-2.073-4.838-3.225-7.141c-1.267-2.3-2.534-4.607-3.916-6.8-1.5-2.188-2.995-4.262-4.607-6.335-1.728-1.958-3.455-3.916-5.3-5.874-.921-.921-1.958-1.958-2.995-2.879-5.183-4.031-10.6-7.832-16.01-11.288a21.445,21.445,0,0,0-2.3-1.152,44.881,44.881,0,0,0-10.942-4.838Z" transform="translate(631.994 630.935)"/>
    </g>
    <g id="Firebase" transform="translate(65.2 -2.001)">
      <path id="Caminho_1" data-name="Caminho 1" class="cls-3" d="M5.8,412.08l3.085-4.3L154.412,131.713l.308-2.921L90.576,8.306a11.9,11.9,0,0,0-22.265,3.756Z" transform="translate(0 0)"/>
      <path id="Caminho_2" data-name="Caminho 2" class="cls-4" d="M5.9,406.817l2.323-4.536,144.021-273.2L88.263,8.124A10.887,10.887,0,0,0,67.7,11.862Z" transform="translate(1.715 1.997)"/>
      <path id="Caminho_3" data-name="Caminho 3" class="cls-5" d="M61.214,152.521l47.759-48.993L61.2,12.42a12.3,12.3,0,0,0-21.684,0L13.981,61.086v4.155Z" transform="translate(140.267 67.398)"/>
      <path id="Caminho_4" data-name="Caminho 4" class="cls-6" d="M59.915,148.868l46.434-47.541L59.915,12.776a10.688,10.688,0,0,0-19.488-.853L14.769,61.443l-.762,2.522Z" transform="translate(140.713 69.055)"/>
      <path id="Caminho_5" data-name="Caminho 5" class="cls-7" d="M5.8,292.843l1.4-1.415,5.063-2.05L198.435,103.893l2.359-6.424L154.359,8.956Z" transform="translate(0.034 119.255)"/>
      <path id="Caminho_6" data-name="Caminho 6" class="cls-8" d="M207.433,407.669l168.536-93.976L327.81,17.359A11.522,11.522,0,0,0,308.3,11.08L5.8,314.11l167.538,93.54a34.967,34.967,0,0,0,34.077,0" transform="translate(0 97.969)"/>
      <path id="Caminho_7" data-name="Caminho 7" class="cls-9" d="M372.712,311.576l-47.759-294.1a10.107,10.107,0,0,0-17.547-6.405L5.9,312.211l165.687,92.542a34.694,34.694,0,0,0,33.805,0Z" transform="translate(1.715 99.306)"/>
      <path id="Caminho_8" data-name="Caminho 8" class="cls-10" d="M207.433,118.122a34.966,34.966,0,0,1-34.077,0L7.179,25.979,5.8,27.395l167.538,93.54a34.966,34.966,0,0,0,34.077,0L375.969,26.977l-.417-2.54Z" transform="translate(0 384.685)"/>
    </g>
    <g id="Logo-2" data-name="Logo">
      <g id="BG" transform="translate(0.9 0)">
        <path id="União_1" data-name="União 1" class="cls-11" d="M36.437,402.062,0,86.19,238,1.318V0L476.893,85.19,440.456,401.063,238.892,512.7V514.2Z" transform="translate(17.1 -1)"/>
      </g>
      <path id="Caminho_2-2" data-name="Caminho 2" class="cls-12" d="M363.893,30V346.642h0V543.2h0L161.437,431.062,125,115.19Z" transform="translate(-106.9 -31)"/>
      <path id="G" class="cls-13" d="M215.112-176.66H355.3v11.206q0,38.232-9.009,67.676Q337.5-70.532,316.626-46.8,269.385,6.372,196.436,6.372q-71.191,0-121.948-51.416Q23.73-96.68,23.73-168.97q0-73.828,51.636-125.244Q127-345.85,201.05-345.85a171.994,171.994,0,0,1,74.268,16.26q32.959,16.26,64.819,52.734l-36.475,34.937Q261.914-297.51,201.929-297.51q-53.833,0-90.308,37.134Q75.146-223.9,75.146-168.97q0,56.689,40.649,93.384,38.013,34.058,82.4,34.058,37.793,0,67.9-25.488,30.1-25.708,33.618-61.523H215.112Z" transform="translate(67 431)"/>
    </g>
  </g>
</svg>
