<svg xmlns="http://www.w3.org/2000/svg" width="761.717" height="680.93" viewBox="0 0 761.717 680.93" class="injected-svg gridItem__media" xmlns:xlink="http://www.w3.org/1999/xlink">
  <g id="Group_24" data-name="Group 24" transform="translate(-239.283 -78)">
    <path id="Path_296-2647" data-name="Path 296" d="M232.953,40.713H573.016v92.408" transform="translate(316.047 211.881)" fill="none" stroke="#6C63FF" stroke-miterlimit="10" stroke-width="2px" stroke-dasharray="12"></path>
    <path id="Path_297-2648" data-name="Path 297" d="M573.016,133.121H232.953V40.713" transform="translate(193.984 586.882)" fill="none" stroke="#6C63FF" stroke-miterlimit="10" stroke-width="2px" stroke-dasharray="12"></path>
    <g id="Group_22" data-name="Group 22" transform="translate(-523.844 -217.094)">
      <path id="Path_284-2649" data-name="Path 284" d="M11.029,0H279.243a11.025,11.025,0,0,1,11.025,11.025v501.88a11.025,11.025,0,0,1-11.025,11.025H11.029A11.025,11.025,0,0,1,0,512.907V11.027A11.025,11.025,0,0,1,11.029,0Z" transform="translate(763.123 295.092)" fill="#3E3C55"></path>
      <path id="Path_285-2650" data-name="Path 285" d="M497.548,104.162a23.26,23.26,0,0,1-22.924,19.783l-99.1,0A23.26,23.26,0,0,1,352.6,104.159h-52.49a10.9,10.9,0,0,0-10.9,10.9L289.2,585.163a10.9,10.9,0,0,0,10.9,10.9l250.726.006a10.9,10.9,0,0,0,10.9-10.9l.011-470.108a10.9,10.9,0,0,0-10.9-10.9Z" transform="translate(481.837 212.369)" fill="#E6E6E6"></path>
      <rect id="Rectangle_112" data-name="Rectangle 112" width="65.404" height="4.088" rx="1.42" transform="translate(874.929 318.031)" fill="#DBDBDB"></rect>
      <circle id="Ellipse_24" data-name="Ellipse 24" cx="2.453" cy="2.453" r="2.453" transform="translate(951.779 317.214)" fill="#DBDBDB"></circle>
      <rect id="Rectangle_117" data-name="Rectangle 117" width="243" height="424" rx="16" transform="translate(786.844 352.094)" fill="#FFFFFF"></rect>
      <g id="Group_20" data-name="Group 20" transform="translate(815.506 439.142)">
        <rect id="Rectangle_55" data-name="Rectangle 55" width="28.309" height="6.815" transform="translate(35.649)" fill="#15A04B"></rect>
        <rect id="Rectangle_56" data-name="Rectangle 56" width="9.961" height="6.815" transform="translate(152.032)" fill="#15A04B"></rect>
        <rect id="Rectangle_57" data-name="Rectangle 57" width="9.961" height="6.815" transform="translate(171.953)" fill="#15A04B"></rect>
        <rect id="Rectangle_58" data-name="Rectangle 58" width="67.628" height="6.815" transform="translate(73.919)" fill="#15A04B"></rect>
        <rect id="Rectangle_59" data-name="Rectangle 59" width="28.309" height="6.815" transform="translate(0 44.037)" fill="#15A04B"></rect>
        <rect id="Rectangle_60" data-name="Rectangle 60" width="9.961" height="6.815" transform="translate(116.383 44.037)" fill="#15A04B"></rect>
        <rect id="Rectangle_61" data-name="Rectangle 61" width="9.961" height="6.815" transform="translate(136.304 44.037)" fill="#15A04B"></rect>
        <rect id="Rectangle_62" data-name="Rectangle 62" width="67.628" height="6.815" transform="translate(38.27 44.037)" fill="#15A04B"></rect>
        <rect id="Rectangle_63" data-name="Rectangle 63" width="28.309" height="6.815" transform="translate(116.907 15.203)" fill="#15A04B"></rect>
        <rect id="Rectangle_64" data-name="Rectangle 64" width="28.309" height="6.815" transform="translate(155.177 15.203)" fill="#15A04B"></rect>
        <rect id="Rectangle_66" data-name="Rectangle 66" width="9.961" height="6.815" transform="translate(0 15.203)" fill="#15A04B"></rect>
        <rect id="Rectangle_67" data-name="Rectangle 67" width="9.961" height="6.815" transform="translate(19.921 15.203)" fill="#15A04B"></rect>
        <rect id="Rectangle_68" data-name="Rectangle 68" width="67.628" height="6.815" transform="translate(39.843 15.203)" fill="#15A04B"></rect>
        <rect id="Rectangle_69" data-name="Rectangle 69" width="28.309" height="6.815" transform="translate(58.192 29.882)" fill="#15A04B"></rect>
        <rect id="Rectangle_70" data-name="Rectangle 70" width="28.309" height="6.815" transform="translate(19.921 29.882)" fill="#15A04B"></rect>
        <rect id="Rectangle_71" data-name="Rectangle 71" width="9.961" height="6.815" transform="translate(0 29.882)" fill="#15A04B"></rect>
        <rect id="Rectangle_73" data-name="Rectangle 73" width="9.961" height="6.815" transform="translate(173.526 29.882)" fill="#15A04B"></rect>
        <rect id="Rectangle_74" data-name="Rectangle 74" width="67.628" height="6.815" transform="translate(95.937 29.882)" fill="#15A04B"></rect>
      </g>
      <rect id="Rectangle_114" data-name="Rectangle 114" width="138" height="43" rx="12" transform="translate(838.844 564.094)" fill="#15A04B"></rect>
      <rect id="Rectangle_115" data-name="Rectangle 115" width="138" height="43" rx="12" transform="translate(838.844 640.094)" fill="#E6E6E6"></rect>
    </g>
    <g id="Group_23" data-name="Group 23" transform="translate(22.454 75)">
      <path id="Path_284-2-2651" data-name="Path 284" d="M8.186,0H207.242a8.182,8.182,0,0,1,8.182,8.182V380.656a8.182,8.182,0,0,1-8.182,8.182H8.186A8.182,8.182,0,0,1,0,380.656V8.184A8.182,8.182,0,0,1,8.186,0Z" transform="translate(763.123 295.092)" fill="#3E3C55"></path>
      <path id="Path_285-2-2652" data-name="Path 285" d="M443.827,104.161a17.262,17.262,0,0,1-17.013,14.682l-73.546,0a17.262,17.262,0,0,1-17.013-14.683H297.3a8.087,8.087,0,0,0-8.087,8.087L289.2,461.137a8.087,8.087,0,0,0,8.087,8.087l186.077,0a8.087,8.087,0,0,0,8.087-8.087l.008-348.892a8.087,8.087,0,0,0-8.087-8.087Z" transform="translate(479.796 206.842)" fill="#E6E6E6"></path>
      <rect id="Rectangle_112-2" data-name="Rectangle 112" width="48.54" height="3.034" rx="1.42" transform="translate(846.101 312.117)" fill="#DBDBDB"></rect>
      <circle id="Ellipse_24-2" data-name="Ellipse 24" cx="1.82" cy="1.82" r="1.82" transform="translate(903.135 311.511)" fill="#DBDBDB"></circle>
      <g id="Rectangle_117-2" data-name="Rectangle 117" transform="translate(781 336)" fill="#FFFFFF" stroke="#3E3C55" stroke-width="1">
        <rect width="180" height="315" rx="16" stroke="none" fill="#FFFFFF"></rect>
        <rect x="0.5" y="0.5" width="179" height="314" rx="15.5" fill="none" stroke="#3E3C55"></rect>
      </g>
      <g id="Rectangle_118" data-name="Rectangle 118" transform="translate(802 402)" fill="#FFFFFF" stroke="#707070" stroke-width="2px">
        <rect width="136" height="38" stroke="none" fill="#FFFFFF" stroke-width="2px"></rect>
        <rect x="1" y="1" width="134" height="36" fill="none" stroke="#707070" stroke-width="2px"></rect>
      </g>
      <g id="Rectangle_114-2" data-name="Rectangle 114" transform="translate(819 495)" fill="#FFFFFF" stroke="#3E3C55" stroke-width="2px">
        <rect width="103" height="32" stroke="none" fill="#FFFFFF" stroke-width="2px"></rect>
        <rect x="1" y="1" width="101" height="30" fill="none" stroke="#3E3C55" stroke-width="2px"></rect>
      </g>
      <g id="Rectangle_119" data-name="Rectangle 119" transform="translate(819 544)" fill="#FFFFFF" stroke="#3E3C55" stroke-width="2px">
        <rect width="103" height="32" stroke="none" fill="#FFFFFF" stroke-width="2px"></rect>
        <rect x="1" y="1" width="101" height="30" fill="none" stroke="#3E3C55" stroke-width="2px"></rect>
      </g>
    </g>
  </g>
</svg>