<svg width="2370" height="2370" viewBox="0 0 2370 2370" fill="none" xmlns="http://www.w3.org/2000/svg">
  <path d="M1046.75 2297.32L72.6808 1323.25C-3.15922 1247.41 -3.15922 1122.59 72.6808 1046.75L1046.75 72.6798C1122.59 -3.16019 1247.41 -3.16019 1323.25 72.6798L2297.32 1046.75C2373.16 1122.59 2373.16 1247.41 2297.32 1323.25L1323.25 2297.32C1304.29 2316.28 1282.17 2330.5 1259.26 2339.98C1258.47 2339.98 1113.11 2340.77 1113.11 2340.77C1088.62 2331.29 1065.71 2316.28 1046.75 2297.32Z" fill="#15A04B"/>
  <path d="M1837.54 781.31C1773.55 781.31 1720.62 834.24 1720.62 898.23C1720.62 949.58 1754.59 995.4 1802.78 1010.41V1227.66C1802.78 1350.9 1725.36 1418.84 1551.56 1446.49C1527.86 1400.67 1478.09 1371.44 1399.88 1359.59H1399.09C1337.47 1351.69 1290.86 1333.52 1256.89 1305.87V1248.2C1290.07 1218.97 1336.68 1200.8 1400.67 1192.9H1401.46C1511.27 1176.31 1567.36 1124.17 1567.36 1039.64V912.45C1617.92 899.81 1656.63 853.99 1656.63 798.69C1656.63 733.91 1603.7 680.98 1539.71 680.98C1475.72 680.98 1422.79 733.91 1422.79 799.48C1422.79 855.57 1463.08 902.97 1515.22 914.03V1040.43C1515.22 1098.89 1478.88 1128.91 1393.56 1142.34C1338.26 1148.66 1293.23 1162.88 1257.68 1185V801.06C1300.34 775.78 1328.78 729.96 1328.78 677.82C1328.78 598.82 1264.79 534.04 1185 534.04C1106 534.04 1041.22 598.03 1041.22 677.82C1041.22 730.75 1069.66 776.57 1112.32 801.06V1128.91C1079.93 1113.11 1041.22 1102.05 995.401 1096.52C888.751 1080.72 875.321 1034.9 875.321 996.19V906.92C926.671 895.07 966.171 848.46 966.171 792.37C966.171 728.38 913.241 675.45 849.251 675.45C785.261 675.45 732.331 727.59 732.331 791.58C732.331 847.67 771.831 893.49 823.181 906.13V995.4C823.181 1079.93 878.481 1131.28 988.291 1147.08C1041.22 1154.98 1081.51 1166.83 1112.32 1188.16V1372.23C1038.85 1325.62 946.421 1294.81 831.081 1280.59C653.331 1253.73 574.331 1186.58 574.331 1060.97V1011.2C620.941 995.4 654.121 951.95 654.121 899.81C654.121 835.82 601.191 782.89 537.201 782.89C473.211 782.89 420.281 835.82 420.281 899.81C420.281 951.16 453.461 995.4 500.071 1011.2V1060.97C500.071 1152.61 534.041 1224.5 601.981 1274.27C653.331 1312.98 725.221 1338.26 820.811 1352.48H821.601C949.581 1369.07 1044.38 1405.41 1113.11 1462.29V2340.77C1159.72 2358.94 1212.65 2358.15 1259.26 2339.98V1947.35C1292.44 1918.91 1338.26 1901.53 1401.46 1893.63H1402.25C1512.06 1877.04 1568.15 1824.9 1568.15 1740.37V1721.41C1602.12 1710.35 1627.4 1677.96 1627.4 1640.83C1627.4 1603.7 1602.12 1570.52 1568.15 1560.25V1519.17C1658.21 1504.16 1726.94 1478.88 1776.71 1441.75C1844.65 1391.98 1878.62 1320.09 1878.62 1228.45V1010.41C1921.28 993.82 1953.67 950.37 1953.67 899.02C1953.67 868.21 1941.82 838.98 1920.49 816.07C1898.37 793.95 1869.14 781.31 1837.54 781.31ZM1464.66 799.48C1464.66 758.4 1497.84 725.22 1538.13 725.22C1579.21 725.22 1611.6 758.4 1611.6 799.48C1611.6 840.56 1578.42 872.95 1538.13 872.95C1498.63 872.95 1464.66 838.98 1464.66 799.48ZM847.671 865.05C807.381 865.05 774.201 831.87 774.201 791.58C774.201 750.5 807.381 718.11 847.671 718.11C887.961 718.11 921.141 751.29 921.141 791.58C921.141 831.87 887.171 865.05 847.671 865.05ZM535.621 971.7C495.331 971.7 462.151 939.31 462.151 898.23C462.151 857.15 495.331 824.76 535.621 824.76C575.911 824.76 609.091 857.94 609.091 898.23C609.091 938.52 575.121 971.7 535.621 971.7ZM1183.42 776.57C1128.12 776.57 1083.09 731.54 1083.09 676.24C1083.09 620.15 1128.12 575.12 1183.42 575.12C1238.72 575.12 1283.75 620.15 1283.75 675.45C1283.75 730.75 1238.72 776.57 1183.42 776.57ZM1256.1 1369.07C1292.44 1389.61 1336.68 1403.83 1391.19 1410.94C1441.75 1418.84 1475.72 1432.27 1493.89 1455.18C1399.09 1472.56 1319.3 1501.79 1256.1 1543.66V1369.07ZM1513.64 1560.25C1479.67 1571.31 1454.39 1603.7 1454.39 1640.83C1454.39 1679.54 1479.67 1711.14 1513.64 1721.41V1740.37C1512.85 1798.83 1477.3 1828.85 1391.98 1842.28C1337.47 1848.6 1293.23 1862.82 1257.68 1884.15V1636.09C1319.3 1581.58 1403.04 1546.03 1513.64 1527.07V1560.25ZM1837.54 972.49C1796.46 972.49 1764.07 939.31 1764.07 899.02C1764.07 858.73 1797.25 825.55 1837.54 825.55C1857.29 825.55 1876.25 833.45 1890.47 846.88C1904.69 861.1 1911.01 879.27 1911.01 898.23C1911.01 939.31 1877.83 972.49 1837.54 972.49Z" fill="white"/>
</svg>
