<?xml version="1.0" ?><svg id="Lager_1" style="enable-background:new 0 0 128 128;" version="1.1" viewBox="0 0 128 128" xml:space="preserve" xmlns="http://www.w3.org/2000/svg" xmlns:xlink="http://www.w3.org/1999/xlink"><style type="text/css">
	.st0{fill:#E6F0FF;}
	.st1{fill:#2F72E1;}
</style><path class="st0" d="M64,14c-27.6,0-50,22.4-50,50s22.4,50,50,50s50-22.4,50-50S91.6,14,64,14z"/><g><path class="st1" d="M87.4,47.4c0.6-0.8,1-1.9,1-3c0-2.6-2.1-4.8-4.8-4.8c-1.1,0-2.2,0.4-3,1c-4.7-3.3-10.4-5.3-16.6-5.3   c-15.8,0-28.7,12.8-28.7,28.7S48.2,92.7,64,92.7c15.8,0,28.7-12.8,28.7-28.7C92.7,57.8,90.7,52.1,87.4,47.4z M64,88.4   c-13.4,0-24.4-10.9-24.4-24.4c0-13.4,10.9-24.4,24.4-24.4c5.6,0,10.7,1.9,14.8,5c0.1,2.4,2.1,4.4,4.5,4.5c3.2,4.1,5.1,9.3,5.1,14.8   C88.4,77.4,77.4,88.4,64,88.4z"/><circle class="st1" cx="64" cy="64" r="13.2"/></g></svg>