
<svg version="1.1" id="Layer_1" xmlns="http://www.w3.org/2000/svg" xmlns:xlink="http://www.w3.org/1999/xlink" x="0px" y="0px"
	 viewBox="0 0 3000 3000" style="enable-background:new 0 0 3000 3000;" xml:space="preserve">
<circle class="st0" fill="#8CC84B" cx="1500" cy="1500" r="1500"/>
<g>
	<path class="st1" fill="#FFFFFF" d="M1398.1,282c61.7-35.3,142.1-35.5,203.8,0c310.2,175.3,620.6,350.3,930.8,525.7c58.3,32.9,97.4,97.8,96.8,165
		v1054.7c0.4,70-42.4,136.5-104,168.6c-309.2,174.3-618.3,348.9-927.4,523.2c-63,36-145,33.2-206-5.7
		c-92.7-53.7-185.6-107.2-278.3-160.9c-18.9-11.3-40.3-20.3-53.7-38.7c11.8-15.9,33-17.9,50.2-24.9c38.7-12.3,74.2-32.1,109.8-51.2
		c9-6.2,20-3.8,28.6,1.7c79.3,45.5,157.8,92.2,237.4,137.2c17,9.8,34.1-3.2,48.7-11.3c303.4-171.5,607.3-342.3,910.6-513.9
		c11.2-5.4,17.5-17.3,16.5-29.7c0.2-347.9,0.1-695.9,0.1-1043.8c1.3-14-6.8-26.8-19.4-32.5c-308.1-173.5-616.1-347.3-924.2-520.9
		c-10.9-7.5-25.3-7.5-36.3-0.1c-308.1,173.6-616,347.6-924.1,521.1c-12.6,5.7-21,18.4-19.5,32.4c0.1,347.9,0,695.9,0,1043.9
		c-1.1,12.3,5.6,24,16.8,29.3c82.2,46.6,164.5,92.9,246.8,139.4c46.3,24.9,103.3,39.8,154.3,20.7c45.1-16.2,76.6-62.1,75.8-110
		c0.4-345.9-0.2-691.8,0.3-1037.7c-1.1-15.4,13.4-28,28.4-26.6c39.5-0.3,79.1-0.5,118.6,0.1c16.5-0.4,27.8,16.2,25.8,31.6
		c-0.2,348.1,0.4,696.2-0.3,1044.2c0.1,92.8-38,193.7-123.8,239.1c-105.7,54.8-236.4,43.1-340.8-9.4
		c-90.4-45.1-176.7-98.4-265.5-146.7c-61.7-31.9-104.4-98.7-103.9-168.6V972.7C370,904.1,410.5,838,470.7,805.6
		C779.9,631.1,1089,456.5,1398.1,282z"/>
	<path class="st1" fill="#FFFFFF" d="M1667.8,1012.6c134.8-8.7,279.2-5.1,400.5,61.3c93.9,50.9,146,157.7,147.7,262.1
		c-2.6,14.1-17.3,21.8-30.8,20.9c-39.1-0.1-78.3,0.5-117.4-0.3c-16.6,0.6-26.2-14.7-28.3-29.3c-11.2-49.9-38.5-99.4-85.5-123.5
		c-72.2-36.1-155.8-34.3-234.5-33.6c-57.4,3-119.2,8-167.9,41.8c-37.4,25.6-48.7,77.2-35.4,118.8c12.6,29.9,47,39.5,75.3,48.4
		c162.5,42.5,334.7,38.3,494.1,94.2c66,22.8,130.5,67.1,153.1,136.2c29.5,92.6,16.6,203.3-49.3,277.6
		c-53.4,61.2-131.2,94.5-208.9,112.6c-103.3,23-210.4,23.6-315.3,13.4c-98.6-11.2-201.2-37.1-277.3-104.3
		c-65.1-56.5-96.9-144.6-93.7-229.6c0.8-14.4,15-24.4,28.8-23.2c39.4-0.3,78.8-0.4,118.2,0.1c15.7-1.1,27.4,12.5,28.2,27.3
		c7.3,47.6,25.2,97.5,66.6,125.7c80.1,51.7,180.5,48.1,272.2,49.6c76-3.4,161.2-4.4,223.2-54.6c32.7-28.6,42.4-76.5,33.6-117.8
		c-9.6-34.8-46-51-77.2-61.6c-160.4-50.7-334.5-32.3-493.4-89.7c-64.5-22.8-126.9-65.9-151.6-132.1
		c-34.6-93.8-18.7-209.8,54.1-281.6C1467.9,1049.9,1570.4,1022.4,1667.8,1012.6L1667.8,1012.6z"/>
</g>
</svg>
