<svg width="150" height="150" viewBox="0 0 150 150" fill="none" xmlns="http://www.w3.org/2000/svg">
<path d="M9.38878 74.8717C9.38878 84.7299 19.0635 93.9323 34.3156 99.1197C31.2698 114.376 33.7701 126.673 42.1201 131.465C50.7027 136.39 63.4892 132.981 75.6255 122.425C87.4554 132.554 99.4112 136.541 107.754 131.735C116.329 126.796 118.936 113.666 115.807 97.9325C131.693 92.7067 140.579 84.8597 140.579 74.8717C140.579 65.2424 130.887 56.9121 115.84 51.7581C119.21 35.3751 116.355 23.3765 107.659 18.3872C99.2751 13.5769 87.1801 17.7695 75.1763 28.1637C62.6879 17.1313 50.7125 13.7631 42.0258 18.7663C33.65 23.5905 31.26 36.1113 34.3156 51.6499C19.578 56.7623 9.38878 65.2814 9.38878 74.8717Z" fill="white"/>
<path d="M112.654 56.8762C111.413 56.453 110.163 56.0609 108.903 55.7003C109.112 54.8556 109.305 54.007 109.482 53.1551C112.321 39.4425 110.465 28.3956 104.126 24.7592C98.0484 21.2715 88.1082 24.908 78.069 33.6005C77.0798 34.459 76.1125 35.3422 75.1681 36.2493C74.5357 35.6461 73.892 35.0547 73.2376 34.4752C62.7163 25.1799 52.1702 21.2633 45.8378 24.9105C39.7658 28.408 37.9673 38.7935 40.5232 51.7889C40.7775 53.0758 41.0647 54.3561 41.3843 55.6285C39.8921 56.0502 38.451 56.4996 37.0722 56.9778C24.7374 61.2566 16.8597 67.9631 16.8597 74.9189C16.8597 82.1036 25.3159 89.3098 38.1643 93.6789C39.2061 94.0315 40.2566 94.3582 41.3147 94.6588C40.971 96.0296 40.6658 97.4097 40.3995 98.7975C37.9627 111.567 39.8658 121.706 45.9218 125.182C52.1769 128.771 62.675 125.082 72.8978 116.191C73.7058 115.488 74.5169 114.743 75.329 113.962C76.3519 114.944 77.4021 115.897 78.4784 116.821C88.3805 125.299 98.1598 128.722 104.211 125.237C110.46 121.638 112.491 110.745 109.854 97.4928C109.653 96.4806 109.418 95.4468 109.155 94.3941C109.892 94.1776 110.616 93.9539 111.322 93.7209C124.678 89.318 133.368 82.1995 133.368 74.9189C133.368 67.938 125.237 61.1863 112.654 56.8762V56.8762Z" fill="#53C1DE"/>
<path d="M109.756 89.0205C109.119 89.2303 108.466 89.4329 107.799 89.6294C106.325 84.9849 104.334 80.0458 101.9 74.9436C104.224 69.9619 106.137 65.0865 107.57 60.4716C108.762 60.8154 109.919 61.1771 111.033 61.5593C121.815 65.2517 128.391 70.712 128.391 74.9189C128.391 79.4004 121.289 85.2183 109.757 89.0205H109.756ZM104.971 98.4548C106.137 104.315 106.304 109.613 105.531 113.755C104.837 117.476 103.442 119.957 101.717 120.951C98.0448 123.066 90.1924 120.317 81.7248 113.067C80.7539 112.236 79.7757 111.348 78.795 110.409C82.078 106.836 85.3589 102.683 88.5609 98.0705C94.1936 97.5734 99.5149 96.7602 104.341 95.6505C104.578 96.6048 104.789 97.5401 104.971 98.4548V98.4548ZM56.5798 120.586C52.9926 121.847 50.1355 121.882 48.4087 120.892C44.7333 118.783 43.206 110.641 45.2897 99.721C45.5375 98.4305 45.8212 97.147 46.1405 95.8722C50.9126 96.9224 56.1952 97.6781 61.8413 98.1336C65.0644 102.647 68.4402 106.795 71.8423 110.428C71.1193 111.124 70.3791 111.802 69.6225 112.462C65.1021 116.394 60.5723 119.183 56.5803 120.586H56.5798ZM39.774 88.9928C34.0929 87.0606 29.4012 84.5498 26.1853 81.8101C23.2957 79.3475 21.8365 76.9029 21.8365 74.9189C21.8365 70.6981 28.1617 65.3137 38.7108 61.6542C40.0349 61.1969 41.3721 60.7782 42.7208 60.3988C44.179 65.1172 46.0915 70.0507 48.3994 75.0395C46.0616 80.1027 44.1218 85.1147 42.6502 89.8885C41.6843 89.6134 40.7252 89.3147 39.774 88.9928V88.9928ZM45.4078 50.8377C43.2179 39.7031 44.672 31.3041 48.3314 29.1965C52.2295 26.9514 60.8482 30.1528 69.9324 38.1784C70.513 38.6914 71.0962 39.2286 71.6804 39.7842C68.2958 43.4006 64.951 47.5178 61.7557 52.0049C56.2761 52.5102 51.0307 53.3219 46.2085 54.409C45.9115 53.2253 45.6445 52.0343 45.4078 50.8372V50.8377ZM95.6642 63.1851C94.5252 61.2276 93.344 59.2947 92.1213 57.3877C95.839 57.8546 99.4004 58.4754 102.745 59.2352C101.741 62.4371 100.489 65.7852 99.0158 69.2175C97.939 67.1847 96.8216 65.1735 95.6642 63.1851V63.1851ZM75.1696 43.3232C77.4652 45.7976 79.7644 48.5608 82.0259 51.5585C77.4384 51.3428 72.8432 51.3418 68.2556 51.5555C70.5192 48.5854 72.838 45.8263 75.1696 43.3232V43.3232ZM54.5436 63.219C53.4007 65.1916 52.3041 67.1904 51.255 69.2139C49.8055 65.7934 48.5655 62.4304 47.5528 59.1829C50.877 58.4426 54.4219 57.8377 58.1153 57.3785C56.879 59.2972 55.6881 61.2446 54.5436 63.219V63.219ZM58.2216 92.8129C54.4059 92.3891 50.8074 91.815 47.4842 91.0952C48.5129 87.7902 49.7803 84.3548 51.2606 80.861C52.3142 82.886 53.4156 84.8861 54.5637 86.8595C55.7353 88.8726 56.9549 90.8576 58.2216 92.8129V92.8129ZM75.3073 106.865C72.9483 104.332 70.5955 101.531 68.2974 98.5174C70.528 98.6046 72.8024 98.6487 75.1139 98.6487C77.4889 98.6487 79.8366 98.5959 82.1471 98.4933C79.8783 101.561 77.5874 104.367 75.3073 106.865ZM99.0632 80.683C100.62 84.2148 101.933 87.6316 102.976 90.8807C99.5974 91.6477 95.9504 92.2655 92.1074 92.7241C93.3389 90.7816 94.5314 88.8149 95.6843 86.8251C96.8563 84.803 97.9828 82.7551 99.0632 80.683V80.683ZM91.3726 84.3512C89.6078 87.4018 87.7436 90.3944 85.7833 93.3244C82.3265 93.5701 78.7543 93.6968 75.1139 93.6968C71.4886 93.6968 67.9617 93.5845 64.5653 93.3654C62.5541 90.4423 60.6547 87.4445 58.8712 84.3784C57.0961 81.3287 55.4381 78.2129 53.9006 75.038C55.4342 71.862 57.0872 68.7446 58.8563 65.6924V65.6934C60.6248 62.6405 62.5092 59.6555 64.5055 56.7449C67.9705 56.4843 71.5231 56.3478 75.1145 56.3478C78.7218 56.3478 82.2791 56.4853 85.743 56.748C87.7191 59.6541 89.5915 62.6287 91.3567 65.6662C93.1318 68.7117 94.8069 71.8138 96.3794 74.9677C94.8231 78.1537 93.1533 81.2835 91.3732 84.3512H91.3726ZM101.64 29.0493C105.541 31.2882 107.059 40.3162 104.608 52.1557C104.447 52.927 104.272 53.6953 104.084 54.4603C99.2504 53.3506 94.0013 52.5246 88.5058 52.0116C85.3042 47.4757 81.9872 43.3514 78.6573 39.7816C79.5299 38.9446 80.4232 38.1293 81.3365 37.3365C89.9382 29.8881 97.9773 26.9473 101.64 29.0493V29.0493Z" fill="white"/>
<path d="M75.114 64.5673C80.8601 64.5673 85.5177 69.2021 85.5177 74.9189C85.5177 80.6363 80.8601 85.2711 75.114 85.2711C69.3683 85.2711 64.7102 80.6363 64.7102 74.9189C64.7102 69.2021 69.3683 64.5673 75.114 64.5673" fill="#53C1DE"/>
</svg>
