<svg width="150" height="150" viewBox="0 0 150 150" fill="none" xmlns="http://www.w3.org/2000/svg">
<g clip-path="url(#clip0)">
<path d="M53.3935 119.415L27.51 48.4772L98.5912 29.4305L111.521 103.834L84.571 119.709L53.3935 119.415" fill="#E44D26"/>
<path d="M82.9634 113.524L104.738 100.69L93.6857 37.1075L64.6353 44.8925L82.9634 113.524Z" fill="#F16529"/>
<path d="M132.398 66.1301L135.71 77.545L110.354 84.7213C110.354 84.7213 110.354 99.9981 98.0493 106.071C85.7461 112.144 76.1879 106.994 76.1879 106.994L74.6573 102.577L92.909 97.606L96.9486 81.9588L85.1899 70.3731L68.2871 75.4941L66.8193 71.4752C66.8193 71.4757 74.7168 53.9904 98.0525 63.935C98.0525 63.935 105.406 68.5313 107.055 72.5847L132.398 66.1301V66.1301ZM135.71 65.2728L139.75 64.1068L143 75.7639L138.771 77.0485L135.71 65.2728V65.2728Z" fill="#EFEFEF"/>
<path d="M137.133 64.7582L139.75 64.1068L143 75.7639L138.771 77.0485L137.664 73.1451L139.351 72.4836L137.133 64.7582V64.7582ZM129.602 66.8443L132.398 66.1301L135.71 77.545L110.354 84.7213C110.354 84.7213 110.081 98.0509 101.257 104.087C92.4478 110.117 82.5198 109.936 76.1847 106.995L75.4787 104.958C75.4787 104.958 92.7198 109.019 101.257 96.042C106.405 87.4864 106.315 81.3186 106.315 81.3186L131.758 74.4191L129.602 66.8443V66.8443ZM66.8161 71.4683L81.6985 67.1418L85.1835 70.3656L68.2839 75.4866L66.8161 71.4683Z" fill="#BCBCBC"/>
<path d="M14.3493 79.5587L17.3371 91.0609L42.7807 84.2343C42.7807 84.2343 50.588 97.3543 64.265 96.2618C77.9463 95.1698 83.5197 85.8479 83.5197 85.8479L82.5767 81.2697L64.3596 86.3555L52.8936 74.9901L57.0762 58.9991L74.2175 54.7354L73.4238 50.5281C73.4238 50.5281 57.7094 39.5539 42.7356 60.0565C42.7356 60.0565 38.7725 67.7719 39.419 72.0989L14.3493 79.5587V79.5587ZM11.0678 80.5214L7 81.589L10.1631 93.2662L14.454 92.2056L11.0678 80.5214V80.5214Z" fill="#EFEFEF"/>
<path d="M9.58294 80.804L7 81.589L10.1631 93.2662L14.454 92.2056L13.4159 88.2809L11.6203 88.5795L9.58294 80.804V80.804ZM17.124 78.7387L14.3493 79.5587L17.3371 91.0609L42.7807 84.2343C42.7807 84.2343 49.8288 95.5412 60.491 96.2064C71.1426 96.8647 79.5746 91.6277 83.5197 85.8479L83.0899 83.7373C83.0899 83.7373 70.3457 96.0665 56.3781 89.2926C47.5859 84.5813 44.5174 79.2283 44.5174 79.2283L19.13 86.3486L17.124 78.7387V78.7387ZM73.4238 50.5319L58.4324 54.4385L57.0799 58.9997L74.2207 54.736L73.4238 50.5319V50.5319Z" fill="#BCBCBC"/>
</g>
<defs>
<clipPath id="clip0">
<rect width="136" height="91" fill="white" transform="translate(7 29)"/>
</clipPath>
</defs>
</svg>
