<svg width="428" height="360" viewBox="0 0 428 360" fill="none" xmlns="http://www.w3.org/2000/svg">
  <g clip-path="url(#clip0)">
    <path opacity="0.15"
      d="M285.789 161.71L260.959 173.485C260.526 173.664 260.049 173.758 259.565 173.758C259.08 173.758 258.602 173.664 258.171 173.485L184.811 138.829C184.641 138.783 184.494 138.695 184.39 138.577C184.285 138.459 184.23 138.316 184.23 138.17C184.23 138.024 184.285 137.882 184.39 137.764C184.494 137.646 184.641 137.557 184.811 137.511L209.641 125.728C210.072 125.551 210.549 125.459 211.03 125.459C211.513 125.459 211.989 125.551 212.42 125.728L285.789 160.392C285.959 160.438 286.106 160.526 286.21 160.644C286.314 160.763 286.37 160.905 286.37 161.051C286.37 161.197 286.314 161.339 286.21 161.457C286.106 161.576 285.959 161.664 285.789 161.71Z"
      fill="black" />
    <path
      d="M186.314 135.421C186.329 135.279 186.391 135.143 186.493 135.027C186.595 134.912 186.735 134.821 186.895 134.766L210.222 123.731C210.652 123.551 211.128 123.456 211.611 123.456C212.095 123.456 212.571 123.551 213.001 123.731L284.191 157.459C284.351 157.516 284.49 157.608 284.59 157.725C284.69 157.842 284.75 157.98 284.762 158.122V160.126C284.748 160.268 284.688 160.404 284.588 160.519C284.487 160.634 284.35 160.725 284.191 160.782L260.874 171.816C260.442 171.997 259.964 172.091 259.479 172.091C258.995 172.091 258.517 171.997 258.085 171.816L186.895 138.127C186.735 138.072 186.595 137.982 186.493 137.866C186.391 137.751 186.329 137.614 186.314 137.472V135.421Z"
      fill="#263238" />
    <path
      d="M260.874 169.765L284.191 158.777C284.36 158.732 284.507 158.643 284.612 158.525C284.716 158.407 284.772 158.264 284.772 158.118C284.772 157.972 284.716 157.83 284.612 157.712C284.507 157.594 284.36 157.505 284.191 157.459L213.001 123.731C212.571 123.551 212.095 123.456 211.611 123.456C211.128 123.456 210.652 123.551 210.222 123.731L186.895 134.766C186.725 134.812 186.578 134.9 186.474 135.019C186.37 135.137 186.314 135.279 186.314 135.425C186.314 135.571 186.37 135.713 186.474 135.832C186.578 135.95 186.725 136.038 186.895 136.084L258.085 169.758C258.517 169.938 258.993 170.032 259.478 170.034C259.962 170.035 260.44 169.943 260.874 169.765Z"
      fill="#37474F" />
    <path
      d="M259.57 170.03V172.081C260.024 172.082 260.472 171.991 260.873 171.816L284.181 160.789C284.343 160.734 284.482 160.642 284.586 160.525C284.688 160.408 284.749 160.27 284.761 160.126V158.115C284.749 158.258 284.688 158.396 284.586 158.513C284.482 158.63 284.343 158.722 284.181 158.777L260.873 169.765C260.471 169.937 260.024 170.028 259.57 170.03Z"
      fill="#263238" />
    <path
      d="M190.635 135.569L192.939 134.478L196.07 135.959L193.748 137.09L190.616 135.608L190.635 135.569ZM194.252 133.862L196.565 132.77L199.029 133.932L196.707 135.008L194.252 133.846V133.862ZM195.014 137.644L197.326 136.552L199.781 137.714L197.46 138.845L195.004 137.683L195.014 137.644ZM197.869 132.185L200.181 131.093L204.15 132.98L201.827 134.103L197.859 132.224L197.869 132.185ZM197.954 135.647L200.258 134.548L202.218 135.476L199.906 136.568L197.954 135.624V135.647ZM198.715 139.422L201.019 138.33L203.484 139.492L201.152 140.623L198.696 139.461L198.715 139.422ZM201.152 137.16L203.455 136.069L205.358 136.997L203.037 138.127L201.133 137.199L201.152 137.16ZM201.475 130.469L203.788 129.377L206.92 130.859L204.616 131.935L201.485 130.454L201.475 130.469ZM202.427 141.176L204.731 140.085L222.509 148.491L220.186 149.622L202.408 141.215L202.427 141.176ZM203.094 134.649L205.397 133.557L207.3 134.485L204.978 135.608L203.027 134.688L203.094 134.649ZM204.36 138.673L206.662 137.581L208.614 138.509L206.291 139.64L204.34 138.712L204.36 138.673ZM205.093 128.769L207.395 127.677L209.356 128.605L207.033 129.728L205.102 128.769H205.093ZM205.854 132.551L208.156 131.46L210.117 132.38L207.814 133.448L205.854 132.528V132.551ZM206.282 136.17L208.585 135.078L210.536 136.006L208.214 137.129L206.263 136.209L206.282 136.17ZM207.548 140.194L209.85 139.102L211.754 140.03L209.432 141.161L207.529 140.233L207.548 140.194ZM208.29 130.282L210.594 129.19L212.554 130.118L210.231 131.241L208.328 130.321L208.29 130.282ZM209.051 134.064L211.355 132.973L213.315 133.893L210.993 135.024L209.042 134.103L209.051 134.064ZM209.479 137.683L211.783 136.591L213.686 137.519L211.364 138.642L209.46 137.722L209.479 137.683ZM209.479 126.695L211.783 125.603L214.248 126.765L211.916 127.896L209.46 126.734L209.479 126.695ZM210.746 141.707L213.049 140.615L214.999 141.543L212.678 142.674L210.727 141.746L210.746 141.707ZM211.488 131.795L213.791 130.703L215.751 131.631L213.449 132.668L211.497 131.748L211.488 131.795ZM212.249 135.577L214.552 134.485L216.513 135.406L214.191 136.536L212.23 135.554L212.249 135.577ZM212.678 139.196L214.98 138.104L216.932 139.032L214.609 140.155L212.658 139.235L212.678 139.196ZM213.943 143.22L216.247 142.128L218.15 143.056L215.828 144.187L213.924 143.259L213.943 143.22ZM214.571 129.105L216.885 128.013L218.835 128.933L216.513 130.064L214.562 129.144L214.571 129.105ZM214.685 133.308L216.989 132.216L218.95 133.144L216.637 134.228L214.733 133.308H214.685ZM215.448 137.09L217.75 135.998L219.711 136.919L217.388 138.049L215.437 137.129L215.448 137.09ZM215.876 140.709L218.178 139.617L220.082 140.545L217.76 141.668L215.857 140.748L215.876 140.709ZM217.141 144.733L219.463 143.586L221.367 144.514L219.045 145.645L217.093 144.717L217.141 144.733ZM217.769 130.617L220.073 129.526L222.034 130.446L219.711 131.577L217.807 130.656L217.769 130.617ZM217.884 134.821L220.186 133.729L222.147 134.657L219.844 135.718L217.941 134.797L217.884 134.821ZM218.645 138.603L220.948 137.511L222.909 138.431L220.586 139.562L218.636 138.642L218.645 138.603ZM219.073 142.221L221.386 141.13L223.337 142.058L221.015 143.181L219.064 142.26L219.073 142.221ZM220.339 146.245L222.642 145.146L224.593 146.074L222.271 147.205L220.32 146.277L220.339 146.245ZM220.967 132.13L223.28 131.039L225.231 131.959L222.909 133.09L220.957 132.169L220.967 132.13ZM221.082 136.334L223.393 135.242L225.345 136.17L223.013 137.293L221.11 136.373L221.082 136.334ZM221.434 150.184L223.746 149.092L226.202 150.254L223.88 151.385L221.424 150.223L221.434 150.184ZM221.843 140.116L224.146 139.024L226.106 139.944L223.785 141.075L221.833 140.155L221.843 140.116ZM222.271 143.734L224.584 142.643L226.506 143.508L224.184 144.631L222.233 143.711L222.271 143.734ZM223.537 147.758L225.841 146.667L227.8 147.595L225.468 148.725L223.518 147.797L223.537 147.758ZM224.165 133.643L226.477 132.551L228.41 133.448L226.087 134.579L224.137 133.659L224.165 133.643ZM224.279 137.847L226.592 136.755L228.543 137.683L226.221 138.806L224.27 137.886L224.279 137.847ZM225.04 141.629L227.353 140.537L229.256 141.457L226.935 142.588L225.031 141.668L225.04 141.629ZM225.135 151.93L227.448 150.839L229.904 152.001L227.582 153.131L225.126 151.969L225.135 151.93ZM225.468 145.247L227.772 144.155L229.676 145.083L227.458 146.144L225.555 145.224L225.468 145.247ZM226.734 149.271L229.038 148.179L230.998 149.107L228.667 150.238L226.716 149.31L226.734 149.271ZM227.477 139.359L229.79 138.268L231.693 139.196L229.371 140.319L227.458 139.336L227.477 139.359ZM228.238 143.142L230.551 142.05L232.502 142.97L230.18 144.101L228.228 143.181L228.238 143.142ZM228.667 146.76L230.969 145.668L232.921 146.596L230.598 147.719L228.667 146.706V146.76ZM228.762 135.842L231.075 134.751L233.025 135.679L230.704 136.809L228.762 135.788V135.842ZM228.838 153.709L231.151 152.617L233.606 153.779L231.265 154.824L228.809 153.662L228.838 153.709ZM229.932 150.808L232.236 149.708L234.197 150.636L231.865 151.767L229.96 150.839L229.932 150.808ZM230.674 140.896L232.978 139.804L234.939 140.732L232.616 141.855L230.665 140.935L230.674 140.896ZM231.437 144.678L233.748 143.586L235.7 144.506L233.377 145.637L231.427 144.717L231.437 144.678ZM231.865 148.296L234.168 147.205L236.128 148.133L233.796 149.256L231.865 148.265V148.296ZM231.959 137.379L234.272 136.287L236.223 137.215L233.901 138.346L231.997 137.418L231.959 137.379ZM232.55 155.487L234.863 154.387L237.994 155.869L235.672 156.999L232.54 155.518L232.55 155.487ZM233.131 152.367L235.433 151.268L241.601 154.184L239.278 155.315L233.169 152.266L233.131 152.367ZM233.873 142.455L236.185 141.364L238.136 142.292L235.814 143.415L233.863 142.494L233.873 142.455ZM234.634 146.238L236.947 145.146L238.879 145.926L236.556 147.056L234.606 146.136L234.634 146.238ZM235.062 149.856L237.366 148.764L239.325 149.692L236.976 150.683L235.072 149.763L235.062 149.856ZM235.157 138.938L237.47 137.847L239.422 138.775L237.099 139.905L235.147 138.977L235.157 138.938ZM237.061 143.992L239.374 142.9L241.324 143.828L239.003 144.951L237.052 144.031L237.061 143.992ZM237.584 157.92L239.887 156.828L241.848 157.748L239.516 158.879L237.614 157.959L237.584 157.92ZM237.822 147.782L240.135 146.69L242.038 147.61L239.831 148.577L237.927 147.657L237.822 147.782ZM238.25 151.4L240.554 150.308L242.343 151.151C242.517 151.223 242.71 151.258 242.905 151.252C243.109 151.258 243.31 151.223 243.494 151.151L246.53 149.716L248.815 150.8L242.886 153.638L238.231 151.439L238.25 151.4ZM238.346 140.482L240.658 139.391L242.61 140.319L240.306 141.247L238.356 140.319L238.346 140.482ZM240.249 145.536L242.553 144.444L244.512 145.372L242.191 146.495L240.287 145.575L240.249 145.536ZM240.773 159.464L243.076 158.372L245.037 159.292L242.704 160.423L240.802 159.503L240.773 159.464ZM241.01 149.326L243.323 148.234L245.275 149.154L242.952 150.285L241.001 149.365L241.01 149.326ZM242.914 142.658L245.217 141.566L247.178 142.487L244.846 143.617L242.895 142.697L242.914 142.658ZM243.437 147.056L245.741 145.965L247.702 146.893L245.379 148.016L243.428 147.095L243.437 147.056ZM243.961 160.984L246.273 159.893L248.225 160.813L245.893 161.944L243.99 161.023L243.961 160.984ZM244.38 157.764L246.683 156.672L248.643 157.6L246.312 158.731L244.408 157.623L244.38 157.764ZM246.112 144.171L248.415 143.079L250.366 143.999L248.044 145.13L246.093 144.21L246.112 144.171ZM246.636 148.569L248.948 147.478L252.412 149.115L250.09 150.246L246.626 148.608L246.636 148.569ZM247.835 162.817L250.138 161.725L255.297 164.158L252.965 165.289L247.816 162.856L247.835 162.817ZM248.406 152.827L250.718 151.736L252.669 152.664L250.347 153.787L248.396 152.866L248.406 152.827ZM249.309 145.684L251.613 144.592L253.565 145.512L251.251 146.448L249.347 145.528L249.309 145.684ZM251.451 161.109L253.764 160.017L255.715 160.945L253.393 162.076L251.441 161.148L251.451 161.109ZM251.604 154.34L253.917 153.248L255.82 154.176L253.497 155.299L251.594 154.379L251.604 154.34ZM252.022 151.119L254.335 150.028L256.238 150.948L253.917 152.079L252.013 151.158L252.022 151.119ZM252.507 147.22L254.811 146.128L256.715 147.049L254.392 148.179L252.488 147.259L252.507 147.22ZM254.23 165.866L256.533 164.774L258.494 165.695L256.162 166.825L254.259 165.905L254.23 165.866ZM254.649 162.646L256.961 161.554L258.865 162.482L256.543 163.613L254.64 162.685L254.649 162.646ZM254.801 155.876L257.114 154.785L259.064 155.713L256.743 156.836L254.792 155.915L254.801 155.876ZM255.068 159.417L257.381 158.325L259.284 159.253L256.961 160.376L255.058 159.456L255.068 159.417ZM255.22 152.656L257.533 151.564L259.484 152.484L257.162 153.615L255.21 152.695L255.22 152.656ZM256.41 149.068L258.712 147.977L260.673 148.897L258.398 149.825L256.448 148.905L256.41 149.068ZM257.428 167.379L263.348 164.572L265.298 165.5L259.369 168.338L257.409 167.418L257.428 167.379ZM257.847 164.158L260.16 163.067L262.11 163.995L259.817 164.899L257.913 163.971L257.847 164.158ZM258.265 160.93L260.578 159.838L262.529 160.766L260.207 161.889L258.294 160.743L258.265 160.93ZM258.418 154.169L260.73 153.077L262.682 153.997L260.359 155.128L258.408 154.208L258.418 154.169ZM258.674 157.709L260.988 156.617L262.939 157.538L260.616 158.668L258.665 157.748L258.674 157.709ZM259.626 150.581L261.93 149.49L263.89 150.41L261.568 151.541L259.617 150.62L259.626 150.581ZM261.482 162.443L263.795 161.351L265.746 162.279L263.424 163.41L261.491 162.302L261.482 162.443ZM261.892 159.222L264.204 158.13L266.156 159.05L263.861 159.963L261.911 159.043L261.892 159.222ZM262.311 156.001L264.613 154.909L266.574 155.83L264.242 156.96L262.339 156.04L262.311 156.001ZM262.824 152.102L265.128 151.01L267.089 151.93L264.766 153.061L262.815 152.141L262.824 152.102ZM264.681 163.963L270.61 161.164L272.56 162.084L266.621 164.93L264.671 164.002L264.681 163.963ZM265.09 160.743L267.402 159.651L269.353 160.571L267.031 161.702L265.08 160.782L265.09 160.743ZM265.508 157.522L267.812 156.43L269.772 157.35L267.431 158.255L265.527 157.335L265.508 157.522ZM267.63 153.49L268.582 153.014L270.543 153.942L269.534 154.449L267.63 153.529V153.49ZM268.706 159.035L271.009 157.943L272.97 158.863L270.638 159.994L268.734 159.074L268.706 159.035ZM270.828 155.003L271.78 154.527L273.741 155.455L272.732 155.962L270.828 155.042V155.003ZM271.903 160.548L274.207 159.456L276.168 160.376L273.836 161.507L271.933 160.587L271.903 160.548ZM274.027 156.516L274.978 156.04L276.939 156.968L275.93 157.475L274.027 156.555V156.516ZM277.215 158.029L278.167 157.553L280.127 158.481L279.118 158.988L277.215 158.068V158.029Z"
      fill="#5BBD81" />
    <path opacity="0.15" d="M343.169 163.995L365.012 153.662L255.791 101.989L233.949 112.322L343.169 163.995Z"
      fill="black" />
    <path
      d="M281.316 147.174L265.726 139.781C264.119 139.001 263.309 138.026 263.309 137.028V135.25L277.985 128.426C278.437 128.184 278.812 127.858 279.082 127.474C279.351 127.091 279.507 126.661 279.536 126.219V110.467L306.775 123.365V139.118C306.746 139.56 306.59 139.99 306.32 140.373C306.051 140.756 305.675 141.082 305.223 141.325L292.965 147.174C291.16 147.923 289.164 148.314 287.141 148.314C285.117 148.314 283.121 147.923 281.316 147.174Z"
      fill="#E6E6E6" />
    <path
      d="M300.237 141.91V143.68L305.223 141.34C305.676 141.099 306.052 140.773 306.322 140.389C306.591 140.006 306.747 139.576 306.775 139.133V123.381L301.588 120.924C301.483 122.008 301.359 123.123 301.255 124.207L304.89 125.939V138.244C304.865 138.687 304.711 139.118 304.441 139.502C304.17 139.886 303.793 140.211 303.339 140.451L300.237 141.91Z"
      fill="#E0E0E0" />
    <path
      d="M304.89 138.229C304.863 138.671 304.708 139.101 304.437 139.485C304.168 139.868 303.792 140.194 303.339 140.436L292.965 145.396C291.16 146.145 289.164 146.536 287.141 146.536C285.117 146.536 283.121 146.145 281.316 145.396L265.717 138.003C262.5 136.49 262.5 134.018 265.717 132.497L276.1 127.537C276.552 127.296 276.928 126.972 277.197 126.59C277.467 126.208 277.623 125.779 277.652 125.338V113.024L304.89 125.923V138.229Z"
      fill="#F5F5F5" />
    <path
      d="M272.941 129.035L276.1 127.537C276.552 127.296 276.928 126.972 277.197 126.59C277.467 126.208 277.623 125.779 277.652 125.338V113.024L304.891 125.923V138.229C304.863 138.671 304.708 139.101 304.438 139.485C304.168 139.868 303.792 140.194 303.339 140.436L300.237 141.91L272.941 129.035Z"
      fill="#EBEBEB" />
    <path
      d="M263.309 135.25V137.028C263.309 138.026 264.119 139.017 265.717 139.781L281.316 147.166C283.027 147.913 284.937 148.302 286.874 148.297V146.526C284.937 146.532 283.027 146.143 281.316 145.396L265.717 138.003C264.119 137.246 263.309 136.248 263.309 135.25Z"
      fill="#EBEBEB" />
    <path
      d="M348.633 155.229C348.045 155.463 347.397 155.58 346.745 155.57C346.092 155.561 345.451 155.425 344.873 155.175L239.526 105.374C238.966 105.07 238.504 104.662 238.173 104.184C237.842 103.706 237.654 103.17 237.622 102.621V27.0313C237.596 26.4876 237.752 25.9484 238.072 25.4719C238.392 24.9954 238.867 24.5997 239.442 24.3276C240.017 24.0555 240.671 23.9172 241.335 23.9278C241.999 23.9384 242.648 24.0974 243.208 24.3876L348.546 74.2273C349.106 74.5315 349.569 74.9393 349.899 75.4175C350.23 75.8958 350.418 76.4311 350.45 76.9801V152.531C350.428 153.066 350.251 153.59 349.936 154.059C349.62 154.528 349.173 154.929 348.633 155.229Z"
      fill="#455A64" />
    <path
      d="M344.872 155.167L239.525 105.374C238.966 105.07 238.503 104.662 238.172 104.184C237.841 103.706 237.653 103.17 237.622 102.621V27.0237C237.622 26.0099 238.487 25.6044 239.525 26.1112L344.872 75.9431C345.429 76.2487 345.892 76.6568 346.222 77.1347C346.553 77.6127 346.742 78.1473 346.776 78.696V154.255C346.814 155.284 345.938 155.674 344.872 155.167Z"
      fill="#37474F" />
    <path
      d="M345.158 155.487C345.722 155.726 346.353 155.84 346.988 155.817C347.623 155.794 348.239 155.635 348.775 155.355C349.311 155.076 349.747 154.686 350.041 154.224C350.335 153.763 350.476 153.246 350.45 152.726V144.226L346.814 145.926V154.426C346.814 155.378 346.1 155.791 345.158 155.487Z"
      fill="#E0E0E0" />
    <path
      d="M346.814 145.926V154.426C346.814 155.44 345.938 155.853 344.91 155.346L239.525 105.53C238.966 105.226 238.503 104.818 238.172 104.34C237.841 103.862 237.653 103.326 237.622 102.777V94.2773L346.814 145.926Z"
      fill="white" />
    <path
      d="M343.169 139.484V79.6862C343.147 79.3555 343.03 79.0337 342.828 78.7466C342.626 78.4595 342.345 78.2151 342.009 78.0329L242.39 30.9149C241.752 30.6108 241.23 30.8525 241.23 31.4608V91.259C241.25 91.5902 241.366 91.9127 241.567 92.2001C241.769 92.4875 242.051 92.7315 242.39 92.9123L342.009 140.038C342.617 140.342 343.169 140.093 343.169 139.484Z"
      fill="#5BBD81" />
    <path opacity="0.5"
      d="M343.169 139.484V79.6862C343.147 79.3555 343.03 79.0337 342.828 78.7466C342.626 78.4595 342.345 78.2151 342.009 78.0329L242.39 30.9149C241.752 30.6108 241.23 30.8525 241.23 31.4608V91.259C241.25 91.5902 241.366 91.9127 241.567 92.2001C241.769 92.4875 242.051 92.7315 242.39 92.9123L342.009 140.038C342.617 140.342 343.169 140.093 343.169 139.484Z"
      fill="white" />
    <path
      d="M292.176 123.365C292.703 123.649 293.143 124.03 293.46 124.478C293.775 124.927 293.958 125.43 293.993 125.946C293.993 126.898 293.175 127.288 292.176 126.812C291.645 126.528 291.201 126.146 290.885 125.696C290.567 125.247 290.383 124.742 290.348 124.223C290.377 123.31 291.224 122.889 292.176 123.365Z"
      fill="#455A64" />
    <path
      d="M346.244 77.1283C346.584 77.6031 346.78 78.138 346.815 78.6879V145.926L350.45 144.202V76.9801C350.423 76.4291 350.227 75.8926 349.879 75.4204L346.244 77.1283Z"
      fill="#263238" />
  </g>
  <defs>
    <clipPath id="clip0">
      <rect width="428" height="360" fill="white" />
    </clipPath>
  </defs>
</svg>
