<svg width="428" height="360" viewBox="0 0 428 360" fill="none" xmlns="http://www.w3.org/2000/svg">
  <g clip-path="url(#clip0)">
    <path
      d="M68.0422 1.81138L16.7533 26.0255C16.3822 26.222 16.0733 26.4876 15.8516 26.8007C15.63 27.1138 15.5019 27.4655 15.478 27.8269V51.2924C15.4943 51.6595 15.6189 52.0179 15.841 52.337C16.0631 52.6561 16.3761 52.9265 16.7533 53.125L21.8165 55.4645C22.2125 55.6265 22.6492 55.7109 23.0918 55.7109C23.5345 55.7109 23.9711 55.6265 24.3671 55.4645L75.656 31.2894C76.0252 31.0895 76.3325 30.8219 76.5538 30.508C76.7752 30.194 76.9044 29.8421 76.9313 29.4802V5.96014C76.909 5.59945 76.7816 5.2484 76.5596 4.93634C76.3378 4.62429 76.0279 4.36031 75.656 4.1665L70.5928 1.82698C70.1982 1.66254 69.7624 1.57553 69.3197 1.57282C68.8771 1.57012 68.4397 1.65179 68.0422 1.81138Z"
      fill="#263238" />
    <path
      d="M76.9137 5.7724C76.8185 5.2421 76.2951 5.05494 75.6574 5.35128L24.3779 29.5654C24.001 29.7587 23.6901 30.0269 23.4737 30.3452L15.8599 26.7657C16.0634 26.4474 16.3652 26.1785 16.7355 25.9859L68.0245 1.8108C68.4206 1.64879 68.8571 1.56445 69.2998 1.56445C69.7425 1.56445 70.179 1.64879 70.5751 1.8108L75.6383 4.15033C75.9794 4.33084 76.2697 4.5689 76.4896 4.84861C76.7095 5.12833 76.8541 5.44326 76.9137 5.7724Z"
      fill="#455A64" />
    <path
      d="M75.6557 5.35893L24.3668 29.5341C23.9995 29.7349 23.694 30.0028 23.4743 30.3167C23.2546 30.6306 23.1269 30.982 23.1011 31.3433V54.8321C23.1011 55.495 23.6721 55.7679 24.3668 55.4326L75.6557 31.2575C76.0249 31.0575 76.3323 30.79 76.5536 30.476C76.7749 30.162 76.9041 29.8102 76.9311 29.4483V5.95941C76.9311 5.29655 76.3601 5.0236 75.6557 5.35893Z"
      fill="#37474F" />
    <path
      d="M35.7783 35.5783C35.7783 35.7655 35.7783 36.015 35.7783 36.3582C35.7783 36.7013 35.7783 37.0054 35.7783 37.3408C35.7783 37.6761 35.7783 38.0114 35.7783 38.3312C35.7783 38.6509 35.7783 38.9004 35.7783 39.111C35.8 39.366 35.8478 39.619 35.9211 39.8674C35.9785 40.0869 36.1029 40.2908 36.2827 40.4601C36.4466 40.598 36.6669 40.6813 36.9013 40.6941C37.2412 40.6875 37.5717 40.6009 37.8531 40.4445C38.209 40.2894 38.5308 40.0864 38.8048 39.8441C39.2447 39.4514 39.5701 38.9821 39.7566 38.4715C39.8327 38.2376 39.8993 38.0348 39.9374 37.8477C39.9734 37.6583 40.0341 37.4727 40.1182 37.294C40.201 37.1592 40.3344 37.0498 40.4989 36.982L42.5833 35.9682C42.6192 35.9435 42.6647 35.9299 42.7117 35.9299C42.7588 35.9299 42.8043 35.9435 42.8402 35.9682C42.9169 36.0447 42.9545 36.1425 42.9449 36.2412C42.9304 36.9783 42.7927 37.7104 42.5356 38.4169C42.2788 39.1558 41.9179 39.8676 41.4602 40.5381C41.0043 41.2005 40.4618 41.8202 39.8422 42.3863C39.2663 42.9307 38.5884 43.3966 37.834 43.7667C37.2047 44.0998 36.4791 44.2908 35.7307 44.3203C35.1539 44.327 34.5932 44.1637 34.1509 43.8602C33.6758 43.5065 33.3271 43.0537 33.142 42.5501C32.9003 41.9103 32.7658 41.2466 32.7422 40.5771C32.7422 40.0208 32.7422 39.4203 32.7422 38.7757C32.7422 38.131 32.7422 37.5071 32.7422 36.904C32.767 36.1148 32.8979 35.3303 33.1324 34.5645C33.3712 33.7838 33.7093 33.0258 34.1413 32.303C34.5681 31.5999 35.0986 30.9425 35.7212 30.3456C36.3214 29.7707 37.0358 29.2829 37.834 28.9029C38.4403 28.5917 39.1292 28.4044 39.8422 28.357C40.4091 28.3215 40.9754 28.4334 41.4602 28.6767C41.948 28.944 42.3236 29.3279 42.5356 29.7763C42.8168 30.3431 42.956 30.9504 42.9449 31.5621C42.9419 31.6915 42.9064 31.819 42.8402 31.9365C42.7887 32.0418 42.6991 32.1316 42.5833 32.1938L40.4419 33.2076C40.2515 33.2934 40.1278 33.309 40.0612 33.2466C39.9664 33.1349 39.9046 33.0068 39.8804 32.8723C39.8359 32.7175 39.7754 32.5662 39.6994 32.42C39.6255 32.2757 39.5035 32.1514 39.3473 32.0612C39.1706 31.9717 38.9649 31.9282 38.7573 31.9365C38.4172 31.9613 38.0902 32.0551 37.8056 32.2094C37.4438 32.3705 37.1212 32.5846 36.8538 32.8411C36.6046 33.0934 36.3966 33.3713 36.2351 33.6677C36.0706 33.9671 35.9492 34.2811 35.8735 34.6035C35.8132 34.9262 35.7814 35.2519 35.7783 35.5783Z"
      fill="#F0F0F0" />
    <path
      d="M49.7122 23.2801C50.2883 22.9867 50.9401 22.8078 51.6157 22.7577C52.1409 22.7228 52.6669 22.815 53.1289 23.0228C53.5586 23.2175 53.9067 23.5137 54.1282 23.8728C54.3678 24.2357 54.5044 24.6382 54.528 25.0504C54.525 25.1797 54.4893 25.3072 54.4233 25.4247C54.3747 25.5227 54.2919 25.6068 54.1853 25.6665L52.0344 26.6881C51.9262 26.7505 51.7953 26.7807 51.6632 26.7738C51.5584 26.7576 51.4602 26.72 51.3777 26.6647L51.2255 26.5321C51.1413 26.4602 51.0366 26.4066 50.9209 26.3761C50.7579 26.3465 50.589 26.3465 50.4261 26.3761C50.1722 26.4123 49.9296 26.4892 49.7122 26.6023C49.5029 26.7023 49.3026 26.8144 49.1127 26.9376C48.9285 27.0587 48.7595 27.1946 48.6082 27.3431C48.4589 27.4915 48.3372 27.657 48.2466 27.8344C48.1501 28.0192 48.1015 28.2183 48.1038 28.4193C48.0889 28.5788 48.1465 28.7371 48.2655 28.8638C48.3376 28.9134 48.421 28.9507 48.511 28.9735C48.6008 28.9963 48.6954 29.0041 48.789 28.9964C49.1111 28.9854 49.4305 28.9436 49.7408 28.8716L51.2445 28.5519C51.7537 28.4282 52.284 28.3729 52.8148 28.3881C53.2264 28.3992 53.6217 28.5227 53.9379 28.739C54.2675 28.9854 54.5024 29.3052 54.6136 29.6592C54.7726 30.1686 54.8462 30.6933 54.8324 31.2189C54.8343 31.9165 54.7093 32.6104 54.4613 33.2777C54.2092 33.946 53.8608 34.5874 53.424 35.1883C52.9741 35.7923 52.4339 36.3477 51.8156 36.8416C51.2096 37.3353 50.5283 37.7626 49.7883 38.1127C49.1736 38.4279 48.4813 38.6277 47.7612 38.6976C47.2177 38.7551 46.6658 38.6734 46.1813 38.4637C45.7306 38.2671 45.3675 37.9586 45.1439 37.5824C44.8772 37.1658 44.7338 36.7037 44.7251 36.2333C44.727 36.1029 44.7661 35.9747 44.8394 35.859C44.8841 35.7571 44.9675 35.6697 45.0772 35.6094L47.2187 34.5956C47.3256 34.5364 47.4513 34.5039 47.5804 34.5021C47.675 34.5131 47.7639 34.5455 47.8373 34.5956C47.9083 34.6493 47.9751 34.7066 48.0372 34.7672C48.1361 34.8581 48.2557 34.9322 48.3893 34.9856C48.5618 35.0507 48.7521 35.0776 48.9413 35.0635C49.2374 35.0346 49.521 34.9492 49.7694 34.814C50.3082 34.5688 50.7992 34.2586 51.2255 33.8938C51.5894 33.589 51.7971 33.1816 51.806 32.7552C51.8178 32.6766 51.8037 32.5968 51.7652 32.5242C51.7266 32.4515 51.6652 32.3886 51.5871 32.3419C51.3886 32.265 51.1667 32.2378 50.9495 32.2639C50.5823 32.2947 50.2192 32.3521 49.8644 32.4355C49.4171 32.5369 48.9128 32.646 48.3036 32.763C47.894 32.8997 47.4456 32.9392 47.0098 32.8772C46.5739 32.8151 46.1681 32.654 45.8386 32.4121C45.2253 31.6913 44.9484 30.814 45.0583 29.94C45.0636 29.3153 45.1692 28.6939 45.3723 28.0918C45.6 27.4423 45.9195 26.8168 46.324 26.2279C46.7239 25.6228 47.2165 25.062 47.7898 24.5591C48.3471 24.0549 48.9955 23.6236 49.7122 23.2801Z"
      fill="#F0F0F0" />
    <path
      d="M61.5704 17.6728C62.1455 17.3764 62.7974 17.1947 63.4738 17.1425C63.9984 17.115 64.5221 17.2068 64.9871 17.4076C65.3951 17.6125 65.7248 17.907 65.9388 18.2576C66.176 18.6317 66.3062 19.045 66.3195 19.4664C66.3177 19.5968 66.2786 19.725 66.2053 19.8407C66.1606 19.9406 66.077 20.0255 65.9673 20.0825L63.826 21.0963C63.7184 21.1603 63.5877 21.1933 63.4548 21.1898C63.3493 21.1753 63.2507 21.1376 63.1693 21.0807L63.017 20.9481C62.9313 20.8779 62.8271 20.8245 62.7124 20.7921C62.5501 20.7585 62.38 20.7585 62.2175 20.7921C61.9634 20.8271 61.7205 20.9041 61.5038 21.0183C61.2946 21.1183 61.0942 21.2304 60.9041 21.3536C60.7169 21.4746 60.5448 21.6104 60.3903 21.7591C60.2439 21.9078 60.1252 22.0733 60.0382 22.2504C59.9416 22.4352 59.893 22.6344 59.8953 22.8353C59.8754 22.9915 59.9299 23.148 60.0477 23.272C60.1186 23.3234 60.2017 23.3624 60.2917 23.3865C60.3816 23.4107 60.4767 23.4195 60.5711 23.4124C60.8932 23.4015 61.2126 23.3596 61.5228 23.2876L63.0266 22.9679C63.5694 22.8206 64.1395 22.752 64.7111 22.7651C65.1207 22.7774 65.5147 22.8978 65.8341 23.1083C66.1637 23.3579 66.3983 23.6801 66.5099 24.0363C66.6689 24.5456 66.7425 25.0703 66.7287 25.596C66.731 26.2941 66.6026 26.9884 66.348 27.6547C66.0987 28.329 65.7436 28.9738 65.2917 29.5731C64.8438 30.176 64.3067 30.7313 63.6928 31.2264C63.0843 31.7177 62.4033 32.1448 61.6655 32.4976C61.0508 32.8128 60.3585 33.0125 59.6384 33.0824C59.0922 33.1314 58.5403 33.0502 58.049 32.8485C57.6002 32.6498 57.2378 32.3419 57.0116 31.9673C56.7448 31.5458 56.6077 31.0773 56.6119 30.6025C56.6128 30.4745 56.6519 30.3487 56.7261 30.236C56.7683 30.1352 56.8483 30.0479 56.9546 29.9865L59.1055 28.9727C59.2144 28.9157 59.3384 28.8809 59.4671 28.8713C59.5617 28.8823 59.6507 28.9147 59.7241 28.9649C59.7945 29.0217 59.8613 29.0815 59.9239 29.1442C60.0216 29.2342 60.1417 29.306 60.276 29.3548C60.4464 29.4256 60.6387 29.4527 60.828 29.4328C61.1232 29.4062 61.4068 29.3234 61.656 29.191C62.1954 28.9432 62.6862 28.6303 63.1122 28.263C63.4772 27.962 63.6853 27.5566 63.6928 27.1322C63.7045 27.0536 63.6904 26.9738 63.652 26.9012C63.6135 26.8285 63.5519 26.7656 63.4738 26.7189C63.2768 26.6381 63.0535 26.6108 62.8362 26.6409C62.4684 26.6678 62.1048 26.7253 61.7513 26.8125C61.3071 26.9113 60.7837 27.0205 60.1809 27.14C59.7706 27.274 59.323 27.3121 58.8878 27.2501C58.4527 27.1882 58.0471 27.0286 57.716 26.7891C57.112 26.065 56.8391 25.1897 56.9451 24.317C56.9504 23.6923 57.0561 23.0709 57.2591 22.4688C57.4868 21.8193 57.8062 21.1938 58.2108 20.605C58.613 19.9986 59.1052 19.4354 59.6765 18.9283C60.2269 18.4339 60.8655 18.0106 61.5704 17.6728Z"
      fill="#F0F0F0" />
  </g>
  <defs>
    <clipPath id="clip0">
      <rect width="428" height="360" fill="white" />
    </clipPath>
  </defs>
</svg>
