<svg width="428" height="360" viewBox="0 0 428 360" fill="none" xmlns="http://www.w3.org/2000/svg">
  <g clip-path="url(#clip0)">
    <g opacity="0.8">
      <path opacity="0.8"
        d="M367.153 97.8018V157.366C367.181 157.796 367.334 158.214 367.596 158.587C367.859 158.959 368.226 159.276 368.667 159.511L410.428 179.256C410.581 179.33 410.756 179.37 410.933 179.373H411.123H411.246H411.333L411.418 179.326L411.504 179.264C411.623 179.172 411.717 179.06 411.78 178.937C411.889 178.741 411.945 178.528 411.941 178.313V119.045C411.914 118.615 411.762 118.196 411.499 117.824C411.236 117.451 410.869 117.135 410.428 116.9L368.667 97.1779C368.52 97.0934 368.351 97.0394 368.174 97.0204C367.996 97.0013 367.816 97.0179 367.648 97.0687L367.524 97.1311L367.42 97.2091C367.417 97.2246 367.417 97.2404 367.42 97.2559C367.398 97.2764 367.382 97.3003 367.372 97.3261C367.327 97.372 367.295 97.4252 367.277 97.482C367.271 97.5183 367.271 97.555 367.277 97.5912V97.7082C367.162 97.7004 367.153 97.755 367.153 97.8018Z"
        fill="#455A64" />
    </g>
    <path
      d="M367.65 96.9831C367.817 96.9323 367.997 96.9157 368.175 96.9348C368.353 96.9538 368.521 97.0078 368.668 97.0923L410.429 116.814C410.87 117.049 411.237 117.365 411.5 117.738C411.763 118.11 411.915 118.529 411.943 118.959V122.998L414.351 121.86V117.851C414.323 117.423 414.171 117.005 413.908 116.634C413.645 116.262 413.278 115.947 412.837 115.715L371.076 96.0161C370.92 95.9221 370.735 95.8651 370.541 95.8514C370.348 95.8376 370.155 95.8676 369.981 95.9381C369.705 96.0161 367.973 96.8505 367.65 96.9831Z"
      fill="#5BBD81" />
    <path
      d="M367.162 97.7941C367.162 97.0142 367.838 96.7023 368.666 97.0922L410.428 116.814C410.868 117.049 411.236 117.366 411.498 117.738C411.761 118.111 411.913 118.529 411.942 118.959V122.999L367.21 101.857L367.162 97.7941Z"
      fill="#5BBD81" />
    <g opacity="0.5">
      <path opacity="0.5"
        d="M368.668 97.0923L410.429 116.814C410.874 117.043 411.24 117.359 411.497 117.734L413.894 116.604C413.639 116.237 413.276 115.929 412.837 115.707L371.076 96.0161C370.919 95.9221 370.735 95.8651 370.542 95.8514C370.349 95.8376 370.155 95.8676 369.982 95.9381C369.715 96.0785 367.973 96.8739 367.659 97.0143C367.822 96.957 367.999 96.9341 368.176 96.9477C368.351 96.9613 368.521 97.011 368.668 97.0923Z"
        fill="white" />
    </g>
    <path opacity="0.15"
      d="M414.35 121.868V117.852C414.327 117.413 414.17 116.987 413.893 116.612L411.485 117.735C411.768 118.105 411.926 118.53 411.942 118.967V123.006L414.35 121.868Z"
      fill="black" />
    <path
      d="M409.743 118.475C410.016 118.652 410.234 118.877 410.383 119.134C410.531 119.391 410.606 119.673 410.6 119.957C410.6 120.55 410.218 120.854 409.743 120.628C409.472 120.453 409.253 120.228 409.104 119.973C408.956 119.717 408.881 119.437 408.887 119.154C408.887 118.553 409.239 118.257 409.743 118.475Z"
      fill="#455A64" />
    <path
      d="M406.669 117.025C406.943 117.199 407.162 117.423 407.311 117.679C407.46 117.935 407.533 118.216 407.526 118.499C407.526 119.099 407.145 119.396 406.669 119.177C406.4 119 406.183 118.774 406.037 118.517C405.89 118.26 405.816 117.979 405.822 117.696C405.822 117.072 406.203 116.799 406.669 117.025Z"
      fill="#455A64" />
    <path
      d="M403.604 115.567C403.883 115.745 404.107 115.973 404.258 116.234C404.411 116.496 404.486 116.782 404.48 117.072C404.48 117.664 404.1 117.968 403.632 117.742C403.36 117.567 403.139 117.342 402.991 117.084C402.843 116.827 402.769 116.545 402.776 116.261C402.748 115.645 403.129 115.348 403.604 115.567Z"
      fill="#455A64" />
    <g opacity="0.9">
      <path opacity="0.9"
        d="M411.39 179.256L411.57 179.17L412.037 178.952C412.115 178.907 412.197 178.868 412.284 178.835L412.683 178.648L413.493 178.273L413.683 178.188C413.781 178.147 413.868 178.091 413.94 178.024C414.024 177.949 414.093 177.861 414.139 177.767C414.26 177.563 414.323 177.338 414.321 177.112V121.86L411.913 122.998V178.219C411.904 178.433 411.85 178.644 411.751 178.843C411.689 178.967 411.594 179.078 411.475 179.17C411.454 179.197 411.424 179.218 411.39 179.233V179.256Z"
        fill="#37474F" />
    </g>
    <path
      d="M370.627 108.688C370.624 108.659 370.63 108.63 370.643 108.603C370.656 108.576 370.678 108.552 370.704 108.532L371.789 107.752C371.789 107.752 371.789 107.752 371.836 107.752C371.857 107.761 371.875 107.773 371.891 107.788C371.905 107.802 371.915 107.82 371.921 107.838C371.936 107.879 371.936 107.922 371.921 107.963V108.579C371.928 108.636 371.928 108.694 371.921 108.751C371.9 108.784 371.874 108.815 371.845 108.844L371.265 109.273L371.845 110.248C371.845 110.31 371.902 110.365 371.921 110.42C371.927 110.482 371.927 110.544 371.921 110.607V111.223C371.921 111.27 371.921 111.301 371.921 111.316C371.909 111.325 371.894 111.329 371.879 111.329C371.863 111.329 371.848 111.325 371.836 111.316L371.789 111.262L370.704 109.413C370.657 109.344 370.631 109.266 370.627 109.187V108.688Z"
      fill="#5BBD81" />
    <path
      d="M374.595 107.831C374.613 107.791 374.642 107.756 374.681 107.729C374.681 107.729 374.767 107.729 374.843 107.729L375.242 107.924C375.264 107.933 375.282 107.945 375.297 107.959C375.312 107.974 375.323 107.991 375.329 108.01C375.343 108.051 375.343 108.094 375.329 108.135C375.332 108.153 375.332 108.171 375.329 108.189L373.425 112.931C373.413 112.97 373.386 113.005 373.349 113.032C373.349 113.032 373.263 113.032 373.186 113.032L372.796 112.845C372.756 112.826 372.726 112.795 372.711 112.759C372.698 112.718 372.698 112.675 372.711 112.634C372.711 112.634 372.711 112.595 372.711 112.58L374.595 107.831Z"
      fill="#5BBD81" />
    <path
      d="M377.479 112.392C377.482 112.423 377.477 112.453 377.464 112.481C377.451 112.51 377.43 112.535 377.402 112.556L376.318 113.336C376.309 113.34 376.3 113.341 376.289 113.341C376.28 113.341 376.27 113.34 376.261 113.336C376.22 113.317 376.191 113.287 376.175 113.25C376.162 113.209 376.162 113.166 376.175 113.126V112.509C376.168 112.452 376.168 112.395 376.175 112.338C376.192 112.3 376.217 112.265 376.251 112.237L376.823 111.808L376.251 110.841C376.223 110.785 376.197 110.727 376.175 110.669C376.169 110.607 376.169 110.544 376.175 110.482V109.858C376.167 109.845 376.162 109.83 376.162 109.815C376.162 109.8 376.167 109.785 376.175 109.772C376.175 109.772 376.223 109.772 376.261 109.772C376.284 109.787 376.304 109.806 376.318 109.827L377.402 111.667C377.45 111.739 377.476 111.819 377.479 111.901V112.392Z"
      fill="#5BBD81" />
    <path
      d="M380.496 114.818C380.543 114.843 380.579 114.878 380.601 114.919C380.614 114.971 380.614 115.024 380.601 115.075V115.754C380.609 115.771 380.614 115.79 380.614 115.809C380.614 115.827 380.609 115.846 380.601 115.863C380.587 115.874 380.568 115.88 380.549 115.88C380.529 115.88 380.51 115.874 380.496 115.863L379.982 115.621C379.936 115.597 379.899 115.562 379.878 115.52C379.864 115.469 379.864 115.415 379.878 115.364V114.732C379.86 114.695 379.86 114.653 379.878 114.615C379.891 114.604 379.91 114.598 379.93 114.598C379.949 114.598 379.968 114.604 379.982 114.615L380.496 114.818Z"
      fill="#5BBD81" />
    <path
      d="M382.21 115.629C382.256 115.653 382.293 115.689 382.314 115.73C382.327 115.782 382.327 115.835 382.314 115.886V116.565C382.323 116.582 382.327 116.6 382.327 116.619C382.327 116.638 382.323 116.657 382.314 116.674C382.299 116.683 382.281 116.688 382.262 116.688C382.243 116.688 382.224 116.683 382.21 116.674L381.695 116.432C381.65 116.406 381.615 116.371 381.59 116.331C381.563 116.282 381.546 116.229 381.542 116.175V115.512C381.539 115.469 381.557 115.427 381.59 115.395C381.604 115.384 381.623 115.378 381.643 115.378C381.662 115.378 381.681 115.384 381.695 115.395L382.21 115.629Z"
      fill="#5BBD81" />
    <path
      d="M383.922 116.44C383.971 116.463 384.007 116.499 384.027 116.541C384.04 116.593 384.04 116.646 384.027 116.697V117.376C384.043 117.411 384.043 117.45 384.027 117.485C384.012 117.494 383.993 117.5 383.974 117.5C383.955 117.5 383.937 117.494 383.922 117.485L383.409 117.243C383.362 117.215 383.326 117.178 383.303 117.134C383.275 117.088 383.258 117.038 383.256 116.986V116.292C383.254 116.252 383.271 116.213 383.303 116.183C383.318 116.173 383.337 116.168 383.356 116.168C383.375 116.168 383.393 116.173 383.409 116.183L383.922 116.44Z"
      fill="#5BBD81" />
    <path
      d="M371.083 114.085L396.172 125.954C396.327 126.032 396.456 126.139 396.551 126.267C396.646 126.394 396.701 126.538 396.713 126.687C396.713 126.952 396.476 127.046 396.172 126.905L371.083 115.036C370.933 114.958 370.804 114.851 370.712 114.725C370.619 114.599 370.565 114.458 370.551 114.311C370.551 114.046 370.789 113.952 371.083 114.085Z"
      fill="#5BBD81" />
    <path
      d="M379.136 129.323L404.223 141.192C404.378 141.269 404.507 141.375 404.602 141.501C404.696 141.627 404.753 141.77 404.766 141.917C404.766 142.182 404.528 142.284 404.223 142.143L379.136 130.274C378.983 130.195 378.855 130.087 378.762 129.96C378.67 129.833 378.615 129.689 378.602 129.541C378.602 129.276 378.84 129.183 379.136 129.323Z"
      fill="#E6E6E6" />
    <path
      d="M379.136 136.934L391.156 142.619C391.309 142.699 391.437 142.806 391.53 142.934C391.622 143.061 391.677 143.204 391.689 143.352C391.689 143.618 391.452 143.711 391.156 143.571L379.145 137.886C378.992 137.808 378.864 137.702 378.772 137.576C378.679 137.45 378.625 137.307 378.612 137.16C378.602 136.895 378.84 136.794 379.136 136.934Z"
      fill="#E6E6E6" />
    <path
      d="M398.256 126.937L408.249 131.616C408.403 131.693 408.533 131.798 408.627 131.925C408.722 132.051 408.778 132.194 408.791 132.341C408.791 132.606 408.544 132.708 408.249 132.567L398.256 127.888C398.103 127.811 397.975 127.704 397.882 127.578C397.79 127.452 397.735 127.31 397.722 127.163C397.722 126.898 397.961 126.796 398.256 126.937Z"
      fill="#5BBD81" />
    <path
      d="M371.083 155.978L396.172 167.847C396.326 167.924 396.456 168.03 396.55 168.156C396.645 168.282 396.7 168.425 396.713 168.572C396.713 168.837 396.476 168.939 396.172 168.798L371.083 156.929C370.931 156.85 370.803 156.742 370.711 156.615C370.617 156.488 370.563 156.344 370.551 156.196C370.551 155.931 370.789 155.837 371.083 155.978Z"
      fill="#5BBD81" />
    <path
      d="M398.256 168.83L408.249 173.509C408.403 173.588 408.533 173.695 408.626 173.823C408.721 173.95 408.777 174.094 408.791 174.242C408.791 174.499 408.544 174.601 408.249 174.46L398.256 169.781C398.103 169.702 397.975 169.594 397.882 169.467C397.79 169.34 397.735 169.196 397.722 169.048C397.722 168.791 397.961 168.69 398.256 168.83Z"
      fill="#5BBD81" />
    <path
      d="M398.256 157.421L408.249 162.1C408.402 162.177 408.533 162.283 408.626 162.409C408.721 162.535 408.777 162.677 408.791 162.825C408.791 163.09 408.544 163.191 408.249 163.051L398.256 158.372C398.103 158.293 397.975 158.185 397.882 158.058C397.79 157.93 397.735 157.787 397.722 157.639C397.722 157.382 397.961 157.28 398.256 157.421Z"
      fill="#5BBD81" />
    <path
      d="M398.256 161.234L408.249 165.913C408.402 165.991 408.53 166.098 408.625 166.223C408.719 166.349 408.776 166.491 408.791 166.639C408.791 166.904 408.544 167.005 408.249 166.865L398.256 162.186C398.103 162.106 397.975 161.999 397.882 161.871C397.79 161.744 397.735 161.601 397.722 161.453C397.722 161.187 397.961 161.094 398.256 161.234Z"
      fill="#5BBD81" />
    <path
      d="M389.728 153.381L395.343 156.04C395.498 156.117 395.629 156.222 395.723 156.349C395.817 156.475 395.873 156.618 395.886 156.766C395.886 157.031 395.647 157.132 395.343 156.992L389.728 154.333C389.575 154.253 389.447 154.146 389.354 154.018C389.262 153.891 389.207 153.747 389.195 153.6C389.195 153.342 389.433 153.241 389.728 153.381Z"
      fill="#5BBD81" />
    <path
      d="M371.083 117.906L385.722 124.823C385.873 124.902 386 125.008 386.093 125.134C386.185 125.26 386.241 125.402 386.254 125.548C386.254 125.814 386.017 125.915 385.722 125.775L371.083 118.857C370.931 118.778 370.803 118.67 370.711 118.543C370.617 118.416 370.563 118.272 370.551 118.124C370.551 117.851 370.789 117.766 371.083 117.906Z"
      fill="#5BBD81" />
    <path opacity="0.6"
      d="M371.083 117.906L385.722 124.823C385.873 124.902 386 125.008 386.093 125.134C386.185 125.26 386.241 125.402 386.254 125.548C386.254 125.814 386.017 125.915 385.722 125.775L371.083 118.857C370.931 118.778 370.803 118.67 370.711 118.543C370.617 118.416 370.563 118.272 370.551 118.124C370.551 117.851 370.789 117.766 371.083 117.906Z"
      fill="white" />
    <path
      d="M371.083 121.704L376.052 124.043C376.204 124.122 376.331 124.228 376.423 124.354C376.516 124.48 376.571 124.622 376.584 124.769C376.584 125.034 376.347 125.135 376.052 124.995L371.083 122.655C370.933 122.577 370.804 122.47 370.712 122.344C370.619 122.219 370.565 122.077 370.551 121.93C370.551 121.665 370.789 121.564 371.083 121.704Z"
      fill="#5BBD81" />
    <path opacity="0.6"
      d="M371.083 121.704L376.052 124.043C376.204 124.122 376.331 124.228 376.423 124.354C376.516 124.48 376.571 124.622 376.584 124.769C376.584 125.034 376.347 125.135 376.052 124.995L371.083 122.655C370.933 122.577 370.804 122.47 370.712 122.344C370.619 122.219 370.565 122.077 370.551 121.93C370.551 121.665 370.789 121.564 371.083 121.704Z"
      fill="white" />
    <path
      d="M371.083 125.509L376.052 127.849C376.205 127.928 376.332 128.036 376.425 128.163C376.518 128.291 376.572 128.434 376.584 128.582C376.584 128.839 376.347 128.941 376.052 128.8L371.083 126.461C370.93 126.384 370.802 126.278 370.71 126.151C370.617 126.025 370.563 125.883 370.551 125.736C370.551 125.47 370.789 125.369 371.083 125.509Z"
      fill="#5BBD81" />
    <path opacity="0.6"
      d="M371.083 125.509L376.052 127.849C376.205 127.928 376.332 128.036 376.425 128.163C376.518 128.291 376.572 128.434 376.584 128.582C376.584 128.839 376.347 128.941 376.052 128.8L371.083 126.461C370.93 126.384 370.802 126.278 370.71 126.151C370.617 126.025 370.563 125.883 370.551 125.736C370.551 125.47 370.789 125.369 371.083 125.509Z"
      fill="white" />
    <path
      d="M371.083 129.323L376.052 131.662C376.204 131.74 376.332 131.846 376.425 131.972C376.518 132.098 376.572 132.241 376.584 132.388C376.584 132.653 376.347 132.754 376.052 132.614L371.083 130.274C370.931 130.195 370.803 130.087 370.711 129.96C370.617 129.833 370.563 129.689 370.551 129.541C370.551 129.276 370.789 129.183 371.083 129.323Z"
      fill="#5BBD81" />
    <path opacity="0.6"
      d="M371.083 129.323L376.052 131.662C376.205 131.742 376.332 131.849 376.425 131.977C376.518 132.104 376.572 132.248 376.584 132.395C376.584 132.661 376.347 132.754 376.052 132.614L371.083 130.274C370.931 130.195 370.803 130.087 370.711 129.96C370.617 129.833 370.563 129.689 370.551 129.541C370.551 129.276 370.789 129.183 371.083 129.323Z"
      fill="white" />
    <path opacity="0.6"
      d="M379.136 133.129L393.773 140.046C393.926 140.125 394.054 140.233 394.146 140.36C394.239 140.487 394.293 140.631 394.307 140.779C394.307 141.036 394.068 141.138 393.773 140.997L379.136 134.08C378.983 134.001 378.855 133.893 378.762 133.766C378.67 133.638 378.615 133.495 378.602 133.347C378.602 133.09 378.84 132.988 379.136 133.129Z"
      fill="#5BBD81" />
    <path opacity="0.6"
      d="M395.848 141.028L402.214 144.054C402.369 144.131 402.497 144.237 402.589 144.364C402.682 144.49 402.736 144.632 402.748 144.779C402.748 145.045 402.51 145.146 402.214 145.006L395.848 141.98C395.696 141.901 395.569 141.795 395.477 141.669C395.384 141.543 395.329 141.401 395.315 141.255C395.315 140.989 395.553 140.888 395.848 141.028Z"
      fill="#5BBD81" />
    <path opacity="0.6"
      d="M379.136 133.129L393.773 140.046C393.926 140.125 394.054 140.233 394.146 140.36C394.239 140.487 394.293 140.631 394.307 140.779C394.307 141.036 394.068 141.138 393.773 140.997L379.136 134.08C378.983 134.001 378.855 133.893 378.762 133.766C378.67 133.638 378.615 133.495 378.602 133.347C378.602 133.09 378.84 132.988 379.136 133.129Z"
      fill="white" />
    <path opacity="0.6"
      d="M395.848 141.028L402.214 144.054C402.369 144.131 402.497 144.237 402.589 144.364C402.682 144.49 402.736 144.632 402.748 144.779C402.748 145.045 402.51 145.146 402.214 145.006L395.848 141.98C395.696 141.901 395.569 141.795 395.477 141.669C395.384 141.543 395.329 141.401 395.315 141.255C395.315 140.989 395.553 140.888 395.848 141.028Z"
      fill="white" />
    <path
      d="M371.083 133.129L376.052 135.468C376.204 135.547 376.331 135.653 376.423 135.779C376.516 135.905 376.571 136.047 376.584 136.194C376.584 136.459 376.347 136.56 376.052 136.42L371.083 134.08C370.933 134.002 370.804 133.895 370.712 133.769C370.619 133.643 370.565 133.501 370.551 133.355C370.551 133.09 370.789 132.988 371.083 133.129Z"
      fill="#5BBD81" />
    <path opacity="0.6"
      d="M371.083 133.129L376.052 135.468C376.204 135.547 376.331 135.653 376.423 135.779C376.516 135.905 376.571 136.047 376.584 136.194C376.584 136.459 376.347 136.56 376.052 136.42L371.083 134.08C370.933 134.002 370.804 133.895 370.712 133.769C370.619 133.643 370.565 133.501 370.551 133.355C370.551 133.09 370.789 132.988 371.083 133.129Z"
      fill="white" />
    <path
      d="M387.796 125.806L394.163 128.824C394.316 128.903 394.444 129.011 394.537 129.138C394.629 129.266 394.684 129.409 394.697 129.557C394.697 129.815 394.458 129.916 394.163 129.776L387.796 126.758C387.643 126.678 387.515 126.571 387.423 126.443C387.33 126.316 387.276 126.172 387.263 126.025C387.263 125.767 387.501 125.65 387.796 125.806Z"
      fill="#5BBD81" />
    <path opacity="0.6"
      d="M387.796 125.806L394.163 128.824C394.316 128.903 394.444 129.011 394.537 129.138C394.629 129.266 394.684 129.409 394.697 129.557C394.697 129.815 394.458 129.916 394.163 129.776L387.796 126.758C387.643 126.678 387.515 126.571 387.423 126.443C387.33 126.316 387.276 126.172 387.263 126.025C387.263 125.767 387.501 125.65 387.796 125.806Z"
      fill="white" />
    <path
      d="M385.169 143.586L399.807 150.503C399.961 150.582 400.09 150.69 400.185 150.817C400.278 150.944 400.335 151.088 400.35 151.236C400.35 151.502 400.102 151.595 399.807 151.463L385.169 144.538C385.017 144.459 384.891 144.353 384.798 144.227C384.706 144.101 384.65 143.959 384.637 143.812C384.637 143.586 384.874 143.454 385.169 143.586Z"
      fill="white" />
    <path
      d="M393.621 151.385L408.287 158.333C408.441 158.412 408.57 158.519 408.664 158.647C408.759 158.774 408.815 158.918 408.829 159.066C408.829 159.324 408.582 159.425 408.287 159.285L393.659 152.367C393.504 152.289 393.373 152.182 393.279 152.055C393.185 151.927 393.129 151.783 393.116 151.634C393.059 151.385 393.317 151.276 393.621 151.385Z"
      fill="white" />
    <path
      d="M401.892 151.502L408.287 154.504C408.44 154.582 408.568 154.689 408.663 154.814C408.757 154.94 408.814 155.082 408.83 155.229C408.83 155.495 408.582 155.596 408.287 155.456L401.93 152.438C401.775 152.36 401.644 152.253 401.551 152.125C401.456 151.998 401.4 151.853 401.387 151.705C401.349 151.455 401.625 151.385 401.892 151.502Z"
      fill="white" />
    <path
      d="M401.892 166.584L408.249 169.602C408.403 169.681 408.533 169.788 408.627 169.915C408.721 170.043 408.778 170.186 408.791 170.335C408.791 170.592 408.544 170.693 408.249 170.553L401.892 167.535C401.737 167.457 401.606 167.35 401.511 167.222C401.418 167.095 401.362 166.951 401.349 166.802C401.349 166.545 401.625 166.443 401.892 166.584Z"
      fill="#E6E6E6" />
    <path
      d="M379.136 125.51L393.773 132.435C393.926 132.512 394.054 132.618 394.146 132.744C394.239 132.871 394.293 133.013 394.307 133.16C394.307 133.425 394.068 133.526 393.773 133.386L379.136 126.43C378.983 126.353 378.855 126.247 378.761 126.12C378.669 125.994 378.614 125.852 378.602 125.704C378.602 125.471 378.84 125.369 379.136 125.51Z"
      fill="#5BBD81" />
    <path opacity="0.6"
      d="M379.136 125.51L393.773 132.435C393.926 132.512 394.054 132.618 394.146 132.744C394.239 132.871 394.293 133.013 394.307 133.16C394.307 133.425 394.068 133.526 393.773 133.386L379.136 126.43C378.983 126.353 378.855 126.247 378.761 126.12C378.669 125.994 378.614 125.852 378.602 125.704C378.602 125.471 378.84 125.369 379.136 125.51Z"
      fill="white" />
    <path
      d="M395.848 133.448L402.214 136.466C402.367 136.546 402.495 136.653 402.588 136.781C402.682 136.908 402.736 137.051 402.748 137.199C402.748 137.457 402.51 137.558 402.214 137.418L395.848 134.4C395.695 134.32 395.567 134.213 395.474 134.085C395.382 133.958 395.327 133.815 395.315 133.667C395.315 133.37 395.553 133.277 395.848 133.448Z"
      fill="#5BBD81" />
    <path opacity="0.6"
      d="M395.848 133.448L402.214 136.466C402.367 136.546 402.495 136.653 402.588 136.781C402.682 136.908 402.736 137.051 402.748 137.199C402.748 137.457 402.51 137.558 402.214 137.418L395.848 134.4C395.695 134.32 395.567 134.213 395.474 134.085C395.382 133.958 395.327 133.815 395.315 133.667C395.315 133.37 395.553 133.277 395.848 133.448Z"
      fill="white" />
  </g>
  <defs>
    <clipPath id="clip0">
      <rect width="428" height="360" fill="white" />
    </clipPath>
  </defs>
</svg>
