<svg width="428" height="360" viewBox="0 0 428 360" fill="none" xmlns="http://www.w3.org/2000/svg">
  <g clip-path="url(#clip0)">
    <path
      d="M68.0422 50.5662L16.7533 74.7413C16.3841 74.9413 16.0767 75.2088 15.8555 75.5228C15.6341 75.8368 15.5049 76.1886 15.478 76.5506V100.008C15.5018 100.369 15.63 100.719 15.8517 101.031C16.0734 101.343 16.3825 101.607 16.7533 101.802L21.8165 104.141C22.2125 104.303 22.6492 104.388 23.0918 104.388C23.5345 104.388 23.9711 104.303 24.3671 104.141L75.656 79.9663C76.0252 79.7663 76.3325 79.4988 76.5538 79.1848C76.7752 78.8708 76.9044 78.519 76.9313 78.157V54.6838C76.9075 54.3234 76.7793 53.9728 76.5576 53.661C76.3359 53.3491 76.0268 53.0849 75.656 52.8902L70.5928 50.5506C70.1952 50.391 69.7579 50.3094 69.3152 50.3121C68.8726 50.3148 68.4368 50.4018 68.0422 50.5662Z"
      fill="#263238" />
    <path
      d="M76.9136 54.5205C76.8185 53.998 76.2951 53.8108 75.6573 54.1072L24.3778 78.2823C24.001 78.4756 23.6901 78.7438 23.4737 79.0621L15.8599 75.4826C16.07 75.1786 16.3714 74.9236 16.7355 74.7418L68.0245 50.5667C68.4204 50.4047 68.8571 50.3203 69.2998 50.3203C69.7424 50.3203 70.179 50.4047 70.575 50.5667L75.6384 52.9062C75.9817 53.0828 76.2738 53.3188 76.4941 53.5976C76.7144 53.8765 76.8576 54.1915 76.9136 54.5205Z"
      fill="#455A64" />
    <path
      d="M75.6557 54.1071L24.3668 78.2822C23.9995 78.483 23.694 78.7509 23.4743 79.0648C23.2546 79.3787 23.1269 79.7302 23.1011 80.0914V103.58C23.1011 104.243 23.6721 104.516 24.3668 104.181L75.6557 80.0056C76.0249 79.8056 76.3323 79.5381 76.5536 79.2241C76.7749 78.9101 76.9041 78.5583 76.9311 78.1964V54.6842C76.9311 54.0447 76.3601 53.7717 75.6557 54.1071Z"
      fill="#37474F" />
    <path
      d="M36.0164 78.7189C36.0598 78.6877 36.1156 78.6704 36.1735 78.6704C36.2312 78.6704 36.287 78.6877 36.3304 78.7189C36.3789 78.7647 36.4157 78.8179 36.4386 78.8755C36.4615 78.9331 36.47 78.9939 36.4637 79.0543V92.3973C36.4604 92.5543 36.4149 92.7087 36.3304 92.8497C36.2709 92.9793 36.1604 93.0891 36.0164 93.1616L33.875 94.1754C33.8326 94.2083 33.7764 94.2266 33.718 94.2266C33.6595 94.2266 33.6033 94.2083 33.5609 94.1754C33.5132 94.1308 33.4768 94.0789 33.4539 94.0227C33.4311 93.9664 33.4222 93.907 33.4277 93.8479V88.7867L29.7921 90.5023V95.5635C29.7922 95.7224 29.7499 95.8794 29.6683 96.0236C29.599 96.1484 29.4906 96.256 29.3543 96.3355L27.2129 97.3493C27.1679 97.3778 27.1127 97.3932 27.0559 97.3932C26.999 97.3932 26.9438 97.3778 26.8988 97.3493C26.8491 97.3027 26.8117 97.2481 26.7888 97.1891C26.7658 97.1301 26.7579 97.0678 26.7655 97.0062V83.6553C26.7691 83.4959 26.8145 83.3389 26.8988 83.1952C26.9639 83.0682 27.0731 82.9598 27.2129 82.8833L29.3543 81.8695C29.3985 81.8397 29.454 81.8234 29.5114 81.8234C29.5686 81.8234 29.6241 81.8397 29.6683 81.8695C29.7148 81.9144 29.7498 81.9666 29.7711 82.0229C29.7924 82.0792 29.7995 82.1384 29.7921 82.197V87.1724L33.4277 85.4568V80.497C33.4323 80.3401 33.4777 80.1859 33.5609 80.0447C33.6234 79.9164 33.7332 79.8074 33.875 79.7327L36.0164 78.7189Z"
      fill="#F0F0F0" />
    <path
      d="M47.9892 73.0571C48.0317 73.0242 48.0879 73.0059 48.1463 73.0059C48.2046 73.0059 48.2608 73.0242 48.3033 73.0571C48.3511 73.1017 48.3875 73.1536 48.4103 73.2099C48.4332 73.2661 48.4421 73.3255 48.4365 73.3847V75.576C48.4342 75.7331 48.3886 75.8877 48.3033 76.0283C48.2409 76.1587 48.1312 76.2702 47.9892 76.3481L45.1341 77.705V88.303C45.1342 88.462 45.092 88.619 45.0103 88.7631C44.9391 88.887 44.8311 88.9943 44.6962 89.0751L42.5548 90.0889C42.5099 90.1173 42.4546 90.1328 42.3978 90.1328C42.341 90.1328 42.2858 90.1173 42.2407 90.0889C42.1922 90.0431 42.1555 89.9899 42.1326 89.9323C42.1097 89.8747 42.1012 89.8139 42.1076 89.7535V79.1555L39.2523 80.5202C39.2081 80.55 39.1526 80.5663 39.0953 80.5663C39.0381 80.5663 38.9825 80.55 38.9383 80.5202C38.8914 80.4739 38.8564 80.4203 38.8352 80.3628C38.8139 80.3052 38.8069 80.2447 38.8146 80.1849V78.0013C38.8145 77.8424 38.8567 77.6854 38.9383 77.5412C39.0038 77.4145 39.1129 77.3061 39.2523 77.2293L47.9892 73.0571Z"
      fill="#F0F0F0" />
    <path
      d="M55.5171 80.31C55.4252 80.2433 55.3479 80.1641 55.2886 80.076L53.7564 77.3934V84.2326C53.753 84.3896 53.7075 84.544 53.6231 84.6849C53.5636 84.8146 53.4531 84.9242 53.309 84.9967L51.1676 86.0106C51.1253 86.0435 51.0691 86.0619 51.0106 86.0619C50.9522 86.0619 50.896 86.0435 50.8536 86.0106C50.8059 85.9661 50.7695 85.9141 50.7466 85.8578C50.7237 85.8016 50.7148 85.7422 50.7204 85.6831V72.3166C50.7237 72.1597 50.7691 72.0052 50.8536 71.8643C50.916 71.7361 51.0258 71.627 51.1676 71.5524L53.0711 70.6556C53.2805 70.5464 53.4518 70.5464 53.5565 70.6556C53.6398 70.7267 53.7132 70.8051 53.7754 70.8895L56.4212 75.3502L59.0766 68.3783C59.1372 68.2299 59.2071 68.0843 59.286 67.9417C59.389 67.7502 59.5619 67.5894 59.7808 67.4816L61.6843 66.5848C61.7271 66.5556 61.7809 66.5396 61.8366 66.5396C61.8923 66.5396 61.9461 66.5556 61.9889 66.5848C62.0374 66.6305 62.0741 66.6838 62.097 66.7414C62.1199 66.799 62.1284 66.8598 62.1222 66.9201V80.2632C62.1186 80.4227 62.0732 80.5796 61.9889 80.7233C61.9221 80.8472 61.8171 80.9547 61.6843 81.0352L59.5334 82.049C59.4891 82.0788 59.4336 82.0951 59.3763 82.0951C59.3191 82.0951 59.2636 82.0788 59.2193 82.049C59.1718 82.0046 59.1362 81.9524 59.1149 81.896C59.0937 81.8395 59.087 81.7802 59.0956 81.7215V74.8823L57.5538 79.0233C57.4906 79.1746 57.4176 79.323 57.3348 79.4678C57.2541 79.618 57.1176 79.7436 56.9447 79.8265L55.8978 80.3177C55.7359 80.4191 55.6123 80.4192 55.5171 80.31Z"
      fill="#F0F0F0" />
    <path
      d="M73.2767 72.254C73.3201 72.2228 73.376 72.2055 73.4337 72.2055C73.4916 72.2055 73.5474 72.2228 73.5908 72.254C73.6391 72.2983 73.6757 72.3502 73.6986 72.4066C73.7214 72.4629 73.7301 72.5224 73.7241 72.5816V74.7729C73.7207 74.9299 73.6752 75.0843 73.5908 75.2252C73.5313 75.3549 73.4208 75.4647 73.2767 75.5372L65.6628 79.1244C65.6194 79.1557 65.5636 79.1729 65.5059 79.1729C65.448 79.1729 65.3922 79.1557 65.3488 79.1244C65.301 79.0799 65.2647 79.028 65.2418 78.9717C65.219 78.9155 65.2099 78.856 65.2155 78.7969V65.4538C65.2188 65.2969 65.2644 65.1424 65.3488 65.0015C65.4083 64.8718 65.5188 64.7621 65.6628 64.6896L67.8043 63.6758C67.8467 63.6429 67.9029 63.6245 67.9614 63.6245C68.0197 63.6245 68.0759 63.6429 68.1183 63.6758C68.1644 63.7209 68.1991 63.7732 68.2203 63.8294C68.2415 63.8856 68.249 63.9447 68.2421 64.0033V74.6014L73.2767 72.254Z"
      fill="#F0F0F0" />
  </g>
  <defs>
    <clipPath id="clip0">
      <rect width="428" height="360" fill="white" />
    </clipPath>
  </defs>
</svg>
