<svg width="428" height="360" viewBox="0 0 428 360" fill="none" xmlns="http://www.w3.org/2000/svg">
  <g clip-path="url(#clip0)">
    <path opacity="0.15"
      d="M296.097 177.05L305.062 181.292C306.612 181.941 308.343 182.243 310.082 182.168C311.82 182.093 313.502 181.643 314.959 180.863L329.759 172.012C332.396 170.452 332.243 168.113 329.417 166.732L324.924 164.595C323.321 163.927 321.557 163.558 319.759 163.513C317.96 163.469 316.172 163.75 314.522 164.338L296.258 172.441C293.337 173.649 293.261 175.708 296.097 177.05Z"
      fill="black" />
    <path
      d="M329.997 168.159L319.775 174.717L312.218 179.56C311.459 179.841 310.643 180.002 309.81 180.036C308.568 180.115 307.323 179.901 306.223 179.42L298.2 175.622H298.152C297.497 175.284 296.932 174.84 296.493 174.317C296.053 173.795 295.748 173.205 295.595 172.582C295.443 171.96 295.447 171.319 295.607 170.698C295.767 170.077 296.079 169.489 296.525 168.97L296.763 168.697C298.339 166.965 300.64 165.771 303.224 165.344L307.289 164.681C313.875 163.581 319.271 163.051 319.899 163.402L329.96 168.175L329.997 168.159Z"
      fill="#37474F" />
    <path
      d="M324.277 171.832L324.858 171.458L315.826 167.192L323.726 165.188L322.927 164.806L315.027 166.81L309.64 164.268L308.621 164.424L324.277 171.832Z"
      fill="#5BBD81" />
    <path
      d="M313.113 179.163L320.309 174.905L330.007 169.165V168.229C330.008 168.215 330.003 168.201 329.995 168.189C329.987 168.176 329.975 168.166 329.96 168.159H329.903C329.179 167.956 324.972 168.994 319.89 170.647L316.521 171.746C314.522 172.392 312.808 173.516 311.602 174.973C310.397 176.43 309.756 178.151 309.764 179.911V180.052C310.595 180.018 311.412 179.857 312.171 179.576L313.113 179.163Z"
      fill="#263238" />
  </g>
  <defs>
    <clipPath id="clip0">
      <rect width="428" height="360" fill="white" />
    </clipPath>
  </defs>
</svg>
