<svg width="428" height="360" viewBox="0 0 428 360" fill="none" xmlns="http://www.w3.org/2000/svg">
  <g clip-path="url(#clip0)">
    <path
      d="M406.089 248.202L287.122 304.507C286.627 304.714 286.078 304.822 285.523 304.822C284.967 304.822 284.418 304.714 283.924 304.507L112.403 223.403C112.197 223.361 112.014 223.263 111.884 223.126C111.753 222.989 111.682 222.82 111.682 222.647C111.682 222.473 111.753 222.304 111.884 222.167C112.014 222.03 112.197 221.932 112.403 221.89L231.369 165.586C231.865 165.378 232.412 165.27 232.968 165.27C233.524 165.27 234.072 165.378 234.567 165.586L406.089 246.689C406.294 246.731 406.477 246.829 406.607 246.966C406.738 247.103 406.809 247.272 406.809 247.446C406.809 247.619 406.738 247.788 406.607 247.925C406.477 248.062 406.294 248.16 406.089 248.202Z"
      fill="#E6E6E6" />
    <path
      d="M341.751 315.378C361.252 315.378 377.061 307.899 377.061 298.674C377.061 289.448 361.252 281.969 341.751 281.969C322.251 281.969 306.442 289.448 306.442 298.674C306.442 307.899 322.251 315.378 341.751 315.378Z"
      fill="#E6E6E6" />
    <path
      d="M289.719 203.915V290.478C289.699 290.781 289.592 291.076 289.407 291.338C289.222 291.601 288.964 291.825 288.653 291.991L286.389 293.059C286.059 293.197 285.693 293.269 285.323 293.269C284.952 293.269 284.587 293.197 284.257 293.059L281.992 291.991C281.682 291.825 281.424 291.601 281.239 291.338C281.054 291.076 280.946 290.781 280.926 290.478V203.915C280.926 203.362 281.402 203.135 281.992 203.416L284.257 204.485C284.587 204.623 284.952 204.695 285.323 204.695C285.693 204.695 286.059 204.623 286.389 204.485L288.653 203.416C289.244 203.135 289.719 203.362 289.719 203.915Z"
      fill="#37474F" />
    <path
      d="M284.257 293.02L281.992 291.952C281.682 291.786 281.424 291.562 281.239 291.299C281.054 291.037 280.946 290.742 280.926 290.439V203.915C280.926 203.362 281.402 203.135 281.992 203.416L284.257 204.485C284.563 204.648 284.819 204.868 285.004 205.126C285.189 205.385 285.298 205.675 285.323 205.974V292.536C285.323 293.075 284.846 293.316 284.257 293.02Z"
      fill="#455A64" />
    <path
      d="M386.331 158.185V244.701C386.312 245.004 386.207 245.3 386.02 245.563C385.835 245.826 385.576 246.049 385.264 246.213L383 247.305C382.668 247.44 382.304 247.51 381.934 247.51C381.564 247.51 381.199 247.44 380.868 247.305L378.602 246.229C378.293 246.063 378.034 245.84 377.849 245.577C377.664 245.314 377.556 245.019 377.536 244.716V158.185C377.536 157.631 378.021 157.405 378.602 157.678L380.868 158.754C381.197 158.892 381.563 158.965 381.934 158.965C382.304 158.965 382.67 158.892 383 158.754L385.264 157.678C385.854 157.405 386.331 157.623 386.331 158.185Z"
      fill="#37474F" />
    <path
      d="M380.868 247.306L378.602 246.229C378.293 246.063 378.034 245.84 377.849 245.577C377.664 245.314 377.556 245.019 377.536 244.716V158.185C377.536 157.632 378.021 157.405 378.602 157.678L380.868 158.755C381.178 158.92 381.437 159.143 381.622 159.406C381.807 159.669 381.913 159.964 381.934 160.267V246.783C381.934 247.306 381.457 247.563 380.868 247.306Z"
      fill="#455A64" />
    <path
      d="M159.608 142.393V228.955C159.588 229.258 159.48 229.553 159.295 229.816C159.11 230.079 158.852 230.302 158.543 230.468L156.277 231.537C155.947 231.675 155.582 231.747 155.211 231.747C154.841 231.747 154.475 231.675 154.145 231.537L151.881 230.468C151.57 230.302 151.312 230.079 151.127 229.816C150.942 229.553 150.835 229.258 150.815 228.955V142.393C150.815 141.839 151.29 141.613 151.881 141.894L154.174 142.962C154.504 143.101 154.87 143.173 155.24 143.173C155.611 143.173 155.976 143.101 156.305 142.962L158.571 141.894C159.133 141.613 159.608 141.839 159.608 142.393Z"
      fill="#37474F" />
    <path
      d="M154.175 231.498L151.909 230.43C151.6 230.264 151.341 230.04 151.156 229.777C150.97 229.514 150.863 229.22 150.843 228.917V142.354C150.843 141.801 151.319 141.574 151.909 141.855L154.175 142.962C154.484 143.128 154.743 143.352 154.928 143.615C155.113 143.878 155.219 144.172 155.241 144.475V230.991C155.212 231.552 154.736 231.779 154.175 231.498Z"
      fill="#455A64" />
    <path
      d="M407.335 164.338V163.706C407.304 163.157 407.115 162.622 406.785 162.144C406.454 161.665 405.991 161.258 405.431 160.953L235.072 80.419C234.469 80.1689 233.804 80.0386 233.13 80.0386C232.455 80.0386 231.79 80.1689 231.189 80.419L126.383 130.017C125.825 130.321 125.361 130.729 125.031 131.207C124.7 131.686 124.511 132.221 124.48 132.77V133.448C124.511 133.997 124.7 134.533 125.031 135.011C125.361 135.489 125.825 135.897 126.383 136.201L296.744 216.728C297.347 216.974 298.011 217.102 298.685 217.102C299.359 217.102 300.023 216.974 300.627 216.728L405.431 167.091C405.991 166.787 406.454 166.379 406.785 165.901C407.115 165.422 407.304 164.887 407.335 164.338Z"
      fill="#5BBD81" />
    <path opacity="0.6"
      d="M407.335 164.338V163.706C407.304 163.157 407.115 162.622 406.785 162.144C406.454 161.665 405.991 161.258 405.431 160.953L235.072 80.419C234.469 80.1689 233.804 80.0386 233.13 80.0386C232.455 80.0386 231.79 80.1689 231.189 80.419L126.383 130.017C125.825 130.321 125.361 130.729 125.031 131.207C124.7 131.686 124.511 132.221 124.48 132.77V133.448C124.511 133.997 124.7 134.533 125.031 135.011C125.361 135.489 125.825 135.897 126.383 136.201L296.744 216.728C297.347 216.974 298.011 217.102 298.685 217.102C299.359 217.102 300.023 216.974 300.627 216.728L405.431 167.091C405.991 166.787 406.454 166.379 406.785 165.901C407.115 165.422 407.304 164.887 407.335 164.338Z"
      fill="black" />
    <path
      d="M298.667 212.774V217.079C299.33 217.081 299.983 216.95 300.57 216.697L405.432 167.099C405.989 166.794 406.452 166.386 406.783 165.908C407.113 165.429 407.303 164.895 407.335 164.346V163.706C407.302 163.216 407.144 162.736 406.873 162.299C406.6 161.861 406.219 161.475 405.756 161.164C406.451 161.655 406.336 162.334 405.394 162.794L300.589 212.392C299.998 212.651 299.337 212.783 298.667 212.774Z"
      fill="#5BBD81" />
    <path opacity="0.5"
      d="M298.667 212.774V217.079C299.33 217.081 299.983 216.95 300.57 216.697L405.432 167.099C405.989 166.794 406.452 166.386 406.783 165.908C407.113 165.429 407.303 164.895 407.335 164.346V163.706C407.302 163.216 407.144 162.736 406.873 162.299C406.6 161.861 406.219 161.475 405.756 161.164C406.451 161.655 406.336 162.334 405.394 162.794L300.589 212.392C299.998 212.651 299.337 212.783 298.667 212.774Z"
      fill="black" />
    <path
      d="M405.431 162.786L300.608 212.392C300.005 212.642 299.34 212.772 298.666 212.772C297.991 212.772 297.326 212.642 296.725 212.392L126.355 131.889C126.12 131.824 125.917 131.701 125.773 131.536C125.629 131.372 125.551 131.175 125.551 130.972C125.551 130.77 125.629 130.573 125.773 130.408C125.917 130.244 126.12 130.121 126.355 130.056L231.159 80.419C231.761 80.1689 232.427 80.0386 233.101 80.0386C233.776 80.0386 234.441 80.1689 235.043 80.419L405.431 160.953C405.666 161.018 405.868 161.141 406.013 161.306C406.158 161.47 406.235 161.667 406.235 161.87C406.235 162.072 406.158 162.269 406.013 162.434C405.868 162.598 405.666 162.721 405.431 162.786Z"
      fill="#5BBD81" />
    <path opacity="0.4"
      d="M405.431 162.786L300.608 212.392C300.005 212.642 299.34 212.772 298.666 212.772C297.991 212.772 297.326 212.642 296.725 212.392L126.355 131.889C126.12 131.824 125.917 131.701 125.773 131.536C125.629 131.372 125.551 131.175 125.551 130.972C125.551 130.77 125.629 130.573 125.773 130.408C125.917 130.244 126.12 130.121 126.355 130.056L231.159 80.419C231.761 80.1689 232.427 80.0386 233.101 80.0386C233.776 80.0386 234.441 80.1689 235.043 80.419L405.431 160.953C405.666 161.018 405.868 161.141 406.013 161.306C406.158 161.47 406.235 161.667 406.235 161.87C406.235 162.072 406.158 162.269 406.013 162.434C405.868 162.598 405.666 162.721 405.431 162.786Z"
      fill="black" />
  </g>
  <defs>
    <clipPath id="clip0">
      <rect width="428" height="360" fill="white" />
    </clipPath>
  </defs>
</svg>
