<svg viewBox="0 0 640 613" fill="none" xmlns="http://www.w3.org/2000/svg">
<g clip-path="url(#clip0)">
<path d="M433.438 191.196V518.6C433.438 523.716 431.406 528.621 427.789 532.238C424.173 535.855 419.267 537.887 414.152 537.887H30.7517C25.6365 537.887 20.7309 535.855 17.1139 532.238C13.4969 528.621 11.4649 523.716 11.4649 518.6V191.196C11.4649 186.081 13.4969 181.176 17.1139 177.559C20.7309 173.942 25.6365 171.91 30.7517 171.91H414.195C419.31 171.91 424.215 173.942 427.832 177.559C431.449 181.176 433.481 186.081 433.481 191.196" fill="#5BBD81"/>
<path d="M414.216 171.952H30.7517C20.1236 171.952 11.5078 180.568 11.5078 191.196V518.493C11.5078 529.121 20.1236 537.737 30.7517 537.737H414.216C424.844 537.737 433.46 529.121 433.46 518.493V191.196C433.46 180.568 424.844 171.952 414.216 171.952Z" stroke="#3E3750" stroke-width="1.5" stroke-miterlimit="10" stroke-linecap="round"/>
<path d="M423.559 191.196V518.6C423.559 523.716 421.527 528.621 417.91 532.238C414.293 535.855 409.388 537.887 404.273 537.887H20.8512C15.736 537.887 10.8303 535.855 7.21333 532.238C3.59636 528.621 1.56436 523.716 1.56436 518.6V191.196C1.56436 186.081 3.59636 181.176 7.21333 177.559C10.8303 173.942 15.736 171.91 20.8512 171.91H404.294C409.409 171.91 414.315 173.942 417.932 177.559C421.549 181.176 423.581 186.081 423.581 191.196" fill="#E3F4E9"/>
<path d="M422.938 190.575V517.893C422.938 523.008 420.906 527.914 417.289 531.531C413.672 535.148 408.766 537.18 403.651 537.18H20.2511C15.136 537.18 10.2303 535.148 6.61331 531.531C2.99634 527.914 0.96434 523.008 0.96434 517.893V190.575C0.96434 185.46 2.99634 180.554 6.61331 176.937C10.2303 173.32 15.136 171.288 20.2511 171.288H403.694C408.809 171.288 413.715 173.32 417.332 176.937C420.949 180.554 422.981 185.46 422.981 190.575" fill="white"/>
<path d="M87.0477 213.098V537.394H20.2297C15.2944 537.394 10.561 535.435 7.06919 531.948C3.57741 528.46 1.6129 523.729 1.60722 518.793V213.098H87.0477Z" fill="#8AD0A5"/>
<path d="M1.60722 277.28H87.0477V300.188H1.60722V277.28Z" fill="#5BBD81"/>
<path d="M404.315 171.952H20.8512C10.223 171.952 1.60722 180.568 1.60722 191.196V518.493C1.60722 529.121 10.223 537.737 20.8512 537.737H404.315C414.943 537.737 423.559 529.121 423.559 518.493V191.196C423.559 180.568 414.943 171.952 404.315 171.952Z" stroke="#3E3750" stroke-width="1.5" stroke-miterlimit="10" stroke-linecap="round"/>
<path d="M423.559 213.098H1.60722M423.559 213.098H1.60722H423.559Z" stroke="#3E3750" stroke-width="1.5" stroke-miterlimit="10" stroke-linecap="round"/>
<path d="M24.1514 199.297C24.9991 199.297 25.8277 199.045 26.5325 198.574C27.2373 198.104 27.7867 197.434 28.1111 196.651C28.4355 195.868 28.5203 195.006 28.355 194.175C28.1896 193.343 27.7814 192.58 27.182 191.98C26.5826 191.381 25.8189 190.973 24.9875 190.807C24.1561 190.642 23.2944 190.727 22.5112 191.051C21.7281 191.376 21.0587 191.925 20.5877 192.63C20.1168 193.334 19.8654 194.163 19.8654 195.011C19.8654 196.148 20.317 197.238 21.1207 198.041C21.9245 198.845 23.0147 199.297 24.1514 199.297Z" fill="#E3F4E9"/>
<path d="M24.1514 199.34C26.5184 199.34 28.4373 197.421 28.4373 195.054C28.4373 192.687 26.5184 190.768 24.1514 190.768C21.7843 190.768 19.8654 192.687 19.8654 195.054C19.8654 197.421 21.7843 199.34 24.1514 199.34Z" stroke="#3E3750" stroke-width="1.5" stroke-miterlimit="10"/>
<path d="M43.5024 199.297C44.3501 199.297 45.1787 199.045 45.8835 198.574C46.5884 198.104 47.1377 197.434 47.4621 196.651C47.7865 195.868 47.8714 195.006 47.706 194.175C47.5406 193.343 47.1324 192.58 46.533 191.98C45.9336 191.381 45.1699 190.973 44.3385 190.807C43.5071 190.642 42.6454 190.727 41.8622 191.051C41.0791 191.376 40.4097 191.925 39.9387 192.63C39.4678 193.334 39.2164 194.163 39.2164 195.011C39.2164 196.148 39.668 197.238 40.4718 198.041C41.2755 198.845 42.3657 199.297 43.5024 199.297Z" fill="#E3F4E9"/>
<path d="M43.5024 199.34C45.8695 199.34 47.7883 197.421 47.7883 195.054C47.7883 192.687 45.8695 190.768 43.5024 190.768C41.1353 190.768 39.2164 192.687 39.2164 195.054C39.2164 197.421 41.1353 199.34 43.5024 199.34Z" stroke="#3E3750" stroke-width="1.5" stroke-miterlimit="10"/>
<path d="M19.8654 368.635H69.9254M19.8654 288.745H54.3245H19.8654ZM19.8654 315.36H73.3756H19.8654ZM19.8654 341.998H60.6677H19.8654Z" stroke="#3E3750" stroke-width="1.5" stroke-miterlimit="10" stroke-linecap="round"/>
<path d="M64.2893 245.178C64.2893 248.675 63.2524 252.093 61.3098 255C59.3671 257.908 56.6059 260.174 53.3754 261.512C50.1449 262.85 46.5901 263.2 43.1606 262.518C39.7311 261.836 36.5809 260.152 34.1084 257.679C31.6359 255.207 29.9521 252.057 29.2699 248.627C28.5877 245.198 28.9378 241.643 30.276 238.412C31.6141 235.182 33.8801 232.421 36.7875 230.478C39.6949 228.535 43.1131 227.499 46.6097 227.499C48.9315 227.499 51.2304 227.956 53.3754 228.844C55.5204 229.733 57.4694 231.035 59.1111 232.677C60.7528 234.318 62.055 236.267 62.9435 238.412C63.832 240.557 64.2893 242.856 64.2893 245.178" fill="#E3F4E9"/>
<path d="M102.97 390.3H402.858V411.13H102.97V390.3ZM115.142 427.245H390.686V443.639H115.142V427.245Z" fill="#8AD0A5"/>
<path d="M344.655 435.431H378.921M106.742 390.3H398.186C399.437 390.3 400.636 390.797 401.52 391.681C402.404 392.565 402.901 393.764 402.901 395.015V514.164C402.901 515.42 402.402 516.625 401.514 517.513C400.626 518.401 399.421 518.9 398.165 518.9H106.72C106.101 518.9 105.488 518.778 104.916 518.541C104.344 518.305 103.824 517.957 103.387 517.52C102.949 517.082 102.601 516.562 102.365 515.99C102.128 515.418 102.006 514.805 102.006 514.186V395.036C102.006 393.78 102.505 392.576 103.393 391.687C104.281 390.799 105.486 390.3 106.742 390.3V390.3ZM139.315 435.431H200.218H139.315ZM218.176 435.431H252.443H218.176Z" stroke="#3E3750" stroke-width="1.5" stroke-miterlimit="10" stroke-linecap="round"/>
<path d="M130.186 435.431C130.186 436.279 129.934 437.108 129.464 437.813C128.993 438.517 128.323 439.067 127.54 439.391C126.757 439.716 125.895 439.8 125.064 439.635C124.232 439.47 123.469 439.062 122.869 438.462C122.27 437.863 121.862 437.099 121.696 436.268C121.531 435.436 121.616 434.574 121.94 433.791C122.265 433.008 122.814 432.339 123.519 431.868C124.224 431.397 125.052 431.146 125.9 431.146C127.037 431.146 128.127 431.597 128.931 432.401C129.734 433.205 130.186 434.295 130.186 435.431Z" fill="#3E3750"/>
<path d="M344.655 451.825H378.921M139.315 451.825H200.218H139.315ZM218.176 451.825H252.443H218.176Z" stroke="#3E3750" stroke-width="1.5" stroke-miterlimit="10" stroke-linecap="round"/>
<path d="M130.186 451.825C130.186 452.673 129.934 453.502 129.464 454.206C128.993 454.911 128.323 455.461 127.54 455.785C126.757 456.109 125.895 456.194 125.064 456.029C124.232 455.864 123.469 455.455 122.869 454.856C122.27 454.256 121.862 453.493 121.696 452.661C121.531 451.83 121.616 450.968 121.94 450.185C122.265 449.402 122.814 448.733 123.519 448.262C124.224 447.791 125.052 447.539 125.9 447.539C127.037 447.539 128.127 447.991 128.931 448.795C129.734 449.598 130.186 450.689 130.186 451.825Z" fill="#3E3750"/>
<path d="M115.142 460.011H390.686V476.405H115.142V460.011Z" fill="#8AD0A5"/>
<path d="M344.655 468.198H378.921M139.315 468.198H200.218H139.315ZM218.176 468.198H252.443H218.176Z" stroke="#3E3750" stroke-width="1.5" stroke-miterlimit="10" stroke-linecap="round"/>
<path d="M130.186 468.198C130.186 469.045 129.934 469.874 129.464 470.579C128.993 471.284 128.323 471.833 127.54 472.157C126.757 472.482 125.895 472.567 125.064 472.401C124.232 472.236 123.469 471.828 122.869 471.228C122.27 470.629 121.862 469.865 121.696 469.034C121.531 468.202 121.616 467.341 121.94 466.557C122.265 465.774 122.814 465.105 123.519 464.634C124.224 464.163 125.052 463.912 125.9 463.912C127.037 463.912 128.127 464.363 128.931 465.167C129.734 465.971 130.186 467.061 130.186 468.198Z" fill="#3E3750"/>
<path d="M344.655 484.591H378.921M139.315 484.591H200.218H139.315ZM218.176 484.591H252.443H218.176Z" stroke="#3E3750" stroke-width="1.5" stroke-miterlimit="10" stroke-linecap="round"/>
<path d="M130.186 484.591C130.186 485.439 129.934 486.268 129.464 486.973C128.993 487.677 128.323 488.227 127.54 488.551C126.757 488.875 125.895 488.96 125.064 488.795C124.232 488.63 123.469 488.221 122.869 487.622C122.27 487.023 121.862 486.259 121.696 485.428C121.531 484.596 121.616 483.734 121.94 482.951C122.265 482.168 122.814 481.499 123.519 481.028C124.224 480.557 125.052 480.305 125.9 480.305C127.037 480.305 128.127 480.757 128.931 481.561C129.734 482.365 130.186 483.455 130.186 484.591Z" fill="#3E3750"/>
<path d="M115.142 492.778H390.686V509.171H115.142V492.778Z" fill="#8AD0A5"/>
<path d="M344.655 500.985H378.921M139.315 500.985H200.218H139.315ZM218.176 500.985H252.443H218.176Z" stroke="#3E3750" stroke-width="1.5" stroke-miterlimit="10" stroke-linecap="round"/>
<path d="M130.186 500.985C130.186 501.833 129.934 502.662 129.464 503.366C128.993 504.071 128.323 504.62 127.54 504.945C126.757 505.269 125.895 505.354 125.064 505.189C124.232 505.023 123.469 504.615 122.869 504.016C122.27 503.416 121.862 502.653 121.696 501.821C121.531 500.99 121.616 500.128 121.94 499.345C122.265 498.562 122.814 497.892 123.519 497.422C124.224 496.951 125.052 496.699 125.9 496.699C127.037 496.699 128.127 497.151 128.931 497.955C129.734 498.758 130.186 499.848 130.186 500.985Z" fill="#3E3750"/>
<path d="M1.60722 391.543L56.896 433.588L192.996 351.341L329.097 411.794L422.338 329.718" stroke="#3E3750" stroke-width="1.5" stroke-miterlimit="10" stroke-linecap="round"/>
<path d="M63.1535 433.589C63.1535 434.86 62.7765 436.103 62.07 437.16C61.3636 438.218 60.3596 439.042 59.1848 439.528C58.0101 440.015 56.7175 440.142 55.4704 439.894C54.2233 439.646 53.0777 439.034 52.1786 438.135C51.2795 437.235 50.6672 436.09 50.4192 434.843C50.1711 433.596 50.2984 432.303 50.785 431.128C51.2716 429.954 52.0956 428.95 53.1529 428.243C54.2101 427.537 55.4531 427.16 56.7246 427.16C58.4296 427.16 60.0649 427.837 61.2705 429.043C62.4762 430.248 63.1535 431.884 63.1535 433.589" fill="#5BBD81"/>
<path d="M56.7246 440.018C60.2752 440.018 63.1535 437.139 63.1535 433.589C63.1535 430.038 60.2752 427.16 56.7246 427.16C53.174 427.16 50.2957 430.038 50.2957 433.589C50.2957 437.139 53.174 440.018 56.7246 440.018Z" stroke="#3E3750" stroke-width="1.5" stroke-miterlimit="10" stroke-linecap="round"/>
<path d="M199.297 351.191C199.297 352.463 198.92 353.706 198.213 354.763C197.507 355.82 196.503 356.644 195.328 357.131C194.153 357.617 192.861 357.745 191.614 357.496C190.367 357.248 189.221 356.636 188.322 355.737C187.423 354.838 186.811 353.692 186.563 352.445C186.314 351.198 186.442 349.906 186.928 348.731C187.415 347.556 188.239 346.552 189.296 345.846C190.353 345.139 191.596 344.762 192.868 344.762C194.573 344.762 196.208 345.44 197.414 346.645C198.62 347.851 199.297 349.486 199.297 351.191Z" fill="#5BBD81"/>
<path d="M192.846 357.62C196.397 357.62 199.275 354.742 199.275 351.191C199.275 347.641 196.397 344.762 192.846 344.762C189.296 344.762 186.418 347.641 186.418 351.191C186.418 354.742 189.296 357.62 192.846 357.62Z" stroke="#3E3750" stroke-width="1.5" stroke-miterlimit="10" stroke-linecap="round"/>
<path d="M335.097 411.194C335.097 412.466 334.72 413.709 334.014 414.766C333.307 415.823 332.303 416.647 331.129 417.134C329.954 417.621 328.661 417.748 327.414 417.5C326.167 417.252 325.021 416.639 324.122 415.74C323.223 414.841 322.611 413.696 322.363 412.449C322.115 411.201 322.242 409.909 322.729 408.734C323.215 407.559 324.039 406.555 325.097 405.849C326.154 405.142 327.397 404.765 328.668 404.765C330.373 404.765 332.009 405.443 333.214 406.648C334.42 407.854 335.097 409.489 335.097 411.194Z" fill="#5BBD81"/>
<path d="M328.668 417.623C332.219 417.623 335.097 414.745 335.097 411.194C335.097 407.644 332.219 404.765 328.668 404.765C325.118 404.765 322.239 407.644 322.239 411.194C322.239 414.745 325.118 417.623 328.668 417.623Z" stroke="#3E3750" stroke-width="1.5" stroke-miterlimit="10" stroke-linecap="round"/>
<path d="M102.97 238.149H243.378V253.707H102.97V238.149Z" fill="#8AD0A5"/>
<path d="M496.742 206.733V358.049C496.745 358.671 496.624 359.288 496.387 359.864C496.15 360.44 495.802 360.963 495.361 361.404C494.921 361.844 494.398 362.193 493.822 362.43C493.246 362.667 492.629 362.787 492.006 362.785H271.687C271.065 362.785 270.449 362.662 269.874 362.424C269.3 362.186 268.778 361.837 268.338 361.397C267.898 360.958 267.549 360.436 267.311 359.861C267.073 359.286 266.951 358.67 266.951 358.049V206.733C266.956 205.481 267.458 204.281 268.345 203.398C269.233 202.514 270.434 202.018 271.687 202.018H492.006C492.627 202.016 493.242 202.135 493.817 202.371C494.391 202.607 494.914 202.954 495.354 203.392C495.794 203.83 496.143 204.35 496.381 204.924C496.619 205.497 496.742 206.112 496.742 206.733" fill="white"/>
<path d="M268.601 203.326H495.092V228.441H268.601V203.326Z" fill="#8AD0A5"/>
<path d="M301.988 129.8C301.993 140.512 298.82 150.985 292.871 159.894C286.922 168.803 278.465 175.747 268.569 179.848C258.673 183.95 247.782 185.024 237.276 182.935C226.769 180.846 217.118 175.688 209.543 168.113C201.969 160.539 196.811 150.888 194.722 140.381C192.633 129.874 193.707 118.984 197.809 109.088C201.91 99.1921 208.854 90.7347 217.763 84.786C226.672 78.8372 237.144 75.6642 247.857 75.6685C262.212 75.6741 275.977 81.3791 286.127 91.5295C296.278 101.68 301.983 115.445 301.988 129.8" fill="#5BBD81"/>
<path d="M247.857 183.953C277.765 183.953 302.01 159.708 302.01 129.8C302.01 99.8921 277.765 75.647 247.857 75.647C217.949 75.647 193.704 99.8921 193.704 129.8C193.704 159.708 217.949 183.953 247.857 183.953Z" stroke="#3E3750" stroke-width="1.5" stroke-miterlimit="10" stroke-linecap="round"/>
<path d="M255.421 69.0468H240.785C239.58 69.1952 238.357 69.086 237.197 68.7263C236.038 68.3665 234.968 67.7646 234.058 66.9602C233.149 66.1559 232.421 65.1675 231.922 64.0606C231.423 62.9536 231.165 61.7533 231.165 60.5392C231.165 59.3251 231.423 58.1248 231.922 57.0178C232.421 55.9108 233.149 54.9225 234.058 54.1181C234.968 53.3138 236.038 52.7118 237.197 52.3521C238.357 51.9924 239.58 51.8832 240.785 52.0316H255.421C256.626 51.8832 257.849 51.9924 259.009 52.3521C260.169 52.7118 261.239 53.3138 262.148 54.1181C263.057 54.9225 263.786 55.9108 264.285 57.0178C264.783 58.1248 265.041 59.3251 265.041 60.5392C265.041 61.7533 264.783 62.9536 264.285 64.0606C263.786 65.1675 263.057 66.1559 262.148 66.9602C261.239 67.7646 260.169 68.3665 259.009 68.7263C257.849 69.086 256.626 69.1952 255.421 69.0468" fill="#5BBD81"/>
<path d="M255.421 69.0468H240.785C239.58 69.1952 238.357 69.086 237.197 68.7263C236.038 68.3665 234.968 67.7646 234.058 66.9602C233.149 66.1559 232.421 65.1675 231.922 64.0606C231.423 62.9536 231.165 61.7533 231.165 60.5392C231.165 59.3251 231.423 58.1248 231.922 57.0178C232.421 55.9108 233.149 54.9225 234.058 54.1181C234.968 53.3138 236.038 52.7118 237.197 52.3521C238.357 51.9924 239.58 51.8832 240.785 52.0316H255.421C256.626 51.8832 257.849 51.9924 259.009 52.3521C260.169 52.7118 261.239 53.3138 262.148 54.1181C263.057 54.9225 263.786 55.9108 264.285 57.0178C264.783 58.1248 265.041 59.3251 265.041 60.5392C265.041 61.7533 264.783 62.9536 264.285 64.0606C263.786 65.1675 263.057 66.1559 262.148 66.9602C261.239 67.7646 260.169 68.3665 259.009 68.7263C257.849 69.086 256.626 69.1952 255.421 69.0468V69.0468Z" stroke="#3E3750" stroke-width="1.5" stroke-miterlimit="10" stroke-linecap="round"/>
<path d="M293.052 129.8C293.056 140.511 289.884 150.983 283.936 159.892C277.988 168.8 269.532 175.744 259.637 179.846C249.743 183.948 238.854 185.024 228.347 182.937C217.841 180.849 208.19 175.694 200.615 168.121C193.039 160.548 187.879 150.899 185.788 140.394C183.697 129.889 184.768 118.999 188.866 109.103C192.964 99.2065 199.905 90.7477 208.811 84.7964C217.717 78.845 228.188 75.6685 238.899 75.6685C253.258 75.6685 267.028 81.3709 277.183 91.5219C287.339 101.673 293.046 115.441 293.052 129.8" fill="#E3F4E9"/>
<path d="M238.92 183.953C268.828 183.953 293.073 159.708 293.073 129.8C293.073 99.8921 268.828 75.647 238.92 75.647C209.013 75.647 184.767 99.8921 184.767 129.8C184.767 159.708 209.013 183.953 238.92 183.953Z" stroke="#3E3750" stroke-width="1.5" stroke-miterlimit="10" stroke-linecap="round"/>
<path d="M280.323 129.8C280.323 137.989 277.895 145.993 273.345 152.802C268.796 159.61 262.33 164.917 254.764 168.051C247.199 171.184 238.875 172.004 230.843 170.407C222.812 168.809 215.435 164.866 209.645 159.076C203.854 153.286 199.911 145.908 198.314 137.877C196.716 129.846 197.536 121.521 200.67 113.956C203.803 106.391 209.11 99.9246 215.919 95.3753C222.727 90.8259 230.732 88.3977 238.92 88.3977C249.901 88.3977 260.432 92.7597 268.196 100.524C275.961 108.289 280.323 118.819 280.323 129.8" fill="white"/>
<path d="M238.92 171.202C261.786 171.202 280.323 152.666 280.323 129.8C280.323 106.934 261.786 88.3977 238.92 88.3977C216.055 88.3977 197.518 106.934 197.518 129.8C197.518 152.666 216.055 171.202 238.92 171.202Z" stroke="#3E3750" stroke-width="1.5" stroke-miterlimit="10" stroke-linecap="round"/>
<path d="M246.442 69.0468H231.806C230.601 69.1952 229.378 69.086 228.218 68.7263C227.059 68.3665 225.989 67.7646 225.079 66.9602C224.17 66.1559 223.442 65.1675 222.943 64.0606C222.444 62.9536 222.186 61.7533 222.186 60.5392C222.186 59.3251 222.444 58.1248 222.943 57.0178C223.442 55.9108 224.17 54.9225 225.079 54.1181C225.989 53.3138 227.059 52.7118 228.218 52.3521C229.378 51.9924 230.601 51.8832 231.806 52.0316H246.442C247.647 51.8832 248.87 51.9924 250.03 52.3521C251.189 52.7118 252.259 53.3138 253.169 54.1181C254.078 54.9225 254.807 55.9108 255.305 57.0178C255.804 58.1248 256.062 59.3251 256.062 60.5392C256.062 61.7533 255.804 62.9536 255.305 64.0606C254.807 65.1675 254.078 66.1559 253.169 66.9602C252.259 67.7646 251.189 68.3665 250.03 68.7263C248.87 69.086 247.647 69.1952 246.442 69.0468" fill="#E3F4E9"/>
<path d="M246.442 69.0468H231.806C230.601 69.1952 229.378 69.086 228.218 68.7263C227.059 68.3665 225.989 67.7646 225.079 66.9602C224.17 66.1559 223.442 65.1675 222.943 64.0606C222.444 62.9536 222.186 61.7533 222.186 60.5392C222.186 59.3251 222.444 58.1248 222.943 57.0178C223.442 55.9108 224.17 54.9225 225.079 54.1181C225.989 53.3138 227.059 52.7118 228.218 52.3521C229.378 51.9924 230.601 51.8832 231.806 52.0316H246.442C247.647 51.8832 248.87 51.9924 250.03 52.3521C251.189 52.7118 252.259 53.3138 253.169 54.1181C254.078 54.9225 254.807 55.9108 255.305 57.0178C255.804 58.1248 256.062 59.3251 256.062 60.5392C256.062 61.7533 255.804 62.9536 255.305 64.0606C254.807 65.1675 254.078 66.1559 253.169 66.9602C252.259 67.7646 251.189 68.3665 250.03 68.7263C248.87 69.086 247.647 69.1952 246.442 69.0468V69.0468Z" stroke="#3E3750" stroke-width="1.5" stroke-miterlimit="10" stroke-linecap="round"/>
<path d="M285.937 78.6686C285.937 79.6053 285.66 80.5209 285.139 81.2998C284.619 82.0786 283.879 82.6856 283.014 83.0441C282.148 83.4025 281.196 83.4963 280.277 83.3136C279.359 83.1308 278.515 82.6798 277.853 82.0174C277.19 81.3551 276.739 80.5112 276.556 79.5925C276.374 78.6739 276.468 77.7216 276.826 76.8562C277.184 75.9908 277.791 75.2512 278.57 74.7308C279.349 74.2104 280.265 73.9326 281.201 73.9326C282.458 73.9326 283.662 74.4316 284.55 75.3198C285.438 76.2079 285.937 77.4125 285.937 78.6686Z" fill="#E3F4E9"/>
<path d="M281.201 83.4046C283.817 83.4046 285.937 81.2842 285.937 78.6686C285.937 76.053 283.817 73.9326 281.201 73.9326C278.586 73.9326 276.465 76.053 276.465 78.6686C276.465 81.2842 278.586 83.4046 281.201 83.4046Z" stroke="#3E3750" stroke-width="1.5" stroke-miterlimit="10" stroke-linecap="round"/>
<path d="M237.249 134.407C236.627 133.785 236.278 132.941 236.278 132.061C236.278 131.181 236.627 130.337 237.249 129.714L260.822 106.142C261.433 105.491 262.277 105.109 263.169 105.081C264.062 105.053 264.928 105.381 265.579 105.992C266.23 106.603 266.611 107.447 266.639 108.339C266.668 109.231 266.34 110.098 265.729 110.749L242.156 134.322C241.534 134.943 240.69 135.292 239.81 135.292C238.93 135.292 238.086 134.943 237.463 134.322" fill="#3E3750"/>
<path d="M238.985 132.865C243.549 133.765 247.685 116.878 251.071 119.835L264.743 106.163C257.661 99.5723 248.644 95.4392 239.028 94.3767C239.039 94.5694 239.039 94.7626 239.028 94.9553L238.985 132.865Z" fill="#8AD0A5"/>
<path d="M237.249 134.407C236.627 133.785 236.278 132.941 236.278 132.061C236.278 131.181 236.627 130.337 237.249 129.714L260.822 106.142C261.433 105.491 262.277 105.109 263.169 105.081C264.062 105.053 264.928 105.381 265.579 105.992C266.23 106.603 266.611 107.447 266.639 108.339C266.668 109.231 266.34 110.098 265.729 110.749L242.156 134.322C241.534 134.943 240.69 135.292 239.81 135.292C238.93 135.292 238.086 134.943 237.463 134.322" fill="#3E3750"/>
<path d="M187.318 275.972H221.777H187.318ZM187.318 284.137H213.098H187.318ZM187.318 292.302H213.098H187.318ZM187.318 300.467H213.098H187.318ZM106.742 237.335H239.735C240.991 237.335 242.196 237.834 243.084 238.722C243.972 239.61 244.471 240.815 244.471 242.071V332.29C244.471 333.546 243.972 334.751 243.084 335.639C242.196 336.527 240.991 337.026 239.735 337.026H106.742C105.491 337.026 104.292 336.529 103.408 335.645C102.524 334.761 102.027 333.562 102.027 332.311V242.156C102.016 241.529 102.129 240.906 102.361 240.323C102.592 239.739 102.937 239.208 103.376 238.76C103.815 238.311 104.338 237.954 104.916 237.709C105.494 237.465 106.114 237.337 106.742 237.335V237.335ZM271.687 202.018H492.006C492.628 202.018 493.244 202.141 493.819 202.379C494.393 202.617 494.915 202.966 495.355 203.405C495.795 203.845 496.144 204.367 496.382 204.942C496.62 205.517 496.742 206.132 496.742 206.754V358.07C496.742 358.692 496.62 359.308 496.382 359.882C496.144 360.457 495.795 360.979 495.355 361.419C494.915 361.859 494.393 362.207 493.819 362.445C493.244 362.683 492.628 362.806 492.006 362.806H271.687C270.436 362.806 269.237 362.309 268.353 361.425C267.469 360.541 266.972 359.342 266.972 358.091V206.733C266.978 205.484 267.476 204.288 268.359 203.405C269.242 202.522 270.438 202.024 271.687 202.018V202.018Z" stroke="#3E3750" stroke-width="1.5" stroke-miterlimit="10" stroke-linecap="round"/>
<path d="M161.302 282.402C161.302 283.673 160.925 284.916 160.218 285.973C159.512 287.031 158.508 287.855 157.333 288.341C156.158 288.828 154.866 288.955 153.619 288.707C152.372 288.459 151.226 287.847 150.327 286.948C149.428 286.048 148.816 284.903 148.568 283.656C148.319 282.409 148.447 281.116 148.933 279.941C149.42 278.767 150.244 277.763 151.301 277.056C152.358 276.35 153.601 275.973 154.873 275.973C156.578 275.973 158.213 276.65 159.419 277.856C160.625 279.061 161.302 280.697 161.302 282.402" fill="#5BBD81"/>
<path d="M154.873 288.831C158.424 288.831 161.302 285.952 161.302 282.402C161.302 278.851 158.424 275.973 154.873 275.973C151.322 275.973 148.444 278.851 148.444 282.402C148.444 285.952 151.322 288.831 154.873 288.831Z" stroke="#3E3750" stroke-width="1.5" stroke-miterlimit="10" stroke-linecap="round"/>
<path d="M171.995 293.845C171.995 299.321 170.371 304.674 167.329 309.227C164.287 313.78 159.963 317.329 154.903 319.425C149.844 321.52 144.277 322.069 138.907 321C133.536 319.932 128.602 317.295 124.73 313.423C120.858 309.551 118.221 304.617 117.153 299.246C116.084 293.876 116.633 288.309 118.728 283.25C120.824 278.19 124.373 273.866 128.926 270.824C133.479 267.782 138.832 266.158 144.308 266.158C147.944 266.158 151.544 266.874 154.903 268.265C158.263 269.657 161.315 271.696 163.886 274.267C166.457 276.838 168.496 279.89 169.888 283.25C171.279 286.609 171.995 290.209 171.995 293.845Z" fill="#E3F4E9"/>
<path d="M144.308 266.158C144.308 266.158 162.373 266.608 169.595 282.551C176.817 298.495 164.688 312.553 164.688 312.553L144.222 293.588L144.308 266.158Z" fill="#5BBD81"/>
<path d="M144.308 321.532C159.599 321.532 171.995 309.136 171.995 293.845C171.995 278.554 159.599 266.158 144.308 266.158C129.017 266.158 116.621 278.554 116.621 293.845C116.621 309.136 129.017 321.532 144.308 321.532Z" stroke="#3E3750" stroke-width="1.5" stroke-miterlimit="10" stroke-linecap="round"/>
<path d="M144.308 293.845V266.158" stroke="#3E3750" stroke-width="1.5" stroke-miterlimit="10" stroke-linecap="round"/>
<path d="M144.308 293.845L164.666 312.596Z" fill="#5BBD81"/>
<path d="M144.308 293.845L164.666 312.596" stroke="#3E3750" stroke-width="1.5" stroke-miterlimit="10" stroke-linecap="round"/>
<path d="M144.308 293.845L117.885 285.509Z" fill="#5BBD81"/>
<path d="M144.308 293.845L117.885 285.509" stroke="#3E3750" stroke-width="1.5" stroke-miterlimit="10" stroke-linecap="round"/>
<path d="M144.308 293.845L123.735 312.275Z" fill="#5BBD81"/>
<path d="M144.308 293.845L123.735 312.275" stroke="#3E3750" stroke-width="1.5" stroke-miterlimit="10" stroke-linecap="round"/>
<path d="M144.308 293.845L135.265 267.658Z" fill="#5BBD81"/>
<path d="M144.308 293.845L135.265 267.658" stroke="#3E3750" stroke-width="1.5" stroke-miterlimit="10" stroke-linecap="round"/>
<path d="M307.11 290.866H293.588V283.087C293.588 282.263 293.915 281.473 294.498 280.89C295.081 280.307 295.871 279.98 296.695 279.98H303.96C304.784 279.98 305.574 280.307 306.157 280.89C306.74 281.473 307.067 282.263 307.067 283.087L307.11 290.866Z" fill="#5BBD81"/>
<path d="M307.11 290.866H293.588V283.087C293.588 282.263 293.915 281.473 294.498 280.89C295.081 280.307 295.871 279.98 296.695 279.98H303.96C304.784 279.98 305.574 280.307 306.157 280.89C306.74 281.473 307.067 282.263 307.067 283.087L307.11 290.866Z" stroke="#3E3750" stroke-width="1.5" stroke-miterlimit="10" stroke-linecap="round"/>
<path d="M331.047 290.866H317.546V273.444C317.546 272.62 317.874 271.829 318.456 271.247C319.039 270.664 319.829 270.336 320.654 270.336H327.875C328.7 270.336 329.49 270.664 330.073 271.247C330.655 271.829 330.983 272.62 330.983 273.444L331.047 290.866Z" fill="#5BBD81"/>
<path d="M331.047 290.866H317.546V273.444C317.546 272.62 317.874 271.829 318.456 271.247C319.039 270.664 319.829 270.336 320.654 270.336H327.875C328.7 270.336 329.49 270.664 330.073 271.247C330.655 271.829 330.983 272.62 330.983 273.444L331.047 290.866Z" stroke="#3E3750" stroke-width="1.5" stroke-miterlimit="10" stroke-linecap="round"/>
<path d="M426.795 290.866H413.294V273.444C413.294 272.62 413.622 271.829 414.205 271.247C414.787 270.664 415.578 270.336 416.402 270.336H423.666C424.491 270.336 425.281 270.664 425.864 271.247C426.446 271.829 426.774 272.62 426.774 273.444L426.795 290.866Z" fill="#5BBD81"/>
<path d="M426.795 290.866H413.294V273.444C413.294 272.62 413.622 271.829 414.205 271.247C414.787 270.664 415.578 270.336 416.402 270.336H423.666C424.491 270.336 425.281 270.664 425.864 271.247C426.446 271.829 426.774 272.62 426.774 273.444L426.795 290.866Z" stroke="#3E3750" stroke-width="1.5" stroke-miterlimit="10" stroke-linecap="round"/>
<path d="M354.984 290.866H341.483V251.393C341.483 250.568 341.811 249.778 342.393 249.195C342.976 248.613 343.767 248.285 344.591 248.285H351.855C352.265 248.282 352.672 248.361 353.051 248.516C353.431 248.67 353.776 248.899 354.066 249.188C354.357 249.477 354.588 249.82 354.746 250.198C354.903 250.577 354.984 250.983 354.984 251.393V290.866Z" fill="#5BBD81"/>
<path d="M354.984 290.866H341.483V251.393C341.483 250.568 341.811 249.778 342.393 249.195C342.976 248.613 343.767 248.285 344.591 248.285H351.855C352.265 248.282 352.672 248.361 353.051 248.516C353.431 248.67 353.776 248.899 354.066 249.188C354.357 249.477 354.588 249.82 354.746 250.198C354.903 250.577 354.984 250.983 354.984 251.393V290.866Z" stroke="#3E3750" stroke-width="1.5" stroke-miterlimit="10" stroke-linecap="round"/>
<path d="M378.921 290.866H365.42V265.151C365.42 264.742 365.501 264.338 365.657 263.961C365.813 263.584 366.042 263.242 366.331 262.953C366.619 262.665 366.962 262.436 367.339 262.28C367.716 262.124 368.12 262.043 368.528 262.043H375.792C376.2 262.043 376.605 262.124 376.982 262.28C377.359 262.436 377.701 262.665 377.99 262.953C378.278 263.242 378.507 263.584 378.663 263.961C378.819 264.338 378.9 264.742 378.9 265.151L378.921 290.866Z" fill="#5BBD81"/>
<path d="M378.921 290.866H365.42V265.151C365.42 264.742 365.501 264.338 365.657 263.961C365.813 263.584 366.042 263.242 366.331 262.953C366.619 262.665 366.962 262.436 367.339 262.28C367.716 262.124 368.12 262.043 368.528 262.043H375.792C376.2 262.043 376.605 262.124 376.982 262.28C377.359 262.436 377.701 262.665 377.99 262.953C378.278 263.242 378.507 263.584 378.663 263.961C378.819 264.338 378.9 264.742 378.9 265.151L378.921 290.866Z" stroke="#3E3750" stroke-width="1.5" stroke-miterlimit="10" stroke-linecap="round"/>
<path d="M450.732 290.866H437.167V265.151C437.167 264.742 437.248 264.338 437.404 263.961C437.56 263.584 437.789 263.242 438.077 262.953C438.366 262.665 438.708 262.436 439.085 262.28C439.462 262.124 439.867 262.043 440.275 262.043H447.539C447.947 262.043 448.351 262.124 448.728 262.28C449.105 262.436 449.448 262.665 449.736 262.953C450.025 263.242 450.254 263.584 450.41 263.961C450.566 264.338 450.647 264.742 450.647 265.151L450.732 290.866Z" fill="#5BBD81"/>
<path d="M450.732 290.866H437.167V265.151C437.167 264.742 437.248 264.338 437.404 263.961C437.56 263.584 437.789 263.242 438.077 262.953C438.366 262.665 438.708 262.436 439.085 262.28C439.462 262.124 439.867 262.043 440.275 262.043H447.539C447.947 262.043 448.351 262.124 448.728 262.28C449.105 262.436 449.448 262.665 449.736 262.953C450.025 263.242 450.254 263.584 450.41 263.961C450.566 264.338 450.647 264.742 450.647 265.151L450.732 290.866Z" stroke="#3E3750" stroke-width="1.5" stroke-miterlimit="10" stroke-linecap="round"/>
<path d="M402.88 290.866H389.379V242.371C389.379 241.546 389.706 240.756 390.289 240.173C390.872 239.591 391.662 239.263 392.486 239.263H399.751C400.161 239.26 400.567 239.339 400.947 239.494C401.326 239.648 401.671 239.877 401.962 240.166C402.253 240.455 402.484 240.798 402.641 241.176C402.799 241.555 402.88 241.961 402.88 242.371V290.866Z" fill="#5BBD81"/>
<path d="M402.88 290.866H389.379V242.371C389.379 241.546 389.706 240.756 390.289 240.173C390.872 239.591 391.662 239.263 392.486 239.263H399.751C400.161 239.26 400.567 239.339 400.947 239.494C401.326 239.648 401.671 239.877 401.962 240.166C402.253 240.455 402.484 240.798 402.641 241.176C402.799 241.555 402.88 241.961 402.88 242.371V290.866Z" stroke="#3E3750" stroke-width="1.5" stroke-miterlimit="10" stroke-linecap="round"/>
<path d="M474.669 290.866H461.169V248.864C461.169 248.04 461.496 247.249 462.079 246.667C462.661 246.084 463.452 245.757 464.276 245.757H471.455C472.279 245.757 473.069 246.084 473.652 246.667C474.235 247.249 474.562 248.04 474.562 248.864L474.669 290.866Z" fill="#5BBD81"/>
<path d="M474.669 290.866H461.169V248.864C461.169 248.04 461.496 247.249 462.079 246.667C462.661 246.084 463.452 245.757 464.276 245.757H471.455C472.279 245.757 473.069 246.084 473.652 246.667C474.235 247.249 474.562 248.04 474.562 248.864L474.669 290.866Z" stroke="#3E3750" stroke-width="1.5" stroke-miterlimit="10" stroke-linecap="round"/>
<path d="M485.448 290.866H284.587C283.945 290.866 283.329 290.611 282.875 290.157C282.421 289.703 282.166 289.087 282.166 288.445V248.8" stroke="#3E3750" stroke-width="1.5" stroke-miterlimit="10" stroke-linecap="round"/>
<path d="M282.166 305.181H482.813V321.532H282.166V305.181Z" fill="#8AD0A5"/>
<path d="M456.69 329.718H472.484M294.081 313.367H354.984H294.081ZM418.781 313.367H438.796H418.781ZM456.69 313.367H472.484H456.69ZM294.081 329.718H354.984H294.081ZM418.781 329.718H438.796H418.781Z" stroke="#3E3750" stroke-width="1.5" stroke-miterlimit="10" stroke-linecap="round"/>
<path d="M282.166 337.883H482.813V354.234H282.166V337.883Z" fill="#8AD0A5"/>
<path d="M456.69 346.069H472.484M294.081 346.069H354.984H294.081ZM418.781 346.069H438.796H418.781Z" stroke="#3E3750" stroke-width="1.5" stroke-miterlimit="10" stroke-linecap="round"/>
<path d="M69.7753 500.235C69.7796 506.144 68.0311 511.922 64.7512 516.837C61.4713 521.753 56.8072 525.585 51.349 527.849C45.8908 530.114 39.8836 530.708 34.0874 529.558C28.2912 528.408 22.9663 525.564 18.7863 521.387C14.6064 517.21 11.7591 511.888 10.6047 506.092C9.4503 500.297 10.0406 494.289 12.301 488.829C14.5614 483.37 18.3903 478.703 23.3034 475.419C28.2165 472.136 33.993 470.383 39.9022 470.383C47.8251 470.383 55.4234 473.531 61.0257 479.133C66.628 484.735 69.7753 492.334 69.7753 500.256" fill="white"/>
<path d="M39.9022 530.108C56.4007 530.108 69.7753 516.734 69.7753 500.235C69.7753 483.737 56.4007 470.362 39.9022 470.362C23.4038 470.362 10.0291 483.737 10.0291 500.235C10.0291 516.734 23.4038 530.108 39.9022 530.108Z" stroke="#3E3750" stroke-width="1.5" stroke-miterlimit="10" stroke-linecap="round"/>
<path d="M58.1818 522.436C58.1818 517.486 56.2153 512.738 52.7149 509.238C49.2144 505.738 44.4668 503.771 39.5165 503.771C34.5661 503.771 29.8185 505.738 26.3181 509.238C22.8177 512.738 20.8512 517.486 20.8512 522.436L24.8585 526.037L32.1447 528.78L41.0594 530.087L46.1383 529.444C47.5002 529.155 48.8395 528.768 50.1457 528.287L54.9031 526.379L58.589 524.365L58.1818 522.436Z" fill="#E3F4E9"/>
<path d="M592.683 125.664H446.746C442.46 125.664 425.081 133.315 425.081 133.315C425.081 133.315 431.103 114.435 431.103 110.042V17.1438C431.125 13.0154 432.781 9.06375 435.708 6.15251C438.636 3.24127 442.596 1.60713 446.725 1.60719H592.662C596.794 1.60146 600.76 3.2331 603.692 6.14495C606.624 9.05679 608.283 13.0116 608.305 17.1438V110.042C608.305 114.185 606.66 118.159 603.73 121.088C600.8 124.018 596.826 125.664 592.683 125.664" fill="#5BBD81"/>
<path d="M592.683 125.664H446.746C442.46 125.664 425.081 133.315 425.081 133.315C425.081 133.315 431.103 114.435 431.103 110.042V17.1438C431.125 13.0154 432.781 9.06375 435.708 6.15251C438.636 3.24127 442.596 1.60713 446.725 1.60719H592.662C596.794 1.60146 600.76 3.2331 603.692 6.14495C606.624 9.05679 608.283 13.0116 608.305 17.1438V110.042C608.305 114.185 606.66 118.159 603.73 121.088C600.8 124.018 596.826 125.664 592.683 125.664V125.664Z" stroke="#3E3750" stroke-width="1.5" stroke-miterlimit="10" stroke-linecap="round"/>
<path d="M588.547 64.9964C588.547 67.4377 587.823 69.8242 586.467 71.8541C585.111 73.884 583.183 75.4661 580.927 76.4003C578.672 77.3346 576.19 77.579 573.796 77.1027C571.401 76.6265 569.202 75.4509 567.475 73.7246C565.749 71.9983 564.574 69.7989 564.097 67.4045C563.621 65.0101 563.865 62.5282 564.8 60.2727C565.734 58.0172 567.316 56.0894 569.346 54.7331C571.376 53.3768 573.762 52.6528 576.204 52.6528C579.477 52.6528 582.617 53.9533 584.932 56.2682C587.247 58.583 588.547 61.7227 588.547 64.9964" fill="#5BBD81"/>
<path d="M580.297 67.4609H465.347C464.779 67.4609 464.234 67.2351 463.832 66.8332C463.43 66.4313 463.204 65.8863 463.204 65.3179V64.6964C463.204 64.1281 463.43 63.583 463.832 63.1811C464.234 62.7792 464.779 62.5535 465.347 62.5535H580.318C580.886 62.5535 581.432 62.7792 581.833 63.1811C582.235 63.583 582.461 64.1281 582.461 64.6964V65.3179C582.461 65.8863 582.235 66.4313 581.833 66.8332C581.432 67.2351 580.886 67.4609 580.318 67.4609H580.297ZM580.297 91.2479H465.347C464.779 91.2479 464.234 91.0222 463.832 90.6203C463.43 90.2184 463.204 89.6733 463.204 89.105V88.4835C463.204 87.9151 463.43 87.3701 463.832 86.9682C464.234 86.5663 464.779 86.3405 465.347 86.3405H580.318C580.886 86.3405 581.432 86.5663 581.833 86.9682C582.235 87.3701 582.461 87.9151 582.461 88.4835V89.105C582.461 89.6733 582.235 90.2184 581.833 90.6203C581.432 91.0222 580.886 91.2479 580.318 91.2479" fill="#3E3750"/>
<path d="M469.783 148.08H615.72C620.006 148.08 637.385 155.73 637.385 155.73C637.385 155.73 631.364 136.85 631.364 132.457V39.645C631.364 35.5017 629.718 31.5281 626.788 28.5984C623.858 25.6686 619.885 24.0227 615.741 24.0227H469.805C465.661 24.0227 461.688 25.6686 458.758 28.5984C455.828 31.5281 454.182 35.5017 454.182 39.645V132.457C454.182 136.601 455.828 140.574 458.758 143.504C461.688 146.434 465.661 148.08 469.805 148.08" fill="white"/>
<path d="M469.783 148.08H615.72C620.006 148.08 637.385 155.73 637.385 155.73C637.385 155.73 631.364 136.85 631.364 132.457V39.645C631.364 35.5017 629.718 31.5281 626.788 28.5984C623.858 25.6686 619.885 24.0227 615.741 24.0227H469.805C465.661 24.0227 461.688 25.6686 458.758 28.5984C455.828 31.5281 454.182 35.5017 454.182 39.645V132.457C454.182 136.597 455.825 140.567 458.751 143.496C461.676 146.426 465.644 148.074 469.783 148.08V148.08Z" stroke="#3E3750" stroke-width="1.5" stroke-miterlimit="10" stroke-linecap="round"/>
<path d="M473.919 87.4334C473.936 89.871 474.674 92.249 476.041 94.2676C477.408 96.2862 479.341 97.8549 481.598 98.776C483.855 99.6972 486.334 99.9294 488.723 99.4435C491.112 98.9576 493.303 97.7753 495.021 96.0456C496.739 94.316 497.906 92.1165 498.375 89.7244C498.844 87.3324 498.595 84.8549 497.658 82.6044C496.722 80.3539 495.139 78.4312 493.112 77.0786C491.084 75.726 488.7 75.0042 486.263 75.0041C482.989 75.0041 479.849 76.3046 477.535 78.6195C475.22 80.9343 473.919 84.074 473.919 87.3477V87.4334ZM527.172 87.4334C527.189 89.8664 527.925 92.2402 529.287 94.2564C530.649 96.2726 532.576 97.8414 534.827 98.7656C537.077 99.6898 539.551 99.9282 541.937 99.4509C544.323 98.9736 546.514 97.8019 548.236 96.0829C549.958 94.364 551.134 92.1745 551.615 89.7895C552.096 87.4045 551.862 84.9304 550.942 82.6781C550.022 80.4258 548.456 78.4958 546.442 77.1304C544.428 75.765 542.056 75.0253 539.623 75.0041C537.986 74.9899 536.362 75.3015 534.846 75.9208C533.331 76.5401 531.954 77.4548 530.795 78.6115C529.636 79.7682 528.719 81.1439 528.097 82.6585C527.475 84.173 527.161 85.7962 527.172 87.4334V87.4334ZM580.747 87.4334C580.764 89.8746 581.504 92.256 582.875 94.2764C584.245 96.2968 586.184 97.8654 588.446 98.7839C590.708 99.7025 593.191 99.9296 595.582 99.4367C597.973 98.9438 600.164 97.753 601.879 96.0148C603.593 94.2766 604.753 92.0691 605.213 89.6714C605.672 87.2738 605.411 84.7937 604.461 82.5448C603.511 80.2958 601.916 78.3791 599.876 77.0368C597.837 75.6946 595.446 74.9872 593.004 75.0041C591.384 75.0153 589.781 75.3457 588.287 75.9764C586.794 76.6072 585.44 77.5258 584.301 78.68C583.163 79.8342 582.263 81.2012 581.653 82.7032C581.043 84.2051 580.735 85.8124 580.747 87.4334" fill="#5BBD81"/>
<path d="M489.135 65.2535H590.112C590.538 65.2535 590.947 65.0842 591.248 64.7828C591.549 64.4814 591.719 64.0726 591.719 63.6463C591.719 63.22 591.549 62.8112 591.248 62.5098C590.947 62.2084 590.538 62.0391 590.112 62.0391H489.135C488.708 62.0391 488.299 62.2084 487.998 62.5098C487.697 62.8112 487.527 63.22 487.527 63.6463C487.527 64.0726 487.697 64.4814 487.998 64.7828C488.299 65.0842 488.708 65.2535 489.135 65.2535V65.2535ZM489.135 89.0406H590.112C590.538 89.0406 590.947 88.8712 591.248 88.5698C591.549 88.2684 591.719 87.8596 591.719 87.4333C591.719 87.0071 591.549 86.5983 591.248 86.2968C590.947 85.9954 590.538 85.8261 590.112 85.8261H489.135C488.708 85.8261 488.299 85.9954 487.998 86.2968C487.697 86.5983 487.527 87.0071 487.527 87.4333C487.527 87.8596 487.697 88.2684 487.998 88.5698C488.299 88.8712 488.708 89.0406 489.135 89.0406ZM489.135 112.828H590.112C590.538 112.828 590.947 112.658 591.248 112.357C591.549 112.055 591.719 111.647 591.719 111.22C591.719 110.794 591.549 110.385 591.248 110.084C590.947 109.782 590.538 109.613 590.112 109.613H489.135C488.708 109.613 488.299 109.782 487.998 110.084C487.697 110.385 487.527 110.794 487.527 111.22C487.527 111.647 487.697 112.055 487.998 112.357C488.299 112.658 488.708 112.828 489.135 112.828" fill="#3E3750"/>
<path d="M523.122 289.302C523.122 290.574 522.745 291.816 522.039 292.874C521.332 293.931 520.328 294.755 519.153 295.242C517.979 295.728 516.686 295.855 515.439 295.607C514.192 295.359 513.046 294.747 512.147 293.848C511.248 292.949 510.636 291.803 510.388 290.556C510.14 289.309 510.267 288.016 510.754 286.842C511.24 285.667 512.064 284.663 513.121 283.957C514.179 283.25 515.422 282.873 516.693 282.873C518.398 282.873 520.033 283.55 521.239 284.756C522.445 285.962 523.122 287.597 523.122 289.302Z" fill="#5BBD81"/>
<path d="M516.693 295.817C520.244 295.817 523.122 292.938 523.122 289.388C523.122 285.837 520.244 282.959 516.693 282.959C513.143 282.959 510.264 285.837 510.264 289.388C510.264 292.938 513.143 295.817 516.693 295.817Z" stroke="#3E3750" stroke-width="1.5" stroke-miterlimit="10" stroke-linecap="round"/>
<path d="M142.465 225.398C142.465 226.67 142.088 227.913 141.382 228.97C140.675 230.027 139.671 230.851 138.496 231.338C137.322 231.824 136.029 231.952 134.782 231.704C133.535 231.456 132.389 230.843 131.49 229.944C130.591 229.045 129.979 227.899 129.731 226.652C129.483 225.405 129.61 224.113 130.097 222.938C130.583 221.763 131.407 220.759 132.464 220.053C133.522 219.346 134.765 218.969 136.036 218.969C137.741 218.969 139.376 219.647 140.582 220.852C141.788 222.058 142.465 223.693 142.465 225.398Z" fill="#5BBD81"/>
<path d="M136.036 231.827C139.587 231.827 142.465 228.949 142.465 225.398C142.465 221.848 139.587 218.969 136.036 218.969C132.486 218.969 129.607 221.848 129.607 225.398C129.607 228.949 132.486 231.827 136.036 231.827Z" stroke="#3E3750" stroke-width="1.5" stroke-miterlimit="10" stroke-linecap="round"/>
<path d="M177.16 126.436H142.872C141.11 126.436 139.421 127.135 138.175 128.381C136.929 129.627 136.229 131.317 136.229 133.079V207.676M531.458 288.83H557.174C558.938 288.83 560.63 288.131 561.879 286.886C563.128 285.641 563.833 283.951 563.839 282.187V161.966L531.458 288.83Z" stroke="#3E3750" stroke-width="1.5" stroke-miterlimit="10" stroke-linecap="round"/>
<path d="M431.145 448.975H423.474V611.263H431.145C452.666 611.263 473.305 602.714 488.523 587.496C503.74 572.279 512.289 551.64 512.289 530.119C512.289 508.598 503.74 487.959 488.523 472.742C473.305 457.524 452.666 448.975 431.145 448.975" fill="#5BBD81"/>
<path d="M431.145 448.975H423.474V611.263H431.145C452.666 611.263 473.305 602.714 488.523 587.496C503.74 572.279 512.289 551.64 512.289 530.119C512.289 508.598 503.74 487.959 488.523 472.742C473.305 457.524 452.666 448.975 431.145 448.975V448.975Z" stroke="#3E3750" stroke-width="1.5" stroke-miterlimit="10" stroke-linecap="round"/>
<path d="M423.474 448.975C407.427 448.975 391.741 453.733 378.399 462.649C365.056 471.564 354.657 484.235 348.517 499.06C342.376 513.885 340.769 530.198 343.9 545.936C347.03 561.675 354.757 576.131 366.104 587.478C377.451 598.825 391.907 606.552 407.645 609.682C423.384 612.813 439.697 611.206 454.522 605.065C469.347 598.925 482.018 588.526 490.933 575.183C499.848 561.841 504.607 546.155 504.607 530.108C504.607 508.59 496.059 487.954 480.843 472.738C465.628 457.523 444.992 448.975 423.474 448.975V448.975ZM423.474 598.576C409.932 598.576 396.694 594.561 385.435 587.037C374.175 579.514 365.4 568.821 360.217 556.31C355.035 543.799 353.679 530.032 356.321 516.751C358.963 503.469 365.484 491.269 375.059 481.694C384.635 472.119 396.835 465.598 410.116 462.956C423.398 460.314 437.164 461.67 449.675 466.852C462.186 472.034 472.88 480.81 480.403 492.069C487.926 503.329 491.942 516.566 491.942 530.108C491.942 548.267 484.728 565.682 471.888 578.522C459.048 591.363 441.633 598.576 423.474 598.576" fill="#E3F4E9"/>
<path d="M423.474 448.975C407.427 448.975 391.741 453.733 378.399 462.649C365.056 471.564 354.657 484.235 348.517 499.06C342.376 513.885 340.769 530.198 343.9 545.936C347.03 561.675 354.757 576.131 366.104 587.478C377.451 598.825 391.907 606.552 407.645 609.682C423.384 612.813 439.697 611.206 454.522 605.065C469.347 598.925 482.018 588.526 490.933 575.183C499.848 561.841 504.607 546.155 504.607 530.108C504.607 508.59 496.059 487.954 480.843 472.738C465.628 457.523 444.992 448.975 423.474 448.975" fill="white"/>
<path d="M423.474 611.241C468.282 611.241 504.607 574.917 504.607 530.108C504.607 485.3 468.282 448.975 423.474 448.975C378.665 448.975 342.341 485.3 342.341 530.108C342.341 574.917 378.665 611.241 423.474 611.241Z" stroke="#3E3750" stroke-width="1.5" stroke-miterlimit="10" stroke-linecap="round"/>
<path d="M362.935 530.108C362.964 512.646 369.654 495.852 381.64 483.153C393.627 470.454 410.006 462.806 427.438 461.769C426.131 461.769 424.802 461.64 423.474 461.64C405.315 461.64 387.9 468.854 375.059 481.694C362.219 494.534 355.006 511.949 355.006 530.108C355.006 548.267 362.219 565.682 375.059 578.523C387.9 591.363 405.315 598.576 423.474 598.576C424.802 598.576 426.131 598.576 427.438 598.448C410.006 597.411 393.627 589.763 381.64 577.064C369.654 564.365 362.964 547.571 362.935 530.108Z" fill="#5BBD81"/>
<path d="M437.232 543.738L384.643 571.232L411.001 516.993L462.326 490.785L437.232 543.738V543.738Z" fill="#5BBD81"/>
<path d="M429.26 535.466C428.247 536.479 426.956 537.168 425.551 537.448C424.146 537.727 422.69 537.584 421.366 537.036C420.042 536.488 418.911 535.559 418.115 534.368C417.319 533.177 416.895 531.776 416.895 530.344C416.895 528.911 417.319 527.511 418.115 526.32C418.911 525.129 420.042 524.2 421.366 523.652C422.69 523.104 424.146 522.96 425.551 523.24C426.956 523.519 428.247 524.209 429.26 525.222C430.618 526.581 431.381 528.423 431.381 530.344C431.381 532.265 430.618 534.107 429.26 535.466Z" fill="#E3F4E9"/>
<path d="M429.271 535.475C432.099 532.647 432.099 528.06 429.271 525.232C426.442 522.403 421.856 522.403 419.027 525.232C416.199 528.06 416.199 532.647 419.027 535.475C421.856 538.304 426.442 538.304 429.271 535.475Z" stroke="#3E3750" stroke-width="1.5" stroke-miterlimit="10" stroke-linecap="round"/>
<path d="M467.898 562.381L478.398 569.753M363.406 563.003C356.836 550.902 354.061 537.104 355.443 523.404C356.824 509.704 362.298 496.737 371.151 486.192C380.004 475.646 391.827 468.009 405.081 464.276C418.334 460.544 432.405 460.887 445.461 465.262L363.406 563.003ZM478.098 488.813C488.039 502.345 492.67 519.054 491.113 535.772C489.556 552.491 481.919 568.057 469.65 579.521C457.381 590.984 441.332 597.547 424.547 597.967C407.761 598.386 391.405 592.633 378.578 581.797L478.098 488.813ZM467.169 477.434C468.683 478.691 470.112 480.005 471.455 481.377L467.169 477.434ZM376.778 480.713L382.607 485.599L376.778 480.713ZM371.635 486.863L382.136 494.213L371.635 486.863ZM476.812 559.424L482.641 564.31L476.812 559.424Z" stroke="#3E3750" stroke-width="1.5" stroke-miterlimit="10" stroke-linecap="round"/>
<path d="M368.249 568.682C368.249 568.957 368.167 569.227 368.014 569.456C367.861 569.685 367.644 569.863 367.389 569.969C367.135 570.074 366.855 570.102 366.584 570.048C366.314 569.994 366.066 569.862 365.871 569.667C365.676 569.472 365.544 569.224 365.49 568.953C365.436 568.683 365.464 568.403 365.569 568.149C365.675 567.894 365.853 567.677 366.082 567.524C366.311 567.371 366.581 567.289 366.856 567.289C367.226 567.289 367.58 567.436 367.841 567.697C368.102 567.958 368.249 568.312 368.249 568.682" fill="#3E3750"/>
<path d="M58.5676 522.651C58.5676 517.7 56.601 512.953 53.1006 509.452C49.6002 505.952 44.8526 503.985 39.9022 503.985C34.9519 503.985 30.2043 505.952 26.7039 509.452C23.2034 512.953 21.2369 517.7 21.2369 522.651" stroke="#3E3750" stroke-width="1.5" stroke-miterlimit="10" stroke-linecap="round"/>
<path d="M51.11 494.642C51.11 496.859 50.4527 499.026 49.2211 500.869C47.9896 502.712 46.2392 504.148 44.1913 504.997C42.1433 505.845 39.8898 506.067 37.7157 505.634C35.5416 505.202 33.5446 504.134 31.9771 502.567C30.4097 501 29.3423 499.003 28.9098 496.828C28.4774 494.654 28.6993 492.401 29.5476 490.353C30.3959 488.305 31.8324 486.554 33.6755 485.323C35.5186 484.091 37.6855 483.434 39.9022 483.434C42.8747 483.434 45.7255 484.615 47.8273 486.717C49.9292 488.819 51.11 491.669 51.11 494.642" fill="#E3F4E9"/>
<path d="M39.9022 505.85C46.0921 505.85 51.11 500.832 51.11 494.642C51.11 488.452 46.0921 483.434 39.9022 483.434C33.7123 483.434 28.6945 488.452 28.6945 494.642C28.6945 500.832 33.7123 505.85 39.9022 505.85Z" stroke="#3E3750" stroke-width="1.5" stroke-miterlimit="10" stroke-linecap="round"/>
<path d="M39.9022 530.108C56.4007 530.108 69.7753 516.734 69.7753 500.235C69.7753 483.737 56.4007 470.362 39.9022 470.362C23.4038 470.362 10.0291 483.737 10.0291 500.235C10.0291 516.734 23.4038 530.108 39.9022 530.108Z" stroke="#3E3750" stroke-width="1.5" stroke-miterlimit="10" stroke-linecap="round"/>
</g>
<defs>
<clipPath id="clip0">
<rect width="640" height="612.87" fill="white"/>
</clipPath>
</defs>
</svg>
