<svg width="508" height="504" fill="none" xmlns="http://www.w3.org/2000/svg"><path d="M9.592 488.014l61.102-.268 61.102-.1L254 487.467l122.204.179 61.102.1 61.102.268-61.102.278-61.102.101-122.204.178-122.204-.178-61.102-.101-61.102-.278z" fill="#263238"/><path d="M488.419 100.342H303.586V287.16h184.833V100.342z" fill="#EBEBEB"/><path d="M388.567 89.072c6.165-7.235 16.722-8.974 26.933-6.912 10.212 2.063 22.441 7.213 23.556 24.292.914 13.868-3.344 27.39-3.344 42.864 0 15.473 17.513 53.164-10.513 71.558-25.183 16.522-76.207 1.349-77.779-32.663-1.238-26.956 30.735-51.883 34.101-62.551 3.367-10.669.29-28.673 7.046-36.588z" fill="#263238"/><path d="M383.963 104.289c-.189 7.714-1.304 15.518-4.459 22.798a21.945 21.945 0 01-3.177 5.117c-1.237 1.56-2.553 3.032-3.868 4.459-2.654 2.887-5.273 5.752-7.804 8.729a79.57 79.57 0 00-12.33 19.386 60.973 60.973 0 00-4.894 22.296 52.604 52.604 0 01.346-11.616 57.355 57.355 0 012.976-11.327 70.582 70.582 0 0112.174-20.122c2.531-3.021 5.217-5.908 7.893-8.762 2.675-2.854 5.384-5.574 7.045-8.918a49.06 49.06 0 003.869-10.747 92.086 92.086 0 002.229-11.293zM438.354 118.101c-.19 7.871-.691 15.73-.479 23.545.091 3.892.419 7.775.981 11.627.579 3.79 1.716 7.581 2.664 11.415.948 3.835 1.795 7.726 2.419 11.65a67.7 67.7 0 01.758 11.917 42.253 42.253 0 01-2.229 11.761 29.893 29.893 0 01-6.567 9.967 31.498 31.498 0 005.574-10.301 41.95 41.95 0 001.539-11.46 100.88 100.88 0 00-3.634-23.043c-.892-3.824-2.029-7.614-2.576-11.639a76.03 76.03 0 01-.602-11.894c.236-7.885.954-15.748 2.152-23.545z" fill="#263238"/><path d="M397.809 184.287c-25.64 28.226-46.565 41.782-67.189 41.782-19.609 0-61.503-47.613-64.58-53.889-2.653-5.418 31.738-35.06 37.022-31.37 8.919 6.176 37.524 41.927 40.557 42.094 3.032.168 14.202-7.212 41.102-19.81 16.343-7.636 30.925 1.628 13.088 21.193z" fill="#EB9481"/><path d="M270.031 176.873c-3.768-4.08-19.587-24.447-22.72-31.091-3.132-6.645-10.724-26.421-5.875-29.331 4.85-2.909 7.525 2.698 7.525 2.698s-1.884-8.851 3.266-11.337c5.151-2.486 9.03 6.376 9.03 6.376s-1.271-9.23 4.036-11.348c5.306-2.119 7.737 7.469 7.737 7.469s-1.561-8.395 3.545-8.294c6.142.122 7.268 15.919 11.27 22.998.903 1.605 20.724 31.214 20.724 31.214l-38.538 20.646z" fill="#EB9481"/><path d="M272.818 109.495c.858 11.605 3.244 16.544 10.033 25.763.134.178-.1.413-.256.245-7.503-8.428-11.382-14.18-10.368-25.997.078-.579.546-.568.591-.011zM261.224 113.274c1.94 11.984 4.459 17.358 10.914 27.536.089.145-.145.312-.246.178-7.145-9.465-10.891-15.295-11.259-27.524-.022-.558.502-.747.591-.19zM249.318 119.662c2.72 11.471 5.251 17.48 12.764 26.554.179.223-.122.502-.312.301-8.562-8.517-11.772-15.997-12.787-26.755-.066-.713.168-.825.335-.1z" fill="#263238"/><path d="M317.41 159.059s-.257-14.593-1.784-20.981c-1.527-6.387-15.919-28.081-20.835-25.227-6.277 3.678-.413 17.836 3.344 24.414 0 0-14.492 8.517-12.519 19.598 1.973 11.081 31.794 2.196 31.794 2.196z" fill="#EB9481"/><path d="M293.397 114.422c-3.344 7.492 2.23 15.797 5.407 22.43a.687.687 0 01.01.622.681.681 0 01-.501.37c-5.864 3.98-12.965 11.282-13.054 18.751a.168.168 0 01-.167.167.162.162 0 01-.118-.049.164.164 0 01-.049-.118c-.993-8.026 5.395-15.785 12.084-19.721-3.344-6.766-8.551-15.328-3.679-22.519l.067.067z" fill="#263238"/><path d="M353.596 174.699l20.601 38.439s27.937-27.123 32.396-38.439c4.459-11.315-.345-19.531-20.222-13.478a174.04 174.04 0 00-32.775 13.478z" fill="#5BBD81"/><path d="M378.957 205.122c-1.014-2.085-1.906-4.236-2.965-6.31a266.785 266.785 0 00-3.222-6.153c-2.229-4.103-4.459-8.216-6.778-12.263-1.315-2.23-2.697-4.526-4.136-6.689-.055-.1-.245 0-.189.078 3.779 8.462 8.361 16.566 12.932 24.615 1.326 2.33 2.831 4.548 4.213 6.845.045.056.201-.045.145-.123z" fill="#263238"/><path d="M406.594 174.699c-4.46 11.315-32.396 38.438-32.396 38.438l-13.88-25.852 45.785-25.317c2.631 2.743 2.598 7.391.491 12.731z" fill="#263238"/><path d="M358.289 239.414s-11.326 27.112-7.324 47.735h124.88c-4.058-56.063-32.006-104.244-48.516-119.84-13.311-12.575-27.324-11.449-37.078-5.017-2.297 1.527-27.636 36.543-30.379 42.084-10.88 21.861-1.583 35.038-1.583 35.038z" fill="#5BBD81"/><path d="M391.12 160.642s-7.804 22.441-3.277 23.611c11.259 2.899 26.364-15.484 27.267-17.357.223-.479 1.227-13.043 1.974-22.82.479-6.287.847-11.427.847-11.427l-27.781 9.532.892 17.224.078 1.237z" fill="#EB9481"/><path d="M390.105 142.181l.892 17.224c5.652-.792 18.082-3.858 26.042-15.329.479-6.287.847-11.427.847-11.427l-3.478 1.115-24.303 8.417z" fill="#263238"/><path d="M369.415 118.068c-.334 8.751.535 15.83 2.665 20.534a23.87 23.87 0 0020.724 13.98c3.344.122 12.976-.758 19.943-6.065 5.418-4.125 8.685-11.56 10.535-24.637 4.236-29.899-9.442-39.954-22.92-41.158-13.478-1.204-29.832 7.18-30.947 37.346z" fill="#EB9481"/><path d="M377.14 111.401c.703-.1 1.349-.301 2.029-.457a3.487 3.487 0 001.996-.858 1.118 1.118 0 000-1.316 2.68 2.68 0 00-2.631-.591 3.926 3.926 0 00-2.441 1.416 1.119 1.119 0 00.388 1.716c.206.097.436.128.659.09zM396.839 112.148a20.141 20.141 0 01-2.029-.468 3.343 3.343 0 01-1.984-.87 1.112 1.112 0 010-1.315 2.66 2.66 0 012.642-.569 3.91 3.91 0 012.452 1.438 1.12 1.12 0 01.076 1.266 1.112 1.112 0 01-1.157.518zM391.912 119.684c0-.078.156.101.156.19-.167 2.04 0 4.459 1.817 5.195v.111c-2.274-.423-2.453-3.589-1.973-5.496z" fill="#263238"/><path d="M393.852 117.622c3.344-.089 3.255 6.544.178 6.633-3.077.089-2.91-6.555-.178-6.633z" fill="#263238"/><path d="M395.156 117.99c.568.379 1.114 1.048 1.828 1.114.713.067 1.427-.602 1.962-1.27.056-.067.111 0 .111.078 0 1.27-.49 2.575-1.861 2.753-1.372.179-2.119-.981-2.431-2.229-.055-.268.156-.602.391-.446zM380.931 118.815c0-.078-.156.1-.156.178 0 2.062-.212 4.459-2.074 5.106-.055 0-.055.123 0 .111 2.286-.312 2.62-3.456 2.23-5.395z" fill="#263238"/><path d="M379.102 116.663c-3.344-.256-3.578 6.377-.512 6.611 3.065.234 3.277-6.388.512-6.611z" fill="#263238"/><path d="M377.743 117.053c-.535.335-1.115.948-1.706.97-.591.022-1.237-.725-1.672-1.427 0-.078-.1 0-.112.067-.078 1.271.279 2.597 1.494 2.898 1.215.301 1.962-.791 2.308-2.04.022-.245-.145-.602-.312-.468zM391.711 135.648c-.48.502-.948 1.182-1.684 1.271a5.702 5.702 0 01-2.229-.435.072.072 0 00-.049-.016.067.067 0 00-.063.071.066.066 0 00.023.046c.309.393.719.696 1.185.877.467.18.974.231 1.468.148a2.223 2.223 0 001.549-1.872.105.105 0 00-.008-.076.105.105 0 00-.055-.053.11.11 0 00-.076-.006.116.116 0 00-.061.045zM383.317 128.034s-.491 3.066-.513 4.515c0 .134.345.201.836.245h.056a6.875 6.875 0 006.688-2.43c.101-.134-.078-.29-.211-.201a10.432 10.432 0 01-6.321 1.672c-.09-.412 1.014-5.217.78-5.239-1.141.071-2.266.3-3.344.68.836-6.41 2.686-12.631 3.411-19.019 0-.223-.301-.301-.368-.1-2.408 6.377-3.523 13.734-4.56 20.323-.089.836 2.921-.201 3.546-.446z" fill="#263238"/><path d="M384.565 132.036a7.596 7.596 0 002.854 2.587 3.46 3.46 0 002.051.29c1.527-.279 1.672-1.65 1.494-2.843a8.64 8.64 0 00-.535-1.851 9.832 9.832 0 01-5.864 1.817z" fill="#263238"/><path d="M387.419 134.622a3.452 3.452 0 002.051.29c1.527-.279 1.672-1.65 1.494-2.843a3.527 3.527 0 00-3.545 2.553z" fill="#FF98B9"/><path d="M422.736 119.194c-3.289.1-12.62-8.105-14.314-23.868 0 0 2.508 14.046 3.756 16.02 1.249 1.973-5.217-4.627-6.766-17.313 0 0-6.578 5.73-12.442 7.959-5.863 2.23-9.531 2.52-10.033 2.119-.501-.402 8.116-3.991 10.256-6.957 0 0-15.306 8.919-22.619 10.123-.847.133.58-13.032 11.293-21.505 10.713-8.472 25.44-6.354 30.724-2.118 0 0 5.775.301 12.731 8.16 6.956 7.86.947 27.268-2.586 27.38z" fill="#263238"/><path d="M418.399 124.01s6.121-9.732 10.502-7.592c4.381 2.14.111 16.02-4.805 18.127a5.1 5.1 0 01-3.996.291 5.099 5.099 0 01-2.972-2.688l1.271-8.138z" fill="#EB9481"/><path d="M427.574 120.398c.089 0 .1.1 0 .134-3.445 1.594-5.128 4.949-6.265 8.394.992-1.36 2.374-2.14 4.18-.981.089.056 0 .212-.089.19a3.152 3.152 0 00-3.344 1.271 15.986 15.986 0 00-1.516 2.865c-.145.323-.725.189-.614-.179a.266.266 0 010-.089c-.312-4.504 2.865-10.947 7.648-11.605z" fill="#263238"/><path d="M436.994 173.429c12.352 14.258 46.977 65.873 38.951 79.819-7.703 13.378-25.172 17.146-35.228-.825-7.235-12.853-19.397-51.202-22.418-69.596-2.453-14.894 7.279-22.586 18.695-9.398z" fill="#EB9481"/><path d="M425.456 219.124l40.935-15.038s-22.976-31.449-33.555-37.435c-10.58-5.987-19.387-2.375-16.154 18.149a172.643 172.643 0 008.774 34.324z" fill="#5BBD81"/><path d="M459.123 198.244c-2.23.725-4.459 1.304-6.689 2.062a216.83 216.83 0 00-6.533 2.341c-4.381 1.628-8.751 3.256-13.087 5.006a142.64 142.64 0 00-7.235 3.155c-.112 0-.067.234 0 .2 8.918-2.564 17.569-5.975 26.175-9.375 2.497-.992 4.894-2.23 7.358-3.222.167-.044.089-.201.011-.167z" fill="#263238"/><path d="M427.764 218.165c-.811.179-1.605.426-2.375.736-1.115-2.419-3.757-13.054-4.37-15.785-1.226-5.441-2.229-10.937-3.511-16.377 0-.156-.301-.111-.279 0a187.07 187.07 0 001.371 9.019c-.557-1.427-1.115-2.865-1.549-4.325a.068.068 0 00-.03-.086.072.072 0 00-.032-.008.072.072 0 00-.032.008.072.072 0 00-.024.022.067.067 0 00-.01.031.076.076 0 00.005.033 44.222 44.222 0 001.862 5.328c.434 5.574 5.507 23.288 5.652 23.221a33.518 33.518 0 003.344-1.75c.123.034.123-.078-.022-.067z" fill="#263238"/><path d="M407.519 113.23l-11.65 49.731c-.502 1.46.245 2.631 1.672 2.608l22.24 4.526a4.132 4.132 0 003.501-2.697l11.649-49.732c.502-1.46-.245-2.63-1.672-2.597l-22.24-4.537a4.129 4.129 0 00-3.5 2.698z" fill="#A6A6A6"/><path d="M409.425 113.508l-11.616 49.731c-.502 1.461.245 2.631 1.672 2.609l22.24 4.526a4.12 4.12 0 003.501-2.686l11.605-49.732c.502-1.471-.245-2.631-1.672-2.608l-22.229-4.537a4.16 4.16 0 00-3.501 2.697z" fill="#DBDBDB"/><path d="M416.47 115.648a2.234 2.234 0 01-1.353 2.106 2.232 2.232 0 01-2.922-2.937 2.229 2.229 0 012.113-1.342 2.173 2.173 0 012.162 2.173z" fill="#263238"/><path d="M446.66 256.927c7.235 13.378 26.387 5.752 29.285-3.679 6.801-22.128 2.587-58.917-1.471-79.462-1.305-6.611-46.209 0-45.941 7.145.312 8.64 3.946 49.687 18.127 75.996z" fill="#EB9481"/><path d="M473.972 183.607a69.715 69.715 0 00.401-29.676c-2.363-10.691-10.089-33.366-41.147-43.477-7.369-2.408-19.576-.614-8.918 7.68 7.536 5.898 14.091 7.358 17.836 11.594 0 0-15.25 4.125-17.368 11.594a143.964 143.964 0 00-4.158 19.933c1.194.447 2.415.82 3.656 1.115a29.64 29.64 0 004.303 18.594l45.395 2.643z" fill="#EB9481"/><path d="M470.483 144.087c-4.615-3.344-14.493-10.457-24.626-13.377-11.237-3.345-33.745-6.578-36.086 1.727-1.717 6.098 6.767 8.116 6.767 8.116s-9.588.602-9.933 6.444c-.312 5.328 6.343 6.499 6.343 6.499s-5.752 1.36-5.072 6.555c.825 6.232 12.764 2.352 19.063 7.948 1.416 1.227 43.544-23.912 43.544-23.912z" fill="#EB9481"/><path d="M444.363 143.117c-4.861-2.497-17.369-5.318-27.647-2.765-.234 0-.312.257-.089.257 9.309-.251 18.614.624 27.713 2.608.056.023.078-.078.023-.1zM440.728 154.355c-4.459-1.717-17.446-4.058-27.769-1.115-.234.067-.301.278-.078.267a122.484 122.484 0 0127.87.959.06.06 0 00.036-.024.06.06 0 00.008-.043.053.053 0 00-.024-.036c-.012-.008-.028-.011-.043-.008zM442.557 247.607c-.334-1.115-.658-2.229-1.015-3.244-.735-2.229-1.371-4.459-2.017-6.689-1.316-4.459-2.575-8.985-3.679-13.533a239.7 239.7 0 01-5.006-27.513c-.312-2.565-.579-5.129-.858-7.693s-.368-5.228-.858-7.803c0-.134-1.305-2.096-1.818-3.066a26.15 26.15 0 01-1.393-3.121 28.85 28.85 0 01-1.683-6.778.079.079 0 00-.029-.036.076.076 0 00-.044-.013.078.078 0 00-.044.013.084.084 0 00-.028.036 21.962 21.962 0 00.981 7.803 13.784 13.784 0 003.456 5.574c0 .335.078 4.46.211 6.767.134 2.308.346 4.615.602 6.912a222.176 222.176 0 001.985 13.801 209.633 209.633 0 006.622 27.391c0 .145.1.29.145.434v1.004c.016.824.083 1.647.2 2.463.229 1.625.629 3.22 1.193 4.761-.005.013-.007.028-.005.042a.097.097 0 00.015.04c.009.011.02.021.032.028a.1.1 0 00.042.01.099.099 0 00.041-.01.097.097 0 00.032-.028.097.097 0 00.015-.04.086.086 0 00-.005-.042 31.688 31.688 0 01-.802-4.905l-.201-1.695c.613 1.806 1.26 3.612 1.895 5.407a69.655 69.655 0 001.416 3.679c.513 1.215.914 2.396 1.516 3.522 0 .09.178 0 .156-.066-.279-1.193-.724-2.286-1.07-3.412z" fill="#263238"/><path d="M303.586 287.149v-29.966l-34.057 29.966h34.057z" fill="#EBEBEB"/><path d="M128.552 350.682c9.81 42.686 30.1 93.855 38.762 102.16 10.958 10.501 83.453 29.765 87.065 30.155 8.919.903 26.9-63.543 17.358-64.937-14.493-2.095-67.289-4.961-70.444-8.205-3.155-3.244-25.563-31.493-48.461-63.231-15.807-21.928-30.378-22.43-24.28 4.058z" fill="#AD6359"/><path d="M247.2 479.519c1.059.535 16.209 8.161 25.573 10.87 6.99 2.029 27.257 7.324 30.256-.156 2.051-5.084-9.509-9.599-17.603-12.977-4.269-1.783-9.531-6.243-8.272-8.985 2.23-4.794 13.189 0 20.412 4.214 13.969 8.116 32.575 22.731 41.103 15.607 3.222-2.675-.524-7.558-5.998-12.341 8.919 5.574 18.372 10.145 22.062 7.313 2.13-1.616 2.23-3.835 1.048-6.354 2.743.892 5.162.714 6.856-1.115 2.888-3.032 1.483-7.491-1.683-12.073a3.425 3.425 0 002.631-1.717c6.12-9.331-24.526-36.119-35.105-38.628-31.159-7.413-64.001-6.031-64.001-6.031-12.24 9.822-17.313 62.351-17.279 62.373z" fill="#AD6359"/><path d="M293.018 450.836a52.886 52.886 0 0120.791 7.993c7.904 5.217 13.144 11.326 19.766 17.468a.197.197 0 01.038.122.198.198 0 01-.047.118.19.19 0 01-.237.039c-3.154-2.921-16.242-13.912-19.62-16.41a50.463 50.463 0 00-20.691-9.208c-.1-.011-.078-.145 0-.122zM298.826 437.603c8.194 2.23 16.588 4.459 24.191 8.383 8.316 4.236 14.827 11.148 21.181 17.837a345.68 345.68 0 0111.271 12.263c.145.178-.089.457-.245.278a511.049 511.049 0 00-20.067-20.066 66.687 66.687 0 00-22.073-13.913c-4.682-1.794-9.498-3.21-14.314-4.637-.067-.022-.033-.167.056-.145zM307.577 426.042c7.96 1.639 14.905 3.032 21.951 7.291 9.331 5.652 18.338 15.161 21.493 18.539 3.489 3.724 6.856 7.558 10.156 11.449.134.156-.134.401-.279.245a264.296 264.296 0 00-24.269-24.046 52.878 52.878 0 00-13.578-8.829 94.265 94.265 0 00-15.485-4.593s-.056-.067.011-.056z" fill="#263238"/><path d="M259.463 414.583l-22.296 70.633s-60.366-17.235-71.347-29.13c-10.981-11.894-31.393-73.32-37.379-103.096-5.987-29.776 9.063-28.985 22.898-10.267 13.834 18.717 48.282 64.268 50.166 65.26 1.884.992 57.958 6.6 57.958 6.6z" fill="#5BBD81"/><path opacity=".1" d="M259.463 414.583l-22.296 70.633s-60.366-17.235-71.347-29.13c-10.981-11.894-31.393-73.32-37.379-103.096-5.987-29.776 9.063-28.985 22.898-10.267 13.834 18.717 48.282 64.268 50.166 65.26 1.884.992 57.958 6.6 57.958 6.6z" fill="#000"/><path d="M231.37 453.834c2.709-8.327 5.474-16.633 7.859-25.06 1.36-4.783 2.743-9.577 4.058-14.37.056-.19-.245-.29-.312-.112-3.043 8.25-6.076 16.533-8.74 24.916-2.664 8.383-5.373 16.722-7.915 25.05a247.474 247.474 0 00-3.891 14.414c0 .089.134.145.167.056 3.323-8.15 6.054-16.51 8.774-24.894zM206.722 475.506l-2.676-.936c-5.028-1.795-10.156-3.724-14.983-5.697a71.083 71.083 0 01-1.839-.758c-.97-.401-1.94-.814-2.876-1.226l-1.405-.614-.502-.223-1.449-.668a112.85 112.85 0 01-5.429-2.654l-1.115-.624a42.013 42.013 0 01-7.447-4.894 16.31 16.31 0 01-.613-.568c-.189-.19-.39-.379-.557-.558-11.037-11.895-31.393-73.32-37.379-103.096l-.201-1.026v-.223c-.401-2.23-.758-5.061-1.048-8.093-.836-14.816 6.176-17.235 14.838-10.725 21.594 46.342 54.67 122.918 64.681 142.583z" fill="#263238"/><path d="M175.407 487.368l-131.546.691c.111-2.832 18.84-85.661 33.734-116.229 19.096-39.196 28.984-42.362 34.815-44.458 7.525-2.698 20.924-1.36 24.102.145 3.612 1.683 15.094 21.727 19.208 36.432 8.227 29.575 21.538 121.613 19.687 123.419z" fill="#EBEBEB"/><path d="M105.665 330.471s16.722 61.927 17.558 66.04c1.26 5.976 9.599 91.235 9.599 91.235l-91.693.312s20.011-78.927 34.905-113.486c16.253-37.903 29.631-44.101 29.631-44.101z" fill="#5BBD81"/><path opacity=".1" d="M105.665 330.471s16.722 61.927 17.558 66.04c1.26 5.976 9.599 91.235 9.599 91.235l-91.693.312s20.011-78.927 34.905-113.486c16.253-37.903 29.631-44.101 29.631-44.101z" fill="#000"/><path d="M137.716 328.475c.49 1.973 15.908 52.284 16.978 64.826 1.193 13.912 11.739 94.757 11.739 94.757h13.378s-19.364-116.15-24.682-128.424c-10.88-25.05-17.413-31.159-17.413-31.159z" fill="#5BBD81"/><path opacity=".1" d="M137.716 328.475c.49 1.973 15.908 52.284 16.978 64.826 1.193 13.912 11.739 94.757 11.739 94.757h13.378s-19.364-116.15-24.682-128.424c-10.88-25.05-17.413-31.159-17.413-31.159z" fill="#000"/><path d="M88.353 344.952c-22.029 23.601-75.584 113.141-58.594 129.473 16.99 16.332 111.312-5.652 137.8-18.283 7.882-3.745-22.062-52.886-31.326-54.034-7.714-.948-47.133 17.079-48.282 14.816-1.282-2.564 4.983-21.482 14.493-55.74 10.913-39.486-4.348-26.666-14.091-16.232zM175.385 386.255c19.152-2.675 24.525-.412 39.452-11.248 9.822-7.112 18.584-3.891 12.977 7.402-9.164 18.484-33.154 27.112-42.363 27.714l-10.066-23.868z" fill="#AD6359"/><path d="M124.505 404.672s21.527-11.951 41.66-16.811c13.913-3.345 45.016-7.302 74.781 23.41 7.057 7.28 11.951 22.664-3.891 14.961-11.259-5.474-16.722-12.341-23.867-14.336 0 0 3.901 20.3-3.668 27.089a187.216 187.216 0 01-21.036 16.321 38.428 38.428 0 01-3.412-3.657s-7.669 5.675-22.095 4.292l-38.472-51.269z" fill="#AD6359"/><path d="M179.967 386.835c6.688 3.467 20.634 11.059 29.91 21.248 10.311 11.326 27.111 35.896 18.672 43.477-6.176 5.518-13.377-3.344-13.377-3.344s4.805 11.627-1.873 15.384c-6.076 3.433-11.271-3.724-11.271-3.724s1.706 7.548-4.793 9.722c-7.804 2.608-10.1-13.646-20.301-17.837-2.33-1.004 3.033-64.926 3.033-64.926z" fill="#AD6359"/><path d="M196.109 416.935c5.719 4.292 16.22 17.368 19.119 30.913.067.312-.123.524-.246.256a150.326 150.326 0 00-18.951-31.069c-.089-.1 0-.1.078-.1zM184.983 427.67c4.56 4.214 14.782 18.172 17.246 32.006.056.312-.156.513-.256.234a161.16 161.16 0 00-17.09-32.15c-.067-.067 0-.145.1-.09zM213.188 411.762c6.242 1.839 10.3 4.905 15.607 8.562a85.928 85.928 0 008.037 5.094c2.542 1.371 6.299 3.445 8.997 1.293 1.516-1.192 1.494-3.344 1.115-5.094a25.06 25.06 0 00-3.434-7.101c0-.09.078-.19.145-.112a36.283 36.283 0 013.746 6.332 8.314 8.314 0 01.568 4.872c-.925 3.433-4.983 3.89-7.803 2.943a27.6 27.6 0 01-4.905-2.375 77.61 77.61 0 01-4.46-2.787c-2.965-2.006-5.808-4.18-8.751-6.22a80.853 80.853 0 00-8.918-5.195.107.107 0 01-.053-.054.108.108 0 01-.007-.075.114.114 0 01.116-.083z" fill="#263238"/><path d="M226.264 433.723c-1.616-3.556-10.368-18.383-13.199-21.816a.088.088 0 01.013-.11.091.091 0 01.11-.013c4.871 4.615 12.686 16.867 14.492 20.791 1.806 3.924 3.879 8.84 3.879 13.155 0 6.521-4.325 7.803-5.919 8.082a8.423 8.423 0 01-5.574-.914 16.962 16.962 0 01-5.039-4.727c-.067-.089.056-.212.134-.122 2.229 2.575 6.02 5.105 9.554 4.637a5.878 5.878 0 004.035-2.174 7.699 7.699 0 001.048-5.25 36.045 36.045 0 00-3.534-11.539z" fill="#263238"/><path d="M124.505 404.672l30.189 63.543s-118.08 26.51-128.269 5.953C16.236 453.611 62.1 373.167 82.756 349.734c23.957-27.156 27.012-17.914 21.739 6.154-5.574 25.194-16.198 61.626-16.198 61.626l36.208-12.842z" fill="#5BBD81"/><path opacity=".1" d="M124.505 404.672l30.189 63.543s-118.08 26.51-128.269 5.953C16.236 453.611 62.1 373.167 82.756 349.734c23.957-27.156 27.012-17.914 21.739 6.154-5.574 25.194-16.198 61.626-16.198 61.626l36.208-12.842z" fill="#000"/><path d="M52.411 434.426a133.185 133.185 0 0135.484-17.491 502.129 502.129 0 0110.803-3.211c.111 0 .156.145 0 .178a170.294 170.294 0 00-18.495 7.202 514.234 514.234 0 00-17.837 8.35c-3.344 1.639-6.6 3.434-9.877 5.184a.134.134 0 01-.078-.212z" fill="#263238"/><path d="M124.193 404.505c-.591.156-32.886 10.824-33.945 11.315.133-.491 5.93-17.659 6.8-20.178.078-.245.156-.502.245-.747.58-1.115 1.182-2.23 1.728-3.344a239.687 239.687 0 002.062-4.46h-.066l-2.23 4.315a55.087 55.087 0 00-.992 2.018 376.282 376.282 0 001.66-5.352c.87-2.842 1.651-5.718 2.42-8.595 0-.1-.112-.122-.145 0-1.717 5.006-3.59 9.956-5.318 14.961-1.728 5.005-8.372 23.411-8.316 23.411.056 0 35.562-12.553 36.253-12.832a.263.263 0 00.159-.13.27.27 0 00-.111-.363.263.263 0 00-.204-.019zM126.367 445.919c-3.344-7.079-6.588-14.202-10.167-21.181-2.04-3.958-4.058-7.926-6.131-11.861-.078-.145-.346 0-.279.122 3.054 7.246 6.131 14.493 9.52 21.616 3.389 7.124 6.689 14.158 10.134 21.181a215.404 215.404 0 006.254 11.784c0 .078.178 0 .145 0-2.81-7.38-6.12-14.504-9.476-21.661z" fill="#263238"/><path d="M156.221 469.196c-1.182-1.962-2.675-4.771-3.935-6.688-.335-.502-.725-.402-.457.122.903 1.784 1.65 3.779 2.53 5.574-1.649.335-3.344.624-4.972.97-1.917.401-3.823.814-5.741 1.204l-11.281 2.23a520.343 520.343 0 01-22.965 3.745 449.964 449.964 0 01-46.443 4.359c-4.348.156-8.706.234-13.054.179-4.289.011-8.575-.198-12.843-.625-.122 0-.145.19 0 .212 3.672.776 7.4 1.261 11.148 1.449 3.936.19 7.882.279 11.828.234 7.804-.089 15.686-.602 23.5-1.315a561.427 561.427 0 0046.264-6.232 441.868 441.868 0 0012.854-2.419c2.163-.435 4.314-.869 6.466-1.349 2.151-.479 7.302-1.315 7.101-1.65z" fill="#263238"/><path d="M137.738 351.585c-7.803 2.152-21.772-9.386-27.48-18.951-.39-.658.379-7.748.903-16.41.301-5.251.502-11.148.301-16.477 0-1.115 33.924 6.934 33.924 6.934s-2.899 11.349-2.498 20.691c.036.751.14 1.497.313 2.229.03.118.053.237.066.357.837 4.136 2.018 19.542-5.529 21.627z" fill="#AD6359"/><path d="M113.536 299.881c1.895 9.007 8.338 30.69 26.287 30.434a21.356 21.356 0 003.433-.312 1.617 1.617 0 000-.368 14.58 14.58 0 01-.323-2.23c-.39-9.353 2.497-20.713 2.497-20.713s-24.548-5.797-31.894-6.811z" fill="#263238"/><path d="M149.432 283.66c-.379 8.227 5.173 15.162 12.396 15.496 7.224.334 13.378-6.087 13.746-14.314.368-8.227-5.184-15.161-12.397-15.485-7.212-.323-13.377 6.076-13.745 14.303z" fill="#455A64"/><path d="M174.249 285.296c.414-9.152-5.763-16.865-13.795-17.229-8.033-.363-14.88 6.761-15.294 15.914-.414 9.152 5.762 16.865 13.795 17.229 8.032.363 14.88-6.762 15.294-15.914z" fill="#C7C7C7"/><path d="M115.888 257.061c-5.842 11.015-6.21 46.03.657 55.194 9.956 13.266 29.52 18.138 41.582 5.462 11.739-12.329 11.405-57.969 3.434-66.631-11.717-12.787-37.045-10.29-45.673 5.975z" fill="#AD6359"/><path d="M145.006 284.129c0-.089-.189.122-.178.223.123 2.352-.123 5.072-2.23 5.897-.067 0-.055.145 0 .134 2.609-.424 2.899-4.036 2.408-6.254z" fill="#263238"/><path d="M142.843 281.721c-3.801-.201-3.924 7.413-.412 7.591 3.512.179 3.601-7.424.412-7.591zM158.206 284.418c0-.089.178.123.178.212-.112 2.364.156 5.084 2.229 5.898.067 0 0 .144 0 .133-2.575-.412-2.898-4.024-2.407-6.243z" fill="#263238"/><path d="M160.357 282.044c3.79-.234 3.969 7.38.446 7.592-3.523.211-3.634-7.458-.446-7.592zM139.433 275.634c1.114-.056 2.04-.29 3.099-.446a5.03 5.03 0 003.065-1.115 1.602 1.602 0 00.112-1.962 3.982 3.982 0 00-3.869-1.115 5.82 5.82 0 00-3.801 1.84 1.714 1.714 0 00.455 2.558c.283.168.609.252.939.24zM163.936 276.47a28.727 28.727 0 01-3.01-.836 5.03 5.03 0 01-2.91-1.393 1.607 1.607 0 01.123-1.963 4.025 4.025 0 011.903-.88 4.026 4.026 0 012.088.2 5.877 5.877 0 013.545 2.297 1.717 1.717 0 01-1.739 2.575zM140.703 305.99c.557.558 1.115 1.327 1.962 1.416a6.35 6.35 0 002.542-.557.08.08 0 01.048.003.089.089 0 01.052.119 3.16 3.16 0 01-3.01 1.238 2.535 2.535 0 01-1.828-2.119c-.033-.133.145-.189.234-.1zM143.301 298.967a8.019 8.019 0 005.295 3.656 9.997 9.997 0 002.887.19c.187-.007.373-.026.558-.056l.512-.078a.59.59 0 00.491-.513 2.003 2.003 0 000-.245v-.212c.078-1.817 0-4.582 0-4.582.658.346 4.024 1.929 3.98.981-.335-7.87-.714-16.61-2.709-24.358a.223.223 0 00-.435 0c0 7.57 1.382 15.083 1.527 22.686a14.348 14.348 0 00-3.768-1.215c-.256.078.346 5.34.246 6.154a.66.66 0 010 .089c-3.066.334-5.351-.624-8.272-2.72-.268-.123-.457.022-.312.223z" fill="#263238"/><path d="M150.425 301.865a9.46 9.46 0 01-3.858 2.898 4.305 4.305 0 01-2.608.123c-1.873-.535-1.895-2.23-1.528-3.735.206-.775.502-1.523.881-2.229a12.36 12.36 0 007.113 2.943z" fill="#263238"/><path d="M146.567 304.764a4.312 4.312 0 01-2.608.122c-1.873-.535-1.895-2.229-1.528-3.734 2.018.245 3.991 1.65 4.136 3.612z" fill="#FF98B9"/><path opacity=".2" d="M111.507 281.788c2.296-.368 7.803-8.138 10.133-11.226 2.33-3.088 3.679-19.643 3.891-23.411a24.805 24.805 0 00-9.654 9.877c-2.609 4.95-4.114 14.682-4.37 24.76z" fill="#263238"/><path d="M154.014 260.863a11.861 11.861 0 01-10.947 3.668 12.085 12.085 0 01-9.075-7.503c0-.123-.223-.056-.178.056a11.953 11.953 0 009.063 8.394 12.195 12.195 0 0011.36-4.459.144.144 0 00-.057-.156.143.143 0 00-.083-.026.143.143 0 00-.083.026zM142.688 231.187c-6.879-.067-13.3 3.534-15.964 8.127a13.31 13.31 0 00-1.561 8.628c0 .123.257.101.245 0a14.598 14.598 0 017.302-12.965 18.829 18.829 0 0116.722-1.471 11.816 11.816 0 016.221 5.328c.134.257.646.112.546-.144-1.739-4.37-7.302-7.447-13.511-7.503zM182.096 247.34a15.2 15.2 0 00-6.199-8.35c-4.136-2.742-8.918-2.508-13.645-2.173a.099.099 0 00-.1.1.099.099 0 00.1.1c4.036-.267 8.149-.312 11.784 1.706a14.867 14.867 0 016.688 7.458 14.492 14.492 0 01-6.577 17.837 14.768 14.768 0 01-11.661.813c-.156-.055-.267.156-.122.223a14.833 14.833 0 0015.346-2.757 14.83 14.83 0 004.327-6.853c.778-2.641.806-5.447.081-8.104h-.022z" fill="#263238"/><path d="M113.402 263.806s-6.087-12.519-.379-19.431c3.233-3.913 13.466-3.021 13.466-3.021s3.512-5.764 12.074-7.402c8.561-1.639 18.661 3.723 18.661 3.723s8.317-4.359 15.786.279c10.423 6.466 8.506 22.619-2.397 27.435-7.647 3.344-17.614-3.634-17.614-3.634-.992.1-11.27 5.785-18.539-3.456 0 0-6.376 5.262-11.783 1.215a8.914 8.914 0 01-9.275 4.292z" fill="#263238"/><path d="M117.783 286.024s-5.786-12.263-11.237-10.435c-5.452 1.828-2.43 18.796 3.032 21.984a6.045 6.045 0 006.868-.058 6.027 6.027 0 001.66-1.759l-.323-9.732z" fill="#AD6359"/><path d="M107.527 280.417c-.089 0-.134.111 0 .156 3.812 2.363 5.317 6.543 6.142 10.746-.947-1.728-2.475-2.843-4.749-1.75a.14.14 0 00-.051.064.133.133 0 00.118.181 3.736 3.736 0 013.813 1.973 18.355 18.355 0 011.36 3.59c.134.401.825.312.758-.134a.335.335 0 000-.1c.936-5.206-1.862-13.222-7.391-14.726z" fill="#263238"/><path d="M130.391 310.717l-10.98-4.738-8.829-10.992 1.694-1.371 8.495 10.579 10.49 4.526-.87 1.996z" fill="#C7C7C7"/><path d="M129.221 308.967c1.114-3.2 10.033-2.018 8.416 2.82-1.616 4.838-9.498.357-8.416-2.82z" fill="#37474F"/><path d="M106.379 275.255s-1.193-17.982 4.069-27.87c5.864-11.048 30.166-21.56 46.821-9.688 0 0-27.056-4.838-39.664 10.479-5.307 6.444-5.173 27.58-5.173 27.58l-6.053-.501z" fill="#C7C7C7"/><path d="M108.832 301.081c8.04-.08 14.485-7.572 14.393-16.733-.091-9.16-6.683-16.522-14.723-16.442-8.041.08-14.485 7.571-14.394 16.732.091 9.161 6.683 16.523 14.724 16.443z" fill="#C7C7C7"/><path d="M118.976 283.872c.078 8.238-5.708 14.972-12.932 15.039-7.224.067-13.155-6.544-13.233-14.783-.078-8.238 5.708-14.971 12.932-15.038 7.224-.067 13.155 6.544 13.233 14.782z" fill="#455A64"/><path d="M143.133 329.401l-7.859 19.843-24.726-24.949-6.934 8.071s24.247 39.698 24.392 37.903l8.082-17.112 11.839 11.828-1.115-29.81-3.679-5.774z" fill="#EBEBEB"/><path d="M148.217 350.214c-.345-4.916-.546-9.877-1.115-14.771 0-.167-.289-.245-.334 0-.959 4.76.457 23.544.457 28.059h-.056c-.49-.512-10.969-10.401-11.07-10.245-1.75 2.72-7.692 15.173-8.093 16.31-3.835-6.31-20.066-31.159-24.637-37.123a.17.17 0 00-.102-.078.169.169 0 00-.205.118.17.17 0 00.017.127c3.344 6.689 24.414 39.475 24.704 39.386a194.596 194.596 0 008.461-18.082c1.773 2.152 12.341 13.322 12.375 12.586.154-5.432.02-10.869-.402-16.287z" fill="#263238"/><path d="M413.238 277.228h-34.481a12.619 12.619 0 01-12.608-12.608 12.608 12.608 0 0112.608-12.609h34.481a12.609 12.609 0 010 25.217z" fill="#455A64"/><path d="M386.293 264.397c.024-.399.155-.784.379-1.115l.312-.457.658-.658.769-.557a9.533 9.533 0 013.478-1.349 22.08 22.08 0 018.64 0 9.304 9.304 0 013.433 1.326c.268.179.536.38.792.569l.647.647c.169.244.325.497.468.758.109.268.198.543.267.825h-5.652a.198.198 0 01-.126-.026.192.192 0 01-.085-.097 1.919 1.919 0 00-1.617-1.037 38.395 38.395 0 00-4.939 0 1.895 1.895 0 00-1.605 1.026c0 .078-.078.134-.189.134h-5.63v.011zM386.293 267.552v-2.063h5.574v2.063a.62.62 0 01-.713.713h-4.158a.62.62 0 01-.536-.175.61.61 0 01-.167-.538zM400.529 267.618v-2.096h5.518v2.074a.621.621 0 01-.414.66c-.089.031-.183.042-.277.031h-4.203a.6.6 0 01-.624-.669z" fill="#fff"/><path d="M271.77 489.396h-7.647v4.995h7.647v-4.995zM281.681 489.062h-7.648v4.994h7.648v-4.994zM291.603 488.728h-7.648v4.994h7.648v-4.994zM301.524 488.404h-7.648v4.995h7.648v-4.995zM311.446 488.07h-7.648v4.994h7.648v-4.994zM321.367 487.747h-7.647v4.994h7.647v-4.994zM331.289 487.412h-7.647v4.994h7.647v-4.994zM341.211 487.078h-7.648v4.994h7.648v-4.994zM351.121 486.754h-7.647v4.995h7.647v-4.995z" fill="#455A64"/><path d="M353.005 497.256h-90.767v-6.076l90.767-2.531v8.607z" fill="#37474F"/><path d="M441.587 473.299H291.758l23.824-111.547H465.41l-23.823 111.547z" fill="#455A64"/><path d="M447.128 473.299H297.299l23.823-111.547h149.829l-23.823 111.547z" fill="#37474F"/><path d="M393.622 417.327c4.065-3.757 4.759-9.617 1.55-13.09-3.209-3.473-9.106-3.243-13.171.514-4.065 3.756-4.759 9.617-1.55 13.089 3.209 3.473 9.106 3.243 13.171-.513z" fill="#263238"/><path d="M404.755 502.428h-73.689v-5.73l73.689-2.374v8.104z" fill="#455A64"/><path d="M424.787 502.417h-39.564l-23.834-62.507h39.564l23.834 62.507z" fill="#455A64"/><path d="M431.298 502.417h-39.565L367.91 439.91h39.564l23.824 62.507z" fill="#263238"/><path d="M259.441 503.944h-75.974c-6.477 0 2.899-18.461 26.566-25.54 23.667-7.079 56.877 18.617 49.408 25.54z" fill="#37474F"/><path d="M229.631 503.945c.061-2.104.41-4.19 1.037-6.199a25.936 25.936 0 012.553-5.785 21.027 21.027 0 014.035-4.894 17.833 17.833 0 015.34-3.345c-.814.669-1.739 1.115-2.486 1.862l-1.115.992-1.115 1.115a26.458 26.458 0 00-3.678 4.849 36.396 36.396 0 00-2.698 5.496 45.919 45.919 0 00-1.873 5.909z" fill="#263238"/><path d="M238.627 486.375a48.821 48.821 0 0112.676 6.365 27.352 27.352 0 015.295 4.794 16.29 16.29 0 011.951 3.021 8.767 8.767 0 01.892 3.445 9.884 9.884 0 00-1.372-3.188 15.899 15.899 0 00-2.118-2.709 37.663 37.663 0 00-5.295-4.46c-1.884-1.36-3.879-2.575-5.875-3.779a83.821 83.821 0 00-3.054-1.739c-1.026-.557-2.063-1.181-3.1-1.75z" fill="#263238"/><path d="M264.88 250.707a33.74 33.74 0 01-21.634 28.029 33.736 33.736 0 01-34.763-6.726l-16.912 2.52 8.45-14.593a33.444 33.444 0 01-2.318-16.254 33.764 33.764 0 0112.25-22.867 33.748 33.748 0 0124.857-7.423 33.76 33.76 0 0128.899 24.135 33.782 33.782 0 011.138 13.179h.033z" fill="#fff"/><path d="M264.88 250.707a33.925 33.925 0 01-6.811 17.112 38.33 38.33 0 01-3.055 3.523 39.858 39.858 0 01-3.567 3.01 32.944 32.944 0 01-8.138 4.537 33.519 33.519 0 01-9.086 2.162c-1.56.147-3.128.177-4.693.09a29.77 29.77 0 01-4.671-.48 34.112 34.112 0 01-16.722-8.249l.402.122-16.867 2.598-1.215.223.613-1.115 8.405-14.637v.579a34.093 34.093 0 0112.332-41.14 34.086 34.086 0 0142.8 3.575 34.088 34.088 0 0110.307 28.09h-.034zm0 0a33.434 33.434 0 00-10.171-27.657 33.44 33.44 0 00-28.1-8.875 33.172 33.172 0 00-13.946 5.507 34.945 34.945 0 00-10.1 11.014 33.463 33.463 0 00-4.303 14.292 33.86 33.86 0 002.397 14.76l.123.301-.168.267-8.494 14.571-.602-.892 16.9-2.364h.234l.167.157a33.282 33.282 0 0016.165 8.327c1.51.304 3.042.49 4.582.557 1.536.106 3.078.106 4.615 0a32.987 32.987 0 009.019-1.984 31.55 31.55 0 008.138-4.381 41.233 41.233 0 003.567-2.977 37.916 37.916 0 003.066-3.489 33.878 33.878 0 006.911-17.134z" fill="#263238"/><path d="M250.132 248.221a4.095 4.095 0 01-2.518 3.788 4.091 4.091 0 11-1.573-7.868 4.075 4.075 0 013.779 2.516c.206.496.312 1.027.312 1.564zM235.483 248.221a4.09 4.09 0 11-7.869-1.56 4.09 4.09 0 013.789-2.52 4.08 4.08 0 014.08 4.08zM220.846 248.221a4.095 4.095 0 01-2.518 3.788 4.093 4.093 0 01-3.848-7.178 4.092 4.092 0 016.366 3.39z" fill="#263238"/><path d="M279.183 75.661a33.76 33.76 0 0021.631 28.033 33.757 33.757 0 0034.767-6.707l16.878 2.475-8.439-14.593a33.76 33.76 0 00-12.33-40.679 33.76 33.76 0 00-42.351 3.635 33.762 33.762 0 00-10.156 27.814v.022z" fill="#fff"/><path d="M289.283 47.78a33.697 33.697 0 0128.261-9.386 34.04 34.04 0 0114.403 5.407A34.161 34.161 0 01344.6 85.136v-.58l8.383 14.66.613 1.115-1.215-.19-16.878-2.586.401-.123a34.112 34.112 0 01-16.722 8.25 29.756 29.756 0 01-4.671.479c-1.56.082-3.125.052-4.682-.089a34.024 34.024 0 01-17.235-6.689 39.742 39.742 0 01-3.567-3.01 39.71 39.71 0 01-3.054-3.522 33.966 33.966 0 013.288-44.994l.022-.078zm-3.188 44.915a37.85 37.85 0 003.066 3.479 37.727 37.727 0 003.567 2.976 31.126 31.126 0 008.149 4.392 33.33 33.33 0 009.008 1.985c1.54.106 3.086.106 4.626 0a29.897 29.897 0 004.571-.558 33.272 33.272 0 0016.165-8.327l.167-.156h.234l16.9 2.363-.602.892-8.495-14.57-.167-.28.123-.3a33.308 33.308 0 00-1.906-28.985 34.825 34.825 0 00-10.1-11.014 33.181 33.181 0 00-13.935-5.507 33.378 33.378 0 00-31.371 53.566v.044z" fill="#263238"/><path d="M315.76 76.275v4.214a3.12 3.12 0 01-.91 2.266 3.11 3.11 0 01-2.267.91 3.191 3.191 0 01-3.177-3.176v-6.69c0-.066.066-.066.066-.133s-.066-.067-.066-.123a3.263 3.263 0 013.177-3.177 7.267 7.267 0 007.228-10.158 7.274 7.274 0 00-4.277-3.955 7.267 7.267 0 00-2.951-.38 7.162 7.162 0 00-6.221 3.568 3.22 3.22 0 01-4.459 1.115 3.169 3.169 0 01-1.115-4.348 13.62 13.62 0 0117.568-5.541 13.624 13.624 0 017.027 17.028 13.618 13.618 0 01-9.69 8.58h.067zm0 14.191v1.115a3.092 3.092 0 01-.907 2.27 3.1 3.1 0 01-2.27.907 3.178 3.178 0 01-3.177-3.177v-1.115a3.221 3.221 0 013.177-3.177 3.146 3.146 0 013.177 3.177z" fill="#5BBD81"/></svg>
