<svg viewBox="0 0 640 376" fill="none" xmlns="http://www.w3.org/2000/svg">
<g clip-path="url(#clip0)">
<path d="M113.092 194.958H215.873V251.357H113.092V194.958Z" fill="white"/>
<path d="M113.092 194.958H215.873V251.357H113.092V194.958Z" stroke="#3E3750" stroke-width="1.5" stroke-miterlimit="10" stroke-linecap="round"/>
<path d="M125.099 207.112H203.849V212.757H125.099V207.112Z" fill="white"/>
<path d="M125.099 207.112H203.849V212.757H125.099V207.112Z" stroke="#3E3750" stroke-width="1.5" stroke-miterlimit="10" stroke-linecap="round"/>
<path d="M109.796 189.786H219.152V195.431H109.796V189.786Z" fill="#5BBD81"/>
<path d="M109.796 189.786H219.152V195.431H109.796V189.786Z" stroke="#3E3750" stroke-width="1.5" stroke-miterlimit="10" stroke-linecap="round"/>
<path d="M125.099 233.558H203.849V239.203H125.099V233.558Z" fill="white"/>
<path d="M125.099 233.558H203.849V239.203H125.099V233.558Z" stroke="#3E3750" stroke-width="1.5" stroke-miterlimit="10" stroke-linecap="round"/>
<path d="M128.738 212.757H144.089V233.558H128.738V212.757Z" fill="white"/>
<path d="M128.738 212.757H144.089V233.558H128.738V212.757Z" stroke="#3E3750" stroke-width="1.5" stroke-miterlimit="10" stroke-linecap="round"/>
<path d="M156.798 212.757H172.15V233.558H156.798V212.757Z" fill="white"/>
<path d="M156.798 212.757H172.15V233.558H156.798V212.757Z" stroke="#3E3750" stroke-width="1.5" stroke-miterlimit="10" stroke-linecap="round"/>
<path d="M184.859 212.757H200.211V233.558H184.859V212.757Z" fill="white"/>
<path d="M184.859 212.757H200.211V233.558H184.859V212.757Z" stroke="#3E3750" stroke-width="1.5" stroke-miterlimit="10" stroke-linecap="round"/>
<path d="M113.092 256.529H215.873V312.928H113.092V256.529Z" fill="white"/>
<path d="M113.092 256.529H215.873V312.928H113.092V256.529Z" stroke="#3E3750" stroke-width="1.5" stroke-miterlimit="10" stroke-linecap="round"/>
<path d="M125.099 268.683H203.849V274.328H125.099V268.683Z" fill="white"/>
<path d="M125.099 268.683H203.849V274.328H125.099V268.683Z" stroke="#3E3750" stroke-width="1.5" stroke-miterlimit="10" stroke-linecap="round"/>
<path d="M109.796 251.357H219.152V257.002H109.796V251.357Z" fill="#5BBD81"/>
<path d="M109.796 251.357H219.152V257.002H109.796V251.357Z" stroke="#3E3750" stroke-width="1.5" stroke-miterlimit="10" stroke-linecap="round"/>
<path d="M125.099 295.129H203.849V300.773H125.099V295.129Z" fill="white"/>
<path d="M125.099 295.129H203.849V300.773H125.099V295.129Z" stroke="#3E3750" stroke-width="1.5" stroke-miterlimit="10" stroke-linecap="round"/>
<path d="M128.738 274.328H144.089V295.129H128.738V274.328Z" fill="white"/>
<path d="M128.738 274.328H144.089V295.129H128.738V274.328Z" stroke="#3E3750" stroke-width="1.5" stroke-miterlimit="10" stroke-linecap="round"/>
<path d="M156.798 274.328H172.15V295.129H156.798V274.328Z" fill="white"/>
<path d="M156.798 274.328H172.15V295.129H156.798V274.328Z" stroke="#3E3750" stroke-width="1.5" stroke-miterlimit="10" stroke-linecap="round"/>
<path d="M184.859 274.328H200.211V295.129H184.859V274.328Z" fill="white"/>
<path d="M184.859 274.328H200.211V295.129H184.859V274.328Z" stroke="#3E3750" stroke-width="1.5" stroke-miterlimit="10" stroke-linecap="round"/>
<path d="M113.092 318.099H215.873V374.498H113.092V318.099Z" fill="white"/>
<path d="M113.092 318.099H215.873V374.498H113.092V318.099Z" stroke="#3E3750" stroke-width="1.5" stroke-miterlimit="10" stroke-linecap="round"/>
<path d="M144.089 330.254H184.859V335.898H144.089V330.254Z" fill="white"/>
<path d="M144.089 330.254H184.859V335.898H144.089V330.254Z" stroke="#3E3750" stroke-width="1.5" stroke-miterlimit="10" stroke-linecap="round"/>
<path d="M109.796 312.928H219.152V318.573H109.796V312.928Z" fill="#5BBD81"/>
<path d="M109.796 312.928H219.152V318.573H109.796V312.928Z" stroke="#3E3750" stroke-width="1.5" stroke-miterlimit="10" stroke-linecap="round"/>
<path d="M146.602 335.898H164.466V374.498H146.602V335.898Z" fill="white"/>
<path d="M146.602 335.898H164.466V374.498H146.602V335.898Z" stroke="#3E3750" stroke-width="1.5" stroke-miterlimit="10" stroke-linecap="round"/>
<path d="M164.482 335.898H182.347V374.498H164.482V335.898Z" fill="white"/>
<path d="M164.482 335.898H182.347V374.498H164.482V335.898Z" stroke="#3E3750" stroke-width="1.5" stroke-miterlimit="10" stroke-linecap="round"/>
<path d="M422.055 308.147H575.264V374.498H422.055V308.147Z" fill="white"/>
<path d="M422.055 308.147H575.264V374.498H422.055V308.147Z" stroke="#3E3750" stroke-width="1.5" stroke-miterlimit="10" stroke-linecap="round"/>
<path d="M422.055 287.82H575.264V297.103H422.055V287.82ZM434.911 320.384H463.461V374.482H434.911V320.384Z" fill="#E3F4E9"/>
<path d="M434.911 320.383H463.461V374.482H434.911V320.383Z" stroke="#3E3750" stroke-width="1.5" stroke-miterlimit="10" stroke-linecap="round"/>
<path d="M441.388 325.816H457.001V341.315H441.388V325.816Z" fill="#E3F4E9"/>
<path d="M441.388 325.816H457.001V341.315H441.388V325.816Z" stroke="#3E3750" stroke-width="1.5" stroke-miterlimit="10" stroke-linecap="round"/>
<path d="M441.388 354.513H457.001V370.012H441.388V354.513Z" fill="#E3F4E9"/>
<path d="M441.388 354.513H457.001V370.012H441.388V354.513Z" stroke="#3E3750" stroke-width="1.5" stroke-miterlimit="10" stroke-linecap="round"/>
<path d="M476.48 320.383H560.108V362.246H476.48V320.383Z" fill="white"/>
<path d="M476.48 320.383H560.108V362.246H476.48V320.383Z" stroke="#3E3750" stroke-width="1.5" stroke-miterlimit="10" stroke-linecap="round"/>
<path d="M473.968 357.629H562.637V362.246H473.968V357.629Z" fill="#B9E3C9"/>
<path d="M473.968 357.629H562.637V362.246H473.968V357.629Z" stroke="#3E3750" stroke-width="1.5" stroke-miterlimit="10" stroke-linecap="round"/>
<path d="M417.552 307.038C417.547 308.516 418.017 309.957 418.892 311.149C419.768 312.34 421.002 313.218 422.415 313.655C423.827 314.092 425.342 314.063 426.737 313.574C428.132 313.085 429.333 312.161 430.163 310.937C430.796 311.869 431.647 312.632 432.642 313.16C433.638 313.687 434.747 313.963 435.873 313.963C437 313.963 438.109 313.687 439.104 313.16C440.1 312.632 440.951 311.869 441.584 310.937C442.216 311.869 443.067 312.632 444.062 313.16C445.058 313.687 446.167 313.963 447.294 313.963C448.42 313.963 449.529 313.687 450.525 313.16C451.52 312.632 452.371 311.869 453.004 310.937C453.636 311.869 454.487 312.632 455.483 313.16C456.478 313.687 457.587 313.963 458.714 313.963C459.84 313.963 460.949 313.687 461.945 313.16C462.94 312.632 463.791 311.869 464.424 310.937C465.056 311.869 465.907 312.632 466.903 313.16C467.898 313.687 469.007 313.963 470.134 313.963C471.26 313.963 472.37 313.687 473.365 313.16C474.36 312.632 475.211 311.869 475.844 310.937C476.476 311.869 477.328 312.632 478.323 313.16C479.318 313.687 480.428 313.963 481.554 313.963C482.68 313.963 483.79 313.687 484.785 313.16C485.78 312.632 486.631 311.869 487.264 310.937C487.897 311.869 488.748 312.632 489.743 313.16C490.738 313.687 491.848 313.963 492.974 313.963C494.1 313.963 495.21 313.687 496.205 313.16C497.2 312.632 498.052 311.869 498.684 310.937C499.317 311.869 500.168 312.632 501.163 313.16C502.158 313.687 503.268 313.963 504.394 313.963C505.521 313.963 506.63 313.687 507.625 313.16C508.621 312.632 509.472 311.869 510.104 310.937C510.737 311.869 511.588 312.632 512.583 313.16C513.579 313.687 514.688 313.963 515.814 313.963C516.941 313.963 518.05 313.687 519.045 313.16C520.041 312.632 520.892 311.869 521.524 310.937C522.157 311.869 523.008 312.632 524.003 313.16C524.999 313.687 526.108 313.963 527.234 313.963C528.361 313.963 529.47 313.687 530.465 313.16C531.461 312.632 532.312 311.869 532.944 310.937C533.577 311.869 534.428 312.632 535.423 313.16C536.419 313.687 537.528 313.963 538.655 313.963C539.781 313.963 540.89 313.687 541.886 313.16C542.881 312.632 543.732 311.869 544.365 310.937C544.997 311.869 545.848 312.632 546.844 313.16C547.839 313.687 548.948 313.963 550.075 313.963C551.201 313.963 552.31 313.687 553.306 313.16C554.301 312.632 555.152 311.869 555.785 310.937C556.417 311.869 557.268 312.632 558.264 313.16C559.259 313.687 560.368 313.963 561.495 313.963C562.621 313.963 563.73 313.687 564.726 313.16C565.721 312.632 566.572 311.869 567.205 310.937C568.039 312.157 569.241 313.077 570.636 313.564C572.03 314.051 573.544 314.078 574.956 313.642C576.367 313.207 577.602 312.33 578.48 311.142C579.357 309.954 579.831 308.515 579.832 307.038L575.329 297.445H422.055L417.552 307.038Z" fill="#E3F4E9"/>
<path d="M444.178 298.261H433.247L430.098 308.767C430.068 309.489 430.194 310.21 430.468 310.878C430.742 311.547 431.158 312.148 431.686 312.641C432.215 313.134 432.844 313.507 433.53 313.734C434.216 313.96 434.943 314.036 435.661 313.955C436.398 314.02 437.139 313.936 437.842 313.708C438.545 313.48 439.196 313.114 439.754 312.63C440.313 312.146 440.768 311.554 441.094 310.891C441.419 310.227 441.608 309.505 441.649 308.767L444.178 298.261ZM464.424 310.529C464.424 310.529 461.438 313.466 458.697 313.466C455.957 313.466 452.987 310.529 452.987 310.529L455.108 298.261H466.039L464.424 310.529ZM487.248 308.963C487.248 308.963 485.469 313.466 481.179 313.466C476.888 313.466 475.811 308.963 475.811 308.963L476.937 298.261H487.802L487.248 308.963ZM510.104 308.784C509.864 310.118 509.155 311.323 508.105 312.181C507.055 313.04 505.734 313.495 504.378 313.466C503.007 313.561 501.651 313.129 500.587 312.259C499.523 311.389 498.831 310.146 498.652 308.784L498.782 298.245H509.713L510.104 308.784ZM531.574 298.261H520.643L521.476 308.8C521.845 310.141 522.643 311.324 523.748 312.169C524.852 313.014 526.203 313.475 527.593 313.482C528.878 313.526 530.134 313.092 531.116 312.263C532.099 311.434 532.739 310.27 532.912 308.996L531.574 298.261ZM553.419 298.261H542.489L544.642 310.774C544.642 310.774 545.197 314.216 550.499 313.939C555.801 313.662 555.997 309.975 555.997 309.975L553.419 298.261ZM575.281 298.261H564.35L567.515 310.073C567.515 310.073 570.386 313.727 574.041 313.335C577.695 312.944 579.571 308.718 579.571 308.718L575.281 298.261ZM433.231 288.684H444.178V296.107H433.231V288.684ZM455.076 288.684H466.023V296.107H455.076V288.684ZM476.937 288.684H487.884V296.107H476.937V288.684ZM498.782 288.684H509.729V296.107H498.782V288.684ZM520.627 288.684H531.574V296.107H520.627V288.684ZM542.489 288.684H553.436V296.107H542.489V288.684ZM564.334 288.684H575.281V296.107H564.334V288.684Z" fill="#5BBD81"/>
<path d="M518.62 320.384L513.596 325.425M422.055 287.82H575.264V297.103H422.055V287.82ZM417.552 307.038C417.547 308.517 418.017 309.957 418.892 311.149C419.768 312.34 421.002 313.218 422.415 313.655C423.827 314.092 425.342 314.063 426.737 313.574C428.132 313.085 429.333 312.161 430.163 310.937C430.796 311.869 431.647 312.632 432.642 313.16C433.638 313.687 434.747 313.963 435.873 313.963C437 313.963 438.109 313.687 439.104 313.16C440.1 312.632 440.951 311.869 441.584 310.937C442.216 311.869 443.067 312.632 444.062 313.16C445.058 313.687 446.167 313.963 447.294 313.963C448.42 313.963 449.529 313.687 450.525 313.16C451.52 312.632 452.371 311.869 453.004 310.937C453.636 311.869 454.487 312.632 455.483 313.16C456.478 313.687 457.587 313.963 458.714 313.963C459.84 313.963 460.949 313.687 461.945 313.16C462.94 312.632 463.791 311.869 464.424 310.937C465.056 311.869 465.907 312.632 466.903 313.16C467.898 313.687 469.007 313.963 470.134 313.963C471.26 313.963 472.37 313.687 473.365 313.16C474.36 312.632 475.211 311.869 475.844 310.937C476.476 311.869 477.328 312.632 478.323 313.16C479.318 313.687 480.428 313.963 481.554 313.963C482.68 313.963 483.79 313.687 484.785 313.16C485.78 312.632 486.631 311.869 487.264 310.937C487.897 311.869 488.748 312.632 489.743 313.16C490.738 313.687 491.848 313.963 492.974 313.963C494.1 313.963 495.21 313.687 496.205 313.16C497.2 312.632 498.052 311.869 498.684 310.937C499.317 311.869 500.168 312.632 501.163 313.16C502.158 313.687 503.268 313.963 504.394 313.963C505.521 313.963 506.63 313.687 507.625 313.16C508.621 312.632 509.472 311.869 510.104 310.937C510.737 311.869 511.588 312.632 512.583 313.16C513.579 313.687 514.688 313.963 515.814 313.963C516.941 313.963 518.05 313.687 519.045 313.16C520.041 312.632 520.892 311.869 521.524 310.937C522.157 311.869 523.008 312.632 524.003 313.16C524.999 313.687 526.108 313.963 527.234 313.963C528.361 313.963 529.47 313.687 530.465 313.16C531.461 312.632 532.312 311.869 532.944 310.937C533.577 311.869 534.428 312.632 535.423 313.16C536.419 313.687 537.528 313.963 538.655 313.963C539.781 313.963 540.89 313.687 541.886 313.16C542.881 312.632 543.732 311.869 544.365 310.937C544.997 311.869 545.848 312.632 546.844 313.16C547.839 313.687 548.948 313.963 550.075 313.963C551.201 313.963 552.31 313.687 553.306 313.16C554.301 312.632 555.152 311.869 555.785 310.937C556.417 311.869 557.268 312.632 558.264 313.16C559.259 313.687 560.368 313.963 561.495 313.963C562.621 313.963 563.73 313.687 564.726 313.16C565.721 312.632 566.572 311.869 567.205 310.937C568.039 312.157 569.241 313.077 570.636 313.564C572.03 314.051 573.544 314.078 574.956 313.642C576.367 313.207 577.602 312.33 578.48 311.142C579.357 309.954 579.831 308.515 579.832 307.038L575.329 297.445H422.055L417.552 307.038ZM527.691 320.384L519.208 328.883L527.691 320.384Z" stroke="#3E3750" stroke-width="1.5" stroke-miterlimit="10" stroke-linecap="round"/>
<path d="M444.161 346.552H454.227V348.868H444.161V346.552Z" fill="#5BBD81"/>
<path d="M460.345 347.498C460.345 347.821 460.249 348.136 460.07 348.405C459.891 348.673 459.636 348.882 459.338 349.005C459.04 349.129 458.712 349.161 458.395 349.098C458.079 349.035 457.788 348.88 457.56 348.652C457.332 348.424 457.177 348.133 457.114 347.816C457.051 347.5 457.083 347.172 457.206 346.874C457.33 346.576 457.539 346.321 457.807 346.142C458.076 345.962 458.391 345.867 458.714 345.867C459.146 345.867 459.561 346.039 459.867 346.345C460.173 346.65 460.345 347.065 460.345 347.498Z" fill="#3E3750"/>
<path d="M1.22363 374.499H638.776" stroke="#3E3750" stroke-width="1.5" stroke-miterlimit="10" stroke-linecap="round"/>
<path d="M84.6395 315.75C84.6395 319.945 83.3957 324.045 81.0652 327.533C78.7348 331.021 75.4224 333.739 71.547 335.344C67.6716 336.95 63.4072 337.37 59.2931 336.551C55.179 335.733 51.4 333.713 48.4338 330.747C45.4677 327.781 43.4478 324.002 42.6295 319.888C41.8111 315.774 42.2311 311.509 43.8364 307.634C45.4416 303.758 48.16 300.446 51.6478 298.116C55.1355 295.785 59.236 294.541 63.4307 294.541C69.0557 294.541 74.4502 296.776 78.4276 300.753C82.405 304.731 84.6395 310.125 84.6395 315.75" fill="#5BBD81"/>
<path d="M63.4305 336.943C75.1348 336.943 84.623 327.454 84.623 315.75C84.623 304.046 75.1348 294.558 63.4305 294.558C51.7262 294.558 42.238 304.046 42.238 315.75C42.238 327.454 51.7262 336.943 63.4305 336.943Z" stroke="#3E3750" stroke-width="1.5" stroke-miterlimit="10" stroke-linecap="round"/>
<path d="M120.515 294.558C120.499 300.846 118.619 306.989 115.114 312.21C111.608 317.431 106.634 321.496 100.82 323.891C95.0052 326.286 88.6113 326.905 82.4455 325.668C76.2797 324.431 70.6188 321.395 66.1778 316.943C61.7368 312.49 58.7149 306.821 57.494 300.653C56.2731 294.484 56.9079 288.091 59.3181 282.283C61.7283 276.475 65.806 271.511 71.0358 268.019C76.2657 264.527 82.4132 262.663 88.7018 262.663C97.1392 262.663 105.231 266.015 111.197 271.981C117.163 277.947 120.515 286.039 120.515 294.476" fill="#B9E3C9"/>
<path d="M88.7016 326.371C106.272 326.371 120.515 312.128 120.515 294.558C120.515 276.988 106.272 262.744 88.7016 262.744C71.1317 262.744 56.8884 276.988 56.8884 294.558C56.8884 312.128 71.1317 326.371 88.7016 326.371Z" stroke="#3E3750" stroke-width="1.5" stroke-miterlimit="10" stroke-linecap="round"/>
<path d="M88.7181 315.619L97.2832 307.054M88.7181 298.228V374.498V298.228ZM63.4307 326.371V374.498V326.371Z" stroke="#3E3750" stroke-width="1.5" stroke-miterlimit="10" stroke-linecap="round"/>
<path d="M544.528 327.594C539.826 327.59 535.318 325.72 531.993 322.395C528.668 319.071 526.798 314.562 526.794 309.861V253.967C526.934 249.355 528.864 244.978 532.176 241.765C535.488 238.552 539.921 236.755 544.536 236.755C549.15 236.755 553.584 238.552 556.896 241.765C560.208 244.978 562.138 249.355 562.278 253.967V309.844C562.278 314.549 560.41 319.061 557.085 322.39C553.76 325.718 549.249 327.59 544.544 327.594" fill="#B9E3C9"/>
<path d="M113.092 211.044H94.4118C95.3888 209.706 96.043 208.16 96.323 206.528C96.6031 204.895 96.5014 203.219 96.0261 201.632C95.5507 200.046 94.7145 198.59 93.5829 197.38C92.4514 196.17 91.0551 195.239 89.5035 194.658C87.9519 194.078 86.287 193.865 84.6392 194.035C82.9914 194.205 81.4053 194.754 80.0051 195.64C78.605 196.525 77.4288 197.723 76.5685 199.138C75.7083 200.554 75.1873 202.15 75.0465 203.8C73.9488 202.998 72.6235 202.568 71.2641 202.572C69.9047 202.577 68.5821 203.015 67.4893 203.824C66.3965 204.632 65.5907 205.769 65.1893 207.068C64.7879 208.367 64.8119 209.76 65.2579 211.044H60.2656M544.528 327.594C539.826 327.59 535.318 325.72 531.993 322.396C528.668 319.071 526.798 314.563 526.794 309.861V253.967C526.934 249.355 528.864 244.978 532.176 241.765C535.488 238.552 539.921 236.755 544.536 236.755C549.15 236.755 553.583 238.552 556.895 241.765C560.207 244.978 562.138 249.355 562.278 253.967V309.844C562.278 314.552 560.408 319.067 557.079 322.396C553.75 325.724 549.235 327.594 544.528 327.594ZM544.528 281.914V374.499V281.914ZM544.528 299.305L553.093 290.74L544.528 299.305ZM224.389 144.546H192.152C192.981 142.307 193.355 139.925 193.252 137.539C193.149 135.153 192.571 132.812 191.551 130.653C190.532 128.493 189.092 126.559 187.315 124.963C185.539 123.367 183.461 122.142 181.205 121.359C178.949 120.577 176.56 120.252 174.177 120.405C171.794 120.557 169.465 121.184 167.327 122.248C165.189 123.311 163.285 124.791 161.727 126.601C160.168 128.41 158.986 130.512 158.25 132.784C156.635 131.68 154.68 131.184 152.734 131.385C150.788 131.586 148.976 132.47 147.62 133.881C146.264 135.291 145.452 137.137 145.328 139.09C145.205 141.042 145.777 142.976 146.944 144.546H224.389Z" stroke="#3E3750" stroke-width="1.5" stroke-miterlimit="10" stroke-linecap="round"/>
<path d="M228.647 121.787H411.337V374.498H228.647V121.787Z" fill="#5BBD81"/>
<path d="M228.647 121.787H411.337V374.498H228.647V121.787Z" stroke="#3E3750" stroke-width="1.5" stroke-miterlimit="10" stroke-linecap="round"/>
<path d="M245.516 182.347H283.823V220.653H245.516V182.347Z" fill="white"/>
<path d="M245.516 182.347H283.823V220.653H245.516V182.347Z" stroke="#3E3750" stroke-width="1.5" stroke-miterlimit="10" stroke-linecap="round"/>
<path d="M322.129 182.281H360.435V220.588H322.129V182.281Z" fill="white"/>
<path d="M322.129 182.281H360.435V220.588H322.129V182.281Z" stroke="#3E3750" stroke-width="1.5" stroke-miterlimit="10" stroke-linecap="round"/>
<path d="M283.823 182.281H322.129V220.588H283.823V182.281Z" fill="white"/>
<path d="M283.823 182.281H322.129V220.588H283.823V182.281Z" stroke="#3E3750" stroke-width="1.5" stroke-miterlimit="10" stroke-linecap="round"/>
<path d="M360.435 182.281H398.742V220.588H360.435V182.281Z" fill="white"/>
<path d="M360.435 182.281H398.742V220.588H360.435V182.281Z" stroke="#3E3750" stroke-width="1.5" stroke-miterlimit="10" stroke-linecap="round"/>
<path d="M245.516 220.718H283.823V259.025H245.516V220.718Z" fill="white"/>
<path d="M245.516 220.718H283.823V259.025H245.516V220.718Z" stroke="#3E3750" stroke-width="1.5" stroke-miterlimit="10" stroke-linecap="round"/>
<path d="M283.823 220.718H322.129V259.025H283.823V220.718Z" fill="white"/>
<path d="M283.823 220.718H322.129V259.025H283.823V220.718Z" stroke="#3E3750" stroke-width="1.5" stroke-miterlimit="10" stroke-linecap="round"/>
<path d="M322.129 220.653H360.435V258.959H322.129V220.653Z" fill="white"/>
<path d="M322.129 220.653H360.435V258.959H322.129V220.653Z" stroke="#3E3750" stroke-width="1.5" stroke-miterlimit="10" stroke-linecap="round"/>
<path d="M360.435 220.653H398.742V258.959H360.435V220.653Z" fill="white"/>
<path d="M360.435 220.653H398.742V258.959H360.435V220.653Z" stroke="#3E3750" stroke-width="1.5" stroke-miterlimit="10" stroke-linecap="round"/>
<path d="M245.516 259.09H283.823V297.396H245.516V259.09Z" fill="white"/>
<path d="M245.516 259.09H283.823V297.396H245.516V259.09Z" stroke="#3E3750" stroke-width="1.5" stroke-miterlimit="10" stroke-linecap="round"/>
<path d="M283.823 259.09H322.129V297.396H283.823V259.09Z" fill="white"/>
<path d="M283.823 259.09H322.129V297.396H283.823V259.09Z" stroke="#3E3750" stroke-width="1.5" stroke-miterlimit="10" stroke-linecap="round"/>
<path d="M322.129 259.025H360.435V297.331H322.129V259.025Z" fill="white"/>
<path d="M322.129 259.025H360.435V297.331H322.129V259.025Z" stroke="#3E3750" stroke-width="1.5" stroke-miterlimit="10" stroke-linecap="round"/>
<path d="M360.435 259.025H398.742V297.331H360.435V259.025Z" fill="white"/>
<path d="M360.435 259.025H398.742V297.331H360.435V259.025Z" stroke="#3E3750" stroke-width="1.5" stroke-miterlimit="10" stroke-linecap="round"/>
<path d="M245.516 297.527H283.823V374.482H245.516V297.527Z" fill="white"/>
<path d="M245.516 297.527H283.823V374.482H245.516V297.527Z" stroke="#3E3750" stroke-width="1.5" stroke-miterlimit="10" stroke-linecap="round"/>
<path d="M283.823 297.527H322.129V374.482H283.823V297.527Z" fill="white"/>
<path d="M283.823 297.527H322.129V374.482H283.823V297.527Z" stroke="#3E3750" stroke-width="1.5" stroke-miterlimit="10" stroke-linecap="round"/>
<path d="M322.129 297.396H360.435V374.352H322.129V297.396Z" fill="white"/>
<path d="M322.129 297.396H360.435V374.352H322.129V297.396Z" stroke="#3E3750" stroke-width="1.5" stroke-miterlimit="10" stroke-linecap="round"/>
<path d="M360.435 297.396H398.742V374.352H360.435V297.396Z" fill="#E3F4E9"/>
<path d="M360.435 297.396H398.742V374.352H360.435V297.396Z" stroke="#3E3750" stroke-width="1.5" stroke-miterlimit="10" stroke-linecap="round"/>
<path d="M360.435 297.396H398.742V374.352H360.435V297.396Z" fill="white"/>
<path d="M360.435 297.396H398.742V374.352H360.435V297.396Z" stroke="#3E3750" stroke-width="1.5" stroke-miterlimit="10" stroke-linecap="round"/>
<path d="M283.823 322.015H322.129" stroke="#3E3750" stroke-width="1.5" stroke-miterlimit="10"/>
<path d="M322.129 322.015H360.435" stroke="#3E3750" stroke-width="1.5" stroke-miterlimit="10"/>
<path d="M204.779 189.786C204.72 189 204.823 188.21 205.083 187.466C205.343 186.722 205.754 186.039 206.29 185.461C206.826 184.883 207.476 184.422 208.198 184.106C208.921 183.791 209.701 183.628 210.489 183.628C211.278 183.628 212.058 183.791 212.78 184.106C213.503 184.422 214.152 184.883 214.688 185.461C215.224 186.039 215.635 186.722 215.895 187.466C216.155 188.21 216.259 189 216.199 189.786M113.092 189.786C113.033 189 113.136 188.21 113.396 187.466C113.656 186.722 114.067 186.039 114.603 185.461C115.139 184.883 115.789 184.422 116.511 184.106C117.234 183.791 118.014 183.628 118.802 183.628C119.59 183.628 120.37 183.791 121.093 184.106C121.815 184.422 122.465 184.883 123.001 185.461C123.537 186.039 123.948 186.722 124.208 187.466C124.468 188.21 124.572 189 124.512 189.786H113.092ZM124.545 189.786C124.485 189 124.589 188.21 124.849 187.466C125.109 186.722 125.52 186.039 126.056 185.461C126.592 184.883 127.241 184.422 127.964 184.106C128.687 183.791 129.466 183.628 130.255 183.628C131.043 183.628 131.823 183.791 132.546 184.106C133.268 184.422 133.918 184.883 134.454 185.461C134.99 186.039 135.401 186.722 135.661 187.466C135.921 188.21 136.024 189 135.965 189.786H124.545ZM136.014 189.786C135.954 189 136.058 188.21 136.318 187.466C136.578 186.722 136.989 186.039 137.525 185.461C138.061 184.883 138.71 184.422 139.433 184.106C140.156 183.791 140.935 183.628 141.724 183.628C142.512 183.628 143.292 183.791 144.015 184.106C144.737 184.422 145.387 184.883 145.923 185.461C146.459 186.039 146.87 186.722 147.13 187.466C147.39 188.21 147.493 189 147.434 189.786H136.014ZM147.467 189.786C147.407 189 147.511 188.21 147.771 187.466C148.031 186.722 148.441 186.039 148.978 185.461C149.514 184.883 150.163 184.422 150.886 184.106C151.608 183.791 152.388 183.628 153.177 183.628C153.965 183.628 154.745 183.791 155.467 184.106C156.19 184.422 156.84 184.883 157.376 185.461C157.912 186.039 158.323 186.722 158.583 187.466C158.843 188.21 158.946 189 158.887 189.786H147.467ZM158.936 189.786C158.876 189 158.98 188.21 159.24 187.466C159.5 186.722 159.911 186.039 160.447 185.461C160.983 184.883 161.632 184.422 162.355 184.106C163.077 183.791 163.857 183.628 164.646 183.628C165.434 183.628 166.214 183.791 166.937 184.106C167.659 184.422 168.309 184.883 168.845 185.461C169.381 186.039 169.792 186.722 170.052 187.466C170.312 188.21 170.415 189 170.356 189.786H158.936ZM170.388 189.786C170.329 189 170.432 188.21 170.692 187.466C170.952 186.722 171.363 186.039 171.899 185.461C172.435 184.883 173.085 184.422 173.808 184.106C174.53 183.791 175.31 183.628 176.098 183.628C176.887 183.628 177.667 183.791 178.389 184.106C179.112 184.422 179.762 184.883 180.298 185.461C180.834 186.039 181.244 186.722 181.504 187.466C181.764 188.21 181.868 189 181.809 189.786H170.388ZM181.857 189.786C181.798 189 181.901 188.21 182.161 187.466C182.421 186.722 182.832 186.039 183.368 185.461C183.904 184.883 184.554 184.422 185.277 184.106C185.999 183.791 186.779 183.628 187.568 183.628C188.356 183.628 189.136 183.791 189.858 184.106C190.581 184.422 191.231 184.883 191.767 185.461C192.303 186.039 192.714 186.722 192.974 187.466C193.234 188.21 193.337 189 193.278 189.786H181.857ZM193.31 189.786C193.251 189 193.354 188.21 193.614 187.466C193.874 186.722 194.285 186.039 194.821 185.461C195.357 184.883 196.007 184.422 196.729 184.106C197.452 183.791 198.232 183.628 199.02 183.628C199.809 183.628 200.589 183.791 201.311 184.106C202.034 184.422 202.683 184.883 203.219 185.461C203.755 186.039 204.166 186.722 204.426 187.466C204.686 188.21 204.79 189 204.73 189.786H193.31Z" stroke="#3E3750" stroke-width="1.5" stroke-miterlimit="10" stroke-linecap="round"/>
<path d="M326.909 326.632H355.541V369.735H326.909V326.632Z" fill="white"/>
<path d="M326.909 326.632H355.541V369.735H326.909V326.632Z" stroke="#3E3750" stroke-width="1.5" stroke-miterlimit="10" stroke-linecap="round"/>
<path d="M288.668 326.632H317.3V369.735H288.668V326.632Z" fill="white"/>
<path d="M288.668 326.632H317.3V369.735H288.668V326.632Z" stroke="#3E3750" stroke-width="1.5" stroke-miterlimit="10" stroke-linecap="round"/>
<path d="M238.778 297.608H405.48V303.253H238.778V297.608Z" fill="#5BBD81"/>
<path d="M238.778 297.608H405.48V303.253H238.778V297.608Z" stroke="#3E3750" stroke-width="1.5" stroke-miterlimit="10" stroke-linecap="round"/>
<path d="M405.202 75.2913L410.472 96.5001C410.704 97.4213 410.753 98.3793 410.615 99.3194C410.478 100.259 410.156 101.163 409.669 101.979C409.182 102.795 408.539 103.507 407.777 104.074C407.015 104.641 406.148 105.053 405.227 105.285C404.306 105.518 403.348 105.567 402.407 105.429C401.467 105.291 400.564 104.969 399.748 104.482C398.932 103.995 398.22 103.352 397.653 102.59C397.086 101.828 396.674 100.962 396.441 100.04L390.34 75.4381" fill="white"/>
<path d="M405.202 75.2913L410.472 96.5001C410.704 97.4213 410.753 98.3793 410.615 99.3194C410.478 100.259 410.156 101.163 409.669 101.979C409.182 102.795 408.539 103.507 407.777 104.074C407.015 104.641 406.148 105.053 405.227 105.285C404.306 105.518 403.348 105.567 402.407 105.429C401.467 105.291 400.564 104.969 399.748 104.482C398.932 103.995 398.22 103.352 397.653 102.59C397.086 101.828 396.674 100.962 396.441 100.04L390.34 75.4381" stroke="#3E3750" stroke-width="1.5" stroke-miterlimit="10" stroke-linecap="round"/>
<path d="M398.595 75.2911H381.334C376.754 75.2911 372.362 73.4717 369.123 70.2332C365.885 66.9947 364.065 62.6023 364.065 58.0223C364.065 53.4423 365.885 49.0499 369.123 45.8114C372.362 42.5728 376.754 40.7534 381.334 40.7534H398.595V75.2911Z" fill="white"/>
<path d="M391.025 40.7697V58.9114M398.595 75.2911H381.334C376.754 75.2911 372.362 73.4717 369.123 70.2332C365.885 66.9947 364.065 62.6023 364.065 58.0223C364.065 53.4423 365.885 49.0499 369.123 45.8114C372.362 42.5728 376.754 40.7534 381.334 40.7534H398.595V75.2911Z" stroke="#3E3750" stroke-width="1.5" stroke-miterlimit="10" stroke-linecap="round"/>
<path d="M460.541 99.3225L420.081 75.2913V40.7862L460.541 16.755C461.089 16.5163 461.687 16.4164 462.283 16.4639C462.879 16.5115 463.454 16.7051 463.957 17.0277C464.46 17.3502 464.876 17.7918 465.168 18.3133C465.46 18.8349 465.619 19.4203 465.631 20.0179V95.9943C465.619 96.5919 465.46 97.1774 465.168 97.6989C464.876 98.2205 464.46 98.662 463.957 98.9846C463.454 99.3072 462.879 99.5008 462.283 99.5483C461.687 99.5959 461.089 99.4959 460.541 99.2572" fill="white"/>
<path d="M460.541 99.3225L420.081 75.2913V40.7862L460.541 16.755C461.089 16.5163 461.687 16.4164 462.283 16.4639C462.879 16.5115 463.454 16.7051 463.957 17.0277C464.46 17.3502 464.876 17.7918 465.168 18.3133C465.46 18.8349 465.619 19.4203 465.631 20.0179V95.9944C465.63 96.5975 465.479 97.1908 465.191 97.721C464.904 98.2512 464.489 98.7016 463.984 99.0317C463.479 99.3618 462.9 99.5611 462.299 99.6119C461.698 99.6627 461.094 99.5632 460.541 99.3225V99.3225Z" stroke="#3E3750" stroke-width="1.5" stroke-miterlimit="10" stroke-linecap="round"/>
<path d="M398.595 40.7698H420.081V75.3075H398.595V40.7698Z" fill="#B9E3C9"/>
<path d="M465.631 43.2169C467.238 43.2169 468.829 43.5334 470.314 44.1483C471.798 44.7633 473.147 45.6645 474.283 46.8007C475.419 47.9369 476.321 49.2858 476.936 50.7703C477.55 52.2549 477.867 53.846 477.867 55.4528C477.867 57.0596 477.55 58.6507 476.936 60.1352C476.321 61.6198 475.419 62.9686 474.283 64.1048C473.147 65.241 471.798 66.1423 470.314 66.7572C468.829 67.3721 467.238 67.6886 465.631 67.6886M398.595 40.7698H420.081V75.3075H398.595V40.7698Z" stroke="#3E3750" stroke-width="1.5" stroke-miterlimit="10" stroke-linecap="round"/>
<path d="M488.814 41.7813C488.814 42.475 488.608 43.1532 488.223 43.73C487.837 44.3068 487.29 44.7564 486.649 45.0219C486.008 45.2874 485.303 45.3568 484.622 45.2215C483.942 45.0862 483.317 44.7521 482.826 44.2615C482.336 43.771 482.002 43.146 481.866 42.4656C481.731 41.7852 481.8 41.0799 482.066 40.439C482.331 39.7981 482.781 39.2502 483.358 38.8648C483.935 38.4794 484.613 38.2737 485.306 38.2737C486.237 38.2737 487.129 38.6432 487.787 39.301C488.444 39.9588 488.814 40.851 488.814 41.7813V41.7813ZM506.809 60.9997C506.809 61.587 506.635 62.1611 506.308 62.6493C505.982 63.1376 505.519 63.5182 504.976 63.7429C504.433 63.9677 503.836 64.0265 503.26 63.9119C502.684 63.7973 502.155 63.5145 501.74 63.0993C501.325 62.684 501.042 62.155 500.928 61.579C500.813 61.003 500.872 60.406 501.096 59.8635C501.321 59.3209 501.702 58.8572 502.19 58.5309C502.678 58.2046 503.252 58.0305 503.84 58.0305C504.627 58.0305 505.382 58.3433 505.939 58.9002C506.496 59.457 506.809 60.2122 506.809 60.9997V60.9997ZM492.485 69.3527C492.485 69.9365 492.312 70.5072 491.99 70.9936C491.667 71.4799 491.208 71.8603 490.67 72.0873C490.132 72.3142 489.539 72.3776 488.966 72.2695C488.392 72.1614 487.863 71.8866 487.445 71.4794C487.026 71.0723 486.737 70.5509 486.614 69.9804C486.49 69.4099 486.537 68.8156 486.75 68.2718C486.962 67.7281 487.33 67.2589 487.807 66.9231C488.285 66.5872 488.85 66.3995 489.434 66.3835C490.221 66.3835 490.977 66.6963 491.534 67.2532C492.09 67.81 492.403 68.5652 492.403 69.3527" fill="#5BBD81"/>
<path d="M497.314 46.5126C497.314 46.7546 497.242 46.9912 497.108 47.1924C496.973 47.3937 496.782 47.5505 496.558 47.6431C496.335 47.7357 496.089 47.7599 495.851 47.7127C495.614 47.6655 495.396 47.549 495.225 47.3779C495.054 47.2067 494.937 46.9887 494.89 46.7514C494.843 46.514 494.867 46.268 494.96 46.0444C495.052 45.8208 495.209 45.6297 495.41 45.4953C495.612 45.3608 495.848 45.2891 496.09 45.2891C496.415 45.2891 496.726 45.418 496.955 45.6474C497.185 45.8769 497.314 46.1881 497.314 46.5126V46.5126ZM487.802 58.0307C487.802 58.2727 487.731 58.5092 487.596 58.7104C487.462 58.9117 487.271 59.0685 487.047 59.1611C486.823 59.2537 486.577 59.2779 486.34 59.2307C486.103 59.1835 485.885 59.067 485.714 58.8959C485.542 58.7247 485.426 58.5067 485.379 58.2694C485.332 58.032 485.356 57.786 485.448 57.5624C485.541 57.3388 485.698 57.1477 485.899 57.0133C486.1 56.8788 486.337 56.8071 486.579 56.8071C486.903 56.8071 487.215 56.936 487.444 57.1654C487.673 57.3949 487.802 57.7061 487.802 58.0307" fill="#3E3750"/>
<path d="M171.742 34.5867L216.183 1.25628C217.086 0.636153 218.155 0.304199 219.25 0.304199C220.345 0.304199 221.415 0.636153 222.317 1.25628L266.774 34.5867C266.774 34.5867 220.963 74.7529 219.462 70.5764C217.961 66.3999 171.742 34.5867 171.742 34.5867" fill="#5BBD81"/>
<path d="M254.114 80.8871H184.353C183.306 80.8871 182.302 80.4712 181.562 79.7308C180.821 78.9904 180.405 77.9861 180.405 76.939V13.3126C180.41 12.2684 180.827 11.2683 181.567 10.5315C182.307 9.79457 183.309 9.38085 184.353 9.38086H254.065C255.112 9.38086 256.116 9.79682 256.857 10.5372C257.597 11.2776 258.013 12.2819 258.013 13.329V76.9554C258.013 78.0025 257.597 79.0067 256.857 79.7471C256.116 80.4875 255.112 80.9035 254.065 80.9035" fill="white"/>
<path d="M254.114 9.38086H184.386C182.206 9.38086 180.438 11.1485 180.438 13.329V76.939C180.438 79.1195 182.206 80.8871 184.386 80.8871H254.114C256.295 80.8871 258.062 79.1195 258.062 76.939V13.329C258.062 11.1485 256.295 9.38086 254.114 9.38086Z" stroke="#3E3750" stroke-width="1.5" stroke-miterlimit="10" stroke-linecap="round"/>
<path d="M259.743 95.1623H178.758C175.495 95.1623 172.754 91.8994 172.754 87.9676V36.8381L216.216 67.3135C217.112 67.9273 218.172 68.2558 219.258 68.2558C220.344 68.2558 221.405 67.9273 222.301 67.3135L265.763 36.8381V87.9676C265.763 91.9321 263.071 95.1623 259.759 95.1623" fill="white"/>
<path d="M259.743 95.1623H178.758C175.495 95.1623 172.754 91.8994 172.754 87.9676V36.8381L216.216 67.3135C217.112 67.9273 218.172 68.2558 219.258 68.2558C220.344 68.2558 221.405 67.9273 222.301 67.3135L265.763 36.8381V87.9676C265.746 91.9484 263.071 95.1623 259.743 95.1623V95.1623Z" stroke="#3E3750" stroke-width="1.5" stroke-miterlimit="10" stroke-linecap="round"/>
<path d="M206.443 70.8862L182.347 87.7717Z" fill="#E3F4E9"/>
<path d="M206.443 70.8862L182.347 87.7717" stroke="#3E3750" stroke-width="1.5" stroke-miterlimit="10" stroke-linecap="round"/>
<path d="M256.17 87.7719L231.633 70.5764Z" fill="#E3F4E9"/>
<path d="M256.17 87.7719L231.633 70.5764" stroke="#3E3750" stroke-width="1.5" stroke-miterlimit="10" stroke-linecap="round"/>
<path d="M275.209 41.1941H230.083L218.646 49.335V1.22363H275.209V41.1941Z" fill="#E3F4E9"/>
<path d="M275.209 41.1941H230.083L218.646 49.335V1.22363H275.209V41.1941Z" stroke="#3E3750" stroke-width="1.5" stroke-miterlimit="10" stroke-linecap="round"/>
<path d="M263.348 25.2711H231.926C231.602 25.2711 231.291 25.1422 231.061 24.9127C230.832 24.6833 230.703 24.3721 230.703 24.0475C230.703 23.723 230.832 23.4118 231.061 23.1823C231.291 22.9529 231.602 22.824 231.926 22.824H263.348C263.673 22.824 263.984 22.9529 264.213 23.1823C264.443 23.4118 264.572 23.723 264.572 24.0475C264.572 24.3721 264.443 24.6833 264.213 24.9127C263.984 25.1422 263.673 25.2711 263.348 25.2711V25.2711ZM250.802 31.7969H231.926C231.602 31.7969 231.291 31.668 231.061 31.4385C230.832 31.2091 230.703 30.8978 230.703 30.5733C230.703 30.2488 230.832 29.9376 231.061 29.7081C231.291 29.4786 231.602 29.3497 231.926 29.3497H250.802C251.127 29.3497 251.438 29.4786 251.668 29.7081C251.897 29.9376 252.026 30.2488 252.026 30.5733C252.026 30.8978 251.897 31.2091 251.668 31.4385C251.438 31.668 251.127 31.7969 250.802 31.7969V31.7969ZM231.551 13.5247C231.551 14.4927 231.838 15.439 232.376 16.2439C232.914 17.0487 233.678 17.676 234.573 18.0465C235.467 18.4169 236.451 18.5139 237.4 18.325C238.35 18.1362 239.222 17.67 239.906 16.9855C240.591 16.301 241.057 15.429 241.246 14.4795C241.435 13.5301 241.338 12.5461 240.967 11.6517C240.597 10.7574 239.97 9.99301 239.165 9.45522C238.36 8.91742 237.414 8.63037 236.446 8.63037C235.147 8.63037 233.903 9.14602 232.985 10.0639C232.067 10.9818 231.551 12.2267 231.551 13.5247Z" fill="#3E3750"/>
<path d="M293.252 100.122C293.334 122.358 319.943 145.199 324.87 145.199C329.797 145.199 356.259 122.179 356.194 99.9424C356.165 91.5958 352.823 83.6024 346.901 77.7204C340.979 71.8384 332.963 68.5497 324.617 68.5778C316.27 68.6059 308.277 71.9486 302.395 77.8703C296.513 83.7921 293.224 91.8079 293.252 100.154V100.122ZM313.743 100.154C313.704 97.9764 314.314 95.8359 315.496 94.0055C316.677 92.1751 318.376 90.7374 320.376 89.8754C322.377 89.0133 324.589 88.7659 326.73 89.1645C328.872 89.5632 330.847 90.5899 332.403 92.114C333.96 93.6382 335.028 95.5909 335.471 97.7237C335.914 99.8566 335.713 102.073 334.893 104.091C334.073 106.11 332.672 107.838 330.866 109.058C329.061 110.277 326.934 110.931 324.756 110.938C323.314 110.943 321.885 110.663 320.551 110.115C319.218 109.567 318.005 108.762 316.982 107.746C315.96 106.729 315.147 105.521 314.592 104.191C314.036 102.86 313.748 101.433 313.743 99.9913" fill="white"/>
<path d="M293.252 100.122C293.334 122.358 319.943 145.199 324.87 145.199C329.797 145.199 356.259 122.179 356.194 99.9424C356.165 91.5958 352.823 83.6024 346.901 77.7204C340.979 71.8384 332.963 68.5497 324.617 68.5778C316.27 68.6059 308.277 71.9486 302.395 77.8703C296.513 83.7921 293.224 91.8079 293.252 100.154V100.122ZM313.743 100.122C313.711 97.945 314.327 95.8077 315.512 93.9815C316.697 92.1553 318.398 90.7227 320.4 89.8656C322.401 89.0086 324.612 88.7659 326.751 89.1683C328.891 89.5707 330.862 90.6001 332.416 92.1256C333.969 93.6512 335.033 95.604 335.474 97.736C335.915 99.868 335.712 102.083 334.891 104.099C334.07 106.116 332.668 107.842 330.863 109.06C329.059 110.278 326.933 110.932 324.756 110.938C321.855 110.947 319.069 109.808 317.005 107.769C314.942 105.73 313.769 102.957 313.743 100.057V100.122Z" stroke="#3E3750" stroke-width="1.5" stroke-miterlimit="10" stroke-linecap="round"/>
<path d="M382.639 143.029C382.639 143.997 382.352 144.943 381.814 145.748C381.277 146.553 380.512 147.18 379.618 147.551C378.724 147.921 377.739 148.018 376.79 147.829C375.841 147.64 374.969 147.174 374.284 146.49C373.6 145.805 373.133 144.933 372.945 143.984C372.756 143.034 372.853 142.05 373.223 141.156C373.594 140.262 374.221 139.497 375.026 138.959C375.831 138.422 376.777 138.135 377.745 138.135C379.043 138.135 380.288 138.65 381.206 139.568C382.124 140.486 382.639 141.731 382.639 143.029" fill="#E3F4E9"/>
<path d="M377.745 147.923C380.448 147.923 382.639 145.732 382.639 143.029C382.639 140.326 380.448 138.135 377.745 138.135C375.042 138.135 372.851 140.326 372.851 143.029C372.851 145.732 375.042 147.923 377.745 147.923Z" stroke="#3E3750" stroke-width="1.5" stroke-miterlimit="10" stroke-linecap="round"/>
<path d="M338.329 164.238C338.329 165.206 338.042 166.152 337.504 166.957C336.967 167.762 336.202 168.389 335.308 168.759C334.414 169.13 333.429 169.227 332.48 169.038C331.531 168.849 330.659 168.383 329.974 167.698C329.29 167.014 328.823 166.142 328.635 165.192C328.446 164.243 328.543 163.259 328.913 162.365C329.284 161.47 329.911 160.706 330.716 160.168C331.521 159.63 332.467 159.343 333.435 159.343C334.733 159.343 335.978 159.859 336.896 160.777C337.814 161.695 338.329 162.94 338.329 164.238" fill="#E3F4E9"/>
<path d="M333.435 169.132C336.138 169.132 338.329 166.941 338.329 164.238C338.329 161.535 336.138 159.343 333.435 159.343C330.732 159.343 328.541 161.535 328.541 164.238C328.541 166.941 330.732 169.132 333.435 169.132Z" stroke="#3E3750" stroke-width="1.5" stroke-miterlimit="10" stroke-linecap="round"/>
<path d="M272.859 136.373C272.859 137.341 272.572 138.287 272.035 139.092C271.497 139.897 270.732 140.524 269.838 140.894C268.944 141.265 267.96 141.362 267.01 141.173C266.061 140.984 265.189 140.518 264.504 139.833C263.82 139.149 263.354 138.277 263.165 137.327C262.976 136.378 263.073 135.394 263.443 134.5C263.814 133.605 264.441 132.841 265.246 132.303C266.051 131.765 266.997 131.478 267.965 131.478C269.263 131.478 270.508 131.994 271.426 132.912C272.344 133.83 272.859 135.075 272.859 136.373Z" fill="#E3F4E9"/>
<path d="M267.965 141.267C270.668 141.267 272.859 139.076 272.859 136.373C272.859 133.67 270.668 131.478 267.965 131.478C265.262 131.478 263.071 133.67 263.071 136.373C263.071 139.076 265.262 141.267 267.965 141.267Z" stroke="#3E3750" stroke-width="1.5" stroke-miterlimit="10" stroke-linecap="round"/>
<path d="M254.506 136.829H244.113C242.638 136.829 241.223 136.243 240.179 135.2C239.136 134.157 238.55 132.742 238.55 131.266V102.455M390.421 142.409H417.65C419.126 142.409 420.541 141.823 421.584 140.779C422.627 139.736 423.213 138.321 423.213 136.846V97.6909L390.421 142.409ZM347.025 165.331H439.022H347.025Z" stroke="#3E3750" stroke-width="1.5" stroke-miterlimit="10" stroke-linecap="round"/>
<path d="M532.798 215.579H457.751C456.92 215.579 456.124 215.249 455.536 214.662C454.949 214.074 454.619 213.278 454.619 212.447V158.609C454.619 157.778 454.949 156.982 455.536 156.394C456.124 155.807 456.92 155.477 457.751 155.477H532.798C533.629 155.477 534.425 155.807 535.013 156.394C535.6 156.982 535.93 157.778 535.93 158.609V212.447C535.93 213.278 535.6 214.074 535.013 214.662C534.425 215.249 533.629 215.579 532.798 215.579Z" fill="#5BBD81"/>
<path d="M532.781 155.558H457.768C456.038 155.558 454.635 156.961 454.635 158.691V212.447C454.635 214.177 456.038 215.579 457.768 215.579H532.781C534.511 215.579 535.914 214.177 535.914 212.447V158.691C535.914 156.961 534.511 155.558 532.781 155.558Z" stroke="#3E3750" stroke-width="1.5" stroke-miterlimit="10" stroke-linecap="round"/>
<path d="M527.202 215.579H452.155C451.744 215.579 451.337 215.498 450.957 215.341C450.577 215.183 450.231 214.953 449.94 214.662C449.65 214.371 449.419 214.026 449.261 213.646C449.104 213.266 449.023 212.858 449.023 212.447V158.609C449.023 158.198 449.104 157.791 449.261 157.41C449.419 157.03 449.65 156.685 449.94 156.394C450.231 156.103 450.577 155.873 450.957 155.715C451.337 155.558 451.744 155.477 452.155 155.477H527.202C527.613 155.477 528.02 155.558 528.401 155.715C528.781 155.873 529.126 156.103 529.417 156.394C529.708 156.685 529.938 157.03 530.096 157.41C530.253 157.791 530.334 158.198 530.334 158.609V212.447C530.334 212.858 530.253 213.266 530.096 213.646C529.938 214.026 529.708 214.371 529.417 214.662C529.126 214.953 528.781 215.183 528.401 215.341C528.02 215.498 527.613 215.579 527.202 215.579Z" fill="white"/>
<path d="M527.202 155.558H452.188C450.458 155.558 449.055 156.961 449.055 158.691V212.447C449.055 214.177 450.458 215.579 452.188 215.579H527.202C528.932 215.579 530.334 214.177 530.334 212.447V158.691C530.334 156.961 528.932 155.558 527.202 155.558Z" stroke="#3E3750" stroke-width="1.5" stroke-miterlimit="10" stroke-linecap="round"/>
<path d="M517.103 171.106V203.131" stroke="#3E3750" stroke-width="1.5" stroke-miterlimit="10" stroke-linecap="round"/>
<path d="M519.942 177.371C519.948 177.936 519.786 178.491 519.475 178.963C519.164 179.436 518.719 179.805 518.197 180.022C517.675 180.24 517.1 180.297 516.545 180.186C515.991 180.075 515.482 179.8 515.084 179.398C514.687 178.996 514.418 178.484 514.314 177.928C514.209 177.372 514.273 176.798 514.497 176.279C514.721 175.759 515.095 175.319 515.571 175.013C516.047 174.708 516.603 174.552 517.168 174.565C517.921 174.565 518.643 174.864 519.176 175.396C519.708 175.929 520.007 176.651 520.007 177.403" fill="#5BBD81"/>
<path d="M517.103 180.21C518.671 180.21 519.942 178.939 519.942 177.371C519.942 175.803 518.671 174.532 517.103 174.532C515.535 174.532 514.264 175.803 514.264 177.371C514.264 178.939 515.535 180.21 517.103 180.21Z" stroke="#3E3750" stroke-width="1.5" stroke-miterlimit="10" stroke-linecap="round"/>
<path d="M499.826 185.577C499.826 189.449 498.678 193.234 496.527 196.454C494.376 199.673 491.318 202.182 487.741 203.664C484.163 205.146 480.227 205.534 476.429 204.778C472.632 204.023 469.143 202.158 466.405 199.42C463.667 196.682 461.803 193.194 461.048 189.396C460.292 185.599 460.68 181.662 462.162 178.085C463.643 174.508 466.153 171.45 469.372 169.299C472.592 167.148 476.377 166 480.249 166C485.441 166 490.421 168.062 494.092 171.734C497.763 175.405 499.826 180.385 499.826 185.577Z" fill="#B9E3C9"/>
<path d="M480.2 205.203C491.039 205.203 499.826 196.416 499.826 185.577C499.826 174.738 491.039 165.951 480.2 165.951C469.361 165.951 460.574 174.738 460.574 185.577C460.574 196.416 469.361 205.203 480.2 205.203Z" stroke="#3E3750" stroke-width="1.5" stroke-miterlimit="10" stroke-linecap="round"/>
<path d="M480.2 209.429C493.373 209.429 504.052 198.75 504.052 185.577C504.052 172.404 493.373 161.725 480.2 161.725C467.027 161.725 456.348 172.404 456.348 185.577C456.348 198.75 467.027 209.429 480.2 209.429Z" stroke="#3E3750" stroke-width="1.5" stroke-miterlimit="10" stroke-linecap="round"/>
<path d="M486.171 185.577C486.171 186.745 485.825 187.887 485.176 188.858C484.527 189.829 483.604 190.586 482.525 191.033C481.446 191.48 480.259 191.597 479.113 191.369C477.967 191.141 476.915 190.579 476.089 189.753C475.263 188.927 474.701 187.875 474.473 186.729C474.245 185.584 474.362 184.396 474.809 183.317C475.256 182.238 476.013 181.315 476.984 180.666C477.955 180.018 479.097 179.671 480.265 179.671C481.832 179.671 483.334 180.293 484.441 181.401C485.549 182.508 486.171 184.011 486.171 185.577" fill="#E3F4E9"/>
<path d="M480.2 191.483C483.461 191.483 486.106 188.839 486.106 185.577C486.106 182.315 483.461 179.671 480.2 179.671C476.938 179.671 474.294 182.315 474.294 185.577C474.294 188.839 476.938 191.483 480.2 191.483Z" stroke="#3E3750" stroke-width="1.5" stroke-miterlimit="10" stroke-linecap="round"/>
</g>
<defs>
<clipPath id="clip0">
<rect width="640" height="375.722" fill="white"/>
</clipPath>
</defs>
</svg>
