<svg width="524" height="358" fill="none" xmlns="http://www.w3.org/2000/svg"><g filter="url(#prefix__filter0_d)"><path d="M445.768 138.818h41.558v-28.225h-41.558v28.225z" fill="#E0E0E0"/><path d="M447.235 137.669h38.647v-25.805h-38.647v25.805z" fill="#FAFAFA"/><path d="M460.254 128.261h12.609v-7.103h-12.609v7.103z" fill="#E0E0E0"/><path d="M423.215 225.617h-46.171v2.322h46.171v-2.322z" fill="#EBEBEB"/><path d="M369.892 227.93l-8.659-33.519h36.046l7.838 33.519h-35.225z" fill="#EBEBEB"/><path d="M402.965 225.397H370.76l-7.5-29.438h32.371l7.334 29.438z" fill="#E0E0E0"/><path d="M354.421 234.805h-2.335v114.992h2.335V234.805z" fill="#F5F5F5"/><path d="M356.747 235.131h-2.334v114.658h2.334V235.131zM498.066 234.805h-2.335v114.992h2.335V234.805z" fill="#EBEBEB"/><path d="M500.392 235.131h-2.334v114.658h2.334V235.131z" fill="#E0E0E0"/><path d="M519.12 228.118H342.016v9.433H519.12v-9.433z" fill="#E0E0E0"/><path d="M496.899 237.551h-77.966v15.607h77.966v-15.607z" fill="#EBEBEB"/><path d="M461.398 244.279c.001.356-.1.705-.29 1.002a1.762 1.762 0 01-.781.667 1.698 1.698 0 01-1.902-.385 1.85 1.85 0 01-.381-1.963 1.79 1.79 0 01.642-.809 1.705 1.705 0 012.201.218c.162.166.29.364.378.582.087.218.133.452.133.688z" fill="#E0E0E0"/><path d="M449.932 283.915h-30.628c-.512 0-1.02-.104-1.493-.307a3.89 3.89 0 01-1.265-.874 4.067 4.067 0 01-.844-1.308 4.153 4.153 0 01-.294-1.543v-9.774a6.98 6.98 0 01.498-2.6 6.813 6.813 0 011.423-2.204 6.57 6.57 0 012.132-1.473 6.4 6.4 0 012.516-.517h28.183l-.228 20.6zM419.816 290.049h60.223a2.928 2.928 0 002.097-.902 3.124 3.124 0 00.868-2.169 3.121 3.121 0 00-.871-2.163 2.927 2.927 0 00-2.094-.9h-60.223a2.927 2.927 0 00-2.094.9 3.121 3.121 0 00-.871 2.163c0 .813.312 1.593.868 2.169.556.575 1.31.9 2.097.902z" fill="#EBEBEB"/><path d="M492.309 202.256l-33.12-.611-21.039 82.091 44.854.465 16.907-71.967a8.342 8.342 0 00.039-3.62 8.207 8.207 0 00-1.495-3.275 7.877 7.877 0 00-2.73-2.271 7.615 7.615 0 00-3.416-.812z" fill="#E0E0E0"/><path d="M475.805 290.049l9.912 59.496h-2.713l-13.035-59.496h5.836z" fill="#EBEBEB"/><path d="M452.439 290.049l10.536 59.496h-2.721l-13.65-59.496h5.835z" fill="#E0E0E0"/><path d="M426.598 290.049l-11.758 59.496h2.721l14.864-59.496h-5.827zM462.975 201.645l-16.395 82.181h-12.617l13.185-72.651c.483-2.686 1.86-5.113 3.894-6.86a11.108 11.108 0 017.241-2.703l4.692.033z" fill="#EBEBEB"/><path fill-rule="evenodd" clip-rule="evenodd" d="M403.217 6.093a9.875 9.875 0 011.845-1.947l-.442-2.484 3.722-1.63 1.428 2.045a9.548 9.548 0 012.641 0L413.799 0l3.754 1.556-.386 2.492c.7.534 1.33 1.158 1.876 1.858l2.405-.448 1.578 3.836-1.972 1.499c.119.903.119 1.818 0 2.72l2.011 1.434-1.506 3.878-2.413-.4a10.143 10.143 0 01-1.845 1.947l.441 2.444-3.722 1.629-1.435-2.044a9.508 9.508 0 01-2.634 0l-1.388 2.15-3.722-1.54.387-2.492a9.643 9.643 0 01-1.885-1.906l-2.366.456-1.577-3.845 1.979-1.474a10.864 10.864 0 010-2.72l-2.003-1.443 1.507-3.877 2.413.407-.079-.024zm4.021 4.317a4.625 4.625 0 00-.216 2.59c.177.867.6 1.66 1.213 2.278a4.29 4.29 0 002.233 1.2 4.21 4.21 0 002.502-.285 4.38 4.38 0 001.928-1.671c.468-.742.714-1.61.704-2.496a4.58 4.58 0 00-.756-2.48 4.363 4.363 0 00-1.961-1.628 4.209 4.209 0 00-3.325.033c-.525.232-1 .568-1.399.99a4.497 4.497 0 00-.923 1.47z" fill="#F5F5F5"/><path fill-rule="evenodd" clip-rule="evenodd" d="M429.311 32.265a35.319 35.319 0 016.474-6.81l-1.538-8.716 13.043-5.75 5.031 7.135a33.47 33.47 0 019.25-.106l4.874-7.225 13.161 5.457L478.249 25a35.078 35.078 0 016.609 6.687l8.429-1.629 5.575 13.481-6.955 5.189c.449 3.166.483 6.38.103 9.555l7.058 5.034-5.292 13.603-8.461-1.41a35.38 35.38 0 01-6.474 6.827l1.577 8.716-13.051 5.75-5.023-7.176a33.79 33.79 0 01-9.25.106l-4.873 7.282-13.169-5.466 1.364-8.74a35.283 35.283 0 01-6.608-6.687l-8.438 1.629-5.567-13.481 6.947-5.197a37.16 37.16 0 01-.103-9.547l-7.049-5.034 5.291-13.603 8.461 1.401-.039-.024zm14.115 15.15a16.212 16.212 0 00-.773 9.092 15.884 15.884 0 004.247 8.003 15.066 15.066 0 007.836 4.217c2.958.575 6.014.23 8.783-.99a15.35 15.35 0 006.771-5.862 16.103 16.103 0 002.477-8.761 16.09 16.09 0 00-2.653-8.706 15.318 15.318 0 00-6.887-5.717 14.792 14.792 0 00-5.842-1.13c-2 .024-3.977.455-5.816 1.268a15.21 15.21 0 00-4.902 3.472 15.798 15.798 0 00-3.241 5.147v-.033z" fill="#EBEBEB"/><path d="M375.168 58.55c.9-1.26 1.961-2.389 3.154-3.355l-.789-4.293 6.427-2.827 2.524 3.527a16.73 16.73 0 014.558-.048l2.365-3.585 6.482 2.688-.67 4.301a17.333 17.333 0 013.249 3.259l4.156-.815 2.736 6.639-3.414 2.55c.216 1.56.232 3.143.047 4.708l3.47 2.443-2.603 6.696-4.163-.692a17.366 17.366 0 01-3.155 3.356l.789 4.292-6.427 2.835-2.476-3.535c-1.508.224-3.038.24-4.55.049l-2.366 3.584-6.482-2.688.671-4.301a17.038 17.038 0 01-3.249-3.258l-4.156.814-2.8-6.565 3.423-2.55a18.41 18.41 0 01-.047-4.708l-3.47-2.444 2.602-6.695 4.164.692v-.073zm6.947 7.454a7.975 7.975 0 00-.381 4.475 7.809 7.809 0 002.09 3.94 7.41 7.41 0 003.857 2.076 7.27 7.27 0 004.323-.486 7.553 7.553 0 003.333-2.886 7.922 7.922 0 001.22-4.312 7.92 7.92 0 00-1.305-4.286 7.547 7.547 0 00-3.39-2.814 7.279 7.279 0 00-5.733.064c-1.828.805-3.271 2.326-4.014 4.229z" fill="#E0E0E0"/><path d="M382.115 66.004a5.996 5.996 0 01.836-1.71 7.463 7.463 0 014.092-3.006 7.353 7.353 0 013.525-.163c1.348.275 2.6.916 3.628 1.857a7.562 7.562 0 011.419 1.743c.413.676.719 1.416.907 2.191a8.147 8.147 0 01-.3 4.945 7.843 7.843 0 01-3.091 3.787 7.164 7.164 0 01-2.129.929 6.744 6.744 0 01-2.192.244 7.47 7.47 0 01-3.864-1.254 7.729 7.729 0 01-2.794-3.35 8.025 8.025 0 01-.581-4.38 6.09 6.09 0 01.544-1.833c.055 0-.229.652-.379 1.857a7.937 7.937 0 001.033 4.888 7.43 7.43 0 002.366 2.443 7.246 7.246 0 003.683 1.157 7.084 7.084 0 004.084-1.14 7.428 7.428 0 002.906-3.563 7.711 7.711 0 00.304-4.648 7.26 7.26 0 00-.844-2.077 7.18 7.18 0 00-1.34-1.63 7.28 7.28 0 00-3.195-1.737 7.124 7.124 0 00-3.611.043 7.446 7.446 0 00-4.037 2.81c-.702.962-.923 1.621-.97 1.597z" fill="#E0E0E0"/><path d="M375.168 58.55c-.087.011-.174.011-.261 0l-.788-.114-3.155-.48.079-.04c-.662 1.71-1.522 3.974-2.57 6.703l-.04-.13 3.486 2.443.063.05v.073a17.876 17.876 0 00.063 4.667v.09l-.063.048-3.415 2.566.048-.187 2.759 6.63-.189-.106 4.148-.814h.11l.064.09a17.499 17.499 0 003.225 3.258l.087.073v.114c-.205 1.328-.434 2.802-.663 4.301l-.118-.212 6.482 2.68-.237.073 2.366-3.592.071-.097h.118c1.497.19 3.011.174 4.503-.05h.118l.079.106 2.476 3.536-.252-.074 6.419-2.834-.126.244a198.32 198.32 0 00-.789-4.293v-.13l.103-.081a17.231 17.231 0 003.154-3.316l.079-.114h.126l4.164.693-.229.138c.875-2.264 1.75-4.496 2.602-6.696l.079.261-3.47-2.444-.11-.073v-.138a17.95 17.95 0 000-4.643v-.13l.102-.074 3.423-2.55-.063.253-2.737-6.639.213.122-4.148.815h-.118l-.071-.098a17.37 17.37 0 00-3.209-3.258l-.095-.065v-.122c.237-1.475.457-2.9.678-4.301l.111.203-6.475-2.704.198-.057-2.366 3.576-.055.081h-.095a16.638 16.638 0 00-4.51 0h-.087l-.048-.073-2.468-3.543h.158l-6.435 2.802.055-.106c.292 1.719.529 3.12.734 4.293v.04a18.388 18.388 0 00-2.492 2.444l-.552.668a1.66 1.66 0 01-.181.22l.157-.244c.111-.155.276-.391.521-.693a17.056 17.056 0 012.468-2.443v.065c-.213-1.165-.465-2.574-.789-4.285v-.073h.071l6.411-2.86.095-.04.063.081c.789 1.092 1.577 2.249 2.484 3.528l-.134-.057a16.53 16.53 0 014.589-.066l-.149.066 2.365-3.593.071-.114.127.05 6.482 2.679.134.057v.147l-.663 4.3-.071-.187a17.423 17.423 0 013.289 3.324l-.182-.074 4.148-.814h.158l.063.146 2.744 6.639.063.155-.126.097-3.422 2.558.086-.203c.225 1.576.241 3.176.048 4.757l-.087-.204 3.47 2.444.142.097-.064.163-2.602 6.696-.063.163h-.166l-4.171-.692.205-.09a17.562 17.562 0 01-3.225 3.397l.079-.212c.26 1.466.52 2.932.788 4.284v.172l-.158.073-6.418 2.826-.158.074-.095-.147-2.594-3.56.197.09a16.8 16.8 0 01-4.605.049l.189-.09-2.366 3.584-.094.13-.15-.056-6.474-2.697-.142-.065v-.154c.236-1.5.465-2.965.678-4.301l.071.187a17.763 17.763 0 01-3.281-3.332l.174.066-4.156.773h-.134l-.055-.13-2.721-6.638-.047-.114.103-.074 3.43-2.55-.063.139a18.349 18.349 0 010-4.74l.055.13-3.478-2.477-.071-.049v-.081c1.073-2.72 1.964-4.969 2.642-6.68v-.048h.055l3.084.546.788.154.324.065z" fill="#E0E0E0"/><path d="M31.131 55.667H4.88v53.753H31.13V55.667zM60.506 55.667H32.14v53.753h28.365V55.667zM60.506 113.183H32.14v51.937h28.365v-51.937zM64.148 54.738H94.02V7.054h1.01v47.684h24.311V5.995H64.148v48.743zM119.34 55.667H95.029v53.753h24.311V55.667zM119.34 113.183H95.029v51.937h24.311v-51.937zM31.131 113.183H4.88v51.937H31.13v-51.937zM94.02 113.183H64.147v51.937H94.02v-51.937zM31.131 166.048H4.88v46.805H31.13v-46.805zM119.34 166.048H95.029v46.805h24.311v-46.805zM31.131 54.738V7.054h1.01v47.684h28.372V5.995H4.88v48.743H31.13zM94.02 166.048H64.147v46.805H94.02v-46.805zM60.506 166.048H32.14v46.805h28.365v-46.805zM94.02 55.667H64.147v53.753H94.02V55.667z" fill="#F5F5F5"/><path d="M131.161 254.844s-3.312-.253-3.004 7.428a92.537 92.537 0 001.064 11.779s-.102 1.702-1.38 1.369c-1.277-.334-3.674-1.996-4.865-.758-1.191 1.238-.789 3.258.844 5.58 1.632 2.321 5.023 7.543 5.33 8.015.308.472.418 1.336-.481 1.254-.899-.081-7.018-2.223-7.83.815-.812 3.038 4.771 8.748 5.37 9.384.599.635.623 1.042.386 1.425-.236.383-2.231-.537-3.998-1.075-1.766-.538-3.895-.815-4.218.969-.324 1.784 2.137 7.079 11.331 12.626l4.424 2.281 4.187-2.753c8.612-6.468 10.544-11.974 10.047-13.734-.497-1.759-2.587-1.246-4.29-.529-1.703.716-3.588 1.832-3.864 1.474-.276-.358-.292-.758.244-1.45.537-.692 5.52-6.94 4.432-9.897-1.088-2.957-6.979-.195-7.886 0-.906.196-.859-.7-.599-1.197.26-.497 3.154-6.052 4.527-8.529 1.372-2.476 1.64-4.48.291-5.637-1.348-1.156-3.525.815-4.731 1.255-1.207.44-1.506-1.222-1.506-1.222a91.218 91.218 0 00-.079-11.819c-.442-7.682-3.793-7.054-3.793-7.054" fill="#EBEBEB"/><path d="M131.43 261.719v.635c0 .423.071 1.026.126 1.808.095 1.58.229 3.861.378 6.68.308 5.636.655 13.424 1.026 22.034.37 8.609.693 16.397.969 22.042.135 2.81.253 5.091.332 6.671 0 .814.063 1.393.086 1.816v.473-.473c0-.415-.063-1.026-.118-1.808-.102-1.58-.229-3.861-.378-6.679-.308-5.637-.663-13.424-1.026-22.034-.362-8.61-.701-16.397-.969-22.034-.142-2.819-.253-5.099-.332-6.68-.039-.814-.063-1.393-.086-1.816v-.473c-.008-.053-.011-.108-.008-.162zM126.256 277.155c.103.064.196.144.276.236.174.163.41.399.702.701a66.176 66.176 0 012.216 2.394l2.169 2.444.654.741c.088.084.168.177.237.277 0 0-.111-.073-.284-.236-.174-.163-.41-.399-.694-.7a56.6 56.6 0 01-2.2-2.444c-.844-.986-1.577-1.776-2.185-2.444l-.662-.733a1.55 1.55 0 01-.229-.236zM132.936 283.769s1.577-1.784 3.611-3.91c2.035-2.126 3.706-3.82 3.738-3.788.032.033-1.577 1.784-3.612 3.91-2.034 2.126-3.706 3.82-3.737 3.788z" fill="#E0E0E0"/><path d="M132.92 297.014s.102-.081.307-.204l.868-.505c.725-.423 1.735-1.01 2.823-1.702a85.858 85.858 0 002.752-1.825l.828-.57c.097-.074.2-.139.308-.195a1.433 1.433 0 01-.276.252c-.182.147-.45.358-.789.611a40.45 40.45 0 01-2.736 1.874c-1.096.684-2.106 1.27-2.855 1.629-.378.195-.678.35-.891.448a1.579 1.579 0 01-.339.187zM125.586 292.379s.118.04.307.146l.789.456c.67.4 1.577.953 2.61 1.581a98.117 98.117 0 012.595 1.629l.788.505c.182.122.276.195.268.212l-.299-.155-.789-.456c-.678-.399-1.577-.953-2.618-1.581a83.22 83.22 0 01-2.586-1.629c-.332-.203-.592-.383-.789-.505a1.885 1.885 0 01-.276-.203zM124.135 304.035c.137.047.267.112.386.195l1.033.587c.868.497 2.058 1.205 3.367 1.987 1.309.782 2.484 1.516 3.336 2.037l1.001.635c.13.073.252.161.363.261a2.677 2.677 0 01-.394-.196l-1.025-.586a343.342 343.342 0 01-6.711-4.032l-1.001-.636a2.096 2.096 0 01-.355-.252zM133.432 309.566c.115-.106.242-.196.379-.269l1.08-.676c.907-.57 2.153-1.368 3.517-2.281a107.687 107.687 0 003.438-2.403l1.033-.741c.124-.097.256-.181.394-.252a2.26 2.26 0 01-.354.309c-.229.196-.576.464-1.002.815a72.032 72.032 0 01-3.422 2.443 72.581 72.581 0 01-3.549 2.24c-.457.269-.836.489-1.104.628a2.968 2.968 0 01-.41.187zM140.08 317.451h-12.239l3.99 31.239h4.251l3.998-31.239z" fill="#E0E0E0"/><path d="M128.472 321.287a.359.359 0 00.063.115.79.79 0 00.3.219 1.446 1.446 0 001.293-.162 9.294 9.294 0 011.577-1.084 3.35 3.35 0 012.248.049c.738.26 1.443.613 2.097 1.051.548.352 1.117.668 1.704.945.402.184.826.31 1.261.374h.481a6.14 6.14 0 01-1.679-.521 15.822 15.822 0 01-1.672-.969 9.289 9.289 0 00-2.129-1.084 3.508 3.508 0 00-2.366 0 3.116 3.116 0 00-.899.579 7.23 7.23 0 01-.694.554 1.426 1.426 0 01-1.198.22 1.306 1.306 0 01-.387-.286zM128.922 327.047s.095-.131.284-.334c.277-.285.611-.505.978-.644a4.324 4.324 0 011.703-.269c.714.06 1.425.16 2.129.302a7.148 7.148 0 002.184.097 5.95 5.95 0 001.712-.505 5.525 5.525 0 001.033-.635c.125-.085.237-.189.331-.309a10.36 10.36 0 01-1.42.814 6.222 6.222 0 01-1.679.456 7.384 7.384 0 01-2.129-.114 16.609 16.609 0 00-2.153-.285 4.25 4.25 0 00-1.759.318c-.38.155-.719.404-.985.725-.069.086-.13.179-.182.277-.039.065-.055.097-.047.106zM138.692 330.101a.988.988 0 00-.339-.179 3.477 3.477 0 00-1.009-.228 6.39 6.39 0 00-1.538.09c-.568.097-1.183.26-1.822.399a7.416 7.416 0 01-1.829.211 3.888 3.888 0 01-1.443-.317 3.222 3.222 0 01-1.096-.815.929.929 0 00.205.334c.222.263.489.481.788.644.47.228.98.358 1.499.383a7.318 7.318 0 001.876-.204c.647-.147 1.254-.31 1.814-.416a6.855 6.855 0 011.498-.13 5.9 5.9 0 011.396.228zM130.002 334.459c.375-.17.792-.212 1.191-.122.429.108.844.266 1.238.472.495.25 1.029.407 1.577.464a4.771 4.771 0 002.926-.7c.262-.167.508-.361.733-.579.085-.077.156-.168.213-.268-.325.259-.664.499-1.017.716a4.885 4.885 0 01-2.839.628c-1.159-.074-2.05-.815-2.847-.88a1.786 1.786 0 00-.93.081c-.166.082-.252.18-.245.188zM130.68 340.454c.353.007.703-.065 1.025-.212.615-.211 1.372-.7 2.263-1.067a3.767 3.767 0 011.302-.277c.363 0 .721.083 1.048.245.308.163.577.394.789.676 0 0 0-.106-.118-.269a1.752 1.752 0 00-.576-.538 2.317 2.317 0 00-1.112-.301 3.413 3.413 0 00-1.372.277c-.923.375-1.656.88-2.247 1.116-.592.236-1.002.318-1.002.35zM131.28 343.24c.25.124.515.212.788.261.636.162 1.281.276 1.932.342.653.064 1.309.083 1.964.057.266.003.531-.03.788-.098 0-.065-1.238 0-2.752-.171-1.514-.171-2.704-.448-2.72-.391z" fill="#F5F5F5"/><path d="M495.211 349.789c0 .122-109.059.211-243.565.211s-243.58-.089-243.58-.211 109.035-.212 243.58-.212c134.545 0 243.565.074 243.565.212z" fill="#263238"/><path d="M254.65 230.773h-6.285v119.016h6.285V230.773z" fill="#263238"/><path d="M205.996 349.789l43.86-43.571 3.146 2.9-40.863 40.671h-6.143z" fill="#263238"/><path d="M296.799 349.691l-43.773-43.473-3.139 2.9 40.856 40.671 6.056-.098z" fill="#263238"/><path d="M393.919 37.836H110.776v213.187h283.143V37.836z" fill="#fff"/><path d="M393.919 251.015c0-1.425-.071-83.9-.174-213.179l.174.171H110.823l.205-.212v213.18l-.189-.188 283.143.188-283.143.195h-.189v-.195V37.584h283.49v.17c-.158 129.337-.221 211.844-.221 213.261z" fill="#263238"/><path d="M146.956 60.082h-2.366v-.644h5.52v.644h-2.366v6.402h-.717l-.071-6.402zM150.52 62.925a3.789 3.789 0 01.549-2.085 3.617 3.617 0 011.583-1.412 3.477 3.477 0 012.077-.258c.701.13 1.349.473 1.861.985s.864 1.17 1.011 1.891a3.8 3.8 0 01-.184 2.152 3.673 3.673 0 01-1.317 1.679 3.5 3.5 0 01-2 .632 3.337 3.337 0 01-1.368-.228 3.418 3.418 0 01-1.169-.768 3.549 3.549 0 01-.78-1.183 3.647 3.647 0 01-.263-1.405zm6.435 0a3.028 3.028 0 00-.464-1.655 2.89 2.89 0 00-1.277-1.107 2.779 2.779 0 00-1.658-.183c-.558.11-1.072.389-1.476.802-.404.412-.68.94-.793 1.515a3.043 3.043 0 00.16 1.714 2.93 2.93 0 001.057 1.332 2.795 2.795 0 001.596.498c.376.012.75-.055 1.099-.197.35-.142.668-.355.935-.628s.478-.599.619-.959c.141-.36.21-.745.202-1.132zM161.843 59.438h2.776c2.176 0 3.651 1.45 3.651 3.52 0 2.068-1.475 3.526-3.651 3.526h-2.776V59.44zm2.737 6.403c.378.02.757-.038 1.113-.174.355-.135.681-.344.956-.613.275-.27.494-.594.644-.954a2.977 2.977 0 000-2.277 2.892 2.892 0 00-.644-.954 2.785 2.785 0 00-.956-.614 2.713 2.713 0 00-1.113-.173h-2.051v5.759h2.051zM169.288 62.925a3.789 3.789 0 01.549-2.085 3.617 3.617 0 011.583-1.412 3.477 3.477 0 012.077-.258 3.54 3.54 0 011.861.985c.512.512.864 1.17 1.011 1.891a3.8 3.8 0 01-.184 2.152 3.673 3.673 0 01-1.317 1.679 3.498 3.498 0 01-2 .632 3.337 3.337 0 01-1.368-.228 3.418 3.418 0 01-1.169-.768 3.564 3.564 0 01-.78-1.183 3.666 3.666 0 01-.263-1.405zm6.435 0a3.028 3.028 0 00-.464-1.655 2.885 2.885 0 00-1.277-1.107 2.779 2.779 0 00-1.658-.183c-.558.11-1.072.389-1.476.802-.404.412-.68.94-.793 1.515a3.043 3.043 0 00.16 1.714 2.93 2.93 0 001.057 1.332 2.797 2.797 0 001.596.498c.376.012.75-.055 1.099-.197.35-.142.668-.355.935-.628s.478-.599.619-.959c.141-.36.21-.745.202-1.132zM246.907 59.438l-2.295 7.046h-.789l-1.995-6.003-2.019 6.003h-.749l-2.294-7.045h.741l1.963 6.06 2.035-6.06h.67l2.011 6.084 1.995-6.084h.726zM247.537 62.925a3.797 3.797 0 01.549-2.085 3.617 3.617 0 011.583-1.412 3.477 3.477 0 012.077-.258 3.54 3.54 0 011.861.985c.512.512.864 1.17 1.012 1.891a3.81 3.81 0 01-.185 2.152 3.673 3.673 0 01-1.317 1.679 3.498 3.498 0 01-2 .632 3.337 3.337 0 01-1.368-.228 3.418 3.418 0 01-1.169-.768 3.564 3.564 0 01-.78-1.183 3.666 3.666 0 01-.263-1.405zm6.435 0a3.028 3.028 0 00-.464-1.655 2.885 2.885 0 00-1.277-1.107 2.779 2.779 0 00-1.658-.183c-.558.11-1.072.389-1.476.802-.404.412-.68.94-.793 1.515a3.051 3.051 0 00.16 1.714 2.93 2.93 0 001.057 1.332 2.797 2.797 0 001.596.498c.379.018.757-.045 1.11-.184.354-.14.677-.353.947-.626.271-.274.484-.602.627-.964a2.93 2.93 0 00.203-1.142h-.032zM260.967 66.485l-1.577-2.265h-2.374v2.24h-.717v-7.046h2.547c1.735 0 2.784.904 2.784 2.444.021.499-.124.99-.411 1.392-.287.401-.699.69-1.167.815l1.664 2.444-.749-.024zm-.039-4.627c0-1.132-.726-1.776-2.082-1.776h-1.814v3.535h1.814c1.356 0 2.082-.692 2.082-1.76zM265.461 63.17l-1.387 1.457v1.857h-.718V59.44h.718v4.3l3.998-4.26h.828l-2.95 3.193 3.155 3.853h-.852l-2.792-3.356zM322.696 59.438h2.776c2.184 0 3.651 1.45 3.651 3.52 0 2.068-1.467 3.526-3.651 3.526h-2.776V59.44zm2.736 6.403a2.71 2.71 0 001.113-.174c.356-.135.681-.344.956-.613.275-.27.494-.594.644-.954a2.96 2.96 0 00-.644-3.231c-.275-.27-.6-.478-.956-.614a2.71 2.71 0 00-1.113-.173h-2.034v5.759h2.034zM330.14 62.925a3.789 3.789 0 01.549-2.085 3.617 3.617 0 011.583-1.412 3.475 3.475 0 012.076-.258c.702.13 1.35.473 1.862.985s.864 1.17 1.011 1.891c.147.72.083 1.47-.184 2.152a3.68 3.68 0 01-1.317 1.679 3.5 3.5 0 01-2 .632 3.334 3.334 0 01-1.368-.228 3.418 3.418 0 01-1.169-.768 3.533 3.533 0 01-.78-1.183 3.647 3.647 0 01-.263-1.405zm6.435 0a3.037 3.037 0 00-.464-1.655 2.888 2.888 0 00-1.278-1.107 2.778 2.778 0 00-1.658-.183c-.558.11-1.071.389-1.475.802-.404.412-.68.94-.793 1.515a3.051 3.051 0 00.159 1.714 2.94 2.94 0 001.058 1.332 2.795 2.795 0 001.596.498 2.68 2.68 0 001.1-.194c.35-.142.669-.355.936-.628s.478-.6.619-.96c.14-.36.208-.746.2-1.134zM344.61 59.438v7.046h-.591l-4.385-5.701v5.701h-.717V59.44h.591l4.392 5.701v-5.702h.71zM351.652 65.84v.644h-4.818V59.44h4.676v.643h-3.943v2.509h3.525v.635h-3.525v2.615h4.085zM383.329 86.172c0 .114-57.306.211-127.977.211s-127.984-.097-127.984-.211c0-.114 57.289-.212 127.984-.212s127.977.098 127.977.212z" fill="#263238"/><path d="M206.689 251.015c-.11 0-.205-45.778-.205-102.235 0-56.458.095-102.252.205-102.252.111 0 .205 45.77.205 102.252 0 56.481-.094 102.235-.205 102.235zM300.608 251.015c-.118 0-.205-45.778-.205-102.235 0-56.458.087-102.252.205-102.252s.205 45.77.205 102.252c0 56.481-.095 102.235-.205 102.235z" fill="#263238"/><path d="M160.116 94.22s-1.979 18.645.56 28.852l24.115-1.092s-5.165-18.384-1.995-26.53l-22.68-1.23zM128.259 104.467s-1.972 18.646.567 28.852l24.107-1.091s-5.165-18.393-1.987-26.539l-22.687-1.222z" fill="#E0E0E0"/><path d="M160.117 94.22s.165 20.128 1.151 26.27l24.446-1.198s-2.145-19.785-1.317-25.072h-24.28z" fill="#455A64"/><path d="M172.15 97.071h.355c.34-.012.681.007 1.017.057a5.388 5.388 0 011.578.473 5.15 5.15 0 011.695 1.384 6.195 6.195 0 011.167 2.444 6.01 6.01 0 01-.252 3.12 9.81 9.81 0 01-.686 1.564 15.914 15.914 0 00-.789 1.572 13.874 13.874 0 00-.986 3.584v.081H172.734l-2.531.041h-.095v-.089a7.574 7.574 0 00-1.175-3.454c-.292-.513-.615-1.002-.915-1.491a15.97 15.97 0 01-.859-1.45 5.035 5.035 0 01-.379-3.071c.14-.897.459-1.754.939-2.517a4.668 4.668 0 011.577-1.474 5.523 5.523 0 011.498-.603c.33-.08.664-.137 1.001-.17h.261-.261c-.332.04-.662.105-.985.195a6.278 6.278 0 00-1.467.619c-.614.36-1.14.862-1.538 1.466a6.573 6.573 0 00-.899 2.444 4.823 4.823 0 00.387 2.973c.258.491.542.967.851 1.425.3.489.623.978.923 1.499a7.741 7.741 0 011.207 3.535l-.095-.089 2.531-.041 2.413-.041-.087.082a13.748 13.748 0 011.01-3.633 15.75 15.75 0 01.788-1.589c.267-.461.494-.947.679-1.45a5.891 5.891 0 00.268-3.038 5.948 5.948 0 00-1.128-2.378 4.964 4.964 0 00-1.632-1.377 5.693 5.693 0 00-1.522-.497 5.918 5.918 0 00-1.01-.081h-.354l.015-.025z" fill="#fff"/><path d="M173.404 111.09a.561.561 0 010-.082v-.228c0-.212-.079-.513-.134-.904-.111-.814-.276-1.914-.387-3.331 0-.351-.047-.725-.063-1.108-.015-.383 0-.815 0-1.206.016-.435.109-.863.276-1.262.186-.43.521-.773.939-.962a1.193 1.193 0 011.325.261.941.941 0 01.283.684 1.244 1.244 0 01-.244.725c-.156.21-.359.378-.591.489-.23.117-.474.202-.726.253a8.718 8.718 0 01-1.577.187 8.848 8.848 0 01-1.577-.082 2.668 2.668 0 01-.741-.219 1.998 1.998 0 01-.616-.449 1.583 1.583 0 01-.354-.676 1.213 1.213 0 01.086-.749c.103-.231.286-.414.513-.513a.852.852 0 01.694 0c.208.104.387.261.52.456.126.19.214.403.261.627.075.425.117.855.126 1.287.039.815.079 1.629.118 2.314a590.7 590.7 0 00.158 3.347c0 .391 0 .701.039.913.04.212 0 .179 0 .236v.081a.275.275 0 010-.081v-.236c0-.212 0-.513-.055-.913l-.189-3.339c-.04-.709-.079-1.483-.126-2.314a8.995 8.995 0 00-.127-1.279 1.817 1.817 0 00-.252-.602 1.327 1.327 0 00-.489-.432.824.824 0 00-.639 0 .922.922 0 00-.473.481 1.124 1.124 0 00-.087.7c.058.239.174.458.34.635.352.364.814.594 1.309.652.509.07 1.024.094 1.537.073a8.657 8.657 0 001.53-.179c.245-.052.483-.134.71-.244.219-.108.41-.267.56-.464.146-.197.228-.437.236-.685a.916.916 0 00-.26-.635 1.175 1.175 0 00-.593-.31 1.143 1.143 0 00-.661.066c-.4.184-.72.515-.899.928a3.4 3.4 0 00-.276 1.23v1.206c0 .391 0 .749.055 1.108.103 1.409.261 2.541.355 3.331.055.383.095.692.126.896v.236a.689.689 0 01.04.082z" fill="#fff"/><path d="M170.187 111.22c.034.27.055.542.063.815 0 .611.071 1.344.11 2.191v-.057l1.641 1.963h-.087l1.908-.106-.087.041c.308-.391.623-.815.955-1.198l.473-.594v.073c0-1.149-.055-2.24-.079-3.258l.11.098-3.556.04h-1.025a2.085 2.085 0 01-.387 0c.113-.01.227-.01.339 0l1.002-.049 3.58-.195h.103v.106c0 .994.063 2.085.094 3.258v.049l-.473.595-.954 1.197h-.047l-1.901.098h-.055l-1.617-1.988v-2.248c-.126-.562-.118-.839-.11-.831z" fill="#fff"/><path d="M175.1 114.071l-.182-.082a4.648 4.648 0 00-.496-.203 4.803 4.803 0 00-1.72-.269 4.6 4.6 0 00-1.695.375 4.653 4.653 0 00-.481.236l-.173.089s.055-.048.157-.114c.152-.097.31-.184.473-.26a4.502 4.502 0 011.719-.408 4.537 4.537 0 011.743.302c.205.081.371.163.489.22a.69.69 0 01.166.114zM175.1 113.281s-.071 0-.182-.082c-.11-.081-.284-.122-.496-.195a4.595 4.595 0 00-3.415.106l-.481.228-.173.089.157-.114a4.38 4.38 0 01.473-.252 4.452 4.452 0 013.454-.114c.169.062.332.139.489.228l.174.106z" fill="#fff"/><path d="M175.052 112.532l-.181-.074a4.724 4.724 0 00-4.392.139l-.174.089.158-.122c.156-.093.316-.177.481-.252a4.44 4.44 0 011.711-.408 4.537 4.537 0 011.743.294c.213.089.378.171.489.228l.165.106z" fill="#fff"/><path d="M128.077 104.467s.166 20.128 1.151 26.27l24.446-1.197s-2.184-19.754-1.325-25.073h-24.272z" fill="#5BBD81"/><path d="M148.666 112.955c0 .114-3.659.44-8.185.717-4.526.277-8.209.415-8.217.301-.008-.114 3.659-.44 8.193-.725 4.535-.285 8.201-.407 8.209-.293zM148.675 117.215a78.221 78.221 0 01-8.186.725 78.525 78.525 0 01-8.217.293c0-.114 3.659-.439 8.186-.716 4.526-.277 8.209-.416 8.217-.302zM144.519 121.402a26.463 26.463 0 01-4.661.505 25.717 25.717 0 01-4.684.074 25.99 25.99 0 014.661-.497 26.175 26.175 0 014.684-.082z" fill="#fff"/><path d="M173.523 126.257s-1.972 18.645.568 28.852l24.114-1.092s-5.173-18.393-1.995-26.538l-22.687-1.222z" fill="#EBEBEB"/><path d="M173.617 125.646s.166 20.128 1.159 26.27l24.446-1.19s-2.145-19.785-1.317-25.08h-24.288z" fill="#5BBD81"/><path d="M194.206 134.109a78.202 78.202 0 01-8.185.725c-2.73.241-5.47.339-8.209.293 0-.114 3.659-.439 8.185-.716 4.527-.277 8.209-.416 8.209-.302zM194.214 138.378c0 .114-3.659.439-8.185.716-4.527.277-8.201.416-8.209.302a78.226 78.226 0 018.185-.725c2.73-.241 5.47-.339 8.209-.293zM190.067 142.564c-1.538.3-3.097.467-4.661.497a26.175 26.175 0 01-4.684.082 25.367 25.367 0 014.661-.505 24.849 24.849 0 014.684-.074z" fill="#fff"/><path d="M168.523 204.381s-1.979 18.646.56 28.852l24.114-1.091s-5.165-18.385-1.995-26.531l-22.679-1.23z" fill="#EBEBEB"/><path d="M168.617 203.787s.166 20.128 1.159 26.261l24.446-1.189s-2.153-19.786-1.325-25.072h-24.28z" fill="#5BBD81"/><path d="M189.207 212.242c0 .114-3.659.44-8.185.717-4.527.277-8.209.415-8.217.301a78.9 78.9 0 018.193-.725 78.646 78.646 0 018.209-.293zM189.215 216.502c0 .114-3.659.44-8.185.725-4.527.285-8.209.407-8.217.293-.008-.114 3.659-.439 8.193-.716 4.534-.277 8.201-.416 8.209-.302zM185.059 220.689a25.978 25.978 0 01-4.66.497 26.269 26.269 0 01-4.684.082 26.452 26.452 0 014.66-.505 25.72 25.72 0 014.684-.074z" fill="#fff"/><path d="M134.623 189.304s-1.971 18.645.568 28.852l24.114-1.092s-5.165-18.384-1.995-26.53l-22.687-1.23z" fill="#EBEBEB"/><path d="M134.725 188.71s.165 20.127 1.151 26.269l24.446-1.197s-2.145-19.786-1.317-25.072h-24.28z" fill="#5BBD81"/><path d="M155.314 197.165c0 .114-3.659.439-8.193.716-4.534.277-8.201.416-8.209.302a78.226 78.226 0 018.185-.725 78.535 78.535 0 018.217-.293zM155.322 201.4c0 .114-3.667.44-8.193.725-2.73.241-5.47.339-8.209.293 0-.114 3.659-.439 8.185-.716 4.527-.277 8.209-.391 8.217-.302zM151.166 205.612a26.642 26.642 0 01-4.66.505 25.808 25.808 0 01-4.684.073 26.07 26.07 0 014.66-.497 26.177 26.177 0 014.684-.081z" fill="#fff"/><path d="M260.359 192.082s-1.971 18.645.568 28.852l24.107-1.092s-5.166-18.384-1.988-26.538l-22.687-1.222z" fill="#EBEBEB"/><path d="M260.454 191.487s.166 20.12 1.159 26.262l24.446-1.19s-2.145-19.785-1.325-25.072h-24.28z" fill="#5BBD81"/><path d="M281.044 199.934a78.765 78.765 0 01-8.186.725c-4.526.285-8.201.415-8.209.301a78.765 78.765 0 018.186-.725c4.526-.285 8.201-.415 8.209-.301zM281.051 204.202c0 .114-3.659.44-8.185.717-4.527.277-8.209.415-8.217.301-.008-.114 3.659-.439 8.193-.725 2.73-.24 5.47-.338 8.209-.293zM276.872 208.389a25.978 25.978 0 01-4.66.497 26.175 26.175 0 01-4.684.081 26.652 26.652 0 014.66-.505 25.718 25.718 0 014.684-.073z" fill="#fff"/><path d="M169.019 145.937s-2.46 18.588-7.31 27.85l-23.144-7.087s9.329-16.552 8.154-25.252l22.3 4.489z" fill="#EBEBEB"/><path d="M169.067 145.334s-4.881 19.484-7.279 25.194l-23.436-7.266s6.727-18.661 7.16-23.997l23.555 6.069z" fill="#455A64"/><path d="M147.105 148.388a79.915 79.915 0 017.886 2.338 79.22 79.22 0 017.775 2.753c0 .106-3.564-.936-7.885-2.345a79.192 79.192 0 01-7.776-2.746zM146.096 152.526c.039-.105 3.572.937 7.886 2.346 4.313 1.41 7.806 2.64 7.775 2.745-.032.106-3.572-.936-7.886-2.337-4.313-1.401-7.807-2.648-7.775-2.754zM149.125 157.626c1.542.274 3.056.691 4.526 1.246 1.511.405 2.984.95 4.4 1.629a26.784 26.784 0 01-4.526-1.254 27.32 27.32 0 01-4.4-1.621z" fill="#fff"/><path d="M194.317 165.559s1.979 18.646-.56 28.852l-24.13-1.156s5.165-18.393 1.995-26.539l22.695-1.157z" fill="#EBEBEB"/><path d="M169.627 161.161s-1.648 22.335-2.973 26.603l21.962 2.387 3.304-3.258s2.145-16.373 1.814-21.659l-24.107-4.073z" fill="#455A64"/><path d="M189.128 186.738l-.497 3.413 3.304-3.242-2.807-.171z" fill="#263238"/><path d="M189.341 173.037a16.55 16.55 0 01-2.46-.293l-5.915-.863-5.922-.766a16.265 16.265 0 01-2.452-.375c.828-.05 1.66-.022 2.484.082 1.522.114 3.635.325 5.946.643a101.2 101.2 0 015.906.978c.82.12 1.628.319 2.413.594zM188.419 177.696c-.79.05-1.582.022-2.366-.081a108.16 108.16 0 01-5.702-.595 105.974 105.974 0 01-5.669-.887 13.687 13.687 0 01-2.319-.53 12.79 12.79 0 012.366.236l5.67.758 5.677.725c.79.056 1.574.181 2.343.374zM187.046 181.981a63.557 63.557 0 01-7.381-.814 65.53 65.53 0 01-7.333-1.23c2.475.131 4.942.403 7.388.814 2.462.276 4.907.686 7.326 1.23z" fill="#fff"/><path d="M372.36 189.182s1.979 18.637-.56 28.852l-24.114-1.092s5.165-18.393 1.995-26.538l22.679-1.222z" fill="#EBEBEB"/><path d="M347.686 184.824s-1.648 22.335-2.973 26.595l21.961 2.387 3.305-3.258s2.144-16.381 1.813-21.668l-24.106-4.056z" fill="#455A64"/><path d="M367.171 210.401l-.497 3.413 3.304-3.242-2.807-.171z" fill="#263238"/><path d="M367.415 196.7a16.175 16.175 0 01-2.46-.301l-5.907-.855-5.93-.766a13.952 13.952 0 01-2.444-.383c.826-.05 1.655-.022 2.476.082 1.53.114 3.635.325 5.946.643 2.31.318 4.408.684 5.906.986.821.119 1.629.318 2.413.594zM366.461 201.4c-.789.049-1.581.022-2.366-.081a110.35 110.35 0 01-5.701-.603 114.573 114.573 0 01-5.67-.88 12.24 12.24 0 01-2.318-.537c.793.015 1.584.094 2.365.236l5.678.765 5.678.717a12.93 12.93 0 012.334.383zM365.089 205.644a129.664 129.664 0 01-14.714-2.036c2.475.127 4.942.399 7.388.814 2.462.268 4.908.676 7.326 1.222z" fill="#fff"/><path d="M343.522 94.18s1.971 18.637-.568 28.843l-24.114-1.083s5.165-18.393 1.995-26.539l22.687-1.222z" fill="#EBEBEB"/><path d="M318.84 89.805s-1.649 22.344-2.965 26.604l21.953 2.386 3.304-3.258s2.145-16.373 1.822-21.659l-24.114-4.073z" fill="#455A64"/><path d="M338.325 115.391l-.489 3.413 3.297-3.242-2.808-.171z" fill="#263238"/><path d="M338.577 101.69a14.24 14.24 0 01-2.468-.294l-5.906-.814-5.922-.766a15.08 15.08 0 01-2.453-.383 13.34 13.34 0 012.476.082c1.53.114 3.636.326 5.954.643 2.318.318 4.4.685 5.906.986.818.114 1.625.296 2.413.546zM337.592 106.349c-.789.05-1.581.025-2.366-.073a120.895 120.895 0 01-5.701-.603 104.038 104.038 0 01-5.662-.88 12.098 12.098 0 01-2.319-.537c.794.015 1.585.094 2.366.236l5.678.757 5.678.725c.783.062 1.561.187 2.326.375zM336.243 110.642a64.668 64.668 0 01-7.381-.815 63.146 63.146 0 01-7.325-1.23c2.472.135 4.936.407 7.381.815 2.462.271 4.907.681 7.325 1.23z" fill="#fff"/><path d="M250.715 102.301s1.972 18.645-.567 28.851l-24.115-1.091s5.165-18.393 1.995-26.539l22.687-1.221z" fill="#EBEBEB"/><path d="M226.033 97.95s-1.648 22.336-2.965 26.596l21.954 2.395 3.304-3.258s2.152-16.373 1.821-21.667l-24.114-4.065z" fill="#455A64"/><path d="M245.519 123.52l-.489 3.413 3.296-3.242-2.807-.171z" fill="#263238"/><path d="M245.771 109.819a16.671 16.671 0 01-2.468-.293l-5.906-.864-5.923-.765a15.893 15.893 0 01-2.452-.375 12.499 12.499 0 012.476.081c1.53.115 3.635.326 5.954.644 2.318.318 4.4.676 5.906.977.82.122 1.628.321 2.413.595zM244.809 114.478c-.789.05-1.581.022-2.366-.081a102.88 102.88 0 01-5.701-.603 112.577 112.577 0 01-5.662-.88 12.07 12.07 0 01-2.318-.537c.793.016 1.584.098 2.365.244l5.678.758 5.678.716c.785.057 1.563.185 2.326.383zM243.437 118.763a63.295 63.295 0 01-7.381-.815 65.181 65.181 0 01-7.326-1.23c2.473.132 4.937.404 7.381.815 2.462.271 4.908.681 7.326 1.23z" fill="#fff"/><path d="M218.353 139.119l1.9 45.583 55.081.684-2.468-45.664-54.513-.603z" fill="#EBEBEB"/><path d="M272.433 138.793h-54.719v42.683h54.719v-42.683z" fill="#fff"/><path d="M272.432 181.468v-.815-2.28c0-2.004 0-4.888-.039-8.635 0-7.445-.055-18.091-.087-30.953l.166.171-54.743.049.205-.212v42.675l-.189-.187 39.428.097 11.222.049h4.029a1.243 1.243 0 01-.244 0h-3.738l-11.182.049-39.586.098h-.181v-.196V138.492H272.606v.179c0 12.927-.063 23.622-.087 31.075 0 3.707 0 6.607-.04 8.602v2.248c-.031.628-.047.872-.047.872z" fill="#263238"/><path d="M246.497 147.835h-22.183v28.835h22.183v-28.835z" fill="#fff"/><path d="M246.497 176.67a1.202 1.202 0 010-.147v-.415-1.572c0-1.401 0-3.397-.055-5.922 0-5.075-.056-12.259-.087-20.78l.181.188h-22.182l.205-.212V176.637l-.174-.179 16.056.098h5.701c.142-.012.284-.012.426 0a1.925 1.925 0 01-.387 0h-1.167l-4.463.041-16.166.097h-.165v-.179-13.505-15.322l.205-.212h22.363v.187c0 8.578-.063 15.795-.086 20.902 0 2.509-.04 4.488-.055 5.881v1.54c-.03.232-.081.461-.15.684z" fill="#263238"/><path d="M267.677 141.237h-42.511v4.154h42.511v-4.154z" fill="#fff"/><path d="M267.677 145.391c-.01-.095-.01-.19 0-.285v-.815c0-.725 0-1.751-.047-3.062l.087.081c-7.176.073-23.515.13-42.512.13l.205-.211v4.138l-.205-.212 30.123.089 9.045.065h3.344H264.476l-8.998.066-30.273.089H225v-4.349c.087-.098-.205.211.205-.212 18.997 0 35.336.049 42.512.122h.079v.09c0 1.335 0 2.37-.048 3.111v.815c-.063.268-.071.358-.071.35z" fill="#263238"/><path d="M267.669 147.835h-18.46v17.382h18.46v-17.382z" fill="#fff"/><path d="M267.678 165.209a1.694 1.694 0 010-.334v-.945c0-.855 0-2.044-.048-3.543 0-3.063-.055-7.38-.094-12.552l.181.179h-18.46c-.048.041.386-.399.197-.212v17.358l-.182-.179 13.319.09 3.778.049H267.741a1.595 1.595 0 01-.324 0h-.977l-3.738.049-13.406.089h-.173v-.187-12.544-4.652c-.182.188.252-.26.213-.211h18.633v.179l-.094 12.666c0 1.483 0 2.656-.04 3.503v.912c0 .236-.157.293-.157.285z" fill="#263238"/><path d="M267.669 167.938h-18.46v8.732h18.46v-8.732z" fill="#fff"/><path d="M267.677 176.67a3.96 3.96 0 010-.635c0-.448 0-1.026-.039-1.76 0-1.539-.047-3.698-.079-6.337l.15.155-18.461.057c-.189.187.245-.261.198-.212V176.654l-.198-.204 13.201.098 3.848.057h1.42c-.11.011-.221.011-.332 0h-1.001l-3.801.057-13.335.098h-.189v-.204-4.227V167.84c-.039.049.394-.399.213-.211l18.46.057h.15v.154c0 2.68-.063 4.888-.086 6.435v1.719a5.899 5.899 0 01-.119.676z" fill="#263238"/><path d="M245.945 147.884c-6.861 9.774-14.762 18.987-21.631 28.786l21.631-28.786z" fill="#fff"/><path d="M224.314 176.67c.23-.424.494-.827.789-1.205.505-.758 1.262-1.841 2.216-3.169 1.9-2.647 4.629-6.231 7.681-10.149 3.051-3.919 5.819-7.478 7.775-10.077l2.318-3.079c.267-.391.563-.762.883-1.107a8.943 8.943 0 01-.749 1.205 163.81 163.81 0 01-2.216 3.169c-1.908 2.647-4.636 6.231-7.688 10.149-3.052 3.918-5.812 7.47-7.775 10.076l-2.319 3.079c-.274.396-.58.766-.915 1.108z" fill="#263238"/><path d="M246.497 176.67c-.087.073-5.126-6.321-11.253-14.288-6.127-7.966-11.04-14.474-10.93-14.548.111-.073 5.126 6.321 11.253 14.288 6.127 7.966 11.016 14.475 10.93 14.548z" fill="#263238"/><path d="M216.783 151.476c1.916 0 3.47-1.605 3.47-3.584 0-1.98-1.554-3.584-3.47-3.584-1.916 0-3.47 1.604-3.47 3.584 0 1.979 1.554 3.584 3.47 3.584z" fill="#5BBD81"/><path d="M216.783 151.5a3.404 3.404 0 01-1.942-.604 3.586 3.586 0 01-1.291-1.618 3.722 3.722 0 01-.202-2.085 3.64 3.64 0 01.955-1.85 3.462 3.462 0 011.788-.99 3.39 3.39 0 012.02.204 3.527 3.527 0 011.569 1.329 3.697 3.697 0 01-.434 4.552 3.445 3.445 0 01-2.463 1.062zm0-7.168a3.375 3.375 0 00-1.921.598 3.533 3.533 0 00-1.276 1.601 3.68 3.68 0 00-.198 2.063 3.61 3.61 0 00.945 1.829c.484.499 1.1.839 1.771.976.67.138 1.366.067 1.997-.205a3.483 3.483 0 001.55-1.317c.379-.588.58-1.279.579-1.985a3.631 3.631 0 00-1.012-2.515 3.4 3.4 0 00-2.435-1.045z" fill="#263238"/><path d="M273.537 142.776c1.916 0 3.469-1.604 3.469-3.584 0-1.979-1.553-3.584-3.469-3.584-1.917 0-3.47 1.605-3.47 3.584 0 1.98 1.553 3.584 3.47 3.584z" fill="#5BBD81"/><path d="M273.536 142.801a3.414 3.414 0 01-1.94-.608 3.587 3.587 0 01-1.287-1.62 3.712 3.712 0 01-.199-2.085c.135-.7.468-1.343.956-1.847a3.458 3.458 0 011.789-.988 3.392 3.392 0 012.018.205 3.52 3.52 0 011.568 1.329c.384.594.589 1.291.589 2.005 0 .957-.368 1.875-1.023 2.552a3.443 3.443 0 01-2.471 1.057zm0-7.169c-.683 0-1.351.21-1.919.602a3.54 3.54 0 00-1.272 1.603 3.668 3.668 0 00-.196 2.062c.134.693.464 1.328.948 1.827.484.499 1.1.838 1.77.975a3.362 3.362 0 001.997-.207 3.484 3.484 0 001.548-1.317c.379-.588.58-1.279.578-1.985 0-.468-.089-.932-.263-1.364a3.564 3.564 0 00-.749-1.156 3.458 3.458 0 00-1.12-.771 3.36 3.36 0 00-1.322-.269z" fill="#263238"/><path d="M292.848 122.469l-16.339 8.683-7.893-1.156 4.226-7.739 17.231-6.272 2.775 6.484z" fill="#EBEBEB"/><path d="M267.938 128.399l3.998-6.655 17.703-6.638 3.556 7.225-17.159 7.078-8.098-1.01z" fill="#455A64"/><path d="M287.644 119.398a9.86 9.86 0 01-1.711.815 249.943 249.943 0 01-4.227 1.71l-4.25 1.629c-1.081.408-1.79.652-1.751.628-.134-.171 2.555-1.361 5.851-2.664 3.296-1.303 6.048-2.248 6.088-2.118zM284.884 122.673a15.462 15.462 0 01-3.809 1.865c-1.298.579-2.667.97-4.069 1.165a169.864 169.864 0 017.886-3.03h-.008z" fill="#fff"/><path d="M316.845 129.108l5.977 32.607 59.679-11.673-10.37-31.752-55.286 10.818z" fill="#EBEBEB"/><path d="M372.128 118.289l-56.529 11.055 5.295 28.893 56.53-11.055-5.296-28.893z" fill="#fff"/><path d="M377.422 147.183l-.11-.521c-.071-.359-.166-.864-.292-1.507-.252-1.336-.623-3.259-1.096-5.767-.93-4.994-2.279-12.219-3.943-21.065l.182.122-56.517 11.111.166-.253c1.853 10.191 3.643 19.965 5.275 28.925l-.229-.162 40.596-7.837 11.726-2.24 3.154-.594.789-.147.284-.041-.253.066-.788.163-3.092.635-11.662 2.338-40.691 8.048-.189.04v-.195l-5.307-28.893-.039-.203.205-.041 56.532-11.005h.15v.155c1.577 8.919 2.902 16.161 3.801 21.179.434 2.484.788 4.414 1.017 5.742.111.644.189 1.141.252 1.491.064.35.079.456.079.456z" fill="#263238"/><path d="M338.024 131.562l-15.628 3.057 2.959 16.142 15.628-3.056-2.959-16.143z" fill="#fff"/><path d="M340.983 147.704a2.187 2.187 0 01-.079-.309c-.047-.228-.103-.522-.181-.88-.158-.815-.371-1.906-.647-3.258l-2.224-11.624.205.146-15.621 3.08c0 .057.307-.465.165-.245v.261l.048.277.102.546c.071.366.134.733.205 1.099.126.725.26 1.442.394 2.159.253 1.417.513 2.818.789 4.17.489 2.713.954 5.271 1.372 7.616l-.205-.138 11.292-2.118 3.202-.578.859-.147h.308a.879.879 0 01-.26.074l-.789.187-3.154.66-11.371 2.321h-.174v-.179c-.433-2.346-.914-4.887-1.411-7.616a922.753 922.753 0 00-.789-4.171c-.134-.708-.268-1.433-.394-2.158-.071-.359-.134-.725-.205-1.092l-.103-.554-.047-.277v-.26l.166-.253 15.558-3.095h.174v.179c.851 4.847 1.577 8.895 2.066 11.779a522.255 522.255 0 01.686 4.072c.037.105.058.215.063.326z" fill="#263238"/><path d="M340.982 147.704s-.086-.415-.307-1.148a5.736 5.736 0 00-1.656-2.713 5.793 5.793 0 00-1.932-1.213 5.782 5.782 0 00-2.626-.31h-.371l.198-.326a4.18 4.18 0 00.141-3.861 3.567 3.567 0 00-1.38-1.629 3.64 3.64 0 00-2.113-.513 3.867 3.867 0 00-2.287.88 3.55 3.55 0 00-1.214 2.028 4.27 4.27 0 00.106 2.195c.226.708.634 1.34 1.179 1.829l.197.163-.213.138a6.874 6.874 0 00-2.365 2.444 7.677 7.677 0 00-.907 2.533 11.004 11.004 0 00-.063 2.379 2.41 2.41 0 01-.134-.611 6.638 6.638 0 010-1.792c.118-.934.41-1.836.859-2.656a7.076 7.076 0 012.421-2.639v.293a4.457 4.457 0 01-1.322-1.984 4.595 4.595 0 01-.129-2.406 3.904 3.904 0 011.341-2.273 4.263 4.263 0 012.515-.977 3.977 3.977 0 012.366.57 4.09 4.09 0 011.538 1.784 4.607 4.607 0 01-.197 4.244l-.19-.196a6.114 6.114 0 012.776.367 6.008 6.008 0 012.003 1.319 5.575 5.575 0 011.64 2.892c.074.289.129.583.166.88-.032.244-.024.309-.04.309z" fill="#263238"/><path d="M343.987 130.998l13.555-2.656-13.555 2.656z" fill="#fff"/><path d="M357.542 128.342a54.534 54.534 0 01-6.742 1.54 56.14 56.14 0 01-6.813 1.116 56.543 56.543 0 016.742-1.54 57.987 57.987 0 016.813-1.116z" fill="#263238"/><path d="M344.586 134.248l2.736-.538-2.736.538z" fill="#fff"/><path d="M347.323 133.71c0 .114-.576.334-1.333.481-.757.147-1.38.171-1.403.057-.024-.114.575-.326 1.332-.472.757-.147 1.38-.18 1.404-.066zM369.852 135.168c0 .114-5.386 1.271-12.073 2.574s-12.136 2.281-12.16 2.159c-.023-.122 5.378-1.222 12.081-2.574 6.703-1.352 12.128-2.273 12.152-2.159zM370.506 137.97c0 .114-5.417 1.271-12.143 2.59-6.727 1.32-12.2 2.289-12.223 2.175-.024-.114 5.417-1.278 12.144-2.59 6.726-1.311 12.199-2.281 12.222-2.175zM370.712 141.302a4.649 4.649 0 01-.931.26l-2.555.571a470.005 470.005 0 01-8.453 1.718c-3.304.644-6.309 1.206-8.485 1.63l-2.579.431c-.313.07-.633.106-.954.106a3.97 3.97 0 01.923-.269l2.531-.554c2.16-.464 5.149-1.075 8.461-1.718 3.312-.644 6.309-1.214 8.477-1.629l2.579-.44a3.99 3.99 0 01.986-.106z" fill="#263238"/><path d="M346.053 127.821c.193-.125.393-.236.6-.334.594-.29 1.205-.543 1.829-.758a16.283 16.283 0 017.176-.692 14.88 14.88 0 014.818 1.425 6.755 6.755 0 012.224 1.808c.331.416.564.905.681 1.429.118.525.117 1.07-.003 1.594a5.145 5.145 0 01-1.861 2.639 15.492 15.492 0 01-2.807 1.718 25.796 25.796 0 01-6.451 2.281c-2.25.49-4.577.457-6.813-.098a9.935 9.935 0 01-3.028-1.287 5.12 5.12 0 01-2.066-2.443 3.751 3.751 0 01.331-3.087 7.49 7.49 0 011.924-2.135 19.02 19.02 0 014.408-2.443 18.933 18.933 0 017.097-1.304 17.3 17.3 0 011.956.155c.229.025.456.068.678.131a4.039 4.039 0 01-.686-.041c-.441 0-1.104-.082-1.948-.074-2.398.03-4.771.51-7.002 1.418a18.465 18.465 0 00-4.298 2.443 7.25 7.25 0 00-1.821 2.045 3.393 3.393 0 00-.292 2.77 4.754 4.754 0 001.924 2.264 9.608 9.608 0 002.91 1.23c2.184.525 4.452.552 6.647.081a25.577 25.577 0 006.348-2.24 14.922 14.922 0 002.737-1.629 4.676 4.676 0 001.734-2.443c.112-.466.117-.953.014-1.421a3.119 3.119 0 00-.605-1.276 6.408 6.408 0 00-2.098-1.718 14.9 14.9 0 00-4.731-1.45 16.566 16.566 0 00-7.097.554c-.789.26-1.427.497-1.837.676-.191.089-.389.16-.592.212zM362.266 127.397a34.948 34.948 0 014.006-3.633 35.368 35.368 0 014.266-3.315 35.29 35.29 0 01-4.006 3.641 34.676 34.676 0 01-4.266 3.307z" fill="#5BBD81"/><path d="M367.337 126.697c-1.542.536-3.125.94-4.732 1.205l-.56.123-.315.065.071-.318a10.378 10.378 0 011.711-4.073c.103.049-.788 1.752-1.317 4.138l-.236-.26.567-.123a27.5 27.5 0 014.811-.757zM358.883 130.224a67.642 67.642 0 01-7.436 1.393c-2.484.462-4.99.789-7.507.977a67.782 67.782 0 017.444-1.393 66.705 66.705 0 017.499-.977zM341.961 124.017a3.699 3.699 0 01-.214 2.07 3.563 3.563 0 01-1.292 1.597 3.39 3.39 0 01-1.933.588 3.403 3.403 0 01-1.923-.622 3.567 3.567 0 01-1.264-1.62 3.698 3.698 0 01-.18-2.074 3.627 3.627 0 01.967-1.826 3.43 3.43 0 011.785-.964 3.381 3.381 0 012.598.559 3.596 3.596 0 011.456 2.292z" fill="#5BBD81"/><path d="M338.546 128.293a3.433 3.433 0 01-2.413-.993 3.66 3.66 0 01-1.082-2.439 3.682 3.682 0 01.846-2.536 3.457 3.457 0 012.308-1.232 3.414 3.414 0 012.492.754 3.632 3.632 0 011.3 2.323 3.697 3.697 0 01-.611 2.607 3.485 3.485 0 01-2.185 1.451 3.691 3.691 0 01-.655.065zm0-7.176a3.42 3.42 0 00-2.426 1.022 3.608 3.608 0 00-.965 1.817c-.14.69-.079 1.409.176 2.064a3.544 3.544 0 001.257 1.615c.564.398 1.23.614 1.913.621a3.372 3.372 0 001.926-.582 3.546 3.546 0 001.287-1.589c.267-.65.342-1.367.215-2.06a3.603 3.603 0 00-1.186-2.081 3.4 3.4 0 00-2.197-.827z" fill="#263238"/><path d="M111.092 38.577l282.291 7.95.174-8.69-282.465.74z" fill="#E0E0E0"/><path d="M399.605 32.094H108.229v6.484h291.376v-6.484z" fill="#455A64"/><path d="M409.036 116.686a8.076 8.076 0 014.445-1.507 8.058 8.058 0 014.525 1.231 8.441 8.441 0 013.15 3.572 8.77 8.77 0 01.765 4.768c-.205 1.694-.899 3.397-.473 5.042.789 3.096 5.008 4.301 5.52 7.445a8.68 8.68 0 01-.528 3.698c-.323 1.214-.528 2.591.079 3.682.55.74 1.192 1.403 1.908 1.971 2.05 2.118 2.019 5.841.292 8.26a9.203 9.203 0 01-3.426 2.696 8.902 8.902 0 01-4.239.782 16.63 16.63 0 01-8.154-2.875" fill="#263238"/><path d="M411.071 118.625a8.82 8.82 0 00-2.395-3.691 8.414 8.414 0 00-3.835-2.011c-2.831-.709-6.308-1.629-8.942-.294a7.592 7.592 0 00-3.817 3.853c-.788 2.094.402 5.995.986 8.146.583 2.15 1.017 4.602-.134 6.516-1.152 1.915-3.383 2.558-4.795 4.163a5.933 5.933 0 00-1.286 4.15 5.879 5.879 0 001.87 3.906c-2.508-.155-4.621 2.484-4.534 5.083.086 2.598 1.924 4.887 4.163 6.036a15.597 15.597 0 007.334 1.425 42.739 42.739 0 009.273-.994c2.508-.545 5.126-1.417 6.758-3.462 1.507-1.881 1.917-4.447 1.925-6.883 0-8.618-4.369-17.162-2.469-25.561" fill="#263238"/><path d="M398.477 210.646s-16.315 54.69-15.282 72.357c1.033 17.668 13.453 61.614 13.453 61.614l1.829-133.971z" fill="#EB996E"/><path d="M421.511 201.327c.363-.098 7.523 10.761 7.76 20.095a23.09 23.09 0 01-.103 2.746 35.236 35.236 0 01-2.247 9.514c-6.048 15.778-12.286 34.513-12.389 38.756-.323 13.131-5.819 72.097-5.819 72.097l-12.065.326-3.612-72.064 5.977-72.064 22.498.594zM328.618 163.165c1.238-1.336 6.853 3.698 7.357 4.073.505.374 1.065-.359.592-.684-.678-.465-7.736-5.58-6.537-6.9.662-.733 1.829.627 1.829.627s6.253 5.279 6.798 4.643c.544-.635-3.021-3.885-4.298-4.887-1.278-1.002-1.325-2.012-.434-2.224.607-.146 4.598 2.819 5.836 3.845 1.238 1.026 4.605 3.877 4.061 1.075-.544-2.802.055-5.164.654-5.702.6-.537 1.514.147 1.317 1.01-.13.957-.13 1.927 0 2.884.082.772.29 1.523.615 2.224.379.814.734 1.49 1.049 2.052 3.754 2.346 14.565 8.545 25.581 9.865 1.987.236 9.684-12.219 9.684-12.219l11.994 10.076s.094.815-8.54 11.803c-11.742 14.98-45.934-10.589-45.934-10.589v-.041a81.082 81.082 0 01-8.004-4.072c-3.509-2.232-3.32-2.566-2.997-2.941.86-1.01 6.309 3.69 5.709 1.979-.599-1.71-7.27-4.879-6.332-5.897z" fill="#FFBE9D"/><path d="M319.069 154.213s-1.98 18.637.559 28.844l24.115-1.084s-5.165-18.393-1.995-26.538l-22.679-1.222z" fill="#EBEBEB"/><path d="M319.163 153.61s.166 20.128 1.151 26.27l24.446-1.198s-2.145-19.786-1.317-25.072h-24.28z" fill="#5BBD81"/><path d="M339.753 162.065a78.221 78.221 0 01-8.186.725 78.78 78.78 0 01-8.216.294c0-.115 3.659-.44 8.185-.717 4.526-.277 8.209-.416 8.217-.302zM339.761 166.374c0 .114-3.659.44-8.194.717-4.534.277-8.201.415-8.209.301a78.765 78.765 0 018.186-.725 78.8 78.8 0 018.217-.293zM335.605 170.512c-1.536.311-3.096.48-4.661.505a26.269 26.269 0 01-4.684.082 25.541 25.541 0 014.661-.505 26.175 26.175 0 014.684-.082z" fill="#fff"/><path d="M433.718 262.713s2.366-52.263-4.92-56.824c-7.287-4.562-40.951 2.786-40.951 2.786s-10.48 49.338-10.038 49.745c3.485 3.128 55.909 4.293 55.909 4.293z" fill="#455A64"/><path d="M433.915 258.143a45.078 45.078 0 01-6.072-.106 42.591 42.591 0 01-6.048-.538 44.268 44.268 0 016.072.114c2.025.035 4.046.212 6.048.53zM430.202 262.696a6.002 6.002 0 01-.095-2.15 5.9 5.9 0 01.315-2.126 5.6 5.6 0 01.095 2.15 5.54 5.54 0 01-.315 2.126zM424.003 262.704a7.611 7.611 0 01-.386-2.444 7.208 7.208 0 010-2.443c.261.786.392 1.612.386 2.443a7.214 7.214 0 010 2.444z" fill="#263238"/><path d="M396.387 346.05v-1.629l12.452-.244v5.018l-.789.057c-3.422.195-17.419.757-19.714.049-2.492-.791 8.051-3.251 8.051-3.251z" fill="#5BBD81"/><path opacity=".6" d="M404.392 349.268a4.466 4.466 0 011.577-2.729 4.128 4.128 0 012.902-.937v3.585l-4.479.081z" fill="#fff"/><path opacity=".6" d="M391.254 347.427s-3.698 1.108-3.233 1.735c.465.627 14.628.611 20.873 0v-.285l-16.52.171s-.371-1.588-1.12-1.621z" fill="#fff"/><path d="M408.965 348.836h-.213l-.615.041-2.255.097c-1.9.073-4.534.137-7.444.146-2.91.008-5.52-.049-7.444-.114l-2.255-.089-.615-.04a.76.76 0 01-.213 0h.828l2.255.048c1.908 0 4.534.073 7.444.065 2.91-.008 5.52-.057 7.444-.097l2.255-.057h.615a.948.948 0 01.213 0z" fill="#263238"/><path d="M392.35 349.325a5.443 5.443 0 00-.418-1.108 5.103 5.103 0 00-.788-.896c.385.15.704.44.899.815.243.342.353.767.307 1.189zM396.246 347.101s-.205-.195-.387-.488a1.47 1.47 0 01-.268-.579s.213.204.395.497c.181.293.299.546.26.57zM397.255 346.556s-.229-.106-.442-.302c-.213-.195-.363-.383-.339-.415.024-.033.229.097.442.301s.362.383.339.416zM397.886 345.341a1.532 1.532 0 01-.647.089 1.515 1.515 0 01-.654-.073c.21-.076.433-.104.654-.081.218-.028.439-.006.647.065zM398.099 344.486a1.194 1.194 0 01-.718.219 1.267 1.267 0 01-.788-.097c.242-.046.487-.065.733-.057.255-.047.514-.068.773-.065z" fill="#263238"/><path d="M395.828 345.985a2.273 2.273 0 01-.789 0 4.376 4.376 0 01-.851-.196 2.348 2.348 0 01-.489-.203.444.444 0 01-.197-.261.334.334 0 01.118-.326 1.42 1.42 0 01.983-.115c.331.08.624.276.831.555.124.16.213.346.26.546a.51.51 0 010 .22 2.562 2.562 0 00-.371-.701 1.433 1.433 0 00-.678-.456 1.215 1.215 0 00-.954.074c-.126.097-.071.244.071.333.14.082.288.148.441.196.27.096.547.169.829.22.488.089.796.09.796.114z" fill="#263238"/><path d="M395.615 346.026a.837.837 0 01-.087-.57c.021-.216.094-.424.213-.603a.831.831 0 01.662-.424.325.325 0 01.201.139.344.344 0 01.052.244.847.847 0 01-.142.367c-.104.18-.229.347-.371.497a1.178 1.178 0 01-.457.334s.157-.147.378-.408a2.62 2.62 0 00.331-.488c.111-.18.182-.489 0-.53-.181-.041-.402.187-.52.35-.112.161-.19.344-.229.538a3.662 3.662 0 00-.031.554zM409.044 345.578s-.355 0-.915.04a3.88 3.88 0 00-2.003.815 4.199 4.199 0 00-1.246 1.833c-.093.299-.17.604-.229.912v-.261c.026-.234.07-.466.134-.692a3.908 3.908 0 011.259-1.912 3.705 3.705 0 012.085-.841 3.49 3.49 0 01.678 0 .801.801 0 01.237.106zM403.043 347.598a6.758 6.758 0 01-1.814.186 6.733 6.733 0 01-1.813-.145h1.813c1.025 0 1.814-.081 1.814-.041z" fill="#263238"/><path d="M405.495 347.59s-.063.179-.149.375c-.087.195-.127.358-.166.358-.039 0-.063-.203 0-.423.063-.22.292-.334.315-.31zM406.41 346.392s-.047.163-.173.293c-.126.13-.26.22-.292.195-.032-.024.055-.171.181-.301a.67.67 0 01.284-.187zM407.727 345.871c0 .048-.174.048-.363.113s-.307.162-.339.138c-.031-.024.071-.211.292-.284.221-.072.457 0 .41.033zM408.657 345.618c0 .041-.055.105-.157.146-.103.04-.205 0-.213 0-.008 0 .055-.105.157-.146.103-.04.198-.04.213 0z" fill="#263238"/><path d="M375.167 173.551l13.887 8.064.962-1.01 1.025 1.987-.946 26.726 37.669-7.331-3.075-4.57c-2.957-4.219-2.295-10.141-1.08-15.2l.418-1.726 7.948.13s.789-4.627 0-14.923v-.456c-.413-4.597-2.551-8.844-5.957-11.833-3.405-2.99-7.808-4.485-12.266-4.165l-13.729.961s-10.922-2.321-18.374 10.94l-6.482 12.406z" fill="#5BBD81"/><path d="M391.909 169.217a11.464 11.464 0 01-.497 2.012c-.41 1.36-.899 2.965-1.436 4.749a6.4 6.4 0 00.245 4.733c.295.612.558 1.24.789 1.881a6.963 6.963 0 01-1.081-1.759 6.851 6.851 0 01-.67-2.183 7.45 7.45 0 01.284-2.786 87.21 87.21 0 011.577-4.733c.198-.664.462-1.306.789-1.914zM431.975 180.287a5.414 5.414 0 01-1.08 0l-2.925-.195c-2.461-.18-5.867-.456-9.629-.815l-1.79-.155h-.197v-.203c.213-3.446.205-6.517.339-8.708.055-1.1.134-1.987.197-2.59a4.49 4.49 0 01.15-.929c.036.314.036.631 0 .945 0 .684-.047 1.548-.079 2.582-.063 2.191 0 5.254-.197 8.732l-.189-.228 1.798.163c3.753.334 7.16.66 9.62.921l2.91.325c.362.015.721.066 1.072.155z" fill="#263238"/><path d="M431.771 164.973a2.166 2.166 0 01-.529-.098l-1.514-.35a46.027 46.027 0 00-5.607-1.018 19.971 19.971 0 00-3.942 0 18.74 18.74 0 00-4.369.969c-3.028.978-6.159 2.672-9.778 3.576-.896.223-1.809.368-2.729.432a13.3 13.3 0 01-2.681-.155 16.394 16.394 0 01-4.731-1.759c-2.839-1.532-5.228-3.193-7.515-3.951a10.462 10.462 0 00-5.52-.635c-.674.158-1.334.376-1.972.651a5.312 5.312 0 011.94-.814 10.347 10.347 0 015.678.513c2.366.741 4.779 2.395 7.594 3.885a15.842 15.842 0 004.637 1.695c1.747.279 3.531.187 5.243-.269 3.549-.888 6.688-2.574 9.755-3.543a18.767 18.767 0 014.463-.945c1.315-.1 2.635-.067 3.943.097 1.895.248 3.771.632 5.615 1.149l1.49.432c.181.026.358.073.529.138zM415.731 187.032a8.305 8.305 0 01-1.033.065c-.937.064-1.868.206-2.784.423a39.24 39.24 0 00-3.998 1.23c-1.49.538-3.154 1.157-4.905 1.63-1.681.468-3.43.626-5.165.464a9.178 9.178 0 01-3.99-1.474 6.878 6.878 0 01-2.003-2.11 4.39 4.39 0 01-.339-.717c-.071-.171-.094-.261-.079-.269.016-.008.174.342.552.896a7.103 7.103 0 002.027 1.947 9.136 9.136 0 003.872 1.336c1.689.136 3.388-.03 5.023-.489 1.758-.448 3.383-1.059 4.889-1.572a31.618 31.618 0 014.061-1.157c.932-.198 1.88-.296 2.831-.293.349-.021.7.009 1.041.09z" fill="#FAFAFA"/><path opacity=".3" d="M416.882 167.189c-1.695 4.333-1.9 9.107-2.484 13.742-.583 4.634-1.695 9.449-4.731 12.886-3.036 3.437-7.886 5.034-12.349 6.378l19.612-1.768-.048-31.238z" fill="#000"/><path d="M415.818 282.319s7.042-30.953 13.334-49.802c6.309-19.028-2.752-31.108-2.752-31.108l-35.643 4.3-6.861 27.223s-5.448 29.072-3.264 50.503l35.186-1.116z" fill="#5BBD81"/><path d="M426.085 239.62a15.654 15.654 0 00-.93-1.524 9.43 9.43 0 00-3.722-2.94 13.503 13.503 0 00-6.869-1.075c-2.875.335-5.723.88-8.524 1.629-2.832.743-5.771.95-8.674.611a18.333 18.333 0 01-6.601-2.762 41.951 41.951 0 00-4.203-2.346c-1.033-.464-1.64-.635-1.624-.676.151.011.299.044.441.098.423.119.839.263 1.246.432a34.468 34.468 0 014.282 2.232 18.588 18.588 0 006.514 2.639c2.869.305 5.768.087 8.564-.644a57.673 57.673 0 018.587-1.588c2.4-.232 4.818.181 7.018 1.197a9.285 9.285 0 013.73 3.112c.148.209.28.429.395.66.093.166.177.337.252.513.056.138.096.283.118.432zM417.679 270.638a12.304 12.304 0 00-1.104-1.189 7.923 7.923 0 00-3.943-1.808 12.67 12.67 0 00-6.309.773c-2.318.815-4.731 2.102-7.396 3.12a15.894 15.894 0 01-7.941.994 16.434 16.434 0 01-6.206-2.159 15.334 15.334 0 01-3.486-2.794c-.28-.296-.543-.609-.788-.936a1.64 1.64 0 01-.245-.359s.395.44 1.144 1.173a16.119 16.119 0 003.517 2.656 16.672 16.672 0 006.111 2.028 15.76 15.76 0 007.76-1.002c2.641-.994 5.046-2.305 7.404-3.087a12.693 12.693 0 016.506-.701 7.851 7.851 0 013.943 1.972c.294.285.559.602.788.944.19.269.261.375.245.375z" fill="#FAFAFA"/><path opacity=".2" d="M386.483 249.248a10.4 10.4 0 00-.268 4.48c.347 1.466 1.577 2.827 3.02 2.786.789 0 1.577-.407 2.263 0 .477.438.782 1.04.86 1.694a8.662 8.662 0 002.344 3.989 8.242 8.242 0 004.015 2.138 8.08 8.08 0 004.505-.342 8.343 8.343 0 003.669-2.722c1.94-2.509 2.366-5.963 1.956-9.148-.41-3.185-1.632-6.182-2.65-9.18a120.863 120.863 0 01-4.581-19.199 6.897 6.897 0 01.142-3.885c.891-1.996 3.312-2.574 5.401-2.949a194.208 194.208 0 0023.579-5.784c-4.393-1.001-8.974-.309-13.406.53a211.738 211.738 0 00-14.636 3.307 7.05 7.05 0 00-3.391 1.629 7.869 7.869 0 00-1.577 3.609 123.315 123.315 0 01-11.907 29.992" fill="#000"/><path d="M397.263 216.177l34.137-5.702a43.977 43.977 0 00-1.577-5.002c-.686-1.776-2.587-3.16-3.454-4.073-2.027-2.117-30.486 10.85-30.486 10.85l1.38 3.927z" fill="#455A64"/><path d="M397.263 216.168l-9.416-3.233 1.404-8.04 9.226 7.437-1.214 3.836zM397.389 216.169s-2.61 9.693-2.531 16.103c.079 6.411.323 19.802 1.183 24.527.859 4.724 13.279-.676 10.882-5.067-2.397-4.39-6.64-20.136-6.75-23.842-.111-3.706.22-12.935.22-12.935l-3.004 1.214z" fill="#455A64"/><path d="M406.197 250.388a4.665 4.665 0 01-.922 1.54c-1.827 2.293-4.452 3.755-7.31 4.072a4.435 4.435 0 01-1.759-.048 16.638 16.638 0 011.719-.253 12.352 12.352 0 003.856-1.352 12.554 12.554 0 003.241-2.607c.718-.814 1.088-1.384 1.175-1.352z" fill="#263238"/><path d="M399.55 258.648c-.103.041-.418-.554-.702-1.328s-.434-1.434-.323-1.474c.11-.041.418.546.702 1.319.283.774.433 1.442.323 1.483zM403.422 257.141c-.103.049-.481-.513-.836-1.254-.355-.742-.576-1.393-.473-1.442.102-.049.473.505.836 1.254.362.75.575 1.385.473 1.442zM406.655 254.632c-.095.057-.505-.497-.915-1.238-.41-.741-.662-1.385-.56-1.442.103-.057.505.489.915 1.238.41.75.662 1.385.56 1.442z" fill="#263238"/><path d="M395.157 214.376c-3.28 6.191-1.876 14.328-5.717 20.153-1.53 2.329-3.84 4.17-4.731 6.826a6.725 6.725 0 00-.26 3.304 6.615 6.615 0 001.348 3.008 5.332 5.332 0 002.725 1.707 5.192 5.192 0 003.181-.192 6.606 6.606 0 003.241-3.559 20.573 20.573 0 001.215-4.839 27780.61 27780.61 0 003.635-21.903c.237-1.458.465-3.047-.229-4.342-.693-1.295-2.72-1.865-3.548-.651" fill="#455A64"/><path d="M395.157 248.808a9.516 9.516 0 01-.157-1.303 85.9 85.9 0 01-.253-3.576c-.173-3.022-.284-7.209-.181-11.828a157.8 157.8 0 01.702-11.811 90.03 90.03 0 01.41-3.56c.042-.436.115-.869.221-1.295.02.438.001.877-.056 1.312-.079.92-.173 2.118-.284 3.568a224.796 224.796 0 00-.583 11.794c-.103 4.611 0 8.781.063 11.803.047 1.458.087 2.656.118 3.576.041.439.041.881 0 1.32zM392.965 248.132a3.998 3.998 0 01-1.577-.187c-2.49-.646-4.647-2.249-6.033-4.48a3.931 3.931 0 01-.662-1.459 13.062 13.062 0 003.511 3.944 12.604 12.604 0 004.737 2.182h.024z" fill="#263238"/><path d="M388.951 246.69c.071.098-.37.562-.978 1.043-.607.48-1.151.814-1.222.708-.071-.106.371-.562.978-1.042.607-.481 1.12-.799 1.222-.709zM385.86 244.181c.056.098-.228.375-.528.733-.3.359-.544.676-.647.628-.102-.049 0-.497.34-.905.339-.407.78-.562.835-.456zM400.678 211.452s.142.155.26.505c.147.504.185 1.035.11 1.556a3.885 3.885 0 01-.986 2.093 3.598 3.598 0 01-2.562 1.051 3.609 3.609 0 01-2.547-1.091 3.806 3.806 0 01-.962-2.102 3.595 3.595 0 01.134-1.556c.043-.188.133-.362.26-.505a5.452 5.452 0 00-.111 2.012 3.74 3.74 0 00.947 1.882c.624.591 1.44.919 2.287.919.846 0 1.662-.328 2.286-.919a3.652 3.652 0 00.97-1.865c.099-.66.07-1.333-.086-1.98z" fill="#263238"/><path d="M398.848 216.063c-.216-.83-.48-1.646-.789-2.444a20.197 20.197 0 00-1.451-2.061 4.345 4.345 0 011.816 1.868c.406.799.565 1.708.455 2.604l-.031.033z" fill="#263238"/><path d="M370.909 208.389c.355-1.808 7.705-.627 8.335-.57.631.057.718-.888.15-.904-.788 0-9.463-.48-9.084-2.256.181-.986 1.861-.473 1.861-.473s8.02 1.043 8.154.196c.134-.847-4.558-1.629-6.151-1.776-1.593-.147-2.161-.986-1.514-1.629.441-.456 5.346-.122 6.923.057 1.578.179 5.899.766 3.991-1.311-1.909-2.078-2.603-4.407-2.366-5.181a.884.884 0 01.348-.408.845.845 0 011.001.08.9.9 0 01.283.458c.391.881.895 1.703 1.499 2.444a6.682 6.682 0 001.663 1.556c.742.48 1.388.814 1.948 1.165 4.385-.082 16.734-.758 26.74-5.702 1.806-.888 1.94-15.094 1.94-15.094l15.354 1.409s0 4.073-1.167 14.662c-2.153 19.15-44.373 16.226-44.373 16.226-2.938.483-5.9.801-8.871.953-4.117 0-4.125-.35-4.046-.814.213-1.336 7.247-.334 5.851-1.458-1.395-1.125-8.745-.253-8.469-1.63z" fill="#FFBE9D"/><path opacity=".3" d="M384.906 179.456a34.98 34.98 0 006.955-10.108c-1.12 3.079-2.255 6.264-2.169 9.554 0 .97.103 2.094-.591 2.754a15.08 15.08 0 00-4.116-2.175" fill="#000"/><path d="M415.132 120.107l-.04 2.053-.394 30.684a6.775 6.775 0 01-.604 2.516 6.585 6.585 0 01-1.497 2.08 6.335 6.335 0 01-2.157 1.323 6.204 6.204 0 01-2.484.362c-3.73-.082-6.758-3.063-6.774-6.663 0-3.78-.087-7.755-.087-7.755s-4.731-.815-5.686-7.16c-.488-3.161-.331-8.341-.078-12.569a6.86 6.86 0 01.679-2.594 6.702 6.702 0 011.609-2.111 6.44 6.44 0 012.283-1.289 6.293 6.293 0 012.589-.262l12.641 1.385z" fill="#FFBE9D"/><path d="M396.734 128.904c0 .216.083.424.231.576a.777.777 0 001.089.03.823.823 0 00.257-.524.832.832 0 00-.23-.576.777.777 0 00-1.09-.03.833.833 0 00-.257.524zM396.419 127.674c.103.106.694-.35 1.577-.35.884 0 1.467.44 1.578.334.11-.106-.056-.244-.324-.448a2.144 2.144 0 00-1.254-.399c-.442 0-.873.146-1.23.415-.307.204-.394.4-.347.448zM404.747 128.904c0 .216.083.424.231.576a.773.773 0 001.089.03.833.833 0 00.257-.524.828.828 0 00-.231-.576.777.777 0 00-1.089-.03.823.823 0 00-.257.524zM404.762 127.837c.095.106.694-.35 1.577-.35s1.467.44 1.577.334c.111-.106-.055-.244-.331-.448a2.129 2.129 0 00-1.238-.399c-.442 0-.874.139-1.238.399-.307.22-.394.415-.347.464zM401.679 134.329a5.635 5.635 0 00-1.372-.252c-.221 0-.426-.065-.465-.22a1.257 1.257 0 01.149-.668c.205-.538.418-1.108.639-1.702a29.966 29.966 0 001.443-4.456 29.67 29.67 0 00-1.79 4.317c-.213.603-.418 1.173-.607 1.719a1.301 1.301 0 00-.118.88.567.567 0 00.362.325c.119.031.241.047.363.049.463.07.933.073 1.396.008z" fill="#263238"/><path d="M401.095 144.707a15.3 15.3 0 008.257-2.273s-1.996 4.367-8.146 3.772l-.111-1.499z" fill="#EB996E"/><path d="M402.042 136.447c.164-.206.376-.368.615-.47.239-.102.499-.142.757-.116a1.403 1.403 0 01.962.529.941.941 0 01.063 1.051 1.02 1.02 0 01-.514.318.994.994 0 01-.598-.033 3.074 3.074 0 01-1.072-.676.805.805 0 01-.245-.261.298.298 0 010-.325" fill="#5BBD81"/><path d="M404.179 134.94c-.142 0-.142.945-.931 1.629-.788.685-1.766.571-1.774.701-.008.13.221.187.631.195a2.252 2.252 0 001.482-.529c.403-.34.662-.827.726-1.36.031-.408-.071-.644-.134-.636zM416.173 149.22c-1.814-.652-3.943-1.312-4.645-3.169a9.764 9.764 0 01-.134-5.857c.244-.88.591-1.849.213-2.68a5.05 5.05 0 00-1.341-1.425 5.967 5.967 0 01-1.743-4c-.05-1.505.219-3.004.789-4.39a3.587 3.587 0 00.371-2.395 3.738 3.738 0 00-1.065-1.336 10.424 10.424 0 01-2.137-2.949 3.043 3.043 0 01-.292-2.517c.442-.953 1.577-1.254 2.626-1.336 2.437-.187 5.126.367 6.672 2.314 1.395 1.743 1.577 4.179 1.648 6.435.315 7.119.615 14.295-.576 21.309" fill="#263238"/><path d="M393.005 119.399c.336.219.687.415 1.049.586.318.246.616.518.891.815.157.163.331.334.481.521 0 .041.063.09.11.138l.174.18.425.415c.413.392.853.752 1.317 1.075a6.736 6.736 0 003.42 1.196 6.685 6.685 0 003.535-.756 7.305 7.305 0 002.555-2.118c1.049-1.441 1.207-2.606.726-3.258-.481-.652-1.695-.546-3.052-.195-.662.174-1.334.31-2.011.407a4.772 4.772 0 01-1.577-.041 4.107 4.107 0 01-.741-.277c-.339-.155-.789-.399-1.27-.635a12.162 12.162 0 00-.788-.359l-.434-.163-.481-.146a5.197 5.197 0 00-1.845-.155c-.49.019-.97.15-1.405.384a3.35 3.35 0 00-1.111.968 1.056 1.056 0 00.032 1.418zM404.541 124.4c.087.236.931.122 1.924.253.994.13 1.806.399 1.932.187.126-.212-.078-.326-.402-.554a3.09 3.09 0 00-1.435-.521 3.246 3.246 0 00-1.506.179c-.363.155-.552.342-.513.456zM396.734 125.133c.15.204.734 0 1.436 0 .701 0 1.301.131 1.435-.073.134-.204 0-.302-.292-.489a2.036 2.036 0 00-2.318.073c-.261.188-.332.391-.261.489z" fill="#263238"/><path d="M43.78 340.91l-1.782 7.453 12.278 1.426.441-7.388-10.937-1.491z" fill="#455A64"/><path d="M49.324 341.277a31.71 31.71 0 01-1.175 6.785c.145-2.3.539-4.576 1.175-6.785z" fill="#263238"/><path d="M54.323 348.974a9.63 9.63 0 01-1.774-.203l-4.259-.652a93.15 93.15 0 01-4.25-.749 7.902 7.902 0 01-1.727-.456c.596.018 1.19.089 1.774.211l4.258.652c1.664.261 3.155.521 4.25.749a8.91 8.91 0 011.728.448z" fill="#263238"/><path d="M99.918 345.904l-.126-4.627H86.497l.086 8.341h.789c3.683.13 18.728.375 21.173-.456 2.728-.888-8.627-3.258-8.627-3.258z" fill="#455A64"/><path d="M86.386 349.308h.883l2.43.057c2.042 0 4.873 0 7.995-.04 3.123-.041 5.954-.188 7.996-.31l2.421-.163.655-.049h.228a.87.87 0 00-.228 0h-.663l-2.421.106c-2.042.09-4.865.204-7.988.269-3.122.065-5.953.081-7.996.081h-3.083a.75.75 0 00-.229.049z" fill="#263238"/><path d="M104.342 349.276c.099-.417.242-.821.426-1.206.23-.35.494-.675.788-.969a1.75 1.75 0 00-.938.888 1.91 1.91 0 00-.276 1.287zM100.367 347.305c.04 0 .221-.212.41-.538.19-.326.308-.595.269-.619-.04-.024-.221.212-.411.538-.189.325-.307.594-.268.619zM99.28 346.743s.236-.114.457-.334c.22-.22.386-.424.355-.456-.032-.033-.237.114-.466.334-.228.22-.378.423-.346.456zM98.57 345.455c.455.119.932.119 1.388 0a3.013 3.013 0 00-1.388 0zM98.31 344.551c.237.148.51.222.788.211.27.036.544-.009.789-.13a4.328 4.328 0 00-.789 0 3.87 3.87 0 00-.788-.081z" fill="#263238"/><path d="M100.794 346.099c.285.047.575.047.859 0 .308-.05.611-.127.907-.228.179-.06.351-.139.513-.236a.489.489 0 00.205-.285.37.37 0 00-.134-.351 1.535 1.535 0 00-1.056-.095 1.576 1.576 0 00-.876.617 1.576 1.576 0 00-.268.594.534.534 0 000 .245c.079-.276.204-.535.37-.766.191-.236.443-.411.726-.505a1.266 1.266 0 011.017.049c.142.098.095.261-.055.358a2.579 2.579 0 01-.481.228c-.284.11-.577.195-.875.253-.529.081-.852.09-.852.122z" fill="#263238"/><path d="M101.022 346.132a.84.84 0 00.087-.611 1.473 1.473 0 00-.245-.644.867.867 0 00-.308-.314.823.823 0 00-.417-.117.315.315 0 00-.121.054.344.344 0 00-.132.361.96.96 0 00.15.391c.12.19.26.365.418.521.136.157.306.277.497.351 0 0-.174-.155-.418-.432a2.809 2.809 0 01-.363-.521c-.126-.188-.213-.522 0-.563.213-.04.442.188.576.359.119.171.205.365.252.57.029.197.037.396.024.595zM86.575 345.578c.328-.018.658-.018.986 0 .786.08 1.536.381 2.168.871a4.385 4.385 0 011.38 1.923c.221.586.245.985.276.977a.75.75 0 000-.277c-.027-.252-.08-.5-.157-.741a4.281 4.281 0 00-1.396-2.02 4.014 4.014 0 00-2.255-.815 3.906 3.906 0 00-.734 0c-.173 0-.268.025-.268.082zM93.058 348.021c.64.132 1.294.183 1.947.154a7.223 7.223 0 001.948-.211c0-.049-.875 0-1.948.041-1.072.04-1.947-.033-1.947.016z" fill="#263238"/><path d="M90.448 348.07s.07.188.165.399c.095.212.142.383.19.375.047-.008.063-.212-.048-.448-.11-.236-.284-.375-.307-.326zM89.43 346.832s.063.171.205.31c.142.138.276.236.308.195.031-.041-.055-.171-.197-.309-.142-.139-.284-.229-.316-.196zM88.01 346.286c0 .04.19.04.387.105s.34.17.378.138c.04-.033-.086-.219-.33-.3-.245-.081-.45.008-.434.057zM87.001 346.034c0 .04.063.113.182.154.118.04.213.04.228 0 .016-.041-.063-.114-.173-.154-.11-.041-.22-.041-.237 0z" fill="#263238"/><path d="M148.636 166.749l-3.785 1.865-3.485-5.645 2.042-4.357c.189-.408.402-.864.615-1.385a6.112 6.112 0 00.45-1.914 9.219 9.219 0 00-.063-2.444c-.19-.725.559-1.328 1.064-.896.505.432 1.073 2.444.694 4.814-.378 2.37 2.366-.147 3.336-1.059.97-.912 4.226-3.568 4.731-3.47.789.155.726 1.026-.3 1.914-1.025.888-3.903 3.763-3.422 4.293.592.065 1.149.32 1.593.729.444.409.753.952.883 1.552.253 1.181.465 2.81-.181 3.356a37.77 37.77 0 01-4.172 2.647zM75.26 114.096l-.103 33.951 14.1.692.41-8.26s5.007 1.027 6.308-3.771c.789-3.071.623-26.791.623-26.791l-21.338 4.179z" fill="#B78876"/><path d="M99.768 113.265c-.946 2.028-5.472 5.701-5.472 5.701l-2.043 5.654c-1.774-1.434-4.155-1.353-4.605 1.865-.323 2.33 2.476 2.802 2.476 2.802-1.632 2.867-2.736 5.189-5.11 7.918-2.57 2.948-4.013 3.258-6.805 3.258H75.14s-6.308-5.425-5.046-19.729c1.261-14.304 13.69-10.125 16.654-13.701 4.81-5.743 16.189-.546 13.02 6.232z" fill="#263238"/><path d="M70.788 132.765h.394c.374-.014.746-.06 1.112-.138a7.89 7.89 0 003.612-1.98 20.72 20.72 0 003.651-5.058c1.19-2.028 2.5-4.407 4.731-6.012a11.259 11.259 0 013.596-1.629c1.23-.326 2.429-.529 3.564-.757A13.203 13.203 0 0097.142 115a6.396 6.396 0 002.303-3.43c.117-.509.16-1.033.126-1.556 0 0 0 .139.047.4a4.64 4.64 0 01-.11 1.164 6.35 6.35 0 01-2.295 3.511 13.063 13.063 0 01-5.733 2.256c-2.247.473-4.873.815-7.097 2.33-2.224 1.515-3.51 3.934-4.731 5.955a20.446 20.446 0 01-3.715 5.066 7.804 7.804 0 01-3.666 1.955 4.281 4.281 0 01-1.483.114z" fill="#455A64"/><path d="M70.063 121.133s.22-.089.654-.236a8.904 8.904 0 011.933-.48 4.243 4.243 0 013.028.676c.562.385.954.986 1.088 1.669.074.382.056.776-.053 1.148a2.386 2.386 0 01-.57.987 1.76 1.76 0 01-1.112.464 2.225 2.225 0 01-1.214-.334 3.728 3.728 0 01-1.617-2.118c-.314-.963-.349-2-.1-2.984a5.26 5.26 0 011.496-2.555 5.053 5.053 0 012.854-1.32 8.58 8.58 0 013.25.432c1.069.356 2.163.628 3.272.815a12.97 12.97 0 003.454 0 11.253 11.253 0 003.32-.945 3.948 3.948 0 001.355-.958c.382-.414.675-.906.86-1.445a3.22 3.22 0 00.03-1.621 3.143 3.143 0 00-.763-1.417 2.536 2.536 0 00-1.352-.661 2.496 2.496 0 00-1.479.229 2.14 2.14 0 00-1.049 1.01c-.21.441-.287.938-.22 1.425.063.47.224.92.47 1.321.246.4.572.742.957 1.001.74.471 1.591.719 2.46.717a6.978 6.978 0 002.366-.367 8.457 8.457 0 003.501-2.199 9.576 9.576 0 002.468-4.537c.087-.456.142-.693.142-.693s0 .237-.11.701a9.468 9.468 0 01-2.437 4.602 8.628 8.628 0 01-3.525 2.24 7.036 7.036 0 01-2.365.383 4.66 4.66 0 01-2.524-.725 3.422 3.422 0 01-1.008-1.052 3.538 3.538 0 01-.49-1.392 2.607 2.607 0 01.236-1.515 2.32 2.32 0 011.112-1.083 2.658 2.658 0 011.57-.24 2.706 2.706 0 011.435.696c.395.413.677.927.816 1.49a3.36 3.36 0 01-.028 1.711 4.197 4.197 0 01-.888 1.512c-.397.433-.88.773-1.414.997-1.072.497-2.21.824-3.375.97-1.16.158-2.334.158-3.494 0a21.795 21.795 0 01-3.296-.815 8.311 8.311 0 00-3.154-.432 4.806 4.806 0 00-2.063.725 4.98 4.98 0 00-1.555 1.575 5.224 5.224 0 00-.522 4.355 3.64 3.64 0 001.577 2.045c.345.214.74.326 1.144.326a1.679 1.679 0 001.04-.432c.254-.261.442-.583.546-.937.105-.354.123-.728.054-1.091a2.558 2.558 0 00-.358-.922 2.492 2.492 0 00-.675-.708 4.234 4.234 0 00-2.973-.684 8.926 8.926 0 00-1.932.448l-.773.228z" fill="#455A64"/><path d="M60.765 213.554L41.998 340.91l15.59 2.045 22-106.822 5.536 107.539 16.899-.302-2.878-133.099-38.38 3.283z" fill="#263238"/><path d="M84.754 344.087v-.391l-5.378-104.459-21.48 104.166-16.348-2.142 18.879-128.082h.307l38.798-3.324v.432l2.886 133.507-17.664.293zm-4.937-111.049l5.678 110.218 16.126-.293-2.862-132.252-37.646 3.258L42.447 340.56l14.833 1.947 22.537-109.469z" fill="#263238"/><path d="M97 343.134c-.11 0-.204-25.52-.204-57.019 0-31.5.094-57.02.205-57.02.11 0 .205 25.512.205 57.02 0 31.507-.126 57.019-.205 57.019zM54.157 342.702a1.832 1.832 0 010-.285c0-.204.087-.464.142-.815l.568-3.095c.529-2.712 1.278-6.59 2.2-11.404 1.885-9.595 4.566-22.807 7.642-37.429a2643.3 2643.3 0 018.13-37.323c1.08-4.749 1.963-8.594 2.578-11.29.316-1.303.552-2.33.726-3.055.086-.333.15-.594.205-.814.018-.092.044-.182.079-.269.009.092.009.185 0 .277-.04.204-.095.473-.158.815-.158.733-.379 1.759-.655 3.079-.583 2.696-1.42 6.516-2.452 11.314a6146.945 6146.945 0 00-8.012 37.348 6239.269 6239.269 0 00-7.76 37.404c-.977 4.765-1.766 8.635-2.365 11.339-.276 1.32-.49 2.354-.647 3.079l-.173.815a1.561 1.561 0 01-.048.309z" fill="#455A64"/><path d="M85.125 236.019c-.878.163-1.766.253-2.658.269-1.648.122-3.943.244-6.419.497-2.476.252-4.731.595-6.38.814-.879.166-1.77.256-2.665.269a17.395 17.395 0 012.618-.57c1.625-.285 3.88-.676 6.388-.937 2.507-.26 4.794-.326 6.442-.366a16.57 16.57 0 012.674.024zM99.547 227.751a4.04 4.04 0 01-1.845.22 7.727 7.727 0 01-4.239-1.523 8.114 8.114 0 01-2.747-3.665 4.191 4.191 0 01-.387-1.874c.071 0 .19.709.655 1.759a8.78 8.78 0 002.72 3.438 8.311 8.311 0 004.022 1.564c1.112.122 1.814.008 1.822.081z" fill="#455A64"/><path d="M58.905 220.762h41.068l-1.577-34.293c-.268-6.736-.228-7.543-.386-13.758 0 0 6.127 7.657 10.953 13.033a9.734 9.734 0 005.344 3.056 9.535 9.535 0 006.059-.799L145.6 169.82l-4.732-12.488-22.931 14.5c-1.049-.668-9.983-13.848-16.15-20.25-3.95-4.102-9.274-6.481-14.872-6.647a107.19 107.19 0 00-13.934.578c-3.367.376-6.502 1.95-8.868 4.453-2.365 2.503-3.814 5.779-4.096 9.264-.442 5.507-.087 11.893-.087 22.759l-1.025 38.773z" fill="#5BBD81"/><path d="M65.537 148.649c-3.872 1.776-20.046 23.183-21.19 37.079-.85 10.361 18.666 9.237 18.666 9.237s1.325-42.52.75-41.917" fill="#5BBD81"/><path d="M61.594 152.274v.448c0 .293-.055.757-.094 1.271-.08 1.107-.19 2.704-.292 4.683-.221 3.959-.402 9.425-.584 15.477-.181 6.052-.347 11.526-.544 15.477a201.887 201.887 0 01-.276 4.683c-.04.513-.079.929-.102 1.271-.024.342-.048.44-.048.44v-.44c0-.285.04-.766.071-1.279.056-1.165.134-2.753.221-4.684.166-3.958.316-9.432.497-15.476.181-6.044.386-11.518.63-15.477.119-1.979.245-3.576.348-4.684.047-.505.094-.928.126-1.262.031-.334.047-.448.047-.448zM59.962 179.554a4.82 4.82 0 01-.553.814 33.048 33.048 0 01-1.474 1.809 46.8 46.8 0 01-1.577 1.702c-.22.237-.46.453-.718.644.191-.262.402-.507.631-.734.402-.439.962-1.042 1.577-1.726.615-.685 1.128-1.312 1.514-1.768.178-.265.379-.513.6-.741zM116.991 176.043a12.91 12.91 0 01.386-2.085c.134-.695.316-1.378.544-2.045-.071.705-.2 1.403-.386 2.085-.126.696-.308 1.38-.544 2.045zM119.293 176.41a17.874 17.874 0 01-.607-2.346 19.762 19.762 0 01-.441-2.379c.256.763.459 1.545.607 2.338.195.785.343 1.582.441 2.387zM99.066 173.819s-.086-.073-.236-.228c-.15-.155-.41-.399-.663-.66a67.518 67.518 0 01-2.365-2.484c-1.925-2.134-4.637-5.262-6.16-9.531a16.143 16.143 0 01-.969-6.247c.033-1.743.406-3.46 1.096-5.05a7.284 7.284 0 012.13-2.689 6.82 6.82 0 01.788-.521l.284-.163s-.387.228-1.01.733a7.448 7.448 0 00-2.066 2.697 13.244 13.244 0 00-1.04 4.993c-.091 2.107.236 4.211.961 6.182 1.514 4.236 4.196 7.331 6.096 9.514a61.595 61.595 0 002.366 2.526l.638.676.15.252z" fill="#263238"/><path d="M70.993 161.699c-.086.073-.788-.652-1.514-1.63a5.913 5.913 0 01-1.19-1.897 6.282 6.282 0 011.514 1.629 6.298 6.298 0 011.19 1.898zM80.811 173.208a23.108 23.108 0 01-4.33 4.456c.571-.88 1.25-1.679 2.02-2.378a11.39 11.39 0 012.31-2.078zM90.305 189.719a19.324 19.324 0 01-1.112-2.077 18.93 18.93 0 01-1.206-2.02 4.27 4.27 0 011.577 1.808c.45.676.707 1.47.741 2.289zM65.678 187.854a12.015 12.015 0 01-1.135-6.687c.126 0 .173 1.523.489 3.355.315 1.833.765 3.283.647 3.332zM78.76 195.12a5.59 5.59 0 01-.788-2.745 5.83 5.83 0 01.268-2.843c.127 0 0 1.279.142 2.81.142 1.532.49 2.737.379 2.778zM73.588 205.685a13.748 13.748 0 01-2.99-1.678 14.077 14.077 0 01-2.767-2.037c1.057.437 2.06 1 2.989 1.678a14.343 14.343 0 012.768 2.037zM93.925 202.565a35.357 35.357 0 01-3.09 1.988 35.944 35.944 0 01-3.076 2.028c.81-.96 1.776-1.768 2.854-2.387a10.268 10.268 0 013.312-1.629zM68.344 214.507a12.377 12.377 0 01-3.154-.44 12.435 12.435 0 01-3.154-.864c1.078.013 2.15.163 3.193.448 1.07.149 2.116.436 3.115.856zM83.295 216.674a7.784 7.784 0 01-2.366-4.464c.446.708.836 1.451 1.167 2.223.459.712.86 1.461 1.199 2.241zM97.316 213.317c.087.074-.34.75-.946 1.507-.608.758-1.183 1.303-1.27 1.23-.087-.073.34-.749.954-1.507.615-.757 1.175-1.303 1.262-1.23zM69.259 168.533c.063.097-.489.586-1.23 1.108-.742.521-1.404.814-1.467.749-.063-.065.489-.595 1.238-1.108.75-.513 1.396-.847 1.459-.749zM79.904 156.249a12.634 12.634 0 01-1.175-3.34 12.443 12.443 0 01-.6-3.502c.43 1.096.763 2.23.995 3.388.363 1.124.625 2.28.78 3.454zM90.124 167.433a15.298 15.298 0 01-2.144-.464 14.268 14.268 0 01-2.169-.391 5.457 5.457 0 012.24-.024c.742.147 1.447.446 2.073.879zM97.15 157.927a5.763 5.763 0 01-2.412.131 5.847 5.847 0 01-2.264-.872 21.89 21.89 0 012.366.448c1.238.212 2.302.171 2.31.293zM104.342 168.525a10.304 10.304 0 01.134-3.601c.121-1.202.449-2.372.97-3.454a32.55 32.55 0 01-.567 3.528 33.32 33.32 0 01-.537 3.527zM112.787 181.036a23.459 23.459 0 01-4.25-4.529 23.428 23.428 0 014.25 4.529zM119.814 180.042a7.012 7.012 0 01-1.097 2.159 7.235 7.235 0 01-1.443 1.922 7.21 7.21 0 011.097-2.158c.373-.72.861-1.37 1.443-1.923zM127.968 175.945a10.129 10.129 0 01-1.396-2.492 9.967 9.967 0 01-1.025-2.672 19.538 19.538 0 012.421 5.164zM139.071 171.196a10.11 10.11 0 01-2.902-.318 10.309 10.309 0 01-2.831-.733 9.836 9.836 0 012.902.318c.972.104 1.926.351 2.831.733zM50.893 183.398a24.514 24.514 0 012.642-5.791 24.925 24.925 0 01-2.642 5.791zM56.784 172.671a8.826 8.826 0 01-1.948-1.914 9.143 9.143 0 01-1.632-2.192 8.81 8.81 0 011.94 1.906 9.756 9.756 0 011.64 2.2zM56.294 189.899c.072.089-.354.578-.954 1.091-.599.513-1.135.815-1.206.758-.071-.057.347-.578.946-1.092.6-.513 1.144-.847 1.215-.757zM58.282 161.275c.087.073-.166.554-.56 1.067-.394.513-.789.864-.883.815-.095-.049.165-.546.56-1.059.394-.513.796-.896.883-.823z" fill="#FAFAFA"/><path opacity=".3" d="M91.244 164.24c2.665 8.659 4.731 17.749 7.396 26.4l-.638-17.921a42.462 42.462 0 01-6.758-8.479zM59.489 194.998c-1.995-9.571-1.759-19.55 1.577-28.722l-1.577 28.722z" fill="#000"/></g><defs><filter id="prefix__filter0_d" x=".88" y="0" width="522.24" height="358" filterUnits="userSpaceOnUse" color-interpolation-filters="sRGB"><feFlood flood-opacity="0" result="BackgroundImageFix"/><feColorMatrix in="SourceAlpha" values="0 0 0 0 0 0 0 0 0 0 0 0 0 0 0 0 0 0 127 0"/><feOffset dy="4"/><feGaussianBlur stdDeviation="2"/><feColorMatrix values="0 0 0 0 0 0 0 0 0 0 0 0 0 0 0 0 0 0 0.25 0"/><feBlend in2="BackgroundImageFix" result="effect1_dropShadow"/><feBlend in="SourceGraphic" in2="effect1_dropShadow" result="shape"/></filter></defs></svg>
