<svg width="24" height="24" viewBox="0 0 24 24" fill="none" xmlns="http://www.w3.org/2000/svg">
<rect width="24" height="24" fill="white" fill-opacity="0.01"/>
<path fill-rule="evenodd" clip-rule="evenodd" d="M15.677 16.738C14.6265 17.5571 13.3321 18.0014 12 18C10.6679 18.0014 9.37354 17.5571 8.323 16.738C8.94763 16.1477 9.44549 15.4364 9.78625 14.6475C10.127 13.8585 10.3035 13.0084 10.305 12.149C10.303 11.2501 10.1097 10.362 9.73776 9.54364C9.36584 8.72531 8.8239 7.99558 8.148 7.403C9.22627 6.49554 10.5907 5.99859 12 6C13.465 6 14.808 6.528 15.851 7.403C15.1753 7.99567 14.6335 8.72544 14.2618 9.54377C13.89 10.3621 13.6968 11.2502 13.695 12.149C13.695 13.9 14.431 15.559 15.677 16.738ZM17.031 15.266C17.644 14.326 18 13.203 18 12C18 10.876 17.69 9.824 17.15 8.924C16.6936 9.32845 16.3281 9.82492 16.0773 10.3808C15.8265 10.9366 15.6962 11.5392 15.695 12.149C15.695 13.336 16.19 14.462 17.031 15.266ZM6.969 15.266C6.33533 14.2947 5.99859 13.1597 6 12C6 10.876 6.31 9.824 6.85 8.924C7.3062 9.32858 7.67168 9.82507 7.92244 10.3809C8.1732 10.9367 8.30358 11.5392 8.305 12.149C8.30391 12.7318 8.185 13.3083 7.95541 13.844C7.72582 14.3796 7.39029 14.8633 6.969 15.266ZM12 4C9.87827 4 7.84344 4.84285 6.34315 6.34315C4.84285 7.84344 4 9.87827 4 12C4 14.1217 4.84285 16.1566 6.34315 17.6569C7.84344 19.1571 9.87827 20 12 20C14.1217 20 16.1566 19.1571 17.6569 17.6569C19.1571 16.1566 20 14.1217 20 12C20 9.87827 19.1571 7.84344 17.6569 6.34315C16.1566 4.84285 14.1217 4 12 4Z" fill="#42526E"/>
</svg>
