<svg width="24" height="24" viewBox="0 0 24 24" fill="none" xmlns="http://www.w3.org/2000/svg">
<rect width="24" height="24" fill="white" fill-opacity="0.01"/>
<path d="M8.70303 11.475C8.46603 11.222 8.09303 11.236 7.93603 11.562L4.05003 19.33C4.01454 19.4008 3.99775 19.4794 4.00125 19.5585C4.00474 19.6376 4.02841 19.7145 4.07001 19.7818C4.1116 19.8492 4.16973 19.9047 4.23887 19.9433C4.30802 19.9818 4.38587 20.002 4.46503 20.002H9.87703C9.96397 20.0036 10.0495 19.9799 10.1232 19.9337C10.1969 19.8876 10.2555 19.8209 10.292 19.742C11.459 17.334 10.752 13.665 8.70203 11.475H8.70303ZM11.554 4.41C9.38003 7.853 9.52403 11.667 10.956 14.53L13.564 19.747C13.642 19.906 13.804 20.007 13.98 20.007H19.391C19.4701 20.0071 19.548 19.987 19.6171 19.9486C19.6863 19.9102 19.7444 19.8547 19.7861 19.7875C19.8278 19.7203 19.8516 19.6435 19.8553 19.5645C19.8589 19.4854 19.8423 19.4068 19.807 19.336C19.807 19.336 12.527 4.769 12.347 4.406C12.18 4.081 11.764 4.074 11.554 4.409V4.41Z" fill="#42526E"/>
</svg>
