<svg width="24" height="24" viewBox="0 0 24 24" fill="none" xmlns="http://www.w3.org/2000/svg">
<rect width="24" height="24" fill="white" fill-opacity="0.01"/>
<path fill-rule="evenodd" clip-rule="evenodd" d="M13 11V7.002C13 6.73678 12.8947 6.48243 12.7071 6.29489C12.5196 6.10736 12.2652 6.002 12 6.002C11.7348 6.002 11.4804 6.10736 11.2929 6.29489C11.1054 6.48243 11 6.73678 11 7.002V11H7.00201C6.7368 11 6.48244 11.1054 6.29491 11.2929C6.10737 11.4804 6.00201 11.7348 6.00201 12C6.00201 12.2652 6.10737 12.5196 6.29491 12.7071C6.48244 12.8946 6.7368 13 7.00201 13H11V16.998C11 17.2632 11.1054 17.5176 11.2929 17.7051C11.4804 17.8926 11.7348 17.998 12 17.998C12.2652 17.998 12.5196 17.8926 12.7071 17.7051C12.8947 17.5176 13 17.2632 13 16.998V13H16.998C17.2632 13 17.5176 12.8946 17.7051 12.7071C17.8927 12.5196 17.998 12.2652 17.998 12C17.998 11.7348 17.8927 11.4804 17.7051 11.2929C17.5176 11.1054 17.2632 11 16.998 11H13Z" fill="#42526E"/>
</svg>
