<svg width="24" height="24" viewBox="0 0 24 24" fill="none" xmlns="http://www.w3.org/2000/svg">
<rect width="24" height="24" fill="white" fill-opacity="0.01"/>
<path fill-rule="evenodd" clip-rule="evenodd" d="M12 21C10.8181 21 9.64778 20.7672 8.55585 20.3149C7.46392 19.8626 6.47177 19.1997 5.63604 18.364C4.80031 17.5282 4.13738 16.5361 3.68508 15.4442C3.23279 14.3522 3 13.1819 3 12C3 10.8181 3.23279 9.64778 3.68508 8.55585C4.13738 7.46392 4.80031 6.47177 5.63604 5.63604C6.47177 4.80031 7.46392 4.13738 8.55585 3.68508C9.64778 3.23279 10.8181 3 12 3C14.3869 3 16.6761 3.94821 18.364 5.63604C20.0518 7.32387 21 9.61305 21 12C21 14.3869 20.0518 16.6761 18.364 18.364C16.6761 20.0518 14.3869 21 12 21ZM12 19C12.9193 19 13.8295 18.8189 14.6788 18.4672C15.5281 18.1154 16.2997 17.5998 16.9497 16.9497C17.5998 16.2997 18.1154 15.5281 18.4672 14.6788C18.8189 13.8295 19 12.9193 19 12C19 11.0807 18.8189 10.1705 18.4672 9.32122C18.1154 8.47194 17.5998 7.70026 16.9497 7.05025C16.2997 6.40024 15.5281 5.88463 14.6788 5.53284C13.8295 5.18106 12.9193 5 12 5C10.1435 5 8.36301 5.7375 7.05025 7.05025C5.7375 8.36301 5 10.1435 5 12C5 13.8565 5.7375 15.637 7.05025 16.9497C8.36301 18.2625 10.1435 19 12 19ZM8.05 14.197C7.883 13.72 8.152 13.206 8.651 13.047C9.151 12.888 9.69 13.146 9.856 13.622C9.916 13.796 10.081 14.109 10.351 14.418C10.777 14.906 11.307 15.182 12 15.182C12.693 15.182 13.223 14.906 13.65 14.418C13.92 14.108 14.083 13.796 14.144 13.622C14.31 13.146 14.85 12.888 15.349 13.047C15.848 13.206 16.117 13.72 15.951 14.197C15.7598 14.7068 15.4753 15.1765 15.112 15.582C14.348 16.458 13.306 17 12 17C10.694 17 9.652 16.458 8.888 15.582C8.52472 15.1765 8.2402 14.7068 8.049 14.197H8.05ZM9.5 11C9.10218 11 8.72064 10.842 8.43934 10.5607C8.15804 10.2794 8 9.89782 8 9.5C8 9.10218 8.15804 8.72064 8.43934 8.43934C8.72064 8.15804 9.10218 8 9.5 8C9.89782 8 10.2794 8.15804 10.5607 8.43934C10.842 8.72064 11 9.10218 11 9.5C11 9.89782 10.842 10.2794 10.5607 10.5607C10.2794 10.842 9.89782 11 9.5 11ZM14.5 11C14.1022 11 13.7206 10.842 13.4393 10.5607C13.158 10.2794 13 9.89782 13 9.5C13 9.10218 13.158 8.72064 13.4393 8.43934C13.7206 8.15804 14.1022 8 14.5 8C14.8978 8 15.2794 8.15804 15.5607 8.43934C15.842 8.72064 16 9.10218 16 9.5C16 9.89782 15.842 10.2794 15.5607 10.5607C15.2794 10.842 14.8978 11 14.5 11Z" fill="#42526E"/>
</svg>
