<svg width="24" height="24" viewBox="0 0 24 24" fill="none" xmlns="http://www.w3.org/2000/svg">
<rect width="24" height="24" fill="white" fill-opacity="0.01"/>
<path fill-rule="evenodd" clip-rule="evenodd" d="M6 12.235V18.681C6 19.218 6.45 19.658 7 19.658C7.55 19.658 8 19.218 8 18.681V12.903C9.17 12.562 10.389 12.858 11.768 13.193C12.75 13.431 13.804 13.688 14.898 13.688C15.7793 13.6974 16.6509 13.5034 17.445 13.121C17.6139 13.039 17.7562 12.911 17.8558 12.7519C17.9554 12.5927 18.0081 12.4087 18.008 12.221V5.466C18.0086 5.29626 17.966 5.12916 17.884 4.98051C17.8021 4.83185 17.6836 4.70655 17.5397 4.61645C17.3959 4.52635 17.2314 4.47444 17.0619 4.46561C16.8924 4.45678 16.7234 4.49133 16.571 4.566C15.226 5.22 13.84 4.883 12.24 4.495C10.511 4.075 8.553 3.6 6.562 4.567C6.39348 4.64911 6.25143 4.77693 6.15205 4.93589C6.05268 5.09485 6 5.27854 6 5.466V12.235ZM9.111 10.755C10.205 10.755 11.259 11.011 12.24 11.25C13.621 11.585 14.84 11.88 16.008 11.539V6.836C14.52 7.106 13.078 6.756 11.768 6.438C10.389 6.103 9.17 5.806 8 6.148V10.852C8.36666 10.7863 8.7385 10.7539 9.111 10.755Z" fill="#42526E"/>
</svg>
