<svg width="24" height="24" viewBox="0 0 24 24" fill="none" xmlns="http://www.w3.org/2000/svg">
<rect width="24" height="24" fill="white" fill-opacity="0.01"/>
<path fill-rule="evenodd" clip-rule="evenodd" d="M9.425 4.798V4.803L9.271 7H4.995C4.86834 6.99828 4.74279 7.0239 4.62693 7.07511C4.51106 7.12631 4.4076 7.2019 4.3236 7.29672C4.2396 7.39154 4.17704 7.50336 4.14018 7.62456C4.10331 7.74575 4.09302 7.87347 4.11 7.999L5.319 19C5.379 19.552 5.875 19.999 6.427 19.999H17.99C18.5215 20.0001 19.0317 19.7901 19.4086 19.4153C19.7854 19.0405 19.9981 18.5315 20 18V14.01C20.0016 13.4841 19.8994 12.9631 19.6993 12.4768C19.4992 11.9905 19.2052 11.5484 18.834 11.1759C18.4628 10.8034 18.0217 10.5078 17.5361 10.306C17.0505 10.1043 16.5299 10.0003 16.004 10H13.56L13.854 7.999C13.934 7.447 13.554 7 13.004 7H11.276L11.351 5.93L14.353 6.14C14.616 6.15593 14.8748 6.06739 15.0729 5.89361C15.271 5.71984 15.3925 5.47488 15.411 5.212C15.4211 5.08152 15.4053 4.95034 15.3645 4.82599C15.3237 4.70164 15.2588 4.58658 15.1734 4.48742C15.0879 4.38826 14.9838 4.30696 14.8669 4.2482C14.7499 4.18944 14.6225 4.15436 14.492 4.145L10.484 3.865C10.22 3.84883 9.9603 3.93793 9.76182 4.1128C9.56334 4.28766 9.44223 4.53404 9.425 4.798ZM18 15V13.998C17.9995 13.4683 17.7888 12.9604 17.4142 12.5858C17.0396 12.2112 16.5317 12.0005 16.002 12H11.998C11.7354 11.9993 11.4753 12.0506 11.2326 12.1507C10.9899 12.2509 10.7694 12.3981 10.5837 12.5837C10.3981 12.7694 10.2509 12.9899 10.1507 13.2326C10.0506 13.4753 9.99934 13.7354 10 13.998V15H18ZM18 17V18H10V17H18ZM11.889 10.001L12 9H6L7 18H8V14.01C7.99902 12.967 8.40469 11.9646 9.13084 11.2159C9.85699 10.4671 10.8464 10.031 11.889 10V10.001Z" fill="#42526E"/>
</svg>
