<svg width="24" height="24" viewBox="0 0 24 24" fill="none" xmlns="http://www.w3.org/2000/svg">
<rect width="24" height="24" fill="white" fill-opacity="0.01"/>
<path fill-rule="evenodd" clip-rule="evenodd" d="M12 4C7.588 4 4 7.588 4 12C4 16.412 7.588 20 12 20C16.412 20 20 16.412 20 12C20 7.588 16.412 4 12 4ZM12 18.222C10.3505 18.2199 8.76911 17.5637 7.60272 16.3973C6.43633 15.2309 5.78012 13.6495 5.778 12C5.78012 10.3505 6.43633 8.76911 7.60272 7.60272C8.76911 6.43633 10.3505 5.78012 12 5.778C13.6495 5.78012 15.2309 6.43633 16.3973 7.60272C17.5637 8.76911 18.2199 10.3505 18.222 12C18.2199 13.6495 17.5637 15.2309 16.3973 16.3973C15.2309 17.5637 13.6495 18.2199 12 18.222ZM12.889 11.632V8.448C12.889 7.959 12.489 7.559 12 7.559C11.511 7.559 11.111 7.959 11.111 8.449V12.004C11.111 12.252 11.214 12.475 11.379 12.637L13.574 14.831C13.741 14.9972 13.9669 15.0904 14.2025 15.0904C14.4381 15.0904 14.664 14.9972 14.831 14.831C14.9969 14.6641 15.0899 14.4383 15.0899 14.203C15.0899 13.9677 14.9969 13.7419 14.831 13.575L12.889 11.632Z" fill="#42526E"/>
</svg>
