<svg width="24" height="24" viewBox="0 0 24 24" fill="none" xmlns="http://www.w3.org/2000/svg">
<rect width="24" height="24" fill="white" fill-opacity="0.01"/>
<path fill-rule="evenodd" clip-rule="evenodd" d="M5.83594 6.95L2.01094 16.92C1.9817 16.9958 1.97136 17.0776 1.98082 17.1582C1.99029 17.2389 2.01927 17.3161 2.06525 17.3831C2.11124 17.45 2.17286 17.5048 2.24476 17.5426C2.31667 17.5804 2.3967 17.6001 2.47794 17.6H3.68594C3.7887 17.6 3.88895 17.5683 3.97304 17.5092C4.05714 17.4502 4.121 17.3666 4.15594 17.27L4.83894 15.393C4.87388 15.2964 4.93774 15.2128 5.02184 15.1538C5.10594 15.0947 5.20618 15.063 5.30894 15.063H9.11994C9.2227 15.063 9.32295 15.0947 9.40704 15.1538C9.49114 15.2128 9.555 15.2964 9.58994 15.393L10.2729 17.271C10.308 17.3674 10.372 17.4508 10.4561 17.5096C10.5401 17.5685 10.6403 17.6 10.7429 17.6H12.0149C12.096 17.6001 12.1759 17.5805 12.2477 17.5429C12.3195 17.5053 12.3811 17.4508 12.4272 17.384C12.4732 17.3173 12.5024 17.2404 12.5121 17.1599C12.5218 17.0794 12.5118 16.9978 12.4829 16.922L8.68494 6.95C8.63425 6.81743 8.54447 6.70341 8.42749 6.62304C8.31051 6.54267 8.17187 6.49976 8.02994 6.5H6.48994C6.34819 6.49997 6.20976 6.54297 6.09298 6.62332C5.9762 6.70368 5.88657 6.81759 5.83594 6.95ZM7.40194 9.407L8.65194 12.821C8.66306 12.8513 8.6667 12.8837 8.66256 12.9157C8.65842 12.9477 8.64662 12.9782 8.62815 13.0046C8.60969 13.031 8.58512 13.0526 8.55653 13.0674C8.52793 13.0823 8.49617 13.09 8.46394 13.09H5.96594C5.93371 13.09 5.90195 13.0823 5.87336 13.0674C5.84477 13.0526 5.82019 13.031 5.80173 13.0046C5.78327 12.9782 5.77146 12.9477 5.76732 12.9157C5.76318 12.8837 5.76682 12.8513 5.77794 12.821L7.02694 9.407C7.04115 9.36872 7.06673 9.33571 7.10025 9.3124C7.13376 9.28909 7.17361 9.2766 7.21444 9.2766C7.25527 9.2766 7.29512 9.28909 7.32864 9.3124C7.36215 9.33571 7.38773 9.36872 7.40194 9.407ZM17.5499 15.872C18.7719 15.872 19.6919 14.862 19.6919 13.269C19.6919 11.675 18.7899 10.737 17.5499 10.737C16.2939 10.737 15.3719 11.675 15.3719 13.269C15.3719 14.844 16.2759 15.872 17.5499 15.872ZM19.7109 16.474C19.3389 17.307 18.4349 17.907 17.2659 17.907C14.6989 17.907 12.9999 15.907 12.9999 13.269C12.9999 10.718 14.6639 8.7 17.1949 8.7C18.7549 8.7 19.4789 9.533 19.6919 10.029V9.689C19.6919 9.442 19.6989 9.297 19.9049 9.113C20.0419 8.991 20.2489 8.936 20.5249 8.948H21.2889C21.3788 8.93484 21.4704 8.94292 21.5565 8.97157C21.6427 9.00022 21.7209 9.04866 21.7849 9.113C21.9979 9.316 21.9769 9.534 21.9769 9.69V16.084C21.9769 16.311 21.9849 16.61 21.9999 16.983C21.9999 17.174 21.9589 17.319 21.8759 17.417C21.8159 17.4941 21.7387 17.5561 21.6506 17.5981C21.5624 17.6401 21.4656 17.661 21.3679 17.659H20.4379C20.2449 17.659 19.9879 17.575 19.9049 17.475C19.8219 17.375 19.7399 17.245 19.7219 16.943C19.7151 16.8218 19.7118 16.7004 19.7119 16.579V16.474H19.7109Z" fill="#42526E"/>
</svg>
