<svg width="24" height="24" viewBox="0 0 24 24" fill="none" xmlns="http://www.w3.org/2000/svg">
<rect width="24" height="24" fill="white" fill-opacity="0.01"/>
<path fill-rule="evenodd" clip-rule="evenodd" d="M13 16H16.625L14.125 12H15.333L12 7L8.667 12H9.875L7.375 16H11V18H13V16ZM17.33 13.94L18.857 16.486C18.9479 16.6377 18.9969 16.8108 18.9991 16.9876C19.0013 17.1645 18.9566 17.3387 18.8695 17.4926C18.7824 17.6465 18.656 17.7746 18.5032 17.8637C18.3505 17.9528 18.1769 17.9999 18 18H15C14.997 19.105 14.1 20 13.002 20H10.998C10.7355 19.9999 10.4756 19.948 10.2331 19.8475C9.99062 19.7469 9.77032 19.5995 9.58479 19.4138C9.39926 19.2281 9.25212 19.0076 9.15179 18.7651C9.05145 18.5225 8.99987 18.2625 9 18H6C5.82316 17.9999 5.64951 17.9528 5.49677 17.8637C5.34403 17.7746 5.21766 17.6465 5.13054 17.4926C5.04343 17.3387 4.99868 17.1645 5.00087 16.9876C5.00306 16.8108 5.0521 16.6377 5.143 16.486L6.67 13.94C6.07 13.71 5.782 12.872 6.186 12.243L11.186 4.465C11.586 3.845 12.415 3.845 12.814 4.465L17.814 12.243C18.218 12.872 17.931 13.71 17.33 13.94Z" fill="#42526E"/>
</svg>
