<svg width="24" height="24" viewBox="0 0 24 24" fill="none" xmlns="http://www.w3.org/2000/svg">
<rect width="24" height="24" fill="white" fill-opacity="0.01"/>
<path fill-rule="evenodd" clip-rule="evenodd" d="M12 4C7.588 4 4 7.588 4 12C4 16.412 7.588 20 12 20C16.412 20 20 16.412 20 12C20 7.588 16.412 4 12 4ZM12 18.222C10.3505 18.2199 8.76911 17.5637 7.60272 16.3973C6.43633 15.2309 5.78012 13.6495 5.778 12C5.78012 10.3505 6.43633 8.76911 7.60272 7.60272C8.76911 6.43633 10.3505 5.78012 12 5.778C13.6495 5.78012 15.2309 6.43633 16.3973 7.60272C17.5637 8.76911 18.2199 10.3505 18.222 12C18.2199 13.6495 17.5637 15.2309 16.3973 16.3973C15.2309 17.5637 13.6495 18.2199 12 18.222ZM14.83 14C14.6234 14.5855 14.2403 15.0926 13.7334 15.4512C13.2265 15.8099 12.6209 16.0025 12 16.0025C11.3791 16.0025 10.7735 15.8099 10.2666 15.4512C9.75974 15.0926 9.3766 14.5855 9.17 14H14.83ZM14 11C14.2652 11 14.5196 10.8946 14.7071 10.7071C14.8946 10.5196 15 10.2652 15 10C15 9.73478 14.8946 9.48043 14.7071 9.29289C14.5196 9.10536 14.2652 9 14 9C13.7348 9 13.4804 9.10536 13.2929 9.29289C13.1054 9.48043 13 9.73478 13 10C13 10.2652 13.1054 10.5196 13.2929 10.7071C13.4804 10.8946 13.7348 11 14 11ZM10 11C10.2652 11 10.5196 10.8946 10.7071 10.7071C10.8946 10.5196 11 10.2652 11 10C11 9.73478 10.8946 9.48043 10.7071 9.29289C10.5196 9.10536 10.2652 9 10 9C9.73478 9 9.48043 9.10536 9.29289 9.29289C9.10536 9.48043 9 9.73478 9 10C9 10.2652 9.10536 10.5196 9.29289 10.7071C9.48043 10.8946 9.73478 11 10 11Z" fill="#42526E"/>
</svg>
