<svg width="24" height="24" viewBox="0 0 24 24" fill="none" xmlns="http://www.w3.org/2000/svg">
<rect width="24" height="24" fill="white" fill-opacity="0.01"/>
<path d="M12 18C13.5913 18 15.1174 17.3679 16.2426 16.2426C17.3679 15.1174 18 13.5913 18 12C18 10.4087 17.3679 8.88258 16.2426 7.75736C15.1174 6.63214 13.5913 6 12 6C10.4087 6 8.88258 6.63214 7.75736 7.75736C6.63214 8.88258 6 10.4087 6 12C6 13.5913 6.63214 15.1174 7.75736 16.2426C8.88258 17.3679 10.4087 18 12 18ZM12 20C9.87827 20 7.84344 19.1571 6.34315 17.6569C4.84285 16.1566 4 14.1217 4 12C4 9.87827 4.84285 7.84344 6.34315 6.34315C7.84344 4.84285 9.87827 4 12 4C14.1217 4 16.1566 4.84285 17.6569 6.34315C19.1571 7.84344 20 9.87827 20 12C20 14.1217 19.1571 16.1566 17.6569 17.6569C16.1566 19.1571 14.1217 20 12 20Z" fill="#42526E"/>
<path d="M14.301 9.485C14.4914 9.30369 14.7456 9.20467 15.0085 9.20938C15.2714 9.21409 15.5218 9.32215 15.7056 9.51016C15.8894 9.69817 15.9918 9.95101 15.9906 10.2139C15.9893 10.4769 15.8846 10.7287 15.699 10.915L11.438 15.081C11.2498 15.265 10.9966 15.3673 10.7334 15.3658C10.4701 15.3643 10.2181 15.2591 10.032 15.073L7.992 13.033C7.89656 12.9407 7.82045 12.8303 7.76813 12.7082C7.71581 12.5862 7.68832 12.455 7.68726 12.3222C7.6862 12.1894 7.7116 12.0577 7.76197 11.9349C7.81233 11.812 7.88667 11.7004 7.98062 11.6066C8.07458 11.5128 8.18629 11.4386 8.30922 11.3884C8.43215 11.3382 8.56384 11.313 8.69662 11.3143C8.8294 11.3155 8.9606 11.3432 9.08256 11.3957C9.20453 11.4482 9.31482 11.5244 9.407 11.62L10.747 12.96L14.3 9.484L14.301 9.485Z" fill="#42526E"/>
</svg>
