<svg width="24" height="24" viewBox="0 0 24 24" fill="none" xmlns="http://www.w3.org/2000/svg">
<rect width="24" height="24" fill="white" fill-opacity="0.01"/>
<path fill-rule="evenodd" clip-rule="evenodd" d="M12 9.44L13.76 7.696C14.2288 7.2331 14.8611 6.97353 15.52 6.97353C16.1788 6.97353 16.8112 7.2331 17.28 7.696C17.5109 7.92398 17.6942 8.19554 17.8193 8.49492C17.9444 8.79429 18.0088 9.11553 18.0088 9.44C18.0088 9.76447 17.9444 10.0857 17.8193 10.3851C17.6942 10.6845 17.5109 10.956 17.28 11.184L12 16.417L6.71999 11.185C6.48882 10.957 6.30525 10.6853 6.17996 10.3857C6.05467 10.0862 5.99015 9.76471 5.99015 9.44C5.99015 9.11529 6.05467 8.79382 6.17996 8.49426C6.30525 8.1947 6.48882 7.92302 6.71999 7.695C7.18882 7.2321 7.82115 6.97253 8.47999 6.97253C9.13884 6.97253 9.77116 7.2321 10.24 7.695V7.696L12 9.44ZM5.31599 12.583L5.31899 12.587L11.641 18.853C11.7362 18.9481 11.8654 19.0016 12 19.0016C12.1346 19.0016 12.2637 18.9481 12.359 18.853L18.681 12.587L18.684 12.583L18.688 12.58C19.1038 12.1696 19.4339 11.6807 19.6593 11.1417C19.8846 10.6026 20.0006 10.0242 20.0006 9.44C20.0006 8.85577 19.8846 8.27736 19.6593 7.73834C19.4339 7.19932 19.1038 6.71041 18.688 6.3C17.8441 5.46677 16.7059 4.99956 15.52 4.99956C14.3341 4.99956 13.1959 5.46677 12.352 6.3L12.349 6.304L12.345 6.307L12 6.65L11.655 6.308L11.651 6.305L11.648 6.302C10.8041 5.46877 9.66592 5.00156 8.47999 5.00156C7.29407 5.00156 6.15589 5.46877 5.31199 6.302C4.89635 6.7124 4.56634 7.20124 4.3411 7.74017C4.11586 8.2791 3.99988 8.85739 3.99988 9.4415C3.99988 10.0256 4.11586 10.6039 4.3411 11.1428C4.56634 11.6818 4.89635 12.1706 5.31199 12.581L5.31599 12.584V12.583Z" fill="#42526E"/>
</svg>
