<svg width="24" height="24" viewBox="0 0 24 24" fill="none" xmlns="http://www.w3.org/2000/svg">
<rect width="24" height="24" fill="white" fill-opacity="0.01"/>
<path fill-rule="evenodd" clip-rule="evenodd" d="M15.584 17H8.41603L5.70803 19.709C5.51994 19.8958 5.26561 20.0006 5.00053 20.0006C4.73544 20.0006 4.48111 19.8958 4.29303 19.709L4.29103 19.707C4.10423 19.5189 3.99939 19.2646 3.99939 18.9995C3.99939 18.7344 4.10423 18.4801 4.29103 18.292L5.90903 16.675C5.62957 16.4933 5.4 16.2446 5.24124 15.9515C5.08247 15.6585 4.99955 15.3303 5.00003 14.997V6.003C5.00003 4.897 5.89703 4 7.00603 4H16.994C18.102 4 19 4.894 19 6.003V14.997C19.0003 15.3303 18.9173 15.6584 18.7586 15.9514C18.5998 16.2445 18.3704 16.4932 18.091 16.675L19.709 18.292C19.8958 18.4801 20.0007 18.7344 20.0007 18.9995C20.0007 19.2646 19.8958 19.5189 19.709 19.707C19.5211 19.8947 19.2665 20.0003 19.0009 20.0006C18.7354 20.001 18.4805 19.8961 18.292 19.709L15.584 17ZM17 10V6H7.00003V10H17ZM17 12V15H7.00003V12H17ZM15.5 18.997C15.5 19.547 15.05 19.997 14.5 19.997H9.50003C8.95003 19.997 8.50003 19.547 8.50003 18.997C8.50003 18.447 8.95003 17.997 9.50003 17.997H14.5C15.05 17.997 15.5 18.447 15.5 18.997ZM15.7 13.48C15.7 13.7452 15.5947 13.9996 15.4071 14.1871C15.2196 14.3746 14.9652 14.48 14.7 14.48C14.4348 14.48 14.1805 14.3746 13.9929 14.1871C13.8054 13.9996 13.7 13.7452 13.7 13.48C13.7 13.2148 13.8054 12.9604 13.9929 12.7729C14.1805 12.5854 14.4348 12.48 14.7 12.48C14.9652 12.48 15.2196 12.5854 15.4071 12.7729C15.5947 12.9604 15.7 13.2148 15.7 13.48ZM9.00903 14.48C8.74381 14.48 8.48946 14.3746 8.30192 14.1871C8.11438 13.9996 8.00903 13.7452 8.00903 13.48C8.00903 13.2148 8.11438 12.9604 8.30192 12.7729C8.48946 12.5854 8.74381 12.48 9.00903 12.48C9.27424 12.48 9.5286 12.5854 9.71613 12.7729C9.90367 12.9604 10.009 13.2148 10.009 13.48C10.009 13.7452 9.90367 13.9996 9.71613 14.1871C9.5286 14.3746 9.27424 14.48 9.00903 14.48Z" fill="#42526E"/>
</svg>
