<svg viewBox="0 0 640 511" fill="none" xmlns="http://www.w3.org/2000/svg">
<path d="M521.893 72.3879C536.018 72.3879 549.564 77.9989 559.551 87.9864C569.539 97.9739 575.15 111.52 575.15 125.644C575.15 139.769 569.539 153.315 559.551 163.303C549.564 173.29 536.018 178.901 521.893 178.901M7.23058 208.11C3.1351 216.229 1.18666 225.261 1.57089 234.346C1.95511 243.432 4.65921 252.267 9.42555 260.011C14.1919 267.755 20.8617 274.15 28.7996 278.586C36.7375 283.022 45.679 285.351 54.7723 285.353L585.289 289.449C599.414 289.449 612.96 295.06 622.947 305.048C632.935 315.035 638.546 328.581 638.546 342.706C638.546 356.83 632.935 370.376 622.947 380.364C612.96 390.351 599.414 395.962 585.289 395.962L7.23058 208.11ZM25.1534 187.873C22.8761 189.399 20.719 191.097 18.7012 192.953L25.1534 187.873ZM497.559 178.88H54.7723C47.8385 178.873 40.9703 180.223 34.5553 182.854L497.559 178.88Z" stroke="#3E3750" stroke-width="1.5" stroke-miterlimit="10" stroke-linecap="round"/>
<path d="M218.311 72.3878C218.311 86.4018 214.155 100.101 206.369 111.753C198.582 123.405 187.516 132.486 174.568 137.848C161.62 143.21 147.373 144.612 133.629 141.877C119.885 139.141 107.26 132.391 97.3521 122.48C87.4441 112.569 80.6977 99.9429 77.9662 86.1977C75.2347 72.4525 76.6407 58.2059 82.0065 45.2598C87.3722 32.3138 96.4566 21.2497 108.111 13.4668C119.765 5.68402 133.465 1.53208 147.479 1.53614C166.27 1.53614 184.292 9.00084 197.579 22.2881C210.866 35.5754 218.331 53.5968 218.331 72.3878" fill="white"/>
<path d="M147.459 143.239C186.589 143.239 218.311 111.518 218.311 72.3878C218.311 33.2575 186.589 1.53613 147.459 1.53613C108.329 1.53613 76.6073 33.2575 76.6073 72.3878C76.6073 111.518 108.329 143.239 147.459 143.239Z" stroke="#3E3750" stroke-width="1.5" stroke-miterlimit="10" stroke-linecap="round"/>
<path d="M202.907 116.468C187.787 102.569 167.997 94.855 147.459 94.855C126.921 94.855 107.131 102.569 92.0107 116.468" fill="white"/>
<path d="M202.907 116.468C187.787 102.569 167.997 94.855 147.459 94.855C126.921 94.855 107.131 102.569 92.0107 116.468" stroke="#3E3750" stroke-width="1.5" stroke-miterlimit="10" stroke-linecap="round"/>
<path d="M186.049 72.3879C186.049 80.0261 183.784 87.4928 179.54 93.8432C175.295 100.194 169.262 105.142 162.205 108.064C155.147 110.985 147.382 111.747 139.891 110.254C132.4 108.761 125.52 105.079 120.122 99.6754C114.724 94.2715 111.05 87.3878 109.564 79.8953C108.079 72.4029 108.85 64.6382 111.778 57.5837C114.707 50.5292 119.662 44.5018 126.017 40.2641C132.372 36.0264 139.841 33.7688 147.479 33.7769C157.713 33.7877 167.523 37.8605 174.755 45.1002C181.987 52.34 186.049 62.1547 186.049 72.3879" fill="white"/>
<path d="M147.459 110.999C168.783 110.999 186.07 93.7121 186.07 72.3878C186.07 51.0636 168.783 33.7769 147.459 33.7769C126.135 33.7769 108.848 51.0636 108.848 72.3878C108.848 93.7121 126.135 110.999 147.459 110.999Z" stroke="#3E3750" stroke-width="1.5" stroke-miterlimit="10" stroke-linecap="round"/>
<path d="M142.502 66.3044C142.293 67.7692 141.563 69.1095 140.446 70.0791C139.328 71.0487 137.898 71.5826 136.418 71.5826C134.939 71.5826 133.509 71.0487 132.391 70.0791C131.274 69.1095 130.544 67.7692 130.335 66.3044" fill="#E3F4E9"/>
<path d="M142.502 66.3044C142.293 67.7692 141.563 69.1095 140.446 70.0791C139.328 71.0487 137.898 71.5826 136.418 71.5826C134.939 71.5826 133.509 71.0487 132.391 70.0791C131.274 69.1095 130.544 67.7692 130.335 66.3044" stroke="#3E3750" stroke-width="1.5" stroke-miterlimit="10" stroke-linecap="round"/>
<path d="M164.583 66.3044C164.374 67.7692 163.644 69.1095 162.527 70.0791C161.409 71.0487 159.979 71.5826 158.5 71.5826C157.02 71.5826 155.59 71.0487 154.473 70.0791C153.355 69.1095 152.625 67.7692 152.416 66.3044" fill="#E3F4E9"/>
<path d="M164.583 66.3044C164.374 67.7692 163.644 69.1095 162.527 70.0791C161.409 71.0487 159.979 71.5826 158.5 71.5826C157.02 71.5826 155.59 71.0487 154.473 70.0791C153.355 69.1095 152.625 67.7692 152.416 66.3044" stroke="#3E3750" stroke-width="1.5" stroke-miterlimit="10" stroke-linecap="round"/>
<path d="M159.196 84.4526C159.196 87.8697 157.839 91.1468 155.422 93.563C153.006 95.9792 149.729 97.3366 146.312 97.3366C142.895 97.3366 139.618 95.9792 137.202 93.563C134.785 91.1468 133.428 87.8697 133.428 84.4526H159.196Z" fill="#5BBD81"/>
<path d="M229.495 72.3879H521.893" stroke="#3E3750" stroke-width="1.5" stroke-miterlimit="10" stroke-linecap="round"/>
<path d="M468.535 476.789H209.769C207.493 476.789 205.31 475.885 203.701 474.275C202.091 472.666 201.187 470.483 201.187 468.207V120.851C201.187 118.575 202.091 116.392 203.701 114.783C205.31 113.173 207.493 112.269 209.769 112.269H468.535C469.663 112.266 470.782 112.486 471.825 112.916C472.869 113.346 473.817 113.978 474.616 114.775C475.416 115.573 476.05 116.52 476.482 117.562C476.915 118.605 477.137 119.723 477.137 120.851V468.207C477.137 470.483 476.233 472.666 474.624 474.275C473.014 475.885 470.831 476.789 468.555 476.789" fill="#5BBD81"/>
<path d="M468.555 112.187H209.769C205.029 112.187 201.187 116.03 201.187 120.77V468.207C201.187 472.947 205.029 476.789 209.769 476.789H468.555C473.295 476.789 477.137 472.947 477.137 468.207V120.77C477.137 116.03 473.295 112.187 468.555 112.187Z" stroke="#3E3750" stroke-width="1.5" stroke-miterlimit="10" stroke-linecap="round"/>
<path d="M459.583 476.789H200.736C198.46 476.789 196.277 475.885 194.667 474.276C193.058 472.666 192.154 470.483 192.154 468.207V120.851C192.143 119.717 192.357 118.593 192.783 117.542C193.21 116.491 193.84 115.535 194.638 114.73C195.436 113.924 196.386 113.284 197.433 112.848C198.479 112.412 199.602 112.187 200.736 112.187H459.583C460.717 112.187 461.84 112.412 462.887 112.848C463.933 113.284 464.883 113.924 465.681 114.73C466.479 115.535 467.11 116.491 467.536 117.542C467.963 118.593 468.177 119.717 468.166 120.851V468.207C468.166 470.483 467.262 472.666 465.652 474.276C464.042 475.885 461.859 476.789 459.583 476.789" fill="white"/>
<path d="M459.583 112.187H200.798C196.058 112.187 192.215 116.03 192.215 120.77V468.207C192.215 472.947 196.058 476.789 200.798 476.789H459.583C464.323 476.789 468.166 472.947 468.166 468.207V120.77C468.166 116.03 464.323 112.187 459.583 112.187Z" stroke="#3E3750" stroke-width="1.5" stroke-miterlimit="10" stroke-linecap="round"/>
<path d="M443.176 171.486V451.984H217.655V132.998H404.688" fill="white"/>
<path d="M443.176 171.486V451.984H217.655V132.998H404.688" stroke="#3E3750" stroke-width="1.5" stroke-miterlimit="10" stroke-linecap="round"/>
<path d="M272.448 129.024V147.705L276.709 143.444L283.222 149.958L289.715 143.444L296.229 149.958L302.743 143.444L309.256 149.958L315.77 143.444L322.263 149.958L328.777 143.444L335.291 149.958L341.804 143.444L348.318 149.958L354.811 143.444L361.325 149.958L367.839 143.444L374.352 149.958L380.866 143.444L385.106 147.684V129.024" fill="white"/>
<path d="M272.448 129.024V147.705L276.709 143.444L283.222 149.958L289.715 143.444L296.229 149.958L302.743 143.444L309.256 149.958L315.77 143.444L322.263 149.958L328.777 143.444L335.291 149.958L341.804 143.444L348.318 149.958L354.811 143.444L361.325 149.958L367.839 143.444L374.352 149.958L380.866 143.444L385.106 147.684V129.024" stroke="#3E3750" stroke-width="1.5" stroke-miterlimit="10" stroke-linecap="round"/>
<path d="M346.782 104.731V104.342C346.782 99.5611 344.883 94.9763 341.502 91.5959C338.122 88.2155 333.537 86.3164 328.757 86.3164C323.976 86.3164 319.391 88.2155 316.011 91.5959C312.63 94.9763 310.731 99.5611 310.731 104.342V104.731H278.163C277.363 104.731 276.572 104.891 275.836 105.201C275.099 105.512 274.432 105.967 273.875 106.54C273.317 107.113 272.88 107.792 272.589 108.537C272.298 109.281 272.16 110.077 272.182 110.876L272.428 129.045H385.086L384.799 110.61C384.768 109.064 384.141 107.59 383.05 106.494C381.958 105.399 380.486 104.767 378.941 104.731H346.782ZM328.777 110.999C327.464 110.999 326.181 110.61 325.09 109.88C323.999 109.151 323.148 108.115 322.646 106.902C322.143 105.689 322.012 104.355 322.268 103.067C322.524 101.78 323.156 100.598 324.084 99.6694C325.012 98.7413 326.195 98.1092 327.482 97.8531C328.77 97.597 330.104 97.7285 331.317 98.2308C332.529 98.7331 333.566 99.5837 334.295 100.675C335.024 101.766 335.414 103.05 335.414 104.362C335.414 105.234 335.242 106.097 334.909 106.902C334.575 107.707 334.086 108.439 333.47 109.055C332.854 109.671 332.122 110.16 331.317 110.494C330.512 110.827 329.649 110.999 328.777 110.999" fill="#8AD0A5"/>
<path d="M385.086 129.045V109.647C385.086 108.24 384.527 106.89 383.532 105.896C382.537 104.901 381.187 104.342 379.78 104.342H346.802C346.802 99.5611 344.903 94.9763 341.523 91.5959C338.143 88.2155 333.558 86.3164 328.777 86.3164C323.996 86.3164 319.412 88.2155 316.031 91.5959C312.651 94.9763 310.752 99.5611 310.752 104.342H277.753C277.055 104.339 276.363 104.474 275.717 104.74C275.071 105.005 274.484 105.395 273.989 105.888C273.494 106.381 273.101 106.967 272.833 107.612C272.566 108.257 272.428 108.948 272.428 109.647V129.045" stroke="#3E3750" stroke-width="1.5" stroke-miterlimit="10" stroke-linecap="round"/>
<path d="M328.777 110.978C332.442 110.978 335.414 108.007 335.414 104.342C335.414 100.677 332.442 97.7053 328.777 97.7053C325.112 97.7053 322.141 100.677 322.141 104.342C322.141 108.007 325.112 110.978 328.777 110.978Z" stroke="#3E3750" stroke-width="1.5" stroke-miterlimit="10" stroke-linecap="round"/>
<path d="M396.741 214.665H301.227C300.684 214.665 300.163 214.449 299.779 214.065C299.395 213.681 299.179 213.16 299.179 212.616C299.179 212.073 299.395 211.552 299.779 211.168C300.163 210.784 300.684 210.568 301.227 210.568H396.72C397.263 210.568 397.784 210.784 398.168 211.168C398.553 211.552 398.768 212.073 398.768 212.616C398.768 213.16 398.553 213.681 398.168 214.065C397.784 214.449 397.263 214.665 396.72 214.665H396.741ZM377.445 229.003H301.227C300.684 229.003 300.163 228.787 299.779 228.403C299.395 228.019 299.179 227.498 299.179 226.955C299.179 226.411 299.395 225.89 299.779 225.506C300.163 225.122 300.684 224.906 301.227 224.906H377.445C377.989 224.906 378.51 225.122 378.894 225.506C379.278 225.89 379.494 226.411 379.494 226.955C379.494 227.498 379.278 228.019 378.894 228.403C378.51 228.787 377.989 229.003 377.445 229.003Z" fill="#3E3750"/>
<path d="M272.12 231.748H250.285C249.378 231.748 248.508 231.387 247.866 230.746C247.225 230.104 246.865 229.234 246.865 228.327V206.492C246.865 205.585 247.225 204.715 247.866 204.073C248.508 203.432 249.378 203.071 250.285 203.071H272.1C273.007 203.071 273.877 203.432 274.519 204.073C275.16 204.715 275.521 205.585 275.521 206.492V228.307C275.521 229.214 275.16 230.084 274.519 230.725C273.877 231.367 273.007 231.727 272.1 231.727" fill="#5BBD81"/>
<path d="M280.969 207.168C281.331 206.806 281.616 206.374 281.806 205.899C281.996 205.423 282.087 204.914 282.073 204.402C282.06 203.891 281.942 203.387 281.728 202.922C281.513 202.457 281.206 202.041 280.826 201.699C280.065 201.058 279.089 200.731 278.096 200.784C277.103 200.838 276.167 201.267 275.48 201.985L263.19 214.275C262.999 214.457 262.746 214.558 262.483 214.558C262.22 214.558 261.967 214.457 261.776 214.275L258.868 211.613C258.456 211.235 257.965 210.954 257.431 210.79C256.897 210.626 256.333 210.582 255.78 210.663C255.227 210.743 254.699 210.945 254.234 211.255C253.769 211.564 253.379 211.973 253.091 212.452C252.647 213.227 252.483 214.131 252.629 215.012C252.774 215.893 253.22 216.696 253.89 217.286L260.916 223.698C261.397 224.162 262.04 224.422 262.708 224.422C263.377 224.422 264.019 224.162 264.501 223.698L280.969 207.168Z" fill="#E3F4E9"/>
<path d="M280.969 207.168C281.331 206.806 281.616 206.374 281.806 205.899C281.996 205.423 282.087 204.914 282.073 204.402C282.06 203.891 281.942 203.387 281.728 202.922C281.513 202.457 281.206 202.041 280.826 201.699C280.065 201.058 279.089 200.731 278.096 200.784C277.103 200.838 276.167 201.267 275.48 201.985L263.19 214.275C262.999 214.457 262.746 214.558 262.483 214.558C262.22 214.558 261.967 214.457 261.776 214.275L258.868 211.613C258.456 211.235 257.965 210.954 257.431 210.79C256.897 210.626 256.333 210.582 255.78 210.663C255.227 210.743 254.699 210.945 254.234 211.255C253.769 211.564 253.379 211.973 253.091 212.452C252.647 213.227 252.483 214.131 252.629 215.012C252.774 215.893 253.22 216.696 253.89 217.286L260.916 223.698C261.397 224.162 262.04 224.422 262.708 224.422C263.377 224.422 264.019 224.162 264.501 223.698L280.969 207.168Z" stroke="#3E3750" stroke-width="1.5" stroke-miterlimit="10" stroke-linecap="round"/>
<path d="M396.741 272.878H301.227C300.684 272.878 300.163 272.662 299.779 272.278C299.395 271.894 299.179 271.373 299.179 270.83C299.179 270.287 299.395 269.766 299.779 269.381C300.163 268.997 300.684 268.781 301.227 268.781H396.72C397.263 268.781 397.784 268.997 398.168 269.381C398.553 269.766 398.768 270.287 398.768 270.83C398.768 271.373 398.553 271.894 398.168 272.278C397.784 272.662 397.263 272.878 396.72 272.878H396.741ZM377.445 287.216H301.227C300.684 287.216 300.163 287.001 299.779 286.617C299.395 286.232 299.179 285.711 299.179 285.168C299.179 284.625 299.395 284.104 299.779 283.72C300.163 283.336 300.684 283.12 301.227 283.12H377.445C377.989 283.12 378.51 283.336 378.894 283.72C379.278 284.104 379.494 284.625 379.494 285.168C379.494 285.711 379.278 286.232 378.894 286.617C378.51 287.001 377.989 287.216 377.445 287.216Z" fill="#3E3750"/>
<path d="M272.12 289.941H250.285C249.378 289.941 248.508 289.58 247.866 288.939C247.225 288.297 246.865 287.427 246.865 286.52V264.705C246.865 263.798 247.225 262.928 247.866 262.287C248.508 261.645 249.378 261.285 250.285 261.285H272.1C273.007 261.285 273.877 261.645 274.519 262.287C275.16 262.928 275.521 263.798 275.521 264.705V286.52C275.521 287.427 275.16 288.297 274.519 288.939C273.877 289.58 273.007 289.941 272.1 289.941" fill="#5BBD81"/>
<path d="M280.969 265.381C281.331 265.02 281.616 264.588 281.806 264.112C281.996 263.637 282.087 263.128 282.073 262.616C282.06 262.104 281.942 261.601 281.728 261.136C281.513 260.671 281.206 260.255 280.826 259.912C280.065 259.272 279.089 258.945 278.096 258.998C277.103 259.051 276.167 259.481 275.48 260.199L263.19 272.489C262.999 272.671 262.746 272.772 262.483 272.772C262.22 272.772 261.967 272.671 261.776 272.489L258.868 269.826C258.456 269.449 257.965 269.168 257.431 269.004C256.897 268.84 256.333 268.796 255.78 268.876C255.227 268.957 254.699 269.159 254.234 269.469C253.769 269.778 253.379 270.187 253.091 270.666C252.647 271.44 252.483 272.345 252.629 273.226C252.774 274.107 253.22 274.91 253.89 275.5L260.916 281.911C261.397 282.376 262.04 282.635 262.708 282.635C263.377 282.635 264.019 282.376 264.501 281.911L280.969 265.381Z" fill="#E3F4E9"/>
<path d="M280.969 265.381C281.331 265.02 281.616 264.588 281.806 264.112C281.996 263.637 282.087 263.128 282.073 262.616C282.06 262.104 281.942 261.601 281.728 261.136C281.513 260.671 281.206 260.255 280.826 259.912C280.065 259.272 279.089 258.945 278.096 258.998C277.103 259.051 276.167 259.481 275.48 260.199L263.19 272.489C262.999 272.671 262.746 272.772 262.483 272.772C262.22 272.772 261.967 272.671 261.776 272.489L258.868 269.826C258.456 269.449 257.965 269.168 257.431 269.004C256.897 268.84 256.333 268.796 255.78 268.876C255.227 268.957 254.699 269.159 254.234 269.469C253.769 269.778 253.379 270.187 253.091 270.666C252.647 271.44 252.483 272.345 252.629 273.226C252.774 274.107 253.22 274.91 253.89 275.5L260.916 281.911C261.397 282.376 262.04 282.635 262.708 282.635C263.377 282.635 264.019 282.376 264.501 281.911L280.969 265.381Z" stroke="#3E3750" stroke-width="1.5" stroke-miterlimit="10" stroke-linecap="round"/>
<path d="M396.741 331.092H301.227C300.684 331.092 300.163 330.876 299.779 330.492C299.395 330.108 299.179 329.587 299.179 329.043C299.179 328.5 299.395 327.979 299.779 327.595C300.163 327.211 300.684 326.995 301.227 326.995H396.72C397.263 326.995 397.784 327.211 398.168 327.595C398.553 327.979 398.768 328.5 398.768 329.043C398.768 329.587 398.553 330.108 398.168 330.492C397.784 330.876 397.263 331.092 396.72 331.092H396.741ZM377.445 345.43H301.227C300.684 345.43 300.163 345.214 299.779 344.83C299.395 344.446 299.179 343.925 299.179 343.382C299.179 342.839 299.395 342.318 299.779 341.933C300.163 341.549 300.684 341.333 301.227 341.333H377.445C377.989 341.333 378.51 341.549 378.894 341.933C379.278 342.318 379.494 342.839 379.494 343.382C379.494 343.925 379.278 344.446 378.894 344.83C378.51 345.214 377.989 345.43 377.445 345.43Z" fill="#3E3750"/>
<path d="M272.12 348.216H250.285C249.378 348.216 248.508 347.855 247.866 347.214C247.225 346.572 246.865 345.702 246.865 344.795V322.898C246.865 321.991 247.225 321.121 247.866 320.48C248.508 319.838 249.378 319.478 250.285 319.478H272.1C273.007 319.478 273.877 319.838 274.519 320.48C275.16 321.121 275.521 321.991 275.521 322.898V344.734C275.521 345.641 275.16 346.511 274.519 347.152C273.877 347.794 273.007 348.154 272.1 348.154" fill="#5BBD81"/>
<path d="M280.969 323.636C281.331 323.274 281.616 322.842 281.806 322.367C281.996 321.891 282.087 321.382 282.073 320.87C282.06 320.359 281.942 319.855 281.728 319.39C281.513 318.925 281.206 318.509 280.826 318.167C280.065 317.526 279.089 317.199 278.096 317.252C277.103 317.306 276.167 317.735 275.48 318.454L263.19 330.743C262.999 330.925 262.746 331.026 262.483 331.026C262.22 331.026 261.967 330.925 261.776 330.743L258.868 328.081C258.456 327.703 257.965 327.423 257.431 327.258C256.897 327.094 256.333 327.05 255.78 327.131C255.227 327.211 254.699 327.413 254.234 327.723C253.769 328.032 253.379 328.442 253.091 328.92C252.647 329.695 252.483 330.599 252.629 331.48C252.774 332.361 253.22 333.165 253.89 333.755L260.916 340.166C261.397 340.63 262.04 340.89 262.708 340.89C263.377 340.89 264.019 340.63 264.501 340.166L280.969 323.636Z" fill="#E3F4E9"/>
<path d="M280.969 323.636C281.331 323.274 281.616 322.842 281.806 322.367C281.996 321.891 282.087 321.382 282.073 320.87C282.06 320.359 281.942 319.855 281.728 319.39C281.513 318.925 281.206 318.509 280.826 318.167C280.065 317.526 279.089 317.199 278.096 317.252C277.103 317.306 276.167 317.735 275.48 318.454L263.19 330.743C262.999 330.925 262.746 331.026 262.483 331.026C262.22 331.026 261.967 330.925 261.776 330.743L258.868 328.081C258.456 327.703 257.965 327.423 257.431 327.258C256.897 327.094 256.333 327.05 255.78 327.131C255.227 327.211 254.699 327.413 254.234 327.723C253.769 328.032 253.379 328.442 253.091 328.92C252.647 329.695 252.483 330.599 252.629 331.48C252.774 332.361 253.22 333.165 253.89 333.755L260.916 340.166C261.397 340.63 262.04 340.89 262.708 340.89C263.377 340.89 264.019 340.63 264.501 340.166L280.969 323.636Z" stroke="#3E3750" stroke-width="1.5" stroke-miterlimit="10" stroke-linecap="round"/>
<path d="M396.741 389.285H301.227C300.684 389.285 300.163 389.069 299.779 388.685C299.395 388.301 299.179 387.78 299.179 387.236C299.179 386.693 299.395 386.172 299.779 385.788C300.163 385.404 300.684 385.188 301.227 385.188H396.72C397.263 385.188 397.784 385.404 398.168 385.788C398.553 386.172 398.768 386.693 398.768 387.236C398.768 387.78 398.553 388.301 398.168 388.685C397.784 389.069 397.263 389.285 396.72 389.285H396.741ZM377.445 403.623H301.227C300.684 403.623 300.163 403.407 299.779 403.023C299.395 402.639 299.179 402.118 299.179 401.575C299.179 401.031 299.395 400.51 299.779 400.126C300.163 399.742 300.684 399.526 301.227 399.526H377.445C377.989 399.526 378.51 399.742 378.894 400.126C379.278 400.51 379.494 401.031 379.494 401.575C379.494 402.118 379.278 402.639 378.894 403.023C378.51 403.407 377.989 403.623 377.445 403.623Z" fill="#3E3750"/>
<path d="M272.12 406.368H250.285C249.378 406.368 248.508 406.007 247.866 405.366C247.225 404.724 246.865 403.854 246.865 402.947V381.112C246.865 380.205 247.225 379.335 247.866 378.693C248.508 378.052 249.378 377.691 250.285 377.691H272.1C273.007 377.691 273.877 378.052 274.519 378.693C275.16 379.335 275.521 380.205 275.521 381.112V402.927C275.521 403.834 275.16 404.704 274.519 405.345C273.877 405.987 273.007 406.347 272.1 406.347" fill="#5BBD81"/>
<path d="M404.688 132.998V171.486H443.176" fill="#8AD0A5"/>
<path d="M404.688 132.998V171.486H443.176" stroke="#3E3750" stroke-width="1.5" stroke-miterlimit="10" stroke-linecap="round"/>
<path d="M385.106 129.024H326.954" stroke="#3E3750" stroke-width="1.5" stroke-miterlimit="10" stroke-linecap="round"/>
<path d="M295.021 129.024H272.448" stroke="#3E3750" stroke-width="1.5" stroke-miterlimit="10" stroke-linecap="round"/>
<path d="M305.569 129.045C305.569 129.348 305.479 129.645 305.311 129.898C305.142 130.151 304.902 130.348 304.621 130.464C304.34 130.58 304.031 130.611 303.733 130.551C303.435 130.492 303.162 130.346 302.947 130.131C302.732 129.916 302.586 129.642 302.526 129.344C302.467 129.046 302.498 128.737 302.614 128.457C302.73 128.176 302.927 127.936 303.18 127.767C303.432 127.598 303.729 127.508 304.033 127.508C304.441 127.508 304.831 127.67 305.12 127.958C305.408 128.246 305.569 128.637 305.569 129.045Z" fill="#3E3750"/>
<path d="M463.434 331.092H455.036V508.866H463.434C486.775 508.512 509.039 498.991 525.42 482.36C541.8 465.729 550.982 443.322 550.982 419.979C550.982 396.636 541.8 374.229 525.42 357.598C509.039 340.967 486.775 331.446 463.434 331.092" fill="#5BBD81"/>
<path d="M463.434 331.092H455.036V508.866H463.434C486.775 508.512 509.039 498.991 525.42 482.36C541.8 465.729 550.982 443.322 550.982 419.979C550.982 396.636 541.8 374.229 525.42 357.598C509.039 340.967 486.775 331.446 463.434 331.092V331.092Z" stroke="#3E3750" stroke-width="1.5" stroke-miterlimit="10" stroke-linecap="round"/>
<path d="M455.016 331.092C437.433 331.092 420.246 336.306 405.627 346.074C391.008 355.842 379.613 369.726 372.885 385.97C366.157 402.214 364.396 420.088 367.826 437.332C371.256 454.577 379.723 470.417 392.156 482.849C404.588 495.282 420.428 503.748 437.672 507.178C454.917 510.609 472.791 508.848 489.035 502.12C505.279 495.391 519.163 483.997 528.931 469.378C538.699 454.759 543.913 437.571 543.913 419.989C543.913 396.412 534.547 373.801 517.875 357.129C501.204 340.458 478.593 331.092 455.016 331.092ZM455.016 494.958C440.182 494.958 425.681 490.56 413.347 482.319C401.012 474.079 391.398 462.367 385.719 448.663C380.041 434.959 378.553 419.879 381.444 405.33C384.335 390.78 391.475 377.415 401.961 366.923C412.447 356.431 425.809 349.284 440.357 346.385C454.904 343.486 469.985 344.965 483.692 350.637C497.399 356.308 509.117 365.915 517.364 378.245C525.611 390.575 530.017 405.073 530.025 419.907C530.025 439.801 522.122 458.88 508.055 472.947C493.988 487.014 474.909 494.917 455.016 494.917" fill="#E3F4E9"/>
<path d="M455.016 331.092C437.433 331.092 420.246 336.306 405.627 346.074C391.008 355.842 379.613 369.726 372.885 385.97C366.157 402.214 364.396 420.088 367.826 437.332C371.256 454.577 379.723 470.417 392.156 482.849C404.588 495.282 420.428 503.748 437.672 507.178C454.917 510.609 472.791 508.848 489.035 502.12C505.279 495.391 519.163 483.997 528.931 469.378C538.699 454.759 543.913 437.571 543.913 419.989C543.913 396.412 534.547 373.801 517.875 357.129C501.204 340.458 478.593 331.092 455.016 331.092Z" fill="white"/>
<path d="M455.015 508.866C504.112 508.866 543.913 469.065 543.913 419.969C543.913 370.872 504.112 331.071 455.015 331.071C405.919 331.071 366.118 370.872 366.118 419.969C366.118 469.065 405.919 508.866 455.015 508.866Z" stroke="#3E3750" stroke-width="1.5" stroke-miterlimit="10" stroke-linecap="round"/>
<path d="M388.691 419.907C388.69 400.767 396.009 382.35 409.147 368.431C422.286 354.512 440.249 346.144 459.358 345.041C457.924 345.041 456.49 344.897 455.015 344.897C445.062 344.733 435.175 346.551 425.932 350.247C416.688 353.942 408.273 359.44 401.176 366.421C394.079 373.401 388.443 381.725 384.595 390.906C380.748 400.087 378.766 409.942 378.766 419.897C378.766 429.852 380.748 439.707 384.595 448.888C388.443 458.069 394.079 466.393 401.176 473.373C408.273 480.354 416.688 485.852 425.932 489.547C435.175 493.243 445.062 495.061 455.015 494.896C456.47 494.896 457.924 494.896 459.358 494.774C440.251 493.666 422.29 485.296 409.153 471.378C396.015 457.46 388.695 439.046 388.691 419.907" fill="#5BBD81"/>
<path d="M470.091 434.901L412.472 465.032L441.374 405.589L497.559 376.892L470.091 434.901Z" fill="#5BBD81"/>
<path d="M461.365 425.847C460.255 426.961 458.839 427.72 457.296 428.028C455.754 428.337 454.155 428.18 452.702 427.579C451.248 426.978 450.006 425.96 449.132 424.652C448.257 423.345 447.791 421.808 447.791 420.235C447.791 418.662 448.257 417.125 449.132 415.817C450.006 414.51 451.248 413.491 452.702 412.89C454.155 412.289 455.754 412.133 457.296 412.442C458.839 412.75 460.255 413.509 461.365 414.622C462.851 416.112 463.686 418.131 463.686 420.235C463.686 422.339 462.851 424.357 461.365 425.847" fill="#E3F4E9"/>
<path d="M461.375 425.853C464.479 422.75 464.479 417.718 461.375 414.614C458.272 411.51 453.24 411.51 450.136 414.614C447.032 417.718 447.032 422.75 450.136 425.853C453.24 428.957 458.272 428.957 461.375 425.853Z" stroke="#3E3750" stroke-width="1.5" stroke-miterlimit="10" stroke-linecap="round"/>
<path d="M503.663 455.343L515.175 463.393M389.182 455.999C381.948 442.746 378.88 427.62 380.378 412.596C381.875 397.573 387.869 383.35 397.577 371.786C407.284 360.223 420.254 351.856 434.791 347.778C449.329 343.701 464.758 344.104 479.063 348.933L389.182 455.999ZM514.847 374.721C526.015 389.516 531.31 407.921 529.709 426.389C528.109 444.856 519.728 462.077 506.182 474.73C492.635 487.383 474.883 494.572 456.35 494.911C437.816 495.25 419.814 488.714 405.814 476.564L514.847 374.721ZM502.926 362.267C504.578 363.633 506.169 365.073 507.698 366.589L502.926 362.267ZM403.848 365.852L410.239 371.218L403.848 365.852ZM398.215 372.591L409.727 380.641L398.215 372.591ZM513.454 452.086L519.845 457.453L513.454 452.086Z" stroke="#3E3750" stroke-width="1.5" stroke-miterlimit="10" stroke-linecap="round"/>
<path d="M394.508 462.226C394.508 462.53 394.418 462.827 394.249 463.079C394.08 463.332 393.84 463.529 393.56 463.645C393.279 463.761 392.97 463.792 392.672 463.732C392.374 463.673 392.1 463.527 391.886 463.312C391.671 463.097 391.524 462.823 391.465 462.525C391.406 462.227 391.436 461.919 391.552 461.638C391.669 461.357 391.866 461.117 392.118 460.948C392.371 460.78 392.668 460.689 392.972 460.689C393.379 460.689 393.77 460.851 394.058 461.139C394.346 461.428 394.508 461.818 394.508 462.226" fill="#3E3750"/>
<path d="M191.744 356.409H52.2528C48.1561 356.409 31.5442 363.722 31.5442 363.722C31.5442 363.722 37.3 345.676 37.3 341.477V252.805C37.3 248.844 38.8732 245.046 41.6736 242.246C44.4739 239.446 48.272 237.872 52.2323 237.872H191.723C195.684 237.872 199.482 239.446 202.282 242.246C205.082 245.046 206.656 248.844 206.656 252.805V341.518C206.645 345.467 205.07 349.252 202.275 352.043C199.48 354.834 195.694 356.404 191.744 356.409" fill="#5BBD81"/>
<path d="M191.744 356.409H52.2528C48.1561 356.409 31.5442 363.722 31.5442 363.722C31.5442 363.722 37.3 345.676 37.3 341.477V252.805C37.3 248.844 38.8732 245.046 41.6736 242.246C44.4739 239.446 48.272 237.872 52.2323 237.872H191.723C195.684 237.872 199.482 239.446 202.282 242.246C205.082 245.046 206.656 248.844 206.656 252.805V341.518C206.645 345.467 205.07 349.252 202.275 352.043C199.48 354.834 195.694 356.404 191.744 356.409V356.409Z" stroke="#3E3750" stroke-width="1.5" stroke-miterlimit="10" stroke-linecap="round"/>
<path d="M187.791 298.482C187.807 300.819 187.129 303.108 185.842 305.059C184.556 307.01 182.719 308.535 180.564 309.441C178.41 310.346 176.035 310.592 173.741 310.146C171.447 309.7 169.337 308.583 167.679 306.936C166.021 305.289 164.889 303.187 164.427 300.896C163.965 298.605 164.194 296.229 165.084 294.068C165.975 291.908 167.487 290.06 169.429 288.76C171.371 287.46 173.655 286.766 175.992 286.766C177.542 286.766 179.076 287.071 180.507 287.664C181.939 288.257 183.239 289.126 184.335 290.222C185.431 291.317 186.3 292.618 186.893 294.049C187.485 295.481 187.791 297.015 187.791 298.564" fill="#5BBD81"/>
<path d="M179.925 300.817H70.0322C69.489 300.817 68.968 300.602 68.5838 300.217C68.1997 299.833 67.9839 299.312 67.9839 298.769V298.175C67.9839 297.632 68.1997 297.111 68.5838 296.727C68.968 296.343 69.489 296.127 70.0322 296.127H179.925C180.468 296.127 180.989 296.343 181.373 296.727C181.758 297.111 181.973 297.632 181.973 298.175V298.769C181.973 299.312 181.758 299.833 181.373 300.217C180.989 300.602 180.468 300.817 179.925 300.817ZM179.925 323.636H70.0322C69.489 323.636 68.968 323.42 68.5838 323.036C68.1997 322.652 67.9839 322.131 67.9839 321.587V320.993C67.9839 320.45 68.1997 319.929 68.5838 319.545C68.968 319.161 69.489 318.945 70.0322 318.945H179.925C180.468 318.945 180.989 319.161 181.373 319.545C181.758 319.929 181.973 320.45 181.973 320.993V321.587C181.973 322.131 181.758 322.652 181.373 323.036C180.989 323.42 180.468 323.636 179.925 323.636Z" fill="#3E3750"/>
<path d="M74.2723 377.896H213.763C217.86 377.896 234.472 385.209 234.472 385.209C234.472 385.209 228.716 367.163 228.716 362.964V274.251C228.716 270.29 227.143 266.492 224.343 263.692C221.542 260.892 217.744 259.318 213.784 259.318H74.2723C70.3227 259.335 66.5404 260.915 63.7533 263.714C60.9662 266.512 59.4015 270.301 59.4015 274.251V362.964C59.4015 366.924 60.9747 370.722 63.7751 373.523C66.5754 376.323 70.3735 377.896 74.3338 377.896" fill="white"/>
<path d="M74.2723 377.896H213.763C217.86 377.896 234.472 385.209 234.472 385.209C234.472 385.209 228.716 367.163 228.716 362.964V274.251C228.716 270.29 227.143 266.492 224.343 263.692C221.542 260.892 217.744 259.318 213.784 259.318H74.2723C70.3227 259.335 66.5404 260.915 63.7533 263.714C60.9662 266.512 59.4015 270.301 59.4015 274.251V362.964C59.4015 366.913 60.9662 370.702 63.7533 373.501C66.5404 376.299 70.3227 377.88 74.2723 377.896V377.896Z" stroke="#3E3750" stroke-width="1.5" stroke-miterlimit="10" stroke-linecap="round"/>
<path d="M78.2256 319.908C78.2297 322.236 78.9226 324.511 80.217 326.446C81.5114 328.381 83.3495 329.89 85.4997 330.783C87.65 331.676 90.0164 331.913 92.3008 331.463C94.5853 331.014 96.6858 329.899 98.3378 328.258C99.9898 326.618 101.119 324.525 101.585 322.244C102.05 319.962 101.829 317.594 100.951 315.438C100.073 313.282 98.5772 311.433 96.6509 310.125C94.7247 308.818 92.4545 308.109 90.1264 308.089C86.9973 308.089 83.9963 309.332 81.7837 311.545C79.571 313.757 78.328 316.758 78.328 319.887L78.2256 319.908ZM129.249 319.908C129.249 322.241 129.941 324.522 131.238 326.463C132.534 328.403 134.377 329.915 136.533 330.808C138.689 331.701 141.061 331.935 143.35 331.479C145.638 331.024 147.74 329.9 149.391 328.25C151.041 326.6 152.164 324.498 152.619 322.209C153.075 319.921 152.841 317.549 151.948 315.393C151.055 313.237 149.543 311.394 147.603 310.098C145.662 308.801 143.381 308.109 141.048 308.109C137.919 308.109 134.918 309.352 132.705 311.565C130.492 313.778 129.249 316.779 129.249 319.908ZM180.253 319.908C180.253 322.241 180.945 324.522 182.241 326.463C183.538 328.403 185.38 329.915 187.536 330.808C189.692 331.701 192.064 331.935 194.353 331.479C196.642 331.024 198.744 329.9 200.394 328.25C202.044 326.6 203.168 324.498 203.623 322.209C204.078 319.921 203.844 317.549 202.951 315.393C202.058 313.237 200.546 311.394 198.606 310.098C196.666 308.801 194.385 308.109 192.051 308.109C188.922 308.109 185.921 309.352 183.708 311.565C181.496 313.778 180.253 316.779 180.253 319.908Z" fill="#5BBD81"/>
<path d="M92.7893 298.708H189.306C189.714 298.708 190.105 298.546 190.393 298.258C190.681 297.97 190.843 297.579 190.843 297.171C190.843 296.764 190.681 296.373 190.393 296.085C190.105 295.797 189.714 295.635 189.306 295.635H92.7893C92.3819 295.635 91.9911 295.797 91.703 296.085C91.4149 296.373 91.2531 296.764 91.2531 297.171C91.2531 297.579 91.4149 297.97 91.703 298.258C91.9911 298.546 92.3819 298.708 92.7893 298.708V298.708ZM92.7893 321.444H189.306C189.714 321.444 190.105 321.282 190.393 320.994C190.681 320.706 190.843 320.315 190.843 319.908C190.843 319.5 190.681 319.11 190.393 318.822C190.105 318.534 189.714 318.372 189.306 318.372H92.7893C92.3819 318.372 91.9911 318.534 91.703 318.822C91.4149 319.11 91.2531 319.5 91.2531 319.908C91.2531 320.315 91.4149 320.706 91.703 320.994C91.9911 321.282 92.3819 321.444 92.7893 321.444ZM92.7893 344.119H189.306C189.714 344.119 190.105 343.957 190.393 343.669C190.681 343.381 190.843 342.99 190.843 342.583C190.843 342.175 190.681 341.785 190.393 341.497C190.105 341.208 189.714 341.047 189.306 341.047H92.7893C92.3819 341.047 91.9911 341.208 91.703 341.497C91.4149 341.785 91.2531 342.175 91.2531 342.583C91.2531 342.99 91.4149 343.381 91.703 343.669C91.9911 343.957 92.3819 344.119 92.7893 344.119Z" fill="#3E3750"/>
<path d="M575.129 396.003C575.129 397.219 574.769 398.407 574.094 399.417C573.419 400.428 572.459 401.215 571.336 401.68C570.213 402.145 568.978 402.267 567.786 402.03C566.594 401.793 565.499 401.208 564.639 400.348C563.78 399.489 563.195 398.394 562.958 397.202C562.72 396.01 562.842 394.774 563.307 393.652C563.772 392.529 564.56 391.569 565.57 390.894C566.581 390.219 567.769 389.858 568.984 389.858C570.614 389.858 572.177 390.506 573.33 391.658C574.482 392.81 575.129 394.373 575.129 396.003" fill="#5BBD81"/>
<path d="M568.984 402.148C572.378 402.148 575.13 399.397 575.13 396.003C575.13 392.609 572.378 389.858 568.984 389.858C565.591 389.858 562.839 392.609 562.839 396.003C562.839 399.397 565.591 402.148 568.984 402.148Z" stroke="#3E3750" stroke-width="1.5" stroke-miterlimit="10" stroke-linecap="round"/>
<path d="M508.17 288.63C508.17 289.845 507.809 291.033 507.134 292.044C506.459 293.054 505.499 293.842 504.376 294.307C503.253 294.772 502.018 294.894 500.826 294.657C499.634 294.42 498.539 293.834 497.68 292.975C496.82 292.116 496.235 291.021 495.998 289.829C495.761 288.637 495.882 287.401 496.348 286.278C496.813 285.155 497.6 284.196 498.611 283.52C499.621 282.845 500.809 282.485 502.025 282.485C503.655 282.485 505.218 283.132 506.37 284.285C507.522 285.437 508.17 287 508.17 288.63" fill="#5BBD81"/>
<path d="M502.025 294.775C505.419 294.775 508.17 292.024 508.17 288.63C508.17 285.236 505.419 282.485 502.025 282.485C498.631 282.485 495.88 285.236 495.88 288.63C495.88 292.024 498.631 294.775 502.025 294.775Z" stroke="#3E3750" stroke-width="1.5" stroke-miterlimit="10" stroke-linecap="round"/>
<path d="M104.465 178.881C104.465 180.096 104.104 181.284 103.429 182.295C102.754 183.305 101.794 184.093 100.671 184.558C99.5485 185.023 98.313 185.145 97.121 184.907C95.929 184.67 94.834 184.085 93.9746 183.226C93.1152 182.366 92.53 181.271 92.2929 180.079C92.0558 178.887 92.1775 177.652 92.6426 176.529C93.1077 175.406 93.8953 174.446 94.9058 173.771C95.9164 173.096 97.1044 172.736 98.3198 172.736C99.9495 172.736 101.513 173.383 102.665 174.535C103.817 175.688 104.465 177.251 104.465 178.881Z" fill="#5BBD81"/>
<path d="M98.3607 185.026C101.754 185.026 104.506 182.274 104.506 178.881C104.506 175.487 101.754 172.736 98.3607 172.736C94.9669 172.736 92.2157 175.487 92.2157 178.881C92.2157 182.274 94.9669 185.026 98.3607 185.026Z" stroke="#3E3750" stroke-width="1.5" stroke-miterlimit="10" stroke-linecap="round"/>
<path d="M449.321 72.3879C449.321 73.6033 448.961 74.7913 448.286 75.8019C447.61 76.8124 446.651 77.6 445.528 78.0651C444.405 78.5302 443.169 78.6519 441.977 78.4148C440.785 78.1777 439.69 77.5924 438.831 76.7331C437.972 75.8737 437.386 74.7787 437.149 73.5867C436.912 72.3947 437.034 71.1592 437.499 70.0363C437.964 68.9135 438.752 67.9538 439.762 67.2785C440.773 66.6033 441.961 66.2429 443.176 66.2429C444.806 66.2429 446.369 66.8903 447.521 68.0427C448.674 69.1952 449.321 70.7582 449.321 72.3879Z" fill="#5BBD81"/>
<path d="M443.176 78.5329C446.57 78.5329 449.321 75.7817 449.321 72.3879C449.321 68.9941 446.57 66.2429 443.176 66.2429C439.782 66.2429 437.031 68.9941 437.031 72.3879C437.031 75.7817 439.782 78.5329 443.176 78.5329Z" stroke="#3E3750" stroke-width="1.5" stroke-miterlimit="10" stroke-linecap="round"/>
<path d="M508.743 178.88C508.743 179.285 508.623 179.681 508.398 180.018C508.173 180.355 507.853 180.618 507.479 180.773C507.105 180.928 506.693 180.968 506.295 180.889C505.898 180.81 505.533 180.615 505.247 180.329C504.96 180.042 504.765 179.677 504.686 179.28C504.607 178.883 504.647 178.471 504.803 178.096C504.958 177.722 505.22 177.402 505.557 177.177C505.894 176.952 506.29 176.832 506.695 176.832C507.238 176.832 507.759 177.048 508.143 177.432C508.527 177.816 508.743 178.337 508.743 178.88Z" fill="#3E3750"/>
</svg>
