<svg width="423" height="279" fill="none" xmlns="http://www.w3.org/2000/svg"><path d="M357.241 210.531l-4.52 64.509c-.025.328-.18.635-.434.859a1.426 1.426 0 01-1.469.25 1.375 1.375 0 01-.448-.291 1.235 1.235 0 01-.381-.94l1.858-64.387h5.394zM368.805 210.531l4.52 64.509c.023.327.176.634.429.859a1.418 1.418 0 001.916-.041c.128-.124.228-.271.295-.433.066-.161.098-.334.092-.507l-1.877-64.35-5.375-.037zM323.483 210.531l4.521 64.509c.022.327.175.634.428.859a1.42 1.42 0 001.916-.041 1.244 1.244 0 00.388-.94l-1.888-64.35-5.365-.037zM305.015 210.531l-4.52 64.509c-.025.328-.18.635-.435.859a1.424 1.424 0 01-1.469.247 1.397 1.397 0 01-.448-.291 1.305 1.305 0 01-.295-.431 1.24 1.24 0 01-.095-.506l1.887-64.35 5.375-.037z" fill="#263238" stroke="#263238" stroke-linecap="round" stroke-linejoin="round"/><path d="M383.767 145.496s-45.103-1.596-48.918-1.596c-3.815 0-4.699 1.596-4.699 1.596l-6.438 42.891s-20.018-5.398-23.943-4.694c-3.924.704 1.938 27.617 1.938 27.617h22.651l.407-1.614h51.144l13.58-61.13c-.824-2.798-5.722-3.07-5.722-3.07z" fill="#fff" stroke="#263238" stroke-linecap="round" stroke-linejoin="round"/><path d="M366.6 172.325s4.59 28.161-.676 31.447c-.814.507-5.235 2.91-9.368 2.516-3.318-.319-26.764 0-26.764 0s-3.259-5.858-3.914-10.176c-.656-4.318 4.47-22.849 4.47-22.849l36.252-.938z" fill="#fff" stroke="#263238" stroke-linecap="round" stroke-linejoin="round"/><path d="M328.202 187.41s-33.936 3.333-35.536 4.234c-1.599.901-8.941 6.956-7.679 10.889 1.261 3.933-1.918 4.234.993 4.844 2.911.61 44.17.601 44.17.601" fill="#5BBD81"/><path d="M328.202 187.41s-33.936 3.333-35.536 4.234c-1.599.901-8.941 6.956-7.679 10.889 1.261 3.933-1.918 4.234.993 4.844 2.911.61 44.17.601 44.17.601" stroke="#263238" stroke-linecap="round" stroke-linejoin="round"/><path d="M297.335 211.263h80.64v-5.688h-80.64v5.688z" fill="#fff" stroke="#263238" stroke-linecap="round" stroke-linejoin="round"/><path d="M358.93 188.621h-48.58s-2.554 2.722-2.881 8.449c-.328 5.726.327 6.956 4.808 8.448 4.48 1.493 44.279.732 44.279.732" fill="#5BBD81"/><path d="M358.93 188.621h-48.58s-2.554 2.722-2.881 8.449c-.328 5.726.327 6.956 4.808 8.448 4.48 1.493 44.279.732 44.279.732" stroke="#263238" stroke-linecap="round" stroke-linejoin="round"/><path d="M320.652 261.466l-5.087-11.386-8.335 1.492 6.378 10.157-3.676 6.956-7.947 4.91s-.924.863 3.05.572c3.973-.291 12.219 0 12.219 0l5.196-5.773s1.888-2.938-1.798-6.928z" fill="#fff" stroke="#263238" stroke-linecap="round" stroke-linejoin="round"/><path d="M322.877 266.441l.209 7.444h-1.242l-1.659-3.717 2.692-3.727z" fill="#263238" stroke="#263238" stroke-linecap="round" stroke-linejoin="round"/><path d="M317.265 274.205l5.195-5.773s1.342-2.15-.506-5.248c-3.696 5.97-8.614 7.763-8.614 7.763l-5.126-1.164-6.219 3.849s-.924.864 3.05.573c3.974-.291 12.22 0 12.22 0z" fill="#263238" stroke="#263238" stroke-linecap="round" stroke-linejoin="round"/><path d="M300.673 203.444l17.038 48.673-12.09 2.027-23.843-50.691s-1.918-7.566 3.199-9.978c5.116-2.413 20.167-3.633 20.167-3.633" fill="#5BBD81"/><path d="M300.673 203.444l17.038 48.673-12.09 2.027-23.843-50.691s-1.918-7.566 3.199-9.978c5.116-2.413 20.167-3.633 20.167-3.633" stroke="#263238" stroke-linecap="round" stroke-linejoin="round"/><path d="M355.324 211.254s-5.871-26.951-1.937-27.617c3.934-.667 23.942 4.693 23.942 4.693l6.438-42.834s6.795-1.013 7.511 4.694c.715 5.707-13.303 61.064-13.303 61.064h-22.651z" fill="#263238" stroke="#263238" stroke-linecap="round" stroke-linejoin="round"/><path d="M286.189 131.903l-3.03-4.693a3.137 3.137 0 00-1.193-1.073 3.36 3.36 0 00-1.599-.373l-2.851.047-4.878-1.38a1.726 1.726 0 00-.948.01 1.635 1.635 0 00-.781.507l-.179.215 4.491 1.878-4.481 1.558-4.758-2.281a.94.94 0 00-.609-.071.899.899 0 00-.514.315.813.813 0 00.159 1.183l6.656 4.853c.209.153.45.263.707.321.257.058.524.064.783.017l7.362-1.399 2.056 2.122 3.607-1.756z" fill="#fff" stroke="#263238" stroke-linecap="round" stroke-linejoin="round"/><path d="M337.511 122.272l-27.29 26.97-26.049-19.892-3.596 2.469 28.661 30.687 24.847-12.645 3.427-27.589zM378.343 129.163l14.306 41.538-12.339.338-12.269-19.497s6.894-19.666 10.302-22.379z" fill="#fff" stroke="#263238" stroke-linecap="round" stroke-linejoin="round"/><path d="M362.775 122.028l15.568 7.181-13.035 34.442 1.54 9.603-36.5.057 4.352-15.47-2.981-9.913a7.19 7.19 0 01-.059-3.943l5.841-21.666 15.339-2.328 9.935 2.037z" fill="#fff" stroke="#263238" stroke-linecap="round" stroke-linejoin="round"/><path d="M362.03 120.01s3.06 1.953 3.159 3.689c.05 1.024 0 2.817-.099 4.187a8.491 8.491 0 01-.765 3.107l-5.514 6.29-6.378-4.76-5.295 2.554s-.994-7.67 1.321-13.02c2.315-5.351 12.389-3.389 13.571-2.047z" fill="#fff" stroke="#263238" stroke-linecap="round" stroke-linejoin="round"/><path d="M366.411 105.131s-1.252 4.253-1.838 7.069c-.586 2.816-1.768 8.448-1.659 10.561.109 2.112-9.299 11.105-10.481 9.762-1.182-1.342-2.424-9.143-2.424-9.143l1.172-12.616s12.259-12.833 15.23-5.633z" fill="#fff" stroke="#263238" stroke-linecap="round" stroke-linejoin="round"/><path d="M346.75 98.56s-1.679 2.619-1.679 3.755c0 1.136.587 3.36.487 4.008-.099.648-1.768 2.816-1.987 3.549-.109.297-.1.623.026.915.126.292.361.531.66.671.406.196.8.412 1.182.648 0 0 .497 5.782 1.292 7.275.794 1.492 1.48 2.149 3.844 2.337 2.365.188 7.998-2.149 8.783-4.018.784-1.868.894-4.102.993-6.805.099-2.704-1.878-6.571-3.358-10.261-1.48-3.689-7.679-5.716-10.243-2.074z" fill="#fff" stroke="#263238" stroke-linecap="round" stroke-linejoin="round"/><path d="M372.233 117.654c4.186 0 7.58-3.207 7.58-7.163 0-3.956-3.394-7.162-7.58-7.162s-7.58 3.206-7.58 7.162 3.394 7.163 7.58 7.163z" fill="#263238" stroke="#263238" stroke-linecap="round" stroke-linejoin="round"/><path d="M346.71 98.156s3.05-2.487 8.534 2.46c5.484 4.947 3.398 12.1 7.064 13.583 3.666 1.483 10.451-5.933 11.236-9.631.785-3.699-1.57-11.368-8.892-12.851-7.321-1.483-16.292-.47-17.942 6.44z" fill="#263238" stroke="#263238" stroke-linecap="round" stroke-linejoin="round"/><path d="M346.71 98.156a3.672 3.672 0 01.223-1.72c.212-.549.554-1.046.999-1.452a4.122 4.122 0 011.572-.892 4.295 4.295 0 011.826-.15c4.967.253 5.484 7.66 8.097 10.626 2.613 2.966 3.924 2.469 3.924 2.469s-4.441 1.229-7.322-.254c-2.881-1.483-4.272-9.847-9.319-8.627z" fill="#263238" stroke="#263238" stroke-linecap="round" stroke-linejoin="round"/><path d="M354.827 93.078c2.614 1.526 4.689 3.75 5.961 6.393 2.255 4.515 2.255 8.242 7.61 7.979 0 0-2.533.535-6.477-1.333-3.944-1.868-4.789-7.181-7.322-9.312-1.382-1.236-3.17-1.988-5.067-2.131M373.544 104.568s-.228 6.777-5.732 8.204" stroke="#fff" stroke-width=".5" stroke-linecap="round" stroke-linejoin="round"/><path d="M358.185 111.486s5.246-6.486 6.478-1.642c1.231 4.843-2.981 6.026-4.968 5.472-1.987-.553-1.709-1.558-1.709-1.558" fill="#fff"/><path d="M358.185 111.486s5.246-6.486 6.478-1.642c1.231 4.843-2.981 6.026-4.968 5.472-1.987-.553-1.709-1.558-1.709-1.558" stroke="#263238" stroke-linecap="round" stroke-linejoin="round"/><path d="M346.512 166.993s-10.014 1.314-11.683 1.314c-1.669 0-5.842 4.994-5.842 4.994h18.36l-.835-6.308z" fill="#fff" stroke="#263238" stroke-linecap="round" stroke-linejoin="round"/><path d="M389.052 160.628l3.597 7.66a2.876 2.876 0 01-.418 2.711c-.29.389-.674.707-1.119.929-.445.223-.94.342-1.444.35l-43.414.235.278-5.52 33.659-5.032" fill="#fff"/><path d="M389.052 160.628l3.597 7.66a2.876 2.876 0 01-.418 2.711c-.29.389-.674.707-1.119.929-.445.223-.94.342-1.444.35l-43.414.235.278-5.52 33.659-5.032" stroke="#263238" stroke-linecap="round" stroke-linejoin="round"/><path d="M330.944 266.441l.209 7.444h-1.242l-1.659-3.717 2.692-3.727z" fill="#263238" stroke="#263238" stroke-linecap="round" stroke-linejoin="round"/><path d="M328.719 261.466l-1.6-10.833-8.325.507 2.881 10.664-3.676 6.956-7.947 4.91s-.914.863 3.06.572c3.973-.291 12.219 0 12.219 0l5.196-5.773s1.878-3.013-1.808-7.003z" fill="#fff" stroke="#263238" stroke-linecap="round" stroke-linejoin="round"/><path d="M325.331 274.205l5.196-5.773s1.341-2.15-.517-5.248c-3.695 5.97-8.613 7.763-8.613 7.763l-5.116-1.164-6.229 3.849s-.914.864 3.06.573c3.973-.291 12.219 0 12.219 0z" fill="#263238" stroke="#263238" stroke-linecap="round" stroke-linejoin="round"/><path d="M324.904 195.061l3.567 57.562-11.296.254-11.028-52.297s.209-9.959 3.577-11.105c3.368-1.145 12.309.085 12.309.085" fill="#5BBD81"/><path d="M324.904 195.061l3.567 57.562-11.296.254-11.028-52.297s.209-9.959 3.577-11.105c3.368-1.145 12.309.085 12.309.085" stroke="#263238" stroke-linecap="round" stroke-linejoin="round"/><path d="M275.529 71.159l14.018 37.126s-1.848 8.402-7.412 8.054c-5.563-.347-7.043-7.706-8.524-8.758-1.48-1.051-3.705-9.105-3.705-9.105l5.623-27.317z" fill="#fff" stroke="#263238" stroke-linecap="round" stroke-linejoin="round"/><path d="M239.267 63.715l-22.79 7.772 8.743 59.713h41.119l9.19-60.041-24.599-7.275-11.663-.17z" fill="#fff" stroke="#263238" stroke-linecap="round" stroke-linejoin="round"/><path d="M241.463 73.947l3.288 4.684-2.851 39.727 4.192 10.345 4.302-10.064-3.686-39.417 2.961-6.768-4.103-5.097-4.103 6.59z" fill="#5BBD81" stroke="#263238" stroke-linecap="round" stroke-linejoin="round"/><path d="M246.013 72.013l-5.872 4.158-3.864-10.842 2.692-5.491 12.011-.273 2.931 2.488-.586 13.837-7.312-3.877z" fill="#fff" stroke="#263238" stroke-linecap="round" stroke-linejoin="round"/><path d="M252.222 57.022l-.914 6.974-6.577 8.017-4.918-8.13V50.808s8.614 2.037 12.409 6.215z" fill="#fff" stroke="#263238" stroke-linecap="round" stroke-linejoin="round"/><path d="M236.436 42.528c0-6.337 4.887-11.472 10.928-11.472 6.04 0 9.388 5.417 9.388 11.753 0 2.047-.447 5.558-.626 7.425-.308 3.192-1.331 4.544-3.328 7.407-6.547 9.387-11.922-4.384-14.673-9.012a11.792 11.792 0 01-1.689-6.101z" fill="#fff" stroke="#263238" stroke-linecap="round" stroke-linejoin="round"/><path d="M252.113 44.518l.924 6.543-3.249-.085" fill="#fff"/><path d="M252.113 44.518l.924 6.543-3.249-.085" stroke="#263238" stroke-linecap="round" stroke-linejoin="round"/><path d="M259.365 43.382l-15.617.066a3.262 3.262 0 00-.086 1.773c.136.588.433 1.132.86 1.578.994.938 5.037.61 5.683.366.646-.244.993-2.929.993-2.929h1.163s.129 2.816 1.798 3.05c1.669.236 3.845.16 4.262-.121 1.848-1.173.944-3.783.944-3.783z" fill="#fff" stroke="#263238" stroke-linecap="round" stroke-linejoin="round"/><path d="M238.363 49.69s3.517 6.806 4.352 9.162c.834 2.356 4.967 4.196 9.149 2.882 4.183-1.314 3.05-7.163 3.05-7.163s-4.44-3.586-5.265-2.816c-.825.77-5.275 4.196-5.554 3.408-.278-.789-2.215-5.501-2.215-5.501l-.904-3.342 1.858-1.127c.268-.21.442-.51.488-.836a1.257 1.257 0 00-.24-.928l-.874-1.193a1.29 1.29 0 01-.229-1.013c.229-1.023.855-3.145 2.305-3.755 1.987-.78 4.401.356 6.627.882 2.225.526 4.639-1.37 4.639-1.37l.994 3.116c2.202-1.953 3.767-4.461 4.51-7.228 1.113-4.459-10.263-6.29-13.909-6.29-3.646 0-9.428 1.878-11.097 6.816-1.669 4.937 1.332 15.414 2.315 16.296z" fill="#263238" stroke="#263238" stroke-linecap="round" stroke-linejoin="round"/><path d="M247.364 32.897s2.066 2.928-.646 3.538c-2.712.61-7.997-1.586-10.322-.732M242.714 39.355s-4.252-.488-5.961 1.22M252.947 54.159s-3.129 1.54-4.679-.291" stroke="#fff" stroke-width=".5" stroke-linecap="round" stroke-linejoin="round"/><path d="M238.89 47.616s-3.07-3.192-3.07.29c0 3.483.924 3.483 2.762 4.694 1.838 1.211 2.463-.29 2.463-.29" fill="#fff"/><path d="M238.89 47.616s-3.07-3.192-3.07.29c0 3.483.924 3.483 2.762 4.694 1.838 1.211 2.463-.29 2.463-.29" stroke="#263238" stroke-linecap="round" stroke-linejoin="round"/><path d="M279.88 264.001h.139l-.268-1.277-13.412-131.515h-41.12l-13.521 132.783h.149l8.723.704s9.676-30.697 9.676-32.987c0-2.291 2.762-23.468 2.762-23.468l13.72-45.575 12.13 45.575s2.762 21.224 2.762 23.468c0 2.243 9.686 33.005 9.686 33.005l8.206-.666h.368v-.047z" fill="#263238" stroke="#263238" stroke-linecap="round" stroke-linejoin="round"/><path d="M263.269 138.944l-9.149 12.344M258.371 141.723l-5.553 8.645M232.243 141.112l8.157 8.327M231.587 144.191l11.753 11.115M227.664 132.467h36.261" stroke="#fff" stroke-width=".5" stroke-linecap="round" stroke-linejoin="round"/><path d="M211.847 263.991s-5.235 3.896-8.255 4.966c-3.02 1.07-8.663 3.915-8.663 3.915s0 1.783 4.897 1.783h19.224l-.328-10.664h-6.875z" fill="#263238" stroke="#263238" stroke-linecap="round" stroke-linejoin="round"/><path d="M218.98 272.712c-7.676.331-15.367.215-23.029-.347l-.993.507s0 1.783 4.898 1.783h19.223l-.099-1.943z" fill="#fff" stroke="#263238" stroke-linecap="round" stroke-linejoin="round"/><path d="M279.085 263.991s5.246 3.896 8.256 4.966c3.01 1.07 8.673 3.915 8.673 3.915s0 1.783-4.908 1.783h-19.213l.347-10.664h6.845z" fill="#263238" stroke="#263238" stroke-linecap="round" stroke-linejoin="round"/><path d="M271.952 272.712c7.677.331 15.367.215 23.029-.347l.993.507s0 1.783-4.908 1.783h-19.173l.059-1.943zM216.477 71.487l-15.141 38.197h14.525l5.424-10.42-4.808-27.777z" fill="#fff" stroke="#263238" stroke-linecap="round" stroke-linejoin="round"/><path d="M282.711 103.77c-6.06-2.366-25.502-3.539-26.515-3.539-1.014 0-32.616-2.46-35.209-2.816-2.593-.357-5.563 5.257-5.563 5.257l13.71-.357 16.68 3.154s33.778 11.556 36.321 10.861a2.29 2.29 0 00.914-.544" fill="#fff"/><path d="M282.711 103.77c-6.06-2.366-25.502-3.539-26.515-3.539-1.014 0-32.616-2.46-35.209-2.816-2.593-.357-5.563 5.257-5.563 5.257l13.71-.357 16.68 3.154s33.778 11.556 36.321 10.861a2.29 2.29 0 00.914-.544" stroke="#263238" stroke-linecap="round" stroke-linejoin="round"/><path d="M212.086 101.977l52.256-4.9.378 4.196-45.223 12.964s-8.146 1.746-14.455.694c-6.308-1.051-3.328-7.003-1.848-10.504" fill="#fff"/><path d="M212.086 101.977l52.256-4.9.378 4.196-45.223 12.964s-8.146 1.746-14.455.694c-6.308-1.051-3.328-7.003-1.848-10.504" stroke="#263238" stroke-linecap="round" stroke-linejoin="round"/><path d="M264.352 97.077l10.004-.357 2.961 5.604-12.597-1.042-.368-4.205z" fill="#fff" stroke="#263238" stroke-linecap="round" stroke-linejoin="round"/><path d="M330.984 179.44l8.534 96.004c.022.143.075.28.156.403s.187.229.313.312a1.17 1.17 0 00.872.167c.256-.06.48-.205.631-.408a.994.994 0 00.194-.7l-5.812-95.749-4.888-.029zM388.337 179.44l8.564 96.323c.021.144.073.282.153.405.08.124.187.23.313.313a1.146 1.146 0 00.875.164 1.09 1.09 0 00.631-.408.986.986 0 00.193-.699l-5.831-96.098h-4.898zM151.653 179.44l-4.46 95.168c-.025.25.046.5.199.704.153.205.378.352.635.413a1.11 1.11 0 00.87-.146 1.04 1.04 0 00.308-.312.977.977 0 00.144-.405l7.222-95.422h-4.918zM98.791 179.44l-4.49 94.812c-.022.25.05.5.205.705a1.132 1.132 0 001.09.424c.149-.026.29-.082.416-.163.124-.082.23-.188.308-.31a.984.984 0 00.147-.403l7.192-95.102-4.868.037z" fill="#263238" stroke="#263238" stroke-linecap="round" stroke-linejoin="round"/><path d="M399.504 174.118H95.612v8.242h303.892v-8.242z" fill="#5BBD81" stroke="#263238" stroke-linecap="round" stroke-linejoin="round"/><path d="M399.504 174.118H95.612v2.825h303.892v-2.825z" fill="#263238" stroke="#263238" stroke-linecap="round" stroke-linejoin="round"/><path d="M399.493 174.118h-76.039v8.242h76.039v-8.242z" fill="#263238" stroke="#263238" stroke-linecap="round" stroke-linejoin="round"/><path d="M402.206 171.377H92.9v3.145h309.306v-3.145z" fill="#5BBD81" stroke="#263238" stroke-linecap="round" stroke-linejoin="round"/><path d="M402.196 171.377h-75.573v3.145h75.573v-3.145z" fill="#263238" stroke="#263238" stroke-linecap="round" stroke-linejoin="round"/><path d="M161.797 171.095h41.507a.849.849 0 00.446-.123.779.779 0 00.299-.337l11.494-24.763a.723.723 0 00-.068-.721.793.793 0 00-.293-.251.846.846 0 00-.384-.089h-41.507a.85.85 0 00-.438.122.779.779 0 00-.297.329l-11.455 24.763a.724.724 0 00.049.709.79.79 0 00.276.256.84.84 0 00.371.105z" fill="#fff" stroke="#263238" stroke-linecap="round" stroke-linejoin="round"/><path d="M165.691 169.161h35.417a.713.713 0 00.373-.104.662.662 0 00.253-.28l9.806-21.131a.616.616 0 00-.033-.636.669.669 0 00-.255-.225.718.718 0 00-.338-.078h-35.417a.713.713 0 00-.381.106.662.662 0 00-.255.288l-9.786 21.15a.623.623 0 00.049.612.682.682 0 00.567.298z" fill="#5BBD81" stroke="#263238" stroke-linecap="round" stroke-linejoin="round"/><path d="M203.88 169.453h-62.36v1.924h62.36v-1.924z" fill="#fff" stroke="#263238" stroke-linecap="round" stroke-linejoin="round"/><path d="M203.89 169.453h-30.231v1.924h30.231v-1.924zM223.918 156.057H212.92v15.358h10.998v-15.358z" fill="#fff" stroke="#263238" stroke-linecap="round" stroke-linejoin="round"/><path d="M223.432 169.321h-1.153a.932.932 0 01-.639-.25.828.828 0 01-.265-.604c0-.227.095-.444.265-.604.17-.16.399-.25.639-.25h1.153c.455-.003.89-.175 1.212-.479.322-.304.504-.715.506-1.145v-3.755a1.587 1.587 0 00-.506-1.146 1.778 1.778 0 00-1.212-.478h-1.481a.922.922 0 01-.639-.25.824.824 0 01-.196-.931.853.853 0 01.196-.277.908.908 0 01.293-.186.953.953 0 01.346-.065h1.481c.463 0 .921.087 1.349.254a3.57 3.57 0 011.145.722c.327.31.587.677.764 1.082.177.404.268.837.268 1.275v3.755c0 .437-.091.871-.268 1.275a3.327 3.327 0 01-.764 1.081c-.328.31-.717.555-1.145.723a3.713 3.713 0 01-1.349.253zM309.843 171.095h-41.507a.826.826 0 01-.44-.126.773.773 0 01-.295-.334l-11.495-24.763a.736.736 0 01-.062-.367.735.735 0 01.129-.35.789.789 0 01.288-.252.85.85 0 01.381-.092h41.507a.858.858 0 01.443.121c.132.08.237.195.302.33l11.494 24.763a.727.727 0 01.061.37.75.75 0 01-.13.354.837.837 0 01-.676.346z" fill="#fff" stroke="#263238" stroke-linecap="round" stroke-linejoin="round"/><path d="M267.76 171.377h62.36v-1.924h-62.36v1.924z" fill="#fff" stroke="#263238" stroke-linecap="round" stroke-linejoin="round"/><path d="M267.76 171.377h42.997v-1.924H267.76v1.924zM284.033 155.09a2.202 2.202 0 01-.27 2.543 2.45 2.45 0 01-1.173.744 2.58 2.58 0 01-1.413.007 2.463 2.463 0 01-1.18-.734 2.253 2.253 0 01-.554-1.228 2.208 2.208 0 01.258-1.312c.221-.404.564-.738.984-.959a2.602 2.602 0 011.879-.184 2.45 2.45 0 011.469 1.123zM89.94 82.198L93 110.764l13.908 38.046-4.759 2.572-16.333-34.826-8.156-29.899s-.686-8.993 2.722-10.326c3.408-1.333 8.196.085 9.557 5.867zM106.947 148.848s3.06 6.111 3.408 7.716c.347 1.605.695 4.881-.646 6.346-1.619 1.765-3.1.403-3.1.403s-4.083-.938-4.083-4.177-.338-7.716-.338-7.716l4.759-2.572z" fill="#fff" stroke="#263238" stroke-linecap="round" stroke-linejoin="round"/><path d="M103.609 158.432l5.733 1.408" stroke="#263238" stroke-linecap="round" stroke-linejoin="round"/><path d="M104.98 154.78l1.63 2.422s-3.795 6.13-1.759 4.525c2.037-1.606 5.842-3.558 5.504-5.163a24.79 24.79 0 00-2.265-4.844" fill="#fff"/><path d="M104.98 154.78l1.63 2.422s-3.795 6.13-1.759 4.525c2.037-1.606 5.842-3.558 5.504-5.163a24.79 24.79 0 00-2.265-4.844" stroke="#263238" stroke-linecap="round" stroke-linejoin="round"/><path d="M73.676 47.869s-3.497-3.567-11.564-1.277-9.935 14.494-9.686 20.587c.248 6.092 6.457 12.963 4.58 16.014-1.878 3.051-8.882 10.166-8.345 17.836.536 7.669 7.262 13.724 16.948 10.927 9.686-2.798 8.067-13.997 6.14-18.09-1.928-4.092 2.156-5.848 3.497-14.747 1.34-8.899-7.262-16.268-7.262-22.623s6.954-5.332 6.954-5.332l-1.262-3.295z" fill="#263238" stroke="#263238" stroke-linecap="round" stroke-linejoin="round"/><path d="M61.556 71.994c1.272 2.478 2.752 5.126 4.222 7.98 4.908 9.462 1.073 12.879-6.388 18.117-7.46 5.238-5.752 11.677-3.834 12.672M71.113 50.376s-10.014.807-12.577 6.843c-1.55 3.67-.358 7.782 1.927 12.57M63.791 108.407c.77.274 1.592.395 2.414.357" stroke="#fff" stroke-width=".5" stroke-linecap="round" stroke-linejoin="round"/><path d="M73.676 49.746s-9.378 1.606-11.504 8.045c-2.126 6.44 10.441 15.959 11.077 22.961.636 7.003-8.315 11.096-11.494 16.531-2.236 3.812-1.987 8.008.367 10.12" stroke="#fff" stroke-width=".5" stroke-linecap="round" stroke-linejoin="round"/><path d="M97.738 179.356s-2.315 18.888-4.64 24.914c-2.324 6.027-7.53 53.385-7.818 56.126-.288 2.742 7.53 9.031 10.72 10.955 3.188 1.925 1.738 2.46-1.74 2.732-3.477.272-7.53-.272-9.268-3.285-1.739-3.014-5.802-3.83-5.802-3.83l-.576 6.571H77.45l-.864-8.214a9 9 0 01.864-5.473c1.45-3.013 1.987-9.312 1.987-17.836 0-8.523-1.738-22.182-.874-28.753.864-6.571 4.351-11.499 4.351-16.972 0-5.473.288-13.687.288-13.687l14.535-3.248z" fill="#fff" stroke="#263238" stroke-linecap="round" stroke-linejoin="round"/><path d="M76.587 265.324a8.595 8.595 0 01.367-4.215c1.799 2.873 6.955 6.769 10.929 8.317a15.232 15.232 0 006.845 1.089c.467.329.904.611 1.271.836 3.19 1.877 1.739 2.459-1.738 2.732-3.477.272-7.53-.273-9.27-3.286-1.738-3.013-5.801-3.83-5.801-3.83l-.576 6.571H77.45l-.864-8.214z" fill="#263238" stroke="#263238" stroke-linecap="round" stroke-linejoin="round"/><path d="M80.928 182.369s-4.967 13.959-9.557 26.003c-4.59 12.044-15.647 39.699-16.81 44.627-1.161 4.928-1.738 13.968-4.966 18.624-3.23 4.656-6.378 6.844-5.802-1.37.576-8.214 5.802-14.241 6.954-20.539 1.152-6.299 1.739-29.016 5.792-39.145 4.053-10.129 8.405-18.343 8.941-21.356.396-2.999.589-6.018.576-9.04l14.873 2.196z" fill="#fff" stroke="#263238" stroke-linecap="round" stroke-linejoin="round"/><path d="M44.388 266.732a7.823 7.823 0 001.47 4.337c1.67 1.765 4.362-1.661 5.762-3.755a17.286 17.286 0 01-1.987 4.3c-3.189 4.646-6.378 6.843-5.801-1.371.095-1.181.281-2.354.556-3.511z" fill="#263238" stroke="#263238" stroke-linecap="round" stroke-linejoin="round"/><path d="M78.643 72.182s-1.738 1.37-2.9 10.683c-1.163 9.312 6.09 38.328 6.09 38.328s-12.459 19.281-15.36 28.866c-2.9 9.584-4.639 45.49-4.639 45.49s6.09 2.197 18.548 3.014c12.458.816 19.124-2.188 19.124-2.188s.576-51.245.576-59.139c0-7.895.587-25.853 1.451-28.04.864-2.187 3.477-7.942 3.477-10.129 0-2.187-17.425-25.514-17.425-25.514l-8.942-1.37z" fill="#fff" stroke="#263238" stroke-linecap="round" stroke-linejoin="round"/><path d="M66.444 150.058c2.285-7.509 11.742-27.486 15.12-30.921 5.137 1.614 14.505 3.21 18.687 2.027-.129 2.817-.198 13.33-.198 16.024 0 7.942-.577 59.14-.577 59.14s-6.666 3.013-19.124 2.187c-12.458-.826-18.548-3.013-18.548-3.013s1.739-35.859 4.64-45.444zM85.071 39.909s3.11-6.402 9.26-6.402c6.149 0 8.881 5.163 7.52 9.678-1.361 4.515 4.093 3.23 4.779 6.14.685 2.91-4.441 4.833-7.173 4.833S85.07 39.908 85.07 39.908z" fill="#263238" stroke="#263238" stroke-linecap="round" stroke-linejoin="round"/><path d="M94.052 39.252c1.828-.94 3.974-1.615 4.968-.15 1.917 2.816-4.044 5.03-2.126 8.054 1.917 3.022 6.606 2.215 6.388 3.22-.219 1.004-3.189 1.605-3.189 1.605M90.923 41.298s.586-.479 1.46-1.06" stroke="#fff" stroke-width=".5" stroke-linecap="round" stroke-linejoin="round"/><path d="M100.838 54.806a2.962 2.962 0 01-.994-1.182c-.496-3.464-1.57-6.872-3.596-8.787-3.066-2.727-6.976-4.454-11.157-4.928a8.293 8.293 0 00-3.685.319c-5.276 1.746-9.806 5.191-8.832 13.499 1.073 9.152 8.613 11.443 8.613 11.443l.536 5.632 7.53 3.304.27-6.101s5.106 2.027 6.953 1.774c1.848-.254 2.424-2.544 3.23-5.848.295-1.508.441-3.038.436-4.572l2.255-2.121c1.282-1.23.02-1.53-1.559-2.432z" fill="#fff" stroke="#263238" stroke-linecap="round" stroke-linejoin="round"/><path d="M72.554 53.727c-.994-8.308 3.556-11.753 8.832-13.5a8.293 8.293 0 013.685-.318c2.85.36 5.594 1.26 8.067 2.647-1.51-.291 1.063 3.905-1.301 6.571-2.07 2.475-4.71 4.472-7.72 5.839 0 0-2.682-2.037-3.496.76-.815 2.798-.537 4.825 1.619 5.342 2.156.516 2.98 0 2.98 0s-1.43 3.2-3.973 4.524v-.46s-7.57-2.243-8.693-11.405z" fill="#263238" stroke="#263238" stroke-linecap="round" stroke-linejoin="round"/><path d="M93.098 72.454l-1.44 7.397-15.36-7.67 1.451-6.843 15.35 7.116zM85.677 134.823c1.591.322 3.205.529 4.829.62 1.261-.075 2.98-1.418 4.252-.845 1.271.572 3.05 4.187 3.05 4.187s1.689.807 1.202 1.661c-.487.854-2.573 1.643-2.573 1.643s-1.987 1.774-3.14 1.952c-1.152.179-8.176-4.693-8.176-4.693l.556-4.525z" fill="#fff" stroke="#263238" stroke-linecap="round" stroke-linejoin="round"/><path d="M86.422 138.334c.233-.264.4-.574.489-.907.09-.333.099-.68.027-1.017a2.242 2.242 0 00-.44-.929 2.413 2.413 0 00-.82-.658l-19.304-17.085 21.022-30.884a6.794 6.794 0 00.635-5.336c-.531-1.789-1.779-3.312-3.478-4.246a7.945 7.945 0 00-5.626-.758c-1.908.448-3.557 1.581-4.595 3.159l-18.22 34.216c-.948.869-1.495 2.055-1.525 3.302a4.606 4.606 0 001.366 3.363l.07.066c1.827 2.666 21.935 16.606 27.816 18.427.457.137.947.142 1.407.015.46-.127.87-.381 1.176-.728zM162.8 91.05s2.494 7.295 2.494 8.712a24.307 24.307 0 01-.249 3.06l2.196 3.22a.89.89 0 01.111.687.94.94 0 01-.419.571l-3.388 1.877s-.496 7.51-.993 8.449c-.497.939-8.941.713-8.941.713l-2.742 4.938-14.207-5.172 3.736-9.66-.775-14.578s8.722-7.285 23.177-2.816z" fill="#fff" stroke="#263238" stroke-linecap="round" stroke-linejoin="round"/><path d="M153.074 108.792s-2.474 2.197-4.331 2.347c-1.858.15-7.898-1.173-8.365-1.755-.467-.582-4.64-8.777-4.491-12.73.149-3.951.318-9.8 4.799-11.696 4.48-1.896 11.613-1.323 15.329-3.51 3.715-2.188 9.597-3.953 12.696-.15 3.1 3.8.775 9.067-1.699 11.264-2.473 2.196-5.573 2.816-5.265 3.755.308.938 2.166 2.046 1.083 3.51-1.083 1.465-4.967 2.817-4.967 3.361 0 .545.934 2.638-.149 2.929-1.083.291-2.176-2.046-3.259-2.046-1.083 0-3.388 2.825-1.381 4.721z" fill="#263238" stroke="#263238" stroke-linecap="round" stroke-linejoin="round"/><path d="M146.607 102.081a7.388 7.388 0 00-1.133 1.558M166.953 86.92a9.374 9.374 0 01-1.807 4.475 10.122 10.122 0 01-3.856 3.11c-3.974 1.943-9.269 3.53-12.786 5.97M161.747 96.364s-3.527 2.816-7.302 5.717a32.772 32.772 0 01-8.494 4.459" stroke="#fff" stroke-width=".5" stroke-linecap="round" stroke-linejoin="round"/><path d="M152.826 109.187l1.987.469a6.131 6.131 0 00.208 2.62 6.37 6.37 0 001.292 2.327" fill="#fff"/><path d="M152.826 109.187l1.987.469a6.131 6.131 0 00.208 2.62 6.37 6.37 0 001.292 2.327M155.131 104.145l14.028-3.285M165.552 100.597l3.199.132s1.103 3.417-2.225 3.811" stroke="#263238" stroke-linecap="round" stroke-linejoin="round"/><path d="M151.405 262.893s12.915 7.707 15.19 7.707c2.275 0 3.408 1.934 2.275 2.15-1.132.216-8.166.422-12.915.638-4.749.216-7.947-.216-10.66-.216-2.712 0-5.901.216-7.262-.422-1.361-.638.914-7.932.914-9.218 0-1.286 10.869-1.502 12.458-.639z" fill="#263238" stroke="#263238" stroke-linecap="round" stroke-linejoin="round"/><path d="M168.056 270.919c-5.017 1.558-13.154.535-18.042.113-3.864-.329-9.934-.404-12.408-.423-.1 1.099 0 1.934.387 2.141 1.361.638 4.54.422 7.262.422 2.723 0 5.892.432 10.66.216 4.769-.216 11.793-.432 12.915-.638.885-.169.467-1.277-.774-1.831z" fill="#fff" stroke="#263238" stroke-linecap="round" stroke-linejoin="round"/><path d="M161.608 209.949l-10.193 48.298 2.126 5.012c-1.525 2.088-3.827 3.556-6.447 4.112-2.914.541-5.873.83-8.842.864 0 0-1.133-5.361-.447-6.008.685-.648.904-3.211.904-3.211l5.891-48.644 17.008-.423z" fill="#5BBD81" stroke="#263238" stroke-linecap="round" stroke-linejoin="round"/><path d="M192.674 261.26s7.948 6.214 11.574 7.284c3.626 1.07 7.481 2.141 7.481 3.211 0 1.07-8.614 2.14-15.191 1.502-6.576-.639-16.561-3.427-18.826-3.427-2.265 0-1.818-5.576-1.818-6.43 0-.854 11.117-7.716 16.78-2.14z" fill="#263238" stroke="#263238" stroke-linecap="round" stroke-linejoin="round"/><path d="M211.768 271.755c0-.385-.507-.77-1.311-1.155a74.025 74.025 0 01-19.552-.131 160.15 160.15 0 01-14.782-2.722c.238 1.154.705 2.084 1.629 2.084 2.265 0 12.249 2.816 18.826 3.426 6.577.61 15.19-.432 15.19-1.502z" fill="#fff" stroke="#263238" stroke-linecap="round" stroke-linejoin="round"/><path d="M153.223 188.302a109.462 109.462 0 0120.406.432c11.564 1.286 37.404 2.816 37.851 5.576.447 2.76-20.048 60.764-20.048 62.256 0 1.493 1.808 3.004 2.265 3.858.288.61.444 1.267.457 1.934 0 0-5.554 5.633-9.865 7.163-4.312 1.53-7.948.094-8.842.094-.894 0-.904-5.783-.219-8.571.686-2.788 1.809-9.857 2.037-10.495.229-.638 12.647-41.886 12.647-41.886s-33.778 5.144-53.955 2.995c-20.178-2.15-22.224-5.135-23.357-9.641-1.132-4.506 1.133-13.499 1.133-13.499l39.49-.216z" fill="#5BBD81" stroke="#263238" stroke-linecap="round" stroke-linejoin="round"/><path d="M150.67 202.186c-.458.626-.97 1.216-1.53 1.764M156.85 190.658a79.235 79.235 0 01-4.501 9.003M154.147 192.808c-2.736 4.265-6.879 7.563-11.793 9.387" stroke="#263238" stroke-linecap="round" stroke-linejoin="round"/><path d="M205.628 204.636c.775-.282 1.52-.573 2.226-.873l-2.226.873z" fill="#fff"/><path d="M205.628 204.636c.775-.282 1.52-.573 2.226-.873" stroke="#263238" stroke-linecap="round" stroke-linejoin="round"/><path d="M189.912 208.663a122.208 122.208 0 0012.915-3.088l-12.915 3.088z" fill="#fff"/><path d="M189.912 208.663a122.208 122.208 0 0012.915-3.088" stroke="#263238" stroke-linecap="round" stroke-linejoin="round"/><path d="M216.13 137.498c.477-1.793 1.271-1.652.636-2.243-.875-.826-1.58.15-4.113 1.492-2.534 1.343-5.057 2.985-5.057 2.985.055-.498.274-.967.626-1.342.64-.99.984-2.125.993-3.285 0-.939-.795-.751-1.113.15-.317.901-3.159 2.534-3.318 3.285-.159.751-.725 3.699-.725 3.699-.904 1.286-.904 7.284-.904 7.284l-18.409 13.067-9.299 10.326s4.083 6.215 6.349 5.36c2.265-.854 3.397-1.717 8.841-6.007 4.61-3.633 16.164-20.389 16.164-20.389a42.869 42.869 0 005.693-4.037c2.048-2.19 3.259-4.967 3.437-7.885a9.33 9.33 0 01.199-2.46zM130.95 117.673s1.748-6.196 9.179-4.957c7.432 1.239 13.114 7.022 14.426 9.087 1.311 2.065-24.042-.826-24.042-.826l.437-3.304z" fill="#fff" stroke="#263238" stroke-linecap="round" stroke-linejoin="round"/><path d="M173.788 171.78s-1.729 1.765 0 4.544c1.182 1.924 3.268 3.398 7.262 2.75 3.735-.619 9.349-9.387 9.349-15.554 0-6.168-4.809-6.572-6.557-5.37-1.749 1.202-10.054 13.63-10.054 13.63z" fill="#fff" stroke="#263238" stroke-linecap="round" stroke-linejoin="round"/><path d="M134.169 116.95s-17.684 7.932-20.178 9.387c-2.493 1.455-4.083 20.136-4.083 23.356 0 3.219 2.494 34.732 3.169 40.064.676 5.332 22.453 9.003 29.715 7.069 7.262-1.934 14.336-6.806 14.336-8.524 0-1.718-.686-16.277-.229-19.065.457-2.788 4.53-14.569 4.53-14.569l12.379 18.662s1.301 2.29 5.901.488c6.577-2.572 7.123-12.513 7.123-12.513s-7.252-11.997-9.299-17.996c-2.046-5.998-2.98-10.504-3.854-11.574-.874-1.07-21.32-10.073-24.946-12.429a16.619 16.619 0 00-6.98-2.847 17.015 17.015 0 00-7.584.491z" fill="#fff" stroke="#263238" stroke-linecap="round" stroke-linejoin="round"/><path d="M161.38 154.668l-5.892-8.148M160.426 153.504l-10.382-4.835" stroke="#263238" stroke-linecap="round" stroke-linejoin="round"/><path d="M129.658 214.962l9.061 60.848c.02.141.072.276.152.397.079.121.184.226.309.306a1.14 1.14 0 00.86.151 1.1 1.1 0 00.631-.404.997.997 0 00.203-.694l-6.388-61.608-4.828 1.004zM103.629 215.441L88.489 275.2a.971.971 0 00.16.813c.085.118.195.217.323.292.129.075.272.124.421.144.259.036.523-.018.743-.153.22-.135.38-.341.45-.58l17.584-57.994-4.541-2.281z" fill="#263238" stroke="#263238" stroke-linecap="round" stroke-linejoin="round"/><path d="M131.129 214.699l-9.637 60.764a.978.978 0 00.225.795c.093.111.209.203.342.269.132.067.277.107.427.119a1.13 1.13 0 00.725-.215c.206-.152.347-.369.397-.611l12.23-59.215-4.709-1.906zM165.244 214.962l9.061 60.848c.02.141.072.276.152.397.079.121.184.225.309.306a1.14 1.14 0 00.86.151c.254-.059.478-.203.631-.404a.997.997 0 00.203-.694l-6.417-61.628-4.799 1.024z" fill="#263238" stroke="#263238" stroke-linecap="round" stroke-linejoin="round"/><path d="M89.294 151.814l11.027 67.748h78.425s1.162-19.526-2.295-26.426c-3.458-6.899-46.147 7.895-47.687 7.51-1.142-.272.547-35.249 2.643-48.917a6.41 6.41 0 00-.217-2.875 6.668 6.668 0 00-1.462-2.53 7.16 7.16 0 00-2.443-1.728 7.529 7.529 0 00-2.981-.611H96.387a7.528 7.528 0 00-3.003.619 7.15 7.15 0 00-2.453 1.751 6.663 6.663 0 00-1.452 2.56 6.413 6.413 0 00-.185 2.899z" fill="#5BBD81" stroke="#263238" stroke-linecap="round" stroke-linejoin="round"/><path d="M176.45 193.136c-3.457-6.899-46.146 7.895-47.686 7.51-1.142-.272.546-35.249 2.643-48.917a6.226 6.226 0 00-.119-2.859 6.464 6.464 0 00-1.394-2.541 6.929 6.929 0 00-2.405-1.74 7.31 7.31 0 00-5.912.028 6.918 6.918 0 00-2.386 1.763 6.442 6.442 0 00-1.366 2.554 6.205 6.205 0 00-.088 2.861l11.027 67.748h49.981s1.163-19.507-2.295-26.407z" fill="#263238" stroke="#263238" stroke-linecap="round" stroke-linejoin="round"/><path d="M216.129 137.499s-1.261 1.192-3.159 3.285l3.159-3.285z" fill="#fff"/><path d="M216.129 137.499s-1.261 1.192-3.159 3.285" stroke="#263238" stroke-linecap="round" stroke-linejoin="round"/><path d="M215.931 139.92s-1.54 2.957-2.484 4.3l2.484-4.3z" fill="#fff"/><path d="M215.931 139.92s-1.54 2.957-2.484 4.3" stroke="#263238" stroke-linecap="round" stroke-linejoin="round"/><path d="M3.498 174.165c1.65.676 5.673.592 5.683.592.01 0-.865-2.488-.944-2.638-.884-1.756-3.686-4.638-5.961-4.347a2.811 2.811 0 00-1.055.389c-.319.198-.59.458-.795.762-.205.304-.34.645-.396 1.002-.057.356-.033.72.07 1.067.378 1.483 1.987 2.591 3.398 3.173z" fill="#263238"/><path d="M56.301 161.202c-2.285-.235-4.967 2.722-5.832 4.496-.069.15-.904 2.666-.864 2.666-.437.46-.894.939-1.38 1.521a60.14 60.14 0 00-2.892 3.567 47.69 47.69 0 00-2.98 4.506 33.432 33.432 0 00-2.563 5.444.17.17 0 010 .066v-2.544c-.268-1.924-1.987-5.491-4.232-5.886a2.87 2.87 0 00-1.123.052 2.768 2.768 0 00-1.005.478 2.598 2.598 0 00-.713.821 2.457 2.457 0 00-.299 1.024c-.139 1.53.994 3.061 2.176 4.018 1.291 1.089 4.868 2.14 5.156 2.225a41.91 41.91 0 00-1.51 5.961 68.537 68.537 0 00-.576 3.52v-1.108c-.258-1.924-1.987-5.491-4.223-5.886a2.871 2.871 0 00-1.13.059 2.79 2.79 0 00-1.008.487 2.608 2.608 0 00-.71.833 2.465 2.465 0 00-.29 1.034c-.13 1.53.993 3.06 2.185 4.027 1.192.967 4.182 1.934 4.967 2.169-.06.46-.129.938-.189 1.361-.268 2.178-.536 4.355-.864 6.477-.12.751-.258 1.483-.397 2.215v-.938c-.269-1.925-1.987-5.492-4.233-5.886a2.867 2.867 0 00-1.13.062c-.367.095-.71.262-1.005.491a2.596 2.596 0 00-.707.834c-.171.322-.269.675-.287 1.035-.13 1.52.994 3.05 2.186 4.017a17.87 17.87 0 004.818 2.094 48.701 48.701 0 01-.536 2.215c-.15.488-.249.939-.428 1.446a59.22 59.22 0 00-.486 1.427c-.348.891-.696 1.821-1.053 2.684-.249.611-.497 1.183-.736 1.756.12-.742.328-2.206.338-2.328a9.588 9.588 0 00-1.42-4.853 2.164 2.164 0 000-.564 2.472 2.472 0 00-.37-1.021 2.628 2.628 0 00-.782-.787 2.793 2.793 0 00-1.055-.413 2.869 2.869 0 00-1.142.034c-2.225.554-3.626 4.234-3.735 6.168 0 .112.08 1.361.14 2.149-.11-.46-.22-.939-.339-1.37a74.138 74.138 0 00-.765-2.817c-.159-.478-.308-.938-.467-1.436-.159-.497-.357-.938-.536-1.464a47.864 47.864 0 00-1.47-3.389c.854-.197 3.894-.939 5.116-1.812 1.222-.873 2.503-2.328 2.494-3.858a2.442 2.442 0 00-.208-1.064 2.573 2.573 0 00-.653-.888 2.734 2.734 0 00-.982-.554 2.841 2.841 0 00-1.138-.122c-2.285.234-4.272 3.67-4.679 5.566 0 .122-.169 1.512-.229 2.281a64.543 64.543 0 00-.993-2.027c-.994-1.934-2.126-3.877-3.209-5.811l-.993-1.783c.308-.066 3.974-.855 5.305-1.878 1.331-1.023 2.503-2.319 2.493-3.858a2.45 2.45 0 00-.21-1.062 2.567 2.567 0 00-.654-.886 2.746 2.746 0 00-.98-.555 2.87 2.87 0 00-1.136-.126c-2.285.235-4.262 3.671-4.68 5.567 0 .15-.228 2.15-.248 2.666a88.002 88.002 0 01-2.056-3.933 43.84 43.84 0 01-2.245-5.473c.139 0 3.973-.845 5.345-1.877 1.212-.883 2.503-2.328 2.483-3.859a2.436 2.436 0 00-.207-1.063 2.555 2.555 0 00-.653-.888 2.75 2.75 0 00-.983-.555 2.86 2.86 0 00-1.137-.122c-2.285.235-4.262 3.67-4.68 5.567 0 .15-.238 2.309-.248 2.703 0-.112-.08-.216-.119-.328a32.052 32.052 0 01-1.162-5.774 43.802 43.802 0 01-.219-3.125c.725-.085 3.974-.498 5.395-1.277 1.42-.779 2.761-2.056 2.98-3.577.052-.357.023-.72-.083-1.066a2.524 2.524 0 00-.536-.943 2.7 2.7 0 00-.894-.655 2.845 2.845 0 00-1.1-.255c-2.305 0-4.67 3.21-5.305 5.05 0 .103-.258 1.155-.417 1.925v-1.362c0-1.642.11-3.144.218-4.468.07-.76.15-1.445.229-2.084.665-.432 3.318-2.196 4.133-3.464.814-1.267 1.45-3.022.854-4.449a2.541 2.541 0 00-.593-.909 2.72 2.72 0 00-.933-.601 2.825 2.825 0 00-1.112-.19c-.38.011-.755.097-1.097.254-2.047.995-2.583 4.872-2.246 6.787 0 .16.805 2.694.835 2.675-.09.611-.179 1.268-.258 1.991-.14 1.333-.279 2.816-.328 4.487a44.356 44.356 0 00.139 5.313c.146 1.983.479 3.949.993 5.876a.17.17 0 010 .066c-.357-.535-1.42-2-1.52-2.103-1.34-1.464-4.848-3.558-6.954-2.703a2.705 2.705 0 00-.91.634c-.253.27-.443.587-.557.931a2.428 2.428 0 00.255 2.077c.785 1.342 2.653 2.009 4.173 2.215 1.708.235 5.305-.751 5.593-.826a44.161 44.161 0 002.175 5.708c.497 1.079.994 2.159 1.58 3.229-.328-.46-.626-.864-.665-.939-1.342-1.464-4.849-3.558-6.955-2.703a2.684 2.684 0 00-.882.677c-.24.282-.414.609-.511.959a2.426 2.426 0 00-.05 1.073c.064.357.207.698.42.999.775 1.342 2.652 2.008 4.163 2.215 1.51.206 4.62-.563 5.434-.789.218.413.427.827.646 1.23.993 1.962 2.096 3.915 3.06 5.858.337.685.645 1.37.993 2.056l-.586-.789c-1.341-1.464-4.848-3.548-6.954-2.703-.347.15-.657.368-.908.639-.252.271-.441.589-.554.933a2.44 2.44 0 00.26 2.079c.784 1.343 2.652 2.009 4.162 2.216a18.562 18.562 0 005.295-.751c.298.713.596 1.426.845 2.121.168.488.357.939.486 1.436.13.498.288.939.428 1.446.238.939.486 1.877.695 2.816.15.629.278 1.239.407 1.878-.337-.686-.993-2.019-1.082-2.122-1.093-1.643-4.223-4.205-6.448-3.67-.366.1-.706.271-.998.503a2.598 2.598 0 00-.695.843 2.443 2.443 0 00-.075 2.089c.556 1.437 2.294 2.366 3.755 2.817 1.62.46 5.186 0 5.633 0 .218 1.004.407 1.99.586 2.919.596 3.22.993 5.933 1.202 7.82 0 .338.08.638.11.938H18.31l2.523 46.533h11.783L35.14 227.4h-6.447l.149-.272a131.295 131.295 0 003.427-7.303c.427-.939.855-2 1.282-3.07.437.085 3.974.761 5.613.404 1.5-.319 3.308-1.117 3.974-2.507a2.446 2.446 0 00.09-2.091 2.558 2.558 0 00-.63-.889 2.747 2.747 0 00-.96-.568c-2.176-.695-5.494 1.643-6.716 3.201-.07.094-.735 1.174-1.143 1.878l.527-1.315a64.97 64.97 0 00.993-2.769l.447-1.436c.17-.479.279-.995.418-1.502.288-1.173.526-2.375.745-3.595.824.281 3.795 1.258 5.325 1.154 1.53-.103 3.447-.629 4.331-1.877.224-.297.38-.635.455-.992a2.43 2.43 0 00-.017-1.08 2.511 2.511 0 00-.484-.979 2.685 2.685 0 00-.868-.704c-1.987-.939-5.702.845-7.153 2.206-.09.094-.993 1.183-1.51 1.793.12-.732.239-1.465.338-2.216.288-2.149.497-4.336.725-6.514.07-.667.15-1.333.219-2 .298.104 3.795 1.333 5.513 1.221 1.52-.104 3.438-.629 4.322-1.878.224-.296.38-.634.455-.991.075-.358.07-.726-.017-1.081a2.518 2.518 0 00-.484-.979 2.687 2.687 0 00-.868-.704c-1.987-.985-5.693.845-7.153 2.206-.11.104-1.44 1.681-1.758 2.094a88.41 88.41 0 01.586-4.356 42.123 42.123 0 011.321-5.726c.14 0 3.775 1.342 5.544 1.229 1.52-.103 3.437-.638 4.321-1.877.226-.296.382-.634.459-.991a2.426 2.426 0 00-.016-1.082 2.505 2.505 0 00-.486-.979 2.68 2.68 0 00-.87-.703c-1.988-.995-5.693.836-7.154 2.206-.109.103-1.54 1.802-1.778 2.122l.09-.329a32.367 32.367 0 012.404-5.426 45.788 45.788 0 011.639-2.722c.655.31 3.656 1.69 5.245 1.746 1.59.056 3.497-.272 4.53-1.455.246-.27.43-.585.54-.925a2.43 2.43 0 00-.261-2.052 2.622 2.622 0 00-.755-.778c-1.918-1.202-5.762.235-7.362 1.446-.09.065-.904.826-1.48 1.389.258-.385.517-.789.775-1.145a73.215 73.215 0 012.801-3.624c.497-.591.994-1.117 1.401-1.605.805 0 4.053-.113 5.474-.742 1.42-.628 2.98-1.764 3.308-3.257a2.431 2.431 0 00-.255-2.219 2.642 2.642 0 00-.856-.811 2.803 2.803 0 00-1.144-.377zm-25.284 57.966a135.849 135.849 0 01-3.556 7.153l-.507.939h-.149c0-.329-.1-.695-.159-1.099a128.914 128.914 0 00-1.4-7.876 97.169 97.169 0 00-.726-3.229 31.028 31.028 0 003.14-1.399 20.012 20.012 0 004.58 2.817c-.408.91-.825 1.83-1.223 2.694z" fill="#263238"/><path d="M44.27 175.001s.735-2.526.755-2.695c.288-1.924-.358-5.782-2.434-6.73a2.862 2.862 0 00-2.195-.012 2.726 2.726 0 00-.915.613 2.553 2.553 0 00-.576.91c-.556 1.436.15 3.201.994 4.422.993 1.464 4.371 3.492 4.371 3.492zM418.339 273.707H14.247v4.675H418.34v-4.675z" fill="#263238"/></svg>
