<svg width="500" height="500" viewBox="0 0 500 500" fill="none" xmlns="http://www.w3.org/2000/svg">
<path d="M243.43 24.09C243.427 23.9539 243.404 23.819 243.36 23.69C243.36 23.69 243.36 23.63 243.36 23.61C243.34 23.477 243.307 23.3463 243.26 23.22C243.205 23.0236 243.117 22.8378 243 22.67C242.969 22.5848 242.922 22.5066 242.86 22.44C242.826 22.3801 242.782 22.3261 242.73 22.28C242.653 22.1723 242.558 22.0778 242.45 22V22C242.339 21.9111 242.214 21.8402 242.08 21.79C241.6 21.6102 241.083 21.5498 240.575 21.6143C240.066 21.6788 239.58 21.8661 239.16 22.16L49.1003 131.48C47.8369 132.304 46.7856 133.415 46.0316 134.721C45.2775 136.028 44.842 137.494 44.7603 139V303.17C44.7577 303.706 44.9017 304.232 45.1767 304.692C45.4516 305.152 45.8471 305.528 46.3203 305.78L46.5103 305.9C46.5822 305.951 46.6593 305.995 46.7403 306.03C46.8573 306.09 46.9817 306.133 47.1103 306.16C47.2906 306.203 47.475 306.226 47.6603 306.23C48.1688 306.228 48.6668 306.086 49.1003 305.82L49.2103 305.75L53.3503 303.36L239.11 196.36C240.374 195.538 241.426 194.43 242.18 193.125C242.934 191.82 243.369 190.355 243.45 188.85V24.63C243.454 24.4498 243.447 24.2695 243.43 24.09V24.09Z" fill="#455A64"/>
<path d="M242 21.76C241.52 21.5801 241.003 21.5198 240.494 21.5843C239.986 21.6487 239.5 21.836 239.08 22.13L49.1 131.48C47.8366 132.304 46.7853 133.415 46.0312 134.721C45.2772 136.028 44.8417 137.494 44.76 139V145.34L39.23 142.1V135.86C39.3102 134.358 39.7431 132.897 40.4937 131.594C41.2442 130.291 42.2913 129.183 43.55 128.36L233.59 19C234.038 18.6697 234.569 18.4705 235.123 18.4246C235.678 18.3787 236.234 18.4879 236.73 18.74C237.52 19.21 241.11 21.27 242 21.76Z" fill="#5BBD81"/>
<path d="M243.45 24.6C243.45 21.86 241.5 20.76 239.12 22.13L49.1003 131.48C47.8363 132.304 46.7846 133.414 46.0305 134.721C45.2764 136.027 44.8412 137.494 44.7603 139V145.35L243.45 31V24.6Z" fill="#5BBD81"/>
<g opacity="0.5">
<path opacity="0.5" d="M239.12 22.13L49.1 131.48C47.829 132.28 46.7801 133.388 46.05 134.7L40.54 131.51C41.2492 130.214 42.283 129.126 43.54 128.35L233.59 19C234.039 18.6713 234.57 18.4739 235.125 18.4298C235.679 18.3856 236.235 18.4965 236.73 18.75C237.51 19.22 241.11 21.27 242.02 21.75C241.542 21.5716 241.028 21.5129 240.523 21.5791C240.017 21.6454 239.536 21.8345 239.12 22.13V22.13Z" fill="white"/>
</g>
<path opacity="0.15" d="M39.2202 142.11V135.84C39.2841 134.308 39.7385 132.817 40.5402 131.51L46.0602 134.69C45.2648 135.987 44.8203 137.469 44.7702 138.99V145.34L39.2202 142.11Z" fill="black"/>
<path opacity="0.9" d="M46.3202 305.8L46.0902 305.67L41.5202 303C40.9131 302.648 40.3941 302.163 40.0025 301.581C39.6109 300.999 39.3571 300.335 39.2602 299.64C39.2453 299.43 39.2453 299.22 39.2602 299.01V142.01L44.8002 145.26V303.17C44.7939 303.662 44.9149 304.147 45.1515 304.578C45.388 305.009 45.7321 305.371 46.1502 305.63C46.1944 305.667 46.2412 305.7 46.2902 305.73C46.2902 305.73 46.2902 305.73 46.2902 305.73L46.3202 305.8Z" fill="#263238"/>
<g opacity="0.5">
<path opacity="0.5" d="M75.6 139.17L115.37 116.23C115.97 115.88 116.45 116.13 116.45 116.77C116.424 117.135 116.313 117.489 116.125 117.803C115.938 118.118 115.679 118.384 115.37 118.58L75.61 141.58C75.01 141.92 74.52 141.68 74.52 141.03C74.5406 140.657 74.6492 140.294 74.8369 139.97C75.0246 139.647 75.2861 139.373 75.6 139.17V139.17Z" fill="#5BBD81"/>
<path opacity="0.5" d="M93.34 157.42L170.49 112.83C171.09 112.49 171.58 112.73 171.58 113.38C171.553 113.745 171.44 114.098 171.251 114.411C171.061 114.723 170.801 114.987 170.49 115.18L93.34 159.78C92.74 160.12 92.25 159.88 92.25 159.23C92.2778 158.864 92.3908 158.51 92.5801 158.196C92.7694 157.881 93.0296 157.616 93.34 157.42Z" fill="#5BBD81"/>
<path opacity="0.5" d="M119.57 113.8L171.15 84.09C171.75 83.75 172.24 83.99 172.24 84.64C172.213 85.0047 172.1 85.3579 171.911 85.6707C171.722 85.9835 171.461 86.2471 171.15 86.44L119.57 116.15C118.98 116.49 118.49 116.25 118.49 115.6C118.517 115.236 118.628 114.884 118.816 114.571C119.004 114.259 119.262 113.995 119.57 113.8V113.8Z" fill="#5BBD81"/>
<path opacity="0.5" d="M75.6 145.93L94.2 135.19C94.8 134.84 95.29 135.09 95.29 135.74C95.2623 136.104 95.1492 136.457 94.9598 136.77C94.7704 137.083 94.5102 137.346 94.2 137.54L75.61 148.28C75.01 148.63 74.52 148.38 74.52 147.73C74.5482 147.367 74.6604 147.015 74.8479 146.703C75.0353 146.39 75.2928 146.126 75.6 145.93V145.93Z" fill="#5BBD81"/>
<path opacity="0.6" d="M75.6 145.93L94.2 135.19C94.8 134.84 95.29 135.09 95.29 135.74C95.2623 136.104 95.1492 136.457 94.9598 136.77C94.7704 137.083 94.5102 137.346 94.2 137.54L75.61 148.28C75.01 148.63 74.52 148.38 74.52 147.73C74.5482 147.367 74.6604 147.015 74.8479 146.703C75.0353 146.39 75.2928 146.126 75.6 145.93V145.93Z" fill="white"/>
<path opacity="0.5" d="M75.6 152.65L85.53 146.94C86.13 146.6 86.62 146.84 86.62 147.49C86.5922 147.856 86.4792 148.21 86.2899 148.524C86.1006 148.839 85.8404 149.104 85.53 149.3L75.61 155C75.01 155.34 74.52 155.1 74.52 154.45C74.5467 154.086 74.6583 153.734 74.8458 153.421C75.0334 153.109 75.2917 152.845 75.6 152.65V152.65Z" fill="#5BBD81"/>
<path opacity="0.6" d="M75.6 152.65L85.53 146.94C86.13 146.6 86.62 146.84 86.62 147.49C86.5922 147.856 86.4792 148.21 86.2899 148.524C86.1006 148.839 85.8404 149.104 85.53 149.3L75.61 155C75.01 155.34 74.52 155.1 74.52 154.45C74.5467 154.086 74.6583 153.734 74.8458 153.421C75.0334 153.109 75.2917 152.845 75.6 152.65V152.65Z" fill="white"/>
<path opacity="0.5" d="M98.4101 132.76L145.81 105.42C146.41 105.07 146.89 105.32 146.89 105.97C146.864 106.334 146.753 106.686 146.565 106.999C146.378 107.312 146.119 107.576 145.81 107.77L98.4101 135.11C97.8101 135.46 97.3301 135.21 97.3301 134.56C97.3551 134.196 97.4661 133.843 97.6538 133.53C97.8415 133.217 98.1007 132.953 98.4101 132.76V132.76Z" fill="#5BBD81"/>
<path opacity="0.6" d="M98.4101 132.76L145.81 105.42C146.41 105.07 146.89 105.32 146.89 105.97C146.864 106.334 146.753 106.686 146.565 106.999C146.378 107.312 146.119 107.576 145.81 107.77L98.4101 135.11C97.8101 135.46 97.3301 135.21 97.3301 134.56C97.3551 134.196 97.4661 133.843 97.6538 133.53C97.8415 133.217 98.1007 132.953 98.4101 132.76V132.76Z" fill="white"/>
<path opacity="0.5" d="M121.72 165.19L171.15 136.63C171.75 136.29 172.24 136.53 172.24 137.18C172.212 137.546 172.099 137.9 171.91 138.214C171.721 138.529 171.46 138.794 171.15 138.99L121.72 167.54C121.12 167.89 120.64 167.64 120.64 167C120.666 166.635 120.777 166.281 120.965 165.966C121.152 165.652 121.411 165.386 121.72 165.19V165.19Z" fill="#FFA8A7"/>
<path opacity="0.5" d="M121.72 158.48L171.15 129.89C171.75 129.54 172.24 129.79 172.24 130.43C172.212 130.796 172.099 131.15 171.91 131.464C171.721 131.779 171.46 132.044 171.15 132.24L121.72 160.83C121.12 161.18 120.64 160.93 120.64 160.28C120.666 159.916 120.777 159.564 120.965 159.251C121.153 158.938 121.411 158.674 121.72 158.48Z" fill="#FFA8A7"/>
<path opacity="0.5" d="M89.0002 145L110.5 132.5C111.1 132.15 111.58 132.4 111.58 133.05C111.553 133.413 111.441 133.765 111.253 134.078C111.066 134.39 110.808 134.655 110.5 134.85L89.0002 147.31C88.4002 147.65 87.9102 147.41 87.9102 146.76C87.9432 146.402 88.0588 146.057 88.248 145.752C88.4371 145.446 88.6946 145.189 89.0002 145V145Z" fill="#5BBD81"/>
<path opacity="0.6" d="M89.0002 145L110.5 132.5C111.1 132.15 111.58 132.4 111.58 133.05C111.553 133.413 111.441 133.765 111.253 134.078C111.066 134.39 110.808 134.655 110.5 134.85L89.0002 147.31C88.4002 147.65 87.9102 147.41 87.9102 146.76C87.9432 146.402 88.0588 146.057 88.248 145.752C88.4371 145.446 88.6946 145.189 89.0002 145V145Z" fill="white"/>
<path opacity="0.5" d="M114.71 130.07L170.51 98.1499C171.11 97.7999 171.6 98.0499 171.6 98.6999C171.572 99.0644 171.459 99.4173 171.27 99.73C171.081 100.043 170.82 100.306 170.51 100.5L114.71 132.42C114.11 132.76 113.62 132.52 113.62 131.87C113.647 131.505 113.76 131.152 113.949 130.839C114.139 130.526 114.399 130.263 114.71 130.07Z" fill="#5BBD81"/>
<path opacity="0.6" d="M114.71 130.07L170.51 98.1499C171.11 97.7999 171.6 98.0499 171.6 98.6999C171.572 99.0644 171.459 99.4173 171.27 99.73C171.081 100.043 170.82 100.306 170.51 100.5L114.71 132.42C114.11 132.76 113.62 132.52 113.62 131.87C113.647 131.505 113.76 131.152 113.949 130.839C114.139 130.526 114.399 130.263 114.71 130.07Z" fill="white"/>
<path opacity="0.5" d="M89.0002 152.17L110.48 139.71C111.08 139.36 111.56 139.61 111.56 140.26C111.534 140.624 111.423 140.976 111.235 141.289C111.048 141.602 110.789 141.866 110.48 142.06L89.0002 154.52C88.4002 154.86 87.9102 154.62 87.9102 153.97C87.9371 153.605 88.0499 153.252 88.2393 152.939C88.4288 152.626 88.6895 152.363 89.0002 152.17Z" fill="#5BBD81"/>
<path opacity="0.6" d="M89.0002 152.17L110.48 139.71C111.08 139.36 111.56 139.61 111.56 140.26C111.534 140.624 111.423 140.976 111.235 141.289C111.048 141.602 110.789 141.866 110.48 142.06L89.0002 154.52C88.4002 154.86 87.9102 154.62 87.9102 153.97C87.9371 153.605 88.0499 153.252 88.2393 152.939C88.4288 152.626 88.6895 152.363 89.0002 152.17Z" fill="white"/>
<path opacity="0.5" d="M114.71 137.28L170.51 105.36C171.11 105.01 171.6 105.26 171.6 105.91C171.572 106.274 171.459 106.627 171.27 106.94C171.081 107.253 170.82 107.516 170.51 107.71L114.71 139.63C114.11 139.97 113.62 139.73 113.62 139.08C113.647 138.715 113.76 138.362 113.949 138.049C114.139 137.736 114.399 137.473 114.71 137.28Z" fill="#5BBD81"/>
<path opacity="0.6" d="M114.71 137.28L170.51 105.36C171.11 105.01 171.6 105.26 171.6 105.91C171.572 106.274 171.459 106.627 171.27 106.94C171.081 107.253 170.82 107.516 170.51 107.71L114.71 139.63C114.11 139.97 113.62 139.73 113.62 139.08C113.647 138.715 113.76 138.362 113.949 138.049C114.139 137.736 114.399 137.473 114.71 137.28Z" fill="white"/>
<path opacity="0.5" d="M121.72 172L171.15 143.61C171.75 143.26 172.24 143.51 172.24 144.16C172.212 144.524 172.099 144.877 171.91 145.19C171.721 145.503 171.46 145.766 171.15 145.96L121.72 174.35C121.12 174.7 120.64 174.46 120.64 173.81C120.666 173.445 120.777 173.091 120.965 172.776C121.152 172.462 121.411 172.196 121.72 172V172Z" fill="#F28F8F"/>
<path opacity="0.5" d="M121.72 178.72L171.15 150.33C171.75 149.98 172.24 150.23 172.24 150.88C172.212 151.245 172.099 151.597 171.91 151.91C171.721 152.223 171.46 152.486 171.15 152.68L121.72 181.08C121.12 181.42 120.64 181.18 120.64 180.53C120.666 180.165 120.777 179.811 120.965 179.497C121.152 179.182 121.411 178.916 121.72 178.72V178.72Z" fill="#F28F8F"/>
<path opacity="0.5" d="M121.72 185.45L171.15 157.06C171.75 156.71 172.24 156.96 172.24 157.61C172.212 157.974 172.099 158.327 171.91 158.64C171.721 158.953 171.46 159.216 171.15 159.41L121.72 187.81C121.12 188.15 120.64 187.91 120.64 187.26C120.666 186.895 120.777 186.541 120.965 186.226C121.152 185.912 121.411 185.646 121.72 185.45V185.45Z" fill="#F28F8F"/>
<path opacity="0.5" d="M121.72 194.39L171.15 166C171.75 165.65 172.24 165.9 172.24 166.55C172.212 166.914 172.099 167.267 171.91 167.58C171.721 167.893 171.46 168.156 171.15 168.35L121.72 196.73C121.12 197.08 120.64 196.83 120.64 196.18C120.667 195.818 120.778 195.467 120.966 195.156C121.154 194.845 121.412 194.582 121.72 194.39V194.39Z" fill="#5BBD81"/>
<path opacity="0.5" d="M72.7201 222.7L82.7201 216.89C83.3201 216.55 83.8101 216.79 83.8101 217.44C83.7832 217.805 83.6704 218.158 83.481 218.471C83.2915 218.783 83.0308 219.047 82.7201 219.24L72.7201 225.05C72.1301 225.4 71.6401 225.15 71.6401 224.5C71.6683 224.137 71.7806 223.785 71.968 223.473C72.1554 223.16 72.4129 222.896 72.7201 222.7Z" fill="#5BBD81"/>
<path opacity="0.6" d="M72.7201 222.7L82.7201 216.89C83.3201 216.55 83.8101 216.79 83.8101 217.44C83.7832 217.805 83.6704 218.158 83.481 218.471C83.2915 218.783 83.0308 219.047 82.7201 219.24L72.7201 225.05C72.1301 225.4 71.6401 225.15 71.6401 224.5C71.6683 224.137 71.7806 223.785 71.968 223.473C72.1554 223.16 72.4129 222.896 72.7201 222.7Z" fill="white"/>
<path opacity="0.5" d="M72.7201 228.79L82.7201 222.98C83.3201 222.63 83.8101 222.88 83.8101 223.53C83.7824 223.894 83.6693 224.247 83.4799 224.56C83.2906 224.873 83.0303 225.136 82.7201 225.33L72.7201 231.14C72.1301 231.48 71.6401 231.24 71.6401 230.59C71.6668 230.226 71.7784 229.874 71.966 229.561C72.1535 229.249 72.4118 228.985 72.7201 228.79V228.79Z" fill="#5BBD81"/>
<path opacity="0.6" d="M72.7201 228.79L82.7201 222.98C83.3201 222.63 83.8101 222.88 83.8101 223.53C83.7824 223.894 83.6693 224.247 83.4799 224.56C83.2906 224.873 83.0303 225.136 82.7201 225.33L72.7201 231.14C72.1301 231.48 71.6401 231.24 71.6401 230.59C71.6668 230.226 71.7784 229.874 71.966 229.561C72.1535 229.249 72.4118 228.985 72.7201 228.79V228.79Z" fill="white"/>
<path opacity="0.5" d="M121.72 200.52L171.15 171.92C171.75 171.58 172.24 171.82 172.24 172.47C172.213 172.835 172.1 173.188 171.911 173.501C171.722 173.813 171.461 174.077 171.15 174.27L121.72 202.87C121.12 203.22 120.64 202.97 120.64 202.32C120.665 201.956 120.776 201.603 120.964 201.29C121.152 200.977 121.411 200.713 121.72 200.52V200.52Z" fill="#FFA8A7"/>
<path opacity="0.5" d="M89.37 263.28L115.37 248.28C115.97 247.94 116.45 248.18 116.45 248.83C116.424 249.195 116.313 249.549 116.125 249.863C115.938 250.178 115.679 250.444 115.37 250.64L89.37 265.64C88.77 265.99 88.29 265.74 88.29 265.09C88.3144 264.724 88.4249 264.37 88.6126 264.055C88.8003 263.741 89.0599 263.475 89.37 263.28V263.28Z" fill="#5BBD81"/>
<path opacity="0.5" d="M119.57 245.79L171.15 216.15C171.75 215.81 172.24 216.05 172.24 216.7C172.212 217.066 172.099 217.42 171.91 217.734C171.721 218.049 171.461 218.314 171.15 218.51L119.57 248.15C118.98 248.49 118.49 248.25 118.49 247.6C118.518 247.235 118.631 246.882 118.818 246.568C119.005 246.254 119.263 245.988 119.57 245.79V245.79Z" fill="#5BBD81"/>
<path opacity="0.5" d="M72.7201 272.85L82.7201 267.04C83.3201 266.69 83.8101 266.94 83.8101 267.59C83.7824 267.954 83.6693 268.307 83.4799 268.62C83.2906 268.933 83.0303 269.196 82.7201 269.39L72.7201 275.2C72.1301 275.54 71.6401 275.3 71.6401 274.65C71.6668 274.286 71.7784 273.934 71.966 273.621C72.1535 273.309 72.4118 273.045 72.7201 272.85V272.85Z" fill="#5BBD81"/>
<path opacity="0.6" d="M72.7201 272.85L82.7201 267.04C83.3201 266.69 83.8101 266.94 83.8101 267.59C83.7824 267.954 83.6693 268.307 83.4799 268.62C83.2906 268.933 83.0303 269.196 82.7201 269.39L72.7201 275.2C72.1301 275.54 71.6401 275.3 71.6401 274.65C71.6668 274.286 71.7784 273.934 71.966 273.621C72.1535 273.309 72.4118 273.045 72.7201 272.85V272.85Z" fill="white"/>
<path opacity="0.5" d="M72.7201 278.93L82.7201 273.12C83.3201 272.78 83.8101 273.02 83.8101 273.67C83.7832 274.035 83.6704 274.388 83.481 274.701C83.2915 275.014 83.0308 275.277 82.7201 275.47L72.7201 281.28C72.1301 281.63 71.6401 281.38 71.6401 280.73C71.6683 280.367 71.7806 280.015 71.968 279.703C72.1554 279.39 72.4129 279.126 72.7201 278.93V278.93Z" fill="#5BBD81"/>
<path opacity="0.6" d="M72.7201 278.93L82.7201 273.12C83.3201 272.78 83.8101 273.02 83.8101 273.67C83.7832 274.035 83.6704 274.388 83.481 274.701C83.2915 275.014 83.0308 275.277 82.7201 275.47L72.7201 281.28C72.1301 281.63 71.6401 281.38 71.6401 280.73C71.6683 280.367 71.7806 280.015 71.968 279.703C72.1554 279.39 72.4129 279.126 72.7201 278.93V278.93Z" fill="white"/>
<path opacity="0.5" d="M123.76 249.41L171.15 222.07C171.75 221.72 172.24 221.97 172.24 222.62C172.213 222.984 172.1 223.337 171.91 223.65C171.721 223.963 171.461 224.226 171.15 224.42L123.76 251.76C123.16 252.11 122.67 251.86 122.67 251.21C122.697 250.845 122.81 250.492 123 250.179C123.189 249.866 123.45 249.603 123.76 249.41V249.41Z" fill="#FFA8A7"/>
<path opacity="0.5" d="M89.0002 233.91L171.13 186.61C171.73 186.27 172.22 186.51 172.22 187.16C172.192 187.526 172.079 187.88 171.89 188.194C171.701 188.509 171.441 188.774 171.13 188.97L89.0002 236.27C88.4002 236.61 87.9102 236.37 87.9102 235.72C87.9379 235.354 88.051 235 88.2403 234.686C88.4295 234.371 88.6898 234.106 89.0002 233.91Z" fill="#5BBD81"/>
<path opacity="0.5" d="M72.7201 243.26L82.7201 237.45C83.3201 237.1 83.8101 237.35 83.8101 238C83.7824 238.364 83.6693 238.717 83.4799 239.03C83.2906 239.343 83.0303 239.607 82.7201 239.8L72.7201 245.61C72.1301 245.96 71.6401 245.71 71.6401 245.06C71.6668 244.696 71.7784 244.344 71.966 244.031C72.1535 243.719 72.4118 243.455 72.7201 243.26V243.26Z" fill="#5BBD81"/>
<path opacity="0.6" d="M72.7201 243.26L82.7201 237.45C83.3201 237.1 83.8101 237.35 83.8101 238C83.7824 238.364 83.6693 238.717 83.4799 239.03C83.2906 239.343 83.0303 239.607 82.7201 239.8L72.7201 245.61C72.1301 245.96 71.6401 245.71 71.6401 245.06C71.6668 244.696 71.7784 244.344 71.966 244.031C72.1535 243.719 72.4118 243.455 72.7201 243.26V243.26Z" fill="white"/>
<path opacity="0.5" d="M89.0002 240.56L171.13 193.26C171.73 192.92 172.22 193.16 172.22 193.81C172.193 194.175 172.08 194.528 171.891 194.841C171.702 195.153 171.441 195.417 171.13 195.61L89.0002 242.91C88.4002 243.26 87.9102 243.01 87.9102 242.36C87.9394 241.996 88.0532 241.644 88.2424 241.331C88.4316 241.019 88.6911 240.755 89.0002 240.56Z" fill="#5BBD81"/>
<path opacity="0.5" d="M72.7201 250L82.7201 244.19C83.3201 243.84 83.8101 244.09 83.8101 244.74C83.7832 245.105 83.6704 245.458 83.481 245.771C83.2915 246.083 83.0308 246.347 82.7201 246.54L72.7201 252.35C72.1301 252.7 71.6401 252.45 71.6401 251.8C71.6668 251.436 71.7784 251.084 71.966 250.771C72.1535 250.459 72.4118 250.195 72.7201 250V250Z" fill="#5BBD81"/>
<path opacity="0.6" d="M72.7201 250L82.7201 244.19C83.3201 243.84 83.8101 244.09 83.8101 244.74C83.7832 245.105 83.6704 245.458 83.481 245.771C83.2915 246.083 83.0308 246.347 82.7201 246.54L72.7201 252.35C72.1301 252.7 71.6401 252.45 71.6401 251.8C71.6668 251.436 71.7784 251.084 71.966 250.771C72.1535 250.459 72.4118 250.195 72.7201 250V250Z" fill="white"/>
<path opacity="0.5" d="M89.0002 247.32L171.15 200C171.75 199.66 172.24 199.9 172.24 200.55C172.213 200.915 172.1 201.268 171.911 201.581C171.722 201.893 171.461 202.157 171.15 202.35L89.0002 249.67C88.4002 250.02 87.9102 249.77 87.9102 249.12C87.9379 248.755 88.051 248.403 88.2404 248.09C88.4297 247.777 88.69 247.513 89.0002 247.32V247.32Z" fill="#F28F8F"/>
<path opacity="0.5" d="M72.7201 256.72L82.7201 250.91C83.3201 250.56 83.8101 250.81 83.8101 251.46C83.7832 251.825 83.6704 252.178 83.481 252.491C83.2915 252.803 83.0308 253.067 82.7201 253.26L72.7201 259.07C72.1301 259.42 71.6401 259.17 71.6401 258.52C71.6683 258.157 71.7806 257.805 71.968 257.493C72.1554 257.18 72.4129 256.916 72.7201 256.72V256.72Z" fill="#5BBD81"/>
<path opacity="0.6" d="M72.7201 256.72L82.7201 250.91C83.3201 250.56 83.8101 250.81 83.8101 251.46C83.7832 251.825 83.6704 252.178 83.481 252.491C83.2915 252.803 83.0308 253.067 82.7201 253.26L72.7201 259.07C72.1301 259.42 71.6401 259.17 71.6401 258.52C71.6683 258.157 71.7806 257.805 71.968 257.493C72.1554 257.18 72.4129 256.916 72.7201 256.72V256.72Z" fill="white"/>
<g opacity="0.6">
<path opacity="0.6" d="M57.06 236.67L63 233.26C63.59 232.92 64.07 233.2 64.07 233.88V236.05C64.0505 236.422 63.9435 236.785 63.7576 237.108C63.5717 237.431 63.3121 237.706 63 237.91L57.09 241.32C56.5 241.66 56.02 241.39 56.02 240.7V238.53C56.0369 238.16 56.1397 237.8 56.3202 237.477C56.5007 237.154 56.754 236.878 57.06 236.67V236.67Z" fill="white"/>
<path opacity="0.6" d="M57.0602 245.31L63.0002 241.9C63.5902 241.56 64.0702 241.84 64.0702 242.52V244.69C64.0508 245.062 63.9437 245.425 63.7578 245.748C63.5719 246.071 63.3123 246.346 63.0002 246.55L57.0602 250C56.4702 250.34 55.9902 250.07 55.9902 249.38V247.21C56.0059 246.831 56.111 246.462 56.297 246.131C56.483 245.801 56.7445 245.52 57.0602 245.31V245.31Z" fill="white"/>
<path opacity="0.6" d="M57.06 254L63 250.54C63.59 250.2 64.07 250.48 64.07 251.16V253.33C64.0505 253.702 63.9435 254.065 63.7576 254.388C63.5717 254.711 63.3121 254.986 63 255.19L57.09 258.6C56.5 258.94 56.02 258.67 56.02 257.98V255.81C56.0459 255.449 56.1528 255.099 56.3329 254.786C56.513 254.473 56.7616 254.204 57.06 254V254Z" fill="white"/>
<path opacity="0.6" d="M57.06 262.59L63 259.18C63.59 258.84 64.07 259.12 64.07 259.8V262C64.046 262.367 63.9367 262.724 63.751 263.041C63.5653 263.359 63.3082 263.629 63 263.83L57.09 267.24C56.5 267.58 56.02 267.31 56.02 266.62V264.45C56.0384 264.081 56.1419 263.721 56.3223 263.398C56.5027 263.076 56.7551 262.799 57.06 262.59V262.59Z" fill="white"/>
</g>
<path opacity="0.5" d="M72.7201 185.93L82.7201 180.12C83.3201 179.77 83.8101 180.02 83.8101 180.67C83.7824 181.034 83.6693 181.387 83.4799 181.7C83.2906 182.013 83.0303 182.276 82.7201 182.47L72.7201 188.28C72.1301 188.62 71.6401 188.38 71.6401 187.73C71.6668 187.366 71.7784 187.014 71.966 186.701C72.1535 186.389 72.4118 186.125 72.7201 185.93V185.93Z" fill="#5BBD81"/>
<path opacity="0.6" d="M72.7201 185.93L82.7201 180.12C83.3201 179.77 83.8101 180.02 83.8101 180.67C83.7824 181.034 83.6693 181.387 83.4799 181.7C83.2906 182.013 83.0303 182.276 82.7201 182.47L72.7201 188.28C72.1301 188.62 71.6401 188.38 71.6401 187.73C71.6668 187.366 71.7784 187.014 71.966 186.701C72.1535 186.389 72.4118 186.125 72.7201 185.93V185.93Z" fill="white"/>
<path opacity="0.5" d="M72.7201 200.4L82.7201 194.59C83.3201 194.24 83.8101 194.49 83.8101 195.14C83.7832 195.505 83.6704 195.858 83.481 196.171C83.2915 196.483 83.0308 196.747 82.7201 196.94L72.7201 202.75C72.1301 203.1 71.6401 202.85 71.6401 202.2C71.6668 201.836 71.7784 201.484 71.966 201.171C72.1535 200.859 72.4118 200.595 72.7201 200.4V200.4Z" fill="#5BBD81"/>
<path opacity="0.6" d="M72.7201 200.4L82.7201 194.59C83.3201 194.24 83.8101 194.49 83.8101 195.14C83.7832 195.505 83.6704 195.858 83.481 196.171C83.2915 196.483 83.0308 196.747 82.7201 196.94L72.7201 202.75C72.1301 203.1 71.6401 202.85 71.6401 202.2C71.6668 201.836 71.7784 201.484 71.966 201.171C72.1535 200.859 72.4118 200.595 72.7201 200.4V200.4Z" fill="white"/>
<path opacity="0.5" d="M72.7201 207.13L82.7201 201.32C83.3201 200.97 83.8101 201.22 83.8101 201.87C83.7832 202.235 83.6704 202.588 83.481 202.901C83.2915 203.213 83.0308 203.477 82.7201 203.67L72.7201 209.48C72.1301 209.83 71.6401 209.58 71.6401 208.93C71.6668 208.566 71.7784 208.214 71.966 207.901C72.1535 207.589 72.4118 207.325 72.7201 207.13V207.13Z" fill="#5BBD81"/>
<path opacity="0.6" d="M72.7201 207.13L82.7201 201.32C83.3201 200.97 83.8101 201.22 83.8101 201.87C83.7832 202.235 83.6704 202.588 83.481 202.901C83.2915 203.213 83.0308 203.477 82.7201 203.67L72.7201 209.48C72.1301 209.83 71.6401 209.58 71.6401 208.93C71.6668 208.566 71.7784 208.214 71.966 207.901C72.1535 207.589 72.4118 207.325 72.7201 207.13V207.13Z" fill="white"/>
<path opacity="0.5" d="M72.7201 213.86L82.7201 208.05C83.3201 207.7 83.8101 207.95 83.8101 208.6C83.7832 208.965 83.6704 209.318 83.481 209.631C83.2915 209.943 83.0308 210.207 82.7201 210.4L72.7201 216.21C72.1301 216.56 71.6401 216.31 71.6401 215.66C71.6683 215.297 71.7806 214.945 71.968 214.633C72.1554 214.32 72.4129 214.056 72.7201 213.86V213.86Z" fill="#5BBD81"/>
<path opacity="0.6" d="M72.7201 213.86L82.7201 208.05C83.3201 207.7 83.8101 207.95 83.8101 208.6C83.7832 208.965 83.6704 209.318 83.481 209.631C83.2915 209.943 83.0308 210.207 82.7201 210.4L72.7201 216.21C72.1301 216.56 71.6401 216.31 71.6401 215.66C71.6683 215.297 71.7806 214.945 71.968 214.633C72.1554 214.32 72.4129 214.056 72.7201 213.86V213.86Z" fill="white"/>
<g opacity="0.6">
<path opacity="0.6" d="M57.06 193.81L63 190.4C63.59 190.06 64.07 190.34 64.07 191.02V193.19C64.0505 193.562 63.9435 193.925 63.7576 194.248C63.5717 194.571 63.3121 194.846 63 195.05L57.09 198.46C56.5 198.8 56.02 198.53 56.02 197.84V195.67C56.0384 195.301 56.1419 194.941 56.3223 194.618C56.5027 194.296 56.7551 194.019 57.06 193.81V193.81Z" fill="white"/>
<path opacity="0.6" d="M57.06 202.45L63 199C63.59 198.66 64.07 198.94 64.07 199.62V201.79C64.0568 202.169 63.9527 202.54 63.7665 202.87C63.5803 203.201 63.3174 203.482 63 203.69L57.09 207.1C56.5 207.44 56.02 207.17 56.02 206.48V204.31C56.0384 203.941 56.1419 203.581 56.3223 203.258C56.5027 202.936 56.7551 202.659 57.06 202.45V202.45Z" fill="white"/>
<path opacity="0.6" d="M57.06 211.09L63 207.68C63.59 207.34 64.07 207.62 64.07 208.3V210.47C64.0505 210.842 63.9435 211.205 63.7576 211.528C63.5717 211.851 63.3121 212.126 63 212.33L57.09 215.74C56.5 216.08 56.02 215.81 56.02 215.12V213C56.0307 212.622 56.1305 212.252 56.3113 211.92C56.492 211.589 56.7485 211.304 57.06 211.09V211.09Z" fill="white"/>
<path opacity="0.6" d="M57.06 219.73L63 216.32C63.59 215.98 64.07 216.26 64.07 216.94V219.11C64.0552 219.488 63.9504 219.856 63.7643 220.185C63.5781 220.514 63.3161 220.793 63 221L57.09 224.41C56.5 224.75 56.02 224.48 56.02 223.79V221.62C56.0338 221.246 56.1351 220.88 56.3157 220.552C56.4963 220.223 56.7512 219.942 57.06 219.73V219.73Z" fill="white"/>
<path opacity="0.6" d="M57.06 279.53L63 276.12C63.59 275.78 64.07 276.06 64.07 276.74V278.91C64.0505 279.282 63.9435 279.645 63.7576 279.968C63.5717 280.291 63.3121 280.566 63 280.77L57.09 284.18C56.5 284.52 56.02 284.25 56.02 283.56V281.39C56.0369 281.02 56.1397 280.66 56.3202 280.337C56.5007 280.014 56.754 279.738 57.06 279.53V279.53Z" fill="white"/>
<path opacity="0.6" d="M57.06 288.17L63 284.76C63.59 284.42 64.07 284.7 64.07 285.38V287.55C64.0505 287.922 63.9435 288.285 63.7576 288.608C63.5717 288.931 63.3121 289.206 63 289.41L57.09 292.82C56.5 293.16 56.02 292.89 56.02 292.2V290C56.0429 289.636 56.1485 289.282 56.3287 288.965C56.5089 288.648 56.759 288.376 57.06 288.17V288.17Z" fill="white"/>
</g>
<g opacity="0.6">
<path opacity="0.6" d="M57.06 151L63 147.54C63.59 147.2 64.07 147.48 64.07 148.16V150.33C64.0505 150.702 63.9435 151.065 63.7576 151.388C63.5717 151.711 63.3121 151.986 63 152.19L57.09 155.6C56.5 155.94 56.02 155.67 56.02 154.98V152.81C56.0459 152.449 56.1528 152.099 56.3329 151.786C56.513 151.473 56.7616 151.204 57.06 151V151Z" fill="white"/>
<path opacity="0.6" d="M57.06 159.59L63 156.18C63.59 155.84 64.07 156.12 64.07 156.8V159C64.046 159.367 63.9367 159.724 63.751 160.041C63.5653 160.359 63.3082 160.629 63 160.83L57.09 164.24C56.5 164.58 56.02 164.31 56.02 163.62V161.45C56.0384 161.081 56.1419 160.721 56.3223 160.398C56.5027 160.076 56.7551 159.799 57.06 159.59V159.59Z" fill="white"/>
<path opacity="0.6" d="M57.06 168.23L63 164.82C63.59 164.48 64.07 164.76 64.07 165.44V167.61C64.0505 167.982 63.9435 168.345 63.7576 168.668C63.5717 168.991 63.3121 169.266 63 169.47L57.09 172.88C56.5 173.22 56.02 172.95 56.02 172.26V170.09C56.0384 169.721 56.1419 169.361 56.3223 169.038C56.5027 168.716 56.7551 168.439 57.06 168.23V168.23Z" fill="white"/>
<path opacity="0.6" d="M57.06 176.87L63 173.46C63.59 173.12 64.07 173.4 64.07 174.08V176.25C64.0505 176.622 63.9435 176.985 63.7576 177.308C63.5717 177.631 63.3121 177.906 63 178.11L57.09 181.52C56.5 181.86 56.02 181.59 56.02 180.9V178.73C56.0384 178.361 56.1419 178.001 56.3223 177.678C56.5027 177.356 56.7551 177.079 57.06 176.87V176.87Z" fill="white"/>
</g>
<path opacity="0.5" d="M230.59 114.47L185.28 140.64C184.394 141.217 183.655 141.995 183.125 142.91C182.595 143.826 182.289 144.854 182.23 145.91V214.15C182.23 216.09 183.6 216.88 185.28 215.91L230.59 189.75C231.469 189.168 232.198 188.388 232.719 187.473C233.24 186.557 233.538 185.532 233.59 184.48V116.23C233.63 114.29 232.27 113.5 230.59 114.47Z" fill="#37474F"/>
<path opacity="0.5" d="M226.38 166.34L222.21 168.75C221.771 169.026 221.403 169.402 221.135 169.846C220.868 170.291 220.708 170.792 220.67 171.31C220.67 172.23 221.36 172.58 222.21 172.09L226.38 169.67C226.82 169.396 227.188 169.022 227.456 168.579C227.723 168.136 227.882 167.636 227.92 167.12C227.92 166.2 227.23 165.85 226.38 166.34Z" fill="#5BBD81"/>
<path opacity="0.6" d="M226.38 166.34L222.21 168.75C221.771 169.026 221.403 169.402 221.135 169.846C220.868 170.291 220.708 170.792 220.67 171.31C220.67 172.23 221.36 172.58 222.21 172.09L226.38 169.67C226.82 169.396 227.188 169.022 227.456 168.579C227.723 168.136 227.882 167.636 227.92 167.12C227.92 166.2 227.23 165.85 226.38 166.34Z" fill="white"/>
<path opacity="0.5" d="M226.38 123.49L222.21 125.9C221.771 126.176 221.403 126.552 221.135 126.996C220.868 127.441 220.708 127.942 220.67 128.46C220.67 129.38 221.36 129.73 222.21 129.24L226.38 126.83C226.82 126.554 227.188 126.178 227.456 125.734C227.723 125.289 227.882 124.788 227.92 124.27C227.92 123.35 227.23 123 226.38 123.49Z" fill="#5BBD81"/>
<path opacity="0.6" d="M226.38 123.49L222.21 125.9C221.771 126.176 221.403 126.552 221.135 126.996C220.868 127.441 220.708 127.942 220.67 128.46C220.67 129.38 221.36 129.73 222.21 129.24L226.38 126.83C226.82 126.554 227.188 126.178 227.456 125.734C227.723 125.289 227.882 124.788 227.92 124.27C227.92 123.35 227.23 123 226.38 123.49Z" fill="white"/>
<path opacity="0.5" d="M220.52 135.43L216.35 137.84C215.91 138.115 215.54 138.49 215.273 138.935C215.005 139.38 214.847 139.882 214.81 140.4C214.81 141.32 215.5 141.67 216.35 141.18L220.52 138.76C220.959 138.486 221.328 138.112 221.595 137.669C221.863 137.226 222.022 136.726 222.06 136.21C222.06 135.28 221.37 134.94 220.52 135.43Z" fill="#5BBD81"/>
<path opacity="0.6" d="M220.52 135.43L216.35 137.84C215.91 138.115 215.54 138.49 215.273 138.935C215.005 139.38 214.847 139.882 214.81 140.4C214.81 141.32 215.5 141.67 216.35 141.18L220.52 138.76C220.959 138.486 221.328 138.112 221.595 137.669C221.863 137.226 222.022 136.726 222.06 136.21C222.06 135.28 221.37 134.94 220.52 135.43Z" fill="white"/>
<path opacity="0.5" d="M220.52 144L216.35 146.42C215.911 146.694 215.543 147.068 215.275 147.511C215.007 147.954 214.848 148.454 214.81 148.97C214.81 149.89 215.5 150.24 216.35 149.75L220.52 147.34C220.959 147.064 221.328 146.688 221.595 146.244C221.863 145.799 222.022 145.298 222.06 144.78C222.06 143.83 221.37 143.48 220.52 144Z" fill="#5BBD81"/>
<path opacity="0.6" d="M220.52 144L216.35 146.42C215.911 146.694 215.543 147.068 215.275 147.511C215.007 147.954 214.848 148.454 214.81 148.97C214.81 149.89 215.5 150.24 216.35 149.75L220.52 147.34C220.959 147.064 221.328 146.688 221.595 146.244C221.863 145.799 222.022 145.298 222.06 144.78C222.06 143.83 221.37 143.48 220.52 144Z" fill="white"/>
<path opacity="0.5" d="M226.38 149.19L222.21 151.61C221.771 151.884 221.403 152.258 221.135 152.701C220.868 153.144 220.708 153.644 220.67 154.16C220.67 155.08 221.36 155.43 222.21 154.94L226.38 152.53C226.82 152.254 227.188 151.878 227.456 151.434C227.723 150.989 227.882 150.488 227.92 149.97C227.92 149.05 227.23 148.7 226.38 149.19Z" fill="#5BBD81"/>
<path opacity="0.6" d="M226.38 149.19L222.21 151.61C221.771 151.884 221.403 152.258 221.135 152.701C220.868 153.144 220.708 153.644 220.67 154.16C220.67 155.08 221.36 155.43 222.21 154.94L226.38 152.53C226.82 152.254 227.188 151.878 227.456 151.434C227.723 150.989 227.882 150.488 227.92 149.97C227.92 149.05 227.23 148.7 226.38 149.19Z" fill="white"/>
<path opacity="0.5" d="M220.52 161.14L216.35 163.55C215.91 163.825 215.54 164.2 215.273 164.645C215.005 165.09 214.847 165.592 214.81 166.11C214.81 167.03 215.5 167.38 216.35 166.89L220.52 164.47C220.959 164.196 221.328 163.822 221.595 163.379C221.863 162.936 222.022 162.436 222.06 161.92C222.06 161 221.37 160.65 220.52 161.14Z" fill="#5BBD81"/>
<path opacity="0.6" d="M220.52 161.14L216.35 163.55C215.91 163.825 215.54 164.2 215.273 164.645C215.005 165.09 214.847 165.592 214.81 166.11C214.81 167.03 215.5 167.38 216.35 166.89L220.52 164.47C220.959 164.196 221.328 163.822 221.595 163.379C221.863 162.936 222.022 162.436 222.06 161.92C222.06 161 221.37 160.65 220.52 161.14Z" fill="white"/>
<path opacity="0.5" d="M215 130.09L189.49 144.8C189.05 145.075 188.681 145.45 188.413 145.895C188.145 146.34 187.987 146.842 187.95 147.36C187.95 148.28 188.64 148.63 189.49 148.14L215 133.43C215.44 133.154 215.808 132.778 216.075 132.334C216.343 131.889 216.502 131.388 216.54 130.87C216.5 130 215.81 129.6 215 130.09Z" fill="#5BBD81"/>
<path opacity="0.8" d="M215 130.09L189.49 144.8C189.05 145.075 188.681 145.45 188.413 145.895C188.145 146.34 187.987 146.842 187.95 147.36C187.95 148.28 188.64 148.63 189.49 148.14L215 133.43C215.44 133.154 215.808 132.778 216.075 132.334C216.343 131.889 216.502 131.388 216.54 130.87C216.5 130 215.81 129.6 215 130.09Z" fill="white"/>
<path opacity="0.5" d="M215 172.94L189.53 187.65C189.093 187.925 188.726 188.299 188.46 188.742C188.195 189.185 188.037 189.685 188 190.2C188 191.12 188.69 191.47 189.54 190.98L215 176.27C215.439 175.996 215.808 175.622 216.075 175.179C216.343 174.736 216.502 174.236 216.54 173.72C216.5 172.79 215.81 172.45 215 172.94Z" fill="#5BBD81"/>
<path opacity="0.8" d="M215 172.94L189.53 187.65C189.093 187.925 188.726 188.299 188.46 188.742C188.195 189.185 188.037 189.685 188 190.2C188 191.12 188.69 191.47 189.54 190.98L215 176.27C215.439 175.996 215.808 175.622 216.075 175.179C216.343 174.736 216.502 174.236 216.54 173.72C216.5 172.79 215.81 172.45 215 172.94Z" fill="white"/>
<path opacity="0.5" d="M209.1 142L189.49 153.35C189.05 153.625 188.681 154 188.413 154.445C188.145 154.89 187.987 155.392 187.95 155.91C187.95 156.83 188.64 157.18 189.49 156.68L209.1 145.34C209.54 145.064 209.908 144.688 210.175 144.244C210.443 143.799 210.602 143.298 210.64 142.78C210.64 141.88 210 141.53 209.1 142Z" fill="#5BBD81"/>
<path opacity="0.8" d="M209.1 142L189.49 153.35C189.05 153.625 188.681 154 188.413 154.445C188.145 154.89 187.987 155.392 187.95 155.91C187.95 156.83 188.64 157.18 189.49 156.68L209.1 145.34C209.54 145.064 209.908 144.688 210.175 144.244C210.443 143.799 210.602 143.298 210.64 142.78C210.64 141.88 210 141.53 209.1 142Z" fill="white"/>
<path opacity="0.5" d="M209.1 150.59L189.49 161.94C189.051 162.214 188.683 162.588 188.415 163.031C188.147 163.474 187.988 163.974 187.95 164.49C187.95 165.42 188.64 165.76 189.49 165.27L209.1 153.93C209.54 153.654 209.908 153.278 210.175 152.834C210.443 152.389 210.602 151.888 210.64 151.37C210.64 150.45 210 150.1 209.1 150.59Z" fill="#5BBD81"/>
<path opacity="0.8" d="M209.1 150.59L189.49 161.94C189.051 162.214 188.683 162.588 188.415 163.031C188.147 163.474 187.988 163.974 187.95 164.49C187.95 165.42 188.64 165.76 189.49 165.27L209.1 153.93C209.54 153.654 209.908 153.278 210.175 152.834C210.443 152.389 210.602 151.888 210.64 151.37C210.64 150.45 210 150.1 209.1 150.59Z" fill="white"/>
<path opacity="0.5" d="M215 155.8L189.53 170.51C189.091 170.784 188.723 171.158 188.455 171.601C188.187 172.044 188.028 172.544 187.99 173.06C187.99 173.99 188.68 174.33 189.53 173.84L215 159.13C215.439 158.856 215.808 158.482 216.075 158.039C216.343 157.596 216.502 157.096 216.54 156.58C216.5 155.66 215.81 155.31 215 155.8Z" fill="#5BBD81"/>
<path opacity="0.8" d="M215 155.8L189.53 170.51C189.091 170.784 188.723 171.158 188.455 171.601C188.187 172.044 188.028 172.544 187.99 173.06C187.99 173.99 188.68 174.33 189.53 173.84L215 159.13C215.439 158.856 215.808 158.482 216.075 158.039C216.343 157.596 216.502 157.096 216.54 156.58C216.5 155.66 215.81 155.31 215 155.8Z" fill="white"/>
<path opacity="0.5" d="M209.1 167.73L189.49 179.08C189.051 179.354 188.683 179.728 188.415 180.171C188.147 180.614 187.988 181.114 187.95 181.63C187.95 182.55 188.64 182.9 189.49 182.41L209.1 171.07C209.541 170.795 209.91 170.42 210.178 169.975C210.445 169.53 210.604 169.028 210.64 168.51C210.64 167.59 210 167.24 209.1 167.73Z" fill="#5BBD81"/>
<path opacity="0.8" d="M209.1 167.73L189.49 179.08C189.051 179.354 188.683 179.728 188.415 180.171C188.147 180.614 187.988 181.114 187.95 181.63C187.95 182.55 188.64 182.9 189.49 182.41L209.1 171.07C209.541 170.795 209.91 170.42 210.178 169.975C210.445 169.53 210.604 169.028 210.64 168.51C210.64 167.59 210 167.24 209.1 167.73Z" fill="white"/>
<path opacity="0.5" d="M226.38 183.57L222.21 186C221.771 186.276 221.403 186.652 221.135 187.096C220.868 187.541 220.708 188.042 220.67 188.56C220.67 189.48 221.36 189.83 222.21 189.34L226.38 186.93C226.82 186.654 227.188 186.278 227.456 185.834C227.723 185.389 227.882 184.888 227.92 184.37C227.92 183.43 227.23 183.08 226.38 183.57Z" fill="#5BBD81"/>
<path opacity="0.6" d="M226.38 183.57L222.21 186C221.771 186.276 221.403 186.652 221.135 187.096C220.868 187.541 220.708 188.042 220.67 188.56C220.67 189.48 221.36 189.83 222.21 189.34L226.38 186.93C226.82 186.654 227.188 186.278 227.456 185.834C227.723 185.389 227.882 184.888 227.92 184.37C227.92 183.43 227.23 183.08 226.38 183.57Z" fill="white"/>
<path opacity="0.5" d="M220.52 178.37L216.35 180.78C215.911 181.056 215.542 181.432 215.275 181.876C215.007 182.321 214.848 182.822 214.81 183.34C214.81 184.26 215.5 184.61 216.35 184.12L220.52 181.7C220.959 181.426 221.328 181.052 221.595 180.609C221.863 180.166 222.022 179.666 222.06 179.15C222.06 178.23 221.37 177.88 220.52 178.37Z" fill="#5BBD81"/>
<path opacity="0.6" d="M220.52 178.37L216.35 180.78C215.911 181.056 215.542 181.432 215.275 181.876C215.007 182.321 214.848 182.822 214.81 183.34C214.81 184.26 215.5 184.61 216.35 184.12L220.52 181.7C220.959 181.426 221.328 181.052 221.595 180.609C221.863 180.166 222.022 179.666 222.06 179.15C222.06 178.23 221.37 177.88 220.52 178.37Z" fill="white"/>
<path opacity="0.5" d="M215 190.17L189.53 204.88C189.091 205.154 188.723 205.528 188.455 205.971C188.187 206.414 188.028 206.914 187.99 207.43C187.99 208.36 188.68 208.7 189.53 208.21L215 193.5C215.426 193.227 215.782 192.859 216.042 192.425C216.302 191.992 216.459 191.504 216.5 191C216.5 190 215.81 189.68 215 190.17Z" fill="#5BBD81"/>
<path opacity="0.8" d="M215 190.17L189.53 204.88C189.091 205.154 188.723 205.528 188.455 205.971C188.187 206.414 188.028 206.914 187.99 207.43C187.99 208.36 188.68 208.7 189.53 208.21L215 193.5C215.426 193.227 215.782 192.859 216.042 192.425C216.302 191.992 216.459 191.504 216.5 191C216.5 190 215.81 189.68 215 190.17Z" fill="white"/>
<path opacity="0.5" d="M209.1 185L189.49 196.34C189.05 196.615 188.681 196.99 188.413 197.435C188.145 197.88 187.987 198.382 187.95 198.9C187.95 199.82 188.64 200.17 189.49 199.67L209.1 188.3C209.539 188.026 209.908 187.652 210.175 187.209C210.443 186.766 210.602 186.266 210.64 185.75C210.64 184.82 210 184.48 209.1 185Z" fill="#5BBD81"/>
<path opacity="0.8" d="M209.1 185L189.49 196.34C189.05 196.615 188.681 196.99 188.413 197.435C188.145 197.88 187.987 198.382 187.95 198.9C187.95 199.82 188.64 200.17 189.49 199.67L209.1 188.3C209.539 188.026 209.908 187.652 210.175 187.209C210.443 186.766 210.602 186.266 210.64 185.75C210.64 184.82 210 184.48 209.1 185Z" fill="white"/>
<path opacity="0.5" d="M230.59 44.28L185.28 70.44C184.394 71.0168 183.655 71.7947 183.125 72.7103C182.595 73.626 182.289 74.6536 182.23 75.71V128C182.23 129.95 183.6 130.73 185.28 129.76L230.59 103.6C231.469 103.018 232.198 102.238 232.719 101.323C233.24 100.407 233.538 99.3821 233.59 98.33V46C233.63 44.1 232.27 43.31 230.59 44.28Z" fill="#37474F"/>
<path opacity="0.5" d="M226.38 96.14L222.21 98.56C221.771 98.8339 221.403 99.2076 221.135 99.6507C220.868 100.094 220.708 100.594 220.67 101.11C220.67 102.03 221.36 102.38 222.21 101.89L226.38 99.48C226.82 99.2039 227.188 98.8283 227.456 98.3836C227.723 97.9389 227.882 97.4376 227.92 96.92C227.92 96 227.23 95.65 226.38 96.14Z" fill="#5BBD81"/>
<path opacity="0.6" d="M226.38 96.14L222.21 98.56C221.771 98.8339 221.403 99.2076 221.135 99.6507C220.868 100.094 220.708 100.594 220.67 101.11C220.67 102.03 221.36 102.38 222.21 101.89L226.38 99.48C226.82 99.2039 227.188 98.8283 227.456 98.3836C227.723 97.9389 227.882 97.4376 227.92 96.92C227.92 96 227.23 95.65 226.38 96.14Z" fill="white"/>
<path opacity="0.5" d="M226.38 53.3L222.21 55.71C221.771 55.9861 221.403 56.3616 221.135 56.8063C220.868 57.251 220.708 57.7524 220.67 58.27C220.67 59.19 221.36 59.54 222.21 59.05L226.38 56.63C226.82 56.356 227.188 55.9823 227.456 55.5392C227.723 55.0962 227.882 54.5962 227.92 54.08C227.92 53.16 227.23 52.81 226.38 53.3Z" fill="#5BBD81"/>
<path opacity="0.6" d="M226.38 53.3L222.21 55.71C221.771 55.9861 221.403 56.3616 221.135 56.8063C220.868 57.251 220.708 57.7524 220.67 58.27C220.67 59.19 221.36 59.54 222.21 59.05L226.38 56.63C226.82 56.356 227.188 55.9823 227.456 55.5392C227.723 55.0962 227.882 54.5962 227.92 54.08C227.92 53.16 227.23 52.81 226.38 53.3Z" fill="white"/>
<path opacity="0.5" d="M220.52 65.2299L216.35 67.6499C215.911 67.9239 215.543 68.2976 215.275 68.7407C215.007 69.1837 214.848 69.6837 214.81 70.1999C214.81 71.1199 215.5 71.4699 216.35 70.9799L220.52 68.5699C220.961 68.2928 221.33 67.9157 221.597 67.4692C221.865 67.0226 222.024 66.5192 222.06 65.9999C222.06 65.0899 221.37 64.7399 220.52 65.2299Z" fill="#5BBD81"/>
<path opacity="0.6" d="M220.52 65.2299L216.35 67.6499C215.911 67.9239 215.543 68.2976 215.275 68.7407C215.007 69.1837 214.848 69.6837 214.81 70.1999C214.81 71.1199 215.5 71.4699 216.35 70.9799L220.52 68.5699C220.961 68.2928 221.33 67.9157 221.597 67.4692C221.865 67.0226 222.024 66.5192 222.06 65.9999C222.06 65.0899 221.37 64.7399 220.52 65.2299Z" fill="white"/>
<path opacity="0.5" d="M220.52 73.7799L216.35 76.1899C215.911 76.4661 215.542 76.8416 215.275 77.2863C215.007 77.731 214.848 78.2324 214.81 78.7499C214.81 79.6699 215.5 80.0199 216.35 79.5299L220.52 77.1199C220.959 76.8438 221.328 76.4683 221.595 76.0236C221.863 75.5789 222.022 75.0775 222.06 74.5599C222.06 73.6399 221.37 73.2899 220.52 73.7799Z" fill="#5BBD81"/>
<path opacity="0.6" d="M220.52 73.7799L216.35 76.1899C215.911 76.4661 215.542 76.8416 215.275 77.2863C215.007 77.731 214.848 78.2324 214.81 78.7499C214.81 79.6699 215.5 80.0199 216.35 79.5299L220.52 77.1199C220.959 76.8438 221.328 76.4683 221.595 76.0236C221.863 75.5789 222.022 75.0775 222.06 74.5599C222.06 73.6399 221.37 73.2899 220.52 73.7799Z" fill="white"/>
<path opacity="0.5" d="M226.38 79L222.21 81.41C221.767 81.689 221.396 82.0693 221.129 82.5196C220.861 82.9698 220.704 83.4772 220.67 84C220.67 84.92 221.36 85.27 222.21 84.78L226.38 82.37C226.819 82.0933 227.187 81.7176 227.455 81.273C227.722 80.8284 227.882 80.3273 227.92 79.81C227.92 78.86 227.23 78.51 226.38 79Z" fill="#5BBD81"/>
<path opacity="0.6" d="M226.38 79L222.21 81.41C221.767 81.689 221.396 82.0693 221.129 82.5196C220.861 82.9698 220.704 83.4772 220.67 84C220.67 84.92 221.36 85.27 222.21 84.78L226.38 82.37C226.819 82.0933 227.187 81.7176 227.455 81.273C227.722 80.8284 227.882 80.3273 227.92 79.81C227.92 78.86 227.23 78.51 226.38 79Z" fill="white"/>
<path opacity="0.5" d="M220.52 90.94L216.35 93.35C215.911 93.6267 215.543 94.0024 215.276 94.447C215.008 94.8915 214.849 95.3926 214.81 95.91C214.81 96.83 215.5 97.18 216.35 96.69L220.52 94.28C220.959 94.0039 221.328 93.6283 221.595 93.1836C221.863 92.7389 222.022 92.2375 222.06 91.72C222.06 90.8 221.37 90.45 220.52 90.94Z" fill="#5BBD81"/>
<path opacity="0.6" d="M220.52 90.94L216.35 93.35C215.911 93.6267 215.543 94.0024 215.276 94.447C215.008 94.8915 214.849 95.3926 214.81 95.91C214.81 96.83 215.5 97.18 216.35 96.69L220.52 94.28C220.959 94.0039 221.328 93.6283 221.595 93.1836C221.863 92.7389 222.022 92.2375 222.06 91.72C222.06 90.8 221.37 90.45 220.52 90.94Z" fill="white"/>
<path opacity="0.5" d="M215 59.9L189.49 74.61C189.06 74.8895 188.701 75.2656 188.443 75.7084C188.184 76.1511 188.032 76.6482 188 77.16C188 78.08 188.69 78.43 189.54 77.94L215 63.23C215.439 62.956 215.808 62.5823 216.075 62.1392C216.343 61.6961 216.502 61.1962 216.54 60.68C216.5 59.75 215.81 59.41 215 59.9Z" fill="#5BBD81"/>
<path opacity="0.8" d="M215 59.9L189.49 74.61C189.06 74.8895 188.701 75.2656 188.443 75.7084C188.184 76.1511 188.032 76.6482 188 77.16C188 78.08 188.69 78.43 189.54 77.94L215 63.23C215.439 62.956 215.808 62.5823 216.075 62.1392C216.343 61.6961 216.502 61.1962 216.54 60.68C216.5 59.75 215.81 59.41 215 59.9Z" fill="white"/>
<path opacity="0.5" d="M215 102.74L189.53 117.45C189.094 117.726 188.728 118.101 188.463 118.543C188.197 118.986 188.038 119.485 188 120C188 120.92 188.69 121.27 189.54 120.78L215 106.08C215.439 105.804 215.808 105.428 216.075 104.984C216.343 104.539 216.502 104.038 216.54 103.52C216.5 102.6 215.81 102.25 215 102.74Z" fill="#5BBD81"/>
<path opacity="0.8" d="M215 102.74L189.53 117.45C189.094 117.726 188.728 118.101 188.463 118.543C188.197 118.986 188.038 119.485 188 120C188 120.92 188.69 121.27 189.54 120.78L215 106.08C215.439 105.804 215.808 105.428 216.075 104.984C216.343 104.539 216.502 104.038 216.54 103.52C216.5 102.6 215.81 102.25 215 102.74Z" fill="white"/>
<path opacity="0.5" d="M209.1 71.83L189.49 83.17C189.06 83.4522 188.702 83.8304 188.444 84.2746C188.185 84.7189 188.033 85.2171 188 85.73C188 86.65 188.69 87 189.54 86.51L209.1 75.17C209.539 74.8939 209.908 74.5183 210.175 74.0736C210.443 73.6289 210.602 73.1276 210.64 72.61C210.64 71.69 210 71.34 209.1 71.83Z" fill="#5BBD81"/>
<path opacity="0.8" d="M209.1 71.83L189.49 83.17C189.06 83.4522 188.702 83.8304 188.444 84.2746C188.185 84.7189 188.033 85.2171 188 85.73C188 86.65 188.69 87 189.54 86.51L209.1 75.17C209.539 74.8939 209.908 74.5183 210.175 74.0736C210.443 73.6289 210.602 73.1276 210.64 72.61C210.64 71.69 210 71.34 209.1 71.83Z" fill="white"/>
<path opacity="0.5" d="M209.1 80.3999L189.49 91.7399C189.06 92.0216 188.701 92.3996 188.443 92.844C188.184 93.2883 188.032 93.7868 188 94.2999C188 95.2199 188.69 95.5699 189.54 95.0799L209.1 83.7399C209.539 83.4632 209.907 83.0875 210.174 82.6429C210.442 82.1984 210.601 81.6973 210.64 81.1799C210.64 80.2599 210 79.9099 209.1 80.3999Z" fill="#5BBD81"/>
<path opacity="0.8" d="M209.1 80.3999L189.49 91.7399C189.06 92.0216 188.701 92.3996 188.443 92.844C188.184 93.2883 188.032 93.7868 188 94.2999C188 95.2199 188.69 95.5699 189.54 95.0799L209.1 83.7399C209.539 83.4632 209.907 83.0875 210.174 82.6429C210.442 82.1984 210.601 81.6973 210.64 81.1799C210.64 80.2599 210 79.9099 209.1 80.3999Z" fill="white"/>
<path opacity="0.5" d="M215 85.6L189.53 100.31C189.091 100.586 188.722 100.962 188.455 101.406C188.187 101.851 188.028 102.352 187.99 102.87C187.99 103.79 188.68 104.14 189.53 103.65L215 88.94C215.44 88.6638 215.808 88.2883 216.075 87.8436C216.343 87.3989 216.502 86.8975 216.54 86.38C216.5 85.46 215.81 85.11 215 85.6Z" fill="#5BBD81"/>
<path opacity="0.8" d="M215 85.6L189.53 100.31C189.091 100.586 188.722 100.962 188.455 101.406C188.187 101.851 188.028 102.352 187.99 102.87C187.99 103.79 188.68 104.14 189.53 103.65L215 88.94C215.44 88.6638 215.808 88.2883 216.075 87.8436C216.343 87.3989 216.502 86.8975 216.54 86.38C216.5 85.46 215.81 85.11 215 85.6Z" fill="white"/>
<path opacity="0.5" d="M209.1 97.54L189.49 108.88C189.051 109.156 188.682 109.532 188.415 109.976C188.147 110.421 187.988 110.922 187.95 111.44C187.95 112.36 188.64 112.71 189.49 112.22L209.1 100.88C209.54 100.604 209.908 100.228 210.175 99.7836C210.443 99.3389 210.602 98.8375 210.64 98.32C210.64 97.4 210 97.05 209.1 97.54Z" fill="#5BBD81"/>
<path opacity="0.8" d="M209.1 97.54L189.49 108.88C189.051 109.156 188.682 109.532 188.415 109.976C188.147 110.421 187.988 110.922 187.95 111.44C187.95 112.36 188.64 112.71 189.49 112.22L209.1 100.88C209.54 100.604 209.908 100.228 210.175 99.7836C210.443 99.3389 210.602 98.8375 210.64 98.32C210.64 97.4 210 97.05 209.1 97.54Z" fill="white"/>
</g>
<path d="M109.18 155.37L71.9998 176.78C71.5661 177.06 71.2051 177.439 70.9461 177.886C70.6871 178.333 70.5376 178.834 70.5098 179.35V230.18C70.5383 230.693 70.6883 231.191 70.9473 231.635C71.2064 232.078 71.5671 232.453 71.9998 232.73L74.8298 234.33C75.295 234.565 75.8087 234.687 76.3298 234.687C76.8508 234.687 77.3646 234.565 77.8298 234.33L115 212.91C115.432 212.629 115.792 212.25 116.049 211.803C116.306 211.356 116.454 210.855 116.48 210.34V159.52C116.449 159.013 116.298 158.521 116.041 158.083C115.784 157.645 115.427 157.274 115 157L112.17 155.4C111.709 155.16 111.198 155.032 110.678 155.027C110.159 155.022 109.645 155.139 109.18 155.37Z" fill="#5BBD81"/>
<path opacity="0.2" d="M77.83 234.32C77.3628 234.548 76.8498 234.667 76.33 234.667C75.8102 234.667 75.2972 234.548 74.83 234.32L72 232.73C71.5644 232.456 71.2008 232.081 70.9398 231.637C70.6788 231.194 70.528 230.694 70.5 230.18V179.35C70.5248 178.815 70.6867 178.295 70.97 177.84L76.75 181.18C76.48 181.621 76.3285 182.124 76.31 182.64V233.46C76.34 234.33 77 234.83 77.83 234.32Z" fill="black"/>
<path opacity="0.5" d="M116.46 159.25C116.34 158.5 115.73 158.25 114.99 158.66L77.83 180.07C77.4084 180.35 77.0644 180.732 76.83 181.18L71 177.84C71.2373 177.407 71.5816 177.042 72 176.78L109.16 155.37C109.625 155.135 110.139 155.013 110.66 155.013C111.181 155.013 111.695 155.135 112.16 155.37L115 157C115.389 157.251 115.72 157.581 115.971 157.968C116.223 158.356 116.39 158.793 116.46 159.25V159.25Z" fill="white"/>
<path d="M115 158.66L77.8298 180.07C77.3962 180.35 77.0351 180.729 76.7762 181.176C76.5172 181.623 76.3677 182.124 76.3398 182.64V233.46C76.3398 234.41 77.0098 234.79 77.8298 234.32L115 212.91C115.432 212.629 115.792 212.25 116.049 211.803C116.306 211.356 116.454 210.855 116.48 210.34V159.52C116.47 158.57 115.81 158.19 115 158.66Z" fill="#5BBD81"/>
<path d="M78.8 206.47C78.7957 206.153 78.8499 205.838 78.96 205.54C79.0962 205.241 79.2567 204.953 79.44 204.68L88.2 190.51L88.34 190.34L88.44 190.27C88.4856 190.23 88.5443 190.208 88.605 190.208C88.6657 190.208 88.7244 190.23 88.77 190.27C88.8192 190.329 88.856 190.398 88.8783 190.472C88.9006 190.546 88.908 190.623 88.9 190.7V196.17C88.9143 196.565 88.8283 196.957 88.65 197.31C88.4833 197.623 88.3333 197.873 88.2 198.06L84.37 204L88.2 205.5C88.3592 205.548 88.5107 205.619 88.65 205.71C88.82 205.82 88.9 206.09 88.9 206.54V212C88.9024 212.201 88.8579 212.399 88.77 212.58C88.7043 212.742 88.5887 212.878 88.44 212.97H88.34C88.2939 212.98 88.2461 212.98 88.2 212.97L79.44 208.97C79.2556 208.905 79.0905 208.795 78.96 208.65C78.8316 208.429 78.7757 208.174 78.8 207.92V206.47Z" fill="white"/>
<path d="M97.9102 182.44C97.9864 182.135 98.0971 181.84 98.2402 181.56C98.379 181.271 98.6021 181.03 98.8802 180.87L101.81 179.18C101.857 179.139 101.918 179.117 101.98 179.117C102.043 179.117 102.103 179.139 102.15 179.18C102.203 179.24 102.243 179.309 102.267 179.385C102.291 179.461 102.299 179.541 102.29 179.62C102.303 179.73 102.303 179.84 102.29 179.95L94.8802 211.52C94.8084 211.816 94.7079 212.104 94.5802 212.38C94.4348 212.676 94.2052 212.923 93.9202 213.09L91.0002 214.77C90.953 214.811 90.8926 214.833 90.8302 214.833C90.7678 214.833 90.7074 214.811 90.6602 214.77C90.6067 214.711 90.5658 214.641 90.5401 214.565C90.5143 214.49 90.5041 214.41 90.5102 214.33C90.4985 214.22 90.4985 214.11 90.5102 214L97.9102 182.44Z" fill="white"/>
<path d="M114 187.55C114.005 187.864 113.951 188.176 113.84 188.47C113.704 188.769 113.543 189.057 113.36 189.33L104.6 203.5C104.557 203.563 104.507 203.62 104.45 203.67L104.36 203.75C104.22 203.82 104.11 203.82 104.03 203.75C103.98 203.691 103.943 203.622 103.921 203.548C103.899 203.474 103.891 203.397 103.9 203.32V197.86C103.885 197.468 103.971 197.079 104.15 196.73C104.32 196.43 104.47 196.19 104.6 196L108.43 190.07L104.6 188.61C104.439 188.558 104.287 188.48 104.15 188.38C103.98 188.26 103.9 187.98 103.9 187.53V182C103.899 181.799 103.943 181.601 104.03 181.42C104.095 181.258 104.211 181.121 104.36 181.03H104.45H104.6L113.36 185.08C113.543 185.148 113.707 185.258 113.84 185.4C113.967 185.621 114.023 185.876 114 186.13V187.55Z" fill="white"/>
</svg>
