<svg viewBox="0 0 46 50" fill="none" xmlns="http://www.w3.org/2000/svg">
<path d="M39.0798 1L1.45978 22.65C1.1894 22.8267 0.964376 23.0644 0.802826 23.3441C0.641276 23.6238 0.547736 23.9375 0.529785 24.26V45.26C0.543945 45.5845 0.63694 45.9007 0.80072 46.1812C0.964501 46.4618 1.19414 46.6982 1.46979 46.87L5.17978 48.98C5.47007 49.1252 5.79019 49.2008 6.11478 49.2008C6.43936 49.2008 6.75948 49.1252 7.04977 48.98L44.6698 27.3C44.9404 27.1212 45.1654 26.8816 45.3269 26.6003C45.4884 26.319 45.5818 26.0038 45.5998 25.68V4.68C45.5856 4.35548 45.4926 4.0393 45.3289 3.75878C45.1651 3.47826 44.9354 3.24185 44.6598 3.07L40.9998 1C40.703 0.846558 40.3739 0.766479 40.0398 0.766479C39.7057 0.766479 39.3765 0.846558 39.0798 1V1Z" fill="#5BBD81"/>
<path opacity="0.15" d="M6.82977 49.07C6.56355 49.1703 6.2794 49.2141 5.99533 49.1986C5.71126 49.1831 5.43351 49.1087 5.17978 48.98L1.46979 46.87C1.19549 46.6991 0.966686 46.4643 0.802979 46.1856C0.639271 45.907 0.545537 45.5928 0.529785 45.27V24.27C0.53878 23.9173 0.638677 23.5728 0.819794 23.27L6.3898 26.48C6.22654 26.7603 6.13385 27.076 6.11978 27.4V48.4C6.11978 48.94 6.42977 49.19 6.82977 49.07Z" fill="black"/>
<g opacity="0.5">
<path opacity="0.5" d="M45.5898 4.52C45.5098 4.05 45.1298 3.88001 44.6598 4.15001L7.0498 25.82C6.77222 25.9914 6.54463 26.2328 6.38983 26.52L0.819824 23.31C0.974224 23.0397 1.19434 22.8126 1.45981 22.65L39.0798 1C39.3765 0.846558 39.7058 0.766479 40.0398 0.766479C40.3739 0.766479 40.7031 0.846558 40.9998 1L44.7098 3.11C44.9455 3.27191 45.1454 3.48068 45.2968 3.72329C45.4482 3.96589 45.5479 4.23711 45.5898 4.52V4.52Z" fill="white"/>
</g>
<path d="M44.6696 4.15003L7.04962 25.82C6.77979 25.9973 6.55519 26.2352 6.39371 26.5147C6.23223 26.7943 6.13836 27.1077 6.11963 27.43V48.43C6.11963 49.03 6.53962 49.27 7.04962 48.97L44.6696 27.3C44.9402 27.1212 45.1652 26.8816 45.3267 26.6003C45.4882 26.319 45.5817 26.0039 45.5996 25.68V4.68003C45.5996 4.09003 45.1796 3.85003 44.6696 4.15003Z" fill="#5BBD81"/>
<path d="M15.4099 31.2C15.4099 31.37 15.4099 31.59 15.4099 31.88V33.64C15.4099 33.93 15.4099 34.15 15.4099 34.31C15.429 34.5623 15.4657 34.8129 15.5199 35.06C15.5623 35.2572 15.6554 35.4398 15.7899 35.59C15.8472 35.6532 15.9165 35.7044 15.9937 35.7404C16.071 35.7765 16.1547 35.7968 16.2399 35.8C16.4861 35.7935 16.7254 35.7172 16.9299 35.58C17.1795 35.4352 17.4054 35.2531 17.5999 35.04C17.7681 34.8554 17.9126 34.6505 18.0299 34.43C18.1396 34.2338 18.2268 34.0258 18.2899 33.81C18.346 33.6258 18.3927 33.4389 18.4299 33.25C18.4544 33.0823 18.498 32.9179 18.5599 32.76C18.6207 32.639 18.7189 32.5408 18.8399 32.48L20.4099 31.57C20.4367 31.5481 20.4703 31.5361 20.5049 31.5361C20.5396 31.5361 20.5731 31.5481 20.5999 31.57C20.6539 31.6377 20.679 31.7239 20.67 31.81C20.6717 32.488 20.5706 33.1624 20.3699 33.81C20.1839 34.4728 19.9186 35.1107 19.5799 35.71C19.2479 36.3045 18.8522 36.8611 18.3999 37.37C17.9713 37.8426 17.4761 38.2502 16.9299 38.58C16.4642 38.8745 15.9303 39.0433 15.3799 39.07C14.9564 39.0783 14.5442 38.9326 14.2199 38.66C13.8709 38.341 13.6152 37.9331 13.4799 37.48C13.3025 36.9096 13.2049 36.3173 13.1899 35.72C13.1899 35.23 13.1899 34.72 13.1899 34.11C13.1899 33.5 13.1899 32.97 13.1899 32.43C13.225 31.001 13.566 29.5961 14.1899 28.31C14.4973 27.6748 14.8873 27.083 15.3499 26.55C15.7922 26.0378 16.3159 25.602 16.8999 25.26C17.3438 24.9816 17.8478 24.8136 18.3699 24.77C18.7838 24.742 19.1962 24.8433 19.5499 25.06C19.9153 25.2983 20.1927 25.6495 20.3399 26.06C20.5531 26.5658 20.6554 27.1114 20.64 27.66C20.641 27.7738 20.6171 27.8864 20.5699 27.99C20.5282 28.0822 20.4626 28.1616 20.3799 28.22L18.8099 29.13C18.6699 29.2 18.5799 29.22 18.5299 29.13C18.4612 29.0318 18.4166 28.9187 18.3999 28.8C18.3653 28.6596 18.3184 28.5224 18.2599 28.39C18.202 28.263 18.1124 28.1528 17.9999 28.07C17.8703 27.9925 17.7209 27.9543 17.5699 27.96C17.3297 27.981 17.0989 28.0636 16.8999 28.2C16.6387 28.3487 16.4053 28.5416 16.2099 28.77C16.0297 28.997 15.8785 29.2456 15.7599 29.51C15.6342 29.7738 15.5435 30.0528 15.4899 30.34C15.4492 30.6252 15.4225 30.9122 15.4099 31.2V31.2Z" fill="#FAFAFA"/>
<path d="M25.6298 20.19C26.0607 19.9264 26.5466 19.7656 27.0497 19.72C27.4352 19.6911 27.8207 19.7745 28.1598 19.96C28.4695 20.1399 28.7225 20.4033 28.8898 20.72C29.0643 21.054 29.16 21.4234 29.1698 21.8C29.167 21.9145 29.1397 22.027 29.0898 22.13C29.0513 22.2187 28.989 22.2948 28.9098 22.35L27.3398 23.26C27.26 23.3137 27.1658 23.3416 27.0698 23.34C26.9916 23.3277 26.9186 23.2929 26.8597 23.24L26.7498 23.12C26.6813 23.061 26.6036 23.0137 26.5197 22.98C26.4013 22.9523 26.2782 22.9523 26.1598 22.98C25.9722 23.0134 25.7925 23.0812 25.6298 23.18C25.4802 23.2709 25.3366 23.3711 25.1998 23.48C25.0635 23.5931 24.9364 23.7168 24.8198 23.85C24.7136 23.9842 24.6261 24.1323 24.5598 24.29C24.4903 24.4544 24.4562 24.6316 24.4597 24.81C24.4492 24.9489 24.4882 25.0871 24.5698 25.2C24.6791 25.2895 24.8191 25.3326 24.9597 25.32C25.1994 25.3133 25.4376 25.2798 25.6698 25.22L26.7798 24.93C27.1525 24.8182 27.5408 24.7675 27.9297 24.78C28.2303 24.7877 28.5193 24.897 28.7498 25.09C28.9935 25.3106 29.1644 25.6001 29.2397 25.92C29.3642 26.3794 29.4214 26.8543 29.4098 27.33C29.4072 27.9538 29.3128 28.5737 29.1298 29.17C28.9466 29.7752 28.6844 30.3535 28.3498 30.89C28.02 31.4281 27.6272 31.9249 27.1797 32.37C26.7334 32.8089 26.2327 33.1886 25.6898 33.5C25.2387 33.7853 24.7297 33.9663 24.1998 34.03C23.8041 34.0761 23.4036 34.003 23.0497 33.82C22.7183 33.6416 22.4496 33.3659 22.2798 33.03C22.0901 32.6512 21.9908 32.2336 21.9897 31.81C21.9925 31.6956 22.0198 31.583 22.0698 31.48C22.105 31.3895 22.168 31.3125 22.2498 31.26L23.8198 30.35C23.9012 30.2988 23.9938 30.2679 24.0898 30.26C24.1592 30.275 24.2242 30.3058 24.2798 30.35L24.4198 30.5C24.4935 30.5821 24.5816 30.6498 24.6797 30.7C24.8084 30.7574 24.9494 30.7814 25.0898 30.77C25.3026 30.7381 25.5067 30.6632 25.6898 30.55C26.0853 30.3275 26.4459 30.0479 26.7598 29.72C27.0221 29.4524 27.1723 29.0947 27.1797 28.72C27.1892 28.6492 27.1803 28.5771 27.1541 28.5106C27.1278 28.4441 27.085 28.3854 27.0298 28.34C26.8822 28.275 26.7199 28.2508 26.5598 28.27C26.2889 28.2999 26.0212 28.3534 25.7598 28.43L24.6097 28.72C24.3104 28.8437 23.982 28.8793 23.6631 28.8226C23.3442 28.7659 23.0481 28.6193 22.8098 28.4C22.3528 27.759 22.1465 26.9728 22.2298 26.19C22.2339 25.6316 22.3146 25.0765 22.4698 24.54C22.6303 23.9587 22.8585 23.3982 23.1497 22.87C23.4431 22.3277 23.8025 21.8239 24.2198 21.37C24.6279 20.9082 25.1032 20.5104 25.6298 20.19Z" fill="#FAFAFA"/>
<path d="M34.3296 15.17C34.7563 14.9052 35.2393 14.7442 35.7396 14.7C36.125 14.6711 36.5105 14.7544 36.8496 14.94C37.1624 15.1193 37.4187 15.3825 37.5896 15.7C37.7609 16.0346 37.8533 16.4041 37.8596 16.78C37.8617 16.8951 37.8341 17.0087 37.7796 17.11C37.7444 17.1977 37.6855 17.2738 37.6096 17.33L36.0396 18.24C35.9587 18.291 35.8652 18.3187 35.7696 18.32C35.6914 18.3077 35.6184 18.2729 35.5596 18.22C35.5146 18.1853 35.4742 18.145 35.4396 18.1C35.3766 18.0387 35.3017 17.9911 35.2196 17.96C35.1011 17.9333 34.9781 17.9333 34.8596 17.96C34.6703 17.9869 34.4894 18.0552 34.3296 18.16C34.1768 18.2508 34.0299 18.351 33.8896 18.46C33.7543 18.5671 33.6303 18.6877 33.5196 18.82C33.4109 18.9544 33.3202 19.1023 33.2496 19.26C33.1857 19.4295 33.1519 19.6089 33.1496 19.79C33.137 19.9307 33.1801 20.0707 33.2696 20.18C33.321 20.2255 33.3813 20.2597 33.4468 20.2804C33.5123 20.3011 33.5814 20.3077 33.6496 20.3C33.8933 20.2942 34.1352 20.2572 34.3696 20.19L35.4696 19.91C35.8424 19.7987 36.2307 19.7481 36.6196 19.76C36.9231 19.7678 37.2153 19.8769 37.4496 20.07C37.69 20.2933 37.8603 20.5816 37.9396 20.9C38.0597 21.36 38.1135 21.8348 38.0996 22.31C38.1004 22.9333 38.0094 23.5533 37.8296 24.15C37.6379 24.752 37.3761 25.3293 37.0496 25.87C36.7194 26.4106 36.323 26.9078 35.8696 27.35C35.4288 27.7909 34.931 28.1709 34.3896 28.48C33.9385 28.7652 33.4295 28.9463 32.8996 29.01C32.5006 29.0581 32.0963 28.985 31.7396 28.8C31.417 28.6152 31.1587 28.336 30.9996 28C30.8056 27.6228 30.706 27.2042 30.7096 26.78C30.7123 26.6656 30.7396 26.553 30.7896 26.45C30.8248 26.3623 30.8836 26.2862 30.9596 26.23L32.5396 25.32C32.6183 25.2706 32.7072 25.2398 32.7996 25.23C32.8696 25.243 32.9351 25.274 32.9896 25.32L33.1396 25.47C33.2111 25.5544 33.2997 25.6225 33.3996 25.67C33.5261 25.7225 33.6627 25.7464 33.7996 25.74C34.016 25.7099 34.2238 25.635 34.4096 25.52C34.8 25.2943 35.1568 25.0149 35.4696 24.69C35.7382 24.4258 35.8926 24.0668 35.8996 23.69C35.908 23.6197 35.8977 23.5484 35.8696 23.4834C35.8415 23.4184 35.7966 23.362 35.7396 23.32C35.5923 23.254 35.4297 23.2298 35.2696 23.25C35.0022 23.281 34.7379 23.3345 34.4796 23.41L33.3296 23.7C33.0281 23.8209 32.6988 23.8551 32.3789 23.7985C32.059 23.742 31.7613 23.597 31.5196 23.38C31.0711 22.7353 30.8689 21.9512 30.9496 21.17C30.9537 20.6116 31.0344 20.0564 31.1896 19.52C31.3466 18.939 31.5715 18.3785 31.8596 17.85C32.1599 17.3096 32.5223 16.8062 32.9396 16.35C33.3388 15.8869 33.8078 15.4888 34.3296 15.17V15.17Z" fill="#FAFAFA"/>
</svg>
