<svg width="500" height="500" viewBox="0 0 500 500" fill="none" xmlns="http://www.w3.org/2000/svg">
<path d="M426.15 354.55C418.27 346.42 413.64 313.32 421.33 306.87H460.44C468.12 313.32 463.5 346.4 455.62 354.54L455.41 354.77C455.322 354.862 455.228 354.949 455.13 355.03C454.905 355.256 454.668 355.47 454.42 355.67C454.361 355.725 454.298 355.776 454.23 355.82C454.04 355.98 453.85 356.13 453.64 356.28C453.43 356.43 452.96 356.74 452.64 356.94C446.16 360.72 435.64 360.72 429.16 356.94C428.816 356.734 428.482 356.51 428.16 356.27C427.96 356.14 427.78 355.99 427.6 355.85L427.37 355.66C427.13 355.46 426.9 355.26 426.68 355.05L426.37 354.74L426.15 354.55Z" fill="#455A64"/>
<path d="M457 304.28C465.92 309.49 465.92 317.93 457 323.14C448.08 328.35 433.61 328.35 424.68 323.14C415.75 317.93 415.76 309.49 424.68 304.28C433.6 299.07 448.12 299.07 457 304.28Z" fill="#455A64"/>
<g opacity="0.1">
<path opacity="0.1" d="M457 304.28C465.92 309.49 465.92 317.93 457 323.14C448.08 328.35 433.61 328.35 424.68 323.14C415.75 317.93 415.76 309.49 424.68 304.28C433.6 299.07 448.12 299.07 457 304.28Z" fill="white"/>
</g>
<path d="M452.75 306.78C459.3 310.61 459.3 316.78 452.75 320.64C446.2 324.5 435.57 324.46 429.02 320.64C422.47 316.82 422.46 310.64 429.02 306.78C435.58 302.92 446.2 303 452.75 306.78Z" fill="#263238"/>
<path d="M429 313.36C435.55 309.53 446.17 309.53 452.73 313.36C454.319 314.228 455.666 315.479 456.65 317C455.663 318.517 454.316 319.768 452.73 320.64C446.17 324.46 435.55 324.46 429 320.64C427.41 319.769 426.06 318.519 425.07 317C426.057 315.479 427.408 314.228 429 313.36V313.36Z" fill="#F5F5F5"/>
<path d="M462.56 242.67L454 250.33L461.76 247.77C461.595 252.286 460.538 256.724 458.65 260.83L449 266L456.7 264.82C457.105 267.084 456.965 269.411 456.29 271.61C456.21 271.91 456.12 272.22 456.01 272.53C455.33 274.61 454.34 278.53 452.68 283.21C451.264 287.287 449.466 291.221 447.31 294.96C446.234 296.8 445.038 298.567 443.73 300.25L443.49 300.57C441.083 298.95 438.57 297.373 435.95 295.84C434.45 292 432.79 282.67 432.49 275.1C431.36 246.1 454.25 231.19 472.12 226.9C472.14 226.88 465.6 234 462.56 242.67Z" fill="#5BBD81"/>
<path d="M450.09 243C448.498 244.42 447.129 246.072 446.03 247.9C444.934 249.729 443.978 251.637 443.17 253.61C441.554 257.552 440.377 261.66 439.66 265.86C438.115 274.228 438.574 282.843 441 291V291C441.022 291.054 441.034 291.113 441.032 291.172C441.031 291.231 441.017 291.289 440.992 291.342C440.967 291.395 440.931 291.443 440.886 291.481C440.842 291.52 440.79 291.548 440.733 291.565C440.677 291.582 440.617 291.587 440.559 291.579C440.5 291.572 440.444 291.552 440.394 291.521C440.344 291.491 440.3 291.45 440.267 291.401C440.233 291.353 440.21 291.298 440.2 291.24C437.857 282.938 437.514 274.2 439.2 265.74C440.017 261.544 441.292 257.449 443 253.53C443.861 251.567 444.864 249.668 446 247.85C447.118 246.041 448.496 244.407 450.09 243V243Z" fill="#FAFAFA"/>
<path d="M393.28 257.73C398.679 264.846 403.641 272.283 408.14 280L417.25 282.74L412 284.5L417.67 294.13L427.78 297.24L420.78 299.18C420.78 299.18 423.65 310.57 431.78 315.53C436.27 318.27 438.49 318.74 439.9 317.47C440.9 316.59 441.28 311.18 442.23 306.37C443.18 301.56 443.49 293.7 439.23 284.07C438.07 281.497 436.548 279.102 434.71 276.96C424.06 264.41 403.53 257.89 393.28 257.73Z" fill="#5BBD81"/>
<path opacity="0.15" d="M393.28 257.73C398.679 264.846 403.641 272.283 408.14 280L417.25 282.74L412 284.5L417.67 294.13L427.78 297.24L420.78 299.18C420.78 299.18 423.65 310.57 431.78 315.53C436.27 318.27 438.49 318.74 439.9 317.47C440.9 316.59 441.28 311.18 442.23 306.37C443.18 301.56 443.49 293.7 439.23 284.07C438.07 281.497 436.548 279.102 434.71 276.96C424.06 264.41 403.53 257.89 393.28 257.73Z" fill="black"/>
<path opacity="0.1" d="M436 289C437.614 293.02 438.647 297.249 439.07 301.56C439.379 307.036 439.355 312.526 439 318C439.311 317.896 439.596 317.729 439.84 317.51C440.84 316.63 441.22 311.22 442.17 306.41C443.12 301.6 443.43 293.74 439.17 284.12C438.012 281.542 436.49 279.144 434.65 277C424.06 264.45 403.53 257.93 393.28 257.77C408.93 260.77 425.51 271.77 433.48 284.22C434.454 285.739 435.297 287.338 436 289V289Z" fill="black"/>
<path d="M486.69 268.41C485.424 268.329 484.155 268.329 482.89 268.41C477.906 268.706 472.978 269.619 468.22 271.13C466.45 271.68 464.68 272.31 462.93 273.03C462.05 273.39 461.18 273.77 460.32 274.18C456.062 276.111 452.155 278.736 448.76 281.95C447.182 283.494 445.801 285.227 444.65 287.11C444.5 287.35 444.34 287.59 444.2 287.83C443.84 288.47 443.51 289.11 443.2 289.73C440.333 295.154 438.888 301.216 439 307.35C438.92 311.67 440.11 316.69 440.91 317.55C441.02 317.661 441.141 317.761 441.27 317.85C442.46 318.7 444.44 318.35 448.21 316.51C455.77 312.81 459.21 302.59 459.21 302.59L454.43 300.81L462.35 298.4L468.12 290.4L463.02 289.18L471.84 286.77C476.424 280.361 481.39 274.233 486.71 268.42L486.69 268.41Z" fill="#5BBD81"/>
<path opacity="0.05" d="M482.89 268.38C477.906 268.676 472.978 269.589 468.22 271.1C466.45 271.65 464.68 272.28 462.93 273C462.05 273.36 461.18 273.74 460.32 274.15C456.062 276.081 452.155 278.706 448.76 281.92C447.182 283.464 445.801 285.197 444.65 287.08C444.5 287.32 444.34 287.56 444.2 287.8C443.84 288.44 443.51 289.08 443.2 289.7C440.328 295.133 438.883 301.206 439 307.35C438.92 311.67 440.11 316.69 440.91 317.55C441.02 317.661 441.141 317.761 441.27 317.85C441.509 318.013 441.777 318.129 442.06 318.19C441.53 311.44 445.76 294.66 451.13 287.95C456.72 280.95 469.6 271.12 486.72 268.43C485.446 268.329 484.166 268.312 482.89 268.38Z" fill="black"/>
<path d="M442 318.19C441.952 313.217 442.55 308.259 443.78 303.44C444.945 298.581 446.865 293.934 449.47 289.67C450.85 287.58 452.46 285.651 454.27 283.92C456.059 282.173 457.981 280.568 460.02 279.12C464.081 276.233 468.51 273.902 473.19 272.19H473.25V272.24C468.766 274.318 464.505 276.844 460.53 279.78C458.546 281.234 456.653 282.807 454.86 284.49C453.042 286.142 451.412 287.99 450 290C447.365 294.174 445.395 298.731 444.16 303.51C442.827 308.278 442.121 313.2 442.06 318.15H441.98L442 318.19Z" fill="#FAFAFA"/>
</svg>
