<svg viewBox="0 0 512 512" fill="none" xmlns="http://www.w3.org/2000/svg">
  <g filter="url(#filter0_d)">
    <path
      d="M348.709 343.246C339.7 331.226 317.426 288.989 307.415 269.374L304.913 264.365L273.629 283.146C284.891 303.597 308.667 346.251 313.672 353.262C319.929 362.027 327.437 383.312 352.464 398.337C371.234 409.606 383.866 407.29 392.506 405.849C400.014 404.597 405.02 398.337 406.271 395.833C406.271 395.833 408.767 392.131 410.025 389.573C412.072 385.41 413.779 378.304 413.779 378.304C412.528 381.225 410.228 384.912 406.271 387.068C398.129 391.506 386.25 382.281 383.747 380.808C362.474 368.287 359.972 358.271 348.709 343.246Z"
      fill="#787878" />
    <path
      d="M186.037 258.104L207.31 246.835L163.513 273.129C162.679 273.546 159.508 274.381 153.502 274.381C135.983 274.381 124.721 265.616 112.208 255.6C100.281 246.052 84.6786 220.542 82.1759 215.533C79.6732 210.525 64.1444 182.98 66.6471 159.19C68.6229 140.409 72.9037 134.149 82.9144 126.636C90.7503 120.756 98.443 120.376 107.203 121.628C113.396 122.514 111.627 122.21 107.203 126.636C103.448 130.393 102.197 134.149 100.946 139.157C99.5891 144.59 100.946 159.19 103.449 169.207C105.951 179.223 109.705 194.248 129.727 225.55C145.744 250.591 173.941 257.687 186.037 258.104Z"
      fill="#787878" />
    <path
      d="M308.84 180.829L272.783 200.734L269.053 203.222C235.798 144.188 208.211 97.8764 169.588 65.1321C146.742 45.764 111.152 41.4951 93.745 45.2273C82.7362 47.5877 76.3385 50.2033 51.472 70.1082C37.7955 85.0369 28.6778 102.039 26.6056 112.406C45.9593 56.5863 82.6737 49.6404 127.315 78.8167C135.242 83.9979 153.424 96.2334 173.318 118.626C189.232 136.541 223.584 199.441 239.333 228.054C248.219 224.242 264.213 213.84 272.783 209.273C281.354 204.707 296.407 190.127 321.273 194.513C346.948 199.043 365.609 211.494 381.674 226.47C397.739 241.447 418.274 268.121 431.525 290.278C444.805 312.484 455.83 339.992 458.317 353.262C461.632 373.581 468.135 421.276 438.295 448.419C413.429 471.038 385.739 464.517 373.226 462.192C377.973 463.976 389.493 465.948 394.499 465.948C415.771 465.948 465.498 458.252 482.905 413.467C497.825 375.079 485.392 318.919 469.228 287.817L468.715 286.828C455.842 262.051 445.051 241.282 403.332 203.222C367.467 170.502 324.589 172.95 308.84 180.829Z"
      fill="url(#paint0_linear)" />
    <mask id="mask0" mask-type="alpha" maskUnits="userSpaceOnUse" x="22" y="60" width="440" height="406">
      <path fill-rule="evenodd" clip-rule="evenodd"
        d="M293.73 196.731L240.009 227.982C236.741 222.411 232.216 214.994 227.284 206.911L227.282 206.908L227.282 206.908C215.245 187.182 200.789 163.491 196.283 152.979C185.528 127.889 157.584 100.968 133.818 82.9769C110.448 65.2857 73.8512 52.9759 53.8623 67.9764C33.8733 82.9769 25.1282 105.478 23.8789 122.978C22.6295 140.479 22.6295 167.98 36.3719 207.981C50.1143 247.982 82.5964 287.984 118.826 316.735C147.81 339.735 177.544 337.985 188.788 334.235L242.508 301.734C254.585 324.235 280.987 372.737 289.982 386.737C301.225 404.238 339.954 456.739 381.181 464.24C414.163 470.24 436.567 452.573 443.647 442.989C449.477 435.905 463.136 413.488 461.137 380.487C458.638 339.235 449.893 310.485 402.419 249.232C365.891 202.102 322.464 186.73 293.73 196.731ZM161.304 272.983L208.778 245.482C202.531 230.898 186.79 197.23 173.797 179.229C170.871 175.176 168.432 171.691 166.268 168.598C156.417 154.522 152.256 148.576 133.819 134.228C111.331 116.727 94.3891 119.57 83.8466 126.728C48.8659 150.478 77.3172 209.516 90.0932 230.481C115.079 271.482 152.975 277.983 161.304 272.983ZM272.492 282.983L317.467 255.482C326.212 250.482 367.258 255.227 394.924 301.734C426.157 354.236 411.945 385.957 404.919 396.737C398.143 407.133 386.602 406.906 379.527 406.766C378.775 406.751 378.074 406.737 377.434 406.737C366.19 406.737 344.952 397.987 328.711 377.986C319.922 367.163 300.811 333.195 285.088 305.25C280.484 297.067 276.171 289.401 272.492 282.983Z"
        fill="#F9F9F9" />
      <path
        d="M240.009 227.982L239.664 228.184C239.776 228.374 240.02 228.438 240.21 228.328L240.009 227.982ZM293.73 196.731L293.598 196.353C293.574 196.361 293.551 196.372 293.528 196.385L293.73 196.731ZM227.284 206.911L227.625 206.703L227.624 206.701L227.284 206.911ZM227.282 206.908L226.939 207.114L226.942 207.118L227.282 206.908ZM227.282 206.908L227.625 206.702L227.623 206.7L227.282 206.908ZM196.283 152.979L195.916 153.137L195.916 153.137L196.283 152.979ZM133.818 82.9769L134.059 82.658L134.059 82.658L133.818 82.9769ZM53.8623 67.9764L53.6222 67.6565L53.6222 67.6565L53.8623 67.9764ZM23.8789 122.978L24.2778 123.007L24.2778 123.007L23.8789 122.978ZM36.3719 207.981L35.9936 208.111L35.9936 208.111L36.3719 207.981ZM118.826 316.735L119.075 316.421L119.075 316.421L118.826 316.735ZM188.788 334.235L188.914 334.615C188.942 334.605 188.969 334.593 188.995 334.578L188.788 334.235ZM242.508 301.734L242.86 301.545C242.809 301.448 242.719 301.377 242.613 301.348C242.508 301.319 242.395 301.335 242.301 301.392L242.508 301.734ZM289.982 386.737L290.318 386.521L290.318 386.521L289.982 386.737ZM381.181 464.24L381.253 463.846L381.253 463.846L381.181 464.24ZM443.647 442.989L443.338 442.735C443.333 442.74 443.329 442.746 443.325 442.751L443.647 442.989ZM402.419 249.232L402.736 248.987L402.736 248.987L402.419 249.232ZM208.778 245.482L208.978 245.828C209.153 245.726 209.225 245.51 209.145 245.324L208.778 245.482ZM161.304 272.983L161.103 272.636L161.098 272.64L161.304 272.983ZM173.797 179.229L174.121 178.995L174.121 178.995L173.797 179.229ZM166.268 168.598L166.595 168.369L166.595 168.369L166.268 168.598ZM133.819 134.228L133.573 134.544L133.573 134.544L133.819 134.228ZM83.8466 126.728L84.0713 127.059L84.0713 127.059L83.8466 126.728ZM90.0932 230.481L90.4348 230.273L90.4348 230.273L90.0932 230.481ZM317.467 255.482L317.269 255.135L317.258 255.141L317.467 255.482ZM272.492 282.983L272.283 282.642C272.099 282.755 272.037 282.994 272.145 283.182L272.492 282.983ZM394.924 301.734L395.268 301.529L395.268 301.529L394.924 301.734ZM404.919 396.737L405.254 396.956L405.254 396.956L404.919 396.737ZM379.527 406.766L379.519 407.166L379.519 407.166L379.527 406.766ZM328.711 377.986L329.021 377.734L329.021 377.734L328.711 377.986ZM285.088 305.25L285.437 305.054L285.437 305.054L285.088 305.25ZM240.21 228.328L293.931 197.077L293.528 196.385L239.808 227.636L240.21 228.328ZM226.942 207.119C231.875 215.203 236.398 222.617 239.664 228.184L240.354 227.779C237.084 222.205 232.556 214.784 227.625 206.703L226.942 207.119ZM226.942 207.118L226.943 207.121L227.624 206.701L227.622 206.698L226.942 207.118ZM226.939 207.114L226.939 207.114L227.625 206.703L227.625 206.702L226.939 207.114ZM195.916 153.137C200.436 163.682 214.915 187.408 226.94 207.116L227.623 206.7C215.576 186.957 201.143 163.299 196.651 152.822L195.916 153.137ZM133.577 83.2959C157.331 101.278 185.204 128.147 195.916 153.137L196.651 152.822C185.853 127.631 157.836 100.657 134.059 82.658L133.577 83.2959ZM54.1024 68.2964C63.9586 60.8999 77.9608 60.2044 92.481 63.6067C106.989 67.0063 121.931 74.4798 133.577 83.2959L134.059 82.658C122.335 73.7828 107.293 66.2559 92.6635 62.8278C78.0456 59.4026 63.755 60.0525 53.6222 67.6565L54.1024 68.2964ZM24.2778 123.007C25.5204 105.6 34.2222 83.2153 54.1024 68.2964L53.6222 67.6565C33.5245 82.7386 24.7359 105.355 23.4799 122.95L24.2778 123.007ZM36.7502 207.851C23.0286 167.91 23.0316 140.465 24.2778 123.007L23.4799 122.95C22.2275 140.493 22.2305 168.049 35.9936 208.111L36.7502 207.851ZM119.075 316.421C82.8851 287.702 50.4607 247.76 36.7502 207.851L35.9936 208.111C49.768 248.205 82.3077 288.265 118.578 317.048L119.075 316.421ZM188.661 333.856C177.535 337.567 147.945 339.332 119.075 316.421L118.578 317.048C147.676 340.139 177.553 338.404 188.914 334.615L188.661 333.856ZM242.301 301.392L188.581 333.893L188.995 334.578L242.715 302.076L242.301 301.392ZM290.318 386.521C281.334 372.537 254.941 324.053 242.86 301.545L242.155 301.923C254.228 324.417 280.639 372.936 289.645 386.953L290.318 386.521ZM381.253 463.846C360.763 460.119 340.847 445.191 324.621 428.956C308.405 412.731 295.929 395.254 290.318 386.521L289.645 386.953C295.278 395.72 307.788 413.245 324.055 429.521C340.311 445.787 360.372 460.861 381.11 464.633L381.253 463.846ZM443.325 442.751C436.316 452.24 414.053 469.813 381.253 463.846L381.11 464.633C414.273 470.666 436.819 452.905 443.968 443.227L443.325 442.751ZM460.738 380.511C462.729 413.391 449.118 435.712 443.338 442.735L443.956 443.243C449.836 436.099 463.543 413.585 461.536 380.463L460.738 380.511ZM402.103 249.478C425.831 280.092 439.862 302.561 448.275 322.515C456.685 342.461 459.49 359.913 460.738 380.511L461.536 380.463C460.285 359.81 457.469 342.261 449.012 322.205C440.56 302.157 426.481 279.625 402.736 248.987L402.103 249.478ZM293.861 197.109C322.359 187.19 365.622 202.408 402.103 249.478L402.736 248.987C366.159 201.795 322.568 186.27 293.598 196.353L293.861 197.109ZM208.577 245.136L161.103 272.636L161.504 273.329L208.978 245.828L208.577 245.136ZM173.473 179.464C186.437 197.425 202.163 231.055 208.41 245.639L209.145 245.324C202.899 230.74 187.143 197.035 174.121 178.995L173.473 179.464ZM165.94 168.827C168.104 171.92 170.545 175.408 173.473 179.464L174.121 178.995C171.197 174.945 168.76 171.461 166.595 168.369L165.94 168.827ZM133.573 134.544C142.783 141.711 148.412 146.768 152.967 151.784C157.523 156.801 161.012 161.785 165.94 168.827L166.595 168.369C161.672 161.334 158.155 156.307 153.559 151.246C148.961 146.183 143.292 141.093 134.065 133.912L133.573 134.544ZM84.0713 127.059C89.2784 123.523 96.062 121.055 104.326 121.63C112.592 122.205 122.376 125.829 133.573 134.544L134.065 133.912C122.775 125.126 112.843 121.421 104.381 120.832C95.9161 120.243 88.9574 122.774 83.622 126.397L84.0713 127.059ZM90.4348 230.273C84.0584 219.81 73.7764 199.853 69.4524 179.566C65.1247 159.262 66.7913 138.791 84.0713 127.059L83.622 126.397C65.9213 138.415 64.3231 159.339 68.6699 179.732C73.0204 200.143 83.352 220.188 89.7516 230.689L90.4348 230.273ZM161.098 272.64C159.131 273.82 155.312 274.364 150.22 273.819C145.152 273.277 138.894 271.665 132.109 268.618C118.542 262.525 102.885 250.703 90.4348 230.273L89.7516 230.689C102.288 251.261 118.071 263.19 131.781 269.347C138.635 272.425 144.974 274.063 150.135 274.615C155.271 275.164 159.312 274.645 161.51 273.325L161.098 272.64ZM317.258 255.141L272.283 282.642L272.701 283.324L317.676 255.824L317.258 255.141ZM395.268 301.529C381.392 278.203 364.149 265.333 349.258 258.926C341.815 255.723 334.958 254.133 329.403 253.661C323.869 253.191 319.563 253.823 317.269 255.135L317.666 255.83C319.744 254.641 323.848 253.992 329.335 254.458C334.799 254.923 341.572 256.489 348.942 259.66C363.678 266.002 380.791 278.758 394.581 301.938L395.268 301.529ZM405.254 396.956C408.799 391.517 414.139 380.822 414.669 364.894C415.199 348.966 410.917 327.835 395.268 301.529L394.581 301.938C410.164 328.134 414.393 349.115 413.869 364.868C413.345 380.621 408.066 391.177 404.584 396.519L405.254 396.956ZM379.519 407.166C386.567 407.305 398.343 407.559 405.254 396.956L404.584 396.519C397.943 406.708 386.638 406.506 379.535 406.366L379.519 407.166ZM377.434 407.137C378.069 407.137 378.766 407.151 379.519 407.166L379.535 406.366C378.784 406.351 378.079 406.337 377.434 406.337V407.137ZM328.4 378.239C336.556 388.282 345.968 395.503 354.757 400.215C363.539 404.922 371.725 407.137 377.434 407.137V406.337C371.899 406.337 363.844 404.178 355.135 399.51C346.434 394.845 337.107 387.691 329.021 377.734L328.4 378.239ZM284.739 305.446C292.6 319.418 301.311 334.9 309.155 348.242C316.993 361.574 323.984 372.799 328.4 378.239L329.021 377.734C324.65 372.351 317.69 361.18 309.845 347.836C302.005 334.502 293.298 319.027 285.437 305.054L284.739 305.446ZM272.145 283.182C275.823 289.598 280.135 297.263 284.739 305.446L285.437 305.054C280.833 296.872 276.519 289.204 272.839 282.784L272.145 283.182Z"
        fill="black" />
    </mask>
    <g mask="url(#mask0)">
      <path
        d="M293.73 196.731L240.009 227.982C228.766 208.814 202.636 167.799 196.283 152.979C185.528 127.889 157.584 100.968 133.818 82.9769C110.448 65.2857 73.8512 52.9759 53.8623 67.9764C33.8733 82.9769 25.1282 105.478 23.8789 122.978C22.6295 140.479 22.6295 167.98 36.3719 207.981C50.1143 247.982 82.5964 287.984 118.826 316.735C147.81 339.735 177.544 337.985 188.788 334.235L242.508 301.734C254.585 324.235 280.987 372.736 289.982 386.737C301.225 404.238 339.954 456.739 381.181 464.24C414.163 470.24 436.567 452.572 443.647 442.989C449.477 435.905 463.136 413.488 461.137 380.487C458.638 339.235 449.893 310.484 402.419 249.232C365.891 202.102 322.464 186.73 293.73 196.731Z"
        fill="white" stroke="white" stroke-width="0.8" stroke-linecap="round" stroke-linejoin="round" />
      <path
        d="M303.732 280.669C329.566 299.982 366.149 294.697 385.438 268.865C404.727 243.031 399.42 206.431 373.585 187.118C347.751 167.805 311.171 173.092 291.882 198.925C272.593 224.758 277.897 261.357 303.732 280.669Z"
        fill="#438BF7" stroke="#253CB5" stroke-width="0.8" />
      <path
        d="M319.434 247.414C318.396 246.639 317.654 245.534 317.329 244.28L312.638 226.216C312.258 224.753 312.474 223.2 313.238 221.898C314.003 220.595 315.256 219.652 316.716 219.273C318.177 218.894 319.73 219.111 321.032 219.878C322.335 220.644 323.278 221.895 323.659 223.358L326.919 235.909L364.372 226.193C365.097 225.999 365.852 225.95 366.598 226.051C367.342 226.151 368.059 226.398 368.708 226.776C369.356 227.155 369.924 227.658 370.378 228.257C370.831 228.856 371.162 229.539 371.353 230.268C371.541 230.994 371.585 231.752 371.48 232.496C371.375 233.24 371.122 233.954 370.741 234.601C370.357 235.247 369.852 235.812 369.249 236.26C368.648 236.71 367.964 237.037 367.237 237.221L324.272 248.365C323.548 248.553 322.796 248.597 322.055 248.493C321.315 248.39 320.603 248.141 319.959 247.762C319.776 247.656 319.602 247.54 319.434 247.414Z"
        fill="white" stroke="#253CB5" stroke-width="0.8" />
      <path
        d="M29.3509 136.365C31.1282 136.14 32.932 136.284 34.6513 136.789C36.3689 137.294 37.9652 138.147 39.3382 139.297C40.7113 140.448 41.8329 141.871 42.6293 143.473C43.4274 145.077 43.8863 146.829 43.9742 148.618L44.3767 157.82C48.7912 159.829 53.4341 161.291 58.2037 162.172L63.803 154.856C64.9 153.442 66.2783 152.267 67.85 151.408C69.4234 150.55 71.1551 150.026 72.9395 149.869C74.7239 149.711 76.5223 149.925 78.2206 150.495C79.9188 151.065 81.48 151.98 82.809 153.181L89.5915 159.396C94.136 157.695 98.4555 155.444 102.453 152.691L101.242 143.573C101.017 141.797 101.161 139.992 101.667 138.273C102.172 136.555 103.026 134.958 104.176 133.585C105.328 132.212 106.75 131.091 108.353 130.294C109.958 129.496 111.709 129.038 113.499 128.949L122.7 128.548C124.708 124.134 126.171 119.49 127.052 114.721L119.736 109.122C118.321 108.025 117.147 106.647 116.289 105.075C115.431 103.502 114.905 101.769 114.749 99.9857C114.592 98.202 114.805 96.4042 115.375 94.7067C115.944 93.0075 116.86 91.4454 118.061 90.1173L124.276 83.3344C122.574 78.789 120.322 74.4705 117.569 70.4739L108.452 71.6841C106.674 71.9093 104.871 71.7651 103.151 71.2602C101.432 70.7554 99.8373 69.9005 98.4643 68.75C97.0912 67.5996 95.9696 66.1783 95.1715 64.574C94.3751 62.9715 93.9162 61.2195 93.8266 59.4305L93.4258 50.2271C89.0113 48.22 84.3684 46.7582 79.5989 45.877L73.9996 53.1911C72.9025 54.6072 71.5242 55.7805 69.9508 56.6389C68.3791 57.4973 66.6457 58.0215 64.8613 58.1798C63.0769 58.3364 61.2802 58.1235 59.5819 57.5536C57.8837 56.9837 56.3208 56.069 54.9935 54.8658L50.245 50.5174L19.8364 100.584C21.9795 102.971 23.1556 106.07 23.138 109.277C23.1204 112.484 21.9091 115.569 19.7397 117.932L19.1016 118.628L19.1016 135.821C19.476 136.407 19.8382 137.002 20.232 137.573L29.3509 136.365ZM40.0502 119.066C36.55 112.373 35.4811 104.674 37.0229 97.2802C38.5665 89.8869 42.6257 83.257 48.5099 78.5234C54.3958 73.788 61.7408 71.2426 69.2933 71.3165C76.8458 71.3921 84.1381 74.0853 89.9273 78.9368C95.7165 83.7865 99.6422 90.4955 101.038 97.9188C102.432 105.342 101.21 113.019 97.5765 119.64C93.9444 126.261 88.1271 131.418 81.1178 134.229C74.1068 137.042 66.338 137.336 59.1372 135.06C55.055 133.788 51.2665 131.719 47.9913 128.975C44.7143 126.229 42.014 122.86 40.0485 119.064L40.0502 119.066Z"
        fill="#438BF7" />
      <path
        d="M23.087 108.06C22.8356 105.284 21.6947 102.661 19.8364 100.584L19.1016 101.794L19.1016 118.628L19.7397 117.932C20.9493 116.607 21.8722 115.047 22.4489 113.348C23.0237 111.648 23.2417 109.849 23.087 108.06Z"
        fill="#253CB5" />
      <path
        d="M50.245 50.5171L54.9917 54.8655C56.3208 56.0669 57.8819 56.9834 59.5802 57.5533C61.2785 58.1233 63.0769 58.3361 64.8613 58.1796C66.6457 58.0213 68.3774 57.497 69.9508 56.6386C71.5225 55.7802 72.9008 54.6069 73.9978 53.1909L79.5971 45.8767C84.3666 46.758 89.0096 48.218 93.424 50.2269L93.8266 59.4303C93.9162 61.2192 94.3734 62.9695 95.1715 64.5738C95.9696 66.178 97.0895 67.5994 98.4625 68.7498C99.8356 69.9002 101.432 70.7551 103.151 71.26C104.869 71.7648 106.674 71.9091 108.45 71.6839L117.569 70.4737C120.32 74.4702 122.572 78.7887 124.274 83.3342L118.061 90.1171C116.859 91.4452 115.944 93.0072 115.373 94.7065C114.803 96.404 114.591 98.2017 114.749 99.9854C114.905 101.769 115.429 103.502 116.287 105.074C117.145 106.647 118.319 108.024 119.735 109.122L127.05 114.721C126.169 119.49 124.708 124.132 122.7 128.547L113.497 128.948C111.708 129.038 109.957 129.495 108.353 130.294C106.748 131.091 105.326 132.211 104.176 133.585C103.025 134.957 102.17 136.553 101.666 138.271C101.161 139.992 101.017 141.795 101.242 143.573L102.453 152.69C98.4555 155.443 94.136 157.695 89.5898 159.394L82.8073 153.181C81.48 151.98 79.9171 151.065 78.2188 150.495C76.5223 149.923 74.7239 149.711 72.9395 149.869C71.1551 150.025 69.4216 150.55 67.85 151.408C66.2783 152.266 64.9 153.44 63.803 154.856L58.2019 162.17C53.4341 161.29 48.7912 159.829 44.3767 157.82L43.9742 148.618C43.8845 146.829 43.4274 145.077 42.6293 143.473C41.8311 141.87 40.7113 140.447 39.3382 139.297C37.9652 138.146 36.3689 137.293 34.6496 136.788C32.932 136.284 31.1265 136.139 29.3491 136.365L20.232 137.575C19.8382 137.001 19.476 136.407 19.1016 135.821L19.1016 144.381C19.1121 144.379 19.1227 144.382 19.1332 144.381L30.2193 142.908C31.0878 142.804 31.9686 142.878 32.8089 143.126C33.6475 143.376 34.4263 143.795 35.0979 144.358C35.7694 144.919 36.318 145.614 36.71 146.395C37.102 147.178 37.3288 148.032 37.378 148.907L37.8685 160.096C37.8931 160.685 38.0777 161.259 38.4012 161.753C38.7229 162.249 39.173 162.648 39.7022 162.911C45.8219 165.936 52.3723 167.998 59.1214 169.02C59.2849 169.044 59.4501 169.057 59.6171 169.057C60.1234 169.057 60.6227 168.939 61.078 168.715C61.5334 168.49 61.9289 168.165 62.2383 167.762L65.5575 163.426L65.8282 163.071L69.0437 158.87C69.5851 158.182 70.2602 157.612 71.0303 157.194C71.8003 156.777 72.6476 156.522 73.5196 156.446C74.3916 156.369 75.2706 156.471 76.1004 156.747C76.9319 157.023 77.6967 157.466 78.3507 158.05L83.8305 163.071L86.5976 165.605C87.0318 166.003 87.5662 166.279 88.1446 166.401C88.723 166.522 89.3225 166.487 89.8816 166.297C96.33 164.056 102.416 160.884 107.945 156.882C108.422 156.53 108.794 156.059 109.025 155.515C109.255 154.972 109.338 154.376 109.26 153.792L107.789 142.704C107.659 141.631 107.813 140.544 108.235 139.548C108.478 138.926 108.816 138.345 109.236 137.826C109.795 137.153 110.489 136.6 111.272 136.208C112.056 135.816 112.912 135.591 113.787 135.545L114.378 135.52L124.975 135.056C125.566 135.029 126.139 134.845 126.635 134.523C127.129 134.199 127.528 133.751 127.792 133.221C130.817 127.103 132.878 120.552 133.899 113.803C133.989 113.219 133.918 112.623 133.697 112.074C133.475 111.525 133.112 111.046 132.642 110.688L123.75 103.88C123.061 103.338 122.491 102.663 122.075 101.894C121.658 101.124 121.403 100.277 121.326 99.4049C121.248 98.5324 121.352 97.6547 121.628 96.8244C121.904 95.9941 122.347 95.2289 122.931 94.5763L130.485 86.3281C130.884 85.8918 131.158 85.3588 131.281 84.7801C131.403 84.2031 131.368 83.6033 131.178 83.0439C128.994 76.5705 125.816 70.4772 121.76 64.9801C121.41 64.5052 120.939 64.1322 120.394 63.9018C119.851 63.6696 119.255 63.5904 118.669 63.6678L107.583 65.1402C106.715 65.244 105.832 65.1701 104.994 64.9203C104.155 64.6723 103.376 64.2536 102.705 63.6907C102.033 63.1296 101.485 62.4347 101.093 61.652C100.701 60.8709 100.474 60.016 100.425 59.1418L99.934 47.9524C99.9076 47.3631 99.7248 46.7897 99.4013 46.2954C99.0779 45.7993 98.6278 45.4 98.0986 45.1379C91.9807 42.1123 85.4303 40.0525 78.6812 39.0304C78.0975 38.9407 77.4998 39.0093 76.9513 39.231C76.4028 39.4526 75.9246 39.8167 75.5642 40.2864L68.7589 49.1785C68.2174 49.8662 67.5423 50.4362 66.7723 50.8548C66.0023 51.2717 65.1549 51.5251 64.2829 51.6025C63.4109 51.6799 62.5319 51.5761 61.7021 51.2999C60.8706 51.0255 60.1058 50.5804 59.4536 49.9982L53.74 44.765L50.245 50.5171Z"
        fill="#253CB5" />
      <path
        d="M59.1356 135.059C66.3171 137.318 74.0577 137.017 81.0424 134.208C88.0253 131.399 93.818 126.255 97.436 119.653C101.052 113.053 102.267 105.401 100.875 98.0045C99.4823 90.6077 95.5672 83.9233 89.7974 79.0876C84.0293 74.2537 76.7616 71.5694 69.2337 71.492C61.7076 71.4146 54.3854 73.9476 48.5188 78.6637C42.6505 83.3779 38.6 89.9814 37.0547 97.3484C35.5112 104.715 36.5695 112.39 40.0487 119.064C44.0482 126.707 50.9098 132.457 59.1356 135.059ZM56.9099 81.0261C62.9523 77.8668 69.9984 77.2142 76.5172 79.2107C83.0377 81.2072 88.5087 85.6929 91.7453 91.6948C94.98 97.6984 95.7202 104.733 93.8057 111.278C91.8894 117.822 87.4715 123.347 81.51 126.658C81.2991 126.774 81.1039 126.908 80.8912 127.02C79.1332 127.928 77.2767 128.633 75.3587 129.122C70.6718 130.34 65.737 130.215 61.1169 128.762C56.4985 127.309 52.3795 124.586 49.2344 120.904C47.9422 119.405 46.8241 117.764 45.9029 116.012C45.7921 115.799 45.7078 115.576 45.6023 115.359C42.6365 109.292 42.16 102.307 44.2714 95.8937C46.3846 89.4784 50.9203 84.1449 56.9099 81.0261Z"
        fill="#253CB5" />
      <path
        d="M132.955 345.507H132.923H-60.9844H-61.3844V345.107V289.515V289.176L-61.0502 289.12C-61.0251 289.116 -61.0028 289.114 -60.9847 289.114L-52.3261 287.966L-52.3218 287.965L-52.3218 287.965C-51.5871 287.876 -50.8404 287.938 -50.1305 288.15C-49.4195 288.359 -48.7604 288.714 -48.1936 289.19C-47.6252 289.665 -47.1613 290.253 -46.8297 290.915C-46.498 291.576 -46.3046 292.299 -46.263 293.039L-46.2627 293.044L-46.2627 293.044L-45.8798 301.812C-45.8623 302.203 -45.7402 302.582 -45.5268 302.911C-45.3123 303.239 -45.0141 303.503 -44.6637 303.677C-39.9068 306.031 -34.8136 307.632 -29.5659 308.427L132.955 345.507ZM132.955 345.507L132.986 345.502M132.955 345.507L132.986 345.502M132.986 345.502C140.26 344.341 147.842 346.057 155.641 349.874C163.44 353.691 171.433 359.598 179.512 366.783C193.071 378.841 206.825 394.453 220.28 409.725C222.864 412.657 225.436 415.577 227.994 418.456C243.852 436.309 259.168 452.643 273.044 460.74C279.987 464.791 286.621 466.812 292.812 465.881C298.982 464.953 304.628 461.108 309.653 453.621C311.554 453.2 312.897 452.233 313.689 450.766C314.494 449.277 314.704 447.326 314.444 445.027C313.924 440.431 311.505 434.248 307.77 427.039C300.289 412.606 287.434 393.888 273.495 375.185C250.509 344.343 224.513 313.463 214.73 301.843C212.65 299.371 211.303 297.771 210.874 297.227C206.677 291.899 201.233 287.689 195.022 284.966C188.81 282.243 182.023 281.093 175.262 281.618C168.5 282.143 161.972 284.327 156.255 287.975L156.469 288.311M132.986 345.502L156.469 288.311M156.469 288.311L156.255 287.975C150.539 291.624 145.809 296.625 142.485 302.535C142.325 302.82 142.103 303.065 141.835 303.253C141.566 303.441 141.26 303.566 140.938 303.62C140.614 303.672 140.284 303.653 139.973 303.562L139.971 303.561M156.469 288.311L139.971 303.561M139.971 303.561C139.657 303.471 139.367 303.31 139.124 303.092L139.123 303.092M139.971 303.561L139.123 303.092M139.123 303.092C134.931 299.346 129.584 297.145 123.968 296.856C118.354 296.568 112.809 298.209 108.255 301.504L108.254 301.504M139.123 303.092L108.254 301.504M108.254 301.504C108.018 301.676 107.751 301.797 107.468 301.863C107.185 301.93 106.89 301.939 106.604 301.89C106.318 301.841 106.045 301.735 105.798 301.579C105.552 301.422 105.34 301.22 105.175 300.982L104.847 301.209L108.254 301.504ZM20.7394 300.322C23.7992 299.183 27.0574 298.672 30.3183 298.819C33.5805 298.967 36.7794 299.769 39.7235 301.18M20.7394 300.322L42.607 300.144L42.9293 300.381C42.5725 300.866 42.0559 301.212 41.4704 301.358C40.8863 301.504 40.2677 301.441 39.7235 301.18M20.7394 300.322C20.3633 300.462 19.9583 300.513 19.5588 300.472L20.7394 300.322ZM39.7235 301.18L39.8964 300.82C39.8964 300.82 39.8963 300.82 39.8962 300.82L39.7235 301.18ZM-61.0049 289.913C-61.008 289.913 -61.0105 289.913 -61.009 289.913L-61.0049 289.913ZM15.0322 290.569C13.5217 288.343 11.4554 286.55 9.0398 285.369L8.66051 285.183L8.49575 285.572C8.13797 286.416 8.0067 287.338 8.11553 288.248L8.11621 288.253L9.26928 296.942C9.3205 297.33 9.26709 297.723 9.11474 298.083C8.96114 298.443 8.71455 298.755 8.40033 298.989C4.09885 302.101 -0.633156 304.567 -5.64816 306.312C-6.01807 306.436 -6.41603 306.459 -6.79742 306.379L-6.79766 306.379C-7.18063 306.298 -7.5345 306.117 -7.82334 305.852L-9.99033 303.867L-9.99036 303.867L-14.2859 299.932L-14.2859 299.932L-14.2897 299.928C-14.8415 299.436 -15.4885 299.061 -16.192 298.827C-16.8952 298.593 -17.6375 298.505 -18.3759 298.571C-19.1143 298.636 -19.8298 298.851 -20.4817 299.205L15.0322 290.569ZM-28.2675 308.226C-28.5688 308.375 -28.9007 308.452 -29.2364 308.452C-29.3456 308.452 -29.4551 308.443 -29.565 308.427L-28.2675 308.226Z"
        fill="white" stroke="#253CB5" stroke-width="0.8" />
      <path
        d="M427.91 446.465L427.911 446.466C430.452 449.012 432.523 451.988 434.029 455.255L434.146 455.508L433.949 455.705L406.508 483.162L406.428 483.243L406.317 483.269L327.552 501.715L327.268 501.781L327.118 501.531C325.698 499.164 323.994 496.979 322.044 495.027L427.91 446.465ZM427.91 446.465C422.454 441.053 415.174 437.879 407.5 437.566C399.827 437.254 392.316 439.825 386.446 444.775L386.445 444.776M427.91 446.465L386.445 444.776M386.445 444.776C386.237 444.953 385.993 445.078 385.73 445.143L385.729 445.143M386.445 444.776L385.729 445.143M385.729 445.143C385.466 445.208 385.191 445.21 384.927 445.149L384.926 445.149M385.729 445.143L384.926 445.149M384.926 445.149C384.662 445.089 384.415 444.969 384.206 444.796C383.996 444.623 383.83 444.404 383.72 444.155L383.72 444.155M384.926 445.149L383.72 444.155M383.72 444.155C382.337 441.044 380.218 438.314 377.546 436.204M383.72 444.155L377.546 436.204M321.855 442.151C322.879 437.769 323.028 433.229 322.296 428.789L322.216 428.305L322.705 428.324C330.385 428.615 337.675 431.795 343.118 437.227L343.119 437.228C343.905 438.017 344.649 438.848 345.348 439.717C345.512 439.921 345.721 440.086 345.957 440.199C346.194 440.31 346.453 440.368 346.715 440.367C346.976 440.366 347.235 440.306 347.47 440.191C347.704 440.077 347.91 439.91 348.073 439.705C348.073 439.704 348.073 439.704 348.073 439.704L348.387 439.952L321.855 442.151ZM321.855 442.151C320.83 446.531 318.953 450.666 316.327 454.319L316.07 454.676L316.45 454.898C319.684 456.786 322.442 459.389 324.513 462.51L324.843 462.29L324.513 462.51C326.583 465.631 327.911 469.185 328.393 472.899C328.875 476.614 328.499 480.388 327.294 483.932C326.089 487.476 324.088 490.697 321.443 493.344L321.855 442.151ZM377.546 436.204C374.874 434.094 371.73 432.666 368.383 432.043M377.546 436.204L368.383 432.043M368.383 432.043C365.037 431.421 361.591 431.622 358.341 432.63L368.383 432.043ZM321.443 493.344C321.354 493.434 321.263 493.523 321.172 493.611L320.869 493.904L321.178 494.192C321.475 494.468 321.764 494.746 322.044 495.027L321.443 493.344Z"
        fill="white" stroke="#253CB5" stroke-width="0.8" />
      <path
        d="M452.015 393.182C448.769 389.389 446.356 384.954 444.932 380.166C443.506 375.378 443.102 370.344 443.745 365.388L443.745 365.388C444.389 360.434 446.064 355.668 448.663 351.4L448.663 351.4C451.263 347.132 454.728 343.458 458.837 340.615L459.112 340.425L459.348 340.661L517.122 398.469L517.405 398.752L517.122 399.035L450.772 465.424L450.489 465.707L450.206 465.424L437.275 452.485L437.062 452.272L437.207 452.008C438.814 449.1 440.82 446.433 443.169 444.083L443.169 444.082C444.093 443.161 445.064 442.291 446.08 441.474C446.327 441.274 446.526 441.023 446.663 440.736C446.799 440.448 446.869 440.135 446.868 439.818L447.188 439.817L446.868 439.818C446.866 439.5 446.793 439.188 446.653 438.902L446.653 438.902L438.185 426.044L437.803 426.162C436.624 422.361 436.391 418.332 437.117 414.419L437.117 414.419C437.844 410.506 439.512 406.829 441.977 403.704C444.442 400.58 447.628 398.102 451.263 396.485L451.263 396.485C451.564 396.351 451.83 396.148 452.038 395.895L452.038 395.895C452.247 395.642 452.393 395.343 452.467 395.02L452.467 395.02C452.54 394.7 452.538 394.367 452.459 394.048C452.38 393.729 452.228 393.432 452.015 393.182ZM452.015 393.182L452.319 392.922M452.015 393.182C452.015 393.182 452.015 393.182 452.015 393.182L452.319 392.922M452.319 392.922C452.573 393.219 452.754 393.573 452.847 393.952C452.941 394.332 452.944 394.729 452.857 395.109C452.77 395.492 452.596 395.848 452.347 396.15C452.099 396.451 451.783 396.691 451.425 396.85C447.85 398.441 444.715 400.879 442.291 403.952C439.866 407.026 438.225 410.643 437.51 414.492L452.319 392.922Z"
        fill="white" stroke="#253CB5" stroke-width="0.8" />
      <path
        d="M241.741 309.77L210.184 219.478L211.471 218.735L213.674 222.552L214.333 219.19C214.392 218.884 214.518 218.594 214.701 218.341C214.883 218.088 215.118 217.877 215.389 217.723C215.661 217.569 215.962 217.476 216.273 217.45C216.584 217.423 216.897 217.465 217.19 217.571L220.498 218.772L218.226 214.833L219.513 214.089L225.062 220.539L280.706 282.639C276.585 285.162 271.145 288.908 269.575 293.477C268.005 298.048 268.077 303.021 269.778 307.541C267.621 308.13 265.624 309.197 263.937 310.664C262.249 312.131 260.914 313.959 260.031 316.013C255.225 314.886 250.173 315.52 245.793 317.8L241.741 309.77ZM265.655 284.751C265.84 285.011 266.114 285.193 266.426 285.261C266.738 285.329 267.063 285.279 267.34 285.119C267.376 285.099 267.409 285.077 267.444 285.053C267.721 284.856 267.908 284.557 267.965 284.222C268.022 283.885 267.943 283.541 267.746 283.264L254.524 264.655C254.426 264.518 254.303 264.401 254.16 264.312C254.017 264.222 253.858 264.161 253.692 264.133C253.526 264.105 253.356 264.11 253.192 264.148C253.028 264.186 252.873 264.256 252.736 264.353C252.598 264.451 252.482 264.575 252.392 264.717C252.302 264.86 252.242 265.019 252.214 265.185C252.185 265.352 252.19 265.522 252.228 265.685C252.265 265.85 252.335 266.005 252.432 266.143L265.655 284.751ZM245.2 255.964C245.384 256.223 245.66 256.405 245.971 256.473C246.283 256.542 246.609 256.491 246.885 256.332C246.921 256.311 246.955 256.289 246.989 256.266C247.266 256.068 247.454 255.769 247.511 255.433C247.567 255.098 247.489 254.753 247.292 254.476L240.113 244.374C239.917 244.096 239.618 243.909 239.282 243.852C238.946 243.795 238.602 243.874 238.324 244.072C238.048 244.269 237.86 244.568 237.803 244.903C237.746 245.239 237.825 245.584 238.022 245.861L245.2 255.964ZM229.946 240.382C229.862 240.236 229.75 240.108 229.616 240.005C229.483 239.903 229.33 239.828 229.168 239.784C229.004 239.741 228.835 239.73 228.668 239.752C228.501 239.774 228.34 239.828 228.194 239.913C228.048 239.997 227.92 240.11 227.818 240.243C227.715 240.376 227.64 240.529 227.597 240.692C227.553 240.855 227.542 241.025 227.564 241.191C227.585 241.359 227.64 241.519 227.724 241.665L247.825 276.495C247.996 276.787 248.276 277 248.604 277.086C248.931 277.172 249.279 277.125 249.572 276.956C249.865 276.787 250.08 276.508 250.169 276.182C250.258 275.855 250.214 275.506 250.047 275.212L229.946 240.382ZM262.176 301.367C262.346 301.662 262.626 301.877 262.955 301.964C263.283 302.052 263.634 302.006 263.928 301.835C264.074 301.751 264.202 301.64 264.304 301.505C264.407 301.372 264.482 301.219 264.526 301.057C264.57 300.893 264.58 300.724 264.559 300.557C264.536 300.39 264.482 300.229 264.398 300.082L256.892 287.081C256.721 286.786 256.441 286.571 256.113 286.484C255.785 286.396 255.434 286.443 255.14 286.613C254.845 286.783 254.63 287.063 254.542 287.392C254.454 287.721 254.5 288.071 254.67 288.366L262.176 301.367ZM238.516 273.454L228.491 251.536C228.348 251.229 228.09 250.991 227.772 250.874C227.453 250.757 227.102 250.77 226.794 250.911C226.485 251.052 226.246 251.31 226.127 251.627C226.007 251.944 226.019 252.296 226.158 252.605L236.183 274.523C236.324 274.832 236.583 275.073 236.902 275.191C237.221 275.31 237.573 275.296 237.882 275.155C237.92 275.138 237.956 275.119 237.991 275.099C238.267 274.939 238.474 274.682 238.571 274.377C238.668 274.073 238.649 273.744 238.516 273.454ZM251.224 304.324C251.261 304.306 251.298 304.288 251.333 304.267C251.609 304.107 251.816 303.85 251.913 303.547C252.009 303.242 251.99 302.913 251.857 302.623L243.057 283.382C242.916 283.073 242.657 282.832 242.338 282.714C242.019 282.595 241.666 282.608 241.357 282.75C241.047 282.892 240.807 283.151 240.688 283.47C240.57 283.789 240.582 284.142 240.724 284.451L249.524 303.692C249.665 304.001 249.924 304.242 250.243 304.36C250.561 304.479 250.915 304.466 251.224 304.324Z"
        fill="#DDEFFF" />
      <path
        d="M238.326 244.072C238.603 243.877 238.947 243.799 239.282 243.856C239.617 243.912 239.916 244.099 240.114 244.374L247.293 254.477C247.49 254.754 247.569 255.099 247.512 255.434C247.455 255.77 247.267 256.068 246.99 256.266C246.955 256.289 246.922 256.311 246.886 256.332C246.61 256.492 246.284 256.542 245.972 256.474C245.661 256.406 245.385 256.224 245.201 255.964L238.023 245.862C237.826 245.584 237.747 245.24 237.804 244.905C237.861 244.569 238.048 244.27 238.326 244.072Z"
        fill="#253CB5" />
      <path
        d="M252.735 264.353C253.013 264.158 253.357 264.08 253.692 264.136C254.027 264.193 254.327 264.38 254.524 264.655L267.747 283.264C267.944 283.541 268.023 283.886 267.966 284.221C267.909 284.557 267.721 284.856 267.445 285.053C267.41 285.077 267.376 285.099 267.341 285.119C267.064 285.279 266.738 285.329 266.427 285.261C266.115 285.193 265.84 285.011 265.655 284.751L252.433 266.142C252.236 265.865 252.157 265.521 252.214 265.186C252.271 264.849 252.458 264.55 252.735 264.353Z"
        fill="#253CB5" />
      <path
        d="M249.578 276.964C249.432 277.049 249.271 277.103 249.104 277.126C248.937 277.148 248.767 277.137 248.604 277.093C248.442 277.049 248.289 276.974 248.156 276.872C248.022 276.769 247.91 276.641 247.826 276.496L227.725 241.665C227.641 241.52 227.586 241.359 227.564 241.191C227.543 241.025 227.553 240.855 227.598 240.692C227.641 240.529 227.716 240.377 227.819 240.243C227.921 240.11 228.049 239.997 228.195 239.913C228.341 239.829 228.502 239.774 228.669 239.752C228.836 239.73 229.005 239.741 229.169 239.785C229.331 239.828 229.483 239.904 229.617 240.006C229.751 240.108 229.863 240.236 229.947 240.382L250.048 275.212C250.132 275.358 250.187 275.519 250.208 275.686C250.23 275.853 250.219 276.022 250.175 276.185C250.132 276.348 250.057 276.501 249.954 276.634C249.851 276.768 249.724 276.88 249.578 276.964Z"
        fill="#253CB5" />
      <path
        d="M255.142 286.613C254.848 286.783 254.633 287.063 254.545 287.391C254.457 287.72 254.503 288.07 254.673 288.365L262.176 301.368C262.346 301.663 262.626 301.878 262.954 301.966C263.283 302.054 263.633 302.008 263.928 301.838C264.222 301.668 264.437 301.387 264.525 301.058C264.613 300.73 264.568 300.38 264.398 300.085L256.895 287.081C256.725 286.787 256.444 286.572 256.116 286.484C255.787 286.396 255.437 286.442 255.142 286.613Z"
        fill="#253CB5" />
      <path
        d="M237.882 275.156C237.573 275.297 237.22 275.31 236.901 275.192C236.582 275.073 236.323 274.833 236.182 274.524L226.157 252.605C226.018 252.296 226.007 251.945 226.126 251.628C226.245 251.31 226.485 251.053 226.793 250.912C227.102 250.771 227.453 250.757 227.771 250.874C228.089 250.991 228.347 251.23 228.49 251.537L238.515 273.454C238.648 273.745 238.668 274.074 238.57 274.379C238.474 274.682 238.267 274.939 237.991 275.1C237.956 275.12 237.919 275.138 237.882 275.156Z"
        fill="#253CB5" />
      <path
        d="M241.356 282.75C241.665 282.609 242.018 282.596 242.337 282.715C242.655 282.833 242.914 283.074 243.056 283.382L251.856 302.623C251.988 302.913 252.008 303.243 251.911 303.546C251.815 303.851 251.608 304.108 251.332 304.268C251.296 304.289 251.26 304.307 251.223 304.324C250.914 304.466 250.561 304.479 250.242 304.36C249.923 304.242 249.664 304.002 249.523 303.692L240.723 284.452C240.582 284.142 240.57 283.79 240.689 283.471C240.807 283.152 241.047 282.893 241.356 282.75Z"
        fill="#253CB5" />
      <path
        d="M294.863 326.39C294.826 326.323 294.788 326.255 294.749 326.189C293.611 324.217 292.036 322.533 290.144 321.266C288.253 320 286.096 319.185 283.839 318.883C281.582 318.582 279.286 318.803 277.128 319.529C274.969 320.255 273.006 321.467 271.389 323.071C269.055 320.205 265.99 318.024 262.518 316.757C263.361 314.913 264.648 313.307 266.263 312.082C267.878 310.857 269.771 310.051 271.773 309.737C271.97 309.704 272.156 309.627 272.317 309.511C272.479 309.394 272.612 309.242 272.704 309.065C272.797 308.889 272.848 308.694 272.853 308.495C272.857 308.295 272.816 308.098 272.732 307.918C270.806 303.81 270.487 299.129 271.838 294.796C273.189 290.463 276.111 286.792 280.031 284.504C280.422 284.279 280.821 284.074 281.223 283.88L303.994 323.344C300.997 323.598 298.092 324.509 295.487 326.015C295.28 326.135 295.071 326.26 294.863 326.39Z"
        fill="white" />
      <path
        d="M280.029 284.505C276.11 286.792 273.186 290.463 271.835 294.796C270.485 299.129 270.804 303.81 272.73 307.918C272.815 308.098 272.856 308.296 272.851 308.495C272.846 308.694 272.795 308.89 272.702 309.066C272.609 309.242 272.477 309.394 272.316 309.511C272.154 309.627 271.968 309.705 271.771 309.737C269.769 310.051 267.876 310.857 266.26 312.082C264.645 313.307 263.359 314.914 262.517 316.757C261.704 316.458 260.873 316.21 260.029 316.014C260.913 313.96 262.249 312.132 263.936 310.665C265.624 309.198 267.62 308.131 269.777 307.543C268.075 303.022 268.004 298.048 269.574 293.478C271.144 288.908 274.257 285.028 278.378 282.505C278.501 282.431 278.621 282.354 278.746 282.282C279.137 282.056 279.534 281.849 279.934 281.651L281.221 283.881C280.819 284.074 280.42 284.279 280.029 284.505Z"
        fill="#253CB5" />
      <path
        d="M270.244 325.813C270.357 325.977 270.507 326.113 270.682 326.209C270.856 326.305 271.051 326.359 271.251 326.367C271.45 326.374 271.649 326.335 271.83 326.253C272.012 326.17 272.172 326.046 272.298 325.891C273.554 324.336 275.171 323.111 277.006 322.321C278.842 321.53 280.841 321.198 282.834 321.354C284.825 321.509 286.749 322.148 288.439 323.213C290.129 324.279 291.534 325.74 292.532 327.471C292.776 327.896 292.995 328.335 293.187 328.786C293.262 328.963 293.378 329.121 293.523 329.248C293.668 329.374 293.841 329.467 294.027 329.517C294.213 329.568 294.408 329.576 294.597 329.541C294.787 329.506 294.966 329.429 295.122 329.315C295.653 328.925 296.204 328.565 296.774 328.235C299.411 326.712 302.392 325.886 305.437 325.835L327.677 362.918L282.834 388.373L247.081 320.023C250.992 318.027 255.492 317.514 259.749 318.578C264.007 319.643 267.734 322.212 270.244 325.813Z"
        fill="white" />
      <path
        d="M262.52 316.757C265.992 318.023 269.056 320.205 271.39 323.071C273.007 321.466 274.971 320.254 277.129 319.529C279.288 318.803 281.584 318.582 283.84 318.883C286.097 319.184 288.254 319.999 290.146 321.266C292.037 322.532 293.613 324.216 294.751 326.188C294.789 326.255 294.828 326.322 294.865 326.39C295.072 326.26 295.28 326.134 295.488 326.014C298.094 324.509 300.998 323.597 303.995 323.343L305.433 325.836C302.389 325.887 299.408 326.713 296.771 328.236C296.201 328.566 295.65 328.926 295.119 329.315C294.963 329.43 294.784 329.507 294.594 329.542C294.404 329.577 294.209 329.569 294.023 329.518C293.837 329.467 293.665 329.375 293.519 329.248C293.374 329.122 293.259 328.964 293.183 328.787C292.502 327.184 291.487 325.746 290.208 324.565C288.928 323.385 287.412 322.49 285.761 321.941C284.109 321.39 282.359 321.198 280.627 321.375C278.895 321.552 277.219 322.095 275.713 322.969C274.403 323.724 273.244 324.715 272.294 325.892C272.169 326.047 272.01 326.171 271.828 326.253C271.646 326.336 271.447 326.375 271.248 326.368C271.048 326.36 270.854 326.306 270.678 326.21C270.504 326.114 270.354 325.978 270.241 325.814C267.731 322.213 264.004 319.643 259.746 318.579C255.488 317.515 250.989 318.028 247.078 320.024L245.795 317.8C250.175 315.52 255.227 314.886 260.033 316.013C260.877 316.209 261.707 316.458 262.52 316.757Z"
        fill="#253CB5" />
      <path
        d="M320.419 417.356C320.315 417.145 320.255 416.916 320.244 416.69C320.232 416.464 320.27 416.245 320.354 416.052C320.437 415.859 320.565 415.696 320.725 415.577C320.886 415.457 321.075 415.385 321.279 415.365C323.318 415.166 325.209 414.418 326.79 413.186C328.371 411.954 329.593 410.275 330.352 408.293C331.111 406.313 331.383 404.088 331.146 401.814C330.909 399.54 330.168 397.283 328.988 395.239C328.699 394.739 328.383 394.253 328.045 393.785C327.912 393.6 327.816 393.391 327.762 393.173C327.709 392.955 327.7 392.734 327.737 392.526C327.773 392.318 327.854 392.128 327.974 391.972C328.093 391.814 328.247 391.694 328.426 391.62C329.035 391.365 329.626 391.073 330.196 390.745C332.833 389.221 334.969 386.929 336.401 384.085L311.511 339.49L267.094 365.681L315.351 442.926C319.013 440.499 321.544 436.573 322.475 431.873C323.406 427.173 322.676 422.017 320.419 417.356Z"
        fill="white" />
      <path
        d="M325.456 430.411C325.839 426.325 325.174 422.041 323.53 418.014C325.78 417.506 327.816 416.42 329.483 414.842C331.15 413.264 332.402 411.235 333.144 408.911C333.886 406.587 334.097 404.03 333.762 401.437C333.427 398.845 332.554 396.285 331.21 393.955C331.165 393.877 331.118 393.798 331.071 393.719C331.288 393.606 331.501 393.49 331.71 393.369C334.315 391.864 336.497 389.699 338.099 387.028L336.4 384.085C334.968 386.929 332.833 389.221 330.195 390.745C329.625 391.073 329.034 391.365 328.425 391.62C328.247 391.694 328.092 391.814 327.973 391.972C327.853 392.128 327.772 392.318 327.736 392.526C327.699 392.734 327.708 392.955 327.761 393.174C327.815 393.391 327.912 393.601 328.045 393.785C329.247 395.448 330.144 397.321 330.676 399.281C331.208 401.241 331.363 403.242 331.131 405.152C330.9 407.063 330.286 408.839 329.331 410.363C328.376 411.887 327.101 413.125 325.592 413.994C324.283 414.751 322.821 415.217 321.278 415.366C321.075 415.385 320.885 415.457 320.725 415.577C320.564 415.696 320.437 415.859 320.353 416.052C320.27 416.246 320.232 416.464 320.243 416.69C320.254 416.917 320.314 417.145 320.418 417.356C322.676 422.017 323.406 427.174 322.475 431.873C321.543 436.574 319.013 440.499 315.351 442.926L316.866 445.552C321.01 442.863 323.906 438.492 325.027 433.234C325.225 432.311 325.369 431.369 325.456 430.411Z"
        fill="#253CB5" />
      <path
        d="M71.8104 269.729C71.9555 269.531 72.0982 269.328 72.2385 269.13C76.4111 263.213 79.1663 256.418 80.298 249.267C81.4291 242.112 80.9032 234.797 78.7651 227.878C76.6253 220.958 72.9274 214.622 67.9546 209.355C62.9835 204.089 56.8695 200.033 50.0875 197.5C54.4686 188.426 56.721 178.472 56.6727 168.394C56.6258 158.314 54.2794 148.38 49.8128 139.341C43.5154 126.484 33.1245 116.079 20.2778 109.768L15.5064 116.534C22.7801 119.911 29.2663 124.778 34.5424 130.818C39.8202 136.859 43.7714 143.94 46.1411 151.605C48.509 159.269 49.2439 167.344 48.2975 175.308C47.3498 183.272 44.7414 190.945 40.6418 197.837C40.3181 198.383 40.1246 198.996 40.0812 199.631C40.0374 200.262 40.1393 200.898 40.3854 201.485C40.6284 202.071 41.0065 202.591 41.488 203.005C41.9683 203.422 42.5397 203.716 43.1559 203.872C49.3162 205.43 55.0047 208.465 59.7314 212.712C64.4569 216.961 68.0819 222.296 70.287 228.256C72.4951 234.216 73.2181 240.623 72.3983 246.924C71.5767 253.225 69.2342 259.231 65.574 264.421C64.6728 265.695 63.6977 266.912 62.6519 268.071C62.2438 268.525 61.9413 269.067 61.7702 269.656C61.6003 270.244 61.5639 270.865 61.6649 271.469C61.7664 272.075 62.0025 272.649 62.3552 273.148C62.7084 273.65 63.1713 274.065 63.7059 274.362C65.5381 275.377 67.314 276.489 69.026 277.693C73.3823 280.769 77.2852 284.442 80.6205 288.604L85.4834 281.709C82.0155 277.682 78.0669 274.096 73.726 271.029C73.1029 270.589 72.4639 270.156 71.8104 269.729Z"
        fill="#253CB5" />
      <path
        d="M63.7059 274.362C63.1695 274.063 62.7084 273.65 62.3539 273.149C62.0007 272.647 61.7646 272.073 61.6636 271.47C61.5621 270.863 61.599 270.246 61.7702 269.656C61.94 269.068 62.2408 268.525 62.6519 268.07C63.6947 266.912 64.6709 265.694 65.5727 264.423C69.2324 259.229 71.5736 253.225 72.3952 246.924C73.218 240.622 72.492 234.216 70.2869 228.256C68.0801 222.294 64.4569 216.961 59.7283 212.712C55.0016 208.465 49.3132 205.43 43.1546 203.873C42.5385 203.717 41.9664 203.42 41.4867 203.007C41.0052 202.592 40.6284 202.071 40.3836 201.483C40.1393 200.898 40.0343 200.262 40.0794 199.629C40.1245 198.996 40.3163 198.381 40.6399 197.835C44.7401 190.947 47.348 183.271 48.2944 175.308C49.2438 167.344 48.509 159.269 46.1393 151.604C43.7701 143.942 39.8189 136.86 34.5423 130.817C29.2645 124.776 22.7801 119.91 15.5033 116.534L-60.9831 224.989L63.4973 312.88L80.6175 288.604C77.2821 284.442 73.381 280.77 69.0247 277.694C67.3109 276.49 65.5368 275.378 63.7059 274.362Z"
        fill="white" />
    </g>
    <path
      d="M203.442 220.914L224.383 208.816L203.101 171.932C201.082 168.434 198.338 165.409 195.053 163.06C191.768 160.711 188.018 159.093 184.054 158.315C183.188 158.145 182.29 158.295 181.526 158.736C180.761 159.178 180.182 159.882 179.896 160.717C178.589 164.54 178.114 168.599 178.504 172.62C178.894 176.641 180.141 180.531 182.16 184.03L203.442 220.914Z"
      fill="white" />
    <path
      d="M222.356 205.305L239.189 198.769L236.377 193.896C234.284 190.268 231.445 187.126 228.047 184.678C224.649 182.23 220.771 180.531 216.667 179.694L212.742 178.893C210.737 178.484 208.843 177.654 207.183 176.458C205.523 175.262 204.136 173.728 203.113 171.955L222.356 205.304L222.356 205.305Z"
      fill="white" />
    <path
      d="M201.419 217.402L187.345 228.72L184.534 223.848C182.44 220.22 181.141 216.189 180.721 212.02C180.301 207.852 180.769 203.642 182.097 199.667L183.366 195.865C184.014 193.923 184.243 191.867 184.038 189.831C183.833 187.794 183.198 185.825 182.176 184.053L201.418 217.402L201.419 217.402Z"
      fill="white" />
    <path d="M187.348 228.721L201.421 217.403L197.167 210.03L183.383 221.637L187.348 228.721Z" fill="#F79A4D" />
    <path
      d="M188.112 230.053C188.181 230.013 188.246 229.968 188.307 229.919L202.38 218.602C202.667 218.371 202.861 218.046 202.929 217.685C202.997 217.323 202.933 216.95 202.749 216.631L198.496 209.259C198.383 209.064 198.229 208.897 198.045 208.768C197.861 208.639 197.65 208.552 197.429 208.513C197.207 208.474 196.98 208.484 196.762 208.543C196.545 208.601 196.343 208.707 196.171 208.852L182.387 220.459C182.113 220.689 181.928 221.008 181.864 221.361C181.799 221.713 181.859 222.077 182.034 222.389L186 229.472C186.099 229.65 186.233 229.806 186.393 229.932C186.554 230.057 186.738 230.15 186.935 230.204C187.131 230.258 187.336 230.272 187.538 230.246C187.741 230.22 187.936 230.155 188.112 230.053ZM199.423 217.03L187.797 226.379L185.343 221.994L196.747 212.391L199.423 217.03Z"
      fill="#2338A5" />
    <path d="M239.192 198.768L222.359 205.304L218.105 197.932L235.035 191.778L239.192 198.768Z" fill="#F79A4D" />
    <path
      d="M239.96 200.102C240.136 200 240.291 199.864 240.414 199.702C240.538 199.54 240.628 199.354 240.679 199.157C240.731 198.96 240.743 198.754 240.715 198.553C240.686 198.351 240.618 198.156 240.513 197.981L236.357 190.991C236.175 190.683 235.89 190.449 235.552 190.328C235.215 190.208 234.846 190.209 234.509 190.332L217.579 196.486C217.368 196.563 217.176 196.685 217.017 196.844C216.858 197.003 216.735 197.195 216.658 197.406C216.581 197.617 216.551 197.843 216.571 198.067C216.59 198.291 216.659 198.508 216.771 198.703L221.025 206.075C221.209 206.393 221.5 206.635 221.846 206.757C222.193 206.879 222.572 206.873 222.914 206.74L239.747 200.204C239.82 200.175 239.891 200.141 239.96 200.102ZM234.362 193.661L236.937 197.992L223.032 203.392L220.355 198.752L234.362 193.661Z"
      fill="#2338A5" />
    <path
      d="M221.193 210.661C227.208 211.712 229.137 218.233 226.053 222.796C225.329 222.021 224.445 221.413 223.462 221.014C222.479 220.614 221.422 220.433 220.361 220.482C220.361 220.482 221.146 229.331 229.408 232.4C218.738 239.561 204.881 230.556 207.043 218.836L221.193 210.661Z"
      fill="#FC6D26" />
    <path
      d="M204.21 222.247L225.152 210.149C225.327 210.048 225.48 209.913 225.603 209.752C225.726 209.592 225.817 209.409 225.869 209.214C225.922 209.018 225.935 208.814 225.909 208.614C225.882 208.414 225.817 208.221 225.715 208.045L204.433 171.162C202.305 167.473 199.412 164.283 195.948 161.806C192.484 159.33 188.53 157.624 184.351 156.804C183.12 156.566 181.844 156.78 180.759 157.408C179.672 158.035 178.849 159.033 178.439 160.219C177.06 164.251 176.559 168.53 176.971 172.77C177.382 177.009 178.697 181.111 180.825 184.8L202.107 221.683C202.208 221.859 202.343 222.012 202.504 222.135C202.664 222.258 202.847 222.348 203.042 222.4C203.237 222.453 203.441 222.466 203.641 222.44C203.842 222.414 204.035 222.348 204.21 222.247ZM222.28 208.253L204.005 218.81L183.491 183.259C181.583 179.951 180.404 176.272 180.035 172.47C179.666 168.668 180.115 164.83 181.352 161.215C181.519 160.732 181.853 160.327 182.295 160.071C182.737 159.816 183.255 159.729 183.756 159.826C187.504 160.561 191.05 162.091 194.157 164.312C197.263 166.533 199.858 169.394 201.767 172.702L222.28 208.253Z"
      fill="#2338A5" />
    <path
      d="M239.962 200.102C240.315 199.898 240.573 199.561 240.679 199.166C240.785 198.772 240.73 198.352 240.525 197.998L237.714 193.126C235.511 189.31 232.524 186.006 228.95 183.431C225.376 180.855 221.296 179.068 216.979 178.186L213.054 177.385C211.263 177.019 209.57 176.277 208.087 175.208C206.604 174.14 205.364 172.769 204.45 171.185L203.751 169.973C203.65 169.797 203.517 169.642 203.356 169.517C203.196 169.393 203.012 169.302 202.816 169.248C202.62 169.195 202.416 169.182 202.215 169.208C202.013 169.234 201.819 169.3 201.643 169.401C201.467 169.503 201.313 169.638 201.19 169.799C201.066 169.961 200.976 170.145 200.924 170.341C200.872 170.538 200.86 170.742 200.887 170.944C200.915 171.145 200.982 171.339 201.084 171.514L201.784 172.726C202.915 174.686 204.451 176.384 206.287 177.707C208.123 179.03 210.219 179.949 212.437 180.402L216.362 181.203C220.252 181.998 223.928 183.609 227.149 185.929C230.37 188.25 233.062 191.228 235.048 194.666L236.961 197.983L221.803 203.869C221.613 203.942 221.441 204.051 221.293 204.191C221.146 204.33 221.028 204.498 220.945 204.683C220.863 204.869 220.818 205.068 220.814 205.271C220.808 205.474 220.843 205.676 220.917 205.865C220.99 206.054 221.1 206.227 221.24 206.373C221.381 206.52 221.549 206.637 221.735 206.719C221.921 206.8 222.12 206.843 222.323 206.847C222.526 206.851 222.727 206.815 222.916 206.74L239.749 200.204C239.822 200.175 239.893 200.141 239.962 200.102Z"
      fill="#2338A5" />
    <path
      d="M188.114 230.053C188.182 230.014 188.247 229.969 188.309 229.92L202.382 218.602C202.7 218.346 202.904 217.974 202.948 217.568C202.991 217.162 202.873 216.755 202.617 216.437C202.362 216.119 201.99 215.915 201.584 215.871C201.178 215.828 200.771 215.947 200.453 216.202L187.78 226.394L185.866 223.077C183.883 219.638 182.652 215.816 182.253 211.865C181.855 207.913 182.299 203.922 183.556 200.154L184.825 196.352C185.542 194.204 185.795 191.928 185.568 189.675C185.341 187.422 184.638 185.244 183.508 183.283L182.808 182.071C182.604 181.717 182.268 181.459 181.874 181.354C181.48 181.248 181.06 181.303 180.706 181.508C180.352 181.712 180.094 182.048 179.988 182.443C179.882 182.837 179.938 183.258 180.142 183.611L180.841 184.823C181.754 186.407 182.321 188.167 182.505 189.986C182.688 191.805 182.484 193.643 181.905 195.378L180.636 199.18C179.241 203.361 178.748 207.791 179.19 212.175C179.632 216.56 180.999 220.801 183.2 224.618L186.011 229.49C186.215 229.843 186.551 230.101 186.945 230.207C187.34 230.312 187.76 230.257 188.114 230.053Z"
      fill="#2338A5" />
    <path
      d="M229.143 234.072C229.472 233.882 229.797 233.679 230.117 233.465C230.313 233.333 230.469 233.15 230.568 232.936C230.667 232.721 230.704 232.484 230.677 232.249C230.649 232.014 230.557 231.793 230.411 231.607C230.265 231.421 230.071 231.279 229.85 231.197C224.378 229.163 222.52 224.365 221.913 221.89C223.124 222.112 224.23 222.72 225.066 223.622C225.194 223.774 225.355 223.894 225.537 223.973C225.719 224.052 225.917 224.088 226.115 224.078C226.313 224.067 226.506 224.011 226.679 223.913C226.852 223.815 227 223.679 227.111 223.514C227.998 222.214 228.549 220.713 228.716 219.148C228.883 217.582 228.66 215.999 228.066 214.542C227.486 213.189 226.569 212.007 225.404 211.107C224.24 210.206 222.865 209.618 221.409 209.397C221.075 209.338 220.729 209.415 220.451 209.611C220.313 209.708 220.196 209.831 220.105 209.973C220.015 210.115 219.954 210.274 219.925 210.44C219.895 210.606 219.899 210.776 219.936 210.94C219.972 211.105 220.042 211.26 220.138 211.398C220.235 211.536 220.358 211.653 220.5 211.744C220.642 211.834 220.8 211.896 220.966 211.925C222.001 212.069 222.981 212.478 223.811 213.112C224.642 213.747 225.293 214.585 225.705 215.546C226.387 217.215 226.382 219.088 225.691 220.754C224.109 219.668 222.219 219.123 220.302 219.201C220.128 219.208 219.959 219.25 219.802 219.325C219.646 219.4 219.506 219.506 219.392 219.637C219.278 219.767 219.191 219.919 219.138 220.085C219.084 220.249 219.064 220.423 219.079 220.596C219.11 220.952 219.869 228.59 226.607 232.499C224.557 233.415 222.309 233.797 220.072 233.611C217.835 233.425 215.682 232.675 213.812 231.432C211.762 230.16 210.142 228.301 209.159 226.097C208.176 223.893 207.877 221.444 208.3 219.067C208.359 218.733 208.284 218.39 208.091 218.111C207.898 217.833 207.603 217.642 207.27 217.581C206.936 217.519 206.593 217.592 206.313 217.784C206.033 217.975 205.84 218.269 205.777 218.603C205.257 221.476 205.611 224.439 206.792 227.109C207.973 229.778 209.928 232.032 212.403 233.578C214.864 235.227 217.74 236.147 220.701 236.235C223.662 236.322 226.588 235.573 229.143 234.072Z"
      fill="#2338A5" />
    <path
      d="M186.799 176.501C187.067 176.345 187.283 176.112 187.417 175.833C187.552 175.553 187.598 175.24 187.551 174.933C187.456 174.318 187.549 173.689 187.818 173.127C188.087 172.566 188.519 172.099 189.058 171.788C189.597 171.476 190.217 171.335 190.837 171.383C191.458 171.431 192.049 171.665 192.534 172.055C192.852 172.31 193.259 172.428 193.665 172.383C194.071 172.338 194.442 172.134 194.697 171.815C194.953 171.497 195.071 171.089 195.026 170.684C194.982 170.278 194.778 169.906 194.459 169.651C193.491 168.874 192.31 168.407 191.072 168.312C189.834 168.218 188.595 168.5 187.519 169.121C186.444 169.743 185.581 170.675 185.043 171.795C184.506 172.915 184.32 174.172 184.508 175.4C184.546 175.647 184.644 175.882 184.793 176.083C184.942 176.284 185.138 176.446 185.363 176.554C185.589 176.663 185.838 176.714 186.087 176.705C186.338 176.696 186.582 176.625 186.799 176.501L186.799 176.501Z"
      fill="#2338A5" />
    <path
      d="M211.164 209.963C211.339 209.862 211.493 209.727 211.616 209.567C211.738 209.406 211.829 209.223 211.882 209.028C211.934 208.832 211.947 208.629 211.921 208.428C211.895 208.228 211.829 208.035 211.728 207.859L203.386 193.403C203.182 193.049 202.846 192.791 202.452 192.685C202.057 192.58 201.637 192.635 201.284 192.84C200.93 193.044 200.672 193.38 200.567 193.775C200.46 194.169 200.516 194.589 200.72 194.943L209.062 209.4C209.163 209.575 209.297 209.728 209.457 209.852C209.617 209.975 209.8 210.065 209.996 210.117C210.191 210.17 210.395 210.183 210.596 210.156C210.796 210.13 210.989 210.064 211.164 209.963Z"
      fill="#2338A5" />
  </g>
  <defs>
    <filter id="filter0_d" x="15" y="15" width="484" height="484" filterUnits="userSpaceOnUse"
      color-interpolation-filters="sRGB">
      <feFlood flood-opacity="0" result="BackgroundImageFix" />
      <feColorMatrix in="SourceAlpha" type="matrix" values="0 0 0 0 0 0 0 0 0 0 0 0 0 0 0 0 0 0 127 0"
        result="hardAlpha" />
      <feOffset dx="1" dy="1" />
      <feGaussianBlur stdDeviation="1" />
      <feColorMatrix type="matrix" values="0 0 0 0 0 0 0 0 0 0 0 0 0 0 0 0 0 0 0.5 0" />
      <feBlend mode="normal" in2="BackgroundImageFix" result="effect1_dropShadow" />
      <feBlend mode="normal" in="SourceGraphic" in2="effect1_dropShadow" result="shape" />
    </filter>
    <linearGradient id="paint0_linear" x1="56.6377" y1="44" x2="472.288" y2="400.599" gradientUnits="userSpaceOnUse">
      <stop stop-color="#F0F2F4" />
      <stop offset="0.399602" stop-color="#D9D9D9" />
      <stop offset="0.478404" stop-color="#F4F4F4" />
      <stop offset="0.522127" stop-color="white" />
      <stop offset="0.948319" stop-color="#CCCCCC" />
    </linearGradient>
  </defs>
</svg>
