<svg width="24" height="24" viewBox="0 0 24 24" fill="none" xmlns="http://www.w3.org/2000/svg">
<rect width="24" height="24" fill="white" fill-opacity="0.01"/>
<path fill-rule="evenodd" clip-rule="evenodd" d="M12 15C11.2044 15 10.4413 14.6839 9.87868 14.1213C9.31607 13.5587 9 12.7956 9 12C9 11.2044 9.31607 10.4413 9.87868 9.87868C10.4413 9.31607 11.2044 9 12 9C12.7956 9 13.5587 9.31607 14.1213 9.87868C14.6839 10.4413 15 11.2044 15 12C15 12.7956 14.6839 13.5587 14.1213 14.1213C13.5587 14.6839 12.7956 15 12 15ZM13 3H19C20.136 3 21 4 21 5V11L19 9V5H15L13 3ZM3 11V5C3 3.864 4 3 5 3H11L9 5H5V9L3 11ZM11 21H5C3.864 21 3 20 3 19V13L5 15V19H9L11 21ZM21 13V19C21 20.136 20 21 19 21H13L15 19H19V15L21 13Z" fill="#42526E"/>
</svg>
