<svg width="24" height="24" viewBox="0 0 24 24" fill="none" xmlns="http://www.w3.org/2000/svg">
<rect width="24" height="24" fill="white" fill-opacity="0.01"/>
<path d="M10.935 6V10.738L6.99702 19H17.002L13.064 10.738V6H10.935ZM18.808 18.14C18.9532 18.4449 19.0189 18.7816 18.9988 19.1187C18.9788 19.4558 18.8737 19.7823 18.6934 20.0679C18.5131 20.3534 18.2635 20.5886 17.9677 20.7516C17.6719 20.9146 17.3397 21.0001 17.002 21H6.99702C6.65941 20.9999 6.32732 20.9143 6.0317 20.7512C5.73607 20.5882 5.48654 20.3529 5.30635 20.0674C5.12616 19.7819 5.02118 19.4554 5.00119 19.1184C4.9812 18.7814 5.04685 18.4448 5.19202 18.14L8.93502 10.286V4H15.065V10.286L18.808 18.14Z" fill="#42526E"/>
<path fill-rule="evenodd" clip-rule="evenodd" d="M9.00002 13H15L18 20H6.00002L9.00002 13Z" fill="#42526E"/>
<path d="M15 3H9.00002C8.44774 3 8.00002 3.44772 8.00002 4C8.00002 4.55228 8.44774 5 9.00002 5H15C15.5523 5 16 4.55228 16 4C16 3.44772 15.5523 3 15 3Z" fill="#42526E"/>
</svg>
