<svg width="428" height="360" fill="none" xmlns="http://www.w3.org/2000/svg"><g clip-path="url(#prefix__clip0)"><path d="M214 360c117.861 0 213.407-43.346 213.407-96.817S331.861 166.365 214 166.365C96.138 166.365.593 209.712.593 263.183S96.138 360 214 360z" fill="#F5F5F5"/><path d="M406.089 248.202l-118.967 56.305a4.164 4.164 0 01-1.599.315 4.156 4.156 0 01-1.599-.315l-171.521-81.104a.986.986 0 01-.519-.277.694.694 0 01-.202-.479c0-.174.071-.343.202-.48a.986.986 0 01.519-.277l118.966-56.304a4.146 4.146 0 011.599-.316c.556 0 1.104.108 1.599.316l171.522 81.103c.205.042.388.14.518.277a.694.694 0 01.202.48.694.694 0 01-.202.479.987.987 0 01-.518.277z" fill="#E6E6E6"/><path d="M341.751 315.378c19.501 0 35.31-7.479 35.31-16.704 0-9.226-15.809-16.705-35.31-16.705-19.5 0-35.309 7.479-35.309 16.705 0 9.225 15.809 16.704 35.309 16.704z" fill="#E6E6E6"/><path d="M289.719 203.915v86.563c-.02.303-.127.598-.312.86a2.157 2.157 0 01-.754.653l-2.264 1.068c-.33.138-.696.21-1.066.21-.371 0-.736-.072-1.066-.21l-2.265-1.068a2.162 2.162 0 01-.753-.653 1.683 1.683 0 01-.313-.86v-86.563c0-.553.476-.78 1.066-.499l2.265 1.069c.33.138.695.21 1.066.21.37 0 .736-.072 1.066-.21l2.264-1.069c.591-.281 1.066-.054 1.066.499z" fill="#37474F"/><path d="M284.257 293.02l-2.265-1.068a2.162 2.162 0 01-.753-.653 1.683 1.683 0 01-.313-.86v-86.524c0-.553.476-.78 1.066-.499l2.265 1.069c.306.163.562.383.747.641a1.7 1.7 0 01.319.848v86.562c0 .539-.477.78-1.066.484z" fill="#455A64"/><path d="M386.331 158.185v86.516a1.663 1.663 0 01-.311.862 2.127 2.127 0 01-.756.65L383 247.305a2.837 2.837 0 01-1.066.205c-.37 0-.735-.07-1.066-.205l-2.266-1.076a2.168 2.168 0 01-.753-.652 1.69 1.69 0 01-.313-.861v-86.531c0-.554.485-.78 1.066-.507l2.266 1.076a2.77 2.77 0 001.066.211c.37 0 .736-.073 1.066-.211l2.264-1.076c.59-.273 1.067-.055 1.067.507z" fill="#37474F"/><path d="M380.868 247.306l-2.266-1.077a2.168 2.168 0 01-.753-.652 1.69 1.69 0 01-.313-.861v-86.531c0-.553.485-.78 1.066-.507l2.266 1.077c.31.165.569.388.754.651.185.263.291.558.312.861v86.516c0 .523-.477.78-1.066.523z" fill="#455A64"/><path d="M159.608 142.393v86.562a1.69 1.69 0 01-.313.861 2.165 2.165 0 01-.752.652l-2.266 1.069c-.33.138-.695.21-1.066.21-.37 0-.736-.072-1.066-.21l-2.264-1.069a2.154 2.154 0 01-.754-.652 1.688 1.688 0 01-.312-.861v-86.562c0-.554.475-.78 1.066-.499l2.293 1.068c.33.139.696.211 1.066.211.371 0 .736-.072 1.065-.211l2.266-1.068c.562-.281 1.037-.055 1.037.499z" fill="#37474F"/><path d="M154.175 231.498l-2.266-1.068a2.17 2.17 0 01-.753-.653 1.677 1.677 0 01-.313-.86v-86.563c0-.553.476-.78 1.066-.499l2.266 1.107c.309.166.568.39.753.653.185.263.291.557.313.86v86.516c-.029.561-.505.788-1.066.507z" fill="#455A64"/><path d="M407.335 164.338v-.632a3.048 3.048 0 00-.55-1.562 3.896 3.896 0 00-1.354-1.191L235.072 80.419a5.087 5.087 0 00-1.942-.38c-.675 0-1.34.13-1.941.38l-104.806 49.598a3.895 3.895 0 00-1.352 1.19 3.047 3.047 0 00-.551 1.563v.678c.031.549.22 1.085.551 1.563.33.478.794.886 1.352 1.19l170.361 80.527a5.155 5.155 0 001.941.374c.674 0 1.338-.128 1.942-.374l104.804-49.637a3.893 3.893 0 001.354-1.19c.33-.479.519-1.014.55-1.563z" fill="#5BBD81"/><path opacity=".6" d="M407.335 164.338v-.632a3.048 3.048 0 00-.55-1.562 3.896 3.896 0 00-1.354-1.191L235.072 80.419a5.087 5.087 0 00-1.942-.38c-.675 0-1.34.13-1.941.38l-104.806 49.598a3.895 3.895 0 00-1.352 1.19 3.047 3.047 0 00-.551 1.563v.678c.031.549.22 1.085.551 1.563.33.478.794.886 1.352 1.19l170.361 80.527a5.155 5.155 0 001.941.374c.674 0 1.338-.128 1.942-.374l104.804-49.637a3.893 3.893 0 001.354-1.19c.33-.479.519-1.014.55-1.563z" fill="#000"/><path d="M298.667 212.774v4.305a4.789 4.789 0 001.903-.382l104.862-49.598a3.923 3.923 0 001.351-1.191c.33-.479.52-1.013.552-1.562v-.64a3.058 3.058 0 00-.462-1.407 3.806 3.806 0 00-1.117-1.135c.695.491.58 1.17-.362 1.63l-104.805 49.598a4.652 4.652 0 01-1.922.382z" fill="#5BBD81"/><path opacity=".5" d="M298.667 212.774v4.305a4.789 4.789 0 001.903-.382l104.862-49.598a3.923 3.923 0 001.351-1.191c.33-.479.52-1.013.552-1.562v-.64a3.058 3.058 0 00-.462-1.407 3.806 3.806 0 00-1.117-1.135c.695.491.58 1.17-.362 1.63l-104.805 49.598a4.652 4.652 0 01-1.922.382z" fill="#000"/><path d="M405.431 162.786l-104.823 49.606c-.603.25-1.268.38-1.942.38-.675 0-1.34-.13-1.941-.38l-170.37-80.503a1.188 1.188 0 01-.582-.353.853.853 0 01-.222-.564c0-.202.078-.399.222-.564.144-.164.347-.287.582-.352l104.804-49.637a5.083 5.083 0 011.942-.38c.675 0 1.34.13 1.942.38l170.388 80.534c.235.065.437.188.582.353a.848.848 0 01.222.564.852.852 0 01-.222.564 1.198 1.198 0 01-.582.352z" fill="#5BBD81"/><path opacity=".4" d="M405.431 162.786l-104.823 49.606c-.603.25-1.268.38-1.942.38-.675 0-1.34-.13-1.941-.38l-170.37-80.503a1.188 1.188 0 01-.582-.353.853.853 0 01-.222-.564c0-.202.078-.399.222-.564.144-.164.347-.287.582-.352l104.804-49.637a5.083 5.083 0 011.942-.38c.675 0 1.34.13 1.942.38l170.388 80.534c.235.065.437.188.582.353a.848.848 0 01.222.564.852.852 0 01-.222.564 1.198 1.198 0 01-.582.352z" fill="#000"/><path opacity=".15" d="M285.789 161.71l-24.83 11.775c-.433.179-.91.273-1.394.273a3.65 3.65 0 01-1.394-.273l-73.36-34.656a.856.856 0 01-.421-.252.61.61 0 01-.16-.407c0-.146.055-.288.16-.406a.857.857 0 01.421-.253l24.83-11.783a3.675 3.675 0 011.389-.269c.483 0 .959.092 1.39.269l73.369 34.664c.17.046.317.134.421.252.104.119.16.261.16.407a.613.613 0 01-.16.406.85.85 0 01-.421.253z" fill="#000"/><path d="M186.314 135.421a.71.71 0 01.179-.394.95.95 0 01.402-.261l23.327-11.035c.43-.18.906-.275 1.389-.275.484 0 .96.095 1.39.275l71.19 33.728c.16.057.299.149.399.266.1.117.16.255.172.397v2.004a.704.704 0 01-.174.393.955.955 0 01-.397.263l-23.317 11.034c-.432.181-.91.275-1.395.275-.484 0-.962-.094-1.394-.275l-71.19-33.689a.94.94 0 01-.402-.261.707.707 0 01-.179-.394v-2.051z" fill="#263238"/><path d="M260.874 169.765l23.317-10.988a.858.858 0 00.421-.252.615.615 0 00.16-.407.613.613 0 00-.16-.406.867.867 0 00-.421-.253l-71.19-33.728a3.612 3.612 0 00-1.39-.275c-.483 0-.959.095-1.389.275l-23.327 11.035a.85.85 0 00-.421.253.613.613 0 00-.16.406c0 .146.056.288.16.407a.856.856 0 00.421.252l71.19 33.674c.432.18.908.274 1.393.276.484.001.962-.091 1.396-.269z" fill="#37474F"/><path d="M259.57 170.03v2.051c.454.001.902-.09 1.303-.265l23.308-11.027a.947.947 0 00.405-.264.696.696 0 00.175-.399v-2.011a.696.696 0 01-.175.398.947.947 0 01-.405.264l-23.308 10.988a3.363 3.363 0 01-1.303.265z" fill="#263238"/><path d="M190.635 135.569l2.304-1.091 3.131 1.481-2.322 1.131-3.132-1.482.019-.039zm3.617-1.707l2.313-1.092 2.464 1.162-2.322 1.076-2.455-1.162v.016zm.762 3.782l2.312-1.092 2.455 1.162-2.321 1.131-2.456-1.162.01-.039zm2.855-5.459l2.312-1.092 3.969 1.887-2.323 1.123-3.968-1.879.01-.039zm.085 3.462l2.304-1.099 1.96.928-2.312 1.092-1.952-.944v.023zm.761 3.775l2.304-1.092 2.465 1.162-2.332 1.131-2.456-1.162.019-.039zm2.437-2.262l2.303-1.091 1.903.928-2.321 1.13-1.904-.928.019-.039zm.323-6.691l2.313-1.092 3.132 1.482-2.304 1.076-3.131-1.481-.01.015zm.952 10.707l2.304-1.091 17.778 8.406-2.323 1.131-17.778-8.407.019-.039zm.667-6.527l2.303-1.092 1.903.928-2.322 1.123-1.951-.92.067-.039zm1.266 4.024l2.302-1.092 1.952.928-2.323 1.131-1.951-.928.02-.039zm.733-9.904l2.302-1.092 1.961.928-2.323 1.123-1.931-.959h-.009zm.761 3.782l2.302-1.091 1.961.92-2.303 1.068-1.96-.92v.023zm.428 3.619l2.303-1.092 1.951.928-2.322 1.123-1.951-.92.019-.039zm1.266 4.024l2.302-1.092 1.904.928-2.322 1.131-1.903-.928.019-.039zm.742-9.912l2.304-1.092 1.96.928-2.323 1.123-1.903-.92-.038-.039zm.761 3.782l2.304-1.091 1.96.92-2.322 1.131-1.951-.921.009-.039zm.428 3.619l2.304-1.092 1.903.928-2.322 1.123-1.904-.92.019-.039zm0-10.988l2.304-1.092 2.465 1.162-2.332 1.131-2.456-1.162.019-.039zm1.267 15.012l2.303-1.092 1.95.928-2.321 1.131-1.951-.928.019-.039zm.742-9.912l2.303-1.092 1.96.928-2.302 1.037-1.952-.92-.009.047zm.761 3.782l2.303-1.092 1.961.921-2.322 1.13-1.961-.982.019.023zm.429 3.619l2.302-1.092 1.952.928-2.323 1.123-1.951-.92.02-.039zm1.265 4.024l2.304-1.092 1.903.928-2.322 1.131-1.904-.928.019-.039zm.628-14.115l2.314-1.092 1.95.92-2.322 1.131-1.951-.92.009-.039zm.114 4.203l2.304-1.092 1.961.928-2.313 1.084-1.904-.92h-.048zm.763 3.782l2.302-1.092 1.961.921-2.323 1.13-1.951-.92.011-.039zm.428 3.619l2.302-1.092 1.904.928-2.322 1.123-1.903-.92.019-.039zm1.265 4.024l2.322-1.147 1.904.928-2.322 1.131-1.952-.928.048.016zm.628-14.116l2.304-1.091 1.961.92-2.323 1.131-1.904-.921-.038-.039zm.115 4.204l2.302-1.092 1.961.928-2.303 1.061-1.903-.921-.057.024zm.761 3.782l2.303-1.092 1.961.92-2.323 1.131-1.95-.92.009-.039zm.428 3.618l2.313-1.091 1.951.928-2.322 1.123-1.951-.921.009-.039zm1.266 4.024l2.303-1.099 1.951.928-2.322 1.131-1.951-.928.019-.032zm.628-14.115l2.313-1.091 1.951.92-2.322 1.131-1.952-.921.01-.039zm.115 4.204l2.311-1.092 1.952.928-2.332 1.123-1.903-.92-.028-.039zm.352 13.85l2.312-1.092 2.456 1.162-2.322 1.131-2.456-1.162.01-.039zm.409-10.068l2.303-1.092 1.96.92-2.321 1.131-1.952-.92.01-.039zm.428 3.618l2.313-1.091 1.922.865-2.322 1.123-1.951-.92.038.023zm1.266 4.024l2.304-1.091 1.959.928-2.332 1.13-1.95-.928.019-.039zm.628-14.115l2.312-1.092 1.933.897-2.323 1.131-1.95-.92.028-.016zm.114 4.204l2.313-1.092 1.951.928-2.322 1.123-1.951-.92.009-.039zm.761 3.782l2.313-1.092 1.903.92-2.321 1.131-1.904-.92.009-.039zm.095 10.301l2.313-1.091 2.456 1.162-2.322 1.13-2.456-1.162.009-.039zm.333-6.683l2.304-1.092 1.904.928-2.218 1.061-1.903-.92-.087.023zm1.266 4.024l2.304-1.092 1.96.928-2.331 1.131-1.951-.928.018-.039zm.743-9.912l2.313-1.091 1.903.928-2.322 1.123-1.913-.983.019.023zm.761 3.783l2.313-1.092 1.951.92-2.322 1.131-1.952-.92.01-.039zm.429 3.618l2.302-1.092 1.952.928-2.323 1.123-1.931-1.013v.054zm.095-10.918l2.313-1.091 1.95.928-2.321 1.13-1.942-1.021v.054zm.076 17.867l2.313-1.092 2.455 1.162-2.341 1.045-2.456-1.162.029.047zm1.094-2.901l2.304-1.1 1.961.928-2.332 1.131-1.905-.928-.028-.031zm.742-9.912l2.304-1.092 1.961.928-2.323 1.123-1.951-.92.009-.039zm.763 3.782l2.311-1.092 1.952.92-2.323 1.131-1.95-.92.01-.039zm.428 3.618l2.303-1.091 1.96.928-2.332 1.123-1.931-.991v.031zm.094-10.917l2.313-1.092 1.951.928-2.322 1.131-1.904-.928-.038-.039zm.591 18.108l2.313-1.1 3.131 1.482-2.322 1.13-3.132-1.481.01-.031zm.581-3.12l2.302-1.099 6.168 2.916-2.323 1.131-6.109-3.049-.038.101zm.742-9.912l2.312-1.091 1.951.928-2.322 1.123-1.951-.921.01-.039zm.761 3.783l2.313-1.092 1.932.78-2.323 1.13-1.95-.92.028.102zm.428 3.618l2.304-1.092 1.959.928-2.349.991-1.904-.92-.01.093zm.095-10.918l2.313-1.091 1.952.928-2.323 1.13-1.952-.928.01-.039zm1.904 5.054l2.313-1.092 1.95.928-2.321 1.123-1.951-.92.009-.039zm.523 13.928l2.303-1.092 1.961.92-2.332 1.131-1.902-.92-.03-.039zm.238-10.138l2.313-1.092 1.903.92-2.207.967-1.904-.92-.105.125zm.428 3.618l2.304-1.092 1.789.843c.174.072.367.107.562.101.204.006.405-.029.589-.101l3.036-1.435 2.285 1.084-5.929 2.838-4.655-2.199.019-.039zm.096-10.918l2.312-1.091 1.952.928-2.304.928-1.95-.928-.01.163zm1.903 5.054l2.304-1.092 1.959.928-2.321 1.123-1.904-.92-.038-.039zm.524 13.928l2.303-1.092 1.961.92-2.333 1.131-1.902-.92-.029-.039zm.237-10.138l2.313-1.092 1.952.92-2.323 1.131-1.951-.92.009-.039zm1.904-6.668l2.303-1.092 1.961.921-2.332 1.13-1.951-.92.019-.039zm.523 4.398l2.304-1.091 1.961.928-2.323 1.123-1.951-.921.009-.039zm.524 13.928l2.312-1.091 1.952.92-2.332 1.131-1.903-.921-.029-.039zm.419-3.22l2.303-1.092 1.96.928-2.331 1.131-1.904-1.108-.028.141zm1.732-13.593l2.303-1.092 1.951.92-2.322 1.131-1.951-.92.019-.039zm.524 4.398l2.312-1.091 3.464 1.637-2.322 1.131-3.464-1.638.01-.039zm1.199 14.248l2.303-1.092 5.159 2.433-2.332 1.131-5.149-2.433.019-.039zm.571-9.99l2.312-1.091 1.951.928-2.322 1.123-1.951-.921.01-.039zm.903-7.143l2.304-1.092 1.952.92-2.314.936-1.904-.92-.038.156zm2.142 15.425l2.313-1.092 1.951.928-2.322 1.131-1.952-.928.01-.039zm.153-6.769l2.313-1.092 1.903.928-2.323 1.123-1.903-.92.01-.039zm.418-3.221l2.313-1.091 1.903.92-2.321 1.131-1.904-.921.009-.039zm.485-3.899l2.304-1.092 1.904.921-2.323 1.13-1.904-.92.019-.039zm1.723 18.646l2.303-1.092 1.961.921-2.332 1.13-1.903-.92-.029-.039zm.419-3.22l2.312-1.092 1.904.928-2.322 1.131-1.903-.928.009-.039zm.152-6.77l2.313-1.091 1.95.928-2.321 1.123-1.951-.921.009-.039zm.267 3.541l2.313-1.092 1.903.928-2.323 1.123-1.903-.92.01-.039zm.152-6.761l2.313-1.092 1.951.92-2.322 1.131-1.952-.92.01-.039zm1.19-3.588l2.302-1.091 1.961.92-2.275.928-1.95-.92-.038.163zm1.018 18.311l5.92-2.807 1.95.928-5.929 2.838-1.96-.92.019-.039zm.419-3.221l2.313-1.091 1.95.928-2.293.904-1.904-.928-.066.187zm.418-3.228l2.313-1.092 1.951.928-2.322 1.123-1.913-1.146-.029.187zm.153-6.761l2.312-1.092 1.952.92-2.323 1.131-1.951-.92.01-.039zm.256 3.54l2.314-1.092 1.951.921-2.323 1.13-1.951-.92.009-.039zm.952-7.128l2.304-1.091 1.96.92-2.322 1.131-1.951-.921.009-.039zm1.856 11.862l2.313-1.092 1.951.928-2.322 1.131-1.933-1.108-.009.141zm.41-3.221l2.312-1.092 1.952.92-2.295.913-1.95-.92-.019.179zm.419-3.221l2.302-1.092 1.961.921-2.332 1.13-1.903-.92-.028-.039zm.513-3.899l2.304-1.092 1.961.92-2.323 1.131-1.951-.92.009-.039zm1.857 11.861l5.929-2.799 1.95.92-5.939 2.846-1.95-.928.01-.039zm.409-3.22l2.312-1.092 1.951.92-2.322 1.131-1.951-.92.01-.039zm.418-3.221l2.304-1.092 1.96.92-2.341.905-1.904-.92-.019.187zm2.122-4.032l.952-.476 1.961.928-1.009.507-1.904-.92v-.039zm1.076 5.545l2.303-1.092 1.961.92-2.332 1.131-1.904-.92-.028-.039zm2.122-4.032l.952-.476 1.961.928-1.009.507-1.904-.92v-.039zm1.075 5.545l2.304-1.092 1.961.92-2.332 1.131-1.903-.92-.03-.039zm2.124-4.032l.951-.476 1.961.928-1.009.507-1.903-.92v-.039zm3.188 1.513l.952-.476 1.96.928-1.009.507-1.903-.92v-.039z" fill="#5BBD81"/><path opacity=".15" d="M343.169 163.995l21.843-10.333-109.221-51.673-21.842 10.333 109.22 51.673z" fill="#000"/><path d="M281.316 147.174l-15.59-7.393c-1.607-.78-2.417-1.755-2.417-2.753v-1.778l14.676-6.824a3.145 3.145 0 001.097-.952c.269-.383.425-.813.454-1.255v-15.752l27.239 12.898v15.753a2.454 2.454 0 01-.455 1.255 3.157 3.157 0 01-1.097.952l-12.258 5.849a15.255 15.255 0 01-5.824 1.14c-2.024 0-4.02-.391-5.825-1.14z" fill="#E6E6E6"/><path d="M300.237 141.91v1.77l4.986-2.34a3.13 3.13 0 001.099-.951c.269-.383.425-.813.453-1.256v-15.752l-5.187-2.457c-.105 1.084-.229 2.199-.333 3.283l3.635 1.732v12.305a2.42 2.42 0 01-.449 1.258 3.126 3.126 0 01-1.102.949l-3.102 1.459z" fill="#E0E0E0"/><path d="M304.89 138.229a2.43 2.43 0 01-.453 1.256 3.139 3.139 0 01-1.098.951l-10.374 4.96a15.255 15.255 0 01-5.824 1.14c-2.024 0-4.02-.391-5.825-1.14l-15.599-7.393c-3.217-1.513-3.217-3.985 0-5.506l10.383-4.96a3.134 3.134 0 001.097-.947c.27-.382.426-.811.455-1.252v-12.314l27.238 12.899v12.306z" fill="#F5F5F5"/><path d="M272.941 129.035l3.159-1.498a3.134 3.134 0 001.097-.947c.27-.382.426-.811.455-1.252v-12.314l27.239 12.899v12.306a2.449 2.449 0 01-.453 1.256c-.27.383-.646.709-1.099.951l-3.102 1.474-27.296-12.875zM263.309 135.25v1.778c0 .998.81 1.989 2.408 2.753l15.599 7.385a13.859 13.859 0 005.558 1.131v-1.771a13.841 13.841 0 01-5.558-1.13l-15.599-7.393c-1.598-.757-2.408-1.755-2.408-2.753z" fill="#EBEBEB"/><path d="M348.633 155.229a4.926 4.926 0 01-1.888.341 4.902 4.902 0 01-1.872-.395l-105.347-49.801a3.89 3.89 0 01-1.353-1.19 3.053 3.053 0 01-.551-1.563v-75.59a2.566 2.566 0 01.45-1.56c.32-.476.795-.871 1.37-1.143a4.285 4.285 0 011.893-.4c.664.01 1.313.17 1.873.46l105.338 49.84c.56.303 1.023.711 1.353 1.19.331.478.519 1.013.551 1.562v75.551a2.955 2.955 0 01-.514 1.528c-.316.469-.763.87-1.303 1.17z" fill="#455A64"/><path d="M344.872 155.167l-105.347-49.793a3.899 3.899 0 01-1.353-1.19 3.042 3.042 0 01-.55-1.563V27.024c0-1.014.865-1.42 1.903-.913l105.347 49.832c.557.306 1.02.714 1.35 1.192a3.07 3.07 0 01.554 1.561v75.559c.038 1.029-.838 1.419-1.904.912z" fill="#37474F"/><path d="M345.158 155.487a4.312 4.312 0 001.83.33 4.201 4.201 0 001.787-.462 3.28 3.28 0 001.266-1.131 2.54 2.54 0 00.409-1.498v-8.5l-3.636 1.7v8.5c0 .952-.714 1.365-1.656 1.061z" fill="#E0E0E0"/><path d="M346.814 145.926v8.5c0 1.014-.876 1.427-1.904.92L239.525 105.53a3.899 3.899 0 01-1.353-1.19 3.042 3.042 0 01-.55-1.563v-8.5l109.192 51.649z" fill="#fff"/><path d="M343.169 139.484V79.686a1.843 1.843 0 00-.341-.94 2.384 2.384 0 00-.819-.713L242.39 30.915c-.638-.304-1.16-.063-1.16.546v59.798c.02.331.136.654.337.941.202.287.484.531.823.712l99.619 47.126c.608.304 1.16.055 1.16-.554z" fill="#5BBD81"/><path opacity=".5" d="M343.169 139.484V79.686a1.843 1.843 0 00-.341-.94 2.384 2.384 0 00-.819-.713L242.39 30.915c-.638-.304-1.16-.063-1.16.546v59.798c.02.331.136.654.337.941.202.287.484.531.823.712l99.619 47.126c.608.304 1.16.055 1.16-.554z" fill="#fff"/><path d="M292.176 123.365c.527.284.967.665 1.284 1.113.315.449.498.952.533 1.468 0 .952-.818 1.342-1.817.866a3.695 3.695 0 01-1.291-1.116 2.88 2.88 0 01-.537-1.473c.029-.913.876-1.334 1.828-.858z" fill="#455A64"/><path d="M346.244 77.128c.34.475.536 1.01.571 1.56v67.238l3.635-1.724V76.98a2.86 2.86 0 00-.571-1.56l-3.635 1.708z" fill="#263238"/><path d="M381.639 144.799c0 .93-1.819 1.308-2.816.839L257.457 87.252a3.66 3.66 0 01-1.287-1.1 2.821 2.821 0 01-.531-1.457L255 16l126.639 59.95V144.8z" fill="#37474F" fill-opacity=".5"/><path d="M254.811 11.606c0-.96.837-1.35 1.855-.866l122.945 58.138c.542.287.992.676 1.315 1.135.322.458.509.972.542 1.5v5.007L254.811 16.605v-4.999z" fill="#5BBD81"/><path opacity=".15" d="M383.846 75.35v-4.944a2.721 2.721 0 00-.561-1.56l-2.37 1.115c.349.454.543.977.561 1.513v5.046l2.37-1.17z" fill="#000"/><path d="M377.279 69.923c.334.217.603.495.785.812.181.316.271.663.262 1.013 0 .725-.466 1.1-1.047.826a2.415 2.415 0 01-.784-.812 1.944 1.944 0 01-.263-1.013c0-.725.467-1.1 1.047-.826zM373.501 68.137c.334.216.603.492.784.807.182.316.272.661.262 1.01 0 .733-.466 1.1-1.046.826a2.392 2.392 0 01-.784-.807 1.913 1.913 0 01-.263-1.01c0-.733.467-1.1 1.047-.826zM369.722 66.383c.334.217.603.495.785.812.181.316.271.663.262 1.012 0 .726-.466 1.1-1.047.827a2.414 2.414 0 01-.782-.812 1.926 1.926 0 01-.265-1.013c0-.772.467-1.138 1.047-.826z" fill="#455A64"/><path opacity=".9" d="M380.8 145.684l.095-.047 1.961-.928c.257-.124.478-.294.643-.498.164-.204.27-.437.309-.679a1.6 1.6 0 000-.219v-67.97l-2.379 1.146v68.275a.866.866 0 01-.152.495 1.13 1.13 0 01-.429.371h-.057l.009.054z" fill="#263238"/><path d="M292.471 42.55l25.915 12.236c.189.096.35.227.465.383.116.156.184.332.201.514 0 .327-.295.452-.666.273L292.471 43.72a1.316 1.316 0 01-.459-.384 1.028 1.028 0 01-.198-.513c0-.327.295-.444.657-.273z" fill="#5BBD81"/><path d="M302.378 65.977l9.783 4.632c.189.096.345.228.46.384.114.156.182.331.197.513 0 .32-.295.444-.657.273l-9.783-4.617a1.294 1.294 0 01-.467-.382 1.008 1.008 0 01-.199-.515c-.019-.335.295-.46.666-.288zM302.378 70.663l9.783 4.625c.188.099.345.232.459.389.114.157.182.333.198.515 0 .32-.295.445-.657.273l-9.783-4.624a1.309 1.309 0 01-.465-.383 1.009 1.009 0 01-.201-.514c-.019-.335.295-.452.666-.28z" fill="#E6E6E6"/><path d="M320.947 55.995l51.897 24.487c.188.098.345.231.459.389.113.157.181.333.198.515 0 .32-.296.445-.657.273l-51.897-24.487a1.323 1.323 0 01-.459-.389 1.03 1.03 0 01-.198-.515c0-.32.295-.445.657-.273zM302.587 98.831l15.799 7.494c.191.095.351.226.467.382a1 1 0 01.199.515c0 .32-.295.445-.666.273l-15.799-7.494a1.303 1.303 0 01-.459-.384 1.01 1.01 0 01-.197-.513c0-.32.294-.445.656-.273zM320.947 107.534l51.897 24.518c.187.098.345.229.459.385.113.156.181.331.198.512 0 .328-.296.445-.657.273l-51.897-24.518a1.315 1.315 0 01-.459-.384 1.022 1.022 0 01-.198-.513c0-.327.295-.444.657-.273zM292.471 47.245L305.5 53.39c.187.097.345.229.458.384.114.156.182.332.198.513 0 .327-.295.452-.656.273l-13.029-6.114a1.304 1.304 0 01-.46-.384 1.018 1.018 0 01-.197-.513c0-.351.295-.476.657-.304z" fill="#5BBD81"/><path opacity=".6" d="M292.471 47.245L305.5 53.39c.187.097.345.229.458.384.114.156.182.332.198.513 0 .327-.295.452-.656.273l-13.029-6.114a1.304 1.304 0 01-.46-.384 1.018 1.018 0 01-.197-.513c0-.351.295-.476.657-.304z" fill="#fff"/><path d="M292.471 51.923l6.109 2.886c.188.097.345.229.459.384.114.156.182.332.198.513 0 .32-.295.444-.657.273l-6.109-2.855a1.316 1.316 0 01-.459-.384 1.028 1.028 0 01-.198-.512c0-.36.295-.476.657-.305z" fill="#5BBD81"/><path opacity=".6" d="M292.471 51.923l6.109 2.886c.188.097.345.229.459.384.114.156.182.332.198.513 0 .32-.295.444-.657.273l-6.109-2.855a1.316 1.316 0 01-.459-.384 1.028 1.028 0 01-.198-.512c0-.36.295-.476.657-.305z" fill="#fff"/><path d="M292.471 61.29l6.109 2.885c.188.099.345.232.459.389.114.157.182.333.198.516 0 .32-.295.444-.657.273l-6.109-2.886a1.323 1.323 0 01-.459-.389 1.04 1.04 0 01-.198-.516c0-.32.295-.444.657-.272z" fill="#5BBD81"/><path opacity=".6" d="M292.471 61.29l6.109 2.885c.188.099.345.232.459.389.114.157.182.333.198.516 0 .32-.295.444-.657.273l-6.109-2.886a1.323 1.323 0 01-.459-.389 1.04 1.04 0 01-.198-.516c0-.32.295-.444.657-.272z" fill="#fff"/><path d="M292.471 65.977l6.109 2.885c.188.097.345.229.459.384.114.156.182.332.198.513 0 .327-.295.452-.657.273l-6.109-2.886a1.305 1.305 0 01-.46-.384 1.019 1.019 0 01-.197-.513c0-.32.295-.444.657-.272z" fill="#5BBD81"/><path opacity=".6" d="M292.471 65.977l6.109 2.885c.188.097.345.229.459.384.114.156.182.332.198.513 0 .327-.295.452-.657.273l-6.109-2.886a1.305 1.305 0 01-.46-.384 1.019 1.019 0 01-.197-.513c0-.32.295-.444.657-.272z" fill="#fff"/><path d="M308.089 54.599l7.822 3.72c.19.095.35.226.465.382.116.156.185.332.202.514 0 .328-.295.445-.667.273l-7.822-3.712a1.32 1.32 0 01-.466-.387 1.028 1.028 0 01-.2-.517c-.019-.32.294-.445.666-.273z" fill="#5BBD81"/><path opacity=".6" d="M308.089 54.599l7.822 3.72c.19.095.35.226.465.382.116.156.185.332.202.514 0 .328-.295.445-.667.273l-7.822-3.712a1.32 1.32 0 01-.466-.387 1.028 1.028 0 01-.2-.517c-.019-.32.294-.445.666-.273z" fill="#fff"/><path d="M320.194 88.475l52.65 24.838c.188.096.346.228.46.384.114.156.181.331.197.513 0 .319-.296.444-.657.273l-52.65-24.839a1.31 1.31 0 01-.465-.382 1.028 1.028 0 01-.202-.514c0-.328.296-.445.667-.273zM365.012 104.906l7.832 3.712c.187.097.345.229.459.384.113.156.182.332.198.513 0 .327-.296.444-.657.273l-7.832-3.712a1.306 1.306 0 01-.459-.385 1.019 1.019 0 01-.198-.512c0-.328.295-.452.657-.273zM309.801 78.86l52.65 24.838c.187.098.345.231.459.388.113.157.181.334.198.516 0 .32-.296.445-.657.273l-52.65-24.845a1.326 1.326 0 01-.459-.389 1.041 1.041 0 01-.198-.516c0-.32.295-.445.657-.265z" fill="#fff"/><path d="M302.378 56.61l13.049 6.146c.189.095.349.225.465.382a.993.993 0 01.2.515c0 .32-.294.444-.665.273l-13.049-6.122a1.31 1.31 0 01-.465-.383 1.008 1.008 0 01-.201-.514c-.019-.35.295-.476.666-.296z" fill="#5BBD81"/><path opacity=".6" d="M302.378 56.61l13.049 6.146c.189.095.349.225.465.382a.993.993 0 01.2.515c0 .32-.294.444-.665.273l-13.049-6.122a1.31 1.31 0 01-.465-.383 1.008 1.008 0 01-.201-.514c-.019-.35.295-.476.666-.296z" fill="#fff"/><path d="M317.986 63.964l54.468 25.813c.187.099.345.232.458.389.114.157.182.334.198.516 0 .32-.295.444-.656.273l-54.468-25.82a1.301 1.301 0 01-.457-.385 1.022 1.022 0 01-.2-.513c0-.327.296-.444.657-.273z" fill="#5BBD81"/><path opacity=".6" d="M317.986 63.964l54.468 25.813c.187.099.345.232.458.389.114.157.182.334.198.516 0 .32-.295.444-.656.273l-54.468-25.82a1.301 1.301 0 01-.457-.385 1.022 1.022 0 01-.2-.513c0-.327.296-.444.657-.273z" fill="#fff"/><path d="M302.378 84.817l70.428 33.292c.187.097.345.228.459.384.113.156.181.331.198.513 0 .327-.296.452-.657.28l-70.428-33.3a1.312 1.312 0 01-.473-.376 1.014 1.014 0 01-.212-.512c0-.335.314-.452.685-.28z" fill="#E6E6E6"/><path d="M292.471 80.13l6.109 2.886c.188.097.345.229.459.385.114.155.182.33.198.512 0 .328-.295.445-.657.273l-6.109-2.885a1.304 1.304 0 01-.46-.384 1.018 1.018 0 01-.197-.513c0-.32.295-.445.657-.273z" fill="#5BBD81"/><path opacity=".6" d="M292.471 80.13l6.109 2.886c.188.097.345.229.459.385.114.155.182.33.198.512 0 .328-.295.445-.657.273l-6.109-2.885a1.304 1.304 0 01-.46-.384 1.018 1.018 0 01-.197-.513c0-.32.295-.445.657-.273z" fill="#fff"/><path d="M302.378 89.496l70.428 33.3c.187.097.345.229.459.384.113.156.181.332.198.513 0 .327-.296.444-.657.273l-70.428-33.3a1.309 1.309 0 01-.476-.376 1.013 1.013 0 01-.209-.513c0-.327.314-.452.685-.28z" fill="#E6E6E6"/><path d="M292.471 84.817l6.109 2.886c.189.096.345.228.46.384.114.156.182.331.197.513 0 .32-.295.444-.657.273l-6.109-2.886a1.317 1.317 0 01-.459-.384 1.028 1.028 0 01-.198-.513c0-.327.295-.444.657-.273z" fill="#5BBD81"/><path opacity=".6" d="M292.471 84.817l6.109 2.886c.189.096.345.228.46.384.114.156.182.331.197.513 0 .32-.295.444-.657.273l-6.109-2.886a1.317 1.317 0 01-.459-.384 1.028 1.028 0 01-.198-.513c0-.327.295-.444.657-.273z" fill="#fff"/><path d="M302.378 94.183l70.428 33.3c.188.096.346.228.46.384.114.155.181.331.197.512 0 .32-.296.445-.657.273l-70.428-33.299a1.324 1.324 0 01-.476-.38 1.024 1.024 0 01-.209-.517c0-.327.314-.444.685-.273z" fill="#E6E6E6"/><path d="M292.471 89.497l6.109 2.885c.188.097.345.229.459.384.114.156.182.332.198.513 0 .327-.295.452-.657.28l-6.109-2.893a1.304 1.304 0 01-.46-.384 1.019 1.019 0 01-.197-.513c0-.32.295-.444.657-.272z" fill="#5BBD81"/><path opacity=".6" d="M292.471 89.497l6.109 2.885c.188.097.345.229.459.384.114.156.182.332.198.513 0 .327-.295.452-.657.28l-6.109-2.893a1.304 1.304 0 01-.46-.384 1.019 1.019 0 01-.197-.513c0-.32.295-.444.657-.272z" fill="#fff"/><g opacity=".6" fill="#fff"><path opacity=".6" d="M282.953 37.848l3.588 1.7c.189.102.347.239.46.4.111.161.176.342.187.528v1.084c0 .335-.286.475-.647.304l-3.588-1.7a1.31 1.31 0 01-.464-.395c-.115-.16-.18-.34-.193-.525V38.16c0-.343.295-.476.657-.312zM282.953 42.58l3.588 1.7c.188.102.345.238.457.398.113.16.177.339.19.523v1.084c0 .343-.286.476-.647.312l-3.588-1.7a1.326 1.326 0 01-.464-.4 1.03 1.03 0 01-.193-.528v-1.084c0-.335.295-.476.657-.304zM282.953 47.307l3.588 1.7c.189.102.347.239.46.4.111.161.176.342.187.528v1.084c0 .335-.286.475-.647.304l-3.588-1.7c-.19-.1-.347-.237-.462-.396a1.036 1.036 0 01-.195-.524v-1.084c0-.343.295-.476.657-.312zM282.953 52.04l3.588 1.7c.188.102.345.238.457.398.113.16.177.339.19.523v1.084c0 .343-.286.476-.647.312l-3.588-1.7a1.326 1.326 0 01-.464-.4 1.03 1.03 0 01-.193-.528v-1.084c0-.336.295-.476.657-.304zM282.953 56.767l3.588 1.7c.189.101.347.239.46.4.111.161.176.342.187.528v1.076c0 .343-.286.483-.647.312l-3.588-1.7c-.19-.101-.347-.237-.462-.397a1.036 1.036 0 01-.195-.524v-1.084c0-.343.295-.483.657-.312zM282.953 61.5l3.588 1.7c.189.1.347.236.458.396.113.16.178.34.189.524v1.084c0 .344-.286.476-.647.312l-3.588-1.7a1.325 1.325 0 01-.464-.4 1.03 1.03 0 01-.193-.528v-1.084c0-.335.295-.476.657-.304zM282.953 66.226l3.588 1.7c.189.102.347.24.46.4.111.162.176.343.187.528v1.076c0 .343-.286.484-.647.312l-3.588-1.7c-.19-.1-.347-.236-.462-.396a1.036 1.036 0 01-.195-.524v-1.084c0-.343.295-.484.657-.312zM282.953 70.96l3.588 1.7c.189.1.347.236.458.396.113.16.178.34.189.524v1.084c0 .343-.286.476-.647.304l-3.588-1.692a1.326 1.326 0 01-.464-.4 1.03 1.03 0 01-.193-.528v-1.084c0-.335.295-.476.657-.304zM282.953 75.685l3.588 1.7c.189.102.347.24.46.4.111.162.176.343.187.529v1.076c0 .343-.286.483-.647.312l-3.588-1.7a1.326 1.326 0 01-.464-.4 1.03 1.03 0 01-.193-.529v-1.076c0-.343.295-.483.657-.312zM282.953 80.419l3.588 1.7c.189.1.347.235.46.395.112.16.176.34.187.525v1.084c0 .343-.286.476-.647.304l-3.588-1.669a1.326 1.326 0 01-.464-.4 1.03 1.03 0 01-.193-.528v-1.084c0-.327.295-.499.657-.327zM282.953 85.145l3.588 1.7c.189.102.347.24.46.4.111.162.176.343.187.528v1.076c0 .343-.286.484-.647.312l-3.588-1.723a1.326 1.326 0 01-.464-.4 1.03 1.03 0 01-.193-.528v-1.077c0-.335.295-.46.657-.288zM282.953 89.879l3.588 1.692c.189.102.347.239.46.4.111.161.176.342.187.528v1.084c0 .343-.286.475-.647.304l-3.588-1.692a1.326 1.326 0 01-.464-.4 1.03 1.03 0 01-.193-.528v-1.084c0-.336.295-.476.657-.305z"/></g><path d="M259.131 22.485l19.415 9.186c.381.202.697.474.925.796.226.32.357.682.379 1.053v18.373c0 .678-.581.959-1.304.616l-19.415-9.187a2.62 2.62 0 01-.924-.795 2.04 2.04 0 01-.38-1.053V23.109c0-.687.581-.96 1.304-.624z" fill="#37474F"/><path d="M260.929 40.694l1.789.85c.189.097.347.229.463.385.115.155.185.33.204.512 0 .328-.305.445-.667.273l-1.789-.85a1.297 1.297 0 01-.458-.384 1.002 1.002 0 01-.198-.513c0-.32.295-.444.656-.273z" fill="#5BBD81"/><path opacity=".6" d="M260.929 40.694l1.789.85c.189.097.347.229.463.385.115.155.185.33.204.512 0 .328-.305.445-.667.273l-1.789-.85a1.297 1.297 0 01-.458-.384 1.002 1.002 0 01-.198-.513c0-.32.295-.444.656-.273z" fill="#fff"/><path d="M260.929 25.65l1.789.85c.189.098.347.23.463.385.115.156.185.331.204.513 0 .327-.305.444-.667.273l-1.789-.843a1.338 1.338 0 01-.458-.388 1.03 1.03 0 01-.198-.516c0-.32.295-.445.656-.273z" fill="#5BBD81"/><path opacity=".6" d="M260.929 25.65l1.789.85c.189.098.347.23.463.385.115.156.185.331.204.513 0 .327-.305.444-.667.273l-1.789-.843a1.338 1.338 0 01-.458-.388 1.03 1.03 0 01-.198-.516c0-.32.295-.445.656-.273z" fill="#fff"/><path d="M263.442 29.846l1.789.843c.187.097.345.228.459.384.113.156.182.331.198.512 0 .328-.296.453-.657.273l-1.789-.842a1.305 1.305 0 01-.458-.384 1.01 1.01 0 01-.199-.513c0-.327.295-.444.657-.273z" fill="#5BBD81"/><path opacity=".6" d="M263.442 29.846l1.789.843c.187.097.345.228.459.384.113.156.182.331.198.512 0 .328-.296.453-.657.273l-1.789-.842a1.305 1.305 0 01-.458-.384 1.01 1.01 0 01-.199-.513c0-.327.295-.444.657-.273z" fill="#fff"/><path d="M263.442 32.85l1.789.85c.187.096.345.228.459.384.113.156.182.331.198.512 0 .328-.296.445-.657.273l-1.789-.842a1.305 1.305 0 01-.458-.384 1.012 1.012 0 01-.199-.513c0-.335.295-.46.657-.28z" fill="#5BBD81"/><path opacity=".6" d="M263.442 32.85l1.789.85c.187.096.345.228.459.384.113.156.182.331.198.512 0 .328-.296.445-.657.273l-1.789-.842a1.305 1.305 0 01-.458-.384 1.012 1.012 0 01-.199-.513c0-.335.295-.46.657-.28z" fill="#fff"/><path d="M260.929 34.673l1.789.85c.189.097.347.229.463.385.115.155.185.33.204.512 0 .328-.305.445-.667.273l-1.789-.842a1.313 1.313 0 01-.458-.388 1.014 1.014 0 01-.198-.517c0-.32.295-.444.656-.273z" fill="#5BBD81"/><path opacity=".6" d="M260.929 34.673l1.789.85c.189.097.347.229.463.385.115.155.185.33.204.512 0 .328-.305.445-.667.273l-1.789-.842a1.313 1.313 0 01-.458-.388 1.014 1.014 0 01-.198-.517c0-.32.295-.444.656-.273z" fill="#fff"/><path d="M263.442 38.87l1.789.85c.188.096.346.227.46.383.114.156.181.332.197.513 0 .32-.296.444-.657.273l-1.789-.85a1.3 1.3 0 01-.459-.384 1.02 1.02 0 01-.198-.513c0-.32.295-.444.657-.273z" fill="#5BBD81"/><path opacity=".6" d="M263.442 38.87l1.789.85c.188.096.346.227.46.383.114.156.181.332.197.513 0 .32-.296.444-.657.273l-1.789-.85a1.3 1.3 0 01-.459-.384 1.02 1.02 0 01-.198-.513c0-.32.295-.444.657-.273z" fill="#fff"/><path d="M265.831 27.967l10.907 5.17c.191.095.351.226.467.382.115.156.184.333.199.515 0 .32-.295.444-.666.273l-10.907-5.163a1.308 1.308 0 01-.467-.386 1.03 1.03 0 01-.2-.518c0-.32.296-.445.667-.273z" fill="#5BBD81"/><path opacity=".8" d="M265.831 27.967l10.907 5.17c.191.095.351.226.467.382.115.156.184.333.199.515 0 .32-.295.444-.666.273l-10.907-5.163a1.308 1.308 0 01-.467-.386 1.03 1.03 0 01-.2-.518c0-.32.296-.445.667-.273z" fill="#fff"/><path d="M265.831 42.987l10.907 5.17c.191.095.351.226.467.382.115.156.184.333.199.515 0 .32-.295.444-.666.273l-10.907-5.163a1.325 1.325 0 01-.465-.387 1.04 1.04 0 01-.202-.517c0-.273.296-.421.667-.273z" fill="#5BBD81"/><path opacity=".8" d="M265.831 42.987l10.907 5.17c.191.095.351.226.467.382.115.156.184.333.199.515 0 .32-.295.444-.666.273l-10.907-5.163a1.325 1.325 0 01-.465-.387 1.04 1.04 0 01-.202-.517c0-.273.296-.421.667-.273z" fill="#fff"/><path d="M268.382 32.163l8.394 3.977c.191.096.351.229.467.386.116.157.184.335.199.518 0 .32-.295.445-.666.273l-8.394-3.985a1.317 1.317 0 01-.465-.382 1.009 1.009 0 01-.201-.514c-.038-.328.257-.445.666-.273z" fill="#5BBD81"/><path opacity=".8" d="M268.382 32.163l8.394 3.977c.191.096.351.229.467.386.116.157.184.335.199.518 0 .32-.295.445-.666.273l-8.394-3.985a1.317 1.317 0 01-.465-.382 1.009 1.009 0 01-.201-.514c-.038-.328.257-.445.666-.273z" fill="#fff"/><path d="M268.382 35.188l8.394 3.985c.19.096.349.227.465.383.116.156.185.332.201.514 0 .328-.295.445-.666.273l-8.394-4a1.317 1.317 0 01-.465-.383 1.009 1.009 0 01-.201-.514c-.038-.328.257-.453.666-.258z" fill="#5BBD81"/><path opacity=".8" d="M268.382 35.188l8.394 3.985c.19.096.349.227.465.383.116.156.185.332.201.514 0 .328-.295.445-.666.273l-8.394-4a1.317 1.317 0 01-.465-.383 1.009 1.009 0 01-.201-.514c-.038-.328.257-.453.666-.258z" fill="#fff"/><path d="M265.831 36.997l10.907 5.163c.19.095.349.227.465.383.116.155.185.332.201.514 0 .327-.295.444-.666.273l-10.907-5.163a1.31 1.31 0 01-.465-.383 1.028 1.028 0 01-.202-.514c0-.327.296-.444.667-.273z" fill="#5BBD81"/><path opacity=".8" d="M265.831 36.997l10.907 5.163c.19.095.349.227.465.383.116.155.185.332.201.514 0 .327-.295.444-.666.273l-10.907-5.163a1.31 1.31 0 01-.465-.383 1.028 1.028 0 01-.202-.514c0-.327.296-.444.667-.273z" fill="#fff"/><path d="M268.382 41.185l8.394 3.985c.191.095.351.226.467.382a1 1 0 01.199.515c0 .32-.295.444-.666.273l-8.394-3.985a1.294 1.294 0 01-.467-.382 1 1 0 01-.199-.515c-.038-.32.257-.444.666-.273z" fill="#5BBD81"/><path opacity=".8" d="M268.382 41.185l8.394 3.985c.191.095.351.226.467.382a1 1 0 01.199.515c0 .32-.295.444-.666.273l-8.394-3.985a1.294 1.294 0 01-.467-.382 1 1 0 01-.199-.515c-.038-.32.257-.444.666-.273z" fill="#fff"/><path d="M259.131 46.785l19.415 9.179c.38.2.696.471.923.791.226.32.356.68.381 1.049v36.294c0 .686-.581.959-1.304.616l-19.415-9.187a2.62 2.62 0 01-.924-.795 2.041 2.041 0 01-.38-1.053V47.401c0-.686.581-.96 1.304-.616z" fill="#37474F"/><path d="M260.929 49.943l1.789.842c.189.097.347.229.463.384.115.156.185.331.204.513 0 .327-.305.444-.667.273l-1.789-.842a1.323 1.323 0 01-.458-.385 1.02 1.02 0 01-.198-.512c0-.32.295-.445.656-.273z" fill="#5BBD81"/><path opacity=".6" d="M260.929 49.943l1.789.842c.189.097.347.229.463.384.115.156.185.331.204.513 0 .327-.305.444-.667.273l-1.789-.842a1.323 1.323 0 01-.458-.385 1.02 1.02 0 01-.198-.512c0-.32.295-.445.656-.273z" fill="#fff"/><path d="M263.442 54.138l1.789.843c.188.098.346.23.46.388.114.157.181.334.197.516 0 .32-.296.445-.657.273l-1.789-.85a1.305 1.305 0 01-.458-.384 1.01 1.01 0 01-.199-.513c0-.327.295-.444.657-.273z" fill="#5BBD81"/><path opacity=".6" d="M263.442 54.138l1.789.843c.188.098.346.23.46.388.114.157.181.334.197.516 0 .32-.296.445-.657.273l-1.789-.85a1.305 1.305 0 01-.458-.384 1.01 1.01 0 01-.199-.513c0-.327.295-.444.657-.273z" fill="#fff"/><path d="M263.442 57.14l1.789.843c.187.097.345.229.459.384.113.156.182.332.198.513 0 .327-.296.444-.657.273l-1.789-.843a1.305 1.305 0 01-.458-.384 1.012 1.012 0 01-.199-.512c0-.328.295-.453.657-.273z" fill="#5BBD81"/><path opacity=".6" d="M263.442 57.14l1.789.843c.187.097.345.229.459.384.113.156.182.332.198.513 0 .327-.296.444-.657.273l-1.789-.843a1.305 1.305 0 01-.458-.384 1.012 1.012 0 01-.199-.512c0-.328.295-.453.657-.273z" fill="#fff"/><path d="M260.929 58.973l1.789.843c.189.097.347.228.463.384.115.155.185.33.204.512 0 .328-.305.445-.667.273l-1.789-.842a1.323 1.323 0 01-.458-.384 1.018 1.018 0 01-.198-.513c0-.327.295-.452.656-.273z" fill="#5BBD81"/><path opacity=".6" d="M260.929 58.973l1.789.843c.189.097.347.228.463.384.115.155.185.33.204.512 0 .328-.305.445-.667.273l-1.789-.842a1.323 1.323 0 01-.458-.384 1.018 1.018 0 01-.198-.513c0-.327.295-.452.656-.273z" fill="#fff"/><path d="M265.831 52.267l10.907 5.162c.191.095.351.226.467.382.115.156.184.333.199.515 0 .32-.295.445-.666.273l-10.907-5.162a1.31 1.31 0 01-.465-.383 1.028 1.028 0 01-.202-.514c0-.328.296-.453.667-.273z" fill="#5BBD81"/><path opacity=".8" d="M265.831 52.267l10.907 5.162c.191.095.351.226.467.382.115.156.184.333.199.515 0 .32-.295.445-.666.273l-10.907-5.162a1.31 1.31 0 01-.465-.383 1.028 1.028 0 01-.202-.514c0-.328.296-.453.667-.273z" fill="#fff"/><path d="M268.382 56.455l8.394 3.985c.191.094.351.225.467.381a1 1 0 01.199.515c0 .32-.295.445-.666.273l-8.394-3.985a1.319 1.319 0 01-.465-.382 1.008 1.008 0 01-.201-.514c-.038-.328.257-.445.666-.273z" fill="#5BBD81"/><path opacity=".8" d="M268.382 56.455l8.394 3.985c.191.094.351.225.467.381a1 1 0 01.199.515c0 .32-.295.445-.666.273l-8.394-3.985a1.319 1.319 0 01-.465-.382 1.008 1.008 0 01-.201-.514c-.038-.328.257-.445.666-.273z" fill="#fff"/><path d="M268.382 59.465l8.394 3.977c.19.096.349.227.465.383.116.156.185.332.201.514 0 .328-.295.452-.666.28l-8.394-3.984a1.32 1.32 0 01-.465-.383 1.009 1.009 0 01-.201-.514c-.038-.328.257-.452.666-.273z" fill="#5BBD81"/><path opacity=".8" d="M268.382 59.465l8.394 3.977c.19.096.349.227.465.383.116.156.185.332.201.514 0 .328-.295.452-.666.28l-8.394-3.984a1.32 1.32 0 01-.465-.383 1.009 1.009 0 01-.201-.514c-.038-.328.257-.452.666-.273z" fill="#fff"/><path d="M265.831 61.29l10.907 5.162c.19.096.349.227.465.383.116.156.185.332.201.514 0 .328-.295.445-.666.273l-10.907-5.139a1.309 1.309 0 01-.465-.383 1.028 1.028 0 01-.202-.514c0-.35.296-.468.667-.296z" fill="#5BBD81"/><path opacity=".8" d="M265.831 61.29l10.907 5.162c.19.096.349.227.465.383.116.156.185.332.201.514 0 .328-.295.445-.666.273l-10.907-5.139a1.309 1.309 0 01-.465-.383 1.028 1.028 0 01-.202-.514c0-.35.296-.468.667-.296z" fill="#fff"/><path d="M263.442 63.177l1.789.85c.187.097.345.228.459.384.113.156.182.331.198.512 0 .328-.296.445-.657.273l-1.789-.842a1.305 1.305 0 01-.458-.384 1.011 1.011 0 01-.199-.513c0-.327.295-.452.657-.28z" fill="#5BBD81"/><path opacity=".6" d="M263.442 63.177l1.789.85c.187.097.345.228.459.384.113.156.182.331.198.512 0 .328-.296.445-.657.273l-1.789-.842a1.305 1.305 0 01-.458-.384 1.011 1.011 0 01-.199-.513c0-.327.295-.452.657-.28z" fill="#fff"/><path d="M263.442 66.18l1.789.85c.187.097.345.228.459.384.113.156.182.331.198.513 0 .32-.296.444-.657.272l-1.789-.85a1.3 1.3 0 01-.459-.383 1.02 1.02 0 01-.198-.513c0-.32.295-.445.657-.273z" fill="#5BBD81"/><path opacity=".6" d="M263.442 66.18l1.789.85c.187.097.345.228.459.384.113.156.182.331.198.513 0 .32-.296.444-.657.272l-1.789-.85a1.3 1.3 0 01-.459-.383 1.02 1.02 0 01-.198-.513c0-.32.295-.445.657-.273z" fill="#fff"/><path d="M268.382 65.493l8.394 3.985c.19.096.349.227.465.383.116.156.185.332.201.514 0 .327-.295.452-.666.273l-8.394-3.977a1.319 1.319 0 01-.465-.383 1.009 1.009 0 01-.201-.514c-.038-.328.257-.453.666-.281z" fill="#5BBD81"/><path opacity=".8" d="M268.382 65.493l8.394 3.985c.19.096.349.227.465.383.116.156.185.332.201.514 0 .327-.295.452-.666.273l-8.394-3.977a1.319 1.319 0 01-.465-.383 1.009 1.009 0 01-.201-.514c-.038-.328.257-.453.666-.281z" fill="#fff"/><path d="M268.382 68.503l8.394 3.985c.19.096.349.227.465.383.116.156.185.332.201.514 0 .328-.295.445-.666.273l-8.394-3.985a1.294 1.294 0 01-.467-.382 1 1 0 01-.199-.515c-.038-.32.257-.444.666-.273z" fill="#5BBD81"/><path opacity=".8" d="M268.382 68.503l8.394 3.985c.19.096.349.227.465.383.116.156.185.332.201.514 0 .328-.295.445-.666.273l-8.394-3.985a1.294 1.294 0 01-.467-.382 1 1 0 01-.199-.515c-.038-.32.257-.444.666-.273z" fill="#fff"/><path d="M260.929 74.048l1.789.85c.19.096.349.227.464.383.116.156.186.332.203.514 0 .32-.305.444-.667.273l-1.789-.85a1.297 1.297 0 01-.458-.384 1.002 1.002 0 01-.198-.513c0-.32.295-.445.656-.273z" fill="#5BBD81"/><path opacity=".6" d="M260.929 74.048l1.789.85c.19.096.349.227.464.383.116.156.186.332.203.514 0 .32-.305.444-.667.273l-1.789-.85a1.297 1.297 0 01-.458-.384 1.002 1.002 0 01-.198-.513c0-.32.295-.445.656-.273z" fill="#fff"/><path d="M265.831 76.364l10.907 5.17c.191.095.351.226.467.382.115.156.184.333.199.515 0 .32-.295.445-.666.273l-10.907-5.162a1.31 1.31 0 01-.465-.383 1.028 1.028 0 01-.202-.514c0-.328.296-.453.667-.281z" fill="#5BBD81"/><path opacity=".8" d="M265.831 76.364l10.907 5.17c.191.095.351.226.467.382.115.156.184.333.199.515 0 .32-.295.445-.666.273l-10.907-5.162a1.31 1.31 0 01-.465-.383 1.028 1.028 0 01-.202-.514c0-.328.296-.453.667-.281z" fill="#fff"/><path d="M263.442 78.259l1.789.85c.188.096.346.228.46.384.114.156.181.331.197.513 0 .32-.296.444-.657.272l-1.789-.85a1.3 1.3 0 01-.459-.383 1.02 1.02 0 01-.198-.513c0-.32.295-.453.657-.273z" fill="#5BBD81"/><path opacity=".6" d="M263.442 78.259l1.789.85c.188.096.346.228.46.384.114.156.181.331.197.513 0 .32-.296.444-.657.272l-1.789-.85a1.3 1.3 0 01-.459-.383 1.02 1.02 0 01-.198-.513c0-.32.295-.453.657-.273z" fill="#fff"/><path d="M263.442 81.261l1.789.843c.188.098.345.231.459.388.113.157.182.334.198.516 0 .32-.296.445-.657.273l-1.789-.85a1.305 1.305 0 01-.458-.384 1.011 1.011 0 01-.199-.513c0-.335.295-.444.657-.273z" fill="#5BBD81"/><path opacity=".6" d="M263.442 81.261l1.789.843c.188.098.345.231.459.388.113.157.182.334.198.516 0 .32-.296.445-.657.273l-1.789-.85a1.305 1.305 0 01-.458-.384 1.011 1.011 0 01-.199-.513c0-.335.295-.444.657-.273z" fill="#fff"/><path d="M268.382 80.575l8.394 3.985c.191.095.351.226.467.382a1 1 0 01.199.515c0 .32-.295.445-.666.273l-8.394-3.985a1.293 1.293 0 01-.467-.382 1 1 0 01-.199-.515c-.038-.32.257-.429.666-.273z" fill="#5BBD81"/><path opacity=".8" d="M268.382 80.575l8.394 3.985c.191.095.351.226.467.382a1 1 0 01.199.515c0 .32-.295.445-.666.273l-8.394-3.985a1.293 1.293 0 01-.467-.382 1 1 0 01-.199-.515c-.038-.32.257-.429.666-.273z" fill="#fff"/><path d="M268.382 83.585l8.394 3.985c.191.095.351.226.467.382a1 1 0 01.199.515c0 .32-.295.445-.666.273l-8.394-3.985a1.32 1.32 0 01-.465-.382 1.009 1.009 0 01-.201-.515c-.038-.32.257-.444.666-.273z" fill="#5BBD81"/><path opacity=".8" d="M268.382 83.585l8.394 3.985c.191.095.351.226.467.382a1 1 0 01.199.515c0 .32-.295.445-.666.273l-8.394-3.985a1.32 1.32 0 01-.465-.382 1.009 1.009 0 01-.201-.515c-.038-.32.257-.444.666-.273z" fill="#fff"/><path d="M263.442 69.166l1.789.85c.188.097.346.228.46.384.114.156.181.332.197.513 0 .32-.296.444-.657.273l-1.789-.85a1.302 1.302 0 01-.459-.384 1.02 1.02 0 01-.198-.513c0-.32.295-.444.657-.273z" fill="#5BBD81"/><path opacity=".6" d="M263.442 69.166l1.789.85c.188.097.346.228.46.384.114.156.181.332.197.513 0 .32-.296.444-.657.273l-1.789-.85a1.302 1.302 0 01-.459-.384 1.02 1.02 0 01-.198-.513c0-.32.295-.444.657-.273z" fill="#fff"/><path d="M260.929 70.999l1.789.85c.19.096.349.227.464.383.116.156.186.332.203.513 0 .32-.305.445-.667.273l-1.789-.85a1.298 1.298 0 01-.458-.384 1.003 1.003 0 01-.198-.513c0-.32.295-.444.656-.272z" fill="#5BBD81"/><path opacity=".6" d="M260.929 70.999l1.789.85c.19.096.349.227.464.383.116.156.186.332.203.513 0 .32-.305.445-.667.273l-1.789-.85a1.298 1.298 0 01-.458-.384 1.003 1.003 0 01-.198-.513c0-.32.295-.444.656-.272z" fill="#fff"/><path d="M268.382 71.49l8.394 3.985c.191.095.351.225.467.382a1 1 0 01.199.515c0 .32-.295.444-.666.272l-8.394-3.984a1.294 1.294 0 01-.467-.382 1 1 0 01-.199-.515c-.038-.32.257-.445.666-.273z" fill="#5BBD81"/><path opacity=".8" d="M268.382 71.49l8.394 3.985c.191.095.351.225.467.382a1 1 0 01.199.515c0 .32-.295.444-.666.272l-8.394-3.984a1.294 1.294 0 01-.467-.382 1 1 0 01-.199-.515c-.038-.32.257-.445.666-.273z" fill="#fff"/><path d="M265.831 73.314l10.907 5.17c.191.096.351.227.467.383.115.156.184.332.199.515 0 .32-.295.444-.666.273l-10.907-5.163a1.325 1.325 0 01-.465-.387 1.04 1.04 0 01-.202-.518c0-.32.296-.444.667-.273z" fill="#5BBD81"/><path opacity=".8" d="M265.831 73.314l10.907 5.17c.191.096.351.227.467.383.115.156.184.332.199.515 0 .32-.295.444-.666.273l-10.907-5.163a1.325 1.325 0 01-.465-.387 1.04 1.04 0 01-.202-.518c0-.32.296-.444.667-.273z" fill="#fff"/><path d="M260.929 83.133l1.789.85c.19.096.349.227.464.383.116.156.186.332.203.514 0 .32-.305.444-.667.273l-1.789-.835a1.298 1.298 0 01-.458-.384 1.002 1.002 0 01-.198-.513c0-.335.295-.46.656-.288z" fill="#5BBD81"/><path opacity=".6" d="M260.929 83.133l1.789.85c.19.096.349.227.464.383.116.156.186.332.203.514 0 .32-.305.444-.667.273l-1.789-.835a1.298 1.298 0 01-.458-.384 1.002 1.002 0 01-.198-.513c0-.335.295-.46.656-.288z" fill="#fff"/><path d="M265.831 85.456l10.907 5.163c.191.094.351.225.467.382.115.156.184.332.199.515 0 .32-.295.444-.666.273l-10.907-5.132a1.309 1.309 0 01-.465-.382 1.028 1.028 0 01-.202-.515c0-.358.296-.483.667-.304z" fill="#5BBD81"/><path opacity=".8" d="M265.831 85.456l10.907 5.163c.191.094.351.225.467.382.115.156.184.332.199.515 0 .32-.295.444-.666.273l-10.907-5.132a1.309 1.309 0 01-.465-.382 1.028 1.028 0 01-.202-.515c0-.358.296-.483.667-.304z" fill="#fff"/><path d="M255.42 10.608a1.64 1.64 0 01.643-.059c.217.023.424.089.603.192L379.611 68.87c.54.291.989.682 1.311 1.141.323.46.509.974.545 1.502v5.007l2.37-1.138v-4.937a2.944 2.944 0 00-.545-1.5 3.761 3.761 0 00-1.311-1.136L259.036 9.641a1.543 1.543 0 00-1.342-.094c-.333.172-1.874.89-2.274 1.06z" fill="#5BBD81"/><path opacity=".8" d="M367.153 97.802v59.564c.028.43.181.848.443 1.221.263.372.63.689 1.071.924l41.761 19.745c.153.074.328.114.505.117h.4l.085-.047.086-.062a.983.983 0 00.276-.327c.109-.196.165-.409.161-.624v-59.268a2.37 2.37 0 00-.442-1.221 3.06 3.06 0 00-1.071-.924l-41.761-19.722a1.262 1.262 0 00-.493-.158 1.332 1.332 0 00-.526.049l-.124.062-.104.078a.123.123 0 000 .047.19.19 0 00-.048.07.392.392 0 00-.095.156.333.333 0 000 .11v.116c-.115-.008-.124.047-.124.094z" fill="#455A64"/><path d="M367.65 96.983a1.325 1.325 0 011.018.11l41.761 19.721a3.06 3.06 0 011.071.924c.263.372.415.791.443 1.221v4.039l2.408-1.138v-4.009a2.371 2.371 0 00-.443-1.217 3.028 3.028 0 00-1.071-.919l-41.761-19.699a1.258 1.258 0 00-1.095-.078c-.276.078-2.008.912-2.331 1.045z" fill="#5BBD81"/><path d="M367.162 97.794c0-.78.676-1.092 1.504-.702l41.762 19.722c.44.235.808.552 1.07.924.263.373.415.791.444 1.221v4.04l-44.732-21.142-.048-4.063z" fill="#5BBD81"/><path opacity=".5" d="M368.668 97.092l41.761 19.722a2.88 2.88 0 011.068.92l2.397-1.13a2.831 2.831 0 00-1.057-.897l-41.761-19.69a1.255 1.255 0 00-1.094-.078c-.267.14-2.009.935-2.323 1.075a1.27 1.27 0 011.009.078z" fill="#fff"/><path opacity=".15" d="M414.35 121.868v-4.016a2.283 2.283 0 00-.457-1.24l-2.408 1.123c.283.37.441.795.457 1.232v4.039l2.408-1.138z" fill="#000"/><path d="M409.743 118.475c.273.177.491.402.64.659.148.257.223.539.217.823 0 .593-.382.897-.857.671-.271-.175-.49-.4-.639-.655a1.565 1.565 0 01-.217-.819c0-.601.352-.897.856-.679zM406.669 117.025c.274.174.493.398.642.654.149.256.222.537.215.82 0 .6-.381.897-.857.678a1.957 1.957 0 01-.632-.66 1.582 1.582 0 01-.215-.821c0-.624.381-.897.847-.671zM403.604 115.567c.279.178.503.406.654.667.153.262.228.548.222.838 0 .592-.38.896-.848.67a1.944 1.944 0 01-.641-.658 1.567 1.567 0 01-.215-.823c-.028-.616.353-.913.828-.694z" fill="#455A64"/><path opacity=".9" d="M411.39 179.256l.18-.086.467-.218c.078-.045.16-.084.247-.117l.399-.187.81-.375.19-.085a.87.87 0 00.257-.164.852.852 0 00.199-.257c.121-.204.184-.429.182-.655V121.86l-2.408 1.138v55.221a1.541 1.541 0 01-.162.624.962.962 0 01-.276.327.218.218 0 01-.085.063v.023z" fill="#37474F"/><path d="M370.627 108.688a.158.158 0 01.016-.085.205.205 0 01.061-.071l1.085-.78h.047a.187.187 0 01.055.036.129.129 0 01.03.05.18.18 0 010 .125v.616a.707.707 0 010 .172.553.553 0 01-.076.093l-.58.429.58.975c0 .062.057.117.076.172a.974.974 0 010 .187v.709a.07.07 0 01-.042.013.07.07 0 01-.043-.013l-.047-.054-1.085-1.849a.44.44 0 01-.077-.226v-.499zM374.595 107.831a.247.247 0 01.086-.102h.162l.399.195c.022.009.04.021.055.035a.126.126 0 01.032.051.191.191 0 010 .125.163.163 0 010 .054l-1.904 4.742a.2.2 0 01-.076.101h-.163l-.39-.187a.17.17 0 01-.085-.086.205.205 0 010-.125v-.054l1.884-4.749zM377.479 112.392a.17.17 0 01-.015.089.192.192 0 01-.062.075l-1.084.78a.068.068 0 01-.029.005.07.07 0 01-.028-.005.168.168 0 01-.086-.086.202.202 0 010-.124v-.617a.699.699 0 010-.171.275.275 0 01.076-.101l.572-.429-.572-.967a1.873 1.873 0 01-.076-.172.974.974 0 010-.187v-.624a.083.083 0 01-.013-.043c0-.015.005-.03.013-.043h.086a.2.2 0 01.057.055l1.084 1.84a.45.45 0 01.077.234v.491zM380.496 114.818a.25.25 0 01.105.101.317.317 0 010 .156v.679a.13.13 0 01.013.055.13.13 0 01-.013.054.085.085 0 01-.052.017.086.086 0 01-.053-.017l-.514-.242a.236.236 0 01-.104-.101.295.295 0 010-.156v-.632a.133.133 0 010-.117.081.081 0 01.052-.017c.019 0 .038.006.052.017l.514.203zM382.21 115.629c.046.024.083.06.104.101a.317.317 0 010 .156v.679a.113.113 0 01.013.054.117.117 0 01-.013.055.101.101 0 01-.052.014.099.099 0 01-.052-.014l-.515-.242a.3.3 0 01-.105-.101.383.383 0 01-.048-.156v-.663a.15.15 0 01.048-.117.086.086 0 01.053-.017c.019 0 .038.006.052.017l.515.234zM383.922 116.44a.215.215 0 01.105.101.317.317 0 010 .156v.679a.13.13 0 010 .109.106.106 0 01-.053.015.102.102 0 01-.052-.015l-.513-.242a.277.277 0 01-.106-.109.307.307 0 01-.047-.148v-.694a.14.14 0 01.047-.109.096.096 0 01.053-.015c.019 0 .037.005.053.015l.513.257zM371.083 114.085l25.089 11.869c.155.078.284.185.379.313.095.127.15.271.162.42 0 .265-.237.359-.541.218l-25.089-11.869a1.068 1.068 0 01-.371-.311.825.825 0 01-.161-.414c0-.265.238-.359.532-.226z" fill="#5BBD81"/><path d="M379.136 129.323l25.087 11.869c.155.077.284.183.379.309a.818.818 0 01.164.416c0 .265-.238.367-.543.226l-25.087-11.869a1.069 1.069 0 01-.374-.314.84.84 0 01-.16-.419c0-.265.238-.358.534-.218zM379.136 136.934l12.02 5.685c.153.08.281.187.374.315.092.127.147.27.159.418 0 .266-.237.359-.533.219l-12.011-5.685a1.047 1.047 0 01-.373-.31.82.82 0 01-.16-.416c-.01-.265.228-.366.524-.226z" fill="#E6E6E6"/><path d="M398.256 126.937l9.993 4.679c.154.077.284.182.378.309a.81.81 0 01.164.416c0 .265-.247.367-.542.226l-9.993-4.679a1.048 1.048 0 01-.374-.31.826.826 0 01-.16-.415c0-.265.239-.367.534-.226zM371.083 155.978l25.089 11.869c.154.077.284.183.378.309.095.126.15.269.163.416 0 .265-.237.367-.541.226l-25.089-11.869a1.062 1.062 0 01-.372-.314.813.813 0 01-.16-.419c0-.265.238-.359.532-.218zM398.256 168.83l9.993 4.679c.154.079.284.186.377.314a.83.83 0 01.165.419c0 .257-.247.359-.542.218l-9.993-4.679a1.069 1.069 0 01-.374-.314.84.84 0 01-.16-.419c0-.257.239-.358.534-.218zM398.256 157.421l9.993 4.679c.153.077.284.183.377.309a.816.816 0 01.165.416c0 .265-.247.366-.542.226l-9.993-4.679a1.069 1.069 0 01-.374-.314.843.843 0 01-.16-.419c0-.257.239-.359.534-.218zM398.256 161.234l9.993 4.679c.153.078.281.185.376.31a.835.835 0 01.166.416c0 .265-.247.366-.542.226l-9.993-4.679a1.071 1.071 0 01-.374-.315.837.837 0 01-.16-.418c0-.266.239-.359.534-.219zM389.728 153.381l5.615 2.659c.155.077.286.182.38.309.094.126.15.269.163.417 0 .265-.239.366-.543.226l-5.615-2.659a1.071 1.071 0 01-.374-.315.83.83 0 01-.159-.418c0-.258.238-.359.533-.219zM371.083 117.906l14.639 6.917c.151.079.278.185.371.311a.828.828 0 01.161.414c0 .266-.237.367-.532.227l-14.639-6.918a1.062 1.062 0 01-.372-.314.813.813 0 01-.16-.419c0-.273.238-.358.532-.218z" fill="#5BBD81"/><path opacity=".6" d="M371.083 117.906l14.639 6.917c.151.079.278.185.371.311a.828.828 0 01.161.414c0 .266-.237.367-.532.227l-14.639-6.918a1.062 1.062 0 01-.372-.314.813.813 0 01-.16-.419c0-.273.238-.358.532-.218z" fill="#fff"/><path d="M371.083 121.704l4.969 2.339c.152.079.279.185.371.311a.819.819 0 01.161.415c0 .265-.237.366-.532.226l-4.969-2.34a1.068 1.068 0 01-.371-.311.821.821 0 01-.161-.414c0-.265.238-.366.532-.226z" fill="#5BBD81"/><path opacity=".6" d="M371.083 121.704l4.969 2.339c.152.079.279.185.371.311a.819.819 0 01.161.415c0 .265-.237.366-.532.226l-4.969-2.34a1.068 1.068 0 01-.371-.311.821.821 0 01-.161-.414c0-.265.238-.366.532-.226z" fill="#fff"/><path d="M371.083 125.509l4.969 2.34c.153.079.28.187.373.314a.824.824 0 01.159.419c0 .257-.237.359-.532.218l-4.969-2.339a1.026 1.026 0 01-.373-.31.807.807 0 01-.159-.415c0-.266.238-.367.532-.227z" fill="#5BBD81"/><path opacity=".6" d="M371.083 125.509l4.969 2.34c.153.079.28.187.373.314a.824.824 0 01.159.419c0 .257-.237.359-.532.218l-4.969-2.339a1.026 1.026 0 01-.373-.31.807.807 0 01-.159-.415c0-.266.238-.367.532-.227z" fill="#fff"/><path d="M371.083 129.323l4.969 2.339c.152.078.28.184.373.31a.81.81 0 01.159.416c0 .265-.237.366-.532.226l-4.969-2.34a1.062 1.062 0 01-.372-.314.813.813 0 01-.16-.419c0-.265.238-.358.532-.218z" fill="#5BBD81"/><path opacity=".6" d="M371.083 129.323l4.969 2.339c.153.08.28.187.373.315a.82.82 0 01.159.418c0 .266-.237.359-.532.219l-4.969-2.34a1.062 1.062 0 01-.372-.314.813.813 0 01-.16-.419c0-.265.238-.358.532-.218z" fill="#fff"/><path opacity=".6" d="M379.136 133.129l14.637 6.917c.153.079.281.187.373.314a.841.841 0 01.161.419c0 .257-.239.359-.534.218l-14.637-6.917a1.069 1.069 0 01-.374-.314.843.843 0 01-.16-.419c0-.257.238-.359.534-.218zM395.848 141.028l6.366 3.026c.155.077.283.183.375.31a.807.807 0 01.159.415c0 .266-.238.367-.534.227l-6.366-3.026a1.061 1.061 0 01-.371-.311.83.83 0 01-.162-.414c0-.266.238-.367.533-.227z" fill="#5BBD81"/><path opacity=".6" d="M379.136 133.129l14.637 6.917c.153.079.281.187.373.314a.841.841 0 01.161.419c0 .257-.239.359-.534.218l-14.637-6.917a1.069 1.069 0 01-.374-.314.843.843 0 01-.16-.419c0-.257.238-.359.534-.218zM395.848 141.028l6.366 3.026c.155.077.283.183.375.31a.807.807 0 01.159.415c0 .266-.238.367-.534.227l-6.366-3.026a1.061 1.061 0 01-.371-.311.83.83 0 01-.162-.414c0-.266.238-.367.533-.227z" fill="#fff"/><path d="M371.083 133.129l4.969 2.339c.152.079.279.185.371.311a.819.819 0 01.161.415c0 .265-.237.366-.532.226l-4.969-2.34a1.068 1.068 0 01-.371-.311.828.828 0 01-.161-.414c0-.265.238-.367.532-.226z" fill="#5BBD81"/><path opacity=".6" d="M371.083 133.129l4.969 2.339c.152.079.279.185.371.311a.819.819 0 01.161.415c0 .265-.237.366-.532.226l-4.969-2.34a1.068 1.068 0 01-.371-.311.828.828 0 01-.161-.414c0-.265.238-.367.532-.226z" fill="#fff"/><path d="M387.796 125.806l6.367 3.018c.153.079.281.187.374.314a.843.843 0 01.16.419c0 .258-.239.359-.534.219l-6.367-3.018a1.059 1.059 0 01-.373-.315.83.83 0 01-.16-.418c0-.258.238-.375.533-.219z" fill="#5BBD81"/><path opacity=".6" d="M387.796 125.806l6.367 3.018c.153.079.281.187.374.314a.843.843 0 01.16.419c0 .258-.239.359-.534.219l-6.367-3.018a1.059 1.059 0 01-.373-.315.83.83 0 01-.16-.418c0-.258.238-.375.533-.219z" fill="#fff"/><path d="M385.169 143.586l14.638 6.917c.154.079.283.187.378.314.093.127.15.271.165.419 0 .266-.248.359-.543.227l-14.638-6.925a1.07 1.07 0 01-.371-.311.828.828 0 01-.161-.415c0-.226.237-.358.532-.226zM393.621 151.385l14.666 6.948c.154.079.283.186.377.314a.83.83 0 01.165.419c0 .258-.247.359-.542.219l-14.628-6.918a1.066 1.066 0 01-.38-.312.833.833 0 01-.163-.421c-.057-.249.201-.358.505-.249zM401.892 151.502l6.395 3.002c.153.078.281.185.376.31a.847.847 0 01.167.415c0 .266-.248.367-.543.227l-6.357-3.018a1.046 1.046 0 01-.379-.313.822.822 0 01-.164-.42c-.038-.25.238-.32.505-.203z" fill="#fff"/><path d="M401.892 166.584l6.357 3.018c.154.079.284.186.378.313a.83.83 0 01.164.42c0 .257-.247.358-.542.218l-6.357-3.018a1.07 1.07 0 01-.381-.313.834.834 0 01-.162-.42c0-.257.276-.359.543-.218z" fill="#E6E6E6"/><path d="M379.136 125.51l14.637 6.925c.153.077.281.183.373.309a.835.835 0 01.161.416c0 .265-.239.366-.534.226l-14.637-6.956a1.05 1.05 0 01-.375-.31.816.816 0 01-.159-.416c0-.233.238-.335.534-.194z" fill="#5BBD81"/><path opacity=".6" d="M379.136 125.51l14.637 6.925c.153.077.281.183.373.309a.835.835 0 01.161.416c0 .265-.239.366-.534.226l-14.637-6.956a1.05 1.05 0 01-.375-.31.816.816 0 01-.159-.416c0-.233.238-.335.534-.194z" fill="#fff"/><path d="M395.848 133.448l6.366 3.018c.153.08.281.187.374.315a.81.81 0 01.16.418c0 .258-.238.359-.534.219l-6.366-3.018a1.071 1.071 0 01-.374-.315.826.826 0 01-.159-.418c0-.297.238-.39.533-.219z" fill="#5BBD81"/><path opacity=".6" d="M395.848 133.448l6.366 3.018c.153.08.281.187.374.315a.81.81 0 01.16.418c0 .258-.238.359-.534.219l-6.366-3.018a1.071 1.071 0 01-.374-.315.826.826 0 01-.159-.418c0-.297.238-.39.533-.219z" fill="#fff"/><path opacity=".15" d="M296.097 177.05l8.965 4.242c1.55.649 3.281.951 5.02.876 1.738-.075 3.42-.525 4.877-1.305l14.8-8.851c2.637-1.56 2.484-3.899-.342-5.28l-4.493-2.137a14.407 14.407 0 00-5.165-1.082 14.59 14.59 0 00-5.237.825l-18.264 8.103c-2.921 1.208-2.997 3.267-.161 4.609z" fill="#000"/><path d="M329.997 168.159l-10.222 6.558-7.557 4.843a7.873 7.873 0 01-2.408.476 7.773 7.773 0 01-3.587-.616l-8.023-3.798h-.048a5.374 5.374 0 01-1.659-1.305 4.278 4.278 0 01-.898-1.735 3.85 3.85 0 01.012-1.884c.16-.621.472-1.209.918-1.728l.238-.273c1.576-1.732 3.877-2.926 6.461-3.353l4.065-.663c6.586-1.1 11.982-1.63 12.61-1.279l10.061 4.773.037-.016z" fill="#37474F"/><path d="M324.277 171.832l.581-.374-9.032-4.266 7.9-2.004-.799-.382-7.9 2.004-5.387-2.542-1.019.156 15.656 7.408z" fill="#5BBD81"/><path d="M313.113 179.163l7.196-4.258 9.698-5.74v-.936a.065.065 0 00-.012-.04.08.08 0 00-.035-.03h-.057c-.724-.203-4.931.835-10.013 2.488l-3.369 1.099c-1.999.646-3.713 1.77-4.919 3.227-1.205 1.457-1.846 3.178-1.838 4.938v.141a7.878 7.878 0 002.407-.476l.942-.413z" fill="#263238"/><path d="M330.91 296.833c-9.878-8.352-15.674-42.338-6.043-48.959h49.014c9.632 6.621 3.807 40.599-6.033 48.951l-.277.234a4.992 4.992 0 01-.333.273c-.285.226-.58.444-.894.655l-.238.156c-.238.156-.475.312-.742.468-.41.244-.836.47-1.276.678-8.127 3.899-21.299 3.899-29.428 0a17.046 17.046 0 01-1.284-.686c-.247-.14-.467-.289-.694-.437l-.286-.187c-.302-.198-.59-.409-.867-.632a7.519 7.519 0 01-.39-.319 2.87 2.87 0 01-.229-.195z" fill="#5BBD81"/><path opacity=".5" d="M330.91 296.833c-9.878-8.352-15.674-42.338-6.043-48.959h49.014c9.632 6.621 3.807 40.599-6.033 48.951l-.277.234a4.992 4.992 0 01-.333.273c-.285.226-.58.444-.894.655l-.238.156c-.238.156-.475.312-.742.468-.41.244-.836.47-1.276.678-8.127 3.899-21.299 3.899-29.428 0a17.046 17.046 0 01-1.284-.686c-.247-.14-.467-.289-.694-.437l-.286-.187c-.302-.198-.59-.409-.867-.632a7.519 7.519 0 01-.39-.319 2.87 2.87 0 01-.229-.195z" fill="#fff"/><path d="M369.627 245.207c11.183 5.35 11.183 14.037 0 19.379-11.182 5.342-29.323 5.35-40.506 0-11.182-5.35-11.182-14.037 0-19.379 11.183-5.342 29.324-5.35 40.506 0z" fill="#5BBD81"/><path opacity=".7" d="M369.627 245.207c11.183 5.35 11.183 14.037 0 19.379-11.182 5.342-29.323 5.35-40.506 0-11.182-5.35-11.182-14.037 0-19.379 11.183-5.342 29.324-5.35 40.506 0z" fill="#fff"/><path d="M364.251 247.781c8.212 3.899 8.212 10.301 0 14.232-8.214 3.93-21.539 3.899-29.752 0-8.214-3.9-8.214-10.302 0-14.232 8.213-3.931 21.538-3.931 29.752 0z" fill="#5BBD81"/><path opacity=".3" d="M364.251 247.781c8.212 3.899 8.212 10.301 0 14.232-8.214 3.93-21.539 3.899-29.752 0-8.214-3.9-8.214-10.302 0-14.232 8.213-3.931 21.538-3.931 29.752 0z" fill="#000"/><path d="M334.499 254.534c8.213-3.899 21.538-3.899 29.75 0 1.991.892 3.678 2.176 4.912 3.736-1.233 1.562-2.921 2.848-4.912 3.743-8.212 3.899-21.537 3.899-29.75 0-1.992-.897-3.682-2.183-4.921-3.743 1.24-1.559 2.931-2.842 4.921-3.736z" fill="#F5F5F5"/><path d="M345.358 237.386a10.005 10.005 0 01-1.246-2.933c-.552-2.448.19-5.248 2.607-6.761.952-.593 2.218-1.037 2.627-1.973a2.678 2.678 0 000-1.614c-.448-2.09-1.304-4.242-.599-6.278.391-.931 1.016-1.785 1.836-2.505a8.776 8.776 0 012.922-1.675 30.351 30.351 0 016.92-1.482 13.123 13.123 0 003.663-.857c1.371-.632 1.8-1.739 2.646-2.714a21.193 21.193 0 013.37-2.94c2.493-1.825 5.615-3.33 9.07-3.205 7.214.257 7.004 5.342 4.929 9.194-2.074 3.852-2.626 5.108 1.904 9.124 4.531 4.016 4.512 8.968-.866 11.698-5.377 2.729-8.87 3.119-6.738 8.469 1.903 4.765 3.074 8.828-2.294 13.92-3.474 3.291-8.223 5.638-14.162 5.459a28.435 28.435 0 01-6.957-1.31c-1.637-.663-.534-1.7-1.085-3.026l-3.559-8.516a56.155 56.155 0 00-2.856-6.722c-.657-1.17-1.456-2.238-2.132-3.353z" fill="#5BBD81"/><path opacity=".25" d="M345.358 237.386a10.005 10.005 0 01-1.246-2.933c-.552-2.448.19-5.248 2.607-6.761.952-.593 2.218-1.037 2.627-1.973a2.678 2.678 0 000-1.614c-.448-2.09-1.304-4.242-.599-6.278.391-.931 1.016-1.785 1.836-2.505a8.776 8.776 0 012.922-1.675 30.351 30.351 0 016.92-1.482 13.123 13.123 0 003.663-.857c1.371-.632 1.8-1.739 2.646-2.714a21.193 21.193 0 013.37-2.94c2.493-1.825 5.615-3.33 9.07-3.205 7.214.257 7.004 5.342 4.929 9.194-2.074 3.852-2.626 5.108 1.904 9.124 4.531 4.016 4.512 8.968-.866 11.698-5.377 2.729-8.87 3.119-6.738 8.469 1.903 4.765 3.074 8.828-2.294 13.92-3.474 3.291-8.223 5.638-14.162 5.459a28.435 28.435 0 01-6.957-1.31c-1.637-.663-.534-1.7-1.085-3.026l-3.559-8.516a56.155 56.155 0 00-2.856-6.722c-.657-1.17-1.456-2.238-2.132-3.353z" fill="#000"/><path d="M355.161 259.002a.514.514 0 00.262-.157.357.357 0 00.09-.256c-.305-29.182 19.33-46.603 19.53-46.791a.414.414 0 00.152-.312.413.413 0 00-.152-.311.596.596 0 00-.376-.128.596.596 0 00-.376.128c-.2.171-20.12 17.834-19.816 47.383a.368.368 0 00.038.168.452.452 0 00.116.143.614.614 0 00.38.125l.152.008z" fill="#fff"/><path d="M360.872 231.841l.113-.039c6.387-3.299 17.78-5.756 17.893-5.779a.54.54 0 00.324-.205.374.374 0 00.057-.333.388.388 0 00-.089-.154.495.495 0 00-.154-.114.621.621 0 00-.404-.044c-.476.101-11.669 2.511-18.189 5.88a.505.505 0 00-.153.115.407.407 0 00-.087.155.354.354 0 00-.006.171.384.384 0 00.076.159c.061.085.156.15.269.184a.64.64 0 00.35.004zM362.85 227.809a.506.506 0 00.293-.239.37.37 0 00.003-.338c-1.493-2.918-3.475-5.65-5.892-8.118a.51.51 0 00-.162-.108.642.642 0 00-.409-.025.546.546 0 00-.18.086.422.422 0 00-.181.299.397.397 0 00.124.317c2.335 2.401 4.257 5.054 5.71 7.884a.457.457 0 00.112.145.529.529 0 00.172.097.617.617 0 00.41 0z" fill="#fff"/><path d="M350.155 262.122a36.3 36.3 0 01-15.637.468c-8.965-1.56-14.457-8.454-14.457-8.454s9.708-3.182 15.361-3.493a60.959 60.959 0 00-16.989.296s-5.196-1.56-4.216-8.766c0 0 4.892-2.955 16.18-1.793 0 0-5.634-3.299-15.523-4.274-.78 0 .276-9.358 1.219-13.53.941-4.172 2.855-3.525 6.851-3.166 3.998.359 16 2.589 17.513 4.991 1.513 2.402.047 8.531.047 8.531 2.077-2.331 3.227-5.13 3.294-8.016 0 0 4.501 1.349 6.909 3.119 1.808 1.198 3.276 2.704 4.302 4.414-.562 3.283-2.446 8.297-5.092 11.097 0 0 5.957-3.158 7.318-8.96 2.965 3.324 4.625 7.309 4.759 11.424-.132 7.339-4.149 12.79-11.839 16.112z" fill="#5BBD81"/><path opacity=".1" d="M350.155 262.122a36.3 36.3 0 01-15.637.468c-8.965-1.56-14.457-8.454-14.457-8.454s9.708-3.182 15.361-3.493a60.959 60.959 0 00-16.989.296s-5.196-1.56-4.216-8.766c0 0 4.892-2.955 16.18-1.793 0 0-5.634-3.299-15.523-4.274-.78 0 .276-9.358 1.219-13.53.941-4.172 2.855-3.525 6.851-3.166 3.998.359 16 2.589 17.513 4.991 1.513 2.402.047 8.531.047 8.531 2.077-2.331 3.227-5.13 3.294-8.016 0 0 4.501 1.349 6.909 3.119 1.808 1.198 3.276 2.704 4.302 4.414-.562 3.283-2.446 8.297-5.092 11.097 0 0 5.957-3.158 7.318-8.96 2.965 3.324 4.625 7.309 4.759 11.424-.132 7.339-4.149 12.79-11.839 16.112z" fill="#000"/><path d="M351.344 261.49a.507.507 0 01-.228-.139.377.377 0 01-.096-.219c-1.361-13.928-20.376-35.678-28.78-40.045a.455.455 0 01-.223-.266.372.372 0 01.062-.319.533.533 0 01.319-.182.626.626 0 01.385.049c8.566 4.438 27.876 26.515 29.246 40.693.008.054 0 .11-.02.163a.405.405 0 01-.096.143.513.513 0 01-.157.102.591.591 0 01-.193.044.508.508 0 01-.219-.024z" fill="#fff"/><path d="M129.648 336.004c39.464 0 71.456-15.135 71.456-33.806 0-18.67-31.992-33.806-71.456-33.806s-71.456 15.136-71.456 33.806c0 18.671 31.992 33.806 71.456 33.806z" fill="#E6E6E6"/><path d="M216.656 289.612c31.064 0 56.247-11.913 56.247-26.608 0-14.696-25.183-26.609-56.247-26.609-31.065 0-56.248 11.913-56.248 26.609 0 14.695 25.183 26.608 56.248 26.608z" fill="#E6E6E6"/><path d="M179.385 252.763c0-.155-3.054-9.202-3.054-9.202s.999.835 7.376-.546a40.815 40.815 0 006.938-2.386l1.817 6.613c1.704 2.543 7.338 1.373 13.506.78a78.837 78.837 0 003.169-.39h.066c3.332-.148 6.663 1.49 3.218 3.821-3.446 2.332-9.185 3.206-14.448 3.985-6.338.975-17.454 2.496-18.588-2.675z" fill="#FFA8A7"/><path d="M223.651 251.984a4.44 4.44 0 01.456 2.776c-.114 1.006-3.159 4.422-8.566 6.52-5.406 2.097-12.011 2.23-15.114 2.963-3.101.733-5.957 2.191-9.621 2.924-3.665.733-7.29 1.123-10.964-.865-.676-.85-1.418-2.823-1.208-3.018.665-.515 45.017-11.3 45.017-11.3z" fill="#263238"/><path d="M193.433 248.147c2.36 1.334 7.253.406 12.535-.086 4.986-.468 10.592-1.903 13.98-.936 3.389.967 6.215 4.227 1.637 8.415-1.323 1.209-4.121 3.338-6.366 4.001-5.711 1.668-10.794 1.801-14.448 2.542-4.759.959-7.366 2.69-11.763 3.119-5.711.546-9.308-.655-10.298-1.903-.99-1.247-1.903-11.3.543-11.089 0 0 1.027 3.252 10.345.094 4.063-1.396 3.997-3.44 3.835-4.157z" fill="#5BBD81"/><path opacity=".4" d="M193.433 248.147c2.36 1.334 7.253.406 12.535-.086 4.986-.468 10.592-1.903 13.98-.936 3.389.967 6.215 4.227 1.637 8.415-1.323 1.209-4.121 3.338-6.366 4.001-5.711 1.668-10.794 1.801-14.448 2.542-4.759.959-7.366 2.69-11.763 3.119-5.711.546-9.308-.655-10.298-1.903-.99-1.247-1.903-11.3.543-11.089 0 0 1.027 3.252 10.345.094 4.063-1.396 3.997-3.44 3.835-4.157z" fill="#000"/><path d="M209.232 253.543s-.533-4.242-4.359-5.365a2.415 2.415 0 00-1.096-.135c-.374.04-.726.165-1.016.361 0 0 3.549.421 4.757 5.405 0 0 .182.327.952.21.229-.047.799-.132.762-.476zM199.495 248.724s0-.14.896-.273a1.926 1.926 0 011.056.094s2.855 1.013 3.388 5.459c0 0 0 .53-.885.678a.944.944 0 01-.626-.035.774.774 0 01-.248-.167.611.611 0 01-.145-.235s-.59-4.671-3.436-5.521zM196.432 248.818s.161-.265.827-.265c.848 0 1.047.273 1.047.273s2.037 1.707 2.056 5.419c0 0 .085.624-.952.687-1.037.062-.951-.64-.951-.64s-.363-4.726-2.027-5.474z" fill="#FAFAFA"/><path d="M175.446 191.312c4.663 11.488 17.035 51.041 17.035 51.041s-8.051 5.927-16.789 3.229l-20.814-49.255 20.568-5.015z" fill="#37474F"/><path d="M211.412 265.553c-.952-1.162-4.53-9.202-4.53-9.202s3.73 1.747 10.154.499c3.264-.639 6.32-3.54 6.32-3.54l2.741 7.728c1.618 2.581 6.862 1.731 13.048 1.279 1.038-.078 2.104-.203 3.179-.328h.066c3.332-.078 6.662 1.622 3.093 3.9-3.568 2.277-9.27 3.025-14.561 3.696-6.319.788-15.942.335-19.51-4.032z" fill="#FFA8A7"/><path d="M259.398 265.312c.462.95.603 1.984.409 2.994-.162 1.076-3.541 4.679-9.365 6.808-5.825 2.129-12.972 2.137-16.332 2.855-3.36.717-6.463 2.23-10.421 2.939-3.959.71-7.862 1.038-11.735-1.161-.705-.936-1.447-3.073-1.199-3.276.638-.538 48.643-11.159 48.643-11.159z" fill="#263238"/><path d="M227.106 260.461c.372.219.763.417 1.17.593.41.139.85.213 1.294.218 1.037.095 2.081.116 3.122.062 2.607-.101 5.206-.429 7.813-.616 5.359-.39 11.421-1.809 15.029-.702 3.606 1.108 6.9 4.679 1.846 9.054-1.941 1.71-4.227 3.132-6.757 4.204-5.987 2.051-12.202 1.668-16.18 2.386-5.139.928-7.994 2.729-12.734 3.08-6.139.46-9.965-.904-10.984-2.269-.57-.78.058-4.679-.704-7.759-.665-2.636-.494-4.43.666-4.313.249.342.551.656.896.936.375.366.839.666 1.361.881a12.49 12.49 0 002.303.632c1.384.346 2.827.509 4.273.483a2.41 2.41 0 001.161-.304c.38-.322.619-.739.676-1.185.094-.39.2-.78.295-1.17.04-.213.13-.417.267-.601a1.87 1.87 0 01.723-.475c.91-.327 1.713-.827 2.341-1.459a3.957 3.957 0 00.686-1.809.408.408 0 01.151-.296c.172-.109.428 0 .619.086l.667.343z" fill="#5BBD81"/><path opacity=".4" d="M227.106 260.461c.372.219.763.417 1.17.593.41.139.85.213 1.294.218 1.037.095 2.081.116 3.122.062 2.607-.101 5.206-.429 7.813-.616 5.359-.39 11.421-1.809 15.029-.702 3.606 1.108 6.9 4.679 1.846 9.054-1.941 1.71-4.227 3.132-6.757 4.204-5.987 2.051-12.202 1.668-16.18 2.386-5.139.928-7.994 2.729-12.734 3.08-6.139.46-9.965-.904-10.984-2.269-.57-.78.058-4.679-.704-7.759-.665-2.636-.494-4.43.666-4.313.249.342.551.656.896.936.375.366.839.666 1.361.881a12.49 12.49 0 002.303.632c1.384.346 2.827.509 4.273.483a2.41 2.41 0 001.161-.304c.38-.322.619-.739.676-1.185.094-.39.2-.78.295-1.17.04-.213.13-.417.267-.601a1.87 1.87 0 01.723-.475c.91-.327 1.713-.827 2.341-1.459a3.957 3.957 0 00.686-1.809.408.408 0 01.151-.296c.172-.109.428 0 .619.086l.667.343z" fill="#000"/><path d="M243.827 266.668s-.437-4.57-4.511-5.856a2.575 2.575 0 00-1.171-.168c-.402.034-.784.16-1.103.363 0 0 3.806.53 4.892 5.903 0 0 .189.359 1.028.249.275-.031.894-.109.865-.491zM233.529 261.295s0-.156.952-.281a2.032 2.032 0 011.123.125s3.036 1.147 3.464 5.927c0 0 0 .569-.951.71a1.04 1.04 0 01-.343.031.961.961 0 01-.33-.084.814.814 0 01-.262-.184.662.662 0 01-.151-.255s-.466-5.022-3.502-5.989zM230.237 261.342s.18-.281.903-.265c.905 0 1.105.312 1.105.312s2.132 1.879 2.037 5.856c0 0 .076.679-1.075.726-1.153.046-.952-.71-.952-.71s-.248-5.1-2.018-5.919z" fill="#FAFAFA"/><path d="M208.27 204.874c3.674 9.257 13.058 35.607 17.341 49.13 0 0-7.7 5.677-17.607 5.178l-23.879-50.736 9.517-4.82 14.628 1.248zM129.647 331.528c.412 0 .806-.134 1.098-.372.291-.239.454-.562.454-.899v-81.541c0-.337-.163-.66-.454-.898a1.74 1.74 0 00-1.098-.373c-.411 0-.805.134-1.096.373-.291.238-.455.561-.455.898v81.564c.008.333.175.65.465.884.29.233.681.364 1.086.364zM68.061 301.894c.307.002.608-.072.864-.21a1.36 1.36 0 00.573-.57l30.523-63.308a1.06 1.06 0 00.063-1.017 1.254 1.254 0 00-.343-.437 1.607 1.607 0 00-.53-.288 1.847 1.847 0 00-1.242.038 1.545 1.545 0 00-.501.319 1.208 1.208 0 00-.303.457l-30.55 63.245a1.06 1.06 0 00.019.969c.162.309.466.552.847.677.181.072.379.115.58.125z" fill="#455A64"/><path d="M71.725 294.259a1.8 1.8 0 00.613-.103c.193-.068.367-.169.51-.295l56.8-49.247 56.694 49.037c.29.22.67.342 1.065.341a1.758 1.758 0 001.061-.349c.287-.223.459-.527.482-.85a1.137 1.137 0 00-.361-.889l-57.818-50.011a1.585 1.585 0 00-.512-.293 1.84 1.84 0 00-1.222-.001 1.61 1.61 0 00-.513.294l-57.922 50.222c-.208.18-.347.406-.4.65-.053.245-.017.496.102.724.12.228.317.423.57.559.253.137.549.21.851.211z" fill="#455A64"/><path d="M191.234 301.894c.196-.001.39-.033.572-.093.379-.125.684-.369.846-.677.163-.308.17-.657.019-.969l-30.522-63.3a1.18 1.18 0 00-.287-.486 1.52 1.52 0 00-.506-.345 1.864 1.864 0 00-1.286-.053c-.208.067-.394.17-.548.301a1.257 1.257 0 00-.345.46 1.056 1.056 0 00-.081.536c.02.182.088.357.198.515l30.532 63.308c.111.233.304.434.555.577.251.143.547.222.853.226z" fill="#455A64"/><path d="M191.978 220.743c1.113-5.115-3.97-9.108-13.545-14.403a244.493 244.493 0 00-27.724-12.766c-8.013-3.01-16.178-2.73-26.448 1.559-14.276 5.997-57.104 27.295-57.104 27.295s64.071 29.634 76.396 28.308c12.324-1.326 43.132-17.749 45.578-23.528 2.446-5.778 2.847-6.465 2.847-6.465z" fill="#5BBD81"/><path opacity=".4" d="M191.978 220.743c1.113-5.115-3.97-9.108-13.545-14.403a244.493 244.493 0 00-27.724-12.766c-8.013-3.01-16.178-2.73-26.448 1.559-14.276 5.997-57.104 27.295-57.104 27.295s64.071 29.634 76.396 28.308c12.324-1.326 43.132-17.749 45.578-23.528 2.446-5.778 2.847-6.465 2.847-6.465z" fill="#000"/><path d="M137.376 244.521c9.193 6.823 18.806.951 34.015-7.136 17.216-9.147 20.585-16.642 20.585-16.642s0 5.615-1.285 8.243c-1.284 2.628-4.063 5.615-16.474 12.626-12.41 7.011-21.404 10.52-29.751 11.822l-6.586-.741" fill="#5BBD81"/><path opacity=".5" d="M171.391 237.385c17.216-9.147 20.585-16.642 20.585-16.642s0 5.615-1.285 8.243c-1.284 2.628-4.063 5.615-16.474 12.626-12.41 7.011-21.404 10.52-29.751 11.822l-6.586-.741-.504-8.172c9.184 6.823 18.806.951 34.015-7.136z" fill="#000"/><path d="M70.422 291.927l-4.759 8.906a.864.864 0 00-.057.398c.106.25.319.461.6.592.386.178.817.28 1.26.298.443.017.885-.05 1.29-.196.226-.087.41-.232.524-.413v-.117l4.378-8.353-3.236-1.115zM189.131 292.301l4.064 8.727c.01.075.01.151 0 .226v.156a1.134 1.134 0 01-.609.546 3.16 3.16 0 01-1.229.245c-.426 0-.847-.084-1.227-.245a1.022 1.022 0 01-.486-.406v-.125l-3.739-8.18 3.226-.944zM127.858 323.963v7.222a.714.714 0 00.172.349.918.918 0 00.352.243 3.25 3.25 0 001.265.252 3.25 3.25 0 001.266-.252.864.864 0 00.355-.24.655.655 0 00.16-.352v-7.222a4.497 4.497 0 00-1.785-.364c-.622 0-1.235.125-1.785.364z" fill="#5BBD81"/><path d="M92.825 190.158c3.645 3.486 36.851-4.344 45.683-5.326 14.181-1.56 25.697-2.738 30.551-1.498 4.854 1.24 6.862 3.252 8.337 7.978 1.742 5.568 2.637 8.415 2.637 8.415s-23.565 7.408-42.162 9.194c-18.598 1.786-45.046-18.763-45.046-18.763z" fill="#37474F"/><path d="M86.6 195.266c-3.682 11.495-6.985 24.862 1.533 32.176 5.71 4.929 34.558 17.734 53.154 12.688 18.312-4.967 56.249-28.074 60.056-30.359 3.807-2.285 7.261-3.899 6.9-4.897-5.111-13.913-12.592-15.004-26.45-12.478-16.96 3.057-54.172 15.496-54.172 15.496l-41.02-12.626z" fill="#455A64"/><path d="M170.849 121.376l-12.791 11.846-20.653-8.033 14.438-16.368 19.006 12.555z" fill="#FFA8A7"/><path d="M186.714 98.87s5.234 6.192 4.673 6.823c-.562.632-4.263 1.256-4.263 1.256l-.41-8.08z" fill="#F28F8F"/><path d="M186.676 102.964c-1.239 0-2.45-.301-3.48-.865-1.029-.564-1.832-1.365-2.306-2.303a4.281 4.281 0 01-.357-2.965c.242-.995.838-1.91 1.714-2.627.877-.717 1.992-1.206 3.206-1.404a7.556 7.556 0 013.619.292c1.145.388 2.122 1.046 2.811 1.89.687.844 1.055 1.836 1.055 2.85-.002 1.36-.663 2.665-1.837 3.627-1.174.962-2.766 1.503-4.425 1.505zm0-9.32a5.942 5.942 0 00-2.84.707c-.841.46-1.495 1.114-1.883 1.879a3.496 3.496 0 00-.29 2.42c.197.812.684 1.558 1.399 2.144.715.586 1.625.984 2.616 1.146.992.162 2.02.079 2.954-.238.933-.317 1.732-.854 2.293-1.543.562-.689.862-1.498.862-2.326-.013-1.105-.556-2.161-1.513-2.94-.958-.777-2.25-1.215-3.598-1.217v-.031z" fill="#263238"/><path d="M172.18 81.729c10.289 1.56 13.325 5.21 14.686 18.521 1.39 13.905-.219 18.319-2.398 20.229-1.475 1.295-9.842 1.685-14.096.78-5.319-1.1-17.369-4.344-23.155-11.245-6.814-8.118-8.86-19.254-1.903-23.965 9.707-6.605 22.679-4.96 26.866-4.32z" fill="#FFA8A7"/><path d="M170.848 121.376c4.426.78 11.165.32 13.162-.616a18.476 18.476 0 01-7.451-.226 27.354 27.354 0 01-6.824-2.464l1.113 3.306z" fill="#F28F8F"/><path d="M188.769 87.18c-2.855 1.622-6.376 2.293-9.821 2.737.267 2.254-.6 4.484-1.456 6.645-.59 1.49-2.732 6.176-5.064 3.602-1.684-1.856-3.207-3.548-6.434-3.119-5.31.78-5.872 6.325-2.417 9.647 3.454 3.322 6.548 1.965 6.548 1.965s.486 5.997-3.378 10.239c0 0-5.759 2.901-13.848.718-5.101-1.381-12.468-6.652-15.18-10.77-7.472-11.323-7.51-22.178 1.551-25.516.838-5.46 5.968-7.955 11.859-9.179 8.175-1.7 16.665 2.503 24.563-.273 1.666-.585 3.199-1.411 4.903-1.918.457-.181.96-.275 1.47-.275.508 0 1.011.094 1.47.275.683.464 1.131 1.12 1.257 1.84.523 1.283.41 2.683-.315 3.9a16.406 16.406 0 013.721-1.124 5.675 5.675 0 011.967.016 5.19 5.19 0 011.783.678c.906.702 1.444 1.663 1.504 2.683.294 2.862-1.828 5.6-4.683 7.23z" fill="#263238"/><path d="M139.127 85.191l-6.205-2.846a3.1 3.1 0 01.883-.92 3.858 3.858 0 011.254-.562 4.306 4.306 0 011.422-.112 4.13 4.13 0 011.361.355c.421.193.789.454 1.081.766.294.312.508.67.628 1.052.119.382.144.78.072 1.17-.074.389-.242.763-.496 1.097zM192.197 96.754l-19.891 3.042.18.789 19.89-3.041-.179-.79z" fill="#263238"/><path d="M214 128.301c-.532-.733-1.723-.881-2.711-1.162-1.829-.522-3.256-1.715-5.017-2.339a11.94 11.94 0 00-6.338-.351 18.41 18.41 0 00-2.113.554 29.235 29.235 0 00-3.807 1.559c-5.044 2.441-8.832 7.97-13.79 10.505-1.848.943-3.57 1.801-5.274 2.659l11.869 8.617a71.402 71.402 0 015.844-3.642c2.912-1.419 5.853-1.45 9.127-1.84a53.484 53.484 0 006.661-1.365 3.35 3.35 0 001.12-.358c.339-.181.629-.417.851-.695a1.36 1.36 0 00-.146-1.209c-.237-.372-.643-.654-1.13-.787a20.639 20.639 0 00-3.455-.39c-.856-.109-3.14.304-3.644-.398-.267-.374.066-.826.39-1.162 2.056-2.097 4.653-4.343 7.937-4.975a7.798 7.798 0 002.855-.944c.431-.248.743-.61.882-1.025a1.548 1.548 0 00-.111-1.252z" fill="#FFA8A7"/><path d="M143.201 118.631c-12.573-5.623-24.023-2.012-28.143 5.217-3.741 6.543-11.583 31.857-11.583 31.857 3.769 5.817 39.726-37.074 39.726-37.074z" fill="#5BBD81"/><path d="M141.316 120.659l1.903-2.036c-14.2-5.521-26.906 1.732-38.069 16.003-12.069 15.378-18.398 37.432-18.455 60.757 0 0 2.408 10.473 18.55 15.706 17.131 5.56 41.029 3.205 48.481-11.347 0 0 .152-14.528 5.539-21.687 3.494-4.632 11.63-14.918 17.683-22.303 5.273-6.426 9.375-21.056-1.636-26.398a102.675 102.675 0 00-8.956-3.743c-10.07 2.714-26.335-1.693-25.04-4.952z" fill="#5BBD81"/><path opacity=".75" d="M141.354 120.713l1.847-2.09c-14.2-5.521-26.906 1.732-38.07 16.003-12.068 15.378-18.397 37.432-18.454 60.757 0 0 2.408 10.473 18.549 15.706 17.131 5.56 41.029 3.205 48.482-11.347 0 0 .151-14.528 5.539-21.687 3.493-4.632 11.629-14.918 17.683-22.303 5.272-6.426 9.375-21.056-1.637-26.398a102.546 102.546 0 00-8.956-3.743c-10.051 2.714-26.278-1.638-24.983-4.898z" fill="#fff"/><path opacity=".1" d="M181.489 146.432c.769-2.778.918-5.647.437-8.469-2.568 4.961-6.197 9.507-10.716 13.421-5.777 4.984-12.906 8.867-18.263 14.155-5.711 5.599-9.757 12.376-14.514 18.49-1.905 2.456-4.512 7.19-8.053 7.385-4.32.226-8.451-4.087-10.802-7.066-3.807-4.741-6.985-10.676-11.658-14.817-4.083-3.641-10.403-8.305-15.96-6.192a94.269 94.269 0 00-1.181 3.666 98.006 98.006 0 00-1.037 3.766v.148a131.21 131.21 0 00-.885 3.806c.005.068.005.135 0 .203a88.211 88.211 0 00-.714 3.79 101.168 101.168 0 00-1.418 16.696s2.408 10.474 18.549 15.706c17.13 5.561 41.029 3.205 48.481-11.346 0 0 .152-14.529 5.539-21.688.543-.717 1.208-1.559 1.903-2.55l.125-.164c.619-.779 1.285-1.661 2.008-2.581 0-.054.085-.109.133-.164a.206.206 0 010-.07c1.541-1.973 3.273-4.156 5.063-6.41l.809-1.022c1.732-2.168 3.493-4.359 5.168-6.426.562-.694 1.113-1.372 1.666-2.035.227-.289.466-.569.685-.85.19-.226.381-.476.561-.725l.172-.234.399-.577.171-.265.429-.687c.031-.061.065-.121.105-.179.18-.304.352-.616.522-.936v-.093c.153-.297.305-.593.449-.89 0-.077.066-.148.094-.218.133-.288.267-.577.391-.865v-.172a24.599 24.599 0 001.141-3.385v-.07l.201-.086z" fill="#5BBD81"/><path d="M247.339 160.586c-.9.896-1.886 1.731-2.95 2.496-4.34 3.221-9.413 4.772-15.314 7.907-4.758 2.535-12.116 6.239-18.311 9.398-6.272 3.158-12.982 5.692-19.986 7.548-5.711 1.389-8.975 1.443-12.373-6.106-1.666-3.704-2.989-7.51-4.435-11.276a1671.49 1671.49 0 01-6.32-16.853s-7.614-15.464 9.518-23.231c7.452 3.494 10.288 4.905 12.629 12.22 2.798 8.758 7.328 26.039 7.328 26.039a168.488 168.488 0 0017.693-6.176c2.171-.882 4.844-1.498 6.396-3.081a23.605 23.605 0 002.722-3.478c.733-1.076 1.256-2.246 2.066-3.275a32.003 32.003 0 015.624-5.077c.344-.345.827-.58 1.361-.663.284.002.562.067.805.188s.441.293.575.498c.629.905.048 1.786-.276 2.706-.371 1.053-.742 2.106-1.104 3.12 4.357-2.075 8.088-4.927 10.916-8.345.24-.324.528-.622.857-.889a1.76 1.76 0 01.587-.303c.221-.065.454-.092.688-.079 1.143.117 2.275 1.63 2.332 2.496a11.76 11.76 0 00.085 2.644c.257.779.952 1.481 1.247 2.277.316.823.533 1.669.648 2.526.137 1.873-.47 3.731-1.732 5.295a12.893 12.893 0 01-1.276 1.474z" fill="#FFA8A7"/><path d="M176.14 129.822c6.519 2.16 11.221 4.601 14.191 12.758 2.968 8.157 6.204 21.282 6.204 21.282s.058 2.737-7.86 6.566c-2.28 1.125-4.816 1.855-7.453 2.146a23.641 23.641 0 01-7.881-.454l-5.976-15.752s-10.602-21.103 8.775-26.546zM137.88 252.694c-5.234-.218-9.337-3.369-21.785-7.619-22.994-7.853-40.24-14.147-46.816-24.004-6.577-9.857-11.221-38.352-9.575-50.689.153-1.397.53-2.771 1.123-4.087l-1.617-.195 4.187-2.924c4.302-2.87 11.288-.312 16.56 2.043 15.057 6.707 26.83 13.257 36.166 36.785 6.995 17.71 11.612 33.869 21.282 42.509" fill="#5BBD81"/><path opacity=".3" d="M60.828 166.295l-1.619-.195 4.188-2.924c4.302-2.87 11.288-.312 16.56 2.043 15.057 6.707 26.83 13.257 36.166 36.785 6.995 17.71 11.612 33.869 21.282 42.509l.503 8.173c-5.234-.218-9.336-3.369-21.785-7.619-23.022-7.845-40.268-14.139-46.844-23.996-6.577-9.857-11.221-38.352-9.575-50.689.157-1.397.535-2.77 1.123-4.087z" fill="#000"/><path d="M75.599 168.26c15.047 6.707 26.82 13.258 36.166 36.785 9.346 23.528 14.399 44.358 32.739 48.39 0 0-8.29 2.706-33.701-6.107-8.09-2.799-17.902-7.907-24.345-10.871-12.63-5.809-20.29-10.566-21.5-12.352-6.662-9.818-11.22-38.353-9.584-50.69 1.637-12.337 12.678-8.524 20.225-5.155zM160.208 63.8l-4.13-6.402 3.341-7.916V44.64l-10.232 4.842v4.843l4.397 6.239a.57.57 0 00.305.218l6.319 3.018z" fill="#5BBD81"/><path opacity=".2" d="M160.208 63.8l-4.13-6.402 3.341-7.916V44.64l-10.232 4.842v4.843l4.397 6.239a.57.57 0 00.305.218l6.319 3.018z" fill="#000"/><path d="M184.629 6.14a4.858 4.858 0 00-.901-2.481c-.535-.758-1.278-1.401-2.173-1.88L179.062.603a8.018 8.018 0 00-3.07-.602 8.02 8.02 0 00-3.069.602l-38.307 18.163c-.893.478-1.636 1.122-2.168 1.88a4.851 4.851 0 00-.897 2.48v34.554c.058.871.367 1.72.899 2.475.532.756 1.274 1.399 2.166 1.876l2.503 1.186a8.013 8.013 0 003.069.602 8.018 8.018 0 003.07-.602l12.324-5.834 4.398 6.24a.6.6 0 00.264.21.77.77 0 00.705-.055.536.536 0 00.21-.25l4.645-10.98 15.779-7.486c.891-.481 1.631-1.127 2.159-1.886.53-.758.834-1.608.887-2.481V6.139z" fill="#5BBD81"/><path opacity=".2" d="M131.551 57.679c.058.871.367 1.72.899 2.475.532.756 1.274 1.399 2.166 1.876l2.503 1.186c.865.356 1.813.559 2.781.594a8.23 8.23 0 002.834-.392c-1.447.445-2.55-.218-2.55-1.653V27.21c.04-.876.351-1.729.903-2.48l-8.641-4.086c-.55.751-.858 1.605-.895 2.48v34.555z" fill="#000"/><path opacity=".5" d="M184.553 5.422c-.352-1.069-1.541-1.404-2.959-.741l-38.336 18.17c-.909.46-1.655 1.108-2.16 1.88l-8.642-4.087c.513-.764 1.258-1.408 2.16-1.871L172.943.603A8.011 8.011 0 01176.011 0c1.067 0 2.119.206 3.07.602l2.513 1.186a6.314 6.314 0 011.937 1.567 5.017 5.017 0 011.022 2.067z" fill="#fff"/><path d="M145.827 40.772a1.544 1.544 0 01.153-.718 5.17 5.17 0 01.447-.67l8.337-11.035a.593.593 0 01.133-.133l.096-.055a.257.257 0 01.152-.047c.057 0 .11.017.153.047a.391.391 0 01.132.335v4.259c.011.308-.074.614-.247.889a5.444 5.444 0 01-.419.585l-4.301 5.365 4.301 1.622c.147.04.288.095.419.164.162.086.247.304.247.647v3.026a.873.873 0 01-.132.452.697.697 0 01-.305.312h-.096a.265.265 0 01-.133 0l-8.337-3.12a1.155 1.155 0 01-.447-.249.781.781 0 01-.153-.57v-1.106zM163.987 23.724c.08-.235.186-.465.314-.686.132-.226.344-.413.608-.538l2.789-1.35a.283.283 0 01.162-.048.28.28 0 01.161.049.419.419 0 01.134.343.925.925 0 010 .257l-7.043 24.597a2.935 2.935 0 01-.294.663 1.382 1.382 0 01-.619.553l-2.732 1.295a.281.281 0 01-.162.049.28.28 0 01-.161-.05.423.423 0 01-.112-.16.34.34 0 01-.021-.182.804.804 0 010-.25l6.976-24.542zM179.3 27.701c.009.245-.043.49-.153.718a5.165 5.165 0 01-.447.67l-8.346 11.043a1.23 1.23 0 01-.134.125l-.095.062a.274.274 0 01-.158.049.273.273 0 01-.157-.049.412.412 0 01-.105-.157.363.363 0 01-.018-.178V35.71a1.5 1.5 0 01.237-.873c.163-.234.305-.421.43-.57l3.644-4.616-3.644-1.139a1.668 1.668 0 01-.43-.179c-.161-.093-.237-.312-.237-.663v-4.258a.897.897 0 01.123-.452.783.783 0 01.315-.304h.229l8.337 3.12c.201.043.374.148.486.293a.58.58 0 01.113.486l.01 1.146z" fill="#fff"/><path d="M68.042 1.811L16.753 26.026a2.57 2.57 0 00-.901.775c-.222.313-.35.665-.374 1.026v23.465c.016.367.14.726.363 1.045.222.32.535.59.912.788l5.064 2.34a3.38 3.38 0 001.275.246c.443 0 .88-.084 1.275-.246l51.289-24.176c.37-.2.676-.467.898-.781.221-.314.35-.666.377-1.028V5.96a1.973 1.973 0 00-.371-1.024 2.541 2.541 0 00-.904-.77l-5.063-2.339a3.375 3.375 0 00-1.273-.254 3.386 3.386 0 00-1.278.238z" fill="#263238"/><path d="M76.914 5.772c-.096-.53-.619-.717-1.257-.42l-51.28 24.213a2.418 2.418 0 00-.903.78l-7.614-3.58c.203-.318.505-.587.875-.78l51.29-24.174a3.38 3.38 0 011.275-.247c.443 0 .879.085 1.275.247l5.063 2.34c.341.18.632.418.852.698.22.28.364.594.424.923z" fill="#455A64"/><path d="M75.656 5.359l-51.29 24.175c-.366.2-.672.469-.892.783-.22.314-.347.665-.373 1.026v23.49c0 .662.571.935 1.266.6l51.289-24.175c.369-.2.676-.468.898-.782.22-.314.35-.666.377-1.028V5.96c0-.662-.57-.935-1.275-.6z" fill="#37474F"/><path d="M35.778 35.578V39.111c.022.255.07.508.143.756.057.22.182.424.362.593.164.138.384.221.618.234.34-.007.67-.093.952-.25.356-.155.678-.358.952-.6.44-.393.765-.862.952-1.373.076-.233.142-.436.18-.623.036-.19.097-.375.181-.554a.798.798 0 01.38-.312l2.085-1.014a.228.228 0 01.129-.038c.047 0 .092.014.128.038a.338.338 0 01.105.273 6.74 6.74 0 01-.41 2.176 9.011 9.011 0 01-1.075 2.121 10.812 10.812 0 01-1.618 1.848 8.132 8.132 0 01-2.008 1.38 4.928 4.928 0 01-2.103.554 2.752 2.752 0 01-1.58-.46 2.896 2.896 0 01-1.009-1.31 6.19 6.19 0 01-.4-1.973v-1.801-1.872a8.94 8.94 0 01.39-2.34c.24-.78.577-1.538 1.01-2.261a9.668 9.668 0 011.58-1.957 8.052 8.052 0 012.112-1.443 5.161 5.161 0 012.008-.546 3.187 3.187 0 011.618.32c.488.267.864.65 1.076 1.1.28.566.42 1.173.409 1.785a.798.798 0 01-.105.374.594.594 0 01-.257.258l-2.141 1.014c-.19.085-.314.101-.38.039a.797.797 0 01-.182-.375 2.445 2.445 0 00-.18-.452.89.89 0 00-.353-.359 1.206 1.206 0 00-.59-.125c-.34.025-.667.12-.951.273a3.327 3.327 0 00-.952.632 3.699 3.699 0 00-.98 1.762c-.06.323-.093.649-.096.975zM49.712 23.28a5.025 5.025 0 011.904-.522 3.194 3.194 0 011.513.265c.43.195.778.49 1 .85.239.363.375.765.399 1.177a.8.8 0 01-.105.375.575.575 0 01-.238.241l-2.15 1.022a.677.677 0 01-.372.086.708.708 0 01-.285-.11l-.153-.132a.772.772 0 00-.304-.156 1.39 1.39 0 00-.495 0 2.232 2.232 0 00-.714.226c-.21.1-.41.212-.6.336a3.335 3.335 0 00-.504.405c-.15.148-.27.314-.361.491a1.23 1.23 0 00-.143.585.57.57 0 00.162.445c.072.05.155.087.245.11a.85.85 0 00.278.022c.322-.01.642-.052.952-.124l1.504-.32a5.945 5.945 0 011.57-.164c.411.011.807.135 1.123.351.33.246.564.566.676.92.159.51.232 1.034.218 1.56a5.852 5.852 0 01-.37 2.059c-.253.668-.601 1.31-1.038 1.91-.45.604-.99 1.16-1.608 1.654a9.932 9.932 0 01-2.028 1.27 5.65 5.65 0 01-2.027.586 3.166 3.166 0 01-1.58-.234 2.227 2.227 0 01-1.037-.882 2.584 2.584 0 01-.419-1.349.717.717 0 01.114-.374.537.537 0 01.238-.25l2.142-1.013a.772.772 0 01.361-.094.574.574 0 01.257.094c.071.053.138.11.2.171.1.091.219.165.352.219.173.065.363.092.552.078a2.18 2.18 0 00.828-.25 6.164 6.164 0 001.456-.92c.364-.305.572-.712.581-1.139a.372.372 0 00-.04-.23.475.475 0 00-.179-.183 1.336 1.336 0 00-.638-.078c-.367.03-.73.088-1.085.171-.447.102-.951.211-1.56.328-.41.137-.858.176-1.294.114a2.603 2.603 0 01-1.171-.465c-.614-.72-.89-1.598-.78-2.472a5.93 5.93 0 01.313-1.848c.228-.65.547-1.275.952-1.864.4-.605.893-1.166 1.466-1.669a8.042 8.042 0 011.922-1.279zM61.57 17.673a5.007 5.007 0 011.904-.53 3.39 3.39 0 011.513.265c.408.204.738.499.952.85.237.374.367.787.38 1.208a.716.716 0 01-.114.375.516.516 0 01-.238.241l-2.141 1.014a.695.695 0 01-.371.094.655.655 0 01-.286-.11l-.152-.132a.842.842 0 00-.305-.156 1.228 1.228 0 00-.495 0 2.169 2.169 0 00-.713.226c-.21.1-.41.212-.6.336-.187.12-.36.256-.514.405a1.89 1.89 0 00-.352.491 1.228 1.228 0 00-.143.585.533.533 0 00.153.437c.07.051.154.09.244.115.09.024.185.032.28.025.321-.01.64-.052.95-.124l1.505-.32a5.928 5.928 0 011.684-.203c.41.012.804.133 1.123.343.33.25.564.572.676.928a4.8 4.8 0 01.219 1.56 5.703 5.703 0 01-.381 2.059 7.522 7.522 0 01-1.056 1.918 9.112 9.112 0 01-1.6 1.653c-.608.492-1.289.919-2.026 1.272a5.65 5.65 0 01-2.028.584 3.408 3.408 0 01-1.589-.233 2.27 2.27 0 01-1.037-.882 2.502 2.502 0 01-.4-1.364c0-.129.04-.254.114-.367a.53.53 0 01.229-.25l2.15-1.013a.931.931 0 01.362-.102.574.574 0 01.257.094c.07.057.137.116.2.18.098.09.218.161.352.21.17.07.363.098.552.078.295-.027.579-.11.828-.242.54-.248 1.03-.56 1.456-.928.365-.301.573-.706.58-1.13a.373.373 0 00-.04-.232.474.474 0 00-.178-.182 1.243 1.243 0 00-.638-.078 6.52 6.52 0 00-1.085.172c-.444.098-.967.207-1.57.327a2.88 2.88 0 01-1.293.11 2.636 2.636 0 01-1.172-.46c-.604-.725-.877-1.6-.77-2.473a5.933 5.933 0 01.313-1.848c.228-.65.547-1.275.952-1.864a8.615 8.615 0 011.465-1.677 8.01 8.01 0 011.894-1.255z" fill="#F0F0F0"/><path d="M68.042 50.566L16.753 74.741c-.369.2-.676.468-.898.782-.22.314-.35.666-.377 1.028v23.457c.024.361.152.711.374 1.023.221.312.53.576.901.771l5.064 2.339c.395.162.832.247 1.275.247.443 0 .88-.085 1.275-.247l51.289-24.175c.37-.2.676-.467.898-.781.221-.314.35-.666.377-1.028V54.684a1.989 1.989 0 00-.373-1.023 2.555 2.555 0 00-.902-.77l-5.063-2.34a3.386 3.386 0 00-1.278-.239c-.442.003-.878.09-1.273.254z" fill="#263238"/><path d="M76.914 54.52c-.096-.522-.619-.71-1.257-.413l-51.28 24.175a2.419 2.419 0 00-.903.78l-7.614-3.58a2.31 2.31 0 01.875-.74l51.29-24.175a3.38 3.38 0 011.275-.247c.442 0 .879.085 1.275.247l5.063 2.34c.344.176.636.412.856.69.22.28.364.594.42.923z" fill="#455A64"/><path d="M75.656 54.107l-51.29 24.175c-.366.201-.672.469-.892.783-.22.314-.347.665-.373 1.026v23.489c0 .663.571.936 1.266.601l51.289-24.175c.369-.2.676-.468.898-.782.22-.314.35-.666.377-1.028V54.684c0-.64-.57-.912-1.275-.577z" fill="#37474F"/><path d="M36.016 78.719a.27.27 0 01.157-.049.27.27 0 01.157.049.44.44 0 01.109.157.376.376 0 01.025.178v13.343a.915.915 0 01-.134.453.67.67 0 01-.314.312l-2.141 1.013a.258.258 0 01-.157.052.258.258 0 01-.157-.052.435.435 0 01-.107-.152.372.372 0 01-.026-.175v-5.061l-3.636 1.715v5.062a.93.93 0 01-.124.46.837.837 0 01-.314.311l-2.141 1.014a.295.295 0 01-.157.044.295.295 0 01-.157-.044.438.438 0 01-.11-.16.375.375 0 01-.024-.183v-13.35a.95.95 0 01.134-.46.754.754 0 01.314-.313l2.141-1.013c.044-.03.1-.047.157-.047.058 0 .113.017.157.047a.422.422 0 01.103.153.362.362 0 01.021.174v4.975l3.636-1.715v-4.96a.943.943 0 01.133-.452.713.713 0 01.314-.312l2.141-1.014zM47.99 73.057a.258.258 0 01.156-.051c.059 0 .115.018.157.051a.432.432 0 01.107.153.37.37 0 01.027.175v2.191a.895.895 0 01-.134.452.733.733 0 01-.314.32l-2.855 1.357v10.598a.88.88 0 01-.438.772l-2.141 1.014a.296.296 0 01-.157.044.296.296 0 01-.157-.044.44.44 0 01-.108-.157.375.375 0 01-.025-.178V79.154l-2.856 1.365a.282.282 0 01-.157.046.283.283 0 01-.157-.046.432.432 0 01-.103-.157.373.373 0 01-.02-.178V78a.93.93 0 01.123-.46.762.762 0 01.314-.312l8.737-4.172zM55.517 80.31a.938.938 0 01-.228-.234l-1.533-2.683v6.84a.916.916 0 01-.133.452.67.67 0 01-.314.312l-2.141 1.014a.257.257 0 01-.157.05.258.258 0 01-.157-.05.433.433 0 01-.107-.153.369.369 0 01-.027-.175V72.317a.915.915 0 01.134-.453.712.712 0 01.314-.312l1.903-.896c.21-.11.38-.11.486 0 .083.07.156.149.218.233l2.646 4.461 2.656-6.972c.06-.148.13-.294.209-.436a1.11 1.11 0 01.495-.46l1.903-.897a.272.272 0 01.153-.045c.055 0 .11.016.152.045a.439.439 0 01.108.156.377.377 0 01.025.18v13.342a.949.949 0 01-.133.46.831.831 0 01-.305.312l-2.15 1.014a.283.283 0 01-.158.046.283.283 0 01-.157-.046.409.409 0 01-.104-.153.35.35 0 01-.02-.174v-6.84l-1.541 4.141c-.063.152-.136.3-.22.445a.856.856 0 01-.39.358l-1.046.492c-.162.101-.286.101-.38-.008zM73.277 72.254a.27.27 0 01.157-.049.27.27 0 01.157.049.425.425 0 01.108.153.366.366 0 01.025.175v2.19a.916.916 0 01-.133.453.67.67 0 01-.314.312l-7.614 3.587a.27.27 0 01-.157.049.27.27 0 01-.157-.049.432.432 0 01-.107-.152.37.37 0 01-.026-.175V65.454a.916.916 0 01.133-.453.67.67 0 01.314-.311l2.141-1.014a.258.258 0 01.157-.052c.059 0 .115.019.157.052.046.045.081.097.102.153a.369.369 0 01.022.174v10.598l5.035-2.347z" fill="#F0F0F0"/><path d="M68.042 99.316L16.753 123.53c-.37.197-.68.462-.901.775-.222.313-.35.665-.374 1.026v23.458c.022.361.149.712.37 1.024.222.313.533.576.905.77l5.064 2.339c.395.162.832.247 1.275.247.443 0 .88-.085 1.275-.247l51.289-24.214c.371-.196.68-.462.902-.775.221-.313.35-.665.373-1.026v-23.442a1.984 1.984 0 00-.371-1.027 2.555 2.555 0 00-.904-.775l-5.063-2.34a3.377 3.377 0 00-1.274-.25 3.38 3.38 0 00-1.277.243z" fill="#263238"/><path d="M76.914 103.268c-.096-.522-.619-.71-1.257-.413l-51.28 24.175c-.378.191-.69.46-.903.78l-7.614-3.58c.204-.317.506-.586.875-.78l51.29-24.175a3.38 3.38 0 011.275-.246c.443 0 .879.084 1.275.246l5.063 2.34c.349.181.643.424.864.709.22.286.361.608.412.944z" fill="#455A64"/><path d="M75.656 102.855l-51.29 24.175c-.365.2-.67.467-.89.779a2.05 2.05 0 00-.375 1.022v23.458c0 .671.571.936 1.266.608l51.289-24.214c.37-.196.68-.462.901-.775.222-.313.35-.665.374-1.026v-23.419c0-.67-.57-.936-1.275-.608z" fill="#37474F"/><path d="M36.768 132.606V136.139c.022.283.073.565.153.842.057.219.181.423.361.592.164.138.385.222.62.234.339-.006.67-.093.95-.249.354-.155.675-.355.953-.593.224-.212.421-.442.59-.686a3.23 3.23 0 00.352-.694 5.52 5.52 0 00.18-.624c.037-.189.097-.375.181-.554a.887.887 0 01.381-.312l2.142-1.013a.226.226 0 01.128-.039c.047 0 .093.014.129.039a.336.336 0 01.104.272 6.734 6.734 0 01-.409 2.176 8.678 8.678 0 01-1.085 2.121c-.45.664-.989 1.284-1.608 1.849a7.975 7.975 0 01-2.009 1.349 4.813 4.813 0 01-2.103.553 2.746 2.746 0 01-1.58-.46 2.889 2.889 0 01-1.009-1.31 6.138 6.138 0 01-.4-1.973v-1.801-1.872a8.931 8.931 0 01.39-2.339c.24-.781.578-1.539 1.01-2.262a9.674 9.674 0 011.58-1.957 8.226 8.226 0 012.112-1.443 5.175 5.175 0 012.008-.546 3.203 3.203 0 011.609.32c.491.266.87.65 1.085 1.099.282.57.421 1.18.41 1.794a.793.793 0 01-.105.367.593.593 0 01-.257.257l-2.142 1.014c-.19.085-.314.101-.38.046a.871.871 0 01-.181-.382 2.452 2.452 0 00-.181-.452.942.942 0 00-.352-.359 1.228 1.228 0 00-.59-.124c-.34.024-.667.118-.952.272a3.36 3.36 0 00-.952.632 3.867 3.867 0 00-.619.827 3.678 3.678 0 00-.361.936 6.727 6.727 0 00-.153.92zM51.806 129.853v3.408a.95.95 0 01-.133.46.833.833 0 01-.305.312l-2.065.975a.3.3 0 01-.314 0 .44.44 0 01-.108-.157.371.371 0 01-.025-.178v-3.408l-2.532 1.201a.272.272 0 01-.157.048.272.272 0 01-.157-.048.44.44 0 01-.108-.157.377.377 0 01-.025-.179v-2.113a.893.893 0 01.133-.452.73.73 0 01.314-.32l2.532-1.201v-3.408a.914.914 0 01.133-.452.706.706 0 01.314-.312l2.084-.975a.257.257 0 01.152-.048c.057 0 .11.017.153.048a.423.423 0 01.107.153.366.366 0 01.026.174v3.416l2.522-1.193a.257.257 0 01.157-.051c.058 0 .115.018.157.051a.432.432 0 01.107.153.368.368 0 01.026.175v2.089a.918.918 0 01-.133.453.676.676 0 01-.314.312l-2.541 1.224zM62.665 124.722v3.407a.943.943 0 01-.133.453.716.716 0 01-.314.312l-2.056.975a.272.272 0 01-.157.048.272.272 0 01-.157-.048.441.441 0 01-.107-.153.37.37 0 01-.026-.175v-3.416l-2.541 1.201a.243.243 0 01-.153.051.243.243 0 01-.152-.051.426.426 0 01-.107-.152.372.372 0 01-.026-.175v-2.129a.918.918 0 01.133-.453.696.696 0 01.305-.311l2.54-1.201v-3.408a.942.942 0 01.134-.46.752.752 0 01.314-.312l2.056-.975a.29.29 0 01.157-.044.29.29 0 01.157.044.445.445 0 01.108.156.378.378 0 01.025.179v3.408l2.522-1.193a.28.28 0 01.157-.046c.058 0 .113.016.157.046.047.046.082.1.103.157a.374.374 0 01.021.178v2.082a.886.886 0 01-.124.453.72.72 0 01-.314.312l-2.522 1.24z" fill="#F0F0F0"/></g><defs><clipPath id="prefix__clip0"><path fill="#fff" d="M0 0h428v360H0z"/></clipPath></defs></svg>
