<svg width="24" height="24" viewBox="0 0 24 24" fill="none" xmlns="http://www.w3.org/2000/svg">
<rect width="24" height="24" fill="white" fill-opacity="0.01"/>
<path fill-rule="evenodd" clip-rule="evenodd" d="M6 17H18C18.2652 17 18.5196 17.1054 18.7071 17.2929C18.8946 17.4804 19 17.7348 19 18C19 18.2652 18.8946 18.5196 18.7071 18.7071C18.5196 18.8946 18.2652 19 18 19H6C5.73478 19 5.48043 18.8946 5.29289 18.7071C5.10536 18.5196 5 18.2652 5 18C5 17.7348 5.10536 17.4804 5.29289 17.2929C5.48043 17.1054 5.73478 17 6 17ZM6 9H10C10.2652 9 10.5196 9.10536 10.7071 9.29289C10.8946 9.48043 11 9.73478 11 10V14C11 14.2652 10.8946 14.5196 10.7071 14.7071C10.5196 14.8946 10.2652 15 10 15H6C5.73478 15 5.48043 14.8946 5.29289 14.7071C5.10536 14.5196 5 14.2652 5 14V10C5 9.73478 5.10536 9.48043 5.29289 9.29289C5.48043 9.10536 5.73478 9 6 9ZM6 5H18C18.2652 5 18.5196 5.10536 18.7071 5.29289C18.8946 5.48043 19 5.73478 19 6C19 6.26522 18.8946 6.51957 18.7071 6.70711C18.5196 6.89464 18.2652 7 18 7H6C5.73478 7 5.48043 6.89464 5.29289 6.70711C5.10536 6.51957 5 6.26522 5 6C5 5.73478 5.10536 5.48043 5.29289 5.29289C5.48043 5.10536 5.73478 5 6 5Z" fill="#42526E"/>
</svg>
