<svg width="24" height="24" viewBox="0 0 24 24" fill="none" xmlns="http://www.w3.org/2000/svg">
<rect width="24" height="24" fill="white" fill-opacity="0.01"/>
<path fill-rule="evenodd" clip-rule="evenodd" d="M7 11H17C17.2652 11 17.5196 11.1054 17.7071 11.2929C17.8946 11.4804 18 11.7348 18 12C18 12.2652 17.8946 12.5196 17.7071 12.7071C17.5196 12.8946 17.2652 13 17 13H7C6.73478 13 6.48043 12.8946 6.29289 12.7071C6.10536 12.5196 6 12.2652 6 12C6 11.7348 6.10536 11.4804 6.29289 11.2929C6.48043 11.1054 6.73478 11 7 11ZM9.5 15H14.5C14.7652 15 15.0196 15.1054 15.2071 15.2929C15.3946 15.4804 15.5 15.7348 15.5 16C15.5 16.2652 15.3946 16.5196 15.2071 16.7071C15.0196 16.8946 14.7652 17 14.5 17H9.5C9.23478 17 8.98043 16.8946 8.79289 16.7071C8.60536 16.5196 8.5 16.2652 8.5 16C8.5 15.7348 8.60536 15.4804 8.79289 15.2929C8.98043 15.1054 9.23478 15 9.5 15ZM9.5 7H14.5C14.7652 7 15.0196 7.10536 15.2071 7.29289C15.3946 7.48043 15.5 7.73478 15.5 8C15.5 8.26522 15.3946 8.51957 15.2071 8.70711C15.0196 8.89464 14.7652 9 14.5 9H9.5C9.23478 9 8.98043 8.89464 8.79289 8.70711C8.60536 8.51957 8.5 8.26522 8.5 8C8.5 7.73478 8.60536 7.48043 8.79289 7.29289C8.98043 7.10536 9.23478 7 9.5 7Z" fill="#42526E"/>
</svg>
