<svg width="24" height="24" viewBox="0 0 24 24" fill="none" xmlns="http://www.w3.org/2000/svg">
<rect width="24" height="24" fill="white" fill-opacity="0.01"/>
<path d="M17.222 11.557L12.11 16.64C11.5466 17.1988 10.7854 17.5127 9.99181 17.5134C9.19826 17.5142 8.43647 17.2017 7.87199 16.644C7.59486 16.3679 7.37501 16.0398 7.22505 15.6785C7.0751 15.3172 6.998 14.9298 6.99819 14.5386C6.99838 14.1474 7.07584 13.7601 7.22614 13.3989C7.37643 13.0378 7.5966 12.7098 7.87399 12.434L13.339 7C13.6668 6.67243 14.1111 6.48825 14.5746 6.48787C15.038 6.4875 15.4827 6.67096 15.811 6.998C16.494 7.677 16.495 8.773 15.813 9.45L10.687 14.545C10.6407 14.5906 10.5859 14.6266 10.5257 14.6509C10.4654 14.6753 10.401 14.6875 10.336 14.6868C10.2711 14.6862 10.2069 14.6727 10.1472 14.6471C10.0874 14.6216 10.0333 14.5845 9.98799 14.538C9.94102 14.4925 9.90368 14.438 9.87818 14.3778C9.85268 14.3176 9.83954 14.2529 9.83954 14.1875C9.83954 14.1221 9.85268 14.0574 9.87818 13.9972C9.90368 13.937 9.94102 13.8825 9.98799 13.837L14.752 9.102C14.8215 9.03319 14.8767 8.95127 14.9144 8.86098C14.9521 8.7707 14.9715 8.67383 14.9715 8.576C14.9715 8.47817 14.9521 8.38131 14.9144 8.29102C14.8767 8.20073 14.8215 8.11882 14.752 8.05C14.6112 7.91065 14.4211 7.83248 14.223 7.83248C14.0249 7.83248 13.8348 7.91065 13.694 8.05L8.92999 12.785C8.74419 12.9683 8.59666 13.1866 8.49597 13.4274C8.39528 13.6682 8.34342 13.9265 8.34342 14.1875C8.34342 14.4485 8.39528 14.7068 8.49597 14.9476C8.59666 15.1884 8.74419 15.4067 8.92999 15.59C9.71099 16.367 10.968 16.37 11.746 15.597L16.872 10.503C17.173 10.2047 17.4118 9.84966 17.5747 9.45846C17.7376 9.06726 17.8214 8.64764 17.8211 8.22388C17.8208 7.80011 17.7365 7.3806 17.5731 6.98962C17.4097 6.59863 17.1704 6.24392 16.869 5.946C16.2591 5.3397 15.434 4.99955 14.5741 4.99992C13.7141 5.0003 12.8893 5.34117 12.28 5.948L6.81399 11.381C6.3977 11.7946 6.06731 12.2864 5.84183 12.8282C5.61634 13.37 5.50022 13.951 5.50012 14.5378C5.50003 15.1246 5.61597 15.7057 5.84129 16.2475C6.0666 16.7893 6.39684 17.2813 6.81299 17.695C7.65911 18.5318 8.80131 19.0007 9.99131 19C11.1813 18.9992 12.3229 18.5288 13.168 17.691L18.281 12.61C18.3507 12.5412 18.406 12.4592 18.4438 12.3688C18.4815 12.2784 18.501 12.1815 18.501 12.0835C18.501 11.9855 18.4815 11.8886 18.4438 11.7982C18.406 11.7078 18.3507 11.6258 18.281 11.557C18.1401 11.4173 17.9498 11.339 17.7515 11.339C17.5531 11.339 17.3628 11.4173 17.222 11.557Z" fill="#42526E"/>
</svg>
