<svg width="24" height="24" viewBox="0 0 24 24" fill="none" xmlns="http://www.w3.org/2000/svg">
<rect width="24" height="24" fill="white" fill-opacity="0.01"/>
<path d="M7.81806 12.56L12.0611 16.803L16.3031 12.561L12.0611 8.318L7.81806 12.561V12.56ZM6.40406 13.975C6.21781 13.7896 6.07002 13.5693 5.96917 13.3266C5.86832 13.084 5.81641 12.8238 5.81641 12.561C5.81641 12.2982 5.86832 12.038 5.96917 11.7954C6.07002 11.5527 6.21781 11.3324 6.40406 11.147L10.6471 6.904C10.8324 6.71775 11.0528 6.56996 11.2954 6.46911C11.5381 6.36826 11.7983 6.31635 12.0611 6.31635C12.3238 6.31635 12.584 6.36826 12.8267 6.46911C13.0693 6.56996 13.2897 6.71775 13.4751 6.904L17.7181 11.147C18.4981 11.927 18.5041 13.188 17.7181 13.975L13.4751 18.218C13.2896 18.4041 13.0693 18.5518 12.8266 18.6526C12.584 18.7534 12.3238 18.8052 12.0611 18.8052C11.7983 18.8052 11.5382 18.7534 11.2955 18.6526C11.0529 18.5518 10.8325 18.4041 10.6471 18.218L6.40406 13.975ZM6.50006 13H17.5001L12.0601 18.218L6.50006 13ZM9.23206 4.075C9.41959 3.88753 9.67389 3.78221 9.93906 3.78221C10.2042 3.78221 10.4585 3.88753 10.6461 4.075L14.1821 7.611L12.7681 9.025L9.23206 5.49C9.13908 5.39712 9.06532 5.28684 9.015 5.16544C8.96467 5.04404 8.93877 4.91391 8.93877 4.7825C8.93877 4.65108 8.96467 4.52096 9.015 4.39956C9.06532 4.27816 9.13908 4.16787 9.23206 4.075ZM18.0001 16C18.0001 16 19.5001 18 19.5001 19.5C19.5001 20.5 18.5001 21 18.0001 21C17.5001 21 16.5001 20.6 16.5001 19.5C16.5001 18 18.0001 16 18.0001 16Z" fill="#42526E"/>
</svg>
