<svg width="24" height="24" viewBox="0 0 24 24" fill="none" xmlns="http://www.w3.org/2000/svg">
<rect width="24" height="24" fill="white" fill-opacity="0.01"/>
<path fill-rule="evenodd" clip-rule="evenodd" d="M8 6H12.832C13.908 6 16 6.5 16 9C16 10.333 15.667 11.167 15 11.5C16.333 11.833 17 12.833 17 14.5C17 15 17 18 13 18H8C7.73478 18 7.48043 17.8946 7.29289 17.7071C7.10536 17.5196 7 17.2652 7 17V7C7 6.73478 7.10536 6.48043 7.29289 6.29289C7.48043 6.10536 7.73478 6 8 6ZM9 16H12.5C13.5 16 14.5 15.75 14.5 14.5C14.5 13.25 13.396 13 12.5 13H9V16ZM9 11.025H12C12.504 11.025 14 11.025 14 9.5C14 7.975 12 8 12 8H9V11.025Z" fill="#42526E"/>
</svg>
