<svg width="24" height="24" viewBox="0 0 24 24" fill="none" xmlns="http://www.w3.org/2000/svg">
<rect width="24" height="24" fill="white" fill-opacity="0.01"/>
<path fill-rule="evenodd" clip-rule="evenodd" d="M15.185 7.4L12.001 10.585L8.81501 7.399C8.71974 7.30584 8.59164 7.25393 8.45839 7.25449C8.32515 7.25505 8.19748 7.30804 8.10301 7.402L7.40301 8.103C7.35509 8.14897 7.31689 8.20409 7.29067 8.2651C7.26445 8.3261 7.25075 8.39175 7.25037 8.45815C7.25 8.52455 7.26296 8.59035 7.2885 8.65165C7.31403 8.71295 7.35161 8.7685 7.39901 8.815L10.584 11.999L7.40001 15.185C7.30698 15.2804 7.25525 15.4086 7.25599 15.5418C7.25674 15.6751 7.30991 15.8027 7.40401 15.897L8.10401 16.597C8.31001 16.804 8.62001 16.797 8.81601 16.601L12.002 13.416L15.186 16.601C15.2814 16.694 15.4096 16.7458 15.5428 16.745C15.6761 16.7443 15.8037 16.6911 15.898 16.597L16.599 15.897C16.6469 15.851 16.685 15.7958 16.7111 15.7347C16.7373 15.6737 16.7509 15.608 16.7511 15.5416C16.7514 15.4752 16.7384 15.4095 16.7127 15.3482C16.6871 15.2869 16.6495 15.2314 16.602 15.185L13.416 11.999L16.602 8.815C16.6952 8.71974 16.7471 8.59163 16.7465 8.45838C16.746 8.32514 16.693 8.19748 16.599 8.103L15.899 7.403C15.8521 7.35497 15.7961 7.31672 15.7343 7.29046C15.6725 7.2642 15.6061 7.25045 15.539 7.25C15.4732 7.25054 15.4081 7.26407 15.3476 7.28981C15.287 7.31555 15.2321 7.35299 15.186 7.4H15.185Z" fill="#42526E"/>
</svg>
