<svg width="24" height="24" viewBox="0 0 24 24" fill="none" xmlns="http://www.w3.org/2000/svg">
<rect width="24" height="24" fill="white" fill-opacity="0.01"/>
<path fill-rule="evenodd" clip-rule="evenodd" d="M10.208 7.308C10.3951 7.50959 10.499 7.77446 10.499 8.0495C10.499 8.32454 10.3951 8.58941 10.208 8.791L6.69297 12.501L10.208 16.209C10.3951 16.4106 10.499 16.6755 10.499 16.9505C10.499 17.2255 10.3951 17.4904 10.208 17.692C10.1184 17.7889 10.0097 17.8661 9.88882 17.919C9.76793 17.9718 9.63741 17.9991 9.50547 17.9991C9.37353 17.9991 9.24301 17.9718 9.12212 17.919C9.00123 17.8661 8.89257 17.7889 8.80297 17.692L4.93697 13.612C4.65617 13.3096 4.50012 12.9122 4.50012 12.4995C4.50012 12.0868 4.65617 11.6894 4.93697 11.387L8.80297 7.307C8.89257 7.21015 9.00123 7.13287 9.12212 7.08001C9.24301 7.02716 9.37353 6.99988 9.50547 6.99988C9.63741 6.99988 9.76793 7.02716 9.88882 7.08001C10.0097 7.13287 10.1184 7.21015 10.208 7.307V7.308ZM13.792 7.308C13.8816 7.21115 13.9902 7.13387 14.1111 7.08101C14.232 7.02816 14.3625 7.00088 14.4945 7.00088C14.6264 7.00088 14.7569 7.02816 14.8778 7.08101C14.9987 7.13387 15.1074 7.21115 15.197 7.308L19.063 11.388C19.646 12.002 19.646 12.998 19.063 13.613L15.197 17.693C15.1074 17.7899 14.9987 17.8671 14.8778 17.92C14.7569 17.9728 14.6264 18.0001 14.4945 18.0001C14.3625 18.0001 14.232 17.9728 14.1111 17.92C13.9902 17.8671 13.8816 17.7899 13.792 17.693C13.6046 17.4914 13.5004 17.2263 13.5004 16.951C13.5004 16.6757 13.6046 16.4106 13.792 16.209L17.307 12.501L13.792 8.791C13.6049 8.58941 13.5009 8.32454 13.5009 8.0495C13.5009 7.77446 13.6049 7.50959 13.792 7.308Z" fill="#42526E"/>
</svg>
