<svg width="24" height="24" viewBox="0 0 24 24" fill="none" xmlns="http://www.w3.org/2000/svg">
<rect width="24" height="24" fill="white" fill-opacity="0.01"/>
<path d="M8.062 11L6.5 9.914C6.31784 9.72539 6.21705 9.47279 6.21933 9.21059C6.2216 8.9484 6.32677 8.69759 6.51218 8.51218C6.69759 8.32677 6.9484 8.2216 7.2106 8.21932C7.4728 8.21704 7.7254 8.31784 7.914 8.5L10.53 11.116C10.81 11.283 11 11.616 11 12C11 12.384 10.81 12.717 10.53 12.884L7.914 15.5C7.82175 15.5955 7.71141 15.6717 7.5894 15.7241C7.4674 15.7765 7.33618 15.8041 7.2034 15.8052C7.07062 15.8064 6.93894 15.7811 6.81605 15.7308C6.69315 15.6805 6.5815 15.6063 6.48761 15.5124C6.39371 15.4185 6.31946 15.3068 6.26918 15.1839C6.2189 15.0611 6.1936 14.9294 6.19475 14.7966C6.1959 14.6638 6.22349 14.5326 6.2759 14.4106C6.32831 14.2886 6.40449 14.1782 6.5 14.086L8.062 13H4.382C3.895 13 3.5 12.552 3.5 12C3.5 11.448 3.895 11 4.382 11H8.062ZM13.47 12.884C13.19 12.717 13 12.384 13 12C13 11.616 13.19 11.283 13.47 11.116L16.086 8.5C16.2746 8.31784 16.5272 8.21704 16.7894 8.21932C17.0516 8.2216 17.3024 8.32677 17.4878 8.51218C17.6732 8.69759 17.7784 8.9484 17.7807 9.21059C17.783 9.47279 17.6822 9.72539 17.5 9.914L15.938 11H19.618C20.105 11 20.5 11.448 20.5 12C20.5 12.552 20.105 13 19.618 13H15.938L17.5 14.086C17.6822 14.2746 17.783 14.5272 17.7807 14.7894C17.7784 15.0516 17.6732 15.3024 17.4878 15.4878C17.3024 15.6732 17.0516 15.7784 16.7894 15.7807C16.5272 15.7829 16.2746 15.6822 16.086 15.5L13.47 12.884Z" fill="#42526E"/>
</svg>
