<svg width="24" height="24" viewBox="0 0 24 24" fill="none" xmlns="http://www.w3.org/2000/svg">
<rect width="24" height="24" fill="white" fill-opacity="0.01"/>
<path fill-rule="evenodd" clip-rule="evenodd" d="M6.00002 8.51C6.00002 8.228 6.22902 8 6.50002 8H17.5C17.776 8 18 8.228 18 8.51V17.49C18 17.772 17.771 18 17.5 18H6.50002C6.43371 17.9993 6.36817 17.9856 6.30715 17.9597C6.24613 17.9337 6.19082 17.8959 6.14439 17.8486C6.09796 17.8012 6.06132 17.7452 6.03655 17.6836C6.01178 17.6221 5.99937 17.5563 6.00002 17.49V8.51ZM8.00003 11.505V12.495C8.00003 12.786 8.22603 13 8.50503 13H9.49502C9.56164 13.0011 9.62779 12.9888 9.68955 12.9638C9.75131 12.9388 9.80741 12.9016 9.85452 12.8545C9.90163 12.8074 9.93879 12.7513 9.96379 12.6895C9.98878 12.6278 10.0011 12.5616 10 12.495V11.505C10.0011 11.4384 9.98878 11.3722 9.96379 11.3105C9.93879 11.2487 9.90163 11.1926 9.85452 11.1455C9.80741 11.0984 9.75131 11.0612 9.68955 11.0362C9.62779 11.0112 9.56164 10.9989 9.49502 11H8.50503C8.43841 10.9989 8.37226 11.0112 8.3105 11.0362C8.24874 11.0612 8.19264 11.0984 8.14553 11.1455C8.09842 11.1926 8.06126 11.2487 8.03626 11.3105C8.01127 11.3722 7.99894 11.4384 8.00003 11.505ZM11 11.505V12.495C11 12.786 11.226 13 11.505 13H12.495C12.5616 13.0011 12.6278 12.9888 12.6896 12.9638C12.7513 12.9388 12.8074 12.9016 12.8545 12.8545C12.9016 12.8074 12.9388 12.7513 12.9638 12.6895C12.9888 12.6278 13.0011 12.5616 13 12.495V11.505C13.0011 11.4384 12.9888 11.3722 12.9638 11.3105C12.9388 11.2487 12.9016 11.1926 12.8545 11.1455C12.8074 11.0984 12.7513 11.0612 12.6896 11.0362C12.6278 11.0112 12.5616 10.9989 12.495 11H11.505C11.4384 10.9989 11.3723 11.0112 11.3105 11.0362C11.2487 11.0612 11.1926 11.0984 11.1455 11.1455C11.0984 11.1926 11.0613 11.2487 11.0363 11.3105C11.0113 11.3722 10.9989 11.4384 11 11.505ZM8.00003 14.505V15.495C8.00003 15.786 8.22603 16 8.50503 16H9.49502C9.56164 16.0011 9.62779 15.9888 9.68955 15.9638C9.75131 15.9388 9.80741 15.9016 9.85452 15.8545C9.90163 15.8074 9.93879 15.7513 9.96379 15.6895C9.98878 15.6278 10.0011 15.5616 10 15.495V14.505C10.0011 14.4384 9.98878 14.3722 9.96379 14.3105C9.93879 14.2487 9.90163 14.1926 9.85452 14.1455C9.80741 14.0984 9.75131 14.0612 9.68955 14.0362C9.62779 14.0112 9.56164 13.9989 9.49502 14H8.50503C8.43841 13.9989 8.37226 14.0112 8.3105 14.0362C8.24874 14.0612 8.19264 14.0984 8.14553 14.1455C8.09842 14.1926 8.06126 14.2487 8.03626 14.3105C8.01127 14.3722 7.99894 14.4384 8.00003 14.505ZM7.50003 8V9H10.5V8H7.50003ZM13.5 8V9H16.5V8H13.5ZM14 6.505C14 6.226 14.214 6 14.505 6H15.495C15.774 6 16 6.214 16 6.505V8H14V6.505ZM8.00003 6.505C8.00003 6.226 8.21403 6 8.50503 6H9.49502C9.77402 6 10 6.214 10 6.505V8H8.00003V6.505Z" fill="#42526E"/>
</svg>
