<svg width="24" height="24" viewBox="0 0 24 24" fill="none" xmlns="http://www.w3.org/2000/svg">
<rect width="24" height="24" fill="white" fill-opacity="0.01"/>
<path fill-rule="evenodd" clip-rule="evenodd" d="M9.414 8L12.707 11.293C12.894 11.48 13 11.735 13 12V17C13 17.2652 12.8946 17.5196 12.7071 17.7071C12.5196 17.8946 12.2652 18 12 18C11.7348 18 11.4804 17.8946 11.2929 17.7071C11.1054 17.5196 11 17.2652 11 17V12.414L8 9.414V10.5C8 10.7652 7.89464 11.0196 7.70711 11.2071C7.51957 11.3946 7.26522 11.5 7 11.5C6.73478 11.5 6.48043 11.3946 6.29289 11.2071C6.10536 11.0196 6 10.7652 6 10.5V7C6 6.73479 6.10536 6.48043 6.29289 6.2929C6.48043 6.10536 6.73478 6 7 6H10.5C10.7652 6 11.0196 6.10536 11.2071 6.2929C11.3946 6.48043 11.5 6.73479 11.5 7C11.5 7.26522 11.3946 7.51957 11.2071 7.70711C11.0196 7.89465 10.7652 8 10.5 8H9.414ZM17.707 6.293C17.7999 6.38579 17.8737 6.49599 17.924 6.61731C17.9743 6.73862 18.0002 6.86867 18.0002 7C18.0002 7.13134 17.9743 7.26138 17.924 7.3827C17.8737 7.50401 17.7999 7.61421 17.707 7.707L15.207 10.207C15.1143 10.3002 15.0042 10.3741 14.8829 10.4246C14.7615 10.4751 14.6314 10.501 14.5 10.501C14.3686 10.501 14.2385 10.4751 14.1171 10.4246C13.9958 10.3741 13.8857 10.3002 13.793 10.207C13.7001 10.1142 13.6263 10.004 13.576 9.8827C13.5257 9.76138 13.4998 9.63134 13.4998 9.5C13.4998 9.36867 13.5257 9.23862 13.576 9.11731C13.6263 8.99599 13.7001 8.88579 13.793 8.793L16.293 6.293C16.3858 6.20006 16.496 6.12632 16.6173 6.07601C16.7386 6.0257 16.8687 5.9998 17 5.9998C17.1313 5.9998 17.2614 6.0257 17.3827 6.07601C17.504 6.12632 17.6142 6.20006 17.707 6.293Z" fill="#42526E"/>
</svg>
