<svg width="24" height="24" viewBox="0 0 24 24" fill="none" xmlns="http://www.w3.org/2000/svg">
<rect width="24" height="24" fill="white" fill-opacity="0.01"/>
<path d="M7.35605 10.942C7.30973 10.8943 7.25431 10.8564 7.19308 10.8305C7.13184 10.8046 7.06604 10.7913 6.99955 10.7913C6.93307 10.7913 6.86727 10.8046 6.80603 10.8305C6.7448 10.8564 6.68938 10.8943 6.64305 10.942L5.94305 11.643C5.89611 11.6894 5.85879 11.7445 5.83322 11.8053C5.80765 11.8662 5.79435 11.9314 5.79407 11.9974C5.79379 12.0634 5.80655 12.1287 5.8316 12.1898C5.85665 12.2508 5.89351 12.3063 5.94005 12.353L9.64605 16.06C9.73947 16.1533 9.86592 16.2059 9.99794 16.2065C10.13 16.2071 10.2569 16.1555 10.3511 16.063L18.0631 8.35101C18.1101 8.30465 18.1473 8.24931 18.1726 8.18828C18.1978 8.12725 18.2105 8.06177 18.2099 7.99574C18.2094 7.9297 18.1956 7.86445 18.1693 7.80386C18.143 7.74326 18.1049 7.68856 18.0571 7.64301L17.3571 6.94301C17.3102 6.89602 17.2546 6.85874 17.1933 6.8333C17.1321 6.80786 17.0664 6.79477 17.0001 6.79477C16.9337 6.79477 16.868 6.80786 16.8068 6.8333C16.7455 6.85874 16.6899 6.89602 16.6431 6.94301L10.3571 13.229C10.2623 13.3231 10.1341 13.3759 10.0006 13.3759C9.86699 13.3759 9.73884 13.3231 9.64405 13.229L7.35605 10.942Z" fill="#42526E"/>
</svg>
