<svg width="24" height="24" viewBox="0 0 24 24" fill="none" xmlns="http://www.w3.org/2000/svg">
<rect width="24" height="24" fill="white" fill-opacity="0.01"/>
<path fill-rule="evenodd" clip-rule="evenodd" d="M15.1481 6.852C15.2427 6.75897 15.3702 6.70717 15.5029 6.70792C15.6355 6.70867 15.7625 6.76191 15.8561 6.856L18.1441 9.144C18.1909 9.19018 18.2281 9.24514 18.2537 9.30575C18.2792 9.36635 18.2926 9.4314 18.293 9.49717C18.2933 9.56293 18.2807 9.62813 18.2559 9.68902C18.231 9.7499 18.1944 9.80529 18.1481 9.852L11.0001 17L8.00006 14L15.1481 6.852ZM7.00006 15L10.0001 18L6.49006 18.877C6.22006 18.945 6.05406 18.785 6.12306 18.51L7.00006 15Z" fill="#42526E"/>
</svg>
