<svg width="24" height="24" viewBox="0 0 24 24" fill="none" xmlns="http://www.w3.org/2000/svg">
<rect width="24" height="24" fill="white" fill-opacity="0.01"/>
<path fill-rule="evenodd" clip-rule="evenodd" d="M12 5C12.9193 5 13.8295 5.18106 14.6788 5.53284C15.5281 5.88463 16.2997 6.40024 16.9497 7.05025C17.5998 7.70026 18.1154 8.47194 18.4672 9.32122C18.8189 10.1705 19 11.0807 19 12C19 12.9193 18.8189 13.8295 18.4672 14.6788C18.1154 15.5281 17.5998 16.2997 16.9497 16.9497C16.2997 17.5998 15.5281 18.1154 14.6788 18.4672C13.8295 18.8189 12.9193 19 12 19C10.1435 19 8.36301 18.2625 7.05025 16.9497C5.7375 15.637 5 13.8565 5 12C5 10.1435 5.7375 8.36301 7.05025 7.05025C8.36301 5.7375 10.1435 5 12 5ZM12 17.5C15.033 17.5 17.5 15.033 17.5 12C17.5 8.967 15.033 6.5 12 6.5C10.5418 6.50159 9.14377 7.08156 8.11267 8.11267C7.08156 9.14377 6.50159 10.5418 6.5 12C6.5 15.033 8.967 17.5 12 17.5ZM10.5 11.5C10.2348 11.5 9.98043 11.3946 9.79289 11.2071C9.60536 11.0196 9.5 10.7652 9.5 10.5C9.5 10.2348 9.60536 9.98043 9.79289 9.79289C9.98043 9.60536 10.2348 9.5 10.5 9.5C10.7652 9.5 11.0196 9.60536 11.2071 9.79289C11.3946 9.98043 11.5 10.2348 11.5 10.5C11.5 10.7652 11.3946 11.0196 11.2071 11.2071C11.0196 11.3946 10.7652 11.5 10.5 11.5ZM13.5 11.5C13.2348 11.5 12.9804 11.3946 12.7929 11.2071C12.6054 11.0196 12.5 10.7652 12.5 10.5C12.5 10.2348 12.6054 9.98043 12.7929 9.79289C12.9804 9.60536 13.2348 9.5 13.5 9.5C13.7652 9.5 14.0196 9.60536 14.2071 9.79289C14.3946 9.98043 14.5 10.2348 14.5 10.5C14.5 10.7652 14.3946 11.0196 14.2071 11.2071C14.0196 11.3946 13.7652 11.5 13.5 11.5ZM13.77 13.083C13.8828 12.9681 14.0355 12.901 14.1965 12.8958C14.3574 12.8906 14.5142 12.9476 14.6342 13.055C14.7542 13.1624 14.8282 13.3119 14.8409 13.4724C14.8535 13.633 14.8037 13.7922 14.702 13.917C14.3617 14.2969 13.9453 14.6008 13.4797 14.8089C13.0142 15.017 12.51 15.1247 12 15.125C11.491 15.1247 10.9878 15.0173 10.523 14.8099C10.0582 14.6025 9.64217 14.2996 9.302 13.921C9.19428 13.7972 9.13956 13.6361 9.14965 13.4723C9.15974 13.3085 9.23383 13.1553 9.35592 13.0456C9.47801 12.936 9.63832 12.8788 9.80223 12.8864C9.96613 12.8939 10.1205 12.9656 10.232 13.086C11.133 14.089 12.871 14.089 13.77 13.083Z" fill="#42526E"/>
</svg>
