<svg width="24" height="24" viewBox="0 0 24 24" fill="none" xmlns="http://www.w3.org/2000/svg">
<rect width="24" height="24" fill="white" fill-opacity="0.01"/>
<path fill-rule="evenodd" clip-rule="evenodd" d="M13.485 11.929L15.607 9.808C15.7946 9.62036 15.9001 9.36586 15.9001 9.1005C15.9001 8.83514 15.7946 8.58064 15.607 8.393C15.4194 8.20536 15.1649 8.09994 14.8995 8.09994C14.6341 8.09994 14.3796 8.20536 14.192 8.393L12.072 10.515L9.95 8.393C9.76236 8.20549 9.50792 8.1002 9.24265 8.1003C8.97738 8.10039 8.72301 8.20586 8.5355 8.3935C8.34799 8.58114 8.2427 8.83558 8.2428 9.10085C8.24289 9.36612 8.34836 9.62049 8.536 9.808L10.656 11.928L8.536 14.05C8.35384 14.2386 8.25305 14.4912 8.25533 14.7534C8.2576 15.0156 8.36277 15.2664 8.54818 15.4518C8.73359 15.6372 8.9844 15.7424 9.2466 15.7447C9.5088 15.747 9.7614 15.6462 9.95 15.464L12.071 13.344L14.192 15.464C14.2848 15.5569 14.3951 15.6306 14.5164 15.6809C14.6377 15.7312 14.7678 15.7572 14.8991 15.7572C15.0305 15.7572 15.1606 15.7314 15.2819 15.6812C15.4033 15.631 15.5136 15.5573 15.6065 15.4645C15.6994 15.3717 15.7731 15.2614 15.8234 15.1401C15.8737 15.0188 15.8997 14.8887 15.8997 14.7574C15.8997 14.626 15.8739 14.4959 15.8237 14.3746C15.7735 14.2532 15.6998 14.1429 15.607 14.05L13.485 11.929ZM12 20C9.87827 20 7.84344 19.1571 6.34315 17.6569C4.84285 16.1566 4 14.1217 4 12C4 9.87827 4.84285 7.84344 6.34315 6.34315C7.84344 4.84285 9.87827 4 12 4C14.1217 4 16.1566 4.84285 17.6569 6.34315C19.1571 7.84344 20 9.87827 20 12C20 14.1217 19.1571 16.1566 17.6569 17.6569C16.1566 19.1571 14.1217 20 12 20Z" fill="#42526E"/>
</svg>
