<svg width="24" height="24" viewBox="0 0 24 24" fill="none" xmlns="http://www.w3.org/2000/svg">
<rect width="24" height="24" fill="white" fill-opacity="0.01"/>
<path d="M18.062 11L16.5 9.914C16.4045 9.82176 16.3283 9.71141 16.2759 9.58941C16.2235 9.46741 16.1959 9.33619 16.1947 9.20341C16.1936 9.07063 16.2189 8.93895 16.2692 8.81605C16.3195 8.69315 16.3937 8.5815 16.4876 8.48761C16.5815 8.39372 16.6931 8.31946 16.816 8.26918C16.9389 8.2189 17.0706 8.1936 17.2034 8.19476C17.3362 8.19591 17.4674 8.2235 17.5894 8.2759C17.7114 8.32831 17.8218 8.4045 17.914 8.50001L20.53 11.116C20.81 11.283 21 11.616 21 12C21 12.384 20.81 12.717 20.53 12.884L17.914 15.5C17.7254 15.6822 17.4728 15.783 17.2106 15.7807C16.9484 15.7784 16.6976 15.6732 16.5122 15.4878C16.3268 15.3024 16.2216 15.0516 16.2193 14.7894C16.217 14.5272 16.3178 14.2746 16.5 14.086L18.062 13H14.382C13.895 13 13.5 12.552 13.5 12C13.5 11.448 13.895 11 14.382 11H18.062ZM3.47 12.884C3.19 12.717 3 12.384 3 12C3 11.616 3.19 11.283 3.47 11.116L6.086 8.50001C6.2746 8.31785 6.5272 8.21705 6.7894 8.21933C7.0516 8.22161 7.30241 8.32678 7.48782 8.51219C7.67323 8.69759 7.7784 8.94841 7.78067 9.2106C7.78295 9.4728 7.68216 9.7254 7.5 9.914L5.938 11H9.618C10.105 11 10.5 11.448 10.5 12C10.5 12.552 10.105 13 9.618 13H5.938L7.5 14.086C7.68216 14.2746 7.78295 14.5272 7.78067 14.7894C7.7784 15.0516 7.67323 15.3024 7.48782 15.4878C7.30241 15.6732 7.0516 15.7784 6.7894 15.7807C6.5272 15.783 6.2746 15.6822 6.086 15.5L3.47 12.884Z" fill="#42526E"/>
</svg>
