<svg width="24" height="24" viewBox="0 0 24 24" fill="none" xmlns="http://www.w3.org/2000/svg">
<rect width="24" height="24" fill="white" fill-opacity="0.01"/>
<path d="M10.922 14.517L5.87 12.68L4.938 12.341C4.418 12.151 4 11.552 4 11C4 10.444 4.42 9.84701 4.938 9.65901L14.062 6.341C14.582 6.151 15 6.446 15 6.995V15.005C15 15.545 14.58 15.847 14.062 15.659L10.922 14.517ZM6 14.227L8 14.955V17C8 17.552 7.595 18.202 7.105 18.447L6.895 18.553C6.4 18.8 6 18.549 6 18.009V14.227ZM17.224 9.447C17.1652 9.47702 17.1011 9.49511 17.0353 9.50023C16.9695 9.50535 16.9034 9.4974 16.8407 9.47683C16.778 9.45626 16.72 9.42349 16.67 9.38039C16.62 9.3373 16.5791 9.28474 16.5495 9.22575C16.52 9.16675 16.5024 9.10249 16.4978 9.03666C16.4931 8.97084 16.5016 8.90475 16.5227 8.84221C16.5437 8.77968 16.5769 8.72192 16.6204 8.67229C16.6639 8.62265 16.7168 8.58211 16.776 8.55301L18.776 7.553C18.8348 7.52299 18.8989 7.5049 18.9647 7.49978C19.0305 7.49466 19.0966 7.50261 19.1593 7.52318C19.222 7.54375 19.28 7.57652 19.33 7.61962C19.38 7.66271 19.4209 7.71527 19.4505 7.77426C19.48 7.83326 19.4976 7.89752 19.5022 7.96335C19.5069 8.02917 19.4984 8.09526 19.4773 8.1578C19.4563 8.22033 19.4231 8.27809 19.3796 8.32772C19.3361 8.37736 19.2832 8.4179 19.224 8.447L17.224 9.447ZM16.776 13.447C16.6585 13.387 16.5695 13.283 16.5284 13.1576C16.4872 13.0322 16.4973 12.8957 16.5564 12.7777C16.6156 12.6598 16.7189 12.57 16.8439 12.5279C16.969 12.4858 17.1056 12.4948 17.224 12.553L19.224 13.553C19.3415 13.613 19.4305 13.7171 19.4716 13.8424C19.5128 13.9678 19.5027 14.1043 19.4436 14.2223C19.3844 14.3402 19.2811 14.43 19.1561 14.4721C19.031 14.5142 18.8944 14.5052 18.776 14.447L16.776 13.447ZM17 11.5C16.8674 11.5 16.7402 11.4473 16.6464 11.3536C16.5527 11.2598 16.5 11.1326 16.5 11C16.5 10.8674 16.5527 10.7402 16.6464 10.6465C16.7402 10.5527 16.8674 10.5 17 10.5H20C20.1326 10.5 20.2598 10.5527 20.3536 10.6465C20.4473 10.7402 20.5 10.8674 20.5 11C20.5 11.1326 20.4473 11.2598 20.3536 11.3536C20.2598 11.4473 20.1326 11.5 20 11.5H17Z" fill="#42526E"/>
</svg>
