<svg width="24" height="24" viewBox="0 0 24 24" fill="none" xmlns="http://www.w3.org/2000/svg">
<rect width="24" height="24" fill="white" fill-opacity="0.01"/>
<path fill-rule="evenodd" clip-rule="evenodd" d="M16.9999 9H17.9999V12H16.9999V9ZM16.9999 13H17.9999V15H16.9999V13ZM5.99994 9H6.99994V11H5.99994V9ZM5.99994 12H6.99994V15H5.99994V12ZM8.99994 17H10.9999V18H8.99994V17ZM11.9999 17H14.9999V18H11.9999V17ZM8.99994 6H11.9999V7H8.99994V6ZM12.9999 6H14.9999V7H12.9999V6ZM5.99994 6.505C5.99994 6.226 6.21394 6 6.50494 6H7.99994V7H6.99994V8H5.99994V6.505ZM17.9999 6.505V8H16.9999V7H15.9999V6H17.4949C17.7859 6 17.9999 6.226 17.9999 6.505ZM5.99994 17.495V16H6.99994V17H7.99994V18H6.50494C6.43833 18.0011 6.37217 17.9888 6.31042 17.9638C6.24866 17.9388 6.19256 17.9016 6.14545 17.8545C6.09834 17.8074 6.06118 17.7513 6.03618 17.6895C6.01119 17.6278 5.99886 17.5616 5.99994 17.495ZM17.9999 17.495C18.001 17.5616 17.9887 17.6278 17.9637 17.6895C17.9387 17.7513 17.9016 17.8074 17.8544 17.8545C17.8073 17.9016 17.7512 17.9388 17.6895 17.9638C17.6277 17.9888 17.5616 18.0011 17.4949 18H15.9999V17H16.9999V16H17.9999V17.495Z" fill="#42526E"/>
</svg>
