<svg width="24" height="24" viewBox="0 0 24 24" fill="none" xmlns="http://www.w3.org/2000/svg">
<rect width="24" height="24" fill="white" fill-opacity="0.01"/>
<path fill-rule="evenodd" clip-rule="evenodd" d="M11 15L10 14L8 16H16V14.2L14 12L11 15ZM6 6.5C6 6.224 6.229 6 6.5 6H17.5C17.776 6 18 6.229 18 6.5V17.5C18 17.776 17.771 18 17.5 18H6.5C6.36772 17.999 6.24115 17.9459 6.1476 17.8524C6.05406 17.7589 6.00105 17.6323 6 17.5V6.5ZM9.5 11C9.89782 11 10.2794 10.842 10.5607 10.5607C10.842 10.2794 11 9.89782 11 9.5C11 9.10218 10.842 8.72064 10.5607 8.43934C10.2794 8.15804 9.89782 8 9.5 8C9.10218 8 8.72064 8.15804 8.43934 8.43934C8.15804 8.72064 8 9.10218 8 9.5C8 9.89782 8.15804 10.2794 8.43934 10.5607C8.72064 10.842 9.10218 11 9.5 11Z" fill="#42526E"/>
</svg>
