<svg width="24" height="24" viewBox="0 0 24 24" fill="none" xmlns="http://www.w3.org/2000/svg">
<rect width="24" height="24" fill="white" fill-opacity="0.01"/>
<path fill-rule="evenodd" clip-rule="evenodd" d="M8.99998 9H6.48998C6.42455 9.00065 6.35989 9.01426 6.29976 9.04006C6.23962 9.06585 6.18519 9.10331 6.13962 9.15027C6.09406 9.19724 6.05825 9.25277 6.03428 9.31366C6.01031 9.37454 5.99865 9.43958 5.99998 9.505V10.495C5.99998 10.786 6.21998 11 6.48998 11H8.99998V13L12 10L8.99998 7V9ZM13 7.505C13 7.226 13.228 7 13.491 7H18.509C18.5747 6.99984 18.6398 7.01289 18.7003 7.03839C18.7609 7.06389 18.8157 7.10131 18.8615 7.14842C18.9073 7.19554 18.9432 7.25138 18.967 7.31264C18.9908 7.3739 19.002 7.43932 19 7.505V8.495C19.0005 8.6267 18.9494 8.75336 18.8576 8.84779C18.7658 8.94221 18.6406 8.99686 18.509 9H13.491C13.4253 9.00017 13.3602 8.98711 13.2996 8.96161C13.2391 8.93612 13.1842 8.8987 13.1384 8.85158C13.0926 8.80447 13.0568 8.74862 13.033 8.68736C13.0092 8.6261 12.998 8.56068 13 8.495V7.505ZM13 11.505C13 11.226 13.228 11 13.491 11H18.509C18.5747 10.9998 18.6398 11.0129 18.7003 11.0384C18.7609 11.0639 18.8157 11.1013 18.8615 11.1484C18.9073 11.1955 18.9432 11.2514 18.967 11.3126C18.9908 11.3739 19.002 11.4393 19 11.505V12.495C19.0005 12.6267 18.9494 12.7534 18.8576 12.8478C18.7658 12.9422 18.6406 12.9969 18.509 13H13.491C13.4253 13.0002 13.3602 12.9871 13.2996 12.9616C13.2391 12.9361 13.1842 12.8987 13.1384 12.8516C13.0926 12.8045 13.0568 12.7486 13.033 12.6874C13.0092 12.6261 12.998 12.5607 13 12.495V11.505ZM6.99998 15.505C6.99998 15.226 7.22898 15 7.49998 15H18.5C18.776 15 19 15.214 19 15.505V16.495C18.9997 16.628 18.9471 16.7555 18.8536 16.85C18.76 16.9446 18.633 16.9984 18.5 17H7.49998C7.43371 17.0007 7.36797 16.9881 7.30667 16.9629C7.24537 16.9377 7.18975 16.9004 7.14312 16.8533C7.09649 16.8062 7.05979 16.7502 7.0352 16.6887C7.01062 16.6271 6.99864 16.5613 6.99998 16.495V15.505Z" fill="#42526E"/>
</svg>
