<svg width="24" height="24" viewBox="0 0 24 24" fill="none" xmlns="http://www.w3.org/2000/svg">
<rect width="24" height="24" fill="white" fill-opacity="0.01"/>
<path fill-rule="evenodd" clip-rule="evenodd" d="M12 20C9.87827 20 7.84344 19.1571 6.34315 17.6569C4.84285 16.1566 4 14.1217 4 12C4 9.87827 4.84285 7.84344 6.34315 6.34315C7.84344 4.84285 9.87827 4 12 4C14.1217 4 16.1566 4.84285 17.6569 6.34315C19.1571 7.84344 20 9.87827 20 12C20 14.1217 19.1571 16.1566 17.6569 17.6569C16.1566 19.1571 14.1217 20 12 20ZM12 11.5C11.7348 11.5 11.4804 11.6054 11.2929 11.7929C11.1054 11.9804 11 12.2348 11 12.5V15C11 15.2652 11.1054 15.5196 11.2929 15.7071C11.4804 15.8946 11.7348 16 12 16C12.2652 16 12.5196 15.8946 12.7071 15.7071C12.8946 15.5196 13 15.2652 13 15V12.5C13 12.2348 12.8946 11.9804 12.7071 11.7929C12.5196 11.6054 12.2652 11.5 12 11.5ZM12 10.375C12.3647 10.375 12.7144 10.2301 12.9723 9.97227C13.2301 9.71441 13.375 9.36467 13.375 9C13.375 8.63533 13.2301 8.28559 12.9723 8.02773C12.7144 7.76987 12.3647 7.625 12 7.625C11.6353 7.625 11.2856 7.76987 11.0277 8.02773C10.7699 8.28559 10.625 8.63533 10.625 9C10.625 9.36467 10.7699 9.71441 11.0277 9.97227C11.2856 10.2301 11.6353 10.375 12 10.375Z" fill="#42526E"/>
</svg>
