<svg width="24" height="24" viewBox="0 0 24 24" fill="none" xmlns="http://www.w3.org/2000/svg">
<rect width="24" height="24" fill="white" fill-opacity="0.01"/>
<path d="M12.6539 8.764C12.4917 8.91813 12.2757 9.0028 12.052 8.99995C11.8282 8.99709 11.6145 8.90694 11.4562 8.74871C11.298 8.59049 11.2078 8.37671 11.205 8.15296C11.2021 7.92922 11.2868 7.71321 11.4409 7.551L12.6549 6.337C13.0001 5.99179 13.4099 5.71795 13.8609 5.53112C14.3119 5.34429 14.7953 5.24813 15.2834 5.24813C15.7716 5.24813 16.255 5.34429 16.706 5.53112C17.157 5.71795 17.5668 5.99179 17.9119 6.337C18.2577 6.68191 18.5321 7.09164 18.7193 7.54273C18.9065 7.99381 19.003 8.47739 19.0031 8.96579C19.0031 9.45419 18.9069 9.93781 18.7199 10.389C18.5328 10.8401 18.2586 11.25 17.9129 11.595L16.6989 12.809L15.8949 13.613C15.5498 13.9591 15.1398 14.2338 14.6885 14.4213C14.2371 14.6089 13.7532 14.7057 13.2645 14.7061C12.7757 14.7066 12.2916 14.6107 11.8399 14.424C11.3882 14.2373 10.9777 13.9634 10.6319 13.618C10.471 13.457 10.3805 13.2387 10.3805 13.011C10.3805 12.7833 10.471 12.565 10.6319 12.404C10.7929 12.243 11.0113 12.1526 11.2389 12.1526C11.4666 12.1526 11.685 12.243 11.8459 12.404C12.6269 13.186 13.8959 13.184 14.6819 12.399L15.4859 11.596L16.6999 10.382C16.8862 10.1963 17.034 9.97566 17.1348 9.73271C17.2356 9.48977 17.2874 9.22932 17.2873 8.96629C17.2873 8.70327 17.2352 8.44285 17.1343 8.19998C17.0333 7.95711 16.8853 7.73656 16.6989 7.551C16.5132 7.36505 16.2926 7.21753 16.0498 7.11688C15.807 7.01623 15.5468 6.96443 15.2839 6.96443C15.0211 6.96443 14.7609 7.01623 14.5181 7.11688C14.2753 7.21753 14.0547 7.36505 13.8689 7.551L12.6539 8.764ZM11.8459 15.236C12.0082 15.0819 12.2242 14.9972 12.4479 15.0001C12.6717 15.0029 12.8854 15.0931 13.0437 15.2513C13.2019 15.4095 13.292 15.6233 13.2949 15.847C13.2977 16.0708 13.2131 16.2868 13.0589 16.449L11.8449 17.663C11.4998 18.0082 11.09 18.282 10.639 18.4689C10.188 18.6557 9.70461 18.7519 9.21644 18.7519C8.72827 18.7519 8.24489 18.6557 7.79389 18.4689C7.34288 18.282 6.9331 18.0082 6.58794 17.663C6.24216 17.3181 5.9678 16.9084 5.78057 16.4573C5.59334 16.0062 5.49692 15.5226 5.49683 15.0342C5.49673 14.5458 5.59297 14.0622 5.78003 13.611C5.96708 13.1599 6.24129 12.75 6.58694 12.405L7.80094 11.191L8.60494 10.387C8.95008 10.0409 9.36005 9.76625 9.8114 9.57868C10.2627 9.39112 10.7466 9.29434 11.2354 9.29387C11.7242 9.29341 12.2082 9.38927 12.66 9.57598C13.1117 9.76268 13.5221 10.0366 13.8679 10.382C14.0289 10.543 14.1194 10.7613 14.1194 10.989C14.1194 11.2167 14.0289 11.435 13.8679 11.596C13.707 11.757 13.4886 11.8474 13.2609 11.8474C13.0333 11.8474 12.8149 11.757 12.6539 11.596C12.4674 11.4101 12.2461 11.2627 12.0026 11.1623C11.7591 11.062 11.4983 11.0105 11.2349 11.011C10.9715 11.0115 10.7109 11.0638 10.4677 11.165C10.2246 11.2663 10.0038 11.4144 9.81794 11.601L9.01394 12.404L7.79994 13.618C7.61366 13.8037 7.46589 14.0243 7.36508 14.2673C7.26428 14.5102 7.21244 14.7707 7.21253 15.0337C7.21263 15.2967 7.26465 15.5571 7.36563 15.8C7.4666 16.0429 7.61453 16.2634 7.80094 16.449C7.98669 16.635 8.20726 16.7825 8.45006 16.8831C8.69286 16.9838 8.95311 17.0356 9.21594 17.0356C9.47877 17.0356 9.73903 16.9838 9.98182 16.8831C10.2246 16.7825 10.4452 16.635 10.6309 16.449L11.8459 15.236Z" fill="#42526E"/>
</svg>
