<svg width="24" height="24" viewBox="0 0 24 24" fill="none" xmlns="http://www.w3.org/2000/svg">
<rect width="24" height="24" fill="white" fill-opacity="0.01"/>
<path fill-rule="evenodd" clip-rule="evenodd" d="M7 5H17C17.2652 5 17.5196 5.10536 17.7071 5.29289C17.8946 5.48043 18 5.73478 18 6C18 6.26522 17.8946 6.51957 17.7071 6.70711C17.5196 6.89464 17.2652 7 17 7H7C6.73478 7 6.48043 6.89464 6.29289 6.70711C6.10536 6.51957 6 6.26522 6 6C6 5.73478 6.10536 5.48043 6.29289 5.29289C6.48043 5.10536 6.73478 5 7 5ZM7 17H17C17.2652 17 17.5196 17.1054 17.7071 17.2929C17.8946 17.4804 18 17.7348 18 18C18 18.2652 17.8946 18.5196 17.7071 18.7071C17.5196 18.8946 17.2652 19 17 19H7C6.73478 19 6.48043 18.8946 6.29289 18.7071C6.10536 18.5196 6 18.2652 6 18C6 17.7348 6.10536 17.4804 6.29289 17.2929C6.48043 17.1054 6.73478 17 7 17ZM4 9H20C20.2652 9 20.5196 9.10536 20.7071 9.29289C20.8946 9.48043 21 9.73478 21 10V14C21 14.2652 20.8946 14.5196 20.7071 14.7071C20.5196 14.8946 20.2652 15 20 15H4C3.73478 15 3.48043 14.8946 3.29289 14.7071C3.10536 14.5196 3 14.2652 3 14V10C3 9.73478 3.10536 9.48043 3.29289 9.29289C3.48043 9.10536 3.73478 9 4 9Z" fill="#42526E"/>
</svg>
