<svg width="24" height="24" viewBox="0 0 24 24" fill="none" xmlns="http://www.w3.org/2000/svg">
<rect width="24" height="24" fill="white" fill-opacity="0.01"/>
<path fill-rule="evenodd" clip-rule="evenodd" d="M9.87295 7.63C9.59295 7.63 9.52895 7.789 9.72595 7.987L12.1619 10.423L7.77595 14.809C7.68256 14.9042 7.63025 15.0322 7.63025 15.1655C7.63025 15.2988 7.68256 15.4268 7.77595 15.522L8.47595 16.222C8.52206 16.27 8.57738 16.3082 8.63859 16.3343C8.69981 16.3605 8.76567 16.374 8.83223 16.3741C8.8988 16.3742 8.96469 16.3608 9.02598 16.3349C9.08727 16.3089 9.1427 16.2709 9.18895 16.223L13.5759 11.837L16.0119 14.273C16.2089 14.47 16.3689 14.397 16.3689 14.126V8.133C16.3679 7.99992 16.3146 7.87258 16.2205 7.77848C16.1264 7.68437 15.999 7.63104 15.8659 7.63H9.87295Z" fill="#42526E"/>
</svg>
