<svg width="24" height="24" viewBox="0 0 24 24" fill="none" xmlns="http://www.w3.org/2000/svg">
<rect width="24" height="24" fill="white" fill-opacity="0.01"/>
<path fill-rule="evenodd" clip-rule="evenodd" d="M9 9V7L6 10L9 13V11H11.51C11.5756 11 11.6406 10.9869 11.701 10.9613C11.7615 10.9358 11.8162 10.8983 11.8619 10.8512C11.9076 10.8041 11.9434 10.7483 11.9671 10.6871C11.9908 10.6259 12.002 10.5606 12 10.495V9.505C12.0013 9.43958 11.9897 9.37454 11.9657 9.31366C11.9417 9.25277 11.9059 9.19724 11.8604 9.15027C11.8148 9.10331 11.7604 9.06585 11.7002 9.04006C11.6401 9.01426 11.5754 9.00065 11.51 9H9ZM13 7.505C13 7.226 13.228 7 13.491 7H18.509C18.5747 6.99984 18.6398 7.01289 18.7004 7.03839C18.7609 7.06389 18.8157 7.10131 18.8615 7.14842C18.9074 7.19554 18.9432 7.25138 18.967 7.31264C18.9908 7.3739 19.002 7.43932 19 7.505V8.495C19.0006 8.6267 18.9494 8.75336 18.8576 8.84779C18.7658 8.94221 18.6407 8.99686 18.509 9H13.491C13.4253 9.00017 13.3602 8.98711 13.2996 8.96161C13.2391 8.93612 13.1843 8.8987 13.1385 8.85158C13.0926 8.80447 13.0568 8.74862 13.033 8.68736C13.0092 8.6261 12.998 8.56068 13 8.495V7.505ZM13 11.505C13 11.226 13.228 11 13.491 11H18.509C18.5747 10.9998 18.6398 11.0129 18.7004 11.0384C18.7609 11.0639 18.8157 11.1013 18.8615 11.1484C18.9074 11.1955 18.9432 11.2514 18.967 11.3126C18.9908 11.3739 19.002 11.4393 19 11.505V12.495C19.0006 12.6267 18.9494 12.7534 18.8576 12.8478C18.7658 12.9422 18.6407 12.9969 18.509 13H13.491C13.4253 13.0002 13.3602 12.9871 13.2996 12.9616C13.2391 12.9361 13.1843 12.8987 13.1385 12.8516C13.0926 12.8045 13.0568 12.7486 13.033 12.6874C13.0092 12.6261 12.998 12.5607 13 12.495V11.505ZM7 15.505C7 15.226 7.229 15 7.5 15H18.5C18.776 15 19 15.214 19 15.505V16.495C18.9997 16.628 18.9471 16.7555 18.8536 16.85C18.76 16.9446 18.633 16.9984 18.5 17H7.5C7.43373 17.0007 7.36799 16.9881 7.30669 16.9629C7.24539 16.9377 7.18978 16.9004 7.14314 16.8533C7.09651 16.8062 7.05981 16.7502 7.03522 16.6887C7.01064 16.6271 6.99866 16.5613 7 16.495V15.505Z" fill="#42526E"/>
</svg>
