<svg width="24" height="24" viewBox="0 0 24 24" fill="none" xmlns="http://www.w3.org/2000/svg">
<rect width="24" height="24" fill="white" fill-opacity="0.01"/>
<path fill-rule="evenodd" clip-rule="evenodd" d="M12 19C11.0807 19 10.1705 18.8189 9.32122 18.4672C8.47194 18.1154 7.70026 17.5998 7.05025 16.9497C6.40024 16.2997 5.88463 15.5281 5.53284 14.6788C5.18106 13.8295 5 12.9193 5 12C5 11.0807 5.18106 10.1705 5.53284 9.32122C5.88463 8.47194 6.40024 7.70026 7.05025 7.05025C7.70026 6.40024 8.47194 5.88463 9.32122 5.53284C10.1705 5.18106 11.0807 5 12 5C13.8565 5 15.637 5.7375 16.9497 7.05025C18.2625 8.36301 19 10.1435 19 12C19 13.8565 18.2625 15.637 16.9497 16.9497C15.637 18.2625 13.8565 19 12 19ZM12 17.5C13.4587 17.5 14.8576 16.9205 15.8891 15.8891C16.9205 14.8576 17.5 13.4587 17.5 12C17.5 10.5413 16.9205 9.14236 15.8891 8.11091C14.8576 7.07946 13.4587 6.5 12 6.5C10.5413 6.5 9.14236 7.07946 8.11091 8.11091C7.07946 9.14236 6.5 10.5413 6.5 12C6.5 13.4587 7.07946 14.8576 8.11091 15.8891C9.14236 16.9205 10.5413 17.5 12 17.5ZM12 11.5C12.2652 11.5 12.5196 11.6054 12.7071 11.7929C12.8946 11.9804 13 12.2348 13 12.5V14.5C13 14.7652 12.8946 15.0196 12.7071 15.2071C12.5196 15.3946 12.2652 15.5 12 15.5C11.7348 15.5 11.4804 15.3946 11.2929 15.2071C11.1054 15.0196 11 14.7652 11 14.5V12.5C11 12.2348 11.1054 11.9804 11.2929 11.7929C11.4804 11.6054 11.7348 11.5 12 11.5ZM12 8.5C12.2652 8.5 12.5196 8.60536 12.7071 8.79289C12.8946 8.98043 13 9.23478 13 9.5C13 9.76522 12.8946 10.0196 12.7071 10.2071C12.5196 10.3946 12.2652 10.5 12 10.5C11.7348 10.5 11.4804 10.3946 11.2929 10.2071C11.1054 10.0196 11 9.76522 11 9.5C11 9.23478 11.1054 8.98043 11.2929 8.79289C11.4804 8.60536 11.7348 8.5 12 8.5Z" fill="#42526E"/>
</svg>
