<svg width="24" height="24" viewBox="0 0 24 24" fill="none" xmlns="http://www.w3.org/2000/svg">
<rect width="24" height="24" fill="white" fill-opacity="0.01"/>
<path fill-rule="evenodd" clip-rule="evenodd" d="M5.00004 8.51C5.00004 8.228 5.22004 8 5.49804 8H18.502C18.777 8 19 8.228 19 8.51V17.49C19 17.772 18.78 18 18.502 18H5.49804C5.43185 17.9992 5.36646 17.9854 5.30561 17.9593C5.24477 17.9333 5.18965 17.8955 5.1434 17.8482C5.09716 17.8008 5.06069 17.7448 5.0361 17.6833C5.0115 17.6219 4.99924 17.5562 5.00004 17.49V8.51ZM10 7.5C10 7.224 10.215 7 10.49 7H13.51C13.6409 7.00262 13.7655 7.05645 13.8571 7.14994C13.9488 7.24342 14.0001 7.36911 14 7.5V8H10V7.5ZM12 16.5C12.9283 16.5 13.8185 16.1313 14.4749 15.4749C15.1313 14.8185 15.5 13.9283 15.5 13C15.5 12.0717 15.1313 11.1815 14.4749 10.5251C13.8185 9.86875 12.9283 9.5 12 9.5C11.0718 9.5 10.1815 9.86875 9.52516 10.5251C8.86879 11.1815 8.50004 12.0717 8.50004 13C8.50004 13.9283 8.86879 14.8185 9.52516 15.4749C10.1815 16.1313 11.0718 16.5 12 16.5ZM12 15C11.4696 15 10.9609 14.7893 10.5858 14.4142C10.2108 14.0391 10 13.5304 10 13C10 12.4696 10.2108 11.9609 10.5858 11.5858C10.9609 11.2107 11.4696 11 12 11C12.5305 11 13.0392 11.2107 13.4142 11.5858C13.7893 11.9609 14 12.4696 14 13C14 13.5304 13.7893 14.0391 13.4142 14.4142C13.0392 14.7893 12.5305 15 12 15Z" fill="#42526E"/>
</svg>
