<svg width="24" height="24" viewBox="0 0 24 24" fill="none" xmlns="http://www.w3.org/2000/svg">
<rect width="24" height="24" fill="white" fill-opacity="0.01"/>
<path fill-rule="evenodd" clip-rule="evenodd" d="M11.305 12.282C11.342 12.372 11.396 12.457 11.47 12.53L13.47 14.53C13.6122 14.6625 13.8002 14.7346 13.9945 14.7312C14.1888 14.7277 14.3742 14.649 14.5116 14.5116C14.649 14.3742 14.7277 14.1888 14.7312 13.9945C14.7346 13.8002 14.6625 13.6122 14.53 13.47L12.75 11.69V9C12.75 8.80109 12.671 8.61032 12.5303 8.46967C12.3897 8.32902 12.1989 8.25 12 8.25C11.8011 8.25 11.6103 8.32902 11.4697 8.46967C11.329 8.61032 11.25 8.80109 11.25 9V12C11.25 12.104 11.271 12.202 11.309 12.292L11.305 12.282ZM12 6C13.5913 6 15.1174 6.63214 16.2426 7.75736C17.3679 8.88258 18 10.4087 18 12C18 13.5913 17.3679 15.1174 16.2426 16.2426C15.1174 17.3679 13.5913 18 12 18C10.4087 18 8.88258 17.3679 7.75736 16.2426C6.63214 15.1174 6 13.5913 6 12C6 10.4087 6.63214 8.88258 7.75736 7.75736C8.88258 6.63214 10.4087 6 12 6Z" fill="#42526E"/>
</svg>
