<svg width="24" height="24" viewBox="0 0 24 24" fill="none" xmlns="http://www.w3.org/2000/svg">
<rect width="24" height="24" fill="white" fill-opacity="0.01"/>
<path fill-rule="evenodd" clip-rule="evenodd" d="M6.71997 15H8.21997C8.21997 12.487 10.041 10.5 12.22 10.5C13.558 10.5 14.76 11.25 15.49 12.408L13.46 13.58C13.22 13.72 13.241 13.905 13.489 13.99L16.219 14.92L16.22 15V14.92L17.592 15.387C17.6498 15.4083 17.7116 15.4166 17.773 15.4113C17.8344 15.406 17.8938 15.3873 17.9472 15.3565C18.0005 15.3257 18.0464 15.2835 18.0816 15.233C18.1169 15.1824 18.1405 15.1247 18.151 15.064L18.992 10.814C19.044 10.547 18.885 10.448 18.651 10.584L16.789 11.659C15.801 10.055 14.124 9 12.22 9C9.18297 9 6.72797 11.687 6.71997 15Z" fill="#42526E"/>
</svg>
