<svg width="24" height="24" viewBox="0 0 24 24" fill="none" xmlns="http://www.w3.org/2000/svg">
<rect width="24" height="24" fill="white" fill-opacity="0.01"/>
<path d="M14.8231 15.883C13.7125 16.725 12.3237 17.114 10.9373 16.9713C9.55098 16.8287 8.27048 16.1651 7.35462 15.1146C6.43876 14.0641 5.95584 12.7051 6.00346 11.3123C6.05108 9.91941 6.62569 8.59658 7.61116 7.61111C8.59663 6.62564 9.91947 6.05103 11.3123 6.00341C12.7052 5.95578 14.0642 6.43871 15.1146 7.35457C16.1651 8.27043 16.8287 9.55093 16.9714 10.9373C17.114 12.3236 16.725 13.7124 15.8831 14.823L18.5301 17.47C18.8231 17.763 19.0601 18.06 18.5301 18.53C18.0001 19 17.7631 18.823 17.4701 18.53L14.8231 15.883ZM11.5001 15.5C12.5609 15.5 13.5783 15.0786 14.3285 14.3284C15.0786 13.5783 15.5001 12.5609 15.5001 11.5C15.5001 10.4391 15.0786 9.42172 14.3285 8.67157C13.5783 7.92143 12.5609 7.5 11.5001 7.5C10.4392 7.5 9.42177 7.92143 8.67162 8.67157C7.92148 9.42172 7.50005 10.4391 7.50005 11.5C7.50005 12.5609 7.92148 13.5783 8.67162 14.3284C9.42177 15.0786 10.4392 15.5 11.5001 15.5Z" fill="#42526E"/>
</svg>
