<svg width="24" height="24" viewBox="0 0 24 24" fill="none" xmlns="http://www.w3.org/2000/svg">
<rect width="24" height="24" fill="white" fill-opacity="0.01"/>
<path fill-rule="evenodd" clip-rule="evenodd" d="M12.002 15.504C11.0732 15.504 10.1825 15.135 9.52572 14.4783C8.86897 13.8215 8.50001 12.9308 8.50001 12.002C8.50001 11.0732 8.86897 10.1825 9.52572 9.52571C10.1825 8.86896 11.0732 8.5 12.002 8.5C12.9308 8.5 13.8215 8.86896 14.4783 9.52571C15.1351 10.1825 15.504 11.0732 15.504 12.002C15.504 12.9308 15.1351 13.8215 14.4783 14.4783C13.8215 15.135 12.9308 15.504 12.002 15.504ZM18.734 13.517C18.4184 13.4081 18.1446 13.2034 17.9508 12.9316C17.757 12.6597 17.6528 12.3342 17.6527 12.0004C17.6526 11.6665 17.7566 11.3409 17.9502 11.0689C18.1438 10.797 18.4175 10.5921 18.733 10.483C18.8258 10.4524 18.9036 10.3876 18.9506 10.3019C18.9975 10.2161 19.0102 10.1157 18.986 10.021C18.8276 9.46115 18.602 8.92255 18.314 8.417C18.2663 8.33716 18.1913 8.27734 18.1028 8.24865C18.0144 8.21996 17.9185 8.22435 17.833 8.261C17.523 8.388 17.165 8.421 16.794 8.326C16.524 8.25359 16.2778 8.11171 16.0797 7.91451C15.8816 7.7173 15.7386 7.47165 15.665 7.202C15.5712 6.85697 15.5926 6.49074 15.726 6.159C15.7621 6.0735 15.7661 5.97786 15.7372 5.88966C15.7084 5.80147 15.6486 5.72666 15.569 5.679C15.0674 5.39469 14.5336 5.17143 13.979 5.014C13.8845 4.98981 13.7844 5.00237 13.6988 5.04915C13.6133 5.09592 13.5486 5.17342 13.518 5.266C13.409 5.58133 13.2044 5.85482 12.9327 6.0484C12.661 6.24198 12.3356 6.34602 12.002 6.34602C11.6684 6.34602 11.3431 6.24198 11.0713 6.0484C10.7996 5.85482 10.595 5.58133 10.486 5.266C10.455 5.17327 10.3899 5.09573 10.304 5.04898C10.2182 5.00223 10.1177 4.98973 10.023 5.014C9.45301 5.174 8.91301 5.404 8.41001 5.691C8.33174 5.73693 8.27261 5.80949 8.24342 5.89541C8.21423 5.98134 8.21692 6.0749 8.25101 6.159C8.37124 6.45176 8.40258 6.77346 8.34111 7.08392C8.27963 7.39438 8.12808 7.67986 7.90535 7.90472C7.68263 8.12957 7.39861 8.28385 7.08875 8.34828C6.77888 8.41271 6.45691 8.38444 6.16301 8.267C6.07752 8.2313 5.98202 8.22762 5.89403 8.25664C5.80605 8.28566 5.73148 8.34544 5.68401 8.425C5.39672 8.93065 5.17174 9.46924 5.01401 10.029C4.99015 10.1228 5.00239 10.2222 5.04833 10.3074C5.09426 10.3926 5.17053 10.4574 5.26201 10.489C5.57308 10.6007 5.84206 10.8058 6.03221 11.0762C6.22236 11.3465 6.32441 11.669 6.32441 11.9995C6.32441 12.33 6.22236 12.6525 6.03221 12.9229C5.84206 13.1932 5.57308 13.3983 5.26201 13.51C5.1702 13.5412 5.09356 13.6059 5.0474 13.6912C5.00124 13.7765 4.98896 13.8761 5.01301 13.97C5.15601 14.474 5.35301 14.956 5.59501 15.41C5.69101 15.589 5.91301 15.65 6.09701 15.566C6.57601 15.346 7.17701 15.353 7.79001 15.757C7.88608 15.821 7.96864 15.9032 8.03301 15.999C8.45701 16.642 8.44501 17.271 8.19301 17.759C8.14648 17.8445 8.13444 17.9446 8.15936 18.0387C8.18428 18.1327 8.24427 18.2137 8.32701 18.265C8.85942 18.5771 9.42977 18.8194 10.024 18.986C10.1181 19.0107 10.2181 18.9984 10.3034 18.9517C10.3887 18.9051 10.453 18.8275 10.483 18.735C10.5905 18.4177 10.7946 18.142 11.0666 17.9466C11.3386 17.7511 11.665 17.6457 12 17.645C12.707 17.645 13.302 18.102 13.518 18.735C13.584 18.925 13.783 19.041 13.977 18.986C14.5638 18.8211 15.1273 18.5826 15.654 18.276C15.7375 18.2249 15.798 18.1435 15.8229 18.0489C15.8479 17.9543 15.8354 17.8536 15.788 17.768C15.532 17.278 15.517 16.648 15.942 16.002C16.0063 15.9059 16.0889 15.8233 16.185 15.759C16.805 15.348 17.413 15.346 17.895 15.574C17.9828 15.6179 18.084 15.6264 18.178 15.598C18.2719 15.5695 18.3513 15.5062 18.4 15.421C18.644 14.967 18.841 14.484 18.985 13.978C19.0092 13.8835 18.9966 13.7834 18.9499 13.6978C18.9031 13.6123 18.8256 13.5476 18.733 13.517" fill="#42526E"/>
</svg>
