<svg width="24" height="24" viewBox="0 0 24 24" fill="none" xmlns="http://www.w3.org/2000/svg">
<rect width="24" height="24" fill="white" fill-opacity="0.01"/>
<path fill-rule="evenodd" clip-rule="evenodd" d="M8.58 11H6C5.73478 11 5.48043 11.1054 5.29289 11.2929C5.10536 11.4804 5 11.7348 5 12C5 12.2652 5.10536 12.5196 5.29289 12.7071C5.48043 12.8946 5.73478 13 6 13H12.327C13.622 13.34 14.174 13.822 14.174 14.642C14.174 15.6 13.302 16.29 12.099 16.29C11.091 16.29 10.32 15.892 9.972 15.234C9.782 14.873 9.45 14.61 9.042 14.61H8.882C8.398 14.61 8.014 15.07 8.151 15.535C8.602 17.068 10.013 18 11.986 18C14.464 18 16 16.614 16 14.388C16 13.856 15.919 13.397 15.747 13H18C18.2652 13 18.5196 12.8946 18.7071 12.7071C18.8946 12.5196 19 12.2652 19 12C19 11.7348 18.8946 11.4804 18.7071 11.2929C18.5196 11.1054 18.2652 11 18 11H12.444L11.88 10.855C10.612 10.531 10.096 10.08 10.096 9.311C10.096 8.336 10.874 7.703 12.049 7.703C12.92 7.703 13.593 8.086 13.909 8.73C14.083 9.086 14.408 9.342 14.803 9.342H14.948C15.434 9.342 15.823 8.879 15.677 8.415C15.221 6.958 13.846 6 12.057 6C9.77 6 8.255 7.378 8.255 9.453C8.255 10.05 8.362 10.563 8.58 11Z" fill="#42526E"/>
</svg>
