<svg width="24" height="24" viewBox="0 0 24 24" fill="none" xmlns="http://www.w3.org/2000/svg">
<rect width="24" height="24" fill="white" fill-opacity="0.01"/>
<path fill-rule="evenodd" clip-rule="evenodd" d="M7.5 6H16.5C16.8978 6 17.2794 6.15804 17.5607 6.43934C17.842 6.72064 18 7.10218 18 7.5V16.5C18 16.8978 17.842 17.2794 17.5607 17.5607C17.2794 17.842 16.8978 18 16.5 18H7.5C7.10218 18 6.72064 17.842 6.43934 17.5607C6.15804 17.2794 6 16.8978 6 16.5V7.5C6 7.10218 6.15804 6.72064 6.43934 6.43934C6.72064 6.15804 7.10218 6 7.5 6ZM10.572 14.838L10.715 14.992C10.7649 15.046 10.8262 15.0883 10.8943 15.1159C10.9625 15.1436 11.0359 15.1558 11.1094 15.1518C11.1828 15.1478 11.2545 15.1276 11.3192 15.0927C11.384 15.0579 11.4402 15.0091 11.484 14.95L11.614 14.775L15.347 9.73C15.4632 9.57034 15.5163 9.37334 15.496 9.17691C15.4757 8.98048 15.3834 8.7985 15.237 8.666C15.1668 8.60423 15.0843 8.55797 14.995 8.53024C14.9057 8.5025 14.8115 8.49393 14.7186 8.50506C14.6258 8.5162 14.5363 8.5468 14.4561 8.59486C14.3758 8.64293 14.3066 8.70738 14.253 8.784L11.01 13.171L9.695 11.749C9.6328 11.6792 9.55655 11.6233 9.47124 11.5851C9.38593 11.5468 9.29349 11.5271 9.2 11.5271C9.10651 11.5271 9.01407 11.5468 8.92876 11.5851C8.84345 11.6233 8.7672 11.6792 8.705 11.749C8.57309 11.896 8.50013 12.0865 8.50013 12.284C8.50013 12.4815 8.57309 12.672 8.705 12.819L10.572 14.838Z" fill="#42526E"/>
</svg>
