<svg width="24" height="24" viewBox="0 0 24 24" fill="none" xmlns="http://www.w3.org/2000/svg">
<rect width="24" height="24" fill="white" fill-opacity="0.01"/>
<path fill-rule="evenodd" clip-rule="evenodd" d="M6.26 6.678L3.023 16.212C2.99761 16.2872 2.99047 16.3673 3.00217 16.4458C3.01388 16.5242 3.04408 16.5988 3.0903 16.6633C3.13651 16.7277 3.1974 16.7803 3.26795 16.8166C3.33849 16.8529 3.41666 16.8719 3.496 16.872H4.528C4.68849 16.872 4.84475 16.8205 4.9738 16.7251C5.10286 16.6297 5.19792 16.4954 5.245 16.342L5.893 14.235H9.63L10.277 16.342C10.3241 16.4954 10.4191 16.6297 10.5482 16.7251C10.6772 16.8205 10.8335 16.872 10.994 16.872H12.107C12.1863 16.8719 12.2645 16.8529 12.335 16.8166C12.4056 16.7803 12.4665 16.7277 12.5127 16.6633C12.5589 16.5988 12.5891 16.5242 12.6008 16.4458C12.6125 16.3673 12.6054 16.2872 12.58 16.212L9.337 6.677C9.26956 6.47943 9.14199 6.30791 8.97216 6.1865C8.80233 6.06509 8.59876 5.99987 8.39 6H7.207C6.99811 5.99995 6.79445 6.06531 6.6246 6.18691C6.45476 6.3085 6.32726 6.48024 6.26 6.678ZM7.736 8.08H7.787L9.151 12.533H6.372L7.736 8.08ZM18.849 10.123V9.796C18.849 9.53078 18.9544 9.27643 19.1419 9.08889C19.3294 8.90136 19.5838 8.796 19.849 8.796H20C20.2652 8.796 20.5196 8.90136 20.7071 9.08889C20.8946 9.27643 21 9.53078 21 9.796V15.874C21 16.1392 20.8946 16.3936 20.7071 16.5811C20.5196 16.7686 20.2652 16.874 20 16.874H19.849C19.5838 16.874 19.3294 16.7686 19.1419 16.5811C18.9544 16.3936 18.849 16.1392 18.849 15.874V15.562H18.761C18.369 16.436 17.529 17.001 16.343 17.001C14.368 17.001 13.122 15.388 13.122 12.819C13.122 10.273 14.376 8.669 16.343 8.669C17.515 8.669 18.369 9.264 18.761 10.123H18.849ZM18.804 12.835C18.804 11.365 18.119 10.431 17.05 10.431C15.982 10.431 15.325 11.351 15.325 12.835C15.325 14.326 15.982 15.23 17.05 15.23C18.126 15.23 18.804 14.319 18.804 12.835Z" fill="#42526E"/>
</svg>
