<svg width="24" height="24" viewBox="0 0 24 24" fill="none" xmlns="http://www.w3.org/2000/svg">
<rect width="24" height="24" fill="white" fill-opacity="0.01"/>
<path d="M8.93097 11.658C9.91997 10.055 11.596 9 13.5 9C16.538 9 18.992 11.686 19 15H17.5C17.5 12.487 15.679 10.5 13.5 10.5C12.163 10.5 10.96 11.249 10.23 12.408L12.26 13.58C12.5 13.719 12.48 13.905 12.231 13.99L9.50097 14.92L9.49997 15V14.92L8.12797 15.387C8.07014 15.4079 8.00843 15.4159 7.94717 15.4105C7.88591 15.4051 7.82658 15.3863 7.77333 15.3555C7.72008 15.3248 7.6742 15.2827 7.6389 15.2324C7.6036 15.182 7.57973 15.1246 7.56897 15.064L6.72897 10.813C6.67597 10.547 6.83497 10.448 7.06897 10.583L8.93097 11.658Z" fill="#42526E"/>
</svg>
