<svg width="24" height="24" viewBox="0 0 24 24" fill="none" xmlns="http://www.w3.org/2000/svg">
<rect width="24" height="24" fill="white" fill-opacity="0.01"/>
<path d="M5 10V9H7V10H5ZM9 5H10V7H9V5ZM16.646 17.354L17.354 16.646L19.354 18.646L18.646 19.354L16.646 17.354ZM17 15V14H19V15H17ZM14 17H15V19H14V17ZM7.354 6.646L6.646 7.354L4.646 5.354L5.354 4.646L7.354 6.646ZM10.921 15.683L11.982 14.621C12.0512 14.5494 12.134 14.4923 12.2255 14.453C12.317 14.4138 12.4155 14.3931 12.5151 14.3923C12.6146 14.3915 12.7134 14.4105 12.8055 14.4483C12.8977 14.486 12.9814 14.5418 13.0518 14.6122C13.1222 14.6827 13.1778 14.7664 13.2155 14.8586C13.2532 14.9508 13.2721 15.0496 13.2712 15.1492C13.2703 15.2487 13.2495 15.3471 13.2102 15.4386C13.1708 15.5301 13.1137 15.6128 13.042 15.682L11.982 16.743C11.6803 17.0449 11.322 17.2844 10.9277 17.4477C10.5334 17.6111 10.1108 17.6952 9.684 17.6952C9.25719 17.6952 8.83456 17.6111 8.44026 17.4477C8.04596 17.2844 7.68772 17.0449 7.386 16.743C7.08388 16.4414 6.84419 16.0832 6.68066 15.6889C6.51712 15.2946 6.43295 14.8719 6.43295 14.445C6.43295 14.0181 6.51712 13.5954 6.68066 13.2011C6.84419 12.8068 7.08388 12.4486 7.386 12.147L8.446 11.086L9.149 10.383C9.942 9.753 10.922 10.733 10.209 11.443L9.507 12.146L8.447 13.208C8.28427 13.3703 8.15516 13.5631 8.06706 13.7754C7.97897 13.9876 7.93362 14.2152 7.93362 14.445C7.93362 14.6748 7.97897 14.9024 8.06706 15.1146C8.15516 15.3269 8.28427 15.5197 8.447 15.682C8.60942 15.8445 8.80226 15.9734 9.01451 16.0613C9.22675 16.1493 9.45425 16.1945 9.684 16.1945C9.91374 16.1945 10.1412 16.1493 10.3535 16.0613C10.5657 15.9734 10.7586 15.8445 10.921 15.682V15.683ZM13.579 8.075L12.518 9.136C12.3758 9.26848 12.1878 9.3406 11.9935 9.33718C11.7992 9.33375 11.6138 9.25503 11.4764 9.11762C11.339 8.98021 11.2602 8.79482 11.2568 8.60052C11.2534 8.40622 11.3255 8.21818 11.458 8.076L12.518 7.014C12.8197 6.71212 13.178 6.47265 13.5723 6.30926C13.9666 6.14587 14.3892 6.06178 14.816 6.06178C15.2428 6.06178 15.6654 6.14587 16.0597 6.30926C16.454 6.47265 16.8123 6.71212 17.114 7.014C17.4161 7.31559 17.6558 7.67379 17.8193 8.0681C17.9829 8.46242 18.067 8.88512 18.067 9.312C18.067 9.73888 17.9829 10.1616 17.8193 10.5559C17.6558 10.9502 17.4161 11.3084 17.114 11.61L16.054 12.672L15.351 13.374C14.786 13.939 13.77 12.924 14.291 12.314L14.993 11.611L16.053 10.55C16.2159 10.3877 16.3451 10.1948 16.4333 9.98248C16.5215 9.77012 16.5669 9.54244 16.5669 9.3125C16.5669 9.08256 16.5215 8.85488 16.4333 8.64252C16.3451 8.43017 16.2159 8.2373 16.053 8.075C15.8906 7.91251 15.6977 7.78361 15.4855 7.69567C15.2732 7.60772 15.0457 7.56246 14.816 7.56246C14.5863 7.56246 14.3588 7.60772 14.1465 7.69567C13.9343 7.78361 13.7414 7.91251 13.579 8.075Z" fill="#42526E"/>
</svg>
