<svg width="24" height="24" viewBox="0 0 24 24" fill="none" xmlns="http://www.w3.org/2000/svg">
<rect width="24" height="24" fill="white" fill-opacity="0.01"/>
<path fill-rule="evenodd" clip-rule="evenodd" d="M13.31 5.343L20.669 18.513C20.7539 18.6652 20.7975 18.8369 20.7955 19.0111C20.7936 19.1853 20.7462 19.356 20.658 19.5063C20.5698 19.6565 20.4438 19.7811 20.2926 19.8677C20.1414 19.9543 19.9702 19.9999 19.796 20H4.20401C4.02963 20 3.85828 19.9545 3.70695 19.8678C3.55562 19.7812 3.42958 19.6564 3.34134 19.506C3.2531 19.3556 3.20572 19.1848 3.20391 19.0104C3.2021 18.836 3.24592 18.6642 3.33101 18.512L10.691 5.343C10.8213 5.11024 11.0112 4.91642 11.2413 4.78151C11.4714 4.64659 11.7333 4.57547 12 4.57547C12.2667 4.57547 12.5286 4.64659 12.7587 4.78151C12.9888 4.91642 13.1788 5.11024 13.309 5.343H13.31ZM12 8.5C11.8442 8.49999 11.6903 8.53334 11.5484 8.5978C11.4066 8.66227 11.2803 8.75636 11.1778 8.87375C11.0754 8.99113 10.9993 9.12909 10.9547 9.27833C10.91 9.42758 10.8979 9.58466 10.919 9.739L11.432 13.505C11.4503 13.6427 11.518 13.769 11.6225 13.8605C11.727 13.952 11.8611 14.0025 12 14.0025C12.1389 14.0025 12.2731 13.952 12.3775 13.8605C12.482 13.769 12.5497 13.6427 12.568 13.505L13.081 9.739C13.1021 9.58466 13.09 9.42758 13.0453 9.27833C13.0007 9.12909 12.9246 8.99113 12.8222 8.87375C12.7198 8.75636 12.5934 8.66227 12.4516 8.5978C12.3098 8.53334 12.1558 8.49999 12 8.5ZM12 17.13C12.2984 17.13 12.5845 17.0115 12.7955 16.8005C13.0065 16.5895 13.125 16.3034 13.125 16.005C13.125 15.7066 13.0065 15.4205 12.7955 15.2095C12.5845 14.9985 12.2984 14.88 12 14.88C11.7016 14.88 11.4155 14.9985 11.2045 15.2095C10.9935 15.4205 10.875 15.7066 10.875 16.005C10.875 16.3034 10.9935 16.5895 11.2045 16.8005C11.4155 17.0115 11.7016 17.13 12 17.13Z" fill="#42526E"/>
</svg>
