<svg viewBox="0 0 24 24" fill="none" xmlns="http://www.w3.org/2000/svg">
  <symbol id="cast">
    <title>cast</title>
    <path
      d="M11.4697 14.0303L5.78035 19.7196C5.30787 20.1921 5.6425 21 6.31068 21H17.6894C18.3575 21 18.6922 20.1921 18.2197 19.7196L12.5303 14.0303C12.2375 13.7374 11.7626 13.7374 11.4697 14.0303Z"
      fill="currentColor" />
    <path
      d="M17.1213 16.5H21.75C22.1642 16.5 22.5 16.1642 22.5 15.75V5.25C22.5 4.83579 22.1642 4.5 21.75 4.5H2.25C1.83579 4.5 1.5 4.83579 1.5 5.25V15.75C1.5 16.1642 1.83579 16.5 2.25 16.5H6.87866L5.37866 18H2.25C1.00736 18 0 16.9926 0 15.75V5.25C0 4.00736 1.00736 3 2.25 3H21.75C22.9926 3 24 4.00736 24 5.25V15.75C24 16.9926 22.9926 18 21.75 18H18.6213L17.1213 16.5Z"
      fill="currentColor" />

  </symbol>
  <symbol id="check">
    <title>check</title>
    <path
      d="M9.41409 15.5858L5.41421 11.5857L4 12.9999L9.41409 18.4142L20.4141 7.41423L18.9998 6.00001L9.41409 15.5858Z"
      fill="currentColor" />
  </symbol>
  <symbol id="cancel">
    <title>cancel</title>

    <path
      d="M6.22566 4.81108C5.83514 4.42056 5.20197 4.42056 4.81145 4.81108C4.42092 5.20161 4.42092 5.83477 4.81145 6.2253L10.5862 12L4.81151 17.7747C4.42098 18.1652 4.42098 18.7984 4.81151 19.1889C5.20203 19.5794 5.8352 19.5794 6.22572 19.1889L12.0004 13.4142L17.7751 19.1889C18.1656 19.5794 18.7988 19.5794 19.1893 19.1889C19.5798 18.7984 19.5798 18.1652 19.1893 17.7747L13.4146 12L19.1893 6.2253C19.5799 5.83477 19.5799 5.20161 19.1893 4.81108C18.7988 4.42056 18.1657 4.42056 17.7751 4.81108L12.0004 10.5858L6.22566 4.81108Z"
      fill="currentColor" />

  </symbol>
  <symbol id="arrow-right">
    <title>arrow-right</title>
    <path
      d="M15.0377 6.34314L13.6268 7.76066L16.897 11.0156L3.29199 11.0293L3.294 13.0293L16.8618 13.0157L13.6466 16.2459L15.0641 17.6568L20.7078 11.9867L15.0377 6.34314Z"
      fill="currentColor" />

  </symbol>
  <symbol id="chevron-down">
    <title>chevron-down</title>
    <path
      d="M6.34292 7.75732L4.92871 9.17154L11.9998 16.2426L19.0708 9.17157L17.6566 7.75735L11.9998 13.4142L6.34292 7.75732Z"
      fill="currentColor" />

  </symbol>
  <symbol id="chevron-left">
    <title>chevron-left</title>
    <path d="M16.4854 6.34317L15.0712 4.92896L8.00012 12L15.0712 19.0711L16.4854 17.6569L10.8285 12L16.4854 6.34317Z"
      fill="currentColor" />
  </symbol>

  <symbol id="chevron-right">
    <title>chevron-right</title>
    <path d="M8.00012 6.34317L9.41434 4.92896L16.4854 12L9.41434 19.0711L8.00012 17.6569L13.657 12L8.00012 6.34317Z"
      fill="currentColor" />
  </symbol>

  <symbol id="arrow-left">
    <title>arrow-left</title>
    <path
      d="M20.3287 11.0001V13.0001L7.50042 13.0001L10.7429 16.2426L9.32873 17.6568L3.67188 12L9.32873 6.34314L10.7429 7.75735L7.50019 11.0001L20.3287 11.0001Z"
      fill="currentColor" />

  </symbol>

  <symbol id="menu">
    <title>menu</title>
    <path
      d="M2 6C2 5.44772 2.44772 5 3 5H21C21.5523 5 22 5.44772 22 6C22 6.55228 21.5523 7 21 7H3C2.44772 7 2 6.55228 2 6Z"
      fill="currentColor" />
    <path
      d="M2 12.0322C2 11.4799 2.44772 11.0322 3 11.0322H21C21.5523 11.0322 22 11.4799 22 12.0322C22 12.5845 21.5523 13.0322 21 13.0322H3C2.44772 13.0322 2 12.5845 2 12.0322Z"
      fill="currentColor" />
    <path
      d="M3 17.0645C2.44772 17.0645 2 17.5122 2 18.0645C2 18.6167 2.44772 19.0645 3 19.0645H21C21.5523 19.0645 22 18.6167 22 18.0645C22 17.5122 21.5523 17.0645 21 17.0645H3Z"
      fill="currentColor" />
  </symbol>

  <symbol id="trash-empty">
    <title>trash-empty</title>
    <path fill-rule="evenodd" clip-rule="evenodd"
      d="M7 6V5C7 3.89543 7.89543 3 9 3H15C16.1046 3 17 3.89543 17 5V6H20C20.5523 6 21 6.44772 21 7C21 7.55228 20.5523 8 20 8H19V19C19 20.6569 17.6569 22 16 22H8C6.34315 22 5 20.6569 5 19V8H4C3.44772 8 3 7.55228 3 7C3 6.44772 3.44772 6 4 6H7ZM9 5H15V6H9V5ZM7 8H17V19C17 19.5523 16.5523 20 16 20H8C7.44772 20 7 19.5523 7 19V8Z"
      fill="currentColor" />
  </symbol>

  <symbol id="calendar-today">
    <title>calendar-today</title>
    <path
      d="M15 17C16.1046 17 17 16.1046 17 15C17 13.8954 16.1046 13 15 13C13.8954 13 13 13.8954 13 15C13 16.1046 13.8954 17 15 17Z"
      fill="currentColor" />
    <path fill-rule="evenodd" clip-rule="evenodd"
      d="M6 3C4.34315 3 3 4.34315 3 6V18C3 19.6569 4.34315 21 6 21H18C19.6569 21 21 19.6569 21 18V6C21 4.34315 19.6569 3 18 3H6ZM5 18V8H19V18C19 18.5523 18.5523 19 18 19H6C5.44772 19 5 18.5523 5 18Z"
      fill="currentColor" />
  </symbol>

  <symbol id="more-vertical-alt">
    <title>more-vertical-alt</title>
    <path
      d="M14 6C14 7.10457 13.1046 8 12 8C10.8954 8 10 7.10457 10 6C10 4.89543 10.8954 4 12 4C13.1046 4 14 4.89543 14 6Z"
      fill="currentColor" />
    <path
      d="M14 12C14 13.1046 13.1046 14 12 14C10.8954 14 10 13.1046 10 12C10 10.8954 10.8954 10 12 10C13.1046 10 14 10.8954 14 12Z"
      fill="currentColor" />
    <path
      d="M14 18C14 19.1046 13.1046 20 12 20C10.8954 20 10 19.1046 10 18C10 16.8954 10.8954 16 12 16C13.1046 16 14 16.8954 14 18Z"
      fill="currentColor" />

  </symbol>

  <symbol id="pen-2">
    <title>pen-2</title>
    <path fill-rule="evenodd" clip-rule="evenodd"
      d="M20.4648 2.09154C20.0743 1.70101 19.4411 1.70101 19.0506 2.09154C18.9516 2.19055 18.8015 2.21467 18.6708 2.16439C17.5979 1.75169 16.3358 1.97794 15.4706 2.84315L4.59661 13.7172C4.44041 13.8734 4.44041 14.1266 4.59662 14.2828L9.68778 19.374C9.84399 19.5302 10.0973 19.5302 10.2535 19.374L21.1274 8.5C21.9926 7.6348 22.2189 6.3726 21.8062 5.29977C21.7559 5.16907 21.78 5.01897 21.879 4.91997C22.2696 4.52944 22.2696 3.89628 21.879 3.50575L20.4648 2.09154ZM19.954 6.27925C20.1103 6.43546 20.1103 6.68872 19.954 6.84493L10.2535 16.5456C10.0973 16.7018 9.84399 16.7018 9.68778 16.5456L7.42504 14.2828C7.26883 14.1266 7.26883 13.8734 7.42504 13.7172L17.1256 4.01651C17.2818 3.8603 17.5351 3.8603 17.6913 4.01651L19.954 6.27925Z"
      fill="currentColor" />
    <path
      d="M1.67536 22.766C1.37676 22.8475 1.10276 22.5735 1.18421 22.2749L2.94032 15.8367C3.02114 15.5404 3.39192 15.4419 3.60908 15.6591L8.29086 20.3415C8.50801 20.5587 8.40954 20.9295 8.11324 21.0103L1.67536 22.766Z"
      fill="currentColor" />

  </symbol>

  <symbol id="external">
    <title>external</title>
    <path
      d="M15.6401 7.02527H12.0186V5.02527H19.0186V12.0253H17.0186V8.47528L12.1046 13.3892L10.6904 11.975L15.6401 7.02527Z"
      fill="currentColor" />
    <path d="M10.9824 6.97473H4.98242V18.9747H16.9824V12.9747H14.9824V16.9747H6.98242V8.97473H10.9824V6.97473Z"
      fill="currentColor" />

  </symbol>

  <symbol id="math-plus">
    <title>math-plus</title>
    <path
      d="M12 4C11.4477 4 11 4.44772 11 5V11H5C4.44772 11 4 11.4477 4 12C4 12.5523 4.44772 13 5 13H11V19C11 19.5523 11.4477 20 12 20C12.5523 20 13 19.5523 13 19V13H19C19.5523 13 20 12.5523 20 12C20 11.4477 19.5523 11 19 11H13V5C13 4.44772 12.5523 4 12 4Z"
      fill="currentColor" />

  </symbol>


  <symbol id="record">
    <title>record</title>

    <path fill-rule="evenodd" clip-rule="evenodd"
      d="M12 19.5C16.1421 19.5 19.5 16.1421 19.5 12C19.5 7.85786 16.1421 4.5 12 4.5C7.85786 4.5 4.5 7.85786 4.5 12C4.5 16.1421 7.85786 19.5 12 19.5Z"
      fill="currentColor" />


  </symbol>

  <symbol id="play">
    <title>play</title>

    <path
      d="M17.3946 13.0449L7.84919 18.5827C7.03875 19.0529 6 18.4842 6 17.5383V6.46269C6 5.51674 7.03875 4.94806 7.84919 5.41824L17.3946 10.956C18.2018 11.4243 18.2018 12.5767 17.3946 13.0449Z"
      fill="currentColor" />


  </symbol>

  <symbol id="pause">
    <title>pause</title>

    <path
      d="M8.25 5.25C9.49264 5.25 10.5 6.25736 10.5 7.5V16.5C10.5 17.7426 9.49264 18.75 8.25 18.75C7.00736 18.75 6 17.7426 6 16.5V7.5C6 6.25736 7.00736 5.25 8.25 5.25Z"
      fill="currentColor" />
    <path
      d="M15.75 5.25C16.9926 5.25 18 6.25736 18 7.5V16.5C18 17.7426 16.9926 18.75 15.75 18.75C14.5074 18.75 13.5 17.7426 13.5 16.5V7.5C13.5 6.25736 14.5074 5.25 15.75 5.25Z"
      fill="currentColor" />


  </symbol>

  <symbol id="stop">
    <title>stop</title>
    <path
      d="M7.5 5.25H16.5C17.7426 5.25 18.75 6.25736 18.75 7.5V16.5C18.75 17.7426 17.7426 18.75 16.5 18.75H7.5C6.25736 18.75 5.25 17.7426 5.25 16.5V7.5C5.25 6.25736 6.25736 5.25 7.5 5.25Z"
      fill="currentColor" />

  </symbol>

  <symbol id="download">
    <title>download</title>
    <path fill-rule="evenodd" clip-rule="evenodd"
      d="M6.60864 2.01273C7.96764 0.840683 9.86038 0 12 0C16.0354 0 19.3849 2.99916 19.7485 6.86847C22.1371 7.20616 24 9.20484 24 11.6591C24 14.3542 21.7535 16.5 19.0312 16.5H15C14.5858 16.5 14.25 16.1642 14.25 15.75C14.25 15.3358 14.5858 15 15 15H19.0312C20.9689 15 22.5 13.4826 22.5 11.6591C22.5 9.83555 20.9689 8.31818 19.0312 8.31818H18.2812V7.56818C18.2812 4.2384 15.491 1.5 12 1.5C10.2564 1.5 8.7038 2.18659 7.58829 3.14864C6.45346 4.12736 5.85938 5.30745 5.85938 6.23182V6.9039L5.19132 6.97733C3.09556 7.20768 1.5 8.92898 1.5 10.9773C1.5 13.1774 3.34589 15 5.67188 15H9C9.41421 15 9.75 15.3358 9.75 15.75C9.75 16.1642 9.41421 16.5 9 16.5H5.67188C2.56131 16.5 0 14.049 0 10.9773C0 8.33267 1.89879 6.14268 4.41334 5.5875C4.62719 4.29255 5.45978 3.00355 6.60864 2.01273Z"
      fill="currentColor" />
    <path fill-rule="evenodd" clip-rule="evenodd"
      d="M11.4697 23.7803C11.7626 24.0732 12.2374 24.0732 12.5303 23.7803L17.0303 19.2803C17.3232 18.9874 17.3232 18.5126 17.0303 18.2197C16.7374 17.9268 16.2626 17.9268 15.9697 18.2197L12.75 21.4393V8.25C12.75 7.83579 12.4142 7.5 12 7.5C11.5858 7.5 11.25 7.83579 11.25 8.25V21.4393L8.03033 18.2197C7.73744 17.9268 7.26256 17.9268 6.96967 18.2197C6.67678 18.5126 6.67678 18.9874 6.96967 19.2803L11.4697 23.7803Z"
      fill="currentColor" />
  </symbol>
</svg>
