<svg width="428" height="360" viewBox="0 0 428 360" fill="none" xmlns="http://www.w3.org/2000/svg">
  <g clip-path="url(#clip0)">
    <path
      d="M381.639 144.799C381.639 145.729 379.82 146.107 378.823 145.638L257.457 87.2519C256.927 86.9727 256.486 86.5955 256.17 86.1511C255.855 85.7067 255.671 85.2078 255.639 84.6954L255 16L381.639 75.9504V144.799Z"
      fill="#37474F" fill-opacity="0.5" />
    <path
      d="M254.811 11.606C254.811 10.6468 255.648 10.2569 256.666 10.7404L379.611 68.8776C380.153 69.1655 380.603 69.5544 380.926 70.0126C381.248 70.4708 381.435 70.9852 381.468 71.5135V76.5201L254.811 16.6048V11.606Z"
      fill="#5BBD81" />
    <path opacity="0.15"
      d="M383.846 75.3501V70.4059C383.831 69.8545 383.637 69.3163 383.285 68.8462L380.915 69.9614C381.264 70.4154 381.458 70.9379 381.476 71.4743V76.5199L383.846 75.3501Z"
      fill="black" />
    <path
      d="M377.279 69.9228C377.613 70.1403 377.882 70.4181 378.064 70.7347C378.245 71.0512 378.335 71.3979 378.326 71.7476C378.326 72.4729 377.86 72.8472 377.279 72.5742C376.945 72.3567 376.677 72.0789 376.495 71.7623C376.314 71.4458 376.224 71.0991 376.232 70.7494C376.232 70.0242 376.699 69.6498 377.279 69.9228Z"
      fill="#455A64" />
    <path
      d="M373.501 68.1366C373.835 68.3525 374.104 68.6289 374.285 68.9442C374.467 69.2595 374.557 69.6051 374.547 69.9536C374.547 70.6867 374.081 71.0532 373.501 70.7803C373.167 70.5644 372.898 70.2879 372.717 69.9727C372.535 69.6574 372.445 69.3118 372.454 68.9632C372.454 68.2302 372.921 67.8637 373.501 68.1366Z"
      fill="#455A64" />
    <path
      d="M369.722 66.3826C370.056 66.6001 370.325 66.8779 370.507 67.1945C370.688 67.511 370.778 67.8577 370.769 68.2074C370.769 68.9327 370.303 69.307 369.722 69.034C369.389 68.8161 369.121 68.5382 368.94 68.2217C368.757 67.9053 368.667 67.5588 368.675 67.2092C368.675 66.4372 369.142 66.0706 369.722 66.3826Z"
      fill="#455A64" />
    <path opacity="0.9"
      d="M380.8 145.684L380.895 145.637L382.856 144.709C383.113 144.585 383.334 144.415 383.499 144.211C383.663 144.007 383.769 143.774 383.808 143.532C383.813 143.459 383.813 143.386 383.808 143.313V75.3423L381.429 76.4887V144.764C381.431 144.937 381.379 145.107 381.277 145.259C381.175 145.411 381.028 145.538 380.848 145.63H380.791L380.8 145.684Z"
      fill="#263238" />
    <path
      d="M292.471 42.5503L318.386 54.786C318.575 54.8817 318.736 55.0129 318.851 55.1688C318.967 55.3247 319.035 55.5009 319.052 55.6829C319.052 56.0104 318.757 56.1352 318.386 55.9558L292.471 43.7201C292.284 43.6231 292.126 43.4914 292.012 43.3356C291.898 43.1799 291.831 43.0044 291.814 42.8233C291.814 42.4957 292.109 42.3788 292.471 42.5503Z"
      fill="#5BBD81" />
    <path
      d="M302.378 65.9766L312.161 70.6089C312.35 70.7054 312.506 70.837 312.621 70.9928C312.735 71.1487 312.803 71.3244 312.818 71.5057C312.818 71.8254 312.523 71.9502 312.161 71.7786L302.378 67.162C302.187 67.0673 302.027 66.9363 301.911 66.7802C301.796 66.6241 301.727 66.4475 301.712 66.2651C301.693 65.9298 302.007 65.805 302.378 65.9766Z"
      fill="#E6E6E6" />
    <path
      d="M302.378 70.6634L312.161 75.2878C312.349 75.3865 312.506 75.5197 312.62 75.6767C312.734 75.8337 312.802 76.0103 312.818 76.1925C312.818 76.5122 312.523 76.637 312.161 76.4654L302.378 71.8409C302.188 71.7453 302.029 71.6141 301.913 71.4582C301.797 71.3023 301.728 71.1261 301.712 70.9441C301.693 70.6088 302.007 70.4918 302.378 70.6634Z"
      fill="#E6E6E6" />
    <path
      d="M320.947 55.9946L372.844 80.4816C373.032 80.5804 373.189 80.7135 373.303 80.8705C373.416 81.0275 373.484 81.2041 373.501 81.3863C373.501 81.706 373.205 81.8308 372.844 81.6592L320.947 57.1722C320.759 57.0735 320.602 56.9403 320.488 56.7833C320.374 56.6263 320.306 56.4498 320.29 56.2676C320.29 55.9478 320.585 55.8231 320.947 55.9946Z"
      fill="#5BBD81" />
    <path
      d="M302.587 98.8311L318.386 106.325C318.577 106.42 318.737 106.551 318.853 106.707C318.969 106.863 319.037 107.04 319.052 107.222C319.052 107.542 318.757 107.667 318.386 107.495L302.587 100.001C302.399 99.9043 302.242 99.7727 302.128 99.6169C302.014 99.461 301.946 99.2853 301.931 99.104C301.931 98.7843 302.225 98.6595 302.587 98.8311Z"
      fill="#5BBD81" />
    <path
      d="M320.947 107.534L372.844 132.052C373.031 132.15 373.189 132.281 373.303 132.437C373.416 132.593 373.484 132.768 373.501 132.949C373.501 133.277 373.205 133.394 372.844 133.222L320.947 108.704C320.759 108.607 320.602 108.475 320.488 108.32C320.374 108.164 320.306 107.988 320.29 107.807C320.29 107.48 320.585 107.363 320.947 107.534Z"
      fill="#5BBD81" />
    <path
      d="M292.471 47.2447L305.5 53.3899C305.687 53.4869 305.845 53.6186 305.958 53.7743C306.072 53.9301 306.14 54.1056 306.156 54.2867C306.156 54.6142 305.861 54.739 305.5 54.5596L292.471 48.4457C292.283 48.3491 292.125 48.2176 292.011 48.0617C291.897 47.9059 291.83 47.7302 291.814 47.5489C291.814 47.1979 292.109 47.0732 292.471 47.2447Z"
      fill="#5BBD81" />
    <path opacity="0.6"
      d="M292.471 47.2447L305.5 53.3899C305.687 53.4869 305.845 53.6186 305.958 53.7743C306.072 53.9301 306.14 54.1056 306.156 54.2867C306.156 54.6142 305.861 54.739 305.5 54.5596L292.471 48.4457C292.283 48.3491 292.125 48.2176 292.011 48.0617C291.897 47.9059 291.83 47.7302 291.814 47.5489C291.814 47.1979 292.109 47.0732 292.471 47.2447Z"
      fill="white" />
    <path
      d="M292.471 51.9235L298.58 54.8089C298.768 54.906 298.925 55.0376 299.039 55.1934C299.153 55.3491 299.221 55.5246 299.237 55.7058C299.237 56.0255 298.942 56.1503 298.58 55.9787L292.471 53.1245C292.284 53.0275 292.126 52.8958 292.012 52.74C291.898 52.5843 291.831 52.4088 291.814 52.2277C291.814 51.8689 292.109 51.752 292.471 51.9235Z"
      fill="#5BBD81" />
    <path opacity="0.6"
      d="M292.471 51.9235L298.58 54.8089C298.768 54.906 298.925 55.0376 299.039 55.1934C299.153 55.3491 299.221 55.5246 299.237 55.7058C299.237 56.0255 298.942 56.1503 298.58 55.9787L292.471 53.1245C292.284 53.0275 292.126 52.8958 292.012 52.74C291.898 52.5843 291.831 52.4088 291.814 52.2277C291.814 51.8689 292.109 51.752 292.471 51.9235Z"
      fill="white" />
    <path
      d="M292.471 61.2896L298.58 64.175C298.768 64.2737 298.925 64.4068 299.039 64.5638C299.153 64.7208 299.221 64.8974 299.237 65.0796C299.237 65.3993 298.942 65.5241 298.58 65.3526L292.471 62.4671C292.283 62.3684 292.126 62.2353 292.012 62.0783C291.898 61.9213 291.831 61.7447 291.814 61.5625C291.814 61.2428 292.109 61.118 292.471 61.2896Z"
      fill="#5BBD81" />
    <path opacity="0.6"
      d="M292.471 61.2896L298.58 64.175C298.768 64.2737 298.925 64.4068 299.039 64.5638C299.153 64.7208 299.221 64.8974 299.237 65.0796C299.237 65.3993 298.942 65.5241 298.58 65.3526L292.471 62.4671C292.283 62.3684 292.126 62.2353 292.012 62.0783C291.898 61.9213 291.831 61.7447 291.814 61.5625C291.814 61.2428 292.109 61.118 292.471 61.2896Z"
      fill="white" />
    <path
      d="M292.471 65.9766L298.58 68.862C298.768 68.959 298.925 69.0907 299.039 69.2464C299.153 69.4022 299.221 69.5777 299.237 69.7588C299.237 70.0864 298.942 70.2111 298.58 70.0318L292.471 67.1464C292.283 67.0498 292.125 66.9182 292.011 66.7624C291.897 66.6065 291.83 66.4308 291.814 66.2495C291.814 65.9298 292.109 65.805 292.471 65.9766Z"
      fill="#5BBD81" />
    <path opacity="0.6"
      d="M292.471 65.9766L298.58 68.862C298.768 68.959 298.925 69.0907 299.039 69.2464C299.153 69.4022 299.221 69.5777 299.237 69.7588C299.237 70.0864 298.942 70.2111 298.58 70.0318L292.471 67.1464C292.283 67.0498 292.125 66.9182 292.011 66.7624C291.897 66.6065 291.83 66.4308 291.814 66.2495C291.814 65.9298 292.109 65.805 292.471 65.9766Z"
      fill="white" />
    <path
      d="M308.089 54.5986L315.911 58.3185C316.101 58.4142 316.261 58.5453 316.376 58.7012C316.492 58.8571 316.561 59.0333 316.578 59.2153C316.578 59.5428 316.283 59.6598 315.911 59.4883L308.089 55.7762C307.898 55.6788 307.739 55.5462 307.623 55.389C307.508 55.2319 307.439 55.0546 307.423 54.8716C307.404 54.5519 307.717 54.4271 308.089 54.5986Z"
      fill="#5BBD81" />
    <path opacity="0.6"
      d="M308.089 54.5986L315.911 58.3185C316.101 58.4142 316.261 58.5453 316.376 58.7012C316.492 58.8571 316.561 59.0333 316.578 59.2153C316.578 59.5428 316.283 59.6598 315.911 59.4883L308.089 55.7762C307.898 55.6788 307.739 55.5462 307.623 55.389C307.508 55.2319 307.439 55.0546 307.423 54.8716C307.404 54.5519 307.717 54.4271 308.089 54.5986Z"
      fill="white" />
    <path
      d="M320.194 88.4747L372.844 113.313C373.032 113.409 373.19 113.541 373.304 113.697C373.418 113.853 373.485 114.028 373.501 114.21C373.501 114.529 373.205 114.654 372.844 114.483L320.194 89.6445C320.004 89.5488 319.845 89.4176 319.729 89.2618C319.614 89.1059 319.544 88.9297 319.527 88.7477C319.527 88.4201 319.823 88.3032 320.194 88.4747Z"
      fill="white" />
    <path
      d="M365.012 104.906L372.844 108.618C373.031 108.715 373.189 108.847 373.303 109.002C373.416 109.158 373.485 109.334 373.501 109.515C373.501 109.842 373.205 109.959 372.844 109.788L365.012 106.076C364.824 105.979 364.667 105.847 364.553 105.691C364.439 105.535 364.371 105.36 364.355 105.179C364.355 104.851 364.65 104.727 365.012 104.906Z"
      fill="white" />
    <path
      d="M309.801 78.8597L362.451 103.698C362.638 103.796 362.796 103.929 362.91 104.086C363.023 104.243 363.091 104.42 363.108 104.602C363.108 104.922 362.812 105.047 362.451 104.875L309.801 80.0296C309.614 79.9313 309.456 79.7982 309.342 79.6411C309.228 79.484 309.161 79.3073 309.144 79.1249C309.144 78.8052 309.439 78.6803 309.801 78.8597Z"
      fill="white" />
    <path
      d="M302.378 56.6107L315.427 62.7559C315.616 62.8506 315.776 62.9815 315.892 63.1376C316.009 63.2937 316.077 63.4704 316.092 63.6527C316.092 63.9724 315.798 64.0972 315.427 63.9256L302.378 57.8039C302.188 57.7082 302.029 57.577 301.913 57.4211C301.797 57.2652 301.728 57.0891 301.712 56.9071C301.693 56.5561 302.007 56.4314 302.378 56.6107Z"
      fill="#5BBD81" />
    <path opacity="0.6"
      d="M302.378 56.6107L315.427 62.7559C315.616 62.8506 315.776 62.9815 315.892 63.1376C316.009 63.2937 316.077 63.4704 316.092 63.6527C316.092 63.9724 315.798 64.0972 315.427 63.9256L302.378 57.8039C302.188 57.7082 302.029 57.577 301.913 57.4211C301.797 57.2652 301.728 57.0891 301.712 56.9071C301.693 56.5561 302.007 56.4314 302.378 56.6107Z"
      fill="white" />
    <path
      d="M317.986 63.9644L372.454 89.7772C372.641 89.8759 372.799 90.009 372.912 90.166C373.026 90.323 373.094 90.4996 373.11 90.6818C373.11 91.0015 372.815 91.1263 372.454 90.9547L317.986 65.1342C317.799 65.0372 317.642 64.9055 317.529 64.7498C317.414 64.594 317.346 64.4185 317.329 64.2374C317.329 63.9098 317.625 63.7929 317.986 63.9644Z"
      fill="#5BBD81" />
    <path opacity="0.6"
      d="M317.986 63.9644L372.454 89.7772C372.641 89.8759 372.799 90.009 372.912 90.166C373.026 90.323 373.094 90.4996 373.11 90.6818C373.11 91.0015 372.815 91.1263 372.454 90.9547L317.986 65.1342C317.799 65.0372 317.642 64.9055 317.529 64.7498C317.414 64.594 317.346 64.4185 317.329 64.2374C317.329 63.9098 317.625 63.7929 317.986 63.9644Z"
      fill="white" />
    <path
      d="M302.378 84.8172L372.806 118.109C372.993 118.206 373.151 118.337 373.265 118.493C373.378 118.649 373.446 118.824 373.463 119.006C373.463 119.333 373.167 119.458 372.806 119.286L302.378 85.9869C302.186 85.8938 302.023 85.7646 301.905 85.6101C301.785 85.4555 301.713 85.28 301.693 85.0979C301.693 84.7626 302.007 84.6456 302.378 84.8172Z"
      fill="#E6E6E6" />
    <path
      d="M292.471 80.1308L298.58 83.0162C298.768 83.1133 298.925 83.2449 299.039 83.4007C299.153 83.5564 299.221 83.7319 299.237 83.913C299.237 84.2406 298.942 84.3576 298.58 84.186L292.471 81.3006C292.283 81.204 292.125 81.0725 292.011 80.9166C291.897 80.7608 291.83 80.5851 291.814 80.4038C291.814 80.084 292.109 79.9593 292.471 80.1308Z"
      fill="#5BBD81" />
    <path opacity="0.6"
      d="M292.471 80.1308L298.58 83.0162C298.768 83.1133 298.925 83.2449 299.039 83.4007C299.153 83.5564 299.221 83.7319 299.237 83.913C299.237 84.2406 298.942 84.3576 298.58 84.186L292.471 81.3006C292.283 81.204 292.125 81.0725 292.011 80.9166C291.897 80.7608 291.83 80.5851 291.814 80.4038C291.814 80.084 292.109 79.9593 292.471 80.1308Z"
      fill="white" />
    <path
      d="M302.378 89.4964L372.806 122.796C372.993 122.893 373.151 123.025 373.265 123.18C373.378 123.336 373.446 123.512 373.463 123.693C373.463 124.02 373.167 124.137 372.806 123.966L302.378 90.6662C302.185 90.574 302.021 90.4451 301.902 90.2904C301.783 90.1356 301.712 89.9596 301.693 89.7772C301.693 89.4496 302.007 89.3248 302.378 89.4964Z"
      fill="#E6E6E6" />
    <path
      d="M292.471 84.8175L298.58 87.7029C298.769 87.7995 298.925 87.931 299.04 88.0869C299.154 88.2427 299.222 88.4184 299.237 88.5997C299.237 88.9195 298.942 89.0442 298.58 88.8727L292.471 85.9872C292.284 85.8902 292.126 85.7585 292.012 85.6028C291.898 85.4471 291.831 85.2716 291.814 85.0904C291.814 84.7629 292.109 84.6459 292.471 84.8175Z"
      fill="#5BBD81" />
    <path opacity="0.6"
      d="M292.471 84.8175L298.58 87.7029C298.769 87.7995 298.925 87.931 299.04 88.0869C299.154 88.2427 299.222 88.4184 299.237 88.5997C299.237 88.9195 298.942 89.0442 298.58 88.8727L292.471 85.9872C292.284 85.8902 292.126 85.7585 292.012 85.6028C291.898 85.4471 291.831 85.2716 291.814 85.0904C291.814 84.7629 292.109 84.6459 292.471 84.8175Z"
      fill="white" />
    <path
      d="M302.378 94.1832L372.806 127.483C372.994 127.579 373.152 127.711 373.266 127.867C373.38 128.022 373.447 128.198 373.463 128.379C373.463 128.699 373.167 128.824 372.806 128.652L302.378 95.353C302.185 95.2591 302.021 95.1287 301.902 94.9727C301.783 94.8167 301.712 94.6396 301.693 94.4562C301.693 94.1286 302.007 94.0117 302.378 94.1832Z"
      fill="#E6E6E6" />
    <path
      d="M292.471 89.4966L298.58 92.382C298.768 92.479 298.925 92.6107 299.039 92.7664C299.153 92.9222 299.221 93.0977 299.237 93.2788C299.237 93.6063 298.942 93.7311 298.58 93.5595L292.471 90.6663C292.283 90.5698 292.125 90.4382 292.011 90.2824C291.897 90.1265 291.83 89.9508 291.814 89.7695C291.814 89.4498 292.109 89.325 292.471 89.4966Z"
      fill="#5BBD81" />
    <path opacity="0.6"
      d="M292.471 89.4966L298.58 92.382C298.768 92.479 298.925 92.6107 299.039 92.7664C299.153 92.9222 299.221 93.0977 299.237 93.2788C299.237 93.6063 298.942 93.7311 298.58 93.5595L292.471 90.6663C292.283 90.5698 292.125 90.4382 292.011 90.2824C291.897 90.1265 291.83 89.9508 291.814 89.7695C291.814 89.4498 292.109 89.325 292.471 89.4966Z"
      fill="white" />
    <g opacity="0.6">
      <path opacity="0.6"
        d="M282.953 37.8477L286.541 39.5477C286.73 39.6496 286.888 39.7868 287.001 39.9481C287.112 40.1094 287.177 40.2902 287.188 40.4757V41.5597C287.188 41.895 286.902 42.0354 286.541 41.8638L282.953 40.1638C282.762 40.064 282.603 39.9285 282.489 39.7685C282.374 39.6085 282.309 39.4286 282.296 39.2436V38.1596C282.296 37.8165 282.591 37.6839 282.953 37.8477Z"
        fill="white" />
      <path opacity="0.6"
        d="M282.953 42.5809L286.541 44.2809C286.729 44.3821 286.886 44.518 286.998 44.6779C287.111 44.8377 287.175 45.0169 287.188 45.2011V46.2851C287.188 46.6283 286.902 46.7608 286.541 46.5971L282.953 44.897C282.762 44.7955 282.603 44.6586 282.489 44.4974C282.374 44.3361 282.309 44.1551 282.296 43.969V42.885C282.296 42.5497 282.591 42.4093 282.953 42.5809Z"
        fill="white" />
      <path opacity="0.6"
        d="M282.953 47.3066L286.541 49.0067C286.73 49.1086 286.888 49.2458 287.001 49.4071C287.112 49.5684 287.177 49.7492 287.188 49.9347V51.0187C287.188 51.354 286.902 51.4944 286.541 51.3228L282.953 49.6228C282.763 49.5221 282.606 49.3864 282.491 49.2266C282.377 49.0668 282.31 48.8873 282.296 48.7026V47.6186C282.296 47.2755 282.591 47.1429 282.953 47.3066Z"
        fill="white" />
      <path opacity="0.6"
        d="M282.953 52.0406L286.541 53.7407C286.729 53.8418 286.886 53.9777 286.998 54.1376C287.111 54.2974 287.175 54.4767 287.188 54.6609V55.7448C287.188 56.088 286.902 56.2205 286.541 56.0568L282.953 54.3567C282.762 54.2552 282.603 54.1183 282.489 53.9571C282.374 53.7958 282.309 53.6148 282.296 53.4287V52.3447C282.296 52.0094 282.591 51.869 282.953 52.0406Z"
        fill="white" />
      <path opacity="0.6"
        d="M282.953 56.7665L286.541 58.4665C286.73 58.5684 286.888 58.7056 287.001 58.8669C287.112 59.0282 287.177 59.209 287.188 59.3945V60.4707C287.188 60.8139 286.902 60.9542 286.541 60.7827L282.953 59.0826C282.763 58.9819 282.606 58.8462 282.491 58.6864C282.377 58.5266 282.31 58.3471 282.296 58.1624V57.0784C282.296 56.7353 282.591 56.5949 282.953 56.7665Z"
        fill="white" />
      <path opacity="0.6"
        d="M282.953 61.5001L286.541 63.2001C286.73 63.3003 286.888 63.4361 286.999 63.5961C287.112 63.7561 287.177 63.9358 287.188 64.1203V65.2043C287.188 65.5475 286.902 65.68 286.541 65.5163L282.953 63.8162C282.762 63.7147 282.603 63.5778 282.489 63.4165C282.374 63.2553 282.309 63.0743 282.296 62.8882V61.8042C282.296 61.4689 282.591 61.3285 282.953 61.5001Z"
        fill="white" />
      <path opacity="0.6"
        d="M282.953 66.2259L286.541 67.926C286.73 68.0279 286.888 68.1651 287.001 68.3264C287.112 68.4877 287.177 68.6685 287.188 68.854V69.9301C287.188 70.2732 286.902 70.4137 286.541 70.2421L282.953 68.5421C282.763 68.4414 282.606 68.3057 282.491 68.1459C282.377 67.9861 282.31 67.8066 282.296 67.6219V66.5379C282.296 66.1948 282.591 66.0543 282.953 66.2259Z"
        fill="white" />
      <path opacity="0.6"
        d="M282.953 70.9598L286.541 72.6598C286.73 72.76 286.888 72.8958 286.999 73.0558C287.112 73.2158 287.177 73.3956 287.188 73.5801V74.664C287.188 75.0072 286.902 75.1397 286.541 74.9682L282.953 73.2759C282.762 73.1744 282.603 73.0375 282.489 72.8763C282.374 72.715 282.309 72.534 282.296 72.3479V71.2639C282.296 70.9286 282.591 70.7882 282.953 70.9598Z"
        fill="white" />
      <path opacity="0.6"
        d="M282.953 75.6854L286.541 77.3855C286.73 77.4874 286.888 77.6246 287.001 77.7859C287.112 77.9471 287.177 78.1279 287.188 78.3135V79.3897C287.188 79.7328 286.902 79.8732 286.541 79.7016L282.953 78.0016C282.762 77.9001 282.603 77.7631 282.489 77.6019C282.374 77.4407 282.309 77.2596 282.296 77.0735V75.9974C282.296 75.6542 282.591 75.5139 282.953 75.6854Z"
        fill="white" />
      <path opacity="0.6"
        d="M282.953 80.4188L286.541 82.1189C286.73 82.2186 286.888 82.3542 287.001 82.5144C287.113 82.6745 287.177 82.8545 287.188 83.0391V84.1231C287.188 84.4662 286.902 84.5988 286.541 84.4272L282.953 82.7584C282.762 82.6569 282.603 82.5199 282.489 82.3587C282.374 82.1975 282.309 82.0164 282.296 81.8303V80.7464C282.296 80.4188 282.591 80.2473 282.953 80.4188Z"
        fill="white" />
      <path opacity="0.6"
        d="M282.953 85.145L286.541 86.845C286.73 86.9469 286.888 87.0841 287.001 87.2454C287.112 87.4067 287.177 87.5875 287.188 87.773V88.8492C287.188 89.1923 286.902 89.3327 286.541 89.1612L282.953 87.4377C282.762 87.3362 282.603 87.1993 282.489 87.0381C282.374 86.8768 282.309 86.6958 282.296 86.5097V85.4335C282.296 85.0982 282.591 84.9734 282.953 85.145Z"
        fill="white" />
      <path opacity="0.6"
        d="M282.953 89.8785L286.541 91.5707C286.73 91.6726 286.888 91.8098 287.001 91.9711C287.112 92.1324 287.177 92.3132 287.188 92.4988V93.5827C287.188 93.9259 286.902 94.0584 286.541 93.8869L282.953 92.1946C282.762 92.0931 282.603 91.9562 282.489 91.795C282.374 91.6337 282.309 91.4527 282.296 91.2666V90.1826C282.296 89.8473 282.591 89.7069 282.953 89.8785Z"
        fill="white" />
    </g>
    <path
      d="M259.131 22.4848L278.546 31.6714C278.927 31.8726 279.243 32.1451 279.471 32.4665C279.697 32.7879 279.828 33.1489 279.85 33.5196V51.8927C279.85 52.5711 279.269 52.8519 278.546 52.5087L259.131 43.3222C258.75 43.121 258.434 42.8484 258.207 42.527C257.98 42.2057 257.85 41.8447 257.827 41.474V23.1087C257.827 22.4224 258.408 22.1495 259.131 22.4848Z"
      fill="#37474F" />
    <path
      d="M260.929 40.6943L262.718 41.5444C262.907 41.6414 263.065 41.7729 263.181 41.9286C263.296 42.0842 263.366 42.2596 263.385 42.4412C263.385 42.7687 263.08 42.8857 262.718 42.7141L260.929 41.8641C260.742 41.7675 260.584 41.636 260.471 41.4801C260.356 41.3243 260.288 41.1486 260.273 40.9673C260.273 40.6475 260.568 40.5228 260.929 40.6943Z"
      fill="#5BBD81" />
    <path opacity="0.6"
      d="M260.929 40.6943L262.718 41.5444C262.907 41.6414 263.065 41.7729 263.181 41.9286C263.296 42.0842 263.366 42.2596 263.385 42.4412C263.385 42.7687 263.08 42.8857 262.718 42.7141L260.929 41.8641C260.742 41.7675 260.584 41.636 260.471 41.4801C260.356 41.3243 260.288 41.1486 260.273 40.9673C260.273 40.6475 260.568 40.5228 260.929 40.6943Z"
      fill="white" />
    <path
      d="M260.929 25.6509L262.718 26.5009C262.907 26.598 263.065 26.7295 263.181 26.8851C263.296 27.0407 263.366 27.2162 263.385 27.3977C263.385 27.7253 263.08 27.8422 262.718 27.6707L260.929 26.8284C260.742 26.7297 260.586 26.5966 260.471 26.4396C260.357 26.2826 260.289 26.106 260.273 25.9238C260.273 25.6041 260.568 25.4793 260.929 25.6509Z"
      fill="#5BBD81" />
    <path opacity="0.6"
      d="M260.929 25.6509L262.718 26.5009C262.907 26.598 263.065 26.7295 263.181 26.8851C263.296 27.0407 263.366 27.2162 263.385 27.3977C263.385 27.7253 263.08 27.8422 262.718 27.6707L260.929 26.8284C260.742 26.7297 260.586 26.5966 260.471 26.4396C260.357 26.2826 260.289 26.106 260.273 25.9238C260.273 25.6041 260.568 25.4793 260.929 25.6509Z"
      fill="white" />
    <path
      d="M263.442 29.8463L265.231 30.6885C265.418 30.7856 265.576 30.9172 265.69 31.073C265.803 31.2287 265.872 31.4042 265.888 31.5853C265.888 31.9129 265.592 32.0376 265.231 31.8583L263.442 31.0161C263.254 30.919 263.098 30.7874 262.984 30.6316C262.869 30.4759 262.801 30.3004 262.785 30.1192C262.785 29.7917 263.08 29.6747 263.442 29.8463Z"
      fill="#5BBD81" />
    <path opacity="0.6"
      d="M263.442 29.8463L265.231 30.6885C265.418 30.7856 265.576 30.9172 265.69 31.073C265.803 31.2287 265.872 31.4042 265.888 31.5853C265.888 31.9129 265.592 32.0376 265.231 31.8583L263.442 31.0161C263.254 30.919 263.098 30.7874 262.984 30.6316C262.869 30.4759 262.801 30.3004 262.785 30.1192C262.785 29.7917 263.08 29.6747 263.442 29.8463Z"
      fill="white" />
    <path
      d="M263.442 32.8494L265.231 33.6995C265.418 33.7965 265.576 33.9282 265.69 34.0839C265.803 34.2397 265.872 34.4152 265.888 34.5963C265.888 34.9238 265.592 35.0408 265.231 34.8692L263.442 34.027C263.254 33.93 263.098 33.7983 262.984 33.6426C262.869 33.4868 262.801 33.3113 262.785 33.1302C262.785 32.7949 263.08 32.6701 263.442 32.8494Z"
      fill="#5BBD81" />
    <path opacity="0.6"
      d="M263.442 32.8494L265.231 33.6995C265.418 33.7965 265.576 33.9282 265.69 34.0839C265.803 34.2397 265.872 34.4152 265.888 34.5963C265.888 34.9238 265.592 35.0408 265.231 34.8692L263.442 34.027C263.254 33.93 263.098 33.7983 262.984 33.6426C262.869 33.4868 262.801 33.3113 262.785 33.1302C262.785 32.7949 263.08 32.6701 263.442 32.8494Z"
      fill="white" />
    <path
      d="M260.929 34.6734L262.718 35.5234C262.907 35.6205 263.065 35.752 263.181 35.9076C263.296 36.0632 263.366 36.2387 263.385 36.4202C263.385 36.7478 263.08 36.8648 262.718 36.6932L260.929 35.851C260.742 35.7527 260.584 35.6197 260.471 35.4626C260.356 35.3055 260.288 35.1287 260.273 34.9463C260.273 34.6266 260.568 34.5018 260.929 34.6734Z"
      fill="#5BBD81" />
    <path opacity="0.6"
      d="M260.929 34.6734L262.718 35.5234C262.907 35.6205 263.065 35.752 263.181 35.9076C263.296 36.0632 263.366 36.2387 263.385 36.4202C263.385 36.7478 263.08 36.8648 262.718 36.6932L260.929 35.851C260.742 35.7527 260.584 35.6197 260.471 35.4626C260.356 35.3055 260.288 35.1287 260.273 34.9463C260.273 34.6266 260.568 34.5018 260.929 34.6734Z"
      fill="white" />
    <path
      d="M263.442 38.8692L265.231 39.7192C265.419 39.8158 265.577 39.9473 265.691 40.1032C265.805 40.259 265.872 40.4347 265.888 40.616C265.888 40.9358 265.592 41.0605 265.231 40.889L263.442 40.0389C263.254 39.9424 263.097 39.8108 262.983 39.655C262.869 39.4991 262.801 39.3234 262.785 39.1421C262.785 38.8224 263.08 38.6976 263.442 38.8692Z"
      fill="#5BBD81" />
    <path opacity="0.6"
      d="M263.442 38.8692L265.231 39.7192C265.419 39.8158 265.577 39.9473 265.691 40.1032C265.805 40.259 265.872 40.4347 265.888 40.616C265.888 40.9358 265.592 41.0605 265.231 40.889L263.442 40.0389C263.254 39.9424 263.097 39.8108 262.983 39.655C262.869 39.4991 262.801 39.3234 262.785 39.1421C262.785 38.8224 263.08 38.6976 263.442 38.8692Z"
      fill="white" />
    <path
      d="M265.831 27.9668L276.738 33.1372C276.929 33.2319 277.089 33.3628 277.205 33.5189C277.32 33.675 277.389 33.8517 277.404 34.034C277.404 34.3537 277.109 34.4785 276.738 34.3069L265.831 29.1444C265.64 29.048 265.48 28.9156 265.364 28.7582C265.249 28.6009 265.18 28.4231 265.164 28.2398C265.164 27.92 265.46 27.7953 265.831 27.9668Z"
      fill="#5BBD81" />
    <path opacity="0.8"
      d="M265.831 27.9668L276.738 33.1372C276.929 33.2319 277.089 33.3628 277.205 33.5189C277.32 33.675 277.389 33.8517 277.404 34.034C277.404 34.3537 277.109 34.4785 276.738 34.3069L265.831 29.1444C265.64 29.048 265.48 28.9156 265.364 28.7582C265.249 28.6009 265.18 28.4231 265.164 28.2398C265.164 27.92 265.46 27.7953 265.831 27.9668Z"
      fill="white" />
    <path
      d="M265.831 42.9868L276.738 48.1571C276.929 48.2518 277.089 48.3828 277.205 48.5389C277.32 48.695 277.389 48.8716 277.404 49.0539C277.404 49.3737 277.109 49.4985 276.738 49.3269L265.831 44.1643C265.641 44.067 265.482 43.9343 265.366 43.7772C265.251 43.62 265.181 43.4428 265.164 43.2597C265.164 42.9868 265.46 42.8386 265.831 42.9868Z"
      fill="#5BBD81" />
    <path opacity="0.8"
      d="M265.831 42.9868L276.738 48.1571C276.929 48.2518 277.089 48.3828 277.205 48.5389C277.32 48.695 277.389 48.8716 277.404 49.0539C277.404 49.3737 277.109 49.4985 276.738 49.3269L265.831 44.1643C265.641 44.067 265.482 43.9343 265.366 43.7772C265.251 43.62 265.181 43.4428 265.164 43.2597C265.164 42.9868 265.46 42.8386 265.831 42.9868Z"
      fill="white" />
    <path
      d="M268.382 32.1627L276.776 36.1399C276.967 36.2363 277.127 36.3687 277.243 36.526C277.359 36.6834 277.427 36.8611 277.442 37.0445C277.442 37.3642 277.147 37.489 276.776 37.3174L268.382 33.3324C268.192 33.2368 268.034 33.1056 267.917 32.9497C267.801 32.7938 267.732 32.6176 267.716 32.4356C267.678 32.1081 267.973 31.9911 268.382 32.1627Z"
      fill="#5BBD81" />
    <path opacity="0.8"
      d="M268.382 32.1627L276.776 36.1399C276.967 36.2363 277.127 36.3687 277.243 36.526C277.359 36.6834 277.427 36.8611 277.442 37.0445C277.442 37.3642 277.147 37.489 276.776 37.3174L268.382 33.3324C268.192 33.2368 268.034 33.1056 267.917 32.9497C267.801 32.7938 267.732 32.6176 267.716 32.4356C267.678 32.1081 267.973 31.9911 268.382 32.1627Z"
      fill="white" />
    <path
      d="M268.382 35.1885L276.776 39.1735C276.966 39.2691 277.125 39.4003 277.241 39.5562C277.357 39.7121 277.426 39.8883 277.442 40.0703C277.442 40.3978 277.147 40.5148 276.776 40.3432L268.382 36.3426C268.192 36.247 268.034 36.1158 267.917 35.9599C267.801 35.804 267.732 35.6278 267.716 35.4458C267.678 35.1183 267.973 34.9935 268.382 35.1885Z"
      fill="#5BBD81" />
    <path opacity="0.8"
      d="M268.382 35.1885L276.776 39.1735C276.966 39.2691 277.125 39.4003 277.241 39.5562C277.357 39.7121 277.426 39.8883 277.442 40.0703C277.442 40.3978 277.147 40.5148 276.776 40.3432L268.382 36.3426C268.192 36.247 268.034 36.1158 267.917 35.9599C267.801 35.804 267.732 35.6278 267.716 35.4458C267.678 35.1183 267.973 34.9935 268.382 35.1885Z"
      fill="white" />
    <path
      d="M265.831 36.9972L276.738 42.1597C276.928 42.2554 277.087 42.3866 277.203 42.5425C277.319 42.6984 277.388 42.8746 277.404 43.0566C277.404 43.3841 277.109 43.5011 276.738 43.3295L265.831 38.167C265.641 38.0713 265.482 37.9401 265.366 37.7842C265.251 37.6283 265.181 37.4521 265.164 37.2701C265.164 36.9426 265.46 36.8256 265.831 36.9972Z"
      fill="#5BBD81" />
    <path opacity="0.8"
      d="M265.831 36.9972L276.738 42.1597C276.928 42.2554 277.087 42.3866 277.203 42.5425C277.319 42.6984 277.388 42.8746 277.404 43.0566C277.404 43.3841 277.109 43.5011 276.738 43.3295L265.831 38.167C265.641 38.0713 265.482 37.9401 265.366 37.7842C265.251 37.6283 265.181 37.4521 265.164 37.2701C265.164 36.9426 265.46 36.8256 265.831 36.9972Z"
      fill="white" />
    <path
      d="M268.382 41.1851L276.776 45.1701C276.967 45.2648 277.127 45.3957 277.243 45.5518C277.359 45.7079 277.427 45.8846 277.442 46.0669C277.442 46.3867 277.147 46.5114 276.776 46.3399L268.382 42.3549C268.191 42.2602 268.031 42.1292 267.915 41.9731C267.799 41.817 267.731 41.6404 267.716 41.4581C267.678 41.1383 267.973 41.0135 268.382 41.1851Z"
      fill="#5BBD81" />
    <path opacity="0.8"
      d="M268.382 41.1851L276.776 45.1701C276.967 45.2648 277.127 45.3957 277.243 45.5518C277.359 45.7079 277.427 45.8846 277.442 46.0669C277.442 46.3867 277.147 46.5114 276.776 46.3399L268.382 42.3549C268.191 42.2602 268.031 42.1292 267.915 41.9731C267.799 41.817 267.731 41.6404 267.716 41.4581C267.678 41.1383 267.973 41.0135 268.382 41.1851Z"
      fill="white" />
    <path
      d="M259.131 46.7847L278.546 55.9635C278.926 56.1639 279.242 56.4353 279.469 56.7552C279.695 57.0751 279.825 57.4345 279.85 57.8039V94.0977C279.85 94.784 279.269 95.0569 278.546 94.7138L259.131 85.5273C258.75 85.3261 258.434 85.0535 258.207 84.7321C257.98 84.4107 257.85 84.0498 257.827 83.679V47.4008C257.827 46.7146 258.408 46.4416 259.131 46.7847Z"
      fill="#37474F" />
    <path
      d="M260.929 49.9429L262.718 50.7851C262.907 50.8822 263.065 51.0137 263.181 51.1693C263.296 51.3249 263.366 51.5004 263.385 51.6819C263.385 52.0094 263.08 52.1264 262.718 51.9548L260.929 51.1126C260.742 51.0156 260.586 50.8839 260.471 50.7282C260.357 50.5724 260.289 50.3969 260.273 50.2158C260.273 49.8961 260.568 49.7713 260.929 49.9429Z"
      fill="#5BBD81" />
    <path opacity="0.6"
      d="M260.929 49.9429L262.718 50.7851C262.907 50.8822 263.065 51.0137 263.181 51.1693C263.296 51.3249 263.366 51.5004 263.385 51.6819C263.385 52.0094 263.08 52.1264 262.718 51.9548L260.929 51.1126C260.742 51.0156 260.586 50.8839 260.471 50.7282C260.357 50.5724 260.289 50.3969 260.273 50.2158C260.273 49.8961 260.568 49.7713 260.929 49.9429Z"
      fill="white" />
    <path
      d="M263.442 54.1383L265.231 54.9805C265.419 55.0788 265.577 55.2118 265.691 55.3689C265.805 55.526 265.872 55.7028 265.888 55.8851C265.888 56.2049 265.592 56.3297 265.231 56.1581L263.442 55.3081C263.254 55.211 263.098 55.0794 262.984 54.9236C262.869 54.7679 262.801 54.5924 262.785 54.4113C262.785 54.0837 263.08 53.9667 263.442 54.1383Z"
      fill="#5BBD81" />
    <path opacity="0.6"
      d="M263.442 54.1383L265.231 54.9805C265.419 55.0788 265.577 55.2118 265.691 55.3689C265.805 55.526 265.872 55.7028 265.888 55.8851C265.888 56.2049 265.592 56.3297 265.231 56.1581L263.442 55.3081C263.254 55.211 263.098 55.0794 262.984 54.9236C262.869 54.7679 262.801 54.5924 262.785 54.4113C262.785 54.0837 263.08 53.9667 263.442 54.1383Z"
      fill="white" />
    <path
      d="M263.442 57.1408L265.231 57.983C265.418 58.08 265.576 58.2117 265.69 58.3674C265.803 58.5232 265.872 58.6987 265.888 58.8798C265.888 59.2073 265.592 59.3243 265.231 59.1528L263.442 58.3105C263.254 58.2135 263.098 58.0818 262.984 57.9261C262.869 57.7703 262.801 57.5948 262.785 57.4137C262.785 57.0862 263.08 56.9614 263.442 57.1408Z"
      fill="#5BBD81" />
    <path opacity="0.6"
      d="M263.442 57.1408L265.231 57.983C265.418 58.08 265.576 58.2117 265.69 58.3674C265.803 58.5232 265.872 58.6987 265.888 58.8798C265.888 59.2073 265.592 59.3243 265.231 59.1528L263.442 58.3105C263.254 58.2135 263.098 58.0818 262.984 57.9261C262.869 57.7703 262.801 57.5948 262.785 57.4137C262.785 57.0862 263.08 56.9614 263.442 57.1408Z"
      fill="white" />
    <path
      d="M260.929 58.9733L262.718 59.8155C262.907 59.9126 263.065 60.0441 263.181 60.1997C263.296 60.3554 263.366 60.5308 263.385 60.7124C263.385 61.0399 263.08 61.1569 262.718 60.9853L260.929 60.1431C260.742 60.046 260.586 59.9144 260.471 59.7586C260.357 59.6029 260.289 59.4274 260.273 59.2462C260.273 58.9187 260.568 58.7939 260.929 58.9733Z"
      fill="#5BBD81" />
    <path opacity="0.6"
      d="M260.929 58.9733L262.718 59.8155C262.907 59.9126 263.065 60.0441 263.181 60.1997C263.296 60.3554 263.366 60.5308 263.385 60.7124C263.385 61.0399 263.08 61.1569 262.718 60.9853L260.929 60.1431C260.742 60.046 260.586 59.9144 260.471 59.7586C260.357 59.6029 260.289 59.4274 260.273 59.2462C260.273 58.9187 260.568 58.7939 260.929 58.9733Z"
      fill="white" />
    <path
      d="M265.831 52.2667L276.738 57.4293C276.929 57.524 277.089 57.6549 277.205 57.811C277.32 57.9671 277.389 58.1438 277.404 58.3261C277.404 58.6458 277.109 58.7706 276.738 58.599L265.831 53.4365C265.641 53.3408 265.482 53.2097 265.366 53.0538C265.251 52.8979 265.181 52.7217 265.164 52.5397C265.164 52.2121 265.46 52.0874 265.831 52.2667Z"
      fill="#5BBD81" />
    <path opacity="0.8"
      d="M265.831 52.2667L276.738 57.4293C276.929 57.524 277.089 57.6549 277.205 57.811C277.32 57.9671 277.389 58.1438 277.404 58.3261C277.404 58.6458 277.109 58.7706 276.738 58.599L265.831 53.4365C265.641 53.3408 265.482 53.2097 265.366 53.0538C265.251 52.8979 265.181 52.7217 265.164 52.5397C265.164 52.2121 265.46 52.0874 265.831 52.2667Z"
      fill="white" />
    <path
      d="M268.382 56.4546L276.776 60.4396C276.967 60.5343 277.127 60.6653 277.243 60.8213C277.359 60.9774 277.427 61.1541 277.442 61.3364C277.442 61.6562 277.147 61.7809 276.776 61.6094L268.382 57.6244C268.192 57.5287 268.034 57.3975 267.917 57.2416C267.801 57.0858 267.732 56.9096 267.716 56.7276C267.678 56.4 267.973 56.2831 268.382 56.4546Z"
      fill="#5BBD81" />
    <path opacity="0.8"
      d="M268.382 56.4546L276.776 60.4396C276.967 60.5343 277.127 60.6653 277.243 60.8213C277.359 60.9774 277.427 61.1541 277.442 61.3364C277.442 61.6562 277.147 61.7809 276.776 61.6094L268.382 57.6244C268.192 57.5287 268.034 57.3975 267.917 57.2416C267.801 57.0858 267.732 56.9096 267.716 56.7276C267.678 56.4 267.973 56.2831 268.382 56.4546Z"
      fill="white" />
    <path
      d="M268.382 59.4649L276.776 63.4421C276.966 63.5378 277.125 63.669 277.241 63.8249C277.357 63.9808 277.426 64.1569 277.442 64.3389C277.442 64.6665 277.147 64.7913 276.776 64.6197L268.382 60.6347C268.192 60.539 268.034 60.4078 267.917 60.252C267.801 60.0961 267.732 59.9199 267.716 59.7379C267.678 59.4104 267.973 59.2856 268.382 59.4649Z"
      fill="#5BBD81" />
    <path opacity="0.8"
      d="M268.382 59.4649L276.776 63.4421C276.966 63.5378 277.125 63.669 277.241 63.8249C277.357 63.9808 277.426 64.1569 277.442 64.3389C277.442 64.6665 277.147 64.7913 276.776 64.6197L268.382 60.6347C268.192 60.539 268.034 60.4078 267.917 60.252C267.801 60.0961 267.732 59.9199 267.716 59.7379C267.678 59.4104 267.973 59.2856 268.382 59.4649Z"
      fill="white" />
    <path
      d="M265.831 61.2899L276.738 66.4524C276.928 66.5481 277.087 66.6793 277.203 66.8352C277.319 66.9911 277.388 67.1672 277.404 67.3492C277.404 67.6768 277.109 67.7938 276.738 67.6222L265.831 62.483C265.641 62.3874 265.482 62.2562 265.366 62.1003C265.251 61.9444 265.181 61.7682 265.164 61.5862C265.164 61.2353 265.46 61.1183 265.831 61.2899Z"
      fill="#5BBD81" />
    <path opacity="0.8"
      d="M265.831 61.2899L276.738 66.4524C276.928 66.5481 277.087 66.6793 277.203 66.8352C277.319 66.9911 277.388 67.1672 277.404 67.3492C277.404 67.6768 277.109 67.7938 276.738 67.6222L265.831 62.483C265.641 62.3874 265.482 62.2562 265.366 62.1003C265.251 61.9444 265.181 61.7682 265.164 61.5862C265.164 61.2353 265.46 61.1183 265.831 61.2899Z"
      fill="white" />
    <path
      d="M263.442 63.1766L265.231 64.0266C265.418 64.1236 265.576 64.2553 265.69 64.411C265.803 64.5668 265.872 64.7423 265.888 64.9234C265.888 65.2509 265.592 65.3679 265.231 65.1964L263.442 64.3541C263.254 64.2571 263.098 64.1254 262.984 63.9697C262.869 63.8139 262.801 63.6385 262.785 63.4573C262.785 63.1298 263.08 63.005 263.442 63.1766Z"
      fill="#5BBD81" />
    <path opacity="0.6"
      d="M263.442 63.1766L265.231 64.0266C265.418 64.1236 265.576 64.2553 265.69 64.411C265.803 64.5668 265.872 64.7423 265.888 64.9234C265.888 65.2509 265.592 65.3679 265.231 65.1964L263.442 64.3541C263.254 64.2571 263.098 64.1254 262.984 63.9697C262.869 63.8139 262.801 63.6385 262.785 63.4573C262.785 63.1298 263.08 63.005 263.442 63.1766Z"
      fill="white" />
    <path
      d="M263.442 66.1797L265.231 67.0297C265.418 67.1267 265.576 67.2584 265.69 67.4142C265.803 67.5699 265.872 67.7454 265.888 67.9265C265.888 68.2463 265.592 68.371 265.231 68.1995L263.442 67.3494C263.254 67.2529 263.097 67.1213 262.983 66.9655C262.869 66.8096 262.801 66.6339 262.785 66.4526C262.785 66.1329 263.08 66.0081 263.442 66.1797Z"
      fill="#5BBD81" />
    <path opacity="0.6"
      d="M263.442 66.1797L265.231 67.0297C265.418 67.1267 265.576 67.2584 265.69 67.4142C265.803 67.5699 265.872 67.7454 265.888 67.9265C265.888 68.2463 265.592 68.371 265.231 68.1995L263.442 67.3494C263.254 67.2529 263.097 67.1213 262.983 66.9655C262.869 66.8096 262.801 66.6339 262.785 66.4526C262.785 66.1329 263.08 66.0081 263.442 66.1797Z"
      fill="white" />
    <path
      d="M268.382 65.493L276.776 69.4779C276.966 69.5736 277.125 69.7048 277.241 69.8607C277.357 70.0166 277.426 70.1928 277.442 70.3748C277.442 70.7023 277.147 70.8271 276.776 70.6477L268.382 66.6705C268.192 66.5748 268.034 66.4437 267.917 66.2878C267.801 66.1319 267.732 65.9557 267.716 65.7737C267.678 65.4462 267.973 65.3214 268.382 65.493Z"
      fill="#5BBD81" />
    <path opacity="0.8"
      d="M268.382 65.493L276.776 69.4779C276.966 69.5736 277.125 69.7048 277.241 69.8607C277.357 70.0166 277.426 70.1928 277.442 70.3748C277.442 70.7023 277.147 70.8271 276.776 70.6477L268.382 66.6705C268.192 66.5748 268.034 66.4437 267.917 66.2878C267.801 66.1319 267.732 65.9557 267.716 65.7737C267.678 65.4462 267.973 65.3214 268.382 65.493Z"
      fill="white" />
    <path
      d="M268.382 68.5034L276.776 72.4884C276.966 72.5841 277.125 72.7152 277.241 72.8711C277.357 73.027 277.426 73.2032 277.442 73.3852C277.442 73.7127 277.147 73.8297 276.776 73.6582L268.382 69.6732C268.191 69.5785 268.031 69.4475 267.915 69.2914C267.799 69.1353 267.731 68.9587 267.716 68.7763C267.678 68.4566 267.973 68.3318 268.382 68.5034Z"
      fill="#5BBD81" />
    <path opacity="0.8"
      d="M268.382 68.5034L276.776 72.4884C276.966 72.5841 277.125 72.7152 277.241 72.8711C277.357 73.027 277.426 73.2032 277.442 73.3852C277.442 73.7127 277.147 73.8297 276.776 73.6582L268.382 69.6732C268.191 69.5785 268.031 69.4475 267.915 69.2914C267.799 69.1353 267.731 68.9587 267.716 68.7763C267.678 68.4566 267.973 68.3318 268.382 68.5034Z"
      fill="white" />
    <path
      d="M260.929 74.0478L262.718 74.8979C262.908 74.994 263.067 75.1253 263.182 75.2811C263.298 75.4369 263.368 75.6128 263.385 75.7947C263.385 76.1144 263.08 76.2392 262.718 76.0676L260.929 75.2176C260.742 75.121 260.584 74.9895 260.471 74.8336C260.356 74.6778 260.288 74.5021 260.273 74.3208C260.273 74.001 260.568 73.8763 260.929 74.0478Z"
      fill="#5BBD81" />
    <path opacity="0.6"
      d="M260.929 74.0478L262.718 74.8979C262.908 74.994 263.067 75.1253 263.182 75.2811C263.298 75.4369 263.368 75.6128 263.385 75.7947C263.385 76.1144 263.08 76.2392 262.718 76.0676L260.929 75.2176C260.742 75.121 260.584 74.9895 260.471 74.8336C260.356 74.6778 260.288 74.5021 260.273 74.3208C260.273 74.001 260.568 73.8763 260.929 74.0478Z"
      fill="white" />
    <path
      d="M265.831 76.364L276.738 81.5344C276.929 81.6291 277.089 81.76 277.205 81.9161C277.32 82.0722 277.389 82.2489 277.404 82.4312C277.404 82.7509 277.109 82.8757 276.738 82.7041L265.831 77.5416C265.641 77.4459 265.482 77.3148 265.366 77.1589C265.251 77.003 265.181 76.8268 265.164 76.6448C265.164 76.3173 265.46 76.1925 265.831 76.364Z"
      fill="#5BBD81" />
    <path opacity="0.8"
      d="M265.831 76.364L276.738 81.5344C276.929 81.6291 277.089 81.76 277.205 81.9161C277.32 82.0722 277.389 82.2489 277.404 82.4312C277.404 82.7509 277.109 82.8757 276.738 82.7041L265.831 77.5416C265.641 77.4459 265.482 77.3148 265.366 77.1589C265.251 77.003 265.181 76.8268 265.164 76.6448C265.164 76.3173 265.46 76.1925 265.831 76.364Z"
      fill="white" />
    <path
      d="M263.442 78.2588L265.231 79.1088C265.419 79.2053 265.577 79.3369 265.691 79.4927C265.805 79.6486 265.872 79.8243 265.888 80.0056C265.888 80.3253 265.592 80.4501 265.231 80.2785L263.442 79.4285C263.254 79.332 263.097 79.2004 262.983 79.0445C262.869 78.8887 262.801 78.713 262.785 78.5317C262.785 78.212 263.08 78.0794 263.442 78.2588Z"
      fill="#5BBD81" />
    <path opacity="0.6"
      d="M263.442 78.2588L265.231 79.1088C265.419 79.2053 265.577 79.3369 265.691 79.4927C265.805 79.6486 265.872 79.8243 265.888 80.0056C265.888 80.3253 265.592 80.4501 265.231 80.2785L263.442 79.4285C263.254 79.332 263.097 79.2004 262.983 79.0445C262.869 78.8887 262.801 78.713 262.785 78.5317C262.785 78.212 263.08 78.0794 263.442 78.2588Z"
      fill="white" />
    <path
      d="M263.442 81.2614L265.231 82.1036C265.419 82.2023 265.576 82.3354 265.69 82.4924C265.803 82.6494 265.872 82.826 265.888 83.0082C265.888 83.328 265.592 83.4527 265.231 83.2812L263.442 82.4311C263.254 82.3341 263.098 82.2024 262.984 82.0467C262.869 81.8909 262.801 81.7155 262.785 81.5343C262.785 81.199 263.08 81.0898 263.442 81.2614Z"
      fill="#5BBD81" />
    <path opacity="0.6"
      d="M263.442 81.2614L265.231 82.1036C265.419 82.2023 265.576 82.3354 265.69 82.4924C265.803 82.6494 265.872 82.826 265.888 83.0082C265.888 83.328 265.592 83.4527 265.231 83.2812L263.442 82.4311C263.254 82.3341 263.098 82.2024 262.984 82.0467C262.869 81.8909 262.801 81.7155 262.785 81.5343C262.785 81.199 263.08 81.0898 263.442 81.2614Z"
      fill="white" />
    <path
      d="M268.382 80.5751L276.776 84.5601C276.967 84.6549 277.127 84.7858 277.243 84.9419C277.359 85.098 277.427 85.2747 277.442 85.457C277.442 85.7767 277.147 85.9015 276.776 85.7299L268.382 81.7449C268.191 81.6502 268.031 81.5193 267.915 81.3632C267.799 81.2071 267.731 81.0304 267.716 80.8481C267.678 80.5284 267.973 80.4192 268.382 80.5751Z"
      fill="#5BBD81" />
    <path opacity="0.8"
      d="M268.382 80.5751L276.776 84.5601C276.967 84.6549 277.127 84.7858 277.243 84.9419C277.359 85.098 277.427 85.2747 277.442 85.457C277.442 85.7767 277.147 85.9015 276.776 85.7299L268.382 81.7449C268.191 81.6502 268.031 81.5193 267.915 81.3632C267.799 81.2071 267.731 81.0304 267.716 80.8481C267.678 80.5284 267.973 80.4192 268.382 80.5751Z"
      fill="white" />
    <path
      d="M268.382 83.5854L276.776 87.5704C276.967 87.6651 277.127 87.7961 277.243 87.9522C277.359 88.1083 277.427 88.2849 277.442 88.4673C277.442 88.787 277.147 88.9118 276.776 88.7402L268.382 84.7552C268.192 84.6595 268.034 84.5283 267.917 84.3725C267.801 84.2166 267.732 84.0404 267.716 83.8584C267.678 83.5386 267.973 83.4139 268.382 83.5854Z"
      fill="#5BBD81" />
    <path opacity="0.8"
      d="M268.382 83.5854L276.776 87.5704C276.967 87.6651 277.127 87.7961 277.243 87.9522C277.359 88.1083 277.427 88.2849 277.442 88.4673C277.442 88.787 277.147 88.9118 276.776 88.7402L268.382 84.7552C268.192 84.6595 268.034 84.5283 267.917 84.3725C267.801 84.2166 267.732 84.0404 267.716 83.8584C267.678 83.5386 267.973 83.4139 268.382 83.5854Z"
      fill="white" />
    <path
      d="M263.442 69.166L265.231 70.0161C265.419 70.1126 265.577 70.2442 265.691 70.4C265.805 70.5559 265.872 70.7316 265.888 70.9129C265.888 71.2326 265.592 71.3574 265.231 71.1858L263.442 70.3358C263.254 70.2392 263.097 70.1077 262.983 69.9519C262.869 69.796 262.801 69.6203 262.785 69.439C262.785 69.1193 263.08 68.9945 263.442 69.166Z"
      fill="#5BBD81" />
    <path opacity="0.6"
      d="M263.442 69.166L265.231 70.0161C265.419 70.1126 265.577 70.2442 265.691 70.4C265.805 70.5559 265.872 70.7316 265.888 70.9129C265.888 71.2326 265.592 71.3574 265.231 71.1858L263.442 70.3358C263.254 70.2392 263.097 70.1077 262.983 69.9519C262.869 69.796 262.801 69.6203 262.785 69.439C262.785 69.1193 263.08 68.9945 263.442 69.166Z"
      fill="white" />
    <path
      d="M260.929 70.9986L262.718 71.8486C262.908 71.9448 263.067 72.0761 263.182 72.2319C263.298 72.3877 263.368 72.5636 263.385 72.7454C263.385 73.0652 263.08 73.1899 262.718 73.0184L260.929 72.1684C260.742 72.0718 260.584 71.9402 260.471 71.7844C260.356 71.6285 260.288 71.4528 260.273 71.2715C260.273 70.9518 260.568 70.827 260.929 70.9986Z"
      fill="#5BBD81" />
    <path opacity="0.6"
      d="M260.929 70.9986L262.718 71.8486C262.908 71.9448 263.067 72.0761 263.182 72.2319C263.298 72.3877 263.368 72.5636 263.385 72.7454C263.385 73.0652 263.08 73.1899 262.718 73.0184L260.929 72.1684C260.742 72.0718 260.584 71.9402 260.471 71.7844C260.356 71.6285 260.288 71.4528 260.273 71.2715C260.273 70.9518 260.568 70.827 260.929 70.9986Z"
      fill="white" />
    <path
      d="M268.382 71.4898L276.776 75.4748C276.967 75.5695 277.127 75.7004 277.243 75.8565C277.359 76.0126 277.427 76.1893 277.442 76.3716C277.442 76.6913 277.147 76.8161 276.776 76.6445L268.382 72.6596C268.191 72.5649 268.031 72.4339 267.915 72.2778C267.799 72.1217 267.731 71.9451 267.716 71.7627C267.678 71.443 267.973 71.3182 268.382 71.4898Z"
      fill="#5BBD81" />
    <path opacity="0.8"
      d="M268.382 71.4898L276.776 75.4748C276.967 75.5695 277.127 75.7004 277.243 75.8565C277.359 76.0126 277.427 76.1893 277.442 76.3716C277.442 76.6913 277.147 76.8161 276.776 76.6445L268.382 72.6596C268.191 72.5649 268.031 72.4339 267.915 72.2778C267.799 72.1217 267.731 71.9451 267.716 71.7627C267.678 71.443 267.973 71.3182 268.382 71.4898Z"
      fill="white" />
    <path
      d="M265.831 73.3145L276.738 78.4849C276.929 78.5796 277.089 78.7105 277.205 78.8666C277.32 79.0227 277.389 79.1993 277.404 79.3817C277.404 79.7014 277.109 79.8262 276.738 79.6546L265.831 74.4921C265.641 74.3947 265.482 74.2621 265.366 74.1049C265.251 73.9478 265.181 73.7705 265.164 73.5874C265.164 73.2677 265.46 73.1429 265.831 73.3145Z"
      fill="#5BBD81" />
    <path opacity="0.8"
      d="M265.831 73.3145L276.738 78.4849C276.929 78.5796 277.089 78.7105 277.205 78.8666C277.32 79.0227 277.389 79.1993 277.404 79.3817C277.404 79.7014 277.109 79.8262 276.738 79.6546L265.831 74.4921C265.641 74.3947 265.482 74.2621 265.366 74.1049C265.251 73.9478 265.181 73.7705 265.164 73.5874C265.164 73.2677 265.46 73.1429 265.831 73.3145Z"
      fill="white" />
    <path
      d="M260.929 83.1329L262.718 83.9829C262.908 84.0791 263.067 84.2104 263.182 84.3662C263.298 84.522 263.368 84.6979 263.385 84.8797C263.385 85.1995 263.08 85.3243 262.718 85.1527L260.929 84.3183C260.742 84.2217 260.584 84.0901 260.471 83.9343C260.356 83.7785 260.288 83.6027 260.273 83.4214C260.273 83.0861 260.568 82.9613 260.929 83.1329Z"
      fill="#5BBD81" />
    <path opacity="0.6"
      d="M260.929 83.1329L262.718 83.9829C262.908 84.0791 263.067 84.2104 263.182 84.3662C263.298 84.522 263.368 84.6979 263.385 84.8797C263.385 85.1995 263.08 85.3243 262.718 85.1527L260.929 84.3183C260.742 84.2217 260.584 84.0901 260.471 83.9343C260.356 83.7785 260.288 83.6027 260.273 83.4214C260.273 83.0861 260.568 82.9613 260.929 83.1329Z"
      fill="white" />
    <path
      d="M265.831 85.4563L276.738 90.6188C276.929 90.7135 277.089 90.8445 277.205 91.0006C277.32 91.1567 277.389 91.3333 277.404 91.5156C277.404 91.8354 277.109 91.9602 276.738 91.7886L265.831 86.6572C265.641 86.5616 265.482 86.4304 265.366 86.2745C265.251 86.1186 265.181 85.9424 265.164 85.7604C265.164 85.4017 265.46 85.2769 265.831 85.4563Z"
      fill="#5BBD81" />
    <path opacity="0.8"
      d="M265.831 85.4563L276.738 90.6188C276.929 90.7135 277.089 90.8445 277.205 91.0006C277.32 91.1567 277.389 91.3333 277.404 91.5156C277.404 91.8354 277.109 91.9602 276.738 91.7886L265.831 86.6572C265.641 86.5616 265.482 86.4304 265.366 86.2745C265.251 86.1186 265.181 85.9424 265.164 85.7604C265.164 85.4017 265.46 85.2769 265.831 85.4563Z"
      fill="white" />
    <path
      d="M255.42 10.6079C255.625 10.5462 255.846 10.5261 256.063 10.5492C256.28 10.5722 256.487 10.6379 256.666 10.7405L379.611 68.8699C380.151 69.1612 380.6 69.5521 380.922 70.0112C381.245 70.4702 381.431 70.9847 381.467 71.5135V76.5201L383.837 75.3815V70.4451C383.801 69.9173 383.615 69.4036 383.292 68.9457C382.97 68.4878 382.521 68.0985 381.981 67.8093L259.036 9.64092C258.844 9.52592 258.618 9.45636 258.382 9.43985C258.144 9.42335 257.906 9.46053 257.694 9.54734C257.361 9.7189 255.82 10.4363 255.42 10.6079Z"
      fill="#5BBD81" />
  </g>
  <defs>
    <clipPath id="clip0">
      <rect width="428" height="360" fill="white" />
    </clipPath>
  </defs>
</svg>
