<svg viewBox="0 0 2539 2537" fill="none" xmlns="http://www.w3.org/2000/svg">
  <g filter="url(#filter0_d)">
    <path
      d="M129.202 1415.13L146.397 1397.93C129.202 1415.13 129.206 1415.13 129.213 1415.14L129.246 1415.17L129.376 1415.3L129.895 1415.82L131.943 1417.87L139.933 1425.86L170.279 1456.2L278.735 1564.66L609.127 1895.05L1103.27 2389.2C1124.49 2410.42 1145.93 2425.5 1178.13 2438.22C1209.32 2450.54 1244.17 2452.7 1273.21 2450.95C1302.06 2449.2 1328.25 2443.39 1343.02 2437.28C1368.8 2426.61 1393.72 2410.6 1415.13 2389.2L1415.25 2389.08L1415.39 2388.93L1415.56 2388.77L1415.74 2388.58L1415.95 2388.38L1416.18 2388.15L1416.43 2387.9L1416.69 2387.63L1416.98 2387.34L1417.3 2387.03L1417.63 2386.7L1417.98 2386.35L1418.35 2385.97L1418.74 2385.58L1419.16 2385.17L1419.59 2384.74L1420.04 2384.28L1420.52 2383.81L1421.01 2383.32L1421.52 2382.8L1422.05 2382.27L1422.61 2381.72L1423.18 2381.15L1423.77 2380.56L1424.38 2379.94L1425.01 2379.31L1425.66 2378.67L1426.33 2378L1427.02 2377.31L1427.72 2376.6L1428.45 2375.88L1429.19 2375.13L1429.95 2374.37L1430.74 2373.59L1431.54 2372.79L1432.35 2371.97L1433.19 2371.13L1434.05 2370.28L1434.92 2369.41L1435.81 2368.51L1436.72 2367.6L1437.65 2366.68L1438.59 2365.73L1439.56 2364.77L1440.54 2363.79L1441.54 2362.79L1442.55 2361.77L1443.59 2360.74L1444.64 2359.69L1445.7 2358.62L1446.79 2357.54L1447.89 2356.43L1449.01 2355.31L1450.15 2354.18L1451.3 2353.02L1452.47 2351.85L1453.66 2350.67L1454.86 2349.46L1456.08 2348.24L1457.32 2347.01L1458.57 2345.75L1459.84 2344.49L1461.12 2343.2L1462.43 2341.9L1463.74 2340.58L1465.08 2339.25L1466.43 2337.9L1467.79 2336.54L1469.17 2335.15L1470.57 2333.76L1471.98 2332.35L1473.41 2330.92L1474.85 2329.48L1476.31 2328.02L1477.78 2326.55L1479.27 2325.06L1480.77 2323.56L1482.29 2322.04L1483.82 2320.51L1485.37 2318.96L1486.93 2317.4L1488.5 2315.82L1490.1 2314.23L1491.7 2312.62L1493.32 2311L1494.96 2309.37L1496.6 2307.72L1498.27 2306.06L1499.94 2304.38L1501.63 2302.69L1503.34 2300.99L1505.05 2299.27L1506.79 2297.54L1508.53 2295.79L1510.29 2294.04L1512.06 2292.26L1513.85 2290.48L1515.64 2288.68L1517.46 2286.87L1519.28 2285.05L1521.12 2283.21L1522.97 2281.36L1524.83 2279.49L1526.71 2277.62L1528.6 2275.73L1530.5 2273.83L1532.41 2271.92L1534.34 2269.99L1536.27 2268.05L1538.22 2266.1L1540.19 2264.14L1542.16 2262.16L1544.15 2260.18L1546.15 2258.18L1548.16 2256.17L1550.18 2254.15L1552.21 2252.11L1554.26 2250.07L1556.31 2248.01L1558.38 2245.94L1560.46 2243.86L1562.55 2241.77L1564.65 2239.67L1566.77 2237.56L1568.89 2235.44L1571.02 2233.3L1573.17 2231.16L1575.32 2229L1577.49 2226.83L1579.67 2224.66L1581.86 2222.47L1584.05 2220.27L1586.26 2218.06L1588.48 2215.85L1590.71 2213.62L1592.95 2211.38L1595.19 2209.13L1597.45 2206.87L1599.72 2204.61L1602 2202.33L1604.28 2200.04L1606.58 2197.74L1608.89 2195.44L1611.2 2193.12L1613.53 2190.8L1615.86 2188.46L1618.2 2186.12L1620.56 2183.77L1622.92 2181.41L1625.29 2179.04L1627.66 2176.66L1630.05 2174.27L1632.45 2171.88L1634.85 2169.47L1637.26 2167.06L1639.68 2164.64L1642.11 2162.21L1644.55 2159.77L1647 2157.33L1649.45 2154.88L1651.91 2152.42L1654.38 2149.95L1656.86 2147.47L1659.34 2144.99L1661.83 2142.49L1664.33 2139.99L1666.84 2137.49L1669.35 2134.97L1671.87 2132.45L1674.4 2129.92L1676.94 2127.39L1679.48 2124.85L1682.03 2122.3L1684.58 2119.74L1687.15 2117.18L1689.72 2114.61L1692.29 2112.03L1694.88 2109.45L1697.46 2106.86L1700.06 2104.27L1702.66 2101.66L1705.27 2099.06L1707.88 2096.44L1710.5 2093.82L1713.13 2091.2L1715.76 2088.57L1718.39 2085.93L1721.04 2083.29L1723.69 2080.64L1726.34 2077.99L1729 2075.33L1731.66 2072.66L1734.33 2069.99L1737.01 2067.32L1739.68 2064.64L1742.37 2061.96L1745.06 2059.27L1747.75 2056.57L1750.45 2053.87L1753.15 2051.17L1755.86 2048.46L1758.57 2045.75L1761.29 2043.03L1764.01 2040.31L1766.74 2037.59L1769.47 2034.86L1772.2 2032.13L1774.94 2029.39L1777.68 2026.65L1780.42 2023.9L1783.17 2021.16L1785.92 2018.4L1788.68 2015.65L1791.44 2012.89L1794.2 2010.13L1796.96 2007.36L1799.73 2004.59L1802.5 2001.82L1805.28 1999.05L1808.06 1996.27L1810.84 1993.49L1813.62 1990.71L1816.4 1987.92L1819.19 1985.13L1821.98 1982.34L1824.78 1979.55L1827.57 1976.75L1830.37 1973.95L1833.17 1971.15L1835.97 1968.35L1838.78 1965.55L1841.58 1962.74L1844.39 1959.94L1847.2 1957.13L1850.01 1954.31L1852.82 1951.5L1855.64 1948.69L1858.45 1945.87L1861.27 1943.06L1864.09 1940.24L1866.91 1937.42L1869.73 1934.6L1872.55 1931.78L1875.37 1928.96L1878.19 1926.13L1881.02 1923.31L1883.84 1920.48L1886.67 1917.66L1889.49 1914.83L1892.32 1912.01L1895.14 1909.18L1897.97 1906.36L1900.79 1903.53L1903.62 1900.7L1906.45 1897.88L1909.27 1895.05L1912.1 1892.23L1914.92 1889.4L1917.75 1886.58L1920.57 1883.75L1923.4 1880.93L1926.22 1878.1L1929.04 1875.28L1931.87 1872.46L1934.69 1869.64L1937.51 1866.82L1940.33 1864L1943.14 1861.18L1945.96 1858.36L1948.78 1855.55L1951.59 1852.74L1954.4 1849.92L1957.21 1847.11L1960.02 1844.3L1962.83 1841.5L1965.64 1838.69L1968.44 1835.89L1971.24 1833.08L1974.04 1830.28L1976.84 1827.49L1979.63 1824.69L1982.43 1821.9L1985.22 1819.11L1988 1816.32L1990.79 1813.54L1993.57 1810.75L1996.35 1807.97L1999.13 1805.2L2001.9 1802.42L2004.68 1799.65L2007.44 1796.88L2010.21 1794.12L2012.97 1791.35L2015.73 1788.6L2018.48 1785.84L2021.23 1783.09L2023.98 1780.34L2026.73 1777.6L2029.47 1774.86L2032.2 1772.12L2034.94 1769.39L2037.66 1766.66L2040.39 1763.94L2043.11 1761.22L2045.83 1758.5L2048.54 1755.79L2051.24 1753.08L2053.95 1750.38L2056.65 1747.68L2059.34 1744.99L2062.03 1742.3L2064.71 1739.61L2067.39 1736.94L2070.06 1734.26L2072.73 1731.59L2075.4 1728.93L2078.05 1726.27L2080.71 1723.62L2083.35 1720.97L2085.99 1718.33L2088.63 1715.69L2091.26 1713.06L2093.89 1710.44L2096.5 1707.82L2099.12 1705.21L2101.72 1702.6L2104.32 1700L2106.92 1697.41L2109.51 1694.82L2112.09 1692.24L2114.66 1689.66L2117.23 1687.09L2119.79 1684.53L2122.35 1681.98L2124.9 1679.43L2127.44 1676.89L2129.97 1674.35L2132.5 1671.82L2135.02 1669.3L2137.53 1666.79L2140.04 1664.28L2142.54 1661.79L2145.03 1659.3L2147.51 1656.81L2149.99 1654.34L2152.46 1651.87L2154.92 1649.41L2157.37 1646.96L2159.81 1644.51L2162.25 1642.08L2164.68 1639.65L2167.1 1637.23L2169.51 1634.82L2171.91 1632.41L2174.31 1630.02L2176.69 1627.63L2179.07 1625.26L2181.44 1622.89L2183.8 1620.53L2186.15 1618.18L2188.49 1615.84L2190.82 1613.5L2193.14 1611.18L2195.46 1608.87L2197.76 1606.56L2200.06 1604.27L2202.34 1601.98L2204.62 1599.7L2206.89 1597.44L2209.14 1595.18L2211.39 1592.93L2213.63 1590.7L2215.85 1588.47L2218.07 1586.25L2220.28 1584.05L2222.47 1581.85L2224.66 1579.66L2226.84 1577.49L2229 1575.32L2231.16 1573.17L2233.3 1571.03L2235.43 1568.89L2237.55 1566.77L2239.67 1564.66L2241.77 1562.56L2243.85 1560.47L2245.93 1558.39L2248 1556.33L2250.05 1554.27L2252.1 1552.23L2254.13 1550.2L2256.15 1548.18L2258.16 1546.17L2260.16 1544.17L2262.14 1542.19L2264.11 1540.21L2266.07 1538.25L2268.02 1536.3L2269.96 1534.37L2271.88 1532.44L2273.8 1530.53L2275.7 1528.63L2277.58 1526.74L2279.46 1524.87L2281.32 1523.01L2283.17 1521.16L2285 1519.32L2286.82 1517.5L2288.63 1515.69L2290.43 1513.89L2292.21 1512.11L2293.98 1510.34L2295.74 1508.58L2297.48 1506.84L2299.21 1505.11L2300.93 1503.4L2302.63 1501.69L2304.32 1500L2305.99 1498.33L2307.66 1496.67L2309.3 1495.02L2310.93 1493.39L2312.55 1491.77L2314.16 1490.17L2315.74 1488.58L2317.32 1487.01L2318.88 1485.45L2320.42 1483.9L2321.96 1482.37L2323.47 1480.85L2324.97 1479.35L2326.46 1477.87L2327.93 1476.4L2329.38 1474.94L2330.82 1473.5L2332.25 1472.08L2333.66 1470.67L2335.05 1469.27L2336.43 1467.89L2337.79 1466.53L2339.14 1465.18L2340.47 1463.85L2341.79 1462.54L2343.09 1461.24L2344.37 1459.96L2345.64 1458.69L2346.89 1457.44L2348.12 1456.2L2349.34 1454.99L2350.54 1453.79L2351.72 1452.6L2352.89 1451.43L2354.04 1450.28L2355.18 1449.15L2356.29 1448.03L2357.39 1446.93L2358.48 1445.85L2359.54 1444.78L2360.59 1443.73L2361.62 1442.7L2362.64 1441.69L2363.63 1440.69L2364.61 1439.71L2365.57 1438.75L2366.52 1437.81L2367.44 1436.88L2368.35 1435.98L2369.24 1435.09L2370.11 1434.22L2370.96 1433.36L2371.79 1432.53L2372.61 1431.71L2373.41 1430.92L2374.19 1430.14L2374.95 1429.38L2375.69 1428.64L2376.41 1427.91L2377.12 1427.21L2377.8 1426.52L2378.47 1425.86L2379.11 1425.21L2379.74 1424.58L2380.35 1423.98L2380.94 1423.39L2381.51 1422.82L2382.06 1422.27L2382.59 1421.74L2383.1 1421.23L2383.59 1420.74L2384.06 1420.27L2384.51 1419.82L2384.94 1419.39L2385.35 1418.98L2385.74 1418.59L2386.11 1418.22L2386.46 1417.87L2386.79 1417.54L2387.09 1417.23L2387.38 1416.94L2387.65 1416.68L2387.89 1416.43L2388.12 1416.21L2388.32 1416L2388.51 1415.82L2388.67 1415.66L2388.81 1415.52L2388.93 1415.4L2389.02 1415.3L2389.1 1415.23L2389.15 1415.17L2389.19 1415.14C2389.19 1415.13 2389.2 1415.13 2371.52 1397.45L2389.2 1415.13C2474.8 1329.52 2474.8 1188.88 2389.2 1103.27L1415.13 129.202C1329.52 43.5992 1188.88 43.5992 1103.27 129.202L129.202 1103.27C43.5992 1188.88 43.5992 1329.52 129.202 1415.13Z"
      stroke="white" stroke-opacity="0.5" stroke-width="50" />
  </g>
  <g filter="url(#filter1_f)">
    <path
      d="M1908.26 854.27C1844.27 854.27 1791.34 907.2 1791.34 971.19C1791.34 1022.54 1837.31 1068.36 1885.5 1083.37L1878.5 1300.62C1878.5 1423.86 1796.08 1496.8 1622.28 1524.45C1598.58 1478.63 1548.81 1455.4 1470.6 1443.55H1469.81C1408.19 1435.65 1325.58 1417.48 1291.61 1389.83L1290.61 1321.16C1323.79 1291.93 1407.4 1273.76 1471.39 1265.86H1472.18C1581.99 1249.27 1635.08 1197.13 1635.08 1112.6V985.41C1685.64 972.77 1727.35 926.95 1727.35 871.65C1727.35 806.87 1674.42 753.94 1610.43 753.94C1546.44 753.94 1493.51 806.87 1493.51 872.44C1493.51 928.53 1542.8 975.93 1594.94 986.99L1596.94 1124.39C1596.94 1182.85 1551.6 1212.87 1466.28 1226.3C1410.98 1232.62 1328.95 1246.84 1293.4 1268.96L1291.4 878.02C1334.06 852.74 1376.5 864.54 1399.5 750.78C1399.5 671.78 1335.51 607 1255.72 607C1176.72 607 1111.75 671.614 1117.94 750.78C1138.5 874.02 1240.04 877.02 1240.04 877.02L1241.04 1201.87C1207.65 1186.07 1111.94 1175.01 1066.12 1169.48C959.47 1153.68 946.04 1107.86 946.04 1069.15V979.88C997.39 968.03 1036.89 921.42 1036.89 865.33C1036.89 801.34 983.96 748.41 919.97 748.41C855.98 748.41 803.05 800.55 803.05 864.54C803.05 920.63 842.55 966.45 893.9 979.09V1068.36C893.9 1152.89 949.2 1204.24 1059.01 1220.04C1111.94 1227.94 1209.23 1239.79 1240.04 1261.12V1469.19C1166.57 1422.58 1002.14 1391.77 886.8 1377.55C709.05 1350.69 630.05 1259.54 630.05 1133.93V1084.16C676.66 1068.36 724.84 1024.91 724.84 972.77C724.84 908.78 671.91 855.85 607.92 855.85C543.93 855.85 491 908.78 491 972.77C491 1024.12 545.18 1068.36 591.79 1084.16V1133.93C591.79 1225.57 625.76 1297.46 693.7 1347.23C745.05 1385.94 795.94 1402.22 891.53 1416.44L892.32 1415.44C1020.3 1432.03 1173.1 1468.37 1241.83 1525.25L1240.83 2413.73C1287.44 2431.9 1247.37 2431.11 1293.98 2412.94V2004.31C1327.16 1975.87 1408.98 1958.49 1472.18 1950.59H1472.97C1582.78 1934 1627.87 1894.86 1627.87 1810.33V1791.37C1661.84 1780.31 1698.12 1750.92 1698.12 1713.79C1698.12 1676.66 1662.84 1643.48 1628.87 1633.21V1559.13C1718.93 1544.12 1765.66 1534.84 1815.43 1497.71C1883.37 1447.94 1917.34 1386.05 1917.34 1294.41L1928.34 1083.37C1971 1066.78 2024.39 1023.33 2024.39 971.98C2024.39 941.17 2012.54 911.94 1991.21 889.03C1969.09 866.91 1939.86 854.27 1908.26 854.27ZM1535.38 872.44C1535.38 831.36 1568.56 798.18 1608.85 798.18C1649.93 798.18 1682.32 831.36 1682.32 872.44C1682.32 913.52 1649.14 945.91 1608.85 945.91C1569.35 945.91 1535.38 911.94 1535.38 872.44ZM918.39 938.01C878.1 938.01 844.92 904.83 844.92 864.54C844.92 823.46 878.1 791.07 918.39 791.07C958.68 791.07 991.86 824.25 991.86 864.54C991.86 904.83 957.89 938.01 918.39 938.01ZM606.34 1044.66C566.05 1044.66 532.87 1012.27 532.87 971.19C532.87 930.11 566.05 897.72 606.34 897.72C646.63 897.72 679.81 930.9 679.81 971.19C679.81 1011.48 645.84 1044.66 606.34 1044.66ZM1254.14 849.53C1198.84 849.53 1153.81 804.5 1153.81 749.2C1153.81 693.11 1198.84 648.08 1254.14 648.08C1309.44 648.08 1354.47 693.11 1354.47 748.41C1354.47 803.71 1309.44 849.53 1254.14 849.53ZM1290.82 1438.03C1327.16 1458.57 1407.4 1472.79 1461.91 1479.9C1512.47 1487.8 1559.44 1509.23 1577.61 1532.14C1482.81 1549.52 1353.02 1584.75 1289.82 1626.62L1290.82 1438.03ZM1592.36 1633.21C1558.39 1644.27 1525.11 1676.66 1525.11 1713.79C1525.11 1752.5 1558.39 1784.1 1592.36 1794.37V1813.33C1591.57 1871.79 1548.02 1907.81 1462.7 1921.24C1408.19 1927.56 1327.95 1941.78 1292.4 1963.11L1291.4 1676.05C1353.02 1621.54 1481.76 1585.99 1592.36 1567.03V1633.21ZM1908.26 1045.45C1867.18 1045.45 1834.79 1012.27 1834.79 971.98C1834.79 931.69 1867.97 898.51 1908.26 898.51C1928.01 898.51 1946.97 906.41 1961.19 919.84C1975.41 934.06 1981.73 952.23 1981.73 971.19C1981.73 1012.27 1948.55 1045.45 1908.26 1045.45Z"
      fill="white" />
    <path
      d="M1908.26 854.27C1844.27 854.27 1791.34 907.2 1791.34 971.19C1791.34 1022.54 1837.31 1068.36 1885.5 1083.37L1878.5 1300.62C1878.5 1423.86 1796.08 1496.8 1622.28 1524.45C1598.58 1478.63 1548.81 1455.4 1470.6 1443.55H1469.81C1408.19 1435.65 1325.58 1417.48 1291.61 1389.83L1290.61 1321.16C1323.79 1291.93 1407.4 1273.76 1471.39 1265.86H1472.18C1581.99 1249.27 1635.08 1197.13 1635.08 1112.6V985.41C1685.64 972.77 1727.35 926.95 1727.35 871.65C1727.35 806.87 1674.42 753.94 1610.43 753.94C1546.44 753.94 1493.51 806.87 1493.51 872.44C1493.51 928.53 1542.8 975.93 1594.94 986.99L1596.94 1124.39C1596.94 1182.85 1551.6 1212.87 1466.28 1226.3C1410.98 1232.62 1328.95 1246.84 1293.4 1268.96L1291.4 878.02C1334.06 852.74 1376.5 864.54 1399.5 750.78C1399.5 671.78 1335.51 607 1255.72 607C1176.72 607 1111.75 671.614 1117.94 750.78C1138.5 874.02 1240.04 877.02 1240.04 877.02L1241.04 1201.87C1207.65 1186.07 1111.94 1175.01 1066.12 1169.48C959.47 1153.68 946.04 1107.86 946.04 1069.15V979.88C997.39 968.03 1036.89 921.42 1036.89 865.33C1036.89 801.34 983.96 748.41 919.97 748.41C855.98 748.41 803.05 800.55 803.05 864.54C803.05 920.63 842.55 966.45 893.9 979.09V1068.36C893.9 1152.89 949.2 1204.24 1059.01 1220.04C1111.94 1227.94 1209.23 1239.79 1240.04 1261.12V1469.19C1166.57 1422.58 1002.14 1391.77 886.8 1377.55C709.05 1350.69 630.05 1259.54 630.05 1133.93V1084.16C676.66 1068.36 724.84 1024.91 724.84 972.77C724.84 908.78 671.91 855.85 607.92 855.85C543.93 855.85 491 908.78 491 972.77C491 1024.12 545.18 1068.36 591.79 1084.16V1133.93C591.79 1225.57 625.76 1297.46 693.7 1347.23C745.05 1385.94 795.94 1402.22 891.53 1416.44L892.32 1415.44C1020.3 1432.03 1173.1 1468.37 1241.83 1525.25L1240.83 2413.73C1287.44 2431.9 1247.37 2431.11 1293.98 2412.94V2004.31C1327.16 1975.87 1408.98 1958.49 1472.18 1950.59H1472.97C1582.78 1934 1627.87 1894.86 1627.87 1810.33V1791.37C1661.84 1780.31 1698.12 1750.92 1698.12 1713.79C1698.12 1676.66 1662.84 1643.48 1628.87 1633.21V1559.13C1718.93 1544.12 1765.66 1534.84 1815.43 1497.71C1883.37 1447.94 1917.34 1386.05 1917.34 1294.41L1928.34 1083.37C1971 1066.78 2024.39 1023.33 2024.39 971.98C2024.39 941.17 2012.54 911.94 1991.21 889.03C1969.09 866.91 1939.86 854.27 1908.26 854.27ZM1535.38 872.44C1535.38 831.36 1568.56 798.18 1608.85 798.18C1649.93 798.18 1682.32 831.36 1682.32 872.44C1682.32 913.52 1649.14 945.91 1608.85 945.91C1569.35 945.91 1535.38 911.94 1535.38 872.44ZM918.39 938.01C878.1 938.01 844.92 904.83 844.92 864.54C844.92 823.46 878.1 791.07 918.39 791.07C958.68 791.07 991.86 824.25 991.86 864.54C991.86 904.83 957.89 938.01 918.39 938.01ZM606.34 1044.66C566.05 1044.66 532.87 1012.27 532.87 971.19C532.87 930.11 566.05 897.72 606.34 897.72C646.63 897.72 679.81 930.9 679.81 971.19C679.81 1011.48 645.84 1044.66 606.34 1044.66ZM1254.14 849.53C1198.84 849.53 1153.81 804.5 1153.81 749.2C1153.81 693.11 1198.84 648.08 1254.14 648.08C1309.44 648.08 1354.47 693.11 1354.47 748.41C1354.47 803.71 1309.44 849.53 1254.14 849.53ZM1290.82 1438.03C1327.16 1458.57 1407.4 1472.79 1461.91 1479.9C1512.47 1487.8 1559.44 1509.23 1577.61 1532.14C1482.81 1549.52 1353.02 1584.75 1289.82 1626.62L1290.82 1438.03ZM1592.36 1633.21C1558.39 1644.27 1525.11 1676.66 1525.11 1713.79C1525.11 1752.5 1558.39 1784.1 1592.36 1794.37V1813.33C1591.57 1871.79 1548.02 1907.81 1462.7 1921.24C1408.19 1927.56 1327.95 1941.78 1292.4 1963.11L1291.4 1676.05C1353.02 1621.54 1481.76 1585.99 1592.36 1567.03V1633.21ZM1908.26 1045.45C1867.18 1045.45 1834.79 1012.27 1834.79 971.98C1834.79 931.69 1867.97 898.51 1908.26 898.51C1928.01 898.51 1946.97 906.41 1961.19 919.84C1975.41 934.06 1981.73 952.23 1981.73 971.19C1981.73 1012.27 1948.55 1045.45 1908.26 1045.45Z"
      stroke="white" stroke-width="10" />
  </g>
  <defs>
    <filter id="filter0_d" x="0" y="0" width="2538.4" height="2536.48" filterUnits="userSpaceOnUse"
      color-interpolation-filters="sRGB">
      <feFlood flood-opacity="0" result="BackgroundImageFix" />
      <feColorMatrix in="SourceAlpha" type="matrix" values="0 0 0 0 0 0 0 0 0 0 0 0 0 0 0 0 0 0 127 0" />
      <feOffset dx="10" dy="10" />
      <feGaussianBlur stdDeviation="25" />
      <feColorMatrix type="matrix" values="0 0 0 0 0.0352941 0 0 0 0 1 0 0 0 0 0 0 0 0 1 0" />
      <feBlend mode="normal" in2="BackgroundImageFix" result="effect1_dropShadow" />
      <feBlend mode="normal" in="SourceGraphic" in2="effect1_dropShadow" result="shape" />
    </filter>
    <filter id="filter1_f" x="446" y="562" width="1623.39" height="1909.97" filterUnits="userSpaceOnUse"
      color-interpolation-filters="sRGB">
      <feFlood flood-opacity="0" result="BackgroundImageFix" />
      <feBlend mode="normal" in="SourceGraphic" in2="BackgroundImageFix" result="shape" />
      <feGaussianBlur stdDeviation="20" result="effect1_foregroundBlur" />
    </filter>
  </defs>
</svg>
