<svg width="24" height="24" viewBox="0 0 24 24" fill="none" xmlns="http://www.w3.org/2000/svg">
<rect width="24" height="24" fill="white" fill-opacity="0.01"/>
<path d="M10 5C10 5.2647 10.1049 5.5186 10.2918 5.70605C10.4787 5.8935 10.7323 5.99921 10.997 6H14.003C14.2682 6 14.5226 5.89464 14.7101 5.70711C14.8976 5.51957 15.003 5.26522 15.003 5C15.003 4.73478 14.8976 4.48043 14.7101 4.29289C14.5226 4.10536 14.2682 4 14.003 4H10.997C10.45 4 10 4.45 10 5ZM8 5C8 3.343 9.347 2 10.997 2H14.003C14.7986 2 15.5617 2.31607 16.1243 2.87868C16.6869 3.44129 17.003 4.20435 17.003 5C17.003 5.79565 16.6869 6.55871 16.1243 7.12132C15.5617 7.68393 14.7986 8 14.003 8H10.997C10.2019 7.9992 9.43958 7.68278 8.87762 7.12026C8.31566 6.55774 8 5.79513 8 5ZM10 12C10 12.2647 10.1049 12.5186 10.2918 12.706C10.4787 12.8935 10.7323 12.9992 10.997 13H14.003C14.2682 13 14.5226 12.8946 14.7101 12.7071C14.8976 12.5196 15.003 12.2652 15.003 12C15.003 11.7348 14.8976 11.4804 14.7101 11.2929C14.5226 11.1054 14.2682 11 14.003 11H10.997C10.45 11 10 11.45 10 12ZM8 12C8 10.343 9.347 9 10.997 9H14.003C14.7986 9 15.5617 9.31607 16.1243 9.87868C16.6869 10.4413 17.003 11.2044 17.003 12C17.003 12.7956 16.6869 13.5587 16.1243 14.1213C15.5617 14.6839 14.7986 15 14.003 15H10.997C10.2019 14.9992 9.43958 14.6828 8.87762 14.1203C8.31566 13.5577 8 12.7951 8 12ZM10 19C10 19.2647 10.1049 19.5186 10.2918 19.706C10.4787 19.8935 10.7323 19.9992 10.997 20H14.003C14.2682 20 14.5226 19.8946 14.7101 19.7071C14.8976 19.5196 15.003 19.2652 15.003 19C15.003 18.7348 14.8976 18.4804 14.7101 18.2929C14.5226 18.1054 14.2682 18 14.003 18H10.997C10.45 18 10 18.45 10 19ZM8 19C8 17.343 9.347 16 10.997 16H14.003C14.7986 16 15.5617 16.3161 16.1243 16.8787C16.6869 17.4413 17.003 18.2044 17.003 19C17.003 19.7956 16.6869 20.5587 16.1243 21.1213C15.5617 21.6839 14.7986 22 14.003 22H10.997C10.2019 21.9992 9.43958 21.6828 8.87762 21.1203C8.31566 20.5577 8 19.7951 8 19Z" fill="#42526E"/>
<path d="M16.062 6H18.477C19.289 6 19.949 6.66 19.949 7.47V9.424C19.949 10.239 19.295 10.894 18.474 10.894H16V12.894H18.474C18.9303 12.8952 19.3823 12.8063 19.8041 12.6324C20.2259 12.4585 20.6092 12.203 20.9321 11.8806C21.2549 11.5582 21.511 11.1753 21.6855 10.7537C21.86 10.3321 21.9495 9.88026 21.949 9.424V7.47C21.9485 6.54951 21.5824 5.66691 20.9314 5.01622C20.2803 4.36552 19.3975 4 18.477 4H16.062V6ZM8.887 11H6.472C5.55151 11 4.6687 11.3655 4.01763 12.0162C3.36656 12.6669 3.00053 13.5495 3 14.47V16.424C3 18.344 4.55 19.894 6.474 19.894H8.95V17.894H6.474C5.654 17.894 5 17.239 5 16.424V14.47C5 13.66 5.66 13 6.472 13H8.887V11Z" fill="#42526E"/>
</svg>
