<svg width="24" height="24" viewBox="0 0 24 24" fill="none" xmlns="http://www.w3.org/2000/svg">
<rect width="24" height="24" fill="white" fill-opacity="0.01"/>
<path d="M8.00001 3.998H4.99501C4.46396 4.00012 3.95548 4.21304 3.58137 4.58996C3.20726 4.96688 2.99815 5.47694 3.00001 6.008V13.991C3.00001 15.098 3.89301 15.999 4.99501 15.999H19.005C19.2679 15.9982 19.528 15.9456 19.7705 15.8443C20.0131 15.7429 20.2333 15.5948 20.4185 15.4083C20.6038 15.2219 20.7505 15.0007 20.8503 14.7575C20.9501 14.5143 21.0009 14.2539 21 13.991V6.007C21.0011 5.47637 20.7916 4.96698 20.4177 4.59055C20.0437 4.21412 19.5356 4.00138 19.005 3.999H16V5.999H19V13.999H5.00001V5.999H8.00001V3.998Z" fill="#42526E"/>
<path fill-rule="evenodd" clip-rule="evenodd" d="M10 16.998H14V19.998H10V16.998Z" fill="#42526E"/>
<path fill-rule="evenodd" clip-rule="evenodd" d="M9.00001 19.998C9 19.7345 9.10398 19.4817 9.28936 19.2944C9.47474 19.1072 9.72653 19.0006 9.99001 18.998H14.01C14.556 18.998 15 19.442 15 19.998V20.998H9.00001V19.998ZM9.29201 8.291C9.10521 8.47909 9.00037 8.73341 9.00037 8.9985C9.00037 9.26359 9.10521 9.51792 9.29201 9.706L11.289 11.702C11.486 11.899 11.742 12 12.001 12C12.255 12 12.512 11.901 12.712 11.702L14.707 9.706C14.7999 9.61316 14.8736 9.50292 14.9239 9.38159C14.9743 9.26026 15.0002 9.1302 15.0002 8.99885C15.0003 8.8675 14.9744 8.73743 14.9242 8.61607C14.874 8.4947 14.8004 8.38441 14.7075 8.2915C14.6147 8.19859 14.5044 8.12488 14.3831 8.07457C14.2618 8.02426 14.1317 7.99834 14.0004 7.9983C13.869 7.99825 13.7389 8.02408 13.6176 8.0743C13.4962 8.12452 13.3859 8.19816 13.293 8.291L12 9.585L10.706 8.291C10.5185 8.10353 10.2642 7.99821 9.99901 7.99821C9.73385 7.99821 9.47954 8.10353 9.29201 8.291Z" fill="#42526E"/>
<path d="M13 3.998C13 3.44572 12.5523 2.998 12 2.998C11.4477 2.998 11 3.44572 11 3.998V8.998C11 9.55028 11.4477 9.998 12 9.998C12.5523 9.998 13 9.55028 13 8.998V3.998Z" fill="#42526E"/>
</svg>
