<svg width="24" height="24" viewBox="0 0 24 24" fill="none" xmlns="http://www.w3.org/2000/svg">
<rect width="24" height="24" fill="white" fill-opacity="0.01"/>
<path fill-rule="evenodd" clip-rule="evenodd" d="M16 12C16 10.1 14.7 8.6 13 8.1V4C13 3.4 12.6 3 12 3C11.4 3 11 3.4 11 4V8.1C9.3 8.5 8 10.1 8 12C8 13.9 9.3 15.4 11 15.9V20C11 20.6 11.4 21 12 21C12.6 21 13 20.6 13 20V15.9C14.7 15.4 16 13.9 16 12ZM12 14C10.9 14 10 13.1 10 12C10 10.9 10.9 10 12 10C13.1 10 14 10.9 14 12C14 13.1 13.1 14 12 14Z" fill="#42526E"/>
</svg>
