<svg width="24" height="24" viewBox="0 0 24 24" fill="none" xmlns="http://www.w3.org/2000/svg">
<rect width="24" height="24" fill="white" fill-opacity="0.01"/>
<path d="M10.067 16.441C10.401 17.359 11.373 18.041 12.347 18.041H18.514C19.064 18.041 19.51 17.597 19.51 17.041C19.51 16.7765 19.4052 16.5227 19.2185 16.3353C19.0319 16.1479 18.7785 16.0421 18.514 16.041H12.347C12.214 16.041 11.992 15.885 11.946 15.757L11.13 13.494L10.067 16.441ZM7.94001 10.547L7.12401 8.284C7.08001 8.16 6.85101 8 6.72201 8H3.99801C3.45601 8 3.00001 7.552 3.00001 7C3.00001 6.444 3.44701 6 3.99801 6H6.72201C7.69201 6 8.67101 6.686 9.00401 7.6L7.94001 10.546V10.547Z" fill="#42526E"/>
<path d="M19.51 7C19.51 6.73548 19.4052 6.48173 19.2185 6.2943C19.0319 6.10688 18.7785 6.00106 18.514 6H12.347C11.371 6 10.397 6.684 10.064 7.605L7.12401 15.757C7.08001 15.88 6.85101 16.041 6.72201 16.041H3.99801C3.86671 16.0407 3.73665 16.0664 3.61531 16.1166C3.49398 16.1668 3.38377 16.2405 3.29102 16.3334C3.19827 16.4264 3.12481 16.5367 3.07486 16.6582C3.02492 16.7796 2.99948 16.9097 3.00001 17.041C3.00001 17.593 3.45601 18.041 3.99801 18.041H6.72201C7.69401 18.041 8.67501 17.352 9.00601 16.435L11.946 8.284C11.992 8.156 12.214 8 12.347 8H18.514C19.064 8 19.51 7.556 19.51 7Z" fill="#42526E"/>
<path d="M17.293 8.293C17.1975 8.38525 17.1213 8.49559 17.0689 8.6176C17.0165 8.7396 16.9889 8.87082 16.9878 9.0036C16.9866 9.13638 17.0119 9.26806 17.0622 9.39095C17.1125 9.51385 17.1867 9.6255 17.2806 9.71939C17.3745 9.81329 17.4862 9.88754 17.6091 9.93782C17.732 9.9881 17.8636 10.0134 17.9964 10.0123C18.1292 10.0111 18.2604 9.98351 18.3824 9.9311C18.5044 9.87869 18.6148 9.80251 18.707 9.707L20.703 7.711C20.7972 7.61807 20.8719 7.50737 20.9229 7.38531C20.974 7.26326 21.0002 7.13229 21.0002 7C21.0002 6.86771 20.974 6.73674 20.9229 6.61469C20.8719 6.49263 20.7972 6.38193 20.703 6.289L18.707 4.293C18.5184 4.11084 18.2658 4.01005 18.0036 4.01233C17.7414 4.0146 17.4906 4.11977 17.3052 4.30518C17.1198 4.49059 17.0146 4.7414 17.0123 5.0036C17.0101 5.2658 17.1108 5.5184 17.293 5.707L18.586 7L17.293 8.293ZM17.293 18.293C17.1108 18.4816 17.0101 18.7342 17.0123 18.9964C17.0146 19.2586 17.1198 19.5094 17.3052 19.6948C17.4906 19.8802 17.7414 19.9854 18.0036 19.9877C18.2658 19.99 18.5184 19.8892 18.707 19.707L20.703 17.711C20.7972 17.6181 20.8719 17.5074 20.9229 17.3853C20.974 17.2633 21.0002 17.1323 21.0002 17C21.0002 16.8677 20.974 16.7367 20.9229 16.6147C20.8719 16.4926 20.7972 16.3819 20.703 16.289L18.707 14.293C18.5184 14.1108 18.2658 14.01 18.0036 14.0123C17.7414 14.0146 17.4906 14.1198 17.3052 14.3052C17.1198 14.4906 17.0146 14.7414 17.0123 15.0036C17.0101 15.2658 17.1108 15.5184 17.293 15.707L18.586 17L17.293 18.293Z" fill="#42526E"/>
</svg>
