<svg width="24" height="24" viewBox="0 0 24 24" fill="none" xmlns="http://www.w3.org/2000/svg">
<path d="M13 12.394V19.994C13 20.55 12.552 21 12 21C11.448 21 11 20.55 11 19.993V12.345L10.687 12.662C10.301 13.05 9.675 13.05 9.289 12.662C8.903 12.272 8.903 11.642 9.289 11.254L11.207 9.321C11.423 9.105 11.707 8.998 11.987 9.001H12C12.19 9.001 12.364 9.053 12.514 9.143C12.597 9.191 12.674 9.25 12.746 9.323L14.711 11.303C15.098 11.691 15.097 12.321 14.711 12.71C14.325 13.097 13.701 13.097 13.314 12.708L13 12.394ZM16.84 5.418C19.644 5.418 22 7.62 22 10.498C22 13.41 19.615 16 16.9 16H14.02V14.007H16.9C18.557 14.007 20.015 12.344 20.015 10.499C20.015 8.719 18.545 7.411 16.911 7.411H16.901C16.511 7.411 16.214 7.461 15.931 7.561L15.761 7.624C15.155 7.872 14.885 7.378 14.885 7.378L14.735 7.11C14.005 5.763 12.535 5.014 11.019 4.99C8.937 5.025 7.222 6.538 6.949 8.635L6.904 8.975C6.904 8.975 6.834 9.5 6.239 9.5C6.226 9.5 6.227 9.506 6.216 9.506H5.96C4.825 9.506 3.985 10.463 3.985 11.663C3.985 12.869 4.972 14.005 6.055 14.005H10.019V16H6.054C3.895 16 2 13.955 2 11.665C2 9.665 3.312 8 5.138 7.59C5.845 4.885 8.19 3.04 11.024 3C12.999 3.02 14.924 3.9 16.062 5.48C16.318 5.44 16.578 5.418 16.839 5.418H16.84Z" fill="#42526E"/>
</svg>
