<svg width="24" height="24" viewBox="0 0 24 24" fill="none" xmlns="http://www.w3.org/2000/svg">
<rect width="24" height="24" fill="white" fill-opacity="0.01"/>
<path fill-rule="evenodd" clip-rule="evenodd" d="M3.00001 12C3.00001 11.448 3.44601 11 3.99801 11H12V13H3.99801C3.86671 13.0003 3.73665 12.9746 3.61531 12.9244C3.49398 12.8742 3.38377 12.8005 3.29102 12.7076C3.19827 12.6146 3.12481 12.5043 3.07486 12.3828C3.02492 12.2614 2.99948 12.1313 3.00001 12Z" fill="#42526E"/>
<path d="M12 11L12 9C12 8.449 12.45 8 13 8H19.395V6H13C11.345 6 10 7.344 10 9V11H12ZM10 13V15C10 16.656 11.345 18 13 18H19.395V16H13C12.45 16 12 15.551 12 15L12 13H10Z" fill="#42526E"/>
<path d="M17.293 8.293C17.1975 8.38525 17.1213 8.49559 17.0689 8.6176C17.0165 8.7396 16.9889 8.87082 16.9878 9.0036C16.9866 9.13638 17.0119 9.26806 17.0622 9.39095C17.1125 9.51385 17.1867 9.6255 17.2806 9.71939C17.3745 9.81329 17.4862 9.88754 17.6091 9.93782C17.732 9.9881 17.8636 10.0134 17.9964 10.0123C18.1292 10.0111 18.2604 9.98351 18.3824 9.9311C18.5044 9.87869 18.6148 9.80251 18.707 9.707L20.703 7.711C20.7972 7.61807 20.8719 7.50737 20.9229 7.38531C20.974 7.26326 21.0002 7.13229 21.0002 7C21.0002 6.86771 20.974 6.73674 20.9229 6.61469C20.8719 6.49263 20.7972 6.38193 20.703 6.289L18.707 4.293C18.5184 4.11084 18.2658 4.01005 18.0036 4.01233C17.7414 4.0146 17.4906 4.11977 17.3052 4.30518C17.1198 4.49059 17.0146 4.7414 17.0123 5.0036C17.0101 5.2658 17.1108 5.5184 17.293 5.707L18.586 7L17.293 8.293ZM17.293 18.293C17.1108 18.4816 17.0101 18.7342 17.0123 18.9964C17.0146 19.2586 17.1198 19.5094 17.3052 19.6948C17.4906 19.8802 17.7414 19.9854 18.0036 19.9877C18.2658 19.99 18.5184 19.8892 18.707 19.707L20.703 17.711C20.7972 17.6181 20.8719 17.5074 20.9229 17.3853C20.974 17.2633 21.0002 17.1323 21.0002 17C21.0002 16.8677 20.974 16.7367 20.9229 16.6147C20.8719 16.4926 20.7972 16.3819 20.703 16.289L18.707 14.293C18.5184 14.1108 18.2658 14.01 18.0036 14.0123C17.7414 14.0146 17.4906 14.1198 17.3052 14.3052C17.1198 14.4906 17.0146 14.7414 17.0123 15.0036C17.0101 15.2658 17.1108 15.5184 17.293 15.707L18.586 17L17.293 18.293Z" fill="#42526E"/>
</svg>
