<svg width="24" height="24" viewBox="0 0 24 24" fill="none" xmlns="http://www.w3.org/2000/svg">
<rect width="24" height="24" fill="white" fill-opacity="0.01"/>
<path d="M6.99995 15V16.994C6.99995 18.103 7.89795 19 9.00595 19H18.9939C19.2574 19.0001 19.5183 18.9483 19.7618 18.8476C20.0052 18.7468 20.2264 18.5991 20.4127 18.4127C20.599 18.2264 20.7468 18.0053 20.8475 17.7618C20.9483 17.5184 21.0001 17.2575 20.9999 16.994V7.006C21.0001 6.74253 20.9483 6.48162 20.8475 6.23818C20.7468 5.99474 20.599 5.77355 20.4127 5.58725C20.2264 5.40095 20.0052 5.25319 19.7618 5.15243C19.5183 5.05167 19.2574 4.99987 18.9939 5H9.00595C8.74248 4.99987 8.48157 5.05167 8.23813 5.15243C7.99469 5.25319 7.7735 5.40095 7.5872 5.58725C7.4009 5.77355 7.25314 5.99474 7.15238 6.23818C7.05161 6.48162 6.99982 6.74253 6.99995 7.006V9H9.00295C9.00295 7.825 9.00495 7 9.00595 7C9.00595 7 18.9999 7.002 18.9999 7.006C18.9999 7.006 18.9979 17 18.9939 17C18.9939 17 8.99995 16.998 8.99995 16.994V15H6.99995Z" fill="#42526E"/>
<path fill-rule="evenodd" clip-rule="evenodd" d="M7.99995 6H19.9999V9H7.99995V6ZM4.29095 9.293L2.29695 11.288C2.20277 11.381 2.12799 11.4918 2.07695 11.6139C2.02591 11.7361 1.99963 11.8671 1.99963 11.9995C1.99963 12.1319 2.02591 12.2629 2.07695 12.3851C2.12799 12.5072 2.20277 12.618 2.29695 12.711L4.29095 14.708C4.47856 14.8949 4.73261 14.9999 4.99745 14.9999C5.26229 14.9999 5.51633 14.8949 5.70395 14.708C6.09395 14.317 6.09395 13.683 5.70395 13.293L4.41195 12L5.70395 10.707C5.88174 10.5177 5.97889 10.2666 5.97486 10.0069C5.97083 9.74724 5.86592 9.49931 5.68234 9.31559C5.49876 9.13188 5.2509 9.0268 4.99122 9.02258C4.73153 9.01837 4.4804 9.11535 4.29095 9.293Z" fill="#42526E"/>
<path d="M13.9999 11H3.99995C3.44766 11 2.99995 11.4477 2.99995 12C2.99995 12.5523 3.44766 13 3.99995 13H13.9999C14.5522 13 14.9999 12.5523 14.9999 12C14.9999 11.4477 14.5522 11 13.9999 11Z" fill="#42526E"/>
</svg>
