<svg width="24" height="24" viewBox="0 0 24 24" fill="none" xmlns="http://www.w3.org/2000/svg">
<rect width="24" height="24" fill="white" fill-opacity="0.01"/>
<path fill-rule="evenodd" clip-rule="evenodd" d="M10.762 19.632L10.761 19.722L11.18 20.618C11.357 21.008 11.19 21.468 10.803 21.652C10.547 21.772 10.325 21.798 10.137 21.729C9.94904 21.661 9.85404 21.626 9.73504 21.371L8.36004 18.422C8.18104 18.038 8.35204 17.568 8.77104 17.294L11.719 15.92C11.9062 15.835 12.1192 15.8267 12.3123 15.897C12.5055 15.9673 12.6634 16.1106 12.752 16.296C12.93 16.685 12.763 17.146 12.377 17.33L11.371 17.833C14.381 18.037 17.351 16.243 17.871 13.296C18.0035 12.5447 17.9857 11.7745 17.8187 11.0301C17.6517 10.2857 17.3388 9.58175 16.898 8.959L16.804 8.831C16.7303 8.72986 16.6782 8.6146 16.6511 8.49242C16.6239 8.37023 16.6222 8.24376 16.6462 8.12091C16.6701 7.99805 16.7191 7.88145 16.7902 7.7784C16.8612 7.67535 16.9527 7.58807 17.059 7.522C17.2859 7.38102 17.5573 7.33013 17.8197 7.37937C18.0822 7.42861 18.3167 7.5744 18.477 7.788L18.529 7.858C19.1165 8.6885 19.5336 9.62712 19.7564 10.6197C19.9792 11.6122 20.0032 12.6391 19.827 13.641C19.085 17.846 15.041 20.331 10.762 19.631V19.632ZM12.694 4.086L12.249 3.131C12.1637 2.94376 12.1553 2.73049 12.2256 2.53711C12.2959 2.34372 12.4394 2.18567 12.625 2.097C12.8123 2.01164 13.0255 2.00322 13.2189 2.07354C13.4123 2.14386 13.5704 2.28731 13.659 2.473L15.034 5.422C15.179 5.9 15.008 6.369 14.624 6.548L11.676 7.923C11.419 8.043 11.326 8.009 11.137 7.94C10.949 7.873 10.795 7.71 10.677 7.453C10.5916 7.26588 10.583 7.05271 10.6532 6.85934C10.7233 6.66597 10.8665 6.50785 11.052 6.419L11.884 6.021C9.07004 6.059 6.59604 8.053 6.09604 10.886C5.89075 12.0446 6.04209 13.2383 6.53004 14.309C6.69004 14.663 6.88704 15.003 7.12004 15.325C7.19444 15.4166 7.24815 15.5231 7.27749 15.6374C7.30683 15.7517 7.3111 15.871 7.29001 15.987C7.26892 16.1031 7.22298 16.2133 7.15532 16.3099C7.08766 16.4066 6.99989 16.4875 6.89804 16.547L6.65804 16.687C6.46889 16.7974 6.24594 16.8349 6.03107 16.7926C5.81619 16.7502 5.62416 16.6309 5.49104 16.457C5.18977 16.0392 4.92988 15.5931 4.71504 15.125C4.05704 13.6914 3.85191 12.0912 4.12704 10.538C4.84204 6.481 8.59904 3.71 12.694 4.086Z" fill="#42526E"/>
</svg>
