<svg width="24" height="24" viewBox="0 0 24 24" fill="none" xmlns="http://www.w3.org/2000/svg">
<rect width="24" height="24" fill="white" fill-opacity="0.01"/>
<path fill-rule="evenodd" clip-rule="evenodd" d="M18 15.2V11C18 9.3 16.7 8 15 8H13.1L13.9 7.2C14.2 6.9 14.2 6.4 13.9 6.1C13.6 5.8 13.1 5.8 12.8 6.1L10.5 8.4C10.2 8.8 10.2 9.3 10.5 9.6L12.8 11.9C13 12.1 13.1 12.1 13.3 12.1C13.5 12.1 13.7 12 13.9 11.8C14.2 11.5 14.2 11 13.9 10.7L13.2 10H15C15.6 10 16 10.4 16 11V15.2C14.8 15.6 14 16.7 14 18C14 19.7 15.3 21 17 21C18.7 21 20 19.7 20 18C20 16.7 19.2 15.6 18 15.2ZM17 19C16.4 19 16 18.6 16 18C16 17.4 16.4 17 17 17C17.6 17 18 17.4 18 18C18 18.6 17.6 19 17 19ZM7 3C5.4 3 4 4.3 4 6C4 7.3 4.8 8.4 6 8.8V20C6 20.6 6.4 21 7 21C7.6 21 8 20.6 8 20V8.8C9.2 8.4 10 7.3 10 6C10 4.3 8.7 3 7 3ZM7 7C6.5 7 6 6.6 6 6C6 5.4 6.4 5 7 5C7.6 5 8 5.4 8 6C8 6.6 7.6 7 7 7Z" fill="#42526E"/>
</svg>
