<svg width="24" height="24" viewBox="0 0 24 24" fill="none" xmlns="http://www.w3.org/2000/svg">
<rect width="24" height="24" fill="white" fill-opacity="0.01"/>
<path d="M5 5V19H19V5H5ZM5 3H19C19.5304 3 20.0391 3.21071 20.4142 3.58579C20.7893 3.96086 21 4.46957 21 5V19C21 19.5304 20.7893 20.0391 20.4142 20.4142C20.0391 20.7893 19.5304 21 19 21H5C4.46957 21 3.96086 20.7893 3.58579 20.4142C3.21071 20.0391 3 19.5304 3 19V5C3 4.46957 3.21071 3.96086 3.58579 3.58579C3.96086 3.21071 4.46957 3 5 3Z" fill="#42526E"/>
<path fill-rule="evenodd" clip-rule="evenodd" d="M9.232 8.306L6.302 11.26C6.10863 11.4574 6.00033 11.7227 6.00033 11.999C6.00033 12.2753 6.10863 12.5406 6.302 12.738L9.232 15.694C9.32807 15.7904 9.44222 15.8669 9.56792 15.9191C9.69362 15.9713 9.82839 15.9982 9.9645 15.9982C10.1006 15.9982 10.2354 15.9713 10.3611 15.9191C10.4868 15.8669 10.6009 15.7904 10.697 15.694C10.8918 15.4974 11.0011 15.2318 11.0011 14.955C11.0011 14.6782 10.8918 14.4126 10.697 14.216L8.5 11.999L10.697 9.782C10.8917 9.58571 11.0009 9.32046 11.0009 9.044C11.0009 8.76754 10.8917 8.50229 10.697 8.306C10.6015 8.20887 10.4875 8.13177 10.3618 8.07923C10.2361 8.02668 10.1012 7.99975 9.965 8C9.698 8 9.435 8.101 9.232 8.306ZM13.304 8.305C13.1092 8.50163 12.9999 8.76721 12.9999 9.044C12.9999 9.32078 13.1092 9.58638 13.304 9.783L15.5 12L13.304 14.217C13.1095 14.4136 13.0004 14.679 13.0004 14.9555C13.0004 15.232 13.1095 15.4974 13.304 15.694C13.708 16.102 14.364 16.102 14.768 15.694L17.698 12.739C17.8918 12.5419 18.0005 12.2765 18.0005 12C18.0005 11.7235 17.8918 11.4581 17.698 11.261L14.768 8.305C14.6722 8.20837 14.5581 8.13167 14.4325 8.07933C14.3069 8.02699 14.1721 8.00004 14.036 8.00004C13.8999 8.00004 13.7651 8.02699 13.6395 8.07933C13.5139 8.13167 13.3998 8.20837 13.304 8.305Z" fill="#42526E"/>
</svg>
