<svg width="24" height="24" viewBox="0 0 24 24" fill="none" xmlns="http://www.w3.org/2000/svg">
<rect width="24" height="24" fill="white" fill-opacity="0.01"/>
<path fill-rule="evenodd" clip-rule="evenodd" d="M16 9C16.8 9 17.6 8.7 18.1 8.1C18.7 7.5 19 6.8 19 6C19 5.2 18.7 4.4 18.1 3.9C17 2.8 15 2.8 13.9 3.9C13.3 4.4 13 5.2 13 6C13 6.8 13.3 7.5 13.8 8L12 11.1L10.2 8C10.7 7.5 11 6.8 11 6C11 5.2 10.7 4.4 10.1 3.9C9 2.7 7 2.7 5.9 3.9C5.3 4.4 5 5.2 5 6C5 6.8 5.3 7.6 5.9 8.1C6.5 8.7 7.2 9 8 9H8.4L15.1 20.5C15.3 20.8 15.6 21 16 21C16.2 21 16.3 21 16.5 20.9C17 20.6 17.1 20 16.9 19.5L13.2 13.1L15.6 8.9C15.7 9 15.9 9 16 9ZM8.7 6.7C8.3 7.1 7.7 7.1 7.3 6.7C7.1 6.5 7 6.3 7 6C7 5.7 7.1 5.5 7.3 5.3C7.5 5.1 7.7 5 8 5C8.3 5 8.5 5.1 8.7 5.3C8.9 5.5 9 5.7 9 6C9 6.3 8.9 6.5 8.7 6.7ZM15.3 5.3C15.5 5.1 15.7 5 16 5C16.3 5 16.5 5.1 16.7 5.3C16.9 5.5 17 5.7 17 6C17 6.3 16.9 6.5 16.7 6.7C16.3 7.1 15.7 7.1 15.3 6.7C15.1 6.5 15 6.3 15 6C15 5.7 15.1 5.5 15.3 5.3Z" fill="#42526E"/>
<path fill-rule="evenodd" clip-rule="evenodd" d="M10.3 14.1L7.2 19.5C6.9 20 7 20.6 7.5 20.8C7.7 20.9 7.8 21 8 21C8.3 21 8.7 20.8 8.9 20.5L11.5 16.1L10.3 14.1Z" fill="#42526E"/>
</svg>
