<svg width="24" height="24" viewBox="0 0 24 24" fill="none" xmlns="http://www.w3.org/2000/svg">
<rect width="24" height="24" fill="white" fill-opacity="0.01"/>
<path fill-rule="evenodd" clip-rule="evenodd" d="M8.85203 6.743L4.29403 11.291C4.20099 11.3838 4.12715 11.494 4.07674 11.6154C4.02633 11.7368 4.00034 11.8669 4.00024 11.9983C4.00015 12.1297 4.02596 12.2599 4.0762 12.3813C4.12644 12.5027 4.20012 12.6131 4.29303 12.706V12.707L8.85203 17.256C9.05031 17.4475 9.31583 17.5535 9.59148 17.5513C9.86712 17.549 10.1309 17.4386 10.326 17.2439C10.5211 17.0492 10.632 16.7857 10.6348 16.51C10.6376 16.2344 10.5321 15.9687 10.341 15.77L10.34 15.769L6.56503 11.999L10.34 8.231C10.5373 8.03418 10.6483 7.76707 10.6487 7.48841C10.6491 7.20975 10.5388 6.94235 10.342 6.745L10.341 6.744C10.2434 6.64606 10.1274 6.56833 9.99968 6.51527C9.87196 6.46221 9.73504 6.43485 9.59674 6.43475C9.45844 6.43466 9.32148 6.46184 9.19369 6.51473C9.06591 6.56762 8.94981 6.64519 8.85203 6.743ZM13.658 6.744C13.5604 6.84152 13.4829 6.95734 13.43 7.08483C13.3772 7.21232 13.35 7.34898 13.35 7.487C13.35 7.62502 13.3772 7.76168 13.43 7.88917C13.4829 8.01666 13.5604 8.13248 13.658 8.23V8.231L17.435 12L13.659 15.769C13.5612 15.8665 13.4836 15.9824 13.4307 16.11C13.3777 16.2376 13.3505 16.3744 13.3505 16.5125C13.3505 16.6506 13.3777 16.7874 13.4307 16.915C13.4836 17.0426 13.5612 17.1585 13.659 17.256C13.7567 17.3537 13.8727 17.4312 14.0004 17.4841C14.128 17.537 14.2649 17.5642 14.403 17.5642C14.5412 17.5642 14.678 17.537 14.8057 17.4841C14.9334 17.4312 15.0493 17.3537 15.147 17.256L19.705 12.709C19.8926 12.5216 19.9981 12.2674 19.9983 12.0022C19.9985 11.737 19.8934 11.4827 19.706 11.295V11.293L15.147 6.743C15.0493 6.64541 14.9333 6.56806 14.8056 6.51538C14.6779 6.4627 14.5411 6.43573 14.403 6.436C14.2647 6.43573 14.1276 6.4628 13.9998 6.51565C13.8719 6.56851 13.7558 6.64611 13.658 6.744Z" fill="#42526E"/>
</svg>
